<?xml version="1.0" encoding="utf-8" standalone="no"?>
<!DOCTYPE svg PUBLIC "-//W3C//DTD SVG 1.1//EN"
  "http://www.w3.org/Graphics/SVG/1.1/DTD/svg11.dtd">
<svg xmlns:xlink="http://www.w3.org/1999/xlink" width="1057.9025pt" height="488.17567pt" viewBox="0 0 1057.9025 488.17567" xmlns="http://www.w3.org/2000/svg" version="1.1">
 <metadata>
  <rdf:RDF xmlns:dc="http://purl.org/dc/elements/1.1/" xmlns:cc="http://creativecommons.org/ns#" xmlns:rdf="http://www.w3.org/1999/02/22-rdf-syntax-ns#">
   <cc:Work>
    <dc:type rdf:resource="http://purl.org/dc/dcmitype/StillImage"/>
    <dc:date>2024-10-03T15:15:31.040504</dc:date>
    <dc:format>image/svg+xml</dc:format>
    <dc:creator>
     <cc:Agent>
      <dc:title>Matplotlib v3.5.2, https://matplotlib.org/</dc:title>
     </cc:Agent>
    </dc:creator>
   </cc:Work>
  </rdf:RDF>
 </metadata>
 <defs>
  <style type="text/css">*{stroke-linejoin: round; stroke-linecap: butt}</style>
 </defs>
 <g id="figure_1">
  <g id="patch_1">
   <path d="M 0 488.17567 
L 1057.9025 488.17567 
L 1057.9025 0 
L 0 0 
z
" style="fill: #ffffff"/>
  </g>
  <g id="axes_1">
   <g id="patch_2">
    <path d="M 46.9525 434.59192 
L 1057.9025 434.59192 
L 1057.9025 72.25112 
L 46.9525 72.25112 
z
" style="fill: #ffffff"/>
   </g>
   <g id="matplotlib.axis_1">
    <g id="xtick_1">
     <g id="line2d_1">
      <path d="M 92.904773 434.59192 
L 92.904773 72.25112 
" clip-path="url(#pfd239c2c64)" style="fill: none; stroke: #b0b0b0; stroke-width: 0.8; stroke-linecap: square"/>
     </g>
     <g id="line2d_2">
      <defs>
       <path id="ma74996bd10" d="M 0 0 
L 0 3.5 
" style="stroke: #000000; stroke-width: 0.8"/>
      </defs>
      <g>
       <use xlink:href="#ma74996bd10" x="92.904773" y="434.59192" style="stroke: #000000; stroke-width: 0.8"/>
      </g>
     </g>
     <g id="text_1">
      <!-- 0 -->
      <g transform="translate(86.542273 456.788795)scale(0.2 -0.2)">
       <defs>
        <path id="DejaVuSans-30" d="M 2034 4250 
Q 1547 4250 1301 3770 
Q 1056 3291 1056 2328 
Q 1056 1369 1301 889 
Q 1547 409 2034 409 
Q 2525 409 2770 889 
Q 3016 1369 3016 2328 
Q 3016 3291 2770 3770 
Q 2525 4250 2034 4250 
z
M 2034 4750 
Q 2819 4750 3233 4129 
Q 3647 3509 3647 2328 
Q 3647 1150 3233 529 
Q 2819 -91 2034 -91 
Q 1250 -91 836 529 
Q 422 1150 422 2328 
Q 422 3509 836 4129 
Q 1250 4750 2034 4750 
z
" transform="scale(0.015625)"/>
       </defs>
       <use xlink:href="#DejaVuSans-30"/>
      </g>
     </g>
    </g>
    <g id="xtick_2">
     <g id="line2d_3">
      <path d="M 277.657629 434.59192 
L 277.657629 72.25112 
" clip-path="url(#pfd239c2c64)" style="fill: none; stroke: #b0b0b0; stroke-width: 0.8; stroke-linecap: square"/>
     </g>
     <g id="line2d_4">
      <g>
       <use xlink:href="#ma74996bd10" x="277.657629" y="434.59192" style="stroke: #000000; stroke-width: 0.8"/>
      </g>
     </g>
     <g id="text_2">
      <!-- 20 -->
      <g transform="translate(264.932629 456.788795)scale(0.2 -0.2)">
       <defs>
        <path id="DejaVuSans-32" d="M 1228 531 
L 3431 531 
L 3431 0 
L 469 0 
L 469 531 
Q 828 903 1448 1529 
Q 2069 2156 2228 2338 
Q 2531 2678 2651 2914 
Q 2772 3150 2772 3378 
Q 2772 3750 2511 3984 
Q 2250 4219 1831 4219 
Q 1534 4219 1204 4116 
Q 875 4013 500 3803 
L 500 4441 
Q 881 4594 1212 4672 
Q 1544 4750 1819 4750 
Q 2544 4750 2975 4387 
Q 3406 4025 3406 3419 
Q 3406 3131 3298 2873 
Q 3191 2616 2906 2266 
Q 2828 2175 2409 1742 
Q 1991 1309 1228 531 
z
" transform="scale(0.015625)"/>
       </defs>
       <use xlink:href="#DejaVuSans-32"/>
       <use xlink:href="#DejaVuSans-30" x="63.623047"/>
      </g>
     </g>
    </g>
    <g id="xtick_3">
     <g id="line2d_5">
      <path d="M 462.410486 434.59192 
L 462.410486 72.25112 
" clip-path="url(#pfd239c2c64)" style="fill: none; stroke: #b0b0b0; stroke-width: 0.8; stroke-linecap: square"/>
     </g>
     <g id="line2d_6">
      <g>
       <use xlink:href="#ma74996bd10" x="462.410486" y="434.59192" style="stroke: #000000; stroke-width: 0.8"/>
      </g>
     </g>
     <g id="text_3">
      <!-- 40 -->
      <g transform="translate(449.685486 456.788795)scale(0.2 -0.2)">
       <defs>
        <path id="DejaVuSans-34" d="M 2419 4116 
L 825 1625 
L 2419 1625 
L 2419 4116 
z
M 2253 4666 
L 3047 4666 
L 3047 1625 
L 3713 1625 
L 3713 1100 
L 3047 1100 
L 3047 0 
L 2419 0 
L 2419 1100 
L 313 1100 
L 313 1709 
L 2253 4666 
z
" transform="scale(0.015625)"/>
       </defs>
       <use xlink:href="#DejaVuSans-34"/>
       <use xlink:href="#DejaVuSans-30" x="63.623047"/>
      </g>
     </g>
    </g>
    <g id="xtick_4">
     <g id="line2d_7">
      <path d="M 647.163342 434.59192 
L 647.163342 72.25112 
" clip-path="url(#pfd239c2c64)" style="fill: none; stroke: #b0b0b0; stroke-width: 0.8; stroke-linecap: square"/>
     </g>
     <g id="line2d_8">
      <g>
       <use xlink:href="#ma74996bd10" x="647.163342" y="434.59192" style="stroke: #000000; stroke-width: 0.8"/>
      </g>
     </g>
     <g id="text_4">
      <!-- 60 -->
      <g transform="translate(634.438342 456.788795)scale(0.2 -0.2)">
       <defs>
        <path id="DejaVuSans-36" d="M 2113 2584 
Q 1688 2584 1439 2293 
Q 1191 2003 1191 1497 
Q 1191 994 1439 701 
Q 1688 409 2113 409 
Q 2538 409 2786 701 
Q 3034 994 3034 1497 
Q 3034 2003 2786 2293 
Q 2538 2584 2113 2584 
z
M 3366 4563 
L 3366 3988 
Q 3128 4100 2886 4159 
Q 2644 4219 2406 4219 
Q 1781 4219 1451 3797 
Q 1122 3375 1075 2522 
Q 1259 2794 1537 2939 
Q 1816 3084 2150 3084 
Q 2853 3084 3261 2657 
Q 3669 2231 3669 1497 
Q 3669 778 3244 343 
Q 2819 -91 2113 -91 
Q 1303 -91 875 529 
Q 447 1150 447 2328 
Q 447 3434 972 4092 
Q 1497 4750 2381 4750 
Q 2619 4750 2861 4703 
Q 3103 4656 3366 4563 
z
" transform="scale(0.015625)"/>
       </defs>
       <use xlink:href="#DejaVuSans-36"/>
       <use xlink:href="#DejaVuSans-30" x="63.623047"/>
      </g>
     </g>
    </g>
    <g id="xtick_5">
     <g id="line2d_9">
      <path d="M 831.916199 434.59192 
L 831.916199 72.25112 
" clip-path="url(#pfd239c2c64)" style="fill: none; stroke: #b0b0b0; stroke-width: 0.8; stroke-linecap: square"/>
     </g>
     <g id="line2d_10">
      <g>
       <use xlink:href="#ma74996bd10" x="831.916199" y="434.59192" style="stroke: #000000; stroke-width: 0.8"/>
      </g>
     </g>
     <g id="text_5">
      <!-- 80 -->
      <g transform="translate(819.191199 456.788795)scale(0.2 -0.2)">
       <defs>
        <path id="DejaVuSans-38" d="M 2034 2216 
Q 1584 2216 1326 1975 
Q 1069 1734 1069 1313 
Q 1069 891 1326 650 
Q 1584 409 2034 409 
Q 2484 409 2743 651 
Q 3003 894 3003 1313 
Q 3003 1734 2745 1975 
Q 2488 2216 2034 2216 
z
M 1403 2484 
Q 997 2584 770 2862 
Q 544 3141 544 3541 
Q 544 4100 942 4425 
Q 1341 4750 2034 4750 
Q 2731 4750 3128 4425 
Q 3525 4100 3525 3541 
Q 3525 3141 3298 2862 
Q 3072 2584 2669 2484 
Q 3125 2378 3379 2068 
Q 3634 1759 3634 1313 
Q 3634 634 3220 271 
Q 2806 -91 2034 -91 
Q 1263 -91 848 271 
Q 434 634 434 1313 
Q 434 1759 690 2068 
Q 947 2378 1403 2484 
z
M 1172 3481 
Q 1172 3119 1398 2916 
Q 1625 2713 2034 2713 
Q 2441 2713 2670 2916 
Q 2900 3119 2900 3481 
Q 2900 3844 2670 4047 
Q 2441 4250 2034 4250 
Q 1625 4250 1398 4047 
Q 1172 3844 1172 3481 
z
" transform="scale(0.015625)"/>
       </defs>
       <use xlink:href="#DejaVuSans-38"/>
       <use xlink:href="#DejaVuSans-30" x="63.623047"/>
      </g>
     </g>
    </g>
    <g id="xtick_6">
     <g id="line2d_11">
      <path d="M 1016.669056 434.59192 
L 1016.669056 72.25112 
" clip-path="url(#pfd239c2c64)" style="fill: none; stroke: #b0b0b0; stroke-width: 0.8; stroke-linecap: square"/>
     </g>
     <g id="line2d_12">
      <g>
       <use xlink:href="#ma74996bd10" x="1016.669056" y="434.59192" style="stroke: #000000; stroke-width: 0.8"/>
      </g>
     </g>
     <g id="text_6">
      <!-- 100 -->
      <g transform="translate(997.581556 456.788795)scale(0.2 -0.2)">
       <defs>
        <path id="DejaVuSans-31" d="M 794 531 
L 1825 531 
L 1825 4091 
L 703 3866 
L 703 4441 
L 1819 4666 
L 2450 4666 
L 2450 531 
L 3481 531 
L 3481 0 
L 794 0 
L 794 531 
z
" transform="scale(0.015625)"/>
       </defs>
       <use xlink:href="#DejaVuSans-31"/>
       <use xlink:href="#DejaVuSans-30" x="63.623047"/>
       <use xlink:href="#DejaVuSans-30" x="127.246094"/>
      </g>
     </g>
    </g>
    <g id="text_7">
     <!-- Track progress [%] -->
     <g transform="translate(440.85 483.18442)scale(0.24 -0.24)">
      <defs>
       <path id="DejaVuSans-54" d="M -19 4666 
L 3928 4666 
L 3928 4134 
L 2272 4134 
L 2272 0 
L 1638 0 
L 1638 4134 
L -19 4134 
L -19 4666 
z
" transform="scale(0.015625)"/>
       <path id="DejaVuSans-72" d="M 2631 2963 
Q 2534 3019 2420 3045 
Q 2306 3072 2169 3072 
Q 1681 3072 1420 2755 
Q 1159 2438 1159 1844 
L 1159 0 
L 581 0 
L 581 3500 
L 1159 3500 
L 1159 2956 
Q 1341 3275 1631 3429 
Q 1922 3584 2338 3584 
Q 2397 3584 2469 3576 
Q 2541 3569 2628 3553 
L 2631 2963 
z
" transform="scale(0.015625)"/>
       <path id="DejaVuSans-61" d="M 2194 1759 
Q 1497 1759 1228 1600 
Q 959 1441 959 1056 
Q 959 750 1161 570 
Q 1363 391 1709 391 
Q 2188 391 2477 730 
Q 2766 1069 2766 1631 
L 2766 1759 
L 2194 1759 
z
M 3341 1997 
L 3341 0 
L 2766 0 
L 2766 531 
Q 2569 213 2275 61 
Q 1981 -91 1556 -91 
Q 1019 -91 701 211 
Q 384 513 384 1019 
Q 384 1609 779 1909 
Q 1175 2209 1959 2209 
L 2766 2209 
L 2766 2266 
Q 2766 2663 2505 2880 
Q 2244 3097 1772 3097 
Q 1472 3097 1187 3025 
Q 903 2953 641 2809 
L 641 3341 
Q 956 3463 1253 3523 
Q 1550 3584 1831 3584 
Q 2591 3584 2966 3190 
Q 3341 2797 3341 1997 
z
" transform="scale(0.015625)"/>
       <path id="DejaVuSans-63" d="M 3122 3366 
L 3122 2828 
Q 2878 2963 2633 3030 
Q 2388 3097 2138 3097 
Q 1578 3097 1268 2742 
Q 959 2388 959 1747 
Q 959 1106 1268 751 
Q 1578 397 2138 397 
Q 2388 397 2633 464 
Q 2878 531 3122 666 
L 3122 134 
Q 2881 22 2623 -34 
Q 2366 -91 2075 -91 
Q 1284 -91 818 406 
Q 353 903 353 1747 
Q 353 2603 823 3093 
Q 1294 3584 2113 3584 
Q 2378 3584 2631 3529 
Q 2884 3475 3122 3366 
z
" transform="scale(0.015625)"/>
       <path id="DejaVuSans-6b" d="M 581 4863 
L 1159 4863 
L 1159 1991 
L 2875 3500 
L 3609 3500 
L 1753 1863 
L 3688 0 
L 2938 0 
L 1159 1709 
L 1159 0 
L 581 0 
L 581 4863 
z
" transform="scale(0.015625)"/>
       <path id="DejaVuSans-20" transform="scale(0.015625)"/>
       <path id="DejaVuSans-70" d="M 1159 525 
L 1159 -1331 
L 581 -1331 
L 581 3500 
L 1159 3500 
L 1159 2969 
Q 1341 3281 1617 3432 
Q 1894 3584 2278 3584 
Q 2916 3584 3314 3078 
Q 3713 2572 3713 1747 
Q 3713 922 3314 415 
Q 2916 -91 2278 -91 
Q 1894 -91 1617 61 
Q 1341 213 1159 525 
z
M 3116 1747 
Q 3116 2381 2855 2742 
Q 2594 3103 2138 3103 
Q 1681 3103 1420 2742 
Q 1159 2381 1159 1747 
Q 1159 1113 1420 752 
Q 1681 391 2138 391 
Q 2594 391 2855 752 
Q 3116 1113 3116 1747 
z
" transform="scale(0.015625)"/>
       <path id="DejaVuSans-6f" d="M 1959 3097 
Q 1497 3097 1228 2736 
Q 959 2375 959 1747 
Q 959 1119 1226 758 
Q 1494 397 1959 397 
Q 2419 397 2687 759 
Q 2956 1122 2956 1747 
Q 2956 2369 2687 2733 
Q 2419 3097 1959 3097 
z
M 1959 3584 
Q 2709 3584 3137 3096 
Q 3566 2609 3566 1747 
Q 3566 888 3137 398 
Q 2709 -91 1959 -91 
Q 1206 -91 779 398 
Q 353 888 353 1747 
Q 353 2609 779 3096 
Q 1206 3584 1959 3584 
z
" transform="scale(0.015625)"/>
       <path id="DejaVuSans-67" d="M 2906 1791 
Q 2906 2416 2648 2759 
Q 2391 3103 1925 3103 
Q 1463 3103 1205 2759 
Q 947 2416 947 1791 
Q 947 1169 1205 825 
Q 1463 481 1925 481 
Q 2391 481 2648 825 
Q 2906 1169 2906 1791 
z
M 3481 434 
Q 3481 -459 3084 -895 
Q 2688 -1331 1869 -1331 
Q 1566 -1331 1297 -1286 
Q 1028 -1241 775 -1147 
L 775 -588 
Q 1028 -725 1275 -790 
Q 1522 -856 1778 -856 
Q 2344 -856 2625 -561 
Q 2906 -266 2906 331 
L 2906 616 
Q 2728 306 2450 153 
Q 2172 0 1784 0 
Q 1141 0 747 490 
Q 353 981 353 1791 
Q 353 2603 747 3093 
Q 1141 3584 1784 3584 
Q 2172 3584 2450 3431 
Q 2728 3278 2906 2969 
L 2906 3500 
L 3481 3500 
L 3481 434 
z
" transform="scale(0.015625)"/>
       <path id="DejaVuSans-65" d="M 3597 1894 
L 3597 1613 
L 953 1613 
Q 991 1019 1311 708 
Q 1631 397 2203 397 
Q 2534 397 2845 478 
Q 3156 559 3463 722 
L 3463 178 
Q 3153 47 2828 -22 
Q 2503 -91 2169 -91 
Q 1331 -91 842 396 
Q 353 884 353 1716 
Q 353 2575 817 3079 
Q 1281 3584 2069 3584 
Q 2775 3584 3186 3129 
Q 3597 2675 3597 1894 
z
M 3022 2063 
Q 3016 2534 2758 2815 
Q 2500 3097 2075 3097 
Q 1594 3097 1305 2825 
Q 1016 2553 972 2059 
L 3022 2063 
z
" transform="scale(0.015625)"/>
       <path id="DejaVuSans-73" d="M 2834 3397 
L 2834 2853 
Q 2591 2978 2328 3040 
Q 2066 3103 1784 3103 
Q 1356 3103 1142 2972 
Q 928 2841 928 2578 
Q 928 2378 1081 2264 
Q 1234 2150 1697 2047 
L 1894 2003 
Q 2506 1872 2764 1633 
Q 3022 1394 3022 966 
Q 3022 478 2636 193 
Q 2250 -91 1575 -91 
Q 1294 -91 989 -36 
Q 684 19 347 128 
L 347 722 
Q 666 556 975 473 
Q 1284 391 1588 391 
Q 1994 391 2212 530 
Q 2431 669 2431 922 
Q 2431 1156 2273 1281 
Q 2116 1406 1581 1522 
L 1381 1569 
Q 847 1681 609 1914 
Q 372 2147 372 2553 
Q 372 3047 722 3315 
Q 1072 3584 1716 3584 
Q 2034 3584 2315 3537 
Q 2597 3491 2834 3397 
z
" transform="scale(0.015625)"/>
       <path id="DejaVuSans-5b" d="M 550 4863 
L 1875 4863 
L 1875 4416 
L 1125 4416 
L 1125 -397 
L 1875 -397 
L 1875 -844 
L 550 -844 
L 550 4863 
z
" transform="scale(0.015625)"/>
       <path id="DejaVuSans-25" d="M 4653 2053 
Q 4381 2053 4226 1822 
Q 4072 1591 4072 1178 
Q 4072 772 4226 539 
Q 4381 306 4653 306 
Q 4919 306 5073 539 
Q 5228 772 5228 1178 
Q 5228 1588 5073 1820 
Q 4919 2053 4653 2053 
z
M 4653 2450 
Q 5147 2450 5437 2106 
Q 5728 1763 5728 1178 
Q 5728 594 5436 251 
Q 5144 -91 4653 -91 
Q 4153 -91 3862 251 
Q 3572 594 3572 1178 
Q 3572 1766 3864 2108 
Q 4156 2450 4653 2450 
z
M 1428 4353 
Q 1159 4353 1004 4120 
Q 850 3888 850 3481 
Q 850 3069 1003 2837 
Q 1156 2606 1428 2606 
Q 1700 2606 1854 2837 
Q 2009 3069 2009 3481 
Q 2009 3884 1853 4118 
Q 1697 4353 1428 4353 
z
M 4250 4750 
L 4750 4750 
L 1831 -91 
L 1331 -91 
L 4250 4750 
z
M 1428 4750 
Q 1922 4750 2215 4408 
Q 2509 4066 2509 3481 
Q 2509 2891 2217 2550 
Q 1925 2209 1428 2209 
Q 931 2209 642 2551 
Q 353 2894 353 3481 
Q 353 4063 643 4406 
Q 934 4750 1428 4750 
z
" transform="scale(0.015625)"/>
       <path id="DejaVuSans-5d" d="M 1947 4863 
L 1947 -844 
L 622 -844 
L 622 -397 
L 1369 -397 
L 1369 4416 
L 622 4416 
L 622 4863 
L 1947 4863 
z
" transform="scale(0.015625)"/>
      </defs>
      <use xlink:href="#DejaVuSans-54"/>
      <use xlink:href="#DejaVuSans-72" x="46.333984"/>
      <use xlink:href="#DejaVuSans-61" x="87.447266"/>
      <use xlink:href="#DejaVuSans-63" x="148.726562"/>
      <use xlink:href="#DejaVuSans-6b" x="203.707031"/>
      <use xlink:href="#DejaVuSans-20" x="261.617188"/>
      <use xlink:href="#DejaVuSans-70" x="293.404297"/>
      <use xlink:href="#DejaVuSans-72" x="356.880859"/>
      <use xlink:href="#DejaVuSans-6f" x="395.744141"/>
      <use xlink:href="#DejaVuSans-67" x="456.925781"/>
      <use xlink:href="#DejaVuSans-72" x="520.402344"/>
      <use xlink:href="#DejaVuSans-65" x="559.265625"/>
      <use xlink:href="#DejaVuSans-73" x="620.789062"/>
      <use xlink:href="#DejaVuSans-73" x="672.888672"/>
      <use xlink:href="#DejaVuSans-20" x="724.988281"/>
      <use xlink:href="#DejaVuSans-5b" x="756.775391"/>
      <use xlink:href="#DejaVuSans-25" x="795.789062"/>
      <use xlink:href="#DejaVuSans-5d" x="890.808594"/>
     </g>
    </g>
   </g>
   <g id="matplotlib.axis_2">
    <g id="ytick_1">
     <g id="line2d_13">
      <path d="M 46.9525 386.279813 
L 1057.9025 386.279813 
" clip-path="url(#pfd239c2c64)" style="fill: none; stroke: #b0b0b0; stroke-width: 0.8; stroke-linecap: square"/>
     </g>
     <g id="line2d_14">
      <defs>
       <path id="m8dc0a23136" d="M 0 0 
L -3.5 0 
" style="stroke: #000000; stroke-width: 0.8"/>
      </defs>
      <g>
       <use xlink:href="#m8dc0a23136" x="46.9525" y="386.279813" style="stroke: #000000; stroke-width: 0.8"/>
      </g>
     </g>
     <g id="text_8">
      <!-- 2 -->
      <g transform="translate(27.2275 393.878251)scale(0.2 -0.2)">
       <use xlink:href="#DejaVuSans-32"/>
      </g>
     </g>
    </g>
    <g id="ytick_2">
     <g id="line2d_15">
      <path d="M 46.9525 289.6556 
L 1057.9025 289.6556 
" clip-path="url(#pfd239c2c64)" style="fill: none; stroke: #b0b0b0; stroke-width: 0.8; stroke-linecap: square"/>
     </g>
     <g id="line2d_16">
      <g>
       <use xlink:href="#m8dc0a23136" x="46.9525" y="289.6556" style="stroke: #000000; stroke-width: 0.8"/>
      </g>
     </g>
     <g id="text_9">
      <!-- 4 -->
      <g transform="translate(27.2275 297.254037)scale(0.2 -0.2)">
       <use xlink:href="#DejaVuSans-34"/>
      </g>
     </g>
    </g>
    <g id="ytick_3">
     <g id="line2d_17">
      <path d="M 46.9525 193.031387 
L 1057.9025 193.031387 
" clip-path="url(#pfd239c2c64)" style="fill: none; stroke: #b0b0b0; stroke-width: 0.8; stroke-linecap: square"/>
     </g>
     <g id="line2d_18">
      <g>
       <use xlink:href="#m8dc0a23136" x="46.9525" y="193.031387" style="stroke: #000000; stroke-width: 0.8"/>
      </g>
     </g>
     <g id="text_10">
      <!-- 6 -->
      <g transform="translate(27.2275 200.629824)scale(0.2 -0.2)">
       <use xlink:href="#DejaVuSans-36"/>
      </g>
     </g>
    </g>
    <g id="ytick_4">
     <g id="line2d_19">
      <path d="M 46.9525 96.407173 
L 1057.9025 96.407173 
" clip-path="url(#pfd239c2c64)" style="fill: none; stroke: #b0b0b0; stroke-width: 0.8; stroke-linecap: square"/>
     </g>
     <g id="line2d_20">
      <g>
       <use xlink:href="#m8dc0a23136" x="46.9525" y="96.407173" style="stroke: #000000; stroke-width: 0.8"/>
      </g>
     </g>
     <g id="text_11">
      <!-- 8 -->
      <g transform="translate(27.2275 104.005611)scale(0.2 -0.2)">
       <use xlink:href="#DejaVuSans-38"/>
      </g>
     </g>
    </g>
    <g id="text_12">
     <!-- Speed [m/s] -->
     <g transform="translate(18.23625 326.203395)rotate(-90)scale(0.24 -0.24)">
      <defs>
       <path id="DejaVuSans-53" d="M 3425 4513 
L 3425 3897 
Q 3066 4069 2747 4153 
Q 2428 4238 2131 4238 
Q 1616 4238 1336 4038 
Q 1056 3838 1056 3469 
Q 1056 3159 1242 3001 
Q 1428 2844 1947 2747 
L 2328 2669 
Q 3034 2534 3370 2195 
Q 3706 1856 3706 1288 
Q 3706 609 3251 259 
Q 2797 -91 1919 -91 
Q 1588 -91 1214 -16 
Q 841 59 441 206 
L 441 856 
Q 825 641 1194 531 
Q 1563 422 1919 422 
Q 2459 422 2753 634 
Q 3047 847 3047 1241 
Q 3047 1584 2836 1778 
Q 2625 1972 2144 2069 
L 1759 2144 
Q 1053 2284 737 2584 
Q 422 2884 422 3419 
Q 422 4038 858 4394 
Q 1294 4750 2059 4750 
Q 2388 4750 2728 4690 
Q 3069 4631 3425 4513 
z
" transform="scale(0.015625)"/>
       <path id="DejaVuSans-64" d="M 2906 2969 
L 2906 4863 
L 3481 4863 
L 3481 0 
L 2906 0 
L 2906 525 
Q 2725 213 2448 61 
Q 2172 -91 1784 -91 
Q 1150 -91 751 415 
Q 353 922 353 1747 
Q 353 2572 751 3078 
Q 1150 3584 1784 3584 
Q 2172 3584 2448 3432 
Q 2725 3281 2906 2969 
z
M 947 1747 
Q 947 1113 1208 752 
Q 1469 391 1925 391 
Q 2381 391 2643 752 
Q 2906 1113 2906 1747 
Q 2906 2381 2643 2742 
Q 2381 3103 1925 3103 
Q 1469 3103 1208 2742 
Q 947 2381 947 1747 
z
" transform="scale(0.015625)"/>
       <path id="DejaVuSans-6d" d="M 3328 2828 
Q 3544 3216 3844 3400 
Q 4144 3584 4550 3584 
Q 5097 3584 5394 3201 
Q 5691 2819 5691 2113 
L 5691 0 
L 5113 0 
L 5113 2094 
Q 5113 2597 4934 2840 
Q 4756 3084 4391 3084 
Q 3944 3084 3684 2787 
Q 3425 2491 3425 1978 
L 3425 0 
L 2847 0 
L 2847 2094 
Q 2847 2600 2669 2842 
Q 2491 3084 2119 3084 
Q 1678 3084 1418 2786 
Q 1159 2488 1159 1978 
L 1159 0 
L 581 0 
L 581 3500 
L 1159 3500 
L 1159 2956 
Q 1356 3278 1631 3431 
Q 1906 3584 2284 3584 
Q 2666 3584 2933 3390 
Q 3200 3197 3328 2828 
z
" transform="scale(0.015625)"/>
       <path id="DejaVuSans-2f" d="M 1625 4666 
L 2156 4666 
L 531 -594 
L 0 -594 
L 1625 4666 
z
" transform="scale(0.015625)"/>
      </defs>
      <use xlink:href="#DejaVuSans-53"/>
      <use xlink:href="#DejaVuSans-70" x="63.476562"/>
      <use xlink:href="#DejaVuSans-65" x="126.953125"/>
      <use xlink:href="#DejaVuSans-65" x="188.476562"/>
      <use xlink:href="#DejaVuSans-64" x="250"/>
      <use xlink:href="#DejaVuSans-20" x="313.476562"/>
      <use xlink:href="#DejaVuSans-5b" x="345.263672"/>
      <use xlink:href="#DejaVuSans-6d" x="384.277344"/>
      <use xlink:href="#DejaVuSans-2f" x="481.689453"/>
      <use xlink:href="#DejaVuSans-73" x="515.380859"/>
      <use xlink:href="#DejaVuSans-5d" x="567.480469"/>
     </g>
    </g>
   </g>
   <g id="line2d_21">
    <path d="M 92.904773 482.904027 
L 92.904773 437.904642 
L 93.226511 426.418439 
L 93.226511 414.932236 
L 93.548249 403.446032 
L 93.548249 391.959829 
L 93.869988 380.473626 
L 94.352595 368.987422 
L 95.049695 346.015015 
L 95.800417 334.528812 
L 96.443894 311.556405 
L 97.24824 300.070202 
L 97.623601 288.583999 
L 98.803308 266.720412 
L 99.125047 256.653535 
L 100.143884 248.545389 
L 100.626492 240.86501 
L 101.591707 234.642545 
L 102.074314 228.182905 
L 103.093152 223.424136 
L 103.57576 217.90048 
L 105.023582 213.616475 
L 105.023582 209.225875 
L 106.525027 205.599959 
L 107.651111 199.969427 
L 109.152557 198.602641 
L 109.152557 196.541028 
L 110.654002 193.91908 
L 111.780086 191.44496 
L 112.90617 185.919028 
L 114.407616 183.453795 
L 115.051092 181.445655 
L 115.5337 180.685763 
L 116.713407 186.496596 
L 118.965575 208.339697 
L 118.965575 212.814538 
L 120.145282 215.669399 
L 120.145282 214.510464 
L 121.593104 211.809827 
L 123.898896 202.683864 
L 123.898896 198.821963 
L 125.02498 194.201977 
L 126.151064 191.686691 
L 127.330771 189.941306 
L 127.330771 201.42751 
L 129.582939 223.301428 
L 129.582939 229.485215 
L 131.084384 226.649801 
L 131.084384 230.854263 
L 132.210468 239.927271 
L 133.390176 234.789522 
L 133.390176 226.539614 
L 134.51626 218.566797 
L 135.642344 211.642924 
L 135.642344 205.348573 
L 137.948135 194.79574 
L 139.074219 191.651032 
L 139.074219 187.908482 
L 140.253926 185.71997 
L 141.38001 184.090213 
L 142.506094 184.8438 
L 142.506094 185.3898 
L 144.007539 183.87035 
L 145.133623 184.051668 
L 146.313331 183.665793 
L 146.313331 184.355523 
L 149.745206 218.440769 
L 149.745206 229.926973 
L 151.997374 251.399102 
L 151.997374 250.197846 
L 153.177081 247.943234 
L 153.177081 245.132442 
L 154.303165 245.683368 
L 155.429249 251.111058 
L 155.429249 249.826856 
L 156.608956 245.673124 
L 156.608956 244.335693 
L 157.73504 240.527245 
L 158.861124 239.367167 
L 158.861124 235.762156 
L 160.040831 240.477142 
L 161.166915 251.963346 
L 161.971261 263.449549 
L 162.292999 274.935752 
L 162.775607 286.421956 
L 163.955314 297.908159 
L 163.955314 309.394362 
L 164.384298 320.880566 
L 168.245158 340.46846 
L 168.727765 337.763608 
L 169.049504 348.179223 
L 169.532111 346.137855 
L 170.711818 345.72807 
L 170.711818 361.153946 
L 172.481379 365.334023 
L 172.481379 387.207524 
L 172.481379 375.738193 
L 174.304563 364.623226 
L 174.626301 358.531736 
L 174.626301 326.359417 
L 176.449485 325.717806 
L 176.824846 314.259772 
L 176.824846 304.020044 
L 178.594407 300.910703 
L 180.095852 299.612246 
L 180.095852 295.830246 
L 180.739329 294.260732 
L 181.11469 290.984989 
L 181.758167 280.889607 
L 182.079905 270.626404 
L 183.58135 261.544703 
L 183.58135 260.423604 
L 184.921927 256.78194 
L 185.940765 264.301846 
L 186.423372 275.788049 
L 187.388587 287.274252 
L 187.871194 298.651667 
L 187.871194 302.098034 
L 188.246556 313.475735 
L 189.694378 320.201339 
L 189.694378 330.121214 
L 189.694378 328.291446 
L 191.195823 316.805242 
L 191.195823 305.319039 
L 191.8393 293.832836 
L 192.643646 283.754685 
L 193.126253 273.380806 
L 193.823353 267.856526 
L 194.252337 260.56523 
L 195.432044 253.658568 
L 195.432044 249.193138 
L 196.558128 243.170167 
L 197.362474 240.072173 
L 197.362474 234.631471 
L 201.974056 208.341326 
L 202.778402 205.872729 
L 204.387094 197.882489 
L 205.995785 193.416835 
L 206.478393 191.073575 
L 207.926215 189.112486 
L 208.784184 187.307444 
L 209.58853 186.856013 
L 210.875483 185.261856 
L 211.679829 184.785255 
L 212.484174 183.130329 
L 214.092866 183.233235 
L 214.897212 182.707696 
L 216.988511 180.460408 
L 217.792856 179.855435 
L 218.597202 179.043853 
L 219.884155 178.165696 
L 220.366763 177.592069 
L 221.975454 181.835075 
L 222.458062 188.669239 
L 223.262407 190.805613 
L 224.066753 188.788647 
L 224.871099 187.439897 
L 226.158052 184.712945 
L 226.64066 182.400809 
L 227.927613 179.428674 
L 228.41022 176.846441 
L 229.697173 174.37494 
L 230.179781 172.001754 
L 231.895718 169.673503 
L 232.860933 165.577081 
L 234.630494 163.725398 
L 235.542086 162.329322 
L 236.507301 161.226238 
L 236.989908 160.249086 
L 237.472516 158.579398 
L 239.242076 157.1535 
L 240.153668 156.126403 
L 241.118883 155.919976 
L 242.99569 154.334682 
L 244.92612 153.508269 
L 245.837711 153.414638 
L 246.802926 153.185322 
L 247.768141 152.829388 
L 249.484079 152.751587 
L 249.484079 153.105438 
L 250.449294 154.569473 
L 251.414509 155.473862 
L 252.3261 155.90623 
L 253.291315 155.321838 
L 255.060876 154.842783 
L 255.060876 153.551875 
L 256.937683 151.457291 
L 259.189851 153.06433 
L 259.189851 154.308455 
L 259.672458 156.467844 
L 260.58405 154.843381 
L 262.353611 161.78057 
L 262.353611 169.318107 
L 263.318826 173.92981 
L 265.088386 172.997167 
L 265.088386 170.744683 
L 265.999978 168.557408 
L 267.769539 166.695871 
L 267.769539 163.269178 
L 268.734754 161.447389 
L 270.450691 161.680737 
L 270.450691 167.714297 
L 272.702859 167.058586 
L 272.702859 173.374715 
L 274.579666 171.841207 
L 274.955028 180.079312 
L 274.955028 188.870663 
L 276.831834 185.724059 
L 277.153573 196.19706 
L 277.63618 194.679673 
L 279.405741 191.731615 
L 279.405741 187.791938 
L 280.370956 185.031216 
L 281.604286 184.064645 
L 282.086893 184.041582 
L 283.373846 194.341147 
L 283.373846 192.122855 
L 284.821669 190.665374 
L 285.143407 187.834298 
L 287.020214 181.850482 
L 287.502821 178.684311 
L 288.468036 177.693681 
L 289.433251 175.819905 
L 290.237597 179.415208 
L 291.041943 178.920095 
L 292.168027 181.011747 
L 293.294111 179.603977 
L 293.99121 177.67886 
L 295.117294 177.159683 
L 295.814394 177.031907 
L 297.637578 176.336785 
L 298.602793 176.255602 
L 299.407138 178.56052 
L 300.104238 190.046724 
L 301.123076 201.532927 
L 301.766553 200.601063 
L 302.463652 198.108381 
L 303.428867 196.033045 
L 304.125967 198.831191 
L 304.447705 206.420736 
L 307.289727 222.803544 
L 307.933203 230.912398 
L 309.434649 230.888795 
L 310.078125 233.91519 
L 310.078125 233.407882 
L 311.579571 232.444734 
L 311.901309 231.633872 
L 312.223047 233.766623 
L 313.081016 235.380278 
L 314.528839 234.916028 
L 314.528839 234.572079 
L 315.654923 232.312025 
L 315.654923 229.380225 
L 318.282452 221.070368 
L 318.282452 216.497269 
L 318.657813 211.359253 
L 320.266505 206.179885 
L 320.266505 201.785431 
L 321.392589 197.843218 
L 322.572296 194.479349 
L 323.69838 193.128059 
L 323.69838 196.534548 
L 324.824464 200.49802 
L 326.004171 198.914223 
L 327.451994 195.395286 
L 327.451994 190.748178 
L 328.953439 185.065143 
L 328.953439 180.117591 
L 330.401261 175.626763 
L 331.902707 171.598599 
L 331.902707 168.192023 
L 333.350529 165.339227 
L 335.173713 162.177484 
L 335.173713 159.940872 
L 336.996896 158.283944 
L 336.996896 157.025467 
L 338.82008 156.331763 
L 338.82008 158.622992 
L 340.643264 163.921534 
L 340.643264 172.626108 
L 342.788186 172.731204 
L 342.788186 170.345083 
L 344.61137 167.229816 
L 344.61137 163.929746 
L 346.434553 161.042705 
L 346.434553 158.334357 
L 348.204114 156.203576 
L 348.204114 154.159368 
L 350.027298 152.701449 
L 350.027298 150.887626 
L 352.17222 150.053149 
L 352.17222 149.06694 
L 353.995403 148.076526 
L 353.995403 147.573407 
L 355.818587 147.211343 
L 355.818587 147.475042 
L 357.641771 148.861921 
L 357.641771 150.912586 
L 359.464954 157.682167 
L 361.609876 169.079667 
L 361.609876 186.147797 
L 363.43306 185.830256 
L 363.43306 182.230753 
L 365.202621 177.860934 
L 365.202621 173.452627 
L 367.025805 169.542235 
L 367.025805 165.63362 
L 368.848988 162.365787 
L 368.848988 159.636441 
L 370.672172 157.078398 
L 370.672172 154.854327 
L 372.817094 152.733742 
L 372.817094 150.831318 
L 374.640278 149.029524 
L 374.640278 147.504022 
L 376.463461 146.200446 
L 376.463461 145.200108 
L 378.286645 144.749706 
L 380.056206 143.999212 
L 380.056206 143.728526 
L 382.254751 143.454705 
L 382.254751 143.311452 
L 384.024311 142.652913 
L 385.847495 142.310166 
L 385.847495 142.142602 
L 387.670679 141.989042 
L 387.670679 141.844941 
L 389.493862 142.314175 
L 389.493862 142.250661 
L 391.638784 142.009055 
L 391.638784 142.050205 
L 393.461968 143.396078 
L 393.461968 144.040965 
L 395.285152 145.537232 
L 397.054713 147.639753 
L 397.054713 150.586918 
L 398.877896 153.298889 
L 398.877896 156.57515 
L 400.70108 168.035461 
L 400.70108 179.521665 
L 402.846002 191.007868 
L 402.846002 213.980275 
L 404.669186 225.466478 
L 404.669186 221.860075 
L 406.492369 214.238777 
L 406.492369 206.745142 
L 408.315553 199.516966 
L 408.315553 186.790955 
L 410.138737 182.030913 
L 410.138737 178.021817 
L 412.283659 174.805669 
L 412.283659 172.041553 
L 414.106842 169.495507 
L 414.106842 167.383462 
L 415.876403 166.044352 
L 415.876403 168.241733 
L 417.699587 179.727937 
L 417.699587 191.21414 
L 419.52277 202.700343 
L 419.52277 214.186547 
L 421.667692 225.181195 
L 421.667692 225.767371 
L 421.667692 222.610454 
L 423.490876 216.152563 
L 423.490876 211.043796 
L 425.31406 205.374404 
L 425.31406 195.940894 
L 427.137244 192.816121 
L 427.137244 189.906126 
L 428.906804 187.935762 
L 428.906804 186.563496 
L 430.729988 184.244352 
L 430.729988 182.074129 
L 432.87491 183.892872 
L 432.87491 183.80059 
L 434.698094 181.842542 
L 434.698094 180.547512 
L 436.521277 181.87315 
L 436.521277 183.303192 
L 438.344461 185.238231 
L 438.344461 208.210637 
L 440.167645 219.696841 
L 440.167645 229.294513 
L 442.312567 233.507051 
L 442.312567 254.880319 
L 444.13575 266.366522 
L 444.13575 289.338929 
L 446.280672 300.825132 
L 446.924149 323.797539 
L 447.621249 335.158993 
L 447.942987 342.965568 
L 447.942987 341.104288 
L 447.942987 331.274709 
L 450.087909 330.64566 
L 450.409647 342.131863 
L 452.554569 343.522821 
L 452.554569 308.59362 
L 454.753114 298.684825 
L 454.753114 284.017645 
L 456.200937 272.625323 
L 456.200937 277.904768 
L 458.989335 289.390971 
L 460.866142 288.286145 
L 461.670488 276.799942 
L 462.796572 279.400483 
L 462.796572 267.914279 
L 463.976279 257.973487 
L 464.298017 256.312562 
L 465.102363 247.050806 
L 466.925547 241.222338 
L 467.247285 247.847184 
L 467.247285 243.572601 
L 468.74873 237.665987 
L 469.392207 234.540454 
L 470.089307 232.506095 
L 470.089307 228.704588 
L 473.574805 216.971929 
L 473.896543 219.134561 
L 475.022627 230.620764 
L 475.719727 242.106968 
L 476.363204 234.811741 
L 477.060303 228.791165 
L 477.70378 221.078684 
L 478.400879 214.444556 
L 479.419717 213.758792 
L 480.063194 216.119914 
L 480.760294 214.544059 
L 481.40377 210.004224 
L 482.10087 210.926459 
L 482.744346 222.412662 
L 483.441446 217.426759 
L 484.406661 209.607331 
L 485.103761 203.029503 
L 485.747237 198.490876 
L 486.766075 194.009043 
L 487.463175 189.936704 
L 488.106651 185.319042 
L 489.768966 177.736138 
L 490.787804 174.925004 
L 491.806642 172.518662 
L 493.951564 171.346869 
L 493.951564 170.481047 
L 494.273302 177.63965 
L 495.29214 189.125854 
L 496.632716 212.09826 
L 497.651554 223.584464 
L 498.295031 224.961376 
L 498.992131 221.993958 
L 500.332707 207.419109 
L 502.477629 201.891775 
L 502.477629 197.167022 
L 502.799367 192.749128 
L 504.461682 184.859761 
L 505.48052 183.338264 
L 506.821096 204.495703 
L 508.48341 219.900437 
L 511.003694 221.436431 
L 511.003694 212.412001 
L 511.325432 206.302533 
L 512.34427 200.956236 
L 513.684846 191.568161 
L 516.365999 183.132528 
L 517.009475 180.616328 
L 519.529759 180.396902 
L 519.529759 179.9597 
L 519.851497 177.776558 
L 520.494974 177.216926 
L 521.513812 175.645005 
L 522.210911 181.912216 
L 523.176126 184.30199 
L 523.873226 195.788193 
L 524.892064 207.274397 
L 525.53554 218.7606 
L 528.002201 226.500947 
L 528.002201 244.670717 
L 528.377562 256.014408 
L 529.021039 267.500611 
L 529.342777 278.986814 
L 530.683353 301.959221 
L 531.380453 324.931628 
L 533.525375 336.417831 
L 533.525375 345.61348 
L 533.525375 340.478422 
L 533.847113 351.964625 
L 535.670297 363.450829 
L 535.670297 388.724081 
L 535.670297 377.994822 
L 535.992035 374.120049 
L 536.367397 373.371859 
L 536.367397 384.858062 
L 538.136957 382.111335 
L 538.136957 351.040586 
L 539.960141 341.888769 
L 539.960141 326.866836 
L 541.139848 317.996162 
L 541.944194 306.509959 
L 541.944194 295.023756 
L 544.035493 287.517065 
L 545.75143 290.578249 
L 545.75143 284.007805 
L 547.896352 272.521602 
L 547.896352 261.056109 
L 548.218091 256.434438 
L 549.505044 256.036393 
L 550.631128 267.522596 
L 550.631128 279.008799 
L 551.757212 290.495003 
L 551.757212 283.040575 
L 553.258657 271.810944 
L 553.258657 263.647372 
L 554.384741 257.227594 
L 554.384741 251.984672 
L 555.564448 245.091004 
L 555.564448 234.483119 
L 556.690532 225.049095 
L 557.816617 218.586599 
L 559.318062 218.141458 
L 559.318062 218.188646 
L 559.318062 209.535425 
L 560.444146 200.604553 
L 561.945591 192.127211 
L 561.945591 184.914056 
L 563.071675 178.788711 
L 564.573121 173.347137 
L 564.573121 168.990208 
L 565.699205 165.844999 
L 566.825289 164.35601 
L 568.326734 163.577998 
L 568.326734 162.39865 
L 569.452818 161.468792 
L 572.080348 160.480215 
L 572.080348 157.456724 
L 573.260055 155.598673 
L 574.707877 154.468048 
L 575.887584 154.218672 
L 577.335407 154.496109 
L 577.335407 156.84718 
L 578.461491 162.431615 
L 579.641198 170.865387 
L 581.08902 179.271951 
L 581.08902 182.786662 
L 582.268727 182.702269 
L 583.71655 181.316751 
L 583.71655 178.834222 
L 586.344079 172.125048 
L 586.344079 169.171982 
L 588.64987 163.960131 
L 590.151316 162.418603 
L 590.151316 161.477373 
L 591.2774 162.362949 
L 592.725222 167.467992 
L 593.904929 175.772261 
L 593.904929 183.392085 
L 595.031013 182.827027 
L 596.532459 180.606686 
L 596.532459 177.33832 
L 597.658543 174.184331 
L 599.159988 171.05133 
L 600.286072 168.162891 
L 600.286072 165.54773 
L 601.787518 163.946658 
L 602.913602 162.960598 
L 604.039686 165.016543 
L 605.541131 171.102786 
L 605.541131 178.058764 
L 606.667215 177.747894 
L 608.168661 175.213201 
L 608.168661 171.940597 
L 609.294745 168.265172 
L 610.420829 165.050756 
L 611.922274 162.475021 
L 611.922274 159.93904 
L 613.048358 157.679408 
L 614.549803 155.769053 
L 614.549803 154.38779 
L 615.675888 152.884928 
L 616.855595 151.593173 
L 618.303417 150.427996 
L 618.303417 149.372371 
L 619.483124 148.619679 
L 620.930946 148.696751 
L 622.110654 149.066153 
L 623.558476 149.733868 
L 623.558476 155.017008 
L 624.68456 160.879574 
L 625.864267 168.06774 
L 627.312089 168.237766 
L 627.312089 166.354789 
L 629.939619 161.358276 
L 629.939619 158.608852 
L 631.119326 156.226491 
L 632.24541 154.62658 
L 634.872939 152.366814 
L 636.320762 152.172222 
L 636.320762 153.688921 
L 637.500469 155.821087 
L 638.626553 155.844389 
L 640.127998 156.988861 
L 642.755528 156.280887 
L 642.755528 155.959011 
L 645.383057 155.030893 
L 647.635225 154.544692 
L 650.262755 154.53406 
L 651.7642 155.384108 
L 651.7642 158.478586 
L 652.890284 167.657751 
L 654.016368 178.411334 
L 656.643898 189.85932 
L 658.145343 190.613406 
L 658.145343 187.535764 
L 660.451134 178.404762 
L 661.898957 173.766742 
L 661.898957 169.863864 
L 663.078664 166.501599 
L 664.526486 163.733697 
L 664.526486 161.963128 
L 665.706193 160.7384 
L 667.154016 160.079605 
L 668.2801 160.818028 
L 669.459807 163.385065 
L 670.907629 165.280624 
L 671.28299 173.372396 
L 672.087336 181.323424 
L 673.21342 189.459222 
L 674.017766 192.170264 
L 675.14385 192.284554 
L 676.323557 194.215146 
L 676.645295 199.561637 
L 677.449641 205.045613 
L 678.253987 204.929249 
L 679.058333 203.77381 
L 680.720647 199.833185 
L 681.524993 199.008578 
L 682.329339 198.666118 
L 683.133684 204.649852 
L 683.455423 210.150455 
L 684.742376 215.242832 
L 685.546722 216.893888 
L 686.351067 216.276548 
L 687.316282 213.889127 
L 688.120628 210.091575 
L 688.442366 205.312143 
L 691.820619 193.878955 
L 693.107572 193.426827 
L 693.107572 192.98068 
L 696.164086 192.397357 
L 697.451039 192.139425 
L 697.451039 190.534019 
L 699.166976 188.84939 
L 699.166976 187.041164 
L 700.936537 185.472435 
L 700.936537 183.62495 
L 702.22349 181.988322 
L 702.22349 180.411366 
L 703.993051 179.218179 
L 703.993051 178.262625 
L 707.156811 176.700571 
L 707.478549 175.721635 
L 707.478549 174.178677 
L 709.730717 172.129241 
L 709.730717 170.060415 
L 711.500278 168.242557 
L 711.500278 166.840131 
L 713.269839 165.20817 
L 713.269839 164.377699 
L 715.146645 164.322178 
L 715.468384 166.167338 
L 715.950991 168.196353 
L 717.720552 167.871789 
L 717.720552 166.37487 
L 719.919097 164.922292 
L 719.919097 163.547554 
L 720.401704 162.058993 
L 722.171265 161.201088 
L 722.171265 163.561628 
L 724.423433 173.678893 
L 724.423433 185.165097 
L 724.852417 190.73535 
L 727.104585 190.448478 
L 727.104585 188.312926 
L 727.587193 185.126666 
L 729.464 181.407832 
L 729.785738 177.718611 
L 730.268345 174.374783 
L 732.198775 171.440914 
L 732.520514 169.151547 
L 733.003121 170.684482 
L 733.485728 176.13065 
L 735.684273 181.484172 
L 735.684273 185.227496 
L 737.132096 179.692192 
L 739.330641 175.405672 
L 739.330641 172.302599 
L 739.813248 169.37686 
L 740.778463 166.363893 
L 741.261071 163.805135 
L 743.459616 161.828648 
L 743.459616 160.188977 
L 745.390046 157.589835 
L 747.266852 156.742846 
L 747.588591 156.145685 
L 748.071198 154.977199 
L 749.036413 154.192853 
L 749.948005 154.013881 
L 752.200173 158.304813 
L 752.200173 169.791017 
L 753.165388 192.763423 
L 754.07698 204.249627 
L 755.042195 214.910704 
L 756.919001 223.453413 
L 757.294363 225.725899 
L 757.294363 225.328086 
L 757.77697 216.646482 
L 758.688562 208.720459 
L 759.171169 202.674565 
L 761.530584 198.839506 
L 761.852322 195.279679 
L 761.852322 192.70265 
L 763.300144 189.748674 
L 764.265359 188.988797 
L 765.176951 191.732702 
L 766.946512 198.949217 
L 766.946512 210.43542 
L 767.429119 215.20491 
L 768.394334 226.691114 
L 768.823318 234.045097 
L 769.788533 231.586687 
L 770.271141 231.199005 
L 772.147948 231.009955 
L 772.523309 230.047866 
L 772.523309 227.597205 
L 772.952293 237.691221 
L 773.917508 249.177424 
L 774.882723 272.149831 
L 775.794315 272.180588 
L 776.276922 264.382031 
L 778.046483 256.390007 
L 778.046483 238.982462 
L 779.92329 231.118255 
L 780.781259 230.439975 
L 781.585604 228.176859 
L 783.355165 226.702811 
L 783.355165 228.694762 
L 785.178349 238.325607 
L 785.178349 236.71933 
L 787.323271 226.026175 
L 787.323271 219.800867 
L 789.629062 213.982929 
L 791.773984 223.567875 
L 791.773984 218.458277 
L 791.773984 221.45356 
L 793.918906 214.969623 
L 793.918906 220.467279 
L 795.420351 231.953482 
L 796.546435 228.315018 
L 798.637734 224.492242 
L 799.602949 220.216182 
L 800.568164 230.13324 
L 800.997148 225.284893 
L 801.962363 218.541261 
L 802.444971 210.943314 
L 803.410186 202.982659 
L 803.83917 195.675539 
L 804.804385 189.950287 
L 805.7696 185.323546 
L 806.681192 189.421957 
L 807.163799 189.315956 
L 808.129014 188.388547 
L 809.094229 184.915365 
L 809.523213 180.774754 
L 809.523213 178.329834 
L 811.292774 176.258665 
L 811.292774 175.32689 
L 812.579727 179.001196 
L 813.062335 190.487399 
L 815.475372 224.378564 
L 816.279718 224.112576 
L 817.566671 228.25113 
L 817.566671 226.624717 
L 818.049278 224.207071 
L 819.175362 219.220506 
L 820.033331 216.531964 
L 820.837677 215.077347 
L 821.642023 211.897527 
L 822.768107 208.961184 
L 823.572453 207.178802 
L 823.572453 205.8453 
L 825.073898 202.81849 
L 825.556505 201.04705 
L 825.556505 199.574671 
L 827.808673 198.251198 
L 827.808673 197.987284 
L 828.988381 197.438257 
L 830.114465 197.851262 
L 830.114465 198.306035 
L 831.61591 201.614113 
L 831.61591 201.042305 
L 833.063732 211.628503 
L 833.063732 223.114707 
L 834.565178 234.60091 
L 834.565178 244.953127 
L 836.388361 243.971933 
L 836.388361 242.486418 
L 837.514446 253.972621 
L 837.514446 265.161917 
L 838.962268 276.64812 
L 838.962268 299.620527 
L 840.785452 311.10673 
L 840.785452 322.592933 
L 841.965159 334.079137 
L 842.286897 345.372115 
L 842.769504 350.761227 
L 842.769504 373.733634 
L 843.895588 370.589605 
L 843.895588 382.075808 
L 843.895588 348.84868 
L 845.718772 347.227996 
L 847.488333 345.81265 
L 847.97094 339.20827 
L 851.295569 331.516604 
L 851.295569 335.62382 
L 851.295569 327.259327 
L 852.797015 315.773124 
L 852.797015 301.841866 
L 854.620198 294.432606 
L 854.620198 282.946402 
L 854.620198 291.66828 
L 857.086859 303.154483 
L 857.408597 296.107107 
L 859.607142 284.620904 
L 859.607142 265.030847 
L 859.92888 256.699989 
L 862.073802 247.280347 
L 862.073802 238.873666 
L 864.218724 236.246069 
L 865.344808 231.726686 
L 865.344808 225.459451 
L 866.524516 218.282159 
L 867.6506 216.466268 
L 868.454945 211.301752 
L 868.454945 207.172518 
L 869.581029 204.328511 
L 870.760737 200.967563 
L 870.760737 198.165923 
L 872.691166 193.80988 
L 873.495512 189.905099 
L 873.495512 186.023633 
L 876.283911 179.25595 
L 877.088256 176.920121 
L 877.892602 176.221961 
L 878.696948 174.94774 
L 881.109985 172.26288 
L 881.592593 170.900656 
L 882.396938 169.919671 
L 883.576645 167.870737 
L 884.380991 165.814811 
L 885.185337 164.248542 
L 886.47229 166.682344 
L 887.276636 167.320669 
L 888.080982 173.776451 
L 890.172281 182.62909 
L 891.780972 182.532703 
L 891.780972 181.722677 
L 892.585318 179.593721 
L 893.389664 178.705599 
L 894.676617 175.933111 
L 895.480963 175.134547 
L 896.285308 173.496296 
L 897.089654 176.779861 
L 898.376607 176.634494 
L 899.180953 182.619975 
L 900.038922 181.455 
L 901.272252 181.507658 
L 901.754859 189.856101 
L 902.559205 193.634747 
L 904.22152 199.574258 
L 904.22152 201.809524 
L 905.025866 207.003061 
L 905.830211 205.922557 
L 907.117164 214.881775 
L 907.599772 217.376708 
L 908.404118 215.462375 
L 909.208463 214.308911 
L 910.012809 225.674626 
L 911.299762 229.079761 
L 911.299762 226.387269 
L 912.104108 226.207353 
L 912.908454 228.963716 
L 914.195407 229.262421 
L 914.195407 224.289118 
L 914.678015 229.415345 
L 915.643229 226.941483 
L 916.125837 238.427687 
L 917.144675 244.527867 
L 917.627282 256.014071 
L 918.270759 254.375881 
L 919.075105 248.920912 
L 919.450466 243.356127 
L 920.093943 241.377018 
L 922.399734 223.728758 
L 923.418572 231.463465 
L 923.847556 230.419039 
L 924.544656 241.905243 
L 925.67074 253.391446 
L 926.367839 264.877649 
L 926.850447 258.012735 
L 928.459138 247.41772 
L 928.941746 238.842657 
L 932.319998 225.464013 
L 932.319998 236.950216 
L 932.641736 234.013634 
L 934.572166 228.802246 
L 934.572166 234.190364 
L 935.751873 233.759393 
L 936.39535 236.570439 
L 936.717088 236.377091 
L 937.896795 247.863294 
L 938.218533 258.13955 
L 938.86201 253.153331 
L 939.55911 261.206007 
L 940.363455 257.267089 
L 940.685194 254.597672 
L 941.382293 255.555571 
L 942.830116 256.006875 
L 943.205477 256.505923 
L 943.848954 257.012339 
L 944.975038 254.146407 
L 945.672137 249.119724 
L 946.315614 250.643941 
L 947.817059 247.359155 
L 947.817059 249.961909 
L 948.138798 247.221666 
L 949.961981 244.548731 
L 949.961981 251.508297 
L 951.088065 248.330768 
L 951.088065 245.473182 
L 952.911249 244.202366 
L 952.911249 255.68857 
L 954.090956 252.604141 
L 955.699648 246.486014 
L 956.503994 246.209474 
L 956.825732 246.823753 
L 957.630078 247.489945 
L 959.721377 266.662821 
L 959.721377 265.071905 
L 961.00833 264.102746 
L 961.00833 263.380314 
L 962.77789 262.557748 
L 963.743105 263.473695 
L 964.17209 263.184598 
L 964.654697 264.59614 
L 965.137305 265.42833 
L 966.102519 263.877949 
L 966.585127 263.348028 
L 967.067734 258.513371 
L 967.979326 258.288291 
L 968.461934 254.55106 
L 970.714102 250.803873 
L 970.714102 247.798721 
L 972.001055 252.837977 
L 972.805401 252.199329 
L 972.805401 257.451126 
L 974.092354 253.722013 
L 974.521338 254.280309 
L 976.505391 254.670013 
L 976.505391 252.430899 
L 977.953214 251.647995 
L 977.953214 246.157195 
L 979.454659 243.173971 
L 979.454659 235.341374 
L 980.956104 228.449873 
L 980.956104 223.64011 
L 983.422765 223.397949 
L 983.422765 220.283276 
L 986.586525 219.674344 
L 986.586525 216.501151 
L 988.731447 215.626487 
L 989.750285 211.067091 
L 990.393761 204.855551 
L 991.090861 200.14772 
L 991.734337 194.794312 
L 993.879259 191.404655 
L 993.879259 188.080921 
L 994.576359 185.471692 
L 995.219836 191.534248 
L 996.238674 193.031295 
L 998.705334 197.420301 
L 998.705334 200.896472 
L 998.705334 200.120107 
L 999.402434 196.662981 
L 1001.225617 194.159208 
L 1001.225617 191.317704 
L 1003.370539 186.908873 
L 1003.370539 183.384214 
L 1003.692278 180.776655 
L 1006.158938 178.976866 
L 1006.158938 177.662193 
L 1006.534299 176.053384 
L 1008.679221 174.383255 
L 1008.679221 172.935405 
L 1010.502405 171.728502 
L 1010.502405 171.460649 
L 1011.950227 175.390094 
L 1011.950227 186.876298 
L 1011.950227 186.876298 
" clip-path="url(#pfd239c2c64)" style="fill: none; stroke: #0be881; stroke-opacity: 0.99; stroke-width: 2.4; stroke-linecap: square"/>
   </g>
   <g id="line2d_22">
    <path d="M 92.904773 482.904027 
L 92.904773 438.032173 
L 93.226511 426.54597 
L 93.226511 415.059767 
L 93.548249 403.573563 
L 93.548249 392.08736 
L 93.869988 380.601157 
L 94.352595 369.114953 
L 95.049695 346.142547 
L 95.800417 334.656343 
L 96.122156 323.202126 
L 97.24824 303.310016 
L 97.945339 294.9415 
L 98.267078 287.313345 
L 98.803308 280.734727 
L 99.125047 275.070302 
L 99.822146 269.255413 
L 101.269969 260.462322 
L 101.591707 256.850091 
L 102.449676 253.994245 
L 103.093152 250.853778 
L 104.594598 246.0603 
L 105.398943 244.099175 
L 106.04242 241.97677 
L 106.846766 240.32253 
L 107.222127 238.97107 
L 108.348211 238.317017 
L 108.669949 237.256441 
L 109.796033 236.262132 
L 110.975741 233.690675 
L 112.101825 233.139505 
L 112.423563 232.810741 
L 113.60327 236.584327 
L 113.925008 235.505008 
L 114.729354 234.967843 
L 115.5337 234.198585 
L 116.230799 235.719013 
L 117.839491 234.686809 
L 118.161229 233.545689 
L 119.287313 233.240127 
L 120.145282 233.592283 
L 120.788759 234.271596 
L 121.593104 233.444033 
L 121.914843 233.380971 
L 123.09455 232.340146 
L 123.416288 233.375893 
L 124.220634 232.756104 
L 125.346718 233.658417 
L 125.722079 233.515988 
L 126.526425 232.843938 
L 127.652509 232.554845 
L 127.974247 231.78193 
L 129.9583 230.943023 
L 131.406123 233.235199 
L 131.781484 232.601193 
L 132.58583 232.918607 
L 134.033652 232.896205 
L 134.837998 232.639773 
L 136.339443 231.97128 
L 137.143789 231.815927 
L 138.269873 232.656876 
L 138.645234 232.626 
L 139.44958 234.640138 
L 140.575664 235.495664 
L 140.575664 234.480582 
L 141.701748 234.360151 
L 142.07711 233.63843 
L 143.203194 233.470232 
L 144.329278 234.968729 
L 144.329278 234.649326 
L 145.508985 234.362653 
L 145.830723 234.16399 
L 146.635069 233.907164 
L 147.761153 233.789158 
L 148.136514 237.912345 
L 148.94086 237.623278 
L 150.066944 237.471624 
L 150.388682 240.291093 
L 151.193028 240.217344 
L 152.372735 241.371269 
L 152.694474 241.308439 
L 153.498819 240.619154 
L 154.303165 243.778499 
L 154.624903 247.640105 
L 155.80461 247.587851 
L 156.126349 249.047848 
L 157.73504 247.52826 
L 158.861124 244.872795 
L 160.040831 244.538067 
L 161.166915 245.390593 
L 161.971261 248.704744 
L 162.292999 248.812867 
L 163.955314 248.209495 
L 164.384298 247.104228 
L 164.384298 245.340928 
L 168.245158 243.357846 
L 169.049504 242.728328 
L 170.711818 242.25035 
L 170.711818 242.485672 
L 172.481379 242.406931 
L 172.481379 243.230147 
L 174.626301 243.197446 
L 174.626301 242.399249 
L 176.824846 241.798736 
L 176.824846 240.659438 
L 180.095852 240.951086 
L 180.095852 240.230114 
L 181.11469 238.230576 
L 181.758167 237.822736 
L 183.58135 237.658243 
L 183.58135 237.197946 
L 183.903089 236.460886 
L 184.600188 235.478446 
L 186.423372 235.576189 
L 186.423372 235.381586 
L 189.694378 234.606192 
L 189.694378 233.85828 
L 191.195823 232.855754 
L 191.195823 232.272092 
L 193.126253 230.961777 
L 195.432044 230.264439 
L 196.558128 229.720446 
L 196.879867 229.266081 
L 197.362474 228.956417 
L 199.990004 228.283526 
L 200.472611 227.609661 
L 201.598695 227.055042 
L 202.403041 225.959052 
L 203.207387 225.424813 
L 205.674047 225.173588 
L 206.478393 224.850374 
L 206.478393 224.549479 
L 208.408823 223.426806 
L 209.213168 224.069396 
L 210.017514 223.775682 
L 210.875483 223.592655 
L 212.484174 222.635093 
L 213.28852 223.239772 
L 214.092866 223.07676 
L 214.897212 223.081296 
L 215.379819 224.481078 
L 216.184165 225.803003 
L 216.988511 226.044369 
L 217.792856 225.962601 
L 218.597202 227.248134 
L 219.884155 228.722627 
L 220.366763 230.151404 
L 221.171108 229.172558 
L 221.975454 228.537322 
L 222.458062 229.021594 
L 224.066753 228.756436 
L 224.871099 229.387802 
L 225.353706 229.093288 
L 226.158052 228.897015 
L 227.445005 230.559392 
L 227.927613 230.298972 
L 228.41022 228.975093 
L 229.697173 228.520786 
L 229.697173 228.159345 
L 231.413111 227.902769 
L 232.860933 225.29491 
L 234.147887 224.88661 
L 235.113101 224.138919 
L 235.542086 224.140385 
L 236.507301 223.895844 
L 236.989908 223.138025 
L 236.989908 222.625811 
L 238.759469 222.207845 
L 239.242076 224.79078 
L 240.153668 224.399838 
L 240.636276 224.375686 
L 241.60149 223.566351 
L 242.084098 222.894705 
L 242.99569 221.974536 
L 243.478297 222.002845 
L 244.443512 221.776052 
L 244.92612 221.104314 
L 245.837711 221.098281 
L 246.320319 221.766231 
L 247.285534 221.263281 
L 248.197126 221.041877 
L 249.484079 220.866048 
L 249.484079 220.659836 
L 250.931901 220.467975 
L 253.291315 220.098551 
L 254.739138 220.045673 
L 255.543483 220.649641 
L 259.189851 219.441646 
L 259.189851 219.686592 
L 260.58405 218.697923 
L 262.353611 219.439055 
L 262.353611 220.905719 
L 262.836218 220.558423 
L 263.801433 220.125693 
L 265.088386 219.826608 
L 265.088386 220.439808 
L 265.999978 219.806404 
L 267.447801 219.656338 
L 267.769539 219.872455 
L 268.252146 219.825985 
L 268.734754 219.481303 
L 270.450691 218.502573 
L 270.450691 218.346881 
L 271.415906 217.78926 
L 272.702859 218.616705 
L 272.702859 217.698732 
L 273.668074 217.134527 
L 274.955028 216.58532 
L 274.955028 215.237015 
L 277.153573 214.417588 
L 277.63618 213.908981 
L 279.405741 213.856208 
L 279.888348 213.747809 
L 281.282547 215.917657 
L 281.604286 215.141583 
L 282.086893 215.362886 
L 283.373846 217.168958 
L 283.856454 216.974858 
L 284.821669 217.065372 
L 285.143407 217.650049 
L 286.108622 217.298716 
L 286.591229 217.647252 
L 287.502821 219.563942 
L 287.985429 219.799042 
L 288.950644 222.302562 
L 289.754989 222.147396 
L 290.559335 226.694796 
L 291.363681 229.926738 
L 292.168027 231.360671 
L 293.294111 234.248813 
L 293.669472 236.917568 
L 294.795556 236.556113 
L 295.492656 236.808968 
L 295.814394 239.938998 
L 296.136132 239.658606 
L 297.637578 239.061547 
L 298.281054 241.082177 
L 298.281054 241.042687 
L 299.7825 241.108684 
L 300.425976 242.524614 
L 301.123076 241.38586 
L 301.766553 240.920487 
L 302.463652 240.795628 
L 303.107129 239.983188 
L 303.804229 239.437113 
L 305.252051 239.295555 
L 305.252051 238.646491 
L 305.949151 237.579804 
L 306.592627 236.929634 
L 308.415811 236.049661 
L 308.737549 237.578142 
L 309.434649 237.917122 
L 310.882471 237.487437 
L 310.882471 237.044262 
L 312.223047 236.110738 
L 313.885362 235.399559 
L 315.333184 237.711135 
L 316.512891 236.475298 
L 317.638975 236.475852 
L 317.638975 235.732718 
L 319.086798 234.827438 
L 319.462159 233.661077 
L 319.944767 233.610631 
L 321.070851 232.345152 
L 321.714327 232.043365 
L 322.196935 231.546096 
L 323.376642 231.208403 
L 324.020118 231.256675 
L 324.502726 230.9057 
L 325.62881 231.188043 
L 326.32591 230.776626 
L 326.808517 230.272932 
L 327.773732 230.676959 
L 328.256339 230.117401 
L 329.757785 229.754373 
L 330.776623 230.182114 
L 331.205607 229.53435 
L 332.224445 229.422614 
L 332.707052 230.764818 
L 333.72589 230.778664 
L 334.208498 232.181716 
L 335.173713 231.870853 
L 335.978059 233.301728 
L 336.675158 233.5983 
L 338.122981 233.352734 
L 339.624426 232.37927 
L 341.44761 231.253801 
L 341.769348 230.476799 
L 342.466448 232.11425 
L 343.592532 232.587979 
L 343.91427 234.779764 
L 345.415715 234.324407 
L 346.059192 233.584847 
L 347.238899 233.334522 
L 347.560637 233.453639 
L 348.579475 233.266982 
L 349.062083 233.687587 
L 349.705559 232.976288 
L 350.831643 232.635272 
L 351.207005 233.513903 
L 351.850481 233.545901 
L 352.976565 233.102 
L 353.351927 233.282586 
L 354.317142 233.253815 
L 354.799749 232.410835 
L 355.496849 231.850972 
L 356.622933 231.395918 
L 356.944671 230.40665 
L 357.963509 230.02084 
L 358.446116 229.309041 
L 359.464954 231.745391 
L 360.2693 231.204948 
L 360.912777 232.905941 
L 361.609876 232.65133 
L 363.057699 230.853834 
L 363.754798 230.287555 
L 364.559144 230.132906 
L 366.06059 229.070962 
L 367.401166 227.237022 
L 368.205512 227.186941 
L 368.848988 227.526044 
L 369.975072 227.114011 
L 370.672172 226.175439 
L 371.476518 225.77702 
L 372.173617 226.541051 
L 372.817094 226.405627 
L 373.62144 226.091521 
L 374.318539 225.471396 
L 374.962016 225.384349 
L 375.766362 224.906829 
L 376.463461 224.271441 
L 377.589545 225.090131 
L 378.286645 227.934698 
L 379.090991 227.672745 
L 379.734467 226.559426 
L 380.431567 225.761152 
L 381.235913 227.965829 
L 381.879389 227.717874 
L 382.576489 226.864943 
L 384.024311 226.123342 
L 386.169233 225.863086 
L 387.670679 224.946934 
L 388.796763 225.14724 
L 389.493862 224.227813 
L 389.815601 225.560926 
L 390.941685 225.734123 
L 391.638784 224.864183 
L 392.764869 224.900567 
L 393.461968 224.038564 
L 393.783706 223.881832 
L 394.909791 223.565634 
L 395.285152 223.089114 
L 396.411236 222.864438 
L 397.054713 222.313952 
L 397.430074 223.021958 
L 398.877896 222.612695 
L 398.877896 223.472913 
L 400.379342 223.250823 
L 400.70108 224.091903 
L 401.880787 223.090346 
L 402.846002 222.733145 
L 404.025709 222.502152 
L 404.669186 221.880403 
L 404.990924 221.999064 
L 406.492369 221.931108 
L 406.492369 221.44554 
L 407.993815 222.746497 
L 408.315553 221.975502 
L 410.460475 221.697117 
L 412.283659 220.478703 
L 412.605397 220.010522 
L 414.106842 219.384993 
L 414.106842 219.186695 
L 415.876403 218.917322 
L 415.876403 220.582124 
L 417.377848 220.408623 
L 417.699587 221.313353 
L 418.021325 220.860429 
L 419.52277 220.458344 
L 419.52277 220.211389 
L 421.345954 220.564756 
L 421.667692 220.248482 
L 421.667692 220.276846 
L 423.490876 221.401302 
L 423.490876 221.071383 
L 424.992322 220.376106 
L 425.31406 219.736611 
L 425.635798 221.431213 
L 427.137244 223.254071 
L 427.137244 222.573251 
L 428.906804 222.67689 
L 428.906804 222.130842 
L 430.40825 221.326164 
L 430.729988 220.925064 
L 430.729988 220.684025 
L 432.87491 219.854727 
L 434.376355 222.243174 
L 434.698094 221.537839 
L 434.698094 221.238955 
L 436.521277 220.607418 
L 438.344461 220.568735 
L 438.344461 226.904665 
L 440.167645 236.688954 
L 440.167645 236.407425 
L 442.312567 242.263035 
L 442.312567 243.555589 
L 444.13575 244.739137 
L 444.13575 245.582286 
L 446.280672 249.318635 
L 446.924149 251.739224 
L 447.621249 251.518611 
L 447.942987 255.389127 
L 447.942987 257.498928 
L 450.087909 256.687458 
L 452.554569 256.239964 
L 452.554569 261.284623 
L 452.554569 261.168497 
L 454.753114 262.139095 
L 454.753114 262.086132 
L 456.200937 261.994771 
L 456.200937 260.865895 
L 461.18788 259.623375 
L 462.796572 257.691585 
L 462.796572 257.068386 
L 463.976279 255.824945 
L 463.976279 253.901104 
L 465.102363 252.134231 
L 467.247285 251.07071 
L 467.247285 246.985487 
L 469.070469 245.1687 
L 470.089307 242.680762 
L 470.089307 242.319855 
L 471.91249 242.206329 
L 473.253067 239.702966 
L 473.896543 239.100217 
L 473.896543 238.560238 
L 475.719727 238.082149 
L 477.70378 235.319053 
L 478.400879 234.797678 
L 479.419717 234.340522 
L 480.063194 233.708377 
L 480.760294 232.741823 
L 481.40377 231.462869 
L 482.10087 230.560232 
L 483.441446 227.295532 
L 484.084923 226.583802 
L 484.782022 225.337749 
L 485.425499 224.742446 
L 486.444337 224.437109 
L 487.087814 227.488202 
L 487.784913 227.151464 
L 488.42839 226.226485 
L 489.125489 225.844379 
L 489.768966 225.361195 
L 492.12838 223.168476 
L 492.82548 225.014085 
L 494.273302 224.367435 
L 494.970402 223.657277 
L 495.613878 223.300179 
L 496.310978 222.759098 
L 497.329816 222.552364 
L 497.973293 221.590845 
L 498.670392 223.371505 
L 499.313869 222.880683 
L 500.010969 222.668212 
L 500.654445 221.902458 
L 502.477629 221.62996 
L 502.477629 220.879731 
L 503.818205 220.240771 
L 504.461682 220.648267 
L 505.158781 220.602405 
L 505.802258 220.346848 
L 506.821096 220.110386 
L 508.161672 219.078233 
L 508.858772 219.431921 
L 510.521086 219.575229 
L 511.003694 219.406897 
L 511.325432 219.040827 
L 512.022532 218.600727 
L 512.666008 219.441113 
L 513.363108 219.360825 
L 514.006585 220.724801 
L 515.025423 220.43627 
L 515.668899 220.759924 
L 516.365999 220.346887 
L 517.009475 219.751193 
L 517.706575 219.731552 
L 519.529759 219.482365 
L 519.529759 218.806994 
L 520.173235 218.742704 
L 520.870335 220.251466 
L 521.513812 220.218488 
L 522.210911 222.1201 
L 522.854388 223.550374 
L 523.873226 227.855901 
L 524.516702 231.07757 
L 526.554378 238.05639 
L 528.002201 239.831862 
L 528.002201 240.575439 
L 528.6993 240.918352 
L 529.342777 242.063528 
L 530.039877 243.835801 
L 530.683353 249.975835 
L 531.380453 249.36295 
L 532.023929 249.005512 
L 533.525375 248.813014 
L 533.525375 249.946607 
L 533.847113 249.622906 
L 535.670297 251.573809 
L 535.670297 251.426194 
L 535.992035 253.438909 
L 536.367397 252.835692 
L 538.136957 252.522499 
L 538.136957 252.726117 
L 539.960141 252.437524 
L 539.960141 251.431076 
L 541.461586 249.732021 
L 541.944194 248.28716 
L 545.429692 245.613936 
L 545.75143 245.115414 
L 547.896352 243.850626 
L 547.896352 242.204267 
L 548.218091 243.216309 
L 549.505044 242.656257 
L 550.631128 242.901734 
L 550.631128 241.328603 
L 553.258657 238.957899 
L 553.258657 236.987533 
L 554.384741 234.952517 
L 554.384741 233.333422 
L 555.564448 232.021664 
L 555.886187 230.365828 
L 556.690532 229.481964 
L 557.816617 228.638402 
L 559.318062 226.745851 
L 560.444146 225.726262 
L 560.444146 224.925872 
L 561.945591 224.565953 
L 561.945591 223.859687 
L 563.071675 222.945489 
L 564.573121 222.218701 
L 564.573121 221.911792 
L 565.699205 223.076969 
L 565.699205 222.666017 
L 566.825289 222.727896 
L 568.326734 222.471669 
L 568.326734 222.320183 
L 569.452818 221.870403 
L 569.82818 221.368725 
L 570.954264 220.859139 
L 572.080348 220.632035 
L 572.080348 220.133697 
L 573.260055 219.938877 
L 574.707877 221.005335 
L 574.707877 221.55258 
L 575.887584 221.588943 
L 576.209323 220.980161 
L 577.335407 221.08394 
L 577.657145 220.558435 
L 578.461491 221.163742 
L 579.641198 220.839952 
L 579.962936 222.336446 
L 582.268727 221.273863 
L 583.71655 221.022325 
L 583.71655 220.423068 
L 584.896257 220.100111 
L 586.344079 219.877269 
L 586.344079 219.324636 
L 587.523786 219.264952 
L 587.845525 218.956806 
L 588.64987 218.688433 
L 590.151316 218.365268 
L 590.151316 217.862898 
L 591.2774 218.375978 
L 592.725222 217.918951 
L 592.725222 217.794463 
L 593.904929 219.011008 
L 594.226668 218.79208 
L 595.031013 219.671967 
L 596.532459 220.014248 
L 596.532459 219.370314 
L 597.658543 219.740966 
L 599.159988 219.063581 
L 600.286072 219.515302 
L 600.286072 219.258885 
L 601.787518 220.744639 
L 602.913602 220.738698 
L 604.415047 219.883032 
L 605.862869 219.54503 
L 606.667215 219.086144 
L 608.168661 219.057179 
L 608.168661 218.807683 
L 609.294745 218.190214 
L 610.420829 217.840265 
L 610.79619 219.571927 
L 611.922274 221.15371 
L 613.048358 220.586616 
L 614.549803 220.902196 
L 614.549803 219.905017 
L 616.855595 219.724231 
L 616.855595 219.478147 
L 618.303417 220.112084 
L 620.930946 219.159375 
L 620.930946 218.628292 
L 622.110654 218.76161 
L 622.432392 218.611069 
L 623.558476 219.201252 
L 624.68456 219.071443 
L 624.68456 218.701683 
L 625.864267 219.390302 
L 627.312089 218.802177 
L 627.312089 221.362749 
L 628.491796 222.732269 
L 628.813535 221.988773 
L 629.939619 222.334385 
L 630.31498 221.484164 
L 631.119326 222.273894 
L 632.24541 221.538825 
L 632.567148 220.780453 
L 633.746855 219.980864 
L 634.872939 219.508112 
L 634.872939 219.578207 
L 636.320762 219.732501 
L 636.696123 220.68504 
L 637.500469 220.229921 
L 638.626553 219.848536 
L 638.948291 219.231384 
L 640.127998 219.83109 
L 640.449737 218.818459 
L 641.254082 218.807447 
L 642.755528 219.903194 
L 642.755528 221.709583 
L 643.881612 221.085211 
L 645.383057 220.415496 
L 645.383057 220.101299 
L 646.509141 219.271865 
L 646.83088 218.604644 
L 647.635225 219.100247 
L 649.136671 218.949357 
L 649.136671 218.563935 
L 650.262755 218.720247 
L 651.7642 218.001637 
L 651.7642 219.722639 
L 652.890284 219.391064 
L 652.890284 219.778676 
L 654.016368 219.942354 
L 655.517814 219.753338 
L 655.517814 218.853273 
L 656.643898 218.283702 
L 657.019259 219.801794 
L 658.145343 220.650111 
L 659.271427 220.322624 
L 659.271427 219.667774 
L 660.451134 220.567107 
L 661.898957 219.360284 
L 661.898957 218.936148 
L 663.078664 218.844196 
L 663.400402 218.109563 
L 665.706193 217.269508 
L 667.154016 217.631663 
L 667.154016 219.223218 
L 668.2801 219.995625 
L 669.459807 219.99489 
L 669.459807 219.677354 
L 672.087336 218.057802 
L 673.21342 217.973286 
L 673.535159 217.213883 
L 675.14385 216.298674 
L 676.323557 219.317493 
L 676.645295 219.2083 
L 677.449641 221.28828 
L 678.253987 222.045959 
L 679.058333 221.456239 
L 679.862678 224.322686 
L 681.524993 223.962788 
L 682.329339 223.731661 
L 683.133684 223.314498 
L 683.455423 222.158005 
L 684.742376 221.984375 
L 685.224983 223.216244 
L 686.351067 221.909371 
L 687.638021 220.817644 
L 688.442366 221.212366 
L 689.407581 220.65569 
L 689.72932 222.085669 
L 691.49888 220.931196 
L 691.820619 220.570126 
L 693.107572 220.323451 
L 693.590179 219.766632 
L 694.877132 219.58526 
L 696.164086 220.090463 
L 697.075677 220.877529 
L 697.451039 220.809329 
L 697.880023 220.271029 
L 699.166976 219.828237 
L 699.649584 220.431196 
L 700.936537 220.145056 
L 702.706098 218.737306 
L 705.762612 218.219739 
L 707.156811 219.201502 
L 707.478549 220.323028 
L 707.961157 220.488274 
L 709.408979 220.230665 
L 709.730717 219.783384 
L 710.213325 219.678282 
L 711.500278 218.815261 
L 711.982885 219.120934 
L 713.269839 218.867929 
L 713.269839 219.757187 
L 714.18143 219.722737 
L 715.468384 220.638466 
L 715.468384 220.622446 
L 716.433599 220.597321 
L 717.720552 221.641581 
L 718.203159 221.430943 
L 718.632144 220.797969 
L 719.919097 220.515602 
L 720.401704 220.290872 
L 720.884312 219.558314 
L 722.171265 218.73064 
L 722.653872 218.168163 
L 724.048072 217.844548 
L 724.423433 217.573036 
L 724.852417 218.883849 
L 725.335025 218.401728 
L 726.782847 219.966057 
L 727.104585 220.488674 
L 727.587193 220.319403 
L 728.552408 221.404364 
L 730.268345 220.96561 
L 730.750953 220.097385 
L 732.198775 219.820833 
L 732.520514 219.165749 
L 733.003121 218.946305 
L 733.914713 218.691992 
L 735.684273 217.606829 
L 736.166881 219.050156 
L 736.649488 218.520954 
L 737.614703 219.514424 
L 739.008903 219.019273 
L 739.330641 217.960023 
L 739.813248 218.870596 
L 740.778463 220.217791 
L 741.261071 219.345652 
L 742.172663 218.925197 
L 743.459616 218.887595 
L 743.459616 219.349562 
L 744.907438 219.396235 
L 745.81903 219.077548 
L 747.266852 218.756706 
L 747.588591 219.970933 
L 748.071198 219.414462 
L 749.036413 219.30501 
L 749.51902 218.660541 
L 750.430612 218.496871 
L 751.878435 217.967958 
L 752.200173 218.805018 
L 752.68278 218.6102 
L 753.165388 218.600907 
L 754.07698 218.268974 
L 754.559587 219.306531 
L 755.524802 222.243411 
L 756.919001 224.31029 
L 757.294363 223.245874 
L 757.77697 223.154228 
L 758.205955 222.514434 
L 759.171169 222.238362 
L 761.530584 221.151756 
L 761.852322 220.80029 
L 762.334929 220.04897 
L 762.817537 219.652047 
L 763.782752 219.946007 
L 764.265359 219.368404 
L 765.176951 219.771562 
L 766.946512 219.706581 
L 767.429119 221.912502 
L 767.911727 221.781227 
L 768.823318 223.154199 
L 769.305926 225.504551 
L 770.753748 234.434512 
L 772.523309 236.371459 
L 772.523309 241.253482 
L 772.952293 240.148366 
L 773.434901 239.884396 
L 774.400116 244.190981 
L 774.882723 245.554866 
L 775.794315 245.71879 
L 776.276922 247.096896 
L 778.046483 250.09084 
L 778.046483 252.519061 
L 779.92329 253.315177 
L 780.781259 253.165915 
L 781.585604 253.536829 
L 783.355165 256.499155 
L 783.355165 258.39636 
L 785.178349 258.19582 
L 785.178349 262.858098 
L 787.323271 261.945635 
L 787.323271 260.620328 
L 789.629062 258.580322 
L 789.629062 256.680878 
L 791.773984 255.355365 
L 791.773984 251.88354 
L 793.918906 250.484549 
L 793.918906 248.579751 
L 795.420351 247.303256 
L 795.420351 245.779174 
L 796.868174 243.94519 
L 799.120342 242.097919 
L 799.602949 239.929832 
L 800.568164 238.889409 
L 801.479756 235.370971 
L 802.444971 233.503759 
L 802.927578 232.054239 
L 803.83917 230.031413 
L 804.321778 228.472158 
L 806.681192 225.362098 
L 807.163799 224.383386 
L 808.129014 223.305095 
L 808.611622 222.123336 
L 809.523213 221.800229 
L 809.523213 221.278415 
L 811.292774 220.536152 
L 811.775381 219.947803 
L 812.579727 219.651602 
L 813.384073 218.960045 
L 815.153634 218.801007 
L 815.957979 219.09628 
L 816.762325 218.518946 
L 817.566671 218.492399 
L 818.049278 218.160601 
L 820.355069 217.397434 
L 821.159415 217.172955 
L 821.642023 217.446786 
L 822.768107 217.413915 
L 823.572453 217.247077 
L 824.698537 217.175196 
L 825.556505 217.930889 
L 825.556505 217.816772 
L 827.004328 218.414 
L 827.808673 220.573203 
L 828.505773 221.165496 
L 828.988381 224.967716 
L 830.114465 228.645919 
L 830.114465 231.448693 
L 831.61591 237.055349 
L 833.063732 239.5318 
L 833.063732 244.053281 
L 834.565178 246.460895 
L 834.565178 245.60434 
L 835.905754 248.688202 
L 836.388361 248.285394 
L 837.514446 249.374389 
L 837.514446 251.460725 
L 838.962268 253.692024 
L 838.962268 255.210026 
L 840.785452 254.623801 
L 840.785452 255.689158 
L 842.286897 257.37603 
L 842.769504 261.264856 
L 842.769504 262.489561 
L 843.895588 262.84522 
L 843.895588 263.087932 
L 843.895588 261.626477 
L 846.20138 260.575188 
L 847.97094 259.27833 
L 851.295569 258.17538 
L 851.295569 257.209392 
L 852.797015 256.23184 
L 852.797015 255.449716 
L 854.620198 253.657654 
L 854.620198 252.08585 
L 856.76512 251.014045 
L 857.408597 249.843614 
L 859.607142 249.399354 
L 859.607142 247.499249 
L 860.250619 246.192036 
L 862.073802 244.7086 
L 862.073802 243.254713 
L 862.395541 241.937291 
L 864.218724 240.826694 
L 865.344808 239.103961 
L 865.344808 237.88265 
L 866.524516 237.229822 
L 867.6506 235.86385 
L 868.454945 234.530119 
L 868.454945 233.174736 
L 869.581029 232.057725 
L 870.760737 231.158791 
L 870.760737 230.45277 
L 872.208559 229.730755 
L 873.012905 229.111052 
L 873.495512 228.135166 
L 874.675219 228.042675 
L 875.479565 227.268847 
L 875.801303 226.535492 
L 876.605649 226.402316 
L 877.409995 226.033936 
L 878.21434 225.533274 
L 879.018686 224.848694 
L 879.823032 223.720759 
L 881.592593 223.335113 
L 882.396938 223.613975 
L 882.7723 223.053495 
L 883.576645 222.726364 
L 884.380991 222.12645 
L 885.185337 221.76958 
L 885.989683 221.880796 
L 887.759243 220.922533 
L 888.563589 223.054162 
L 889.367935 223.32604 
L 890.172281 222.978179 
L 890.976626 223.757869 
L 891.780972 225.19794 
L 892.26358 224.668299 
L 893.067925 225.44909 
L 893.872271 224.134462 
L 894.676617 223.848668 
L 895.159224 223.109276 
L 897.572262 222.26497 
L 898.376607 220.798226 
L 901.272252 218.15713 
L 901.754859 217.086023 
L 902.559205 217.003259 
L 903.417174 216.410103 
L 904.22152 216.220721 
L 904.650504 215.767335 
L 905.508473 216.272195 
L 906.312819 217.485404 
L 907.117164 216.616655 
L 907.92151 216.161259 
L 909.208463 216.742129 
L 910.495417 219.361416 
L 911.299762 222.295539 
L 911.78237 222.979141 
L 912.586716 226.16502 
L 913.391061 230.206943 
L 914.195407 230.117953 
L 914.678015 232.015787 
L 915.321491 232.65473 
L 916.125837 234.938941 
L 916.822937 235.665585 
L 917.627282 240.367752 
L 918.270759 241.396423 
L 918.64612 244.197274 
L 919.772204 244.010131 
L 920.093943 244.482892 
L 921.702634 243.717326 
L 922.077995 243.310833 
L 923.418572 243.328674 
L 923.847556 243.017024 
L 923.847556 244.013128 
L 925.67074 244.59959 
L 925.67074 245.2537 
L 926.850447 246.823395 
L 928.941746 245.91777 
L 929.37073 245.416006 
L 932.319998 245.217727 
L 932.319998 244.509742 
L 932.641736 244.05844 
L 936.073611 247.750288 
L 936.717088 251.016941 
L 937.092449 250.613533 
L 938.86201 250.102805 
L 939.237371 248.698275 
L 939.55911 248.223206 
L 939.880848 246.534174 
L 941.060555 245.270171 
L 941.382293 244.682948 
L 942.830116 243.38746 
L 943.527215 242.053091 
L 944.170692 241.317198 
L 944.170692 240.770742 
L 945.672137 240.511759 
L 946.315614 241.279961 
L 947.012714 240.605195 
L 947.012714 241.914339 
L 948.138798 241.40335 
L 948.835897 241.745658 
L 949.157636 240.861115 
L 950.28372 239.618276 
L 950.659081 240.272435 
L 951.785165 239.748799 
L 952.106903 238.935472 
L 952.911249 239.64193 
L 953.608349 241.60835 
L 954.412695 241.528304 
L 955.21704 241.01296 
L 955.699648 240.338426 
L 956.503994 239.531083 
L 957.308339 239.295867 
L 958.112685 240.116063 
L 959.721377 239.011858 
L 960.203984 238.651148 
L 961.00833 238.233576 
L 961.490937 238.223653 
L 962.295283 237.70693 
L 963.260498 237.628717 
L 963.743105 237.378161 
L 964.654697 237.458971 
L 965.137305 237.316092 
L 966.102519 238.049263 
L 966.585127 238.900125 
L 967.979326 238.555753 
L 968.461934 237.568325 
L 970.33874 236.328693 
L 970.714102 235.916507 
L 972.001055 237.230867 
L 972.805401 236.760944 
L 972.805401 236.536677 
L 974.092354 237.736242 
L 974.8967 239.305122 
L 975.701045 239.622288 
L 977.953214 238.56891 
L 977.953214 238.323497 
L 979.454659 239.531041 
L 979.454659 238.028658 
L 980.580743 237.905478 
L 980.956104 237.113287 
L 982.725665 236.104645 
L 983.422765 236.030685 
L 983.744503 237.992717 
L 984.92421 237.80434 
L 985.567687 237.268713 
L 986.264786 237.00636 
L 986.586525 236.110943 
L 987.712609 235.560438 
L 988.409708 234.617893 
L 989.374923 234.062256 
L 990.072023 233.245603 
L 990.715499 232.954313 
L 991.412599 233.334175 
L 992.056076 232.8064 
L 992.753175 232.724178 
L 993.879259 232.728978 
L 994.200998 232.611448 
L 994.898097 231.966533 
L 995.541574 232.784917 
L 996.238674 232.62172 
L 996.88215 232.866964 
L 997.57925 233.830112 
L 998.705334 233.766731 
L 999.080695 236.475216 
L 1000.04591 236.207258 
L 1000.74301 235.844633 
L 1001.547356 235.168328 
L 1002.190832 235.101014 
L 1002.566194 236.561718 
L 1003.692278 236.435038 
L 1005.032854 234.808038 
L 1005.67633 233.865041 
L 1007.177776 232.585181 
L 1007.874875 232.110648 
L 1008.679221 232.0598 
L 1009.322698 231.377044 
L 1010.019797 233.320411 
L 1010.824143 232.102655 
L 1011.46762 231.384942 
L 1011.46762 231.384942 
" clip-path="url(#pfd239c2c64)" style="fill: none; stroke: #3c40c6; stroke-opacity: 0.99; stroke-width: 2.4; stroke-linecap: square"/>
   </g>
   <g id="patch_3">
    <path d="M 46.9525 434.59192 
L 46.9525 72.25112 
" style="fill: none; stroke: #000000; stroke-width: 0.8; stroke-linejoin: miter; stroke-linecap: square"/>
   </g>
   <g id="patch_4">
    <path d="M 1057.9025 434.59192 
L 1057.9025 72.25112 
" style="fill: none; stroke: #000000; stroke-width: 0.8; stroke-linejoin: miter; stroke-linecap: square"/>
   </g>
   <g id="patch_5">
    <path d="M 46.9525 434.59192 
L 1057.9025 434.59192 
" style="fill: none; stroke: #000000; stroke-width: 0.8; stroke-linejoin: miter; stroke-linecap: square"/>
   </g>
   <g id="patch_6">
    <path d="M 46.9525 72.25112 
L 1057.9025 72.25112 
" style="fill: none; stroke: #000000; stroke-width: 0.8; stroke-linejoin: miter; stroke-linecap: square"/>
   </g>
   <g id="legend_1">
    <g id="patch_7">
     <path d="M 334.7085 35.8 
L 729.7085 35.8 
Q 733.7085 35.8 733.7085 31.8 
L 733.7085 4 
Q 733.7085 -0 729.7085 -0 
L 334.7085 -0 
Q 330.7085 -0 330.7085 4 
L 330.7085 31.8 
Q 330.7085 35.8 334.7085 35.8 
z
" style="fill: #ffffff; opacity: 0.8; stroke: #cccccc; stroke-linejoin: miter"/>
    </g>
    <g id="line2d_23">
     <path d="M 338.7085 16.6 
L 358.7085 16.6 
L 378.7085 16.6 
" style="fill: none; stroke: #0be881; stroke-opacity: 0.99; stroke-width: 2.4; stroke-linecap: square"/>
    </g>
    <g id="text_13">
     <!-- MLP256$^m$ -->
     <g transform="translate(394.7085 23.6)scale(0.2 -0.2)">
      <defs>
       <path id="DejaVuSans-4d" d="M 628 4666 
L 1569 4666 
L 2759 1491 
L 3956 4666 
L 4897 4666 
L 4897 0 
L 4281 0 
L 4281 4097 
L 3078 897 
L 2444 897 
L 1241 4097 
L 1241 0 
L 628 0 
L 628 4666 
z
" transform="scale(0.015625)"/>
       <path id="DejaVuSans-4c" d="M 628 4666 
L 1259 4666 
L 1259 531 
L 3531 531 
L 3531 0 
L 628 0 
L 628 4666 
z
" transform="scale(0.015625)"/>
       <path id="DejaVuSans-50" d="M 1259 4147 
L 1259 2394 
L 2053 2394 
Q 2494 2394 2734 2622 
Q 2975 2850 2975 3272 
Q 2975 3691 2734 3919 
Q 2494 4147 2053 4147 
L 1259 4147 
z
M 628 4666 
L 2053 4666 
Q 2838 4666 3239 4311 
Q 3641 3956 3641 3272 
Q 3641 2581 3239 2228 
Q 2838 1875 2053 1875 
L 1259 1875 
L 1259 0 
L 628 0 
L 628 4666 
z
" transform="scale(0.015625)"/>
       <path id="DejaVuSans-35" d="M 691 4666 
L 3169 4666 
L 3169 4134 
L 1269 4134 
L 1269 2991 
Q 1406 3038 1543 3061 
Q 1681 3084 1819 3084 
Q 2600 3084 3056 2656 
Q 3513 2228 3513 1497 
Q 3513 744 3044 326 
Q 2575 -91 1722 -91 
Q 1428 -91 1123 -41 
Q 819 9 494 109 
L 494 744 
Q 775 591 1075 516 
Q 1375 441 1709 441 
Q 2250 441 2565 725 
Q 2881 1009 2881 1497 
Q 2881 1984 2565 2268 
Q 2250 2553 1709 2553 
Q 1456 2553 1204 2497 
Q 953 2441 691 2322 
L 691 4666 
z
" transform="scale(0.015625)"/>
       <path id="DejaVuSans-Oblique-6d" d="M 5747 2113 
L 5338 0 
L 4763 0 
L 5166 2094 
Q 5191 2228 5203 2325 
Q 5216 2422 5216 2491 
Q 5216 2772 5059 2928 
Q 4903 3084 4622 3084 
Q 4203 3084 3875 2770 
Q 3547 2456 3450 1953 
L 3066 0 
L 2491 0 
L 2900 2094 
Q 2925 2209 2937 2307 
Q 2950 2406 2950 2484 
Q 2950 2769 2794 2926 
Q 2638 3084 2363 3084 
Q 1938 3084 1609 2770 
Q 1281 2456 1184 1953 
L 800 0 
L 225 0 
L 909 3500 
L 1484 3500 
L 1375 2956 
Q 1609 3263 1923 3423 
Q 2238 3584 2597 3584 
Q 2978 3584 3223 3384 
Q 3469 3184 3519 2828 
Q 3781 3197 4126 3390 
Q 4472 3584 4856 3584 
Q 5306 3584 5551 3325 
Q 5797 3066 5797 2591 
Q 5797 2488 5784 2364 
Q 5772 2241 5747 2113 
z
" transform="scale(0.015625)"/>
      </defs>
      <use xlink:href="#DejaVuSans-4d" transform="translate(0 0.51875)"/>
      <use xlink:href="#DejaVuSans-4c" transform="translate(86.279297 0.51875)"/>
      <use xlink:href="#DejaVuSans-50" transform="translate(141.992188 0.51875)"/>
      <use xlink:href="#DejaVuSans-32" transform="translate(202.294922 0.51875)"/>
      <use xlink:href="#DejaVuSans-35" transform="translate(265.917969 0.51875)"/>
      <use xlink:href="#DejaVuSans-36" transform="translate(329.541016 0.51875)"/>
      <use xlink:href="#DejaVuSans-Oblique-6d" transform="translate(394.121094 38.8)scale(0.7)"/>
     </g>
    </g>
    <g id="line2d_24">
     <path d="M 527.9085 16.6 
L 547.9085 16.6 
L 567.9085 16.6 
" style="fill: none; stroke: #3c40c6; stroke-opacity: 0.99; stroke-width: 2.4; stroke-linecap: square"/>
    </g>
    <g id="text_14">
     <!-- TinyLidarNet$^m$ -->
     <g transform="translate(583.9085 23.6)scale(0.2 -0.2)">
      <defs>
       <path id="DejaVuSans-69" d="M 603 3500 
L 1178 3500 
L 1178 0 
L 603 0 
L 603 3500 
z
M 603 4863 
L 1178 4863 
L 1178 4134 
L 603 4134 
L 603 4863 
z
" transform="scale(0.015625)"/>
       <path id="DejaVuSans-6e" d="M 3513 2113 
L 3513 0 
L 2938 0 
L 2938 2094 
Q 2938 2591 2744 2837 
Q 2550 3084 2163 3084 
Q 1697 3084 1428 2787 
Q 1159 2491 1159 1978 
L 1159 0 
L 581 0 
L 581 3500 
L 1159 3500 
L 1159 2956 
Q 1366 3272 1645 3428 
Q 1925 3584 2291 3584 
Q 2894 3584 3203 3211 
Q 3513 2838 3513 2113 
z
" transform="scale(0.015625)"/>
       <path id="DejaVuSans-79" d="M 2059 -325 
Q 1816 -950 1584 -1140 
Q 1353 -1331 966 -1331 
L 506 -1331 
L 506 -850 
L 844 -850 
Q 1081 -850 1212 -737 
Q 1344 -625 1503 -206 
L 1606 56 
L 191 3500 
L 800 3500 
L 1894 763 
L 2988 3500 
L 3597 3500 
L 2059 -325 
z
" transform="scale(0.015625)"/>
       <path id="DejaVuSans-4e" d="M 628 4666 
L 1478 4666 
L 3547 763 
L 3547 4666 
L 4159 4666 
L 4159 0 
L 3309 0 
L 1241 3903 
L 1241 0 
L 628 0 
L 628 4666 
z
" transform="scale(0.015625)"/>
       <path id="DejaVuSans-74" d="M 1172 4494 
L 1172 3500 
L 2356 3500 
L 2356 3053 
L 1172 3053 
L 1172 1153 
Q 1172 725 1289 603 
Q 1406 481 1766 481 
L 2356 481 
L 2356 0 
L 1766 0 
Q 1100 0 847 248 
Q 594 497 594 1153 
L 594 3053 
L 172 3053 
L 172 3500 
L 594 3500 
L 594 4494 
L 1172 4494 
z
" transform="scale(0.015625)"/>
      </defs>
      <use xlink:href="#DejaVuSans-54" transform="translate(0 0.51875)"/>
      <use xlink:href="#DejaVuSans-69" transform="translate(61.083984 0.51875)"/>
      <use xlink:href="#DejaVuSans-6e" transform="translate(88.867188 0.51875)"/>
      <use xlink:href="#DejaVuSans-79" transform="translate(152.246094 0.51875)"/>
      <use xlink:href="#DejaVuSans-4c" transform="translate(211.425781 0.51875)"/>
      <use xlink:href="#DejaVuSans-69" transform="translate(267.138672 0.51875)"/>
      <use xlink:href="#DejaVuSans-64" transform="translate(294.921875 0.51875)"/>
      <use xlink:href="#DejaVuSans-61" transform="translate(358.398438 0.51875)"/>
      <use xlink:href="#DejaVuSans-72" transform="translate(419.677734 0.51875)"/>
      <use xlink:href="#DejaVuSans-4e" transform="translate(460.791016 0.51875)"/>
      <use xlink:href="#DejaVuSans-65" transform="translate(535.595703 0.51875)"/>
      <use xlink:href="#DejaVuSans-74" transform="translate(597.119141 0.51875)"/>
      <use xlink:href="#DejaVuSans-Oblique-6d" transform="translate(637.285156 38.8)scale(0.7)"/>
     </g>
    </g>
   </g>
  </g>
 </g>
 <defs>
  <clipPath id="pfd239c2c64">
   <rect x="46.9525" y="72.25112" width="1010.95" height="362.3408"/>
  </clipPath>
 </defs>
</svg>
