<?xml version="1.0" encoding="utf-8" standalone="no"?>
<!DOCTYPE svg PUBLIC "-//W3C//DTD SVG 1.1//EN"
  "http://www.w3.org/Graphics/SVG/1.1/DTD/svg11.dtd">
<svg xmlns:xlink="http://www.w3.org/1999/xlink" width="1057.9025pt" height="488.17567pt" viewBox="0 0 1057.9025 488.17567" xmlns="http://www.w3.org/2000/svg" version="1.1">
 <metadata>
  <rdf:RDF xmlns:dc="http://purl.org/dc/elements/1.1/" xmlns:cc="http://creativecommons.org/ns#" xmlns:rdf="http://www.w3.org/1999/02/22-rdf-syntax-ns#">
   <cc:Work>
    <dc:type rdf:resource="http://purl.org/dc/dcmitype/StillImage"/>
    <dc:date>2024-08-26T19:44:48.514091</dc:date>
    <dc:format>image/svg+xml</dc:format>
    <dc:creator>
     <cc:Agent>
      <dc:title>Matplotlib v3.8.4, https://matplotlib.org/</dc:title>
     </cc:Agent>
    </dc:creator>
   </cc:Work>
  </rdf:RDF>
 </metadata>
 <defs>
  <style type="text/css">*{stroke-linejoin: round; stroke-linecap: butt}</style>
 </defs>
 <g id="figure_1">
  <g id="patch_1">
   <path d="M 0 488.17567 
L 1057.9025 488.17567 
L 1057.9025 0 
L 0 0 
z
" style="fill: #ffffff"/>
  </g>
  <g id="axes_1">
   <g id="patch_2">
    <path d="M 46.9525 434.59192 
L 1057.9025 434.59192 
L 1057.9025 72.25112 
L 46.9525 72.25112 
z
" style="fill: #ffffff"/>
   </g>
   <g id="matplotlib.axis_1">
    <g id="xtick_1">
     <g id="line2d_1">
      <path d="M 92.904773 434.59192 
L 92.904773 72.25112 
" clip-path="url(#p7045eb7786)" style="fill: none; stroke: #b0b0b0; stroke-width: 0.8; stroke-linecap: square"/>
     </g>
     <g id="line2d_2">
      <defs>
       <path id="m5d066911b2" d="M 0 0 
L 0 3.5 
" style="stroke: #000000; stroke-width: 0.8"/>
      </defs>
      <g>
       <use xlink:href="#m5d066911b2" x="92.904773" y="434.59192" style="stroke: #000000; stroke-width: 0.8"/>
      </g>
     </g>
     <g id="text_1">
      <!-- 0 -->
      <g transform="translate(86.542273 456.788795) scale(0.2 -0.2)">
       <defs>
        <path id="DejaVuSans-30" d="M 2034 4250 
Q 1547 4250 1301 3770 
Q 1056 3291 1056 2328 
Q 1056 1369 1301 889 
Q 1547 409 2034 409 
Q 2525 409 2770 889 
Q 3016 1369 3016 2328 
Q 3016 3291 2770 3770 
Q 2525 4250 2034 4250 
z
M 2034 4750 
Q 2819 4750 3233 4129 
Q 3647 3509 3647 2328 
Q 3647 1150 3233 529 
Q 2819 -91 2034 -91 
Q 1250 -91 836 529 
Q 422 1150 422 2328 
Q 422 3509 836 4129 
Q 1250 4750 2034 4750 
z
" transform="scale(0.015625)"/>
       </defs>
       <use xlink:href="#DejaVuSans-30"/>
      </g>
     </g>
    </g>
    <g id="xtick_2">
     <g id="line2d_3">
      <path d="M 277.670725 434.59192 
L 277.670725 72.25112 
" clip-path="url(#p7045eb7786)" style="fill: none; stroke: #b0b0b0; stroke-width: 0.8; stroke-linecap: square"/>
     </g>
     <g id="line2d_4">
      <g>
       <use xlink:href="#m5d066911b2" x="277.670725" y="434.59192" style="stroke: #000000; stroke-width: 0.8"/>
      </g>
     </g>
     <g id="text_2">
      <!-- 20 -->
      <g transform="translate(264.945725 456.788795) scale(0.2 -0.2)">
       <defs>
        <path id="DejaVuSans-32" d="M 1228 531 
L 3431 531 
L 3431 0 
L 469 0 
L 469 531 
Q 828 903 1448 1529 
Q 2069 2156 2228 2338 
Q 2531 2678 2651 2914 
Q 2772 3150 2772 3378 
Q 2772 3750 2511 3984 
Q 2250 4219 1831 4219 
Q 1534 4219 1204 4116 
Q 875 4013 500 3803 
L 500 4441 
Q 881 4594 1212 4672 
Q 1544 4750 1819 4750 
Q 2544 4750 2975 4387 
Q 3406 4025 3406 3419 
Q 3406 3131 3298 2873 
Q 3191 2616 2906 2266 
Q 2828 2175 2409 1742 
Q 1991 1309 1228 531 
z
" transform="scale(0.015625)"/>
       </defs>
       <use xlink:href="#DejaVuSans-32"/>
       <use xlink:href="#DejaVuSans-30" x="63.623047"/>
      </g>
     </g>
    </g>
    <g id="xtick_3">
     <g id="line2d_5">
      <path d="M 462.436677 434.59192 
L 462.436677 72.25112 
" clip-path="url(#p7045eb7786)" style="fill: none; stroke: #b0b0b0; stroke-width: 0.8; stroke-linecap: square"/>
     </g>
     <g id="line2d_6">
      <g>
       <use xlink:href="#m5d066911b2" x="462.436677" y="434.59192" style="stroke: #000000; stroke-width: 0.8"/>
      </g>
     </g>
     <g id="text_3">
      <!-- 40 -->
      <g transform="translate(449.711677 456.788795) scale(0.2 -0.2)">
       <defs>
        <path id="DejaVuSans-34" d="M 2419 4116 
L 825 1625 
L 2419 1625 
L 2419 4116 
z
M 2253 4666 
L 3047 4666 
L 3047 1625 
L 3713 1625 
L 3713 1100 
L 3047 1100 
L 3047 0 
L 2419 0 
L 2419 1100 
L 313 1100 
L 313 1709 
L 2253 4666 
z
" transform="scale(0.015625)"/>
       </defs>
       <use xlink:href="#DejaVuSans-34"/>
       <use xlink:href="#DejaVuSans-30" x="63.623047"/>
      </g>
     </g>
    </g>
    <g id="xtick_4">
     <g id="line2d_7">
      <path d="M 647.202629 434.59192 
L 647.202629 72.25112 
" clip-path="url(#p7045eb7786)" style="fill: none; stroke: #b0b0b0; stroke-width: 0.8; stroke-linecap: square"/>
     </g>
     <g id="line2d_8">
      <g>
       <use xlink:href="#m5d066911b2" x="647.202629" y="434.59192" style="stroke: #000000; stroke-width: 0.8"/>
      </g>
     </g>
     <g id="text_4">
      <!-- 60 -->
      <g transform="translate(634.477629 456.788795) scale(0.2 -0.2)">
       <defs>
        <path id="DejaVuSans-36" d="M 2113 2584 
Q 1688 2584 1439 2293 
Q 1191 2003 1191 1497 
Q 1191 994 1439 701 
Q 1688 409 2113 409 
Q 2538 409 2786 701 
Q 3034 994 3034 1497 
Q 3034 2003 2786 2293 
Q 2538 2584 2113 2584 
z
M 3366 4563 
L 3366 3988 
Q 3128 4100 2886 4159 
Q 2644 4219 2406 4219 
Q 1781 4219 1451 3797 
Q 1122 3375 1075 2522 
Q 1259 2794 1537 2939 
Q 1816 3084 2150 3084 
Q 2853 3084 3261 2657 
Q 3669 2231 3669 1497 
Q 3669 778 3244 343 
Q 2819 -91 2113 -91 
Q 1303 -91 875 529 
Q 447 1150 447 2328 
Q 447 3434 972 4092 
Q 1497 4750 2381 4750 
Q 2619 4750 2861 4703 
Q 3103 4656 3366 4563 
z
" transform="scale(0.015625)"/>
       </defs>
       <use xlink:href="#DejaVuSans-36"/>
       <use xlink:href="#DejaVuSans-30" x="63.623047"/>
      </g>
     </g>
    </g>
    <g id="xtick_5">
     <g id="line2d_9">
      <path d="M 831.968581 434.59192 
L 831.968581 72.25112 
" clip-path="url(#p7045eb7786)" style="fill: none; stroke: #b0b0b0; stroke-width: 0.8; stroke-linecap: square"/>
     </g>
     <g id="line2d_10">
      <g>
       <use xlink:href="#m5d066911b2" x="831.968581" y="434.59192" style="stroke: #000000; stroke-width: 0.8"/>
      </g>
     </g>
     <g id="text_5">
      <!-- 80 -->
      <g transform="translate(819.243581 456.788795) scale(0.2 -0.2)">
       <defs>
        <path id="DejaVuSans-38" d="M 2034 2216 
Q 1584 2216 1326 1975 
Q 1069 1734 1069 1313 
Q 1069 891 1326 650 
Q 1584 409 2034 409 
Q 2484 409 2743 651 
Q 3003 894 3003 1313 
Q 3003 1734 2745 1975 
Q 2488 2216 2034 2216 
z
M 1403 2484 
Q 997 2584 770 2862 
Q 544 3141 544 3541 
Q 544 4100 942 4425 
Q 1341 4750 2034 4750 
Q 2731 4750 3128 4425 
Q 3525 4100 3525 3541 
Q 3525 3141 3298 2862 
Q 3072 2584 2669 2484 
Q 3125 2378 3379 2068 
Q 3634 1759 3634 1313 
Q 3634 634 3220 271 
Q 2806 -91 2034 -91 
Q 1263 -91 848 271 
Q 434 634 434 1313 
Q 434 1759 690 2068 
Q 947 2378 1403 2484 
z
M 1172 3481 
Q 1172 3119 1398 2916 
Q 1625 2713 2034 2713 
Q 2441 2713 2670 2916 
Q 2900 3119 2900 3481 
Q 2900 3844 2670 4047 
Q 2441 4250 2034 4250 
Q 1625 4250 1398 4047 
Q 1172 3844 1172 3481 
z
" transform="scale(0.015625)"/>
       </defs>
       <use xlink:href="#DejaVuSans-38"/>
       <use xlink:href="#DejaVuSans-30" x="63.623047"/>
      </g>
     </g>
    </g>
    <g id="xtick_6">
     <g id="line2d_11">
      <path d="M 1016.734532 434.59192 
L 1016.734532 72.25112 
" clip-path="url(#p7045eb7786)" style="fill: none; stroke: #b0b0b0; stroke-width: 0.8; stroke-linecap: square"/>
     </g>
     <g id="line2d_12">
      <g>
       <use xlink:href="#m5d066911b2" x="1016.734532" y="434.59192" style="stroke: #000000; stroke-width: 0.8"/>
      </g>
     </g>
     <g id="text_6">
      <!-- 100 -->
      <g transform="translate(997.647032 456.788795) scale(0.2 -0.2)">
       <defs>
        <path id="DejaVuSans-31" d="M 794 531 
L 1825 531 
L 1825 4091 
L 703 3866 
L 703 4441 
L 1819 4666 
L 2450 4666 
L 2450 531 
L 3481 531 
L 3481 0 
L 794 0 
L 794 531 
z
" transform="scale(0.015625)"/>
       </defs>
       <use xlink:href="#DejaVuSans-31"/>
       <use xlink:href="#DejaVuSans-30" x="63.623047"/>
       <use xlink:href="#DejaVuSans-30" x="127.246094"/>
      </g>
     </g>
    </g>
    <g id="text_7">
     <!-- Track progress [%] -->
     <g transform="translate(440.85 483.18442) scale(0.24 -0.24)">
      <defs>
       <path id="DejaVuSans-54" d="M -19 4666 
L 3928 4666 
L 3928 4134 
L 2272 4134 
L 2272 0 
L 1638 0 
L 1638 4134 
L -19 4134 
L -19 4666 
z
" transform="scale(0.015625)"/>
       <path id="DejaVuSans-72" d="M 2631 2963 
Q 2534 3019 2420 3045 
Q 2306 3072 2169 3072 
Q 1681 3072 1420 2755 
Q 1159 2438 1159 1844 
L 1159 0 
L 581 0 
L 581 3500 
L 1159 3500 
L 1159 2956 
Q 1341 3275 1631 3429 
Q 1922 3584 2338 3584 
Q 2397 3584 2469 3576 
Q 2541 3569 2628 3553 
L 2631 2963 
z
" transform="scale(0.015625)"/>
       <path id="DejaVuSans-61" d="M 2194 1759 
Q 1497 1759 1228 1600 
Q 959 1441 959 1056 
Q 959 750 1161 570 
Q 1363 391 1709 391 
Q 2188 391 2477 730 
Q 2766 1069 2766 1631 
L 2766 1759 
L 2194 1759 
z
M 3341 1997 
L 3341 0 
L 2766 0 
L 2766 531 
Q 2569 213 2275 61 
Q 1981 -91 1556 -91 
Q 1019 -91 701 211 
Q 384 513 384 1019 
Q 384 1609 779 1909 
Q 1175 2209 1959 2209 
L 2766 2209 
L 2766 2266 
Q 2766 2663 2505 2880 
Q 2244 3097 1772 3097 
Q 1472 3097 1187 3025 
Q 903 2953 641 2809 
L 641 3341 
Q 956 3463 1253 3523 
Q 1550 3584 1831 3584 
Q 2591 3584 2966 3190 
Q 3341 2797 3341 1997 
z
" transform="scale(0.015625)"/>
       <path id="DejaVuSans-63" d="M 3122 3366 
L 3122 2828 
Q 2878 2963 2633 3030 
Q 2388 3097 2138 3097 
Q 1578 3097 1268 2742 
Q 959 2388 959 1747 
Q 959 1106 1268 751 
Q 1578 397 2138 397 
Q 2388 397 2633 464 
Q 2878 531 3122 666 
L 3122 134 
Q 2881 22 2623 -34 
Q 2366 -91 2075 -91 
Q 1284 -91 818 406 
Q 353 903 353 1747 
Q 353 2603 823 3093 
Q 1294 3584 2113 3584 
Q 2378 3584 2631 3529 
Q 2884 3475 3122 3366 
z
" transform="scale(0.015625)"/>
       <path id="DejaVuSans-6b" d="M 581 4863 
L 1159 4863 
L 1159 1991 
L 2875 3500 
L 3609 3500 
L 1753 1863 
L 3688 0 
L 2938 0 
L 1159 1709 
L 1159 0 
L 581 0 
L 581 4863 
z
" transform="scale(0.015625)"/>
       <path id="DejaVuSans-20" transform="scale(0.015625)"/>
       <path id="DejaVuSans-70" d="M 1159 525 
L 1159 -1331 
L 581 -1331 
L 581 3500 
L 1159 3500 
L 1159 2969 
Q 1341 3281 1617 3432 
Q 1894 3584 2278 3584 
Q 2916 3584 3314 3078 
Q 3713 2572 3713 1747 
Q 3713 922 3314 415 
Q 2916 -91 2278 -91 
Q 1894 -91 1617 61 
Q 1341 213 1159 525 
z
M 3116 1747 
Q 3116 2381 2855 2742 
Q 2594 3103 2138 3103 
Q 1681 3103 1420 2742 
Q 1159 2381 1159 1747 
Q 1159 1113 1420 752 
Q 1681 391 2138 391 
Q 2594 391 2855 752 
Q 3116 1113 3116 1747 
z
" transform="scale(0.015625)"/>
       <path id="DejaVuSans-6f" d="M 1959 3097 
Q 1497 3097 1228 2736 
Q 959 2375 959 1747 
Q 959 1119 1226 758 
Q 1494 397 1959 397 
Q 2419 397 2687 759 
Q 2956 1122 2956 1747 
Q 2956 2369 2687 2733 
Q 2419 3097 1959 3097 
z
M 1959 3584 
Q 2709 3584 3137 3096 
Q 3566 2609 3566 1747 
Q 3566 888 3137 398 
Q 2709 -91 1959 -91 
Q 1206 -91 779 398 
Q 353 888 353 1747 
Q 353 2609 779 3096 
Q 1206 3584 1959 3584 
z
" transform="scale(0.015625)"/>
       <path id="DejaVuSans-67" d="M 2906 1791 
Q 2906 2416 2648 2759 
Q 2391 3103 1925 3103 
Q 1463 3103 1205 2759 
Q 947 2416 947 1791 
Q 947 1169 1205 825 
Q 1463 481 1925 481 
Q 2391 481 2648 825 
Q 2906 1169 2906 1791 
z
M 3481 434 
Q 3481 -459 3084 -895 
Q 2688 -1331 1869 -1331 
Q 1566 -1331 1297 -1286 
Q 1028 -1241 775 -1147 
L 775 -588 
Q 1028 -725 1275 -790 
Q 1522 -856 1778 -856 
Q 2344 -856 2625 -561 
Q 2906 -266 2906 331 
L 2906 616 
Q 2728 306 2450 153 
Q 2172 0 1784 0 
Q 1141 0 747 490 
Q 353 981 353 1791 
Q 353 2603 747 3093 
Q 1141 3584 1784 3584 
Q 2172 3584 2450 3431 
Q 2728 3278 2906 2969 
L 2906 3500 
L 3481 3500 
L 3481 434 
z
" transform="scale(0.015625)"/>
       <path id="DejaVuSans-65" d="M 3597 1894 
L 3597 1613 
L 953 1613 
Q 991 1019 1311 708 
Q 1631 397 2203 397 
Q 2534 397 2845 478 
Q 3156 559 3463 722 
L 3463 178 
Q 3153 47 2828 -22 
Q 2503 -91 2169 -91 
Q 1331 -91 842 396 
Q 353 884 353 1716 
Q 353 2575 817 3079 
Q 1281 3584 2069 3584 
Q 2775 3584 3186 3129 
Q 3597 2675 3597 1894 
z
M 3022 2063 
Q 3016 2534 2758 2815 
Q 2500 3097 2075 3097 
Q 1594 3097 1305 2825 
Q 1016 2553 972 2059 
L 3022 2063 
z
" transform="scale(0.015625)"/>
       <path id="DejaVuSans-73" d="M 2834 3397 
L 2834 2853 
Q 2591 2978 2328 3040 
Q 2066 3103 1784 3103 
Q 1356 3103 1142 2972 
Q 928 2841 928 2578 
Q 928 2378 1081 2264 
Q 1234 2150 1697 2047 
L 1894 2003 
Q 2506 1872 2764 1633 
Q 3022 1394 3022 966 
Q 3022 478 2636 193 
Q 2250 -91 1575 -91 
Q 1294 -91 989 -36 
Q 684 19 347 128 
L 347 722 
Q 666 556 975 473 
Q 1284 391 1588 391 
Q 1994 391 2212 530 
Q 2431 669 2431 922 
Q 2431 1156 2273 1281 
Q 2116 1406 1581 1522 
L 1381 1569 
Q 847 1681 609 1914 
Q 372 2147 372 2553 
Q 372 3047 722 3315 
Q 1072 3584 1716 3584 
Q 2034 3584 2315 3537 
Q 2597 3491 2834 3397 
z
" transform="scale(0.015625)"/>
       <path id="DejaVuSans-5b" d="M 550 4863 
L 1875 4863 
L 1875 4416 
L 1125 4416 
L 1125 -397 
L 1875 -397 
L 1875 -844 
L 550 -844 
L 550 4863 
z
" transform="scale(0.015625)"/>
       <path id="DejaVuSans-25" d="M 4653 2053 
Q 4381 2053 4226 1822 
Q 4072 1591 4072 1178 
Q 4072 772 4226 539 
Q 4381 306 4653 306 
Q 4919 306 5073 539 
Q 5228 772 5228 1178 
Q 5228 1588 5073 1820 
Q 4919 2053 4653 2053 
z
M 4653 2450 
Q 5147 2450 5437 2106 
Q 5728 1763 5728 1178 
Q 5728 594 5436 251 
Q 5144 -91 4653 -91 
Q 4153 -91 3862 251 
Q 3572 594 3572 1178 
Q 3572 1766 3864 2108 
Q 4156 2450 4653 2450 
z
M 1428 4353 
Q 1159 4353 1004 4120 
Q 850 3888 850 3481 
Q 850 3069 1003 2837 
Q 1156 2606 1428 2606 
Q 1700 2606 1854 2837 
Q 2009 3069 2009 3481 
Q 2009 3884 1853 4118 
Q 1697 4353 1428 4353 
z
M 4250 4750 
L 4750 4750 
L 1831 -91 
L 1331 -91 
L 4250 4750 
z
M 1428 4750 
Q 1922 4750 2215 4408 
Q 2509 4066 2509 3481 
Q 2509 2891 2217 2550 
Q 1925 2209 1428 2209 
Q 931 2209 642 2551 
Q 353 2894 353 3481 
Q 353 4063 643 4406 
Q 934 4750 1428 4750 
z
" transform="scale(0.015625)"/>
       <path id="DejaVuSans-5d" d="M 1947 4863 
L 1947 -844 
L 622 -844 
L 622 -397 
L 1369 -397 
L 1369 4416 
L 622 4416 
L 622 4863 
L 1947 4863 
z
" transform="scale(0.015625)"/>
      </defs>
      <use xlink:href="#DejaVuSans-54"/>
      <use xlink:href="#DejaVuSans-72" x="46.333984"/>
      <use xlink:href="#DejaVuSans-61" x="87.447266"/>
      <use xlink:href="#DejaVuSans-63" x="148.726562"/>
      <use xlink:href="#DejaVuSans-6b" x="203.707031"/>
      <use xlink:href="#DejaVuSans-20" x="261.617188"/>
      <use xlink:href="#DejaVuSans-70" x="293.404297"/>
      <use xlink:href="#DejaVuSans-72" x="356.880859"/>
      <use xlink:href="#DejaVuSans-6f" x="395.744141"/>
      <use xlink:href="#DejaVuSans-67" x="456.925781"/>
      <use xlink:href="#DejaVuSans-72" x="520.402344"/>
      <use xlink:href="#DejaVuSans-65" x="559.265625"/>
      <use xlink:href="#DejaVuSans-73" x="620.789062"/>
      <use xlink:href="#DejaVuSans-73" x="672.888672"/>
      <use xlink:href="#DejaVuSans-20" x="724.988281"/>
      <use xlink:href="#DejaVuSans-5b" x="756.775391"/>
      <use xlink:href="#DejaVuSans-25" x="795.789062"/>
      <use xlink:href="#DejaVuSans-5d" x="890.808594"/>
     </g>
    </g>
   </g>
   <g id="matplotlib.axis_2">
    <g id="ytick_1">
     <g id="line2d_13">
      <path d="M 46.9525 386.279813 
L 1057.9025 386.279813 
" clip-path="url(#p7045eb7786)" style="fill: none; stroke: #b0b0b0; stroke-width: 0.8; stroke-linecap: square"/>
     </g>
     <g id="line2d_14">
      <defs>
       <path id="m3a4a398b9e" d="M 0 0 
L -3.5 0 
" style="stroke: #000000; stroke-width: 0.8"/>
      </defs>
      <g>
       <use xlink:href="#m3a4a398b9e" x="46.9525" y="386.279813" style="stroke: #000000; stroke-width: 0.8"/>
      </g>
     </g>
     <g id="text_8">
      <!-- 2 -->
      <g transform="translate(27.2275 393.878251) scale(0.2 -0.2)">
       <use xlink:href="#DejaVuSans-32"/>
      </g>
     </g>
    </g>
    <g id="ytick_2">
     <g id="line2d_15">
      <path d="M 46.9525 289.6556 
L 1057.9025 289.6556 
" clip-path="url(#p7045eb7786)" style="fill: none; stroke: #b0b0b0; stroke-width: 0.8; stroke-linecap: square"/>
     </g>
     <g id="line2d_16">
      <g>
       <use xlink:href="#m3a4a398b9e" x="46.9525" y="289.6556" style="stroke: #000000; stroke-width: 0.8"/>
      </g>
     </g>
     <g id="text_9">
      <!-- 4 -->
      <g transform="translate(27.2275 297.254037) scale(0.2 -0.2)">
       <use xlink:href="#DejaVuSans-34"/>
      </g>
     </g>
    </g>
    <g id="ytick_3">
     <g id="line2d_17">
      <path d="M 46.9525 193.031387 
L 1057.9025 193.031387 
" clip-path="url(#p7045eb7786)" style="fill: none; stroke: #b0b0b0; stroke-width: 0.8; stroke-linecap: square"/>
     </g>
     <g id="line2d_18">
      <g>
       <use xlink:href="#m3a4a398b9e" x="46.9525" y="193.031387" style="stroke: #000000; stroke-width: 0.8"/>
      </g>
     </g>
     <g id="text_10">
      <!-- 6 -->
      <g transform="translate(27.2275 200.629824) scale(0.2 -0.2)">
       <use xlink:href="#DejaVuSans-36"/>
      </g>
     </g>
    </g>
    <g id="ytick_4">
     <g id="line2d_19">
      <path d="M 46.9525 96.407173 
L 1057.9025 96.407173 
" clip-path="url(#p7045eb7786)" style="fill: none; stroke: #b0b0b0; stroke-width: 0.8; stroke-linecap: square"/>
     </g>
     <g id="line2d_20">
      <g>
       <use xlink:href="#m3a4a398b9e" x="46.9525" y="96.407173" style="stroke: #000000; stroke-width: 0.8"/>
      </g>
     </g>
     <g id="text_11">
      <!-- 8 -->
      <g transform="translate(27.2275 104.005611) scale(0.2 -0.2)">
       <use xlink:href="#DejaVuSans-38"/>
      </g>
     </g>
    </g>
    <g id="text_12">
     <!-- Speed [m/s] -->
     <g transform="translate(18.23625 326.203395) rotate(-90) scale(0.24 -0.24)">
      <defs>
       <path id="DejaVuSans-53" d="M 3425 4513 
L 3425 3897 
Q 3066 4069 2747 4153 
Q 2428 4238 2131 4238 
Q 1616 4238 1336 4038 
Q 1056 3838 1056 3469 
Q 1056 3159 1242 3001 
Q 1428 2844 1947 2747 
L 2328 2669 
Q 3034 2534 3370 2195 
Q 3706 1856 3706 1288 
Q 3706 609 3251 259 
Q 2797 -91 1919 -91 
Q 1588 -91 1214 -16 
Q 841 59 441 206 
L 441 856 
Q 825 641 1194 531 
Q 1563 422 1919 422 
Q 2459 422 2753 634 
Q 3047 847 3047 1241 
Q 3047 1584 2836 1778 
Q 2625 1972 2144 2069 
L 1759 2144 
Q 1053 2284 737 2584 
Q 422 2884 422 3419 
Q 422 4038 858 4394 
Q 1294 4750 2059 4750 
Q 2388 4750 2728 4690 
Q 3069 4631 3425 4513 
z
" transform="scale(0.015625)"/>
       <path id="DejaVuSans-64" d="M 2906 2969 
L 2906 4863 
L 3481 4863 
L 3481 0 
L 2906 0 
L 2906 525 
Q 2725 213 2448 61 
Q 2172 -91 1784 -91 
Q 1150 -91 751 415 
Q 353 922 353 1747 
Q 353 2572 751 3078 
Q 1150 3584 1784 3584 
Q 2172 3584 2448 3432 
Q 2725 3281 2906 2969 
z
M 947 1747 
Q 947 1113 1208 752 
Q 1469 391 1925 391 
Q 2381 391 2643 752 
Q 2906 1113 2906 1747 
Q 2906 2381 2643 2742 
Q 2381 3103 1925 3103 
Q 1469 3103 1208 2742 
Q 947 2381 947 1747 
z
" transform="scale(0.015625)"/>
       <path id="DejaVuSans-6d" d="M 3328 2828 
Q 3544 3216 3844 3400 
Q 4144 3584 4550 3584 
Q 5097 3584 5394 3201 
Q 5691 2819 5691 2113 
L 5691 0 
L 5113 0 
L 5113 2094 
Q 5113 2597 4934 2840 
Q 4756 3084 4391 3084 
Q 3944 3084 3684 2787 
Q 3425 2491 3425 1978 
L 3425 0 
L 2847 0 
L 2847 2094 
Q 2847 2600 2669 2842 
Q 2491 3084 2119 3084 
Q 1678 3084 1418 2786 
Q 1159 2488 1159 1978 
L 1159 0 
L 581 0 
L 581 3500 
L 1159 3500 
L 1159 2956 
Q 1356 3278 1631 3431 
Q 1906 3584 2284 3584 
Q 2666 3584 2933 3390 
Q 3200 3197 3328 2828 
z
" transform="scale(0.015625)"/>
       <path id="DejaVuSans-2f" d="M 1625 4666 
L 2156 4666 
L 531 -594 
L 0 -594 
L 1625 4666 
z
" transform="scale(0.015625)"/>
      </defs>
      <use xlink:href="#DejaVuSans-53"/>
      <use xlink:href="#DejaVuSans-70" x="63.476562"/>
      <use xlink:href="#DejaVuSans-65" x="126.953125"/>
      <use xlink:href="#DejaVuSans-65" x="188.476562"/>
      <use xlink:href="#DejaVuSans-64" x="250"/>
      <use xlink:href="#DejaVuSans-20" x="313.476562"/>
      <use xlink:href="#DejaVuSans-5b" x="345.263672"/>
      <use xlink:href="#DejaVuSans-6d" x="384.277344"/>
      <use xlink:href="#DejaVuSans-2f" x="481.689453"/>
      <use xlink:href="#DejaVuSans-73" x="515.380859"/>
      <use xlink:href="#DejaVuSans-5d" x="567.480469"/>
     </g>
    </g>
   </g>
   <g id="line2d_21">
    <path d="M 92.904773 482.904027 
L 93.054138 472.653632 
L 93.054138 438.195022 
L 93.536779 426.708819 
L 93.536779 403.736412 
L 94.55569 370.587858 
L 95.038331 359.101654 
L 95.038331 347.615451 
L 95.360092 336.129247 
L 96.486256 324.643044 
L 96.486256 314.878361 
L 96.808017 303.409062 
L 97.987808 295.618215 
L 97.987808 286.834722 
L 98.309569 280.496527 
L 99.811121 275.885953 
L 99.811121 277.739926 
L 100.937285 274.39231 
L 100.937285 273.968565 
L 101.956195 280.436758 
L 102.38521 278.534684 
L 102.38521 285.289584 
L 103.725881 296.775787 
L 104.208523 308.26199 
L 104.905672 307.889711 
L 105.388313 305.400385 
L 106.192716 316.886588 
L 106.192716 316.034597 
L 107.31888 315.310904 
L 107.31888 320.866696 
L 107.31888 309.380493 
L 108.820432 297.922648 
L 109.142193 286.448411 
L 110.911879 276.049871 
L 111.394521 268.834675 
L 111.823536 257.533689 
L 114.719386 257.672898 
L 114.719386 263.961517 
L 116.220937 257.280369 
L 116.220937 247.523898 
L 117.722489 238.433021 
L 118.04425 230.888162 
L 118.04425 226.661731 
L 119.867563 224.73055 
L 120.832847 218.142254 
L 121.529996 211.056249 
L 123.031547 207.231536 
L 123.031547 215.898198 
L 123.67507 213.587409 
L 125.498383 210.529905 
L 125.498383 209.691072 
L 126.141905 207.204667 
L 127.643457 210.005866 
L 128.76962 221.492069 
L 129.949411 240.590642 
L 131.075575 233.387664 
L 131.879978 224.433204 
L 131.879978 219.065321 
L 133.006142 212.378436 
L 134.185932 211.92817 
L 134.185932 208.355859 
L 135.633857 202.205604 
L 136.920902 189.617001 
L 138.100693 187.38635 
L 139.226856 186.248545 
L 140.031259 185.042696 
L 140.835662 189.077024 
L 141.640065 189.115978 
L 142.444467 189.485076 
L 143.24887 195.771616 
L 144.535915 193.458735 
L 145.018556 190.541225 
L 145.822959 190.115143 
L 146.627362 184.91785 
L 147.807153 179.581471 
L 149.415958 175.912185 
L 150.703002 175.496348 
L 151.507405 175.869224 
L 152.311808 176.874458 
L 153.116211 176.418825 
L 153.920614 179.864273 
L 155.207658 182.287084 
L 156.012061 183.400122 
L 158.103508 183.157427 
L 158.58615 182.466688 
L 159.390552 182.192185 
L 160.194955 181.493513 
L 161.803761 181.261452 
L 162.286402 181.706674 
L 163.090805 181.055888 
L 163.895208 181.056305 
L 164.699611 180.375227 
L 165.986655 180.477954 
L 166.844685 179.913423 
L 167.649087 179.860382 
L 168.45349 179.265565 
L 169.257893 178.491722 
L 170.544937 178.718539 
L 171.34934 179.29753 
L 172.636384 181.131763 
L 173.119026 190.824696 
L 173.923429 192.912212 
L 174.727832 195.575141 
L 175.532234 196.37366 
L 176.336637 205.675678 
L 177.14104 209.968648 
L 178.106323 219.591073 
L 178.749845 231.077276 
L 179.071607 242.56348 
L 180.573158 258.008852 
L 181.699322 269.495055 
L 181.699322 257.730159 
L 183.522635 248.135507 
L 183.522635 238.934369 
L 185.131441 236.69162 
L 185.506829 235.005801 
L 187.276515 233.585034 
L 187.276515 219.230988 
L 189.099828 210.317936 
L 195.749557 199.527388 
L 195.749557 221.527884 
L 198.001885 219.010635 
L 198.001885 229.057763 
L 200.146959 240.543967 
L 200.146959 250.674042 
L 200.146959 249.217561 
L 202.667421 260.703765 
L 202.989182 272.189968 
L 202.989182 306.648578 
L 204.490734 318.134782 
L 204.490734 329.620985 
L 204.490734 318.679834 
L 206.957569 316.946199 
L 207.601091 293.979622 
L 207.601091 271.946663 
L 210.121553 268.325015 
L 210.443314 261.846175 
L 210.443314 259.55382 
L 212.588388 258.346291 
L 212.588388 246.26757 
L 213.714552 250.90504 
L 215.537865 249.412145 
L 215.537865 251.727946 
L 215.537865 243.31449 
L 216.717656 236.299925 
L 216.717656 232.718193 
L 217.522059 227.010506 
L 218.326461 229.061866 
L 219.130864 227.922474 
L 219.452625 238.119321 
L 220.257028 235.794792 
L 221.061431 235.787449 
L 221.865834 229.541442 
L 222.670236 220.329485 
L 223.957281 220.237227 
L 224.922564 217.986828 
L 225.244325 215.153179 
L 225.726967 225.710842 
L 226.209608 224.227294 
L 227.174892 223.415537 
L 227.603907 221.052751 
L 228.56919 227.395769 
L 229.051832 224.582114 
L 230.017115 221.518029 
L 230.499757 227.873372 
L 231.411413 229.597014 
L 231.894055 225.284334 
L 232.859338 224.893278 
L 233.34198 218.025901 
L 233.34198 211.968531 
L 234.575397 205.396319 
L 235.058039 205.453356 
L 235.862442 216.939559 
L 236.720471 216.150456 
L 237.524874 220.597094 
L 238.329277 221.075109 
L 238.811918 232.561313 
L 239.616321 243.354709 
L 240.259843 254.840912 
L 240.742485 266.327116 
L 241.386007 271.459162 
L 242.244037 282.945365 
L 242.887559 305.917772 
L 243.691962 306.582456 
L 244.013723 318.06866 
L 244.389111 317.087927 
L 244.389111 305.601724 
L 244.710872 294.158558 
L 245.837036 297.485915 
L 246.534185 308.972118 
L 246.855946 320.458321 
L 246.855946 317.881402 
L 246.855946 300.716577 
L 248.679259 289.429852 
L 249.322781 300.916055 
L 250.01993 278.361227 
L 250.01993 255.38882 
L 252.486765 245.587441 
L 253.827437 229.223176 
L 254.524586 221.840075 
L 255.168108 212.72306 
L 257.313182 203.278465 
L 257.313182 194.58445 
L 257.634943 187.088609 
L 258.332092 181.069924 
L 259.351002 177.126407 
L 259.994525 175.094468 
L 262.139599 173.222442 
L 262.139599 170.20447 
L 264.660061 166.344155 
L 264.660061 157.706322 
L 266.805135 154.005052 
L 266.805135 150.824051 
L 267.770418 148.161389 
L 269.593731 146.528965 
L 269.593731 145.441653 
L 272.114193 145.212807 
L 272.114193 146.308926 
L 273.937506 145.901975 
L 275.385431 144.784661 
L 277.208744 143.693461 
L 277.208744 142.614389 
L 278.710295 141.779709 
L 280.104594 140.860187 
L 280.104594 140.034757 
L 281.552519 139.560346 
L 281.552519 139.023369 
L 283.322205 138.830053 
L 284.823756 138.78483 
L 284.823756 138.857431 
L 286.003547 140.689078 
L 287.82686 141.48868 
L 287.82686 141.873474 
L 289.274785 141.449142 
L 290.776337 140.805295 
L 290.776337 140.640928 
L 293.725814 140.184521 
L 294.851978 140.994562 
L 294.851978 143.378542 
L 297.855081 150.389539 
L 298.498603 153.685505 
L 298.981245 153.533761 
L 300.107409 153.395017 
L 301.608961 153.030757 
L 302.252483 152.542562 
L 303.432274 151.856365 
L 303.914915 151.199344 
L 306.167243 149.112679 
L 307.347034 148.893373 
L 308.312317 148.836756 
L 308.794959 149.61963 
L 311.100913 149.523554 
L 312.227077 150.352098 
L 313.353241 152.029833 
L 314.533032 154.153127 
L 315.176554 156.821528 
L 315.980957 156.016978 
L 316.78536 155.533036 
L 318.286911 155.282624 
L 318.98406 157.62508 
L 320.110224 158.641745 
L 320.914627 158.233424 
L 321.71903 161.537863 
L 322.845194 172.765263 
L 324.024984 183.183059 
L 324.668507 190.938406 
L 325.472909 197.967174 
L 326.277312 199.341383 
L 328.100625 207.506168 
L 328.583267 207.508097 
L 329.709431 208.381722 
L 330.728341 207.073285 
L 331.210982 206.951412 
L 332.337146 210.551723 
L 333.034295 210.482966 
L 333.516937 215.563683 
L 334.643101 215.158362 
L 335.769265 214.545991 
L 336.466414 220.79451 
L 336.949056 222.41482 
L 338.075219 228.224815 
L 338.772368 224.909885 
L 339.201383 224.252354 
L 340.381174 232.3939 
L 341.507338 250.427516 
L 342.633502 249.329375 
L 342.633502 247.851625 
L 343.813292 245.297121 
L 344.456815 239.779072 
L 344.939456 251.265275 
L 346.06562 262.751478 
L 346.06562 271.412388 
L 347.245411 265.515787 
L 347.245411 258.324347 
L 348.371575 256.290425 
L 349.175978 250.367583 
L 349.98038 246.267901 
L 349.98038 257.754104 
L 351.160171 269.240308 
L 351.589186 280.726511 
L 353.73426 287.817173 
L 355.450319 276.330969 
L 356.254722 268.978377 
L 356.737363 261.164501 
L 357.917154 251.594588 
L 359.68684 242.921109 
L 359.68684 234.363634 
L 361.510153 225.656881 
L 361.831914 217.594681 
L 361.831914 214.662997 
L 364.030615 226.149201 
L 364.030615 233.567568 
L 364.030615 232.015807 
L 367.301853 242.485211 
L 367.301853 233.19226 
L 367.623614 225.216188 
L 368.320763 223.704459 
L 370.787598 235.190662 
L 370.787598 227.140815 
L 371.10936 215.808323 
L 373.629821 206.143848 
L 373.629821 200.038081 
L 375.077746 196.395601 
L 375.077746 194.26516 
L 376.901059 191.383081 
L 376.901059 190.792931 
L 378.402611 188.171309 
L 380.333178 178.101792 
L 381.459342 175.436044 
L 382.639132 174.09718 
L 382.639132 172.612569 
L 384.569699 168.033219 
L 384.569699 164.044645 
L 385.74949 164.505921 
L 387.197415 166.519394 
L 387.680056 168.295707 
L 389.181608 179.78191 
L 389.986011 188.649606 
L 391.273055 187.228498 
L 392.077458 184.788066 
L 392.881861 178.721463 
L 393.686264 177.317779 
L 394.812428 178.615734 
L 395.61683 177.450745 
L 396.421233 175.956053 
L 397.225636 174.812151 
L 398.405427 173.730325 
L 399.209829 175.161504 
L 400.496874 175.026914 
L 400.979515 170.402916 
L 402.105679 169.352171 
L 402.910082 176.331306 
L 404.197126 178.898185 
L 404.679768 180.373126 
L 405.484171 188.912467 
L 407.092976 191.982259 
L 407.575618 191.609069 
L 408.380021 190.758883 
L 409.184424 183.826178 
L 410.793229 178.857901 
L 412.080274 177.531014 
L 413.367318 175.406758 
L 413.84996 172.843085 
L 415.137004 170.24221 
L 415.619646 167.872564 
L 416.90669 162.891193 
L 417.389332 158.712934 
L 419.588033 157.210662 
L 419.588033 158.972101 
L 421.357719 169.535486 
L 422.323002 171.311211 
L 423.234659 171.038725 
L 424.199942 167.666445 
L 424.199942 163.392677 
L 424.682584 160.712252 
L 426.881284 159.023448 
L 427.846568 157.468132 
L 428.329209 156.298256 
L 429.294493 155.005608 
L 434.013656 143.624509 
L 434.978939 141.926815 
L 436.694998 142.742345 
L 437.17764 152.080907 
L 437.660281 158.915966 
L 438.625565 168.427235 
L 439.537221 174.257972 
L 440.502505 170.574444 
L 442.272191 166.279593 
L 442.272191 162.962917 
L 443.237474 159.161987 
L 444.14913 157.652574 
L 446.401458 156.55027 
L 446.8841 157.093164 
L 447.795756 156.832715 
L 449.565442 155.394995 
L 449.565442 154.050009 
L 450.530726 151.524241 
L 452.300412 150.839496 
L 452.729427 152.506921 
L 453.69471 155.59253 
L 454.981754 158.2776 
L 455.464396 160.30472 
L 456.429679 157.671955 
L 457.663097 156.376705 
L 458.145738 162.530813 
L 459.593663 163.511349 
L 459.915425 168.13274 
L 461.792364 167.533232 
L 462.167752 167.093072 
L 462.650394 172.488186 
L 464.366453 180.890622 
L 465.331736 182.701393 
L 466.618781 180.920716 
L 467.101423 180.034791 
L 468.495721 179.148179 
L 468.817482 178.634446 
L 470.265407 179.10906 
L 470.587168 189.571157 
L 471.552451 187.903063 
L 472.356854 187.825742 
L 473.322137 184.510948 
L 474.233794 180.416998 
L 474.716435 176.758273 
L 475.681719 174.5305 
L 476.968763 182.183763 
L 477.773166 180.936117 
L 478.577569 180.653331 
L 480.883523 186.43513 
L 481.205284 191.830021 
L 482.706836 190.89815 
L 483.028597 188.875147 
L 484.476522 187.99303 
L 485.817193 186.916509 
L 486.996984 186.517614 
L 487.962268 189.278375 
L 488.659417 193.104383 
L 489.678327 193.032785 
L 490.321849 192.324153 
L 491.018998 193.400955 
L 492.466923 191.972465 
L 492.842311 190.580077 
L 493.807594 191.987073 
L 494.504743 192.395173 
L 495.630907 192.169621 
L 496.328056 191.062036 
L 496.971578 192.050333 
L 497.668728 192.04063 
L 498.794891 188.699999 
L 499.438414 184.705021 
L 500.296443 181.472578 
L 501.422607 178.657629 
L 502.066129 176.173878 
L 502.870532 173.843627 
L 505.176487 168.828768 
L 505.873636 166.386895 
L 506.678038 164.243935 
L 507.804202 162.254031 
L 508.608605 160.530427 
L 512.040724 155.687355 
L 512.362485 154.196211 
L 513.542275 153.223594 
L 514.668439 151.787771 
L 516.169991 151.030888 
L 516.491752 149.96823 
L 519.119468 147.831386 
L 519.441229 146.67966 
L 520.567393 145.610391 
L 522.068945 145.311406 
L 522.390706 144.958185 
L 524.214019 145.818034 
L 524.214019 146.667977 
L 526.037332 148.672909 
L 526.359093 150.837247 
L 527.860645 151.773854 
L 528.182406 152.607261 
L 530.005719 152.322274 
L 530.32748 151.907127 
L 531.829032 151.394546 
L 532.150793 150.667633 
L 533.652344 150.18336 
L 534.778508 149.461335 
L 535.422031 149.279733 
L 536.923582 151.514739 
L 537.245343 153.18774 
L 539.390418 154.875536 
L 540.570208 154.935575 
L 541.21373 154.519674 
L 542.393521 154.415136 
L 543.037043 154.032698 
L 544.538595 153.753961 
L 545.182117 153.26599 
L 547.00543 152.97686 
L 548.131594 154.229074 
L 548.828743 154.621604 
L 550.276668 154.545594 
L 550.973817 155.175339 
L 552.099981 155.034286 
L 552.79713 155.881757 
L 553.923294 155.827992 
L 555.049458 156.006549 
L 556.068368 155.830932 
L 556.872771 156.549903 
L 557.891681 156.54348 
L 559.017845 157.352485 
L 559.714994 157.281632 
L 560.841158 158.391926 
L 561.538307 158.360063 
L 562.664471 158.160733 
L 564.487784 157.421355 
L 565.506694 157.229049 
L 567.27638 156.208059 
L 568.456171 156.0339 
L 569.475081 157.807037 
L 570.279484 160.071846 
L 571.244767 165.010617 
L 572.04917 172.821658 
L 573.06808 173.185294 
L 574.247871 176.227913 
L 574.891393 178.772829 
L 575.213154 178.280588 
L 576.714706 177.485793 
L 577.036467 177.136851 
L 578.538019 176.270216 
L 578.85978 174.433686 
L 580.361332 173.635969 
L 580.683093 170.744112 
L 582.131018 167.201861 
L 582.506406 164.609525 
L 584.276092 162.55365 
L 584.276092 161.189619 
L 586.099405 159.612043 
L 586.099405 157.748525 
L 587.922718 155.808032 
L 587.922718 153.539008 
L 589.74603 151.688327 
L 590.067792 150.373155 
L 591.891104 149.939818 
L 591.891104 150.75557 
L 593.714417 152.71187 
L 593.714417 156.638452 
L 595.53773 157.255046 
L 595.53773 162.480217 
L 597.361043 163.311868 
L 597.361043 165.456236 
L 599.506117 166.015796 
L 599.506117 165.681501 
L 601.32943 168.651051 
L 601.32943 166.310928 
L 603.099116 163.539173 
L 603.099116 160.210439 
L 604.922429 158.446238 
L 604.922429 158.23123 
L 606.745742 157.614279 
L 606.745742 157.058114 
L 608.890816 156.585574 
L 608.890816 156.335323 
L 610.714129 155.788393 
L 610.714129 155.623708 
L 612.537442 158.145173 
L 612.537442 168.802096 
L 614.360755 172.01964 
L 614.360755 173.19959 
L 616.130441 181.094168 
L 616.130441 182.663648 
L 617.953754 190.089908 
L 617.953754 191.535216 
L 619.777067 194.748675 
L 621.60038 204.955017 
L 622.297529 214.835814 
L 623.745454 214.619856 
L 623.745454 214.41143 
L 625.568767 213.995908 
L 625.568767 215.725429 
L 627.070319 217.020025 
L 627.39208 218.863425 
L 627.713841 230.349628 
L 629.215393 231.39831 
L 629.537154 233.188042 
L 629.858915 244.674245 
L 631.360467 256.160448 
L 631.360467 265.299774 
L 632.808392 276.785977 
L 633.827302 285.978139 
L 635.167973 296.870876 
L 635.167973 306.171939 
L 636.991286 306.680225 
L 637.634808 300.853019 
L 638.010196 292.445003 
L 639.779882 303.931206 
L 639.779882 290.759036 
L 640.15527 301.439771 
L 641.978583 295.872953 
L 641.978583 295.024045 
L 643.426508 291.947297 
L 643.426508 280.065574 
L 646.215104 268.57937 
L 648.092044 261.503145 
L 648.896447 259.473365 
L 650.022611 252.877489 
L 650.022611 245.400576 
L 651.202402 235.924881 
L 651.202402 227.667218 
L 652.328565 220.28495 
L 653.830117 211.529795 
L 654.473639 204.271141 
L 654.473639 198.592979 
L 655.975191 203.367447 
L 656.618713 202.66972 
L 657.315863 197.80196 
L 658.442026 195.002788 
L 659.782698 217.975194 
L 660.801608 216.709385 
L 661.44513 205.21165 
L 662.946682 203.891213 
L 663.590204 200.095598 
L 664.287353 199.804413 
L 664.930875 197.418286 
L 665.628024 196.730306 
L 666.271547 195.273051 
L 666.968696 188.877816 
L 667.987606 183.354393 
L 668.631128 178.560196 
L 669.650038 174.240385 
L 670.29356 168.99563 
L 671.312471 164.917206 
L 672.00962 164.626365 
L 672.974903 171.348222 
L 673.993813 170.963957 
L 674.690962 174.976024 
L 675.656246 174.742455 
L 676.353395 176.489843 
L 677.372305 172.1087 
L 678.015827 166.897961 
L 679.034737 164.654012 
L 681.179811 162.359255 
L 681.179811 160.310672 
L 681.87696 158.817709 
L 684.558303 154.610525 
L 685.523586 151.895438 
L 686.542496 149.414881 
L 687.239645 158.740562 
L 689.70648 160.890335 
L 689.70648 171.695875 
L 690.028242 181.128115 
L 690.725391 187.242072 
L 692.387823 186.539555 
L 693.406733 184.193953 
L 694.050255 179.135696 
L 695.069166 177.999558 
L 695.712688 175.93577 
L 698.23315 177.931982 
L 698.23315 175.883545 
L 698.554911 175.265674 
L 699.25206 174.467197 
L 700.217343 172.670999 
L 700.914492 172.375589 
L 701.933402 170.578607 
L 702.576925 176.34011 
L 703.595835 176.539156 
L 704.239357 186.194892 
L 706.759819 189.815861 
L 706.759819 200.242112 
L 709.065774 240.604484 
L 709.762923 239.076907 
L 711.103594 231.411749 
L 711.747116 232.480943 
L 712.444265 230.554433 
L 713.087787 229.545708 
L 715.232861 226.564023 
L 715.232861 232.890132 
L 715.608249 231.894507 
L 716.251772 228.821292 
L 716.948921 228.074819 
L 718.289592 250.67615 
L 718.933114 247.686582 
L 720.756427 258.844522 
L 720.756427 281.816929 
L 722.901501 277.481683 
L 722.901501 288.967886 
L 722.901501 285.109048 
L 723.223262 280.182275 
L 723.59865 291.668479 
L 725.368336 290.711754 
L 725.368336 302.197958 
L 725.368336 295.668811 
L 726.709008 295.062477 
L 727.191649 306.54868 
L 727.191649 314.841465 
L 728.37144 307.110406 
L 728.693201 295.868096 
L 729.175843 288.711348 
L 730.302007 283.858702 
L 731.26729 273.303646 
L 731.749932 262.132363 
L 732.983349 252.975848 
L 732.983349 245.263763 
L 734.270394 239.330353 
L 735.128423 239.306756 
L 735.450184 243.121136 
L 736.737229 245.030092 
L 737.05899 256.516295 
L 737.863393 268.002499 
L 738.989556 279.488702 
L 738.989556 290.974905 
L 740.491108 279.731972 
L 740.491108 264.023931 
L 741.617272 275.510135 
L 741.617272 259.226399 
L 742.797063 257.691557 
L 742.797063 250.966226 
L 743.923227 246.184854 
L 743.923227 236.131864 
L 745.049391 227.808639 
L 746.550942 218.275537 
L 746.550942 208.914998 
L 747.677106 199.490551 
L 749.178658 192.097926 
L 749.178658 179.963821 
L 751.806374 175.104935 
L 751.806374 170.580847 
L 752.932538 166.388094 
L 752.932538 164.362664 
L 755.560253 175.848867 
L 755.560253 198.821274 
L 756.686417 210.307477 
L 758.187969 221.79368 
L 758.187969 233.279884 
L 759.314133 244.766087 
L 759.314133 256.25229 
L 760.493924 266.853232 
L 760.493924 268.158456 
L 761.941849 279.032388 
L 761.941849 277.893574 
L 762.26361 270.046933 
L 763.121639 259.245518 
L 764.569564 248.110748 
L 764.569564 237.875407 
L 765.695728 226.584807 
L 765.695728 215.915539 
L 766.875519 206.575298 
L 768.323444 199.033607 
L 768.323444 192.963442 
L 769.503235 188.089018 
L 770.95116 183.632507 
L 770.95116 179.942017 
L 772.13095 176.276156 
L 773.578875 173.65053 
L 773.578875 171.345345 
L 775.88483 166.993686 
L 777.386382 165.002518 
L 777.386382 163.3899 
L 778.512545 161.64819 
L 779.96047 160.105159 
L 780.335858 158.748688 
L 781.140261 157.348622 
L 782.266425 156.456214 
L 783.767977 155.915294 
L 784.894141 154.929783 
L 785.215902 153.643054 
L 787.521856 151.399138 
L 789.023408 150.651338 
L 789.023408 149.705902 
L 790.149572 148.626748 
L 791.275736 147.172766 
L 792.777288 145.909514 
L 793.903452 145.413111 
L 793.903452 145.077241 
L 795.405004 144.813621 
L 796.531167 145.156425 
L 797.657331 147.513743 
L 799.158883 148.634289 
L 799.158883 148.015849 
L 800.285047 147.340102 
L 802.912763 143.343321 
L 802.912763 142.106442 
L 804.092553 141.956629 
L 805.540478 144.689237 
L 806.720269 145.617627 
L 808.168194 144.86512 
L 808.168194 143.906765 
L 809.347985 142.493063 
L 810.79591 141.343296 
L 811.922074 140.261397 
L 813.101864 138.954286 
L 813.423625 137.833975 
L 814.549789 137.278576 
L 815.72958 138.610305 
L 817.177505 142.438823 
L 817.552893 146.093751 
L 818.679057 149.020017 
L 819.48346 148.790722 
L 820.985011 147.85429 
L 822.111175 146.629059 
L 822.432936 145.349022 
L 823.5591 144.645703 
L 824.738891 144.213643 
L 825.865055 145.183825 
L 827.366607 145.138759 
L 827.688368 148.336034 
L 828.49277 147.591627 
L 829.994322 152.247399 
L 831.120486 155.20718 
L 831.442247 155.164589 
L 832.622038 155.497622 
L 833.748202 159.02165 
L 834.874366 157.941215 
L 836.375918 157.357022 
L 836.375918 156.334606 
L 837.502081 154.047194 
L 839.003633 153.258318 
L 839.325394 152.463722 
L 840.451558 151.86989 
L 841.255961 151.219589 
L 842.757513 150.598313 
L 843.883677 149.052422 
L 844.259065 146.941644 
L 845.385229 146.846858 
L 846.511392 147.432975 
L 847.691183 152.647232 
L 849.139108 156.32494 
L 849.139108 157.248219 
L 850.318899 158.482799 
L 851.766824 158.343319 
L 852.088585 158.638091 
L 853.268376 158.424833 
L 854.394539 161.815473 
L 855.520703 160.553276 
L 856.700494 158.822819 
L 857.022255 156.842019 
L 859.32821 151.179182 
L 861.258776 146.496777 
L 862.38494 145.544297 
L 863.564731 147.872331 
L 863.886492 150.20521 
L 865.012656 151.015025 
L 865.870686 157.954745 
L 867.104103 164.156352 
L 867.962133 163.003005 
L 868.766535 162.5421 
L 869.892699 161.263133 
L 870.697102 159.50105 
L 871.662385 157.085115 
L 872.788549 155.067561 
L 873.592952 154.209138 
L 874.558235 154.125894 
L 875.684399 153.825605 
L 876.649683 154.657192 
L 877.454085 154.345077 
L 878.74113 154.271374 
L 879.062891 153.357999 
L 880.349935 152.072829 
L 882.119621 149.927938 
L 883.406666 149.228368 
L 885.122725 149.062661 
L 886.088008 150.413328 
L 886.892411 152.511939 
L 888.179455 154.709342 
L 889.144739 162.902178 
L 889.949142 167.36619 
L 890.914425 170.298016 
L 891.718828 171.287661 
L 893.005872 171.006729 
L 893.434887 170.752386 
L 894.721931 171.173508 
L 895.204573 169.936787 
L 896.652498 168.854019 
L 896.974259 166.672343 
L 898.422184 163.432465 
L 898.743945 160.712392 
L 900.138243 158.162863 
L 900.513631 155.817541 
L 902.390571 154.054409 
L 902.712332 152.509669 
L 903.677615 151.348609 
L 904.96466 150.126217 
L 905.447301 149.213337 
L 906.8416 148.652242 
L 907.646002 148.136624 
L 908.611286 148.078898 
L 909.415688 148.907148 
L 910.380972 148.886522 
L 911.668016 150.738912 
L 912.097031 152.624307 
L 913.062314 153.061045 
L 914.349359 152.799794 
L 915.314642 152.756868 
L 916.226298 153.815302 
L 917.030701 153.510761 
L 919.765671 153.175373 
L 920.730954 153.79062 
L 921.64261 154.975118 
L 922.607894 155.538644 
L 923.412297 155.49848 
L 924.37758 154.922954 
L 925.289236 154.680429 
L 926.25452 154.593685 
L 927.541564 154.69636 
L 928.506847 154.590393 
L 928.989489 154.863502 
L 929.901145 155.757399 
L 931.18819 155.837106 
L 932.153473 157.750179 
L 933.06513 158.728309 
L 934.030413 158.628471 
L 934.513055 158.111011 
L 935.800099 160.39085 
L 936.765382 166.246747 
L 937.677039 174.218772 
L 938.15968 176.744494 
L 939.929367 180.006825 
L 940.89465 187.758737 
L 941.806306 185.970383 
L 942.77159 185.428502 
L 943.254231 189.963078 
L 944.165888 189.450536 
L 945.023917 200.936739 
L 945.935574 200.341639 
L 946.900857 202.627468 
L 947.383499 204.346922 
L 948.295155 202.293394 
L 948.777797 200.910545 
L 950.064841 208.136776 
L 950.547483 213.660725 
L 951.512766 217.40678 
L 951.995408 223.734509 
L 952.907064 225.453256 
L 953.389706 226.672125 
L 953.872348 227.044584 
L 955.159392 229.135027 
L 955.642034 237.222173 
L 956.55369 236.283551 
L 957.036332 231.851837 
L 958.001615 229.721733 
L 958.484257 229.097462 
L 958.913272 227.587795 
L 960.200316 239.073998 
L 961.1656 232.273831 
L 962.130883 243.760034 
L 963.042539 263.546276 
L 964.007823 258.615555 
L 964.490464 253.833531 
L 964.973106 251.593699 
L 965.777509 248.653517 
L 966.742792 243.522621 
L 968.029836 231.655069 
L 968.834239 226.089287 
L 969.638642 222.581443 
L 970.282164 218.258774 
L 970.979313 212.620987 
L 971.783716 212.131342 
L 972.427238 220.553576 
L 973.231641 217.989866 
L 974.250551 210.434653 
L 974.9477 220.824322 
L 975.752103 220.770175 
L 976.878267 219.672352 
L 977.200028 216.836763 
L 977.897177 214.049915 
L 979.023341 213.831517 
L 979.345102 225.31772 
L 980.685773 236.803924 
L 981.168415 248.290127 
L 981.168415 259.77633 
L 982.669967 253.036224 
L 984.600533 271.697571 
L 985.887578 267.201975 
L 987.818144 244.425131 
L 988.729801 236.462405 
L 989.212443 229.699494 
L 990.177726 220.594894 
L 990.660367 211.380232 
L 991.572024 202.677765 
L 992.054666 194.876957 
L 993.931605 182.533379 
L 994.896889 177.107772 
L 995.37953 171.265605 
L 996.344814 168.005942 
L 997.25647 163.264358 
L 999.026156 160.480063 
L 999.830559 159.54798 
L 1000.634962 165.596913 
L 1001.922006 165.228533 
L 1002.726409 169.458644 
L 1003.530812 168.683961 
L 1004.817856 168.666818 
L 1005.300498 168.817588 
L 1006.426662 170.793786 
L 1007.284691 173.056664 
L 1008.410855 179.217467 
L 1008.893497 185.710453 
L 1010.019661 188.859895 
L 1011.950227 201.595064 
L 1011.950227 201.595064 
" clip-path="url(#p7045eb7786)" style="fill: none; stroke: #ff3f34; stroke-opacity: 0.99; stroke-width: 2.4; stroke-linecap: square"/>
   </g>
   <g id="line2d_22">
    <path d="M 92.904773 482.904027 
L 93.054138 472.479782 
L 93.054138 438.021172 
L 93.536779 426.534968 
L 93.536779 403.562562 
L 93.858541 392.076358 
L 93.858541 380.590155 
L 94.55569 369.103952 
L 95.038331 357.617748 
L 95.038331 346.131545 
L 95.360092 334.645342 
L 96.003615 323.175433 
L 96.486256 311.788899 
L 96.486256 302.205927 
L 97.987808 292.88945 
L 97.987808 277.52719 
L 99.811121 271.179544 
L 99.811121 266.327662 
L 100.937285 261.445227 
L 100.937285 258.852358 
L 102.38521 258.745572 
L 102.38521 259.545931 
L 102.38521 259.022867 
L 104.208523 258.79003 
L 104.208523 259.990464 
L 105.710075 260.613196 
L 106.192716 260.492496 
L 106.192716 266.668933 
L 107.31888 266.398245 
L 107.31888 263.493386 
L 111.394521 259.590424 
L 114.719386 255.104703 
L 114.719386 251.074569 
L 116.220937 247.424982 
L 116.220937 243.56306 
L 118.04425 239.334505 
L 118.04425 233.555327 
L 120.511085 227.564877 
L 123.031547 220.099484 
L 123.031547 206.69874 
L 125.498383 201.876333 
L 125.498383 195.822275 
L 127.643457 194.817662 
L 128.76962 194.91206 
L 129.949411 194.503722 
L 131.075575 193.101494 
L 131.879978 191.468607 
L 131.879978 188.427226 
L 135.312096 178.569021 
L 136.43826 176.303509 
L 136.920902 174.041849 
L 139.226856 170.197054 
L 140.031259 168.662526 
L 141.318304 167.284408 
L 142.122706 166.098833 
L 142.927109 165.738591 
L 144.535915 164.753475 
L 145.018556 164.723239 
L 145.822959 164.030567 
L 146.627362 163.600509 
L 147.807153 163.544176 
L 148.611555 164.420666 
L 149.415958 165.735496 
L 150.703002 166.512132 
L 152.311808 166.445467 
L 153.598852 167.860658 
L 154.403255 167.651391 
L 155.207658 169.783298 
L 156.012061 172.751558 
L 157.299105 176.309378 
L 158.103508 179.231223 
L 159.712313 184.142582 
L 160.516716 185.65457 
L 161.803761 188.998045 
L 162.286402 190.630051 
L 163.090805 190.992771 
L 164.699611 194.062048 
L 165.182252 193.940379 
L 166.844685 199.958999 
L 167.649087 200.56533 
L 168.45349 200.505482 
L 169.257893 201.233653 
L 170.544937 200.990228 
L 171.027579 203.651814 
L 171.831982 205.152834 
L 172.636384 208.303567 
L 173.440787 208.233875 
L 176.336637 219.843049 
L 177.14104 224.841799 
L 178.428084 224.364829 
L 178.749845 227.655699 
L 180.251397 226.815999 
L 180.573158 228.868892 
L 181.699322 228.051402 
L 181.699322 226.547183 
L 183.522635 225.846687 
L 185.131441 223.843334 
L 185.131441 223.083861 
L 187.276515 222.532905 
L 187.276515 223.723749 
L 187.276515 223.16904 
L 189.099828 224.505857 
L 190.279618 227.257104 
L 192.371066 227.352807 
L 195.749557 225.603419 
L 195.749557 228.302094 
L 196.071318 231.581841 
L 198.001885 233.538977 
L 198.001885 232.621952 
L 199.503437 230.301112 
L 200.146959 228.281533 
L 200.146959 226.280849 
L 201.32675 223.788783 
L 201.970272 222.078026 
L 202.667421 220.646948 
L 203.310943 217.91504 
L 203.793585 216.587046 
L 205.295137 215.032829 
L 205.295137 214.281648 
L 206.26042 211.508209 
L 208.405494 210.948449 
L 208.405494 212.444615 
L 208.405494 211.228599 
L 209.102643 208.766985 
L 211.247717 206.716454 
L 211.247717 205.113433 
L 213.392791 203.756159 
L 214.518955 203.331467 
L 214.518955 225.647775 
L 216.342268 233.848542 
L 219.130864 239.829865 
L 219.452625 240.844833 
L 220.257028 240.37091 
L 221.061431 242.06844 
L 221.865834 244.790586 
L 223.152878 244.022448 
L 223.152878 240.655308 
L 224.439922 235.34854 
L 224.439922 230.557748 
L 227.174892 226.352535 
L 227.603907 223.642361 
L 228.56919 220.917924 
L 229.051832 219.897728 
L 230.017115 224.52352 
L 230.499757 231.379329 
L 231.411413 232.207947 
L 231.894055 232.283092 
L 234.146382 231.738593 
L 234.146382 231.543233 
L 235.862442 233.327197 
L 236.23783 232.347737 
L 237.149486 227.990764 
L 237.953889 221.6893 
L 239.938082 215.234142 
L 241.386007 209.437928 
L 241.386007 204.843707 
L 242.887559 199.52197 
L 242.887559 196.243935 
L 244.389111 193.716646 
L 244.389111 194.287232 
L 246.855946 199.152136 
L 246.855946 212.406872 
L 249.698169 213.08464 
L 250.01993 212.90971 
L 250.01993 204.127783 
L 252.808527 198.883726 
L 254.149198 189.68778 
L 255.168108 185.59623 
L 257.313182 182.753945 
L 257.313182 180.662453 
L 257.634943 179.90314 
L 259.351002 178.023791 
L 262.139599 176.869411 
L 262.139599 172.605783 
L 264.660061 170.411305 
L 264.660061 168.664709 
L 264.981822 167.198513 
L 266.805135 165.756752 
L 266.805135 164.565868 
L 267.770418 163.953446 
L 269.593731 163.399496 
L 269.593731 162.852273 
L 272.114193 162.679928 
L 272.114193 161.954134 
L 273.937506 160.82265 
L 273.937506 160.256947 
L 275.385431 159.730971 
L 275.385431 158.837218 
L 277.208744 158.322583 
L 278.710295 158.029918 
L 278.710295 157.301416 
L 280.104594 156.883988 
L 280.104594 157.201019 
L 281.552519 157.687833 
L 283.322205 157.816973 
L 283.322205 157.711539 
L 284.823756 157.691596 
L 286.003547 158.951901 
L 286.003547 159.218869 
L 287.82686 159.225692 
L 287.82686 159.013508 
L 289.274785 158.553057 
L 290.776337 158.209078 
L 290.776337 157.685606 
L 293.725814 157.493329 
L 293.725814 157.888321 
L 294.851978 158.430452 
L 297.855081 158.197441 
L 298.981245 158.289954 
L 300.107409 158.245703 
L 300.107409 159.49342 
L 302.735125 159.309788 
L 303.914915 162.263374 
L 305.041079 162.119813 
L 306.167243 168.286014 
L 307.347034 179.413182 
L 308.794959 184.939276 
L 309.921123 186.483339 
L 309.921123 186.148724 
L 312.227077 186.267595 
L 313.353241 188.775152 
L 313.353241 188.428877 
L 314.533032 188.775215 
L 315.659196 187.421702 
L 316.78536 186.926031 
L 316.78536 186.660616 
L 318.286911 185.893764 
L 319.413075 185.071808 
L 319.413075 185.549854 
L 320.592866 185.535668 
L 321.71903 185.154997 
L 322.845194 185.68862 
L 324.024984 189.186941 
L 324.024984 190.836489 
L 325.151148 189.977029 
L 327.457103 189.514006 
L 327.457103 189.481991 
L 328.583267 189.406921 
L 329.709431 190.836412 
L 329.709431 194.53081 
L 331.210982 195.359213 
L 332.337146 197.112598 
L 333.516937 203.125024 
L 333.516937 213.20928 
L 335.769265 230.441112 
L 335.769265 234.687774 
L 336.949056 238.824001 
L 338.075219 238.673335 
L 338.075219 240.659269 
L 339.201383 245.056823 
L 340.381174 243.798129 
L 341.507338 245.19068 
L 341.507338 247.188369 
L 342.633502 247.833725 
L 343.813292 253.723188 
L 343.813292 255.410949 
L 344.939456 256.241671 
L 344.939456 256.108908 
L 346.06562 255.571825 
L 347.245411 255.598281 
L 347.245411 254.695008 
L 348.371575 254.032497 
L 349.175978 253.425835 
L 349.98038 253.096561 
L 349.98038 252.39275 
L 351.160171 249.838259 
L 355.932961 248.238167 
L 356.254722 246.723905 
L 357.917154 245.935833 
L 359.68684 243.353927 
L 359.68684 238.495795 
L 361.831914 232.523415 
L 361.831914 220.307492 
L 364.030615 214.837929 
L 364.030615 210.040554 
L 367.301853 206.893686 
L 367.301853 205.942688 
L 367.301853 209.143533 
L 368.320763 211.681375 
L 370.787598 217.077744 
L 370.787598 218.575758 
L 370.787598 217.666649 
L 371.484747 213.758029 
L 373.629821 209.364316 
L 373.629821 204.349431 
L 375.077746 199.897463 
L 375.077746 195.615411 
L 378.402611 189.994171 
L 378.402611 188.556023 
L 380.333178 187.030712 
L 380.333178 185.317214 
L 381.459342 183.849456 
L 383.765296 180.164303 
L 384.569699 178.422861 
L 385.74949 176.393692 
L 385.74949 174.899674 
L 387.197415 173.526835 
L 387.680056 172.004774 
L 389.181608 171.193204 
L 389.986011 169.865641 
L 391.273055 169.52664 
L 392.077458 168.879014 
L 392.881861 168.07955 
L 393.686264 167.053012 
L 394.812428 166.341955 
L 395.61683 164.95431 
L 397.601024 163.494316 
L 398.888068 163.31129 
L 399.692471 164.314093 
L 401.783918 165.025172 
L 402.588321 164.938205 
L 404.197126 164.457368 
L 404.197126 163.959279 
L 405.484171 163.614197 
L 406.288574 163.14423 
L 407.092976 161.947286 
L 409.988826 160.70475 
L 412.080274 160.437671 
L 413.367318 161.126364 
L 415.137004 163.869775 
L 415.137004 164.695746 
L 416.90669 164.672901 
L 416.90669 164.177976 
L 418.622749 163.233677 
L 419.588033 162.437743 
L 419.588033 161.478543 
L 421.357719 160.575921 
L 422.323002 159.580516 
L 423.234659 159.043292 
L 424.199942 159.087915 
L 424.199942 159.657613 
L 425.969628 159.359551 
L 426.881284 159.489259 
L 428.811851 160.380217 
L 429.723507 159.797775 
L 431.171432 158.508124 
L 432.136716 158.334803 
L 434.013656 157.070497 
L 434.978939 157.083646 
L 438.625565 156.273567 
L 439.537221 156.500131 
L 440.502505 156.097132 
L 442.272191 158.164008 
L 442.272191 157.962521 
L 443.237474 158.466578 
L 444.14913 158.015659 
L 446.079697 158.045129 
L 446.401458 158.308971 
L 446.8841 158.01973 
L 447.795756 159.830043 
L 449.565442 160.277857 
L 449.565442 161.871556 
L 450.530726 161.53858 
L 452.300412 162.965675 
L 452.729427 165.187511 
L 453.212068 166.491506 
L 454.981754 167.383327 
L 455.464396 168.313373 
L 455.947038 170.338505 
L 457.663097 171.209302 
L 458.145738 174.288514 
L 459.593663 174.893251 
L 459.915425 176.734678 
L 462.167752 178.984989 
L 462.650394 182.836031 
L 464.044692 186.130649 
L 464.366453 186.118695 
L 464.849095 185.471984 
L 466.29702 185.331542 
L 466.618781 184.851886 
L 468.817482 187.043892 
L 469.300123 186.878624 
L 471.06981 186.943653 
L 472.035093 188.804408 
L 472.839496 192.267334 
L 473.804779 192.394834 
L 474.233794 192.23263 
L 475.199077 193.468872 
L 476.16436 192.78093 
L 476.968763 193.47825 
L 477.773166 193.59764 
L 478.577569 192.999558 
L 479.381971 193.864456 
L 480.508135 194.732396 
L 481.205284 195.093992 
L 482.009687 194.839378 
L 482.706836 195.024942 
L 483.833 194.192498 
L 484.154761 193.332884 
L 486.299835 191.497769 
L 486.621596 190.830999 
L 488.337655 189.389929 
L 488.981178 189.291994 
L 490.000088 188.968538 
L 490.64361 188.48173 
L 491.66252 187.045702 
L 491.66252 185.123478 
L 494.182982 183.779103 
L 494.826504 182.669074 
L 494.826504 181.211374 
L 496.649817 180.72257 
L 497.29334 180.393826 
L 497.29334 182.203542 
L 499.116653 182.046342 
L 499.116653 181.320295 
L 500.296443 181.272875 
L 501.744368 180.802299 
L 501.744368 179.294381 
L 502.870532 177.772814 
L 505.498248 176.00463 
L 505.498248 174.974537 
L 505.873636 173.854534 
L 507.482441 172.42074 
L 508.608605 170.189557 
L 510.91456 166.357599 
L 510.91456 165.256934 
L 512.040724 164.998275 
L 513.220514 168.99686 
L 514.668439 174.526693 
L 516.169991 183.274899 
L 516.169991 194.104835 
L 517.617916 202.216273 
L 517.617916 201.400801 
L 519.119468 199.949758 
L 519.119468 195.919902 
L 520.567393 191.427233 
L 522.390706 186.794405 
L 522.390706 182.840352 
L 524.214019 179.36495 
L 524.214019 176.360521 
L 526.037332 173.676013 
L 526.037332 171.003025 
L 527.860645 169.162561 
L 527.860645 167.49084 
L 529.683957 165.779691 
L 530.005719 164.240864 
L 530.005719 163.134483 
L 531.829032 162.00366 
L 531.829032 161.298198 
L 533.652344 160.841894 
L 535.422031 160.235486 
L 535.422031 159.915214 
L 537.245343 159.302155 
L 537.245343 158.621481 
L 539.068656 157.994757 
L 539.390418 156.963395 
L 539.765805 156.330794 
L 541.21373 157.451391 
L 543.037043 157.128788 
L 543.037043 158.143787 
L 544.860356 157.569071 
L 544.860356 157.280111 
L 546.683669 157.545001 
L 546.683669 157.167425 
L 548.506982 156.949487 
L 548.828743 158.135077 
L 550.276668 157.925064 
L 550.652056 158.227133 
L 552.421742 158.568952 
L 552.421742 160.093615 
L 554.245055 159.836984 
L 554.245055 160.411724 
L 556.068368 160.362965 
L 556.068368 165.015589 
L 557.891681 169.795055 
L 557.891681 177.821498 
L 560.036755 179.89376 
L 560.036755 185.886807 
L 561.860068 185.411969 
L 561.860068 185.208756 
L 563.683381 184.625435 
L 563.683381 184.396823 
L 565.506694 184.866726 
L 565.506694 184.385789 
L 567.27638 185.035116 
L 567.27638 184.503516 
L 569.475081 183.21998 
L 569.475081 182.107613 
L 571.244767 179.994963 
L 571.244767 178.504257 
L 573.06808 177.113584 
L 573.06808 176.281002 
L 574.891393 174.849805 
L 574.891393 173.405743 
L 576.714706 171.958628 
L 576.714706 171.15826 
L 578.85978 170.182698 
L 578.85978 169.325714 
L 580.683093 168.452929 
L 580.683093 168.184579 
L 582.506406 167.59195 
L 582.506406 167.294387 
L 584.276092 166.882103 
L 584.276092 166.559436 
L 586.099405 165.862226 
L 586.099405 165.45311 
L 587.922718 164.729587 
L 587.922718 164.375896 
L 590.067792 164.328017 
L 590.067792 164.036325 
L 591.891104 163.592464 
L 591.891104 163.238043 
L 593.714417 162.689475 
L 593.714417 162.738341 
L 595.53773 162.586431 
L 595.53773 162.073767 
L 597.361043 161.834075 
L 597.361043 161.138022 
L 599.506117 161.303495 
L 599.506117 160.791597 
L 601.32943 160.446552 
L 601.32943 160.280389 
L 603.099116 160.324877 
L 603.099116 161.939752 
L 604.922429 163.435298 
L 604.922429 165.455304 
L 606.745742 169.67805 
L 606.745742 173.639933 
L 608.890816 176.904864 
L 608.890816 179.258552 
L 610.714129 181.416564 
L 610.714129 182.180407 
L 612.537442 183.049712 
L 612.537442 184.906804 
L 614.360755 186.218492 
L 614.360755 186.484016 
L 616.130441 187.956941 
L 616.130441 187.73936 
L 617.953754 187.530495 
L 617.953754 189.374215 
L 619.777067 191.722055 
L 620.098828 193.445808 
L 620.098828 196.46802 
L 621.922141 197.699957 
L 621.922141 199.24056 
L 623.745454 204.781686 
L 623.745454 209.797166 
L 625.568767 212.24569 
L 625.568767 219.705255 
L 627.39208 227.259133 
L 627.39208 235.378355 
L 629.537154 237.86638 
L 629.537154 246.768981 
L 631.360467 246.202608 
L 631.360467 254.65464 
L 633.505541 254.615756 
L 634.846212 256.349141 
L 635.167973 256.24461 
L 635.167973 259.330295 
L 637.634808 259.653214 
L 639.779882 258.6261 
L 639.779882 256.835795 
L 639.779882 259.356008 
L 641.978583 261.715382 
L 641.978583 256.976084 
L 643.426508 251.421695 
L 648.413805 246.971838 
L 650.022611 241.716165 
L 650.022611 236.87193 
L 651.202402 231.957471 
L 652.328565 225.553687 
L 654.473639 218.399446 
L 654.473639 207.118244 
L 656.994101 203.0548 
L 657.315863 199.931818 
L 657.315863 197.171279 
L 659.139175 194.138692 
L 660.104459 191.08613 
L 660.801608 188.321983 
L 661.123369 185.091162 
L 661.123369 182.147704 
L 663.268443 179.292628 
L 664.287353 176.991624 
L 664.930875 174.361727 
L 668.631128 167.990998 
L 669.328277 166.802801 
L 670.29356 165.707763 
L 671.312471 164.80253 
L 672.00962 163.420246 
L 672.974903 162.490531 
L 673.672052 161.580124 
L 674.690962 160.894393 
L 676.353395 159.297681 
L 678.337588 158.344991 
L 679.356498 157.686172 
L 681.179811 157.281568 
L 681.179811 157.796555 
L 682.198721 158.693998 
L 682.842244 159.981661 
L 683.861154 159.729076 
L 684.880064 159.173548 
L 685.523586 161.138078 
L 686.542496 161.338907 
L 687.561406 161.839911 
L 689.223839 161.611009 
L 689.70648 166.339559 
L 690.350003 167.558658 
L 691.047152 168.595751 
L 692.066062 169.445108 
L 692.709584 171.229193 
L 693.728494 172.695348 
L 694.372016 172.426497 
L 695.390927 175.075478 
L 696.088076 178.0266 
L 698.23315 180.006202 
L 698.23315 183.341555 
L 698.876672 183.956614 
L 699.573821 186.376623 
L 700.592731 186.057453 
L 701.236253 187.149669 
L 702.255164 187.145229 
L 703.917596 186.752835 
L 704.614745 186.7295 
L 706.759819 186.222634 
L 706.759819 187.716884 
L 707.08158 192.009979 
L 708.10049 194.533775 
L 709.441162 201.718808 
L 711.103594 211.685746 
L 711.747116 211.665874 
L 712.444265 215.338356 
L 713.463175 223.759435 
L 715.232861 230.202616 
L 715.232861 237.04048 
L 716.948921 248.638303 
L 717.592443 250.841959 
L 718.289592 251.881504 
L 718.611353 253.844249 
L 720.756427 253.608268 
L 720.756427 252.900894 
L 722.901501 253.825036 
L 722.901501 252.098581 
L 723.223262 250.205354 
L 725.368336 247.566304 
L 725.368336 241.622094 
L 727.191649 236.521138 
L 728.693201 230.590709 
L 732.983349 222.531801 
L 732.983349 215.324107 
L 735.128423 208.119856 
L 735.450184 201.668114 
L 737.863393 191.506301 
L 738.989556 188.715901 
L 740.491108 186.286945 
L 740.491108 185.928005 
L 741.617272 188.60318 
L 742.797063 189.061336 
L 742.797063 188.961798 
L 743.923227 186.978274 
L 746.550942 181.621701 
L 746.550942 178.279599 
L 747.677106 175.400079 
L 749.178658 172.816153 
L 749.178658 171.062011 
L 750.304822 169.332805 
L 751.806374 168.208418 
L 751.806374 166.713183 
L 752.932538 165.813519 
L 755.560253 164.2402 
L 755.882014 163.74091 
L 756.686417 162.761436 
L 758.187969 162.080514 
L 759.314133 161.841586 
L 759.689521 161.085136 
L 760.493924 160.388762 
L 761.941849 160.251551 
L 763.121639 159.970877 
L 764.569564 159.175606 
L 764.569564 158.463352 
L 765.695728 158.737397 
L 766.875519 158.328763 
L 768.323444 158.275385 
L 768.323444 158.029751 
L 769.503235 158.687916 
L 770.95116 159.883369 
L 771.326547 159.767587 
L 772.13095 160.463705 
L 773.578875 161.141961 
L 774.758666 160.750664 
L 775.080427 161.588874 
L 775.88483 161.377601 
L 777.386382 161.826138 
L 778.512545 163.185603 
L 779.96047 166.770924 
L 779.96047 170.72027 
L 781.140261 179.195136 
L 782.266425 180.112845 
L 782.266425 183.339997 
L 783.767977 183.129844 
L 784.894141 182.368873 
L 786.395693 181.828803 
L 787.521856 181.927492 
L 787.521856 181.742788 
L 790.149572 180.7234 
L 790.149572 179.798256 
L 791.275736 178.05291 
L 792.777288 176.837819 
L 792.777288 175.370268 
L 793.903452 173.685893 
L 795.405004 172.494815 
L 796.531167 171.382579 
L 796.531167 170.687117 
L 797.657331 169.595071 
L 799.158883 169.412475 
L 800.285047 168.863864 
L 801.786599 167.675761 
L 801.786599 167.187684 
L 802.912763 166.457013 
L 804.092553 166.325837 
L 805.540478 165.670572 
L 805.540478 165.378168 
L 806.720269 164.907472 
L 808.168194 164.611225 
L 808.168194 163.687328 
L 809.347985 163.077764 
L 810.79591 162.804449 
L 810.79591 163.00703 
L 811.922074 162.398109 
L 813.101864 161.253682 
L 814.549789 160.82134 
L 814.549789 159.711276 
L 817.177505 157.766214 
L 819.48346 156.645201 
L 819.48346 156.130694 
L 820.985011 155.569349 
L 822.111175 155.894407 
L 823.5591 157.8787 
L 823.5591 159.415365 
L 824.738891 159.237127 
L 825.865055 158.879515 
L 827.366607 158.533222 
L 827.366607 157.435652 
L 828.49277 156.705805 
L 831.120486 155.77171 
L 831.120486 155.32386 
L 832.622038 155.039222 
L 833.748202 155.011902 
L 834.874366 157.185364 
L 836.375918 156.432673 
L 836.375918 155.909331 
L 837.502081 155.481808 
L 839.003633 155.350915 
L 839.003633 156.12702 
L 840.129797 157.623425 
L 841.255961 158.023205 
L 842.757513 160.968641 
L 843.079274 161.272695 
L 843.883677 161.129265 
L 845.385229 162.865191 
L 846.511392 164.657308 
L 846.88678 163.874451 
L 847.691183 163.657377 
L 849.139108 163.435006 
L 850.318899 163.384547 
L 850.64066 163.513632 
L 851.766824 163.769259 
L 852.946614 163.296334 
L 854.394539 163.243417 
L 854.394539 163.932309 
L 855.520703 166.016258 
L 858.148419 167.991329 
L 858.148419 167.800937 
L 859.32821 168.112033 
L 861.258776 171.293393 
L 862.38494 174.199393 
L 863.564731 175.744252 
L 863.886492 175.609746 
L 864.690895 175.596653 
L 865.870686 177.394453 
L 866.675088 178.019242 
L 867.479491 178.246206 
L 868.766535 180.324631 
L 870.375341 179.76254 
L 870.697102 179.06257 
L 873.592952 177.727976 
L 874.879996 177.354159 
L 875.684399 177.627691 
L 876.971444 176.741985 
L 878.74113 176.304785 
L 879.062891 176.972911 
L 880.349935 176.551644 
L 880.349935 176.647312 
L 882.119621 176.501355 
L 882.119621 177.968438 
L 883.406666 178.072361 
L 884.69371 177.904573 
L 884.69371 176.608811 
L 886.409769 175.212895 
L 886.409769 173.868563 
L 888.179455 172.889073 
L 889.4665 171.687581 
L 889.4665 170.3054 
L 891.236186 169.451674 
L 891.236186 168.774083 
L 893.005872 168.052439 
L 893.005872 167.506676 
L 894.721931 166.764871 
L 894.721931 166.45539 
L 895.204573 165.859185 
L 898.422184 165.239149 
L 898.743945 164.821619 
L 900.138243 164.197421 
L 900.513631 163.66239 
L 902.712332 163.608429 
L 902.712332 163.205245 
L 904.96466 165.861311 
L 904.96466 165.396925 
L 907.163361 164.372015 
L 907.163361 163.812058 
L 909.415688 163.528396 
L 909.89833 163.303534 
L 911.668016 163.084915 
L 911.668016 162.649392 
L 914.027598 163.194307 
L 914.349359 162.482461 
L 916.70894 162.380761 
L 917.030701 162.238095 
L 917.030701 161.899292 
L 919.44391 161.802836 
L 919.765671 163.605834 
L 920.730954 163.305722 
L 922.929655 163.101817 
L 922.929655 162.678762 
L 923.412297 162.397636 
L 926.576281 162.409458 
L 926.576281 163.44238 
L 927.058922 165.501733 
L 928.024206 164.955294 
L 930.383787 165.284291 
L 930.705548 166.727516 
L 930.705548 167.733207 
L 931.670832 167.342259 
L 932.636115 167.076164 
L 935.317457 166.096747 
L 936.282741 165.528209 
L 937.194397 165.187683 
L 939.446725 165.892981 
L 939.446725 167.340773 
L 939.929367 170.020731 
L 940.89465 172.216426 
L 941.323665 172.431583 
L 942.288948 177.569261 
L 944.541276 179.593845 
L 944.541276 180.387211 
L 945.023917 182.375058 
L 945.935574 185.310481 
L 946.900857 185.158646 
L 947.383499 186.222805 
L 949.099558 187.031913 
L 949.099558 192.170481 
L 950.064841 193.430371 
L 951.030125 195.920056 
L 951.512766 196.624789 
L 952.424423 201.60323 
L 954.194109 204.508473 
L 954.194109 204.202418 
L 954.676751 206.704737 
L 955.642034 207.833348 
L 956.55369 209.900597 
L 957.036332 214.634506 
L 958.001615 215.353756 
L 959.771301 215.934458 
L 959.771301 221.634428 
L 960.682958 239.728854 
L 961.648241 239.72165 
L 962.130883 247.881913 
L 962.613524 246.829246 
L 963.525181 247.307181 
L 965.294867 250.372809 
L 965.294867 253.129719 
L 965.294867 252.920051 
L 967.171807 251.713503 
L 968.029836 250.718173 
L 970.603925 249.956158 
L 970.603925 245.315731 
L 972.427238 243.579507 
L 972.427238 237.014276 
L 974.572312 230.07653 
L 976.878267 221.92827 
L 976.878267 213.684581 
L 979.023341 206.172023 
L 979.023341 199.761847 
L 981.168415 194.14428 
L 981.168415 189.718124 
L 982.669967 186.095268 
L 984.117892 184.345146 
L 986.852861 182.969854 
L 988.247159 180.927155 
L 988.729801 178.829703 
L 990.660367 174.670398 
L 991.089382 172.897555 
L 992.054666 171.842389 
L 993.019949 171.091742 
L 993.502591 170.281549 
L 994.414247 171.167999 
L 995.37953 170.897205 
L 996.344814 172.349114 
L 996.773828 177.459707 
L 998.060873 182.737668 
L 998.543515 186.840355 
L 999.347917 191.382577 
L 1000.313201 191.452308 
L 1001.117603 192.168577 
L 1001.922006 194.959357 
L 1002.726409 198.525283 
L 1003.530812 198.38216 
L 1004.817856 199.405363 
L 1005.300498 202.504458 
L 1005.997647 208.434735 
L 1006.80205 208.787557 
L 1007.606452 208.619246 
L 1008.410855 207.701641 
L 1008.893497 206.736343 
L 1010.019661 206.60596 
L 1010.824063 206.385319 
L 1011.950227 208.934433 
L 1011.950227 208.934433 
" clip-path="url(#p7045eb7786)" style="fill: none; stroke: #0fbcf9; stroke-opacity: 0.99; stroke-width: 2.4; stroke-linecap: square"/>
   </g>
   <g id="patch_3">
    <path d="M 46.9525 434.59192 
L 46.9525 72.25112 
" style="fill: none; stroke: #000000; stroke-width: 0.8; stroke-linejoin: miter; stroke-linecap: square"/>
   </g>
   <g id="patch_4">
    <path d="M 1057.9025 434.59192 
L 1057.9025 72.25112 
" style="fill: none; stroke: #000000; stroke-width: 0.8; stroke-linejoin: miter; stroke-linecap: square"/>
   </g>
   <g id="patch_5">
    <path d="M 46.9525 434.59192 
L 1057.9025 434.59192 
" style="fill: none; stroke: #000000; stroke-width: 0.8; stroke-linejoin: miter; stroke-linecap: square"/>
   </g>
   <g id="patch_6">
    <path d="M 46.9525 72.25112 
L 1057.9025 72.25112 
" style="fill: none; stroke: #000000; stroke-width: 0.8; stroke-linejoin: miter; stroke-linecap: square"/>
   </g>
   <g id="legend_1">
    <g id="patch_7">
     <path d="M 341.991313 35.8 
L 722.425688 35.8 
Q 726.425688 35.8 726.425688 31.8 
L 726.425688 4 
Q 726.425688 -0 722.425688 -0 
L 341.991313 -0 
Q 337.991313 -0 337.991313 4 
L 337.991313 31.8 
Q 337.991313 35.8 341.991313 35.8 
z
" style="fill: #ffffff; opacity: 0.8; stroke: #cccccc; stroke-linejoin: miter"/>
    </g>
    <g id="line2d_23">
     <path d="M 345.991313 16.6 
L 365.991313 16.6 
L 385.991313 16.6 
" style="fill: none; stroke: #ff3f34; stroke-opacity: 0.99; stroke-width: 2.4; stroke-linecap: square"/>
    </g>
    <g id="text_13">
     <!-- MLP256 -->
     <g transform="translate(401.991313 23.6) scale(0.2 -0.2)">
      <defs>
       <path id="DejaVuSans-4d" d="M 628 4666 
L 1569 4666 
L 2759 1491 
L 3956 4666 
L 4897 4666 
L 4897 0 
L 4281 0 
L 4281 4097 
L 3078 897 
L 2444 897 
L 1241 4097 
L 1241 0 
L 628 0 
L 628 4666 
z
" transform="scale(0.015625)"/>
       <path id="DejaVuSans-4c" d="M 628 4666 
L 1259 4666 
L 1259 531 
L 3531 531 
L 3531 0 
L 628 0 
L 628 4666 
z
" transform="scale(0.015625)"/>
       <path id="DejaVuSans-50" d="M 1259 4147 
L 1259 2394 
L 2053 2394 
Q 2494 2394 2734 2622 
Q 2975 2850 2975 3272 
Q 2975 3691 2734 3919 
Q 2494 4147 2053 4147 
L 1259 4147 
z
M 628 4666 
L 2053 4666 
Q 2838 4666 3239 4311 
Q 3641 3956 3641 3272 
Q 3641 2581 3239 2228 
Q 2838 1875 2053 1875 
L 1259 1875 
L 1259 0 
L 628 0 
L 628 4666 
z
" transform="scale(0.015625)"/>
       <path id="DejaVuSans-35" d="M 691 4666 
L 3169 4666 
L 3169 4134 
L 1269 4134 
L 1269 2991 
Q 1406 3038 1543 3061 
Q 1681 3084 1819 3084 
Q 2600 3084 3056 2656 
Q 3513 2228 3513 1497 
Q 3513 744 3044 326 
Q 2575 -91 1722 -91 
Q 1428 -91 1123 -41 
Q 819 9 494 109 
L 494 744 
Q 775 591 1075 516 
Q 1375 441 1709 441 
Q 2250 441 2565 725 
Q 2881 1009 2881 1497 
Q 2881 1984 2565 2268 
Q 2250 2553 1709 2553 
Q 1456 2553 1204 2497 
Q 953 2441 691 2322 
L 691 4666 
z
" transform="scale(0.015625)"/>
      </defs>
      <use xlink:href="#DejaVuSans-4d"/>
      <use xlink:href="#DejaVuSans-4c" x="86.279297"/>
      <use xlink:href="#DejaVuSans-50" x="141.992188"/>
      <use xlink:href="#DejaVuSans-32" x="202.294922"/>
      <use xlink:href="#DejaVuSans-35" x="265.917969"/>
      <use xlink:href="#DejaVuSans-36" x="329.541016"/>
     </g>
    </g>
    <g id="line2d_24">
     <path d="M 520.625688 16.6 
L 540.625688 16.6 
L 560.625688 16.6 
" style="fill: none; stroke: #0fbcf9; stroke-opacity: 0.99; stroke-width: 2.4; stroke-linecap: square"/>
    </g>
    <g id="text_14">
     <!-- TinyLidarNet$^m$ -->
     <g transform="translate(576.625688 23.6) scale(0.2 -0.2)">
      <defs>
       <path id="DejaVuSans-69" d="M 603 3500 
L 1178 3500 
L 1178 0 
L 603 0 
L 603 3500 
z
M 603 4863 
L 1178 4863 
L 1178 4134 
L 603 4134 
L 603 4863 
z
" transform="scale(0.015625)"/>
       <path id="DejaVuSans-6e" d="M 3513 2113 
L 3513 0 
L 2938 0 
L 2938 2094 
Q 2938 2591 2744 2837 
Q 2550 3084 2163 3084 
Q 1697 3084 1428 2787 
Q 1159 2491 1159 1978 
L 1159 0 
L 581 0 
L 581 3500 
L 1159 3500 
L 1159 2956 
Q 1366 3272 1645 3428 
Q 1925 3584 2291 3584 
Q 2894 3584 3203 3211 
Q 3513 2838 3513 2113 
z
" transform="scale(0.015625)"/>
       <path id="DejaVuSans-79" d="M 2059 -325 
Q 1816 -950 1584 -1140 
Q 1353 -1331 966 -1331 
L 506 -1331 
L 506 -850 
L 844 -850 
Q 1081 -850 1212 -737 
Q 1344 -625 1503 -206 
L 1606 56 
L 191 3500 
L 800 3500 
L 1894 763 
L 2988 3500 
L 3597 3500 
L 2059 -325 
z
" transform="scale(0.015625)"/>
       <path id="DejaVuSans-4e" d="M 628 4666 
L 1478 4666 
L 3547 763 
L 3547 4666 
L 4159 4666 
L 4159 0 
L 3309 0 
L 1241 3903 
L 1241 0 
L 628 0 
L 628 4666 
z
" transform="scale(0.015625)"/>
       <path id="DejaVuSans-74" d="M 1172 4494 
L 1172 3500 
L 2356 3500 
L 2356 3053 
L 1172 3053 
L 1172 1153 
Q 1172 725 1289 603 
Q 1406 481 1766 481 
L 2356 481 
L 2356 0 
L 1766 0 
Q 1100 0 847 248 
Q 594 497 594 1153 
L 594 3053 
L 172 3053 
L 172 3500 
L 594 3500 
L 594 4494 
L 1172 4494 
z
" transform="scale(0.015625)"/>
       <path id="DejaVuSans-Oblique-6d" d="M 5747 2113 
L 5338 0 
L 4763 0 
L 5166 2094 
Q 5191 2228 5203 2325 
Q 5216 2422 5216 2491 
Q 5216 2772 5059 2928 
Q 4903 3084 4622 3084 
Q 4203 3084 3875 2770 
Q 3547 2456 3450 1953 
L 3066 0 
L 2491 0 
L 2900 2094 
Q 2925 2209 2937 2307 
Q 2950 2406 2950 2484 
Q 2950 2769 2794 2926 
Q 2638 3084 2363 3084 
Q 1938 3084 1609 2770 
Q 1281 2456 1184 1953 
L 800 0 
L 225 0 
L 909 3500 
L 1484 3500 
L 1375 2956 
Q 1609 3263 1923 3423 
Q 2238 3584 2597 3584 
Q 2978 3584 3223 3384 
Q 3469 3184 3519 2828 
Q 3781 3197 4126 3390 
Q 4472 3584 4856 3584 
Q 5306 3584 5551 3325 
Q 5797 3066 5797 2591 
Q 5797 2488 5784 2364 
Q 5772 2241 5747 2113 
z
" transform="scale(0.015625)"/>
      </defs>
      <use xlink:href="#DejaVuSans-54" transform="translate(0 0.51875)"/>
      <use xlink:href="#DejaVuSans-69" transform="translate(61.083984 0.51875)"/>
      <use xlink:href="#DejaVuSans-6e" transform="translate(88.867188 0.51875)"/>
      <use xlink:href="#DejaVuSans-79" transform="translate(152.246094 0.51875)"/>
      <use xlink:href="#DejaVuSans-4c" transform="translate(211.425781 0.51875)"/>
      <use xlink:href="#DejaVuSans-69" transform="translate(267.138672 0.51875)"/>
      <use xlink:href="#DejaVuSans-64" transform="translate(294.921875 0.51875)"/>
      <use xlink:href="#DejaVuSans-61" transform="translate(358.398438 0.51875)"/>
      <use xlink:href="#DejaVuSans-72" transform="translate(419.677734 0.51875)"/>
      <use xlink:href="#DejaVuSans-4e" transform="translate(460.791016 0.51875)"/>
      <use xlink:href="#DejaVuSans-65" transform="translate(535.595703 0.51875)"/>
      <use xlink:href="#DejaVuSans-74" transform="translate(597.119141 0.51875)"/>
      <use xlink:href="#DejaVuSans-Oblique-6d" transform="translate(637.285156 38.8) scale(0.7)"/>
     </g>
    </g>
   </g>
  </g>
 </g>
 <defs>
  <clipPath id="p7045eb7786">
   <rect x="46.9525" y="72.25112" width="1010.95" height="362.3408"/>
  </clipPath>
 </defs>
</svg>
