<?xml version="1.0" encoding="utf-8" standalone="no"?>
<!DOCTYPE svg PUBLIC "-//W3C//DTD SVG 1.1//EN"
  "http://www.w3.org/Graphics/SVG/1.1/DTD/svg11.dtd">
<svg xmlns:xlink="http://www.w3.org/1999/xlink" width="1057.9025pt" height="489.775395pt" viewBox="0 0 1057.9025 489.775395" xmlns="http://www.w3.org/2000/svg" version="1.1">
 <metadata>
  <rdf:RDF xmlns:dc="http://purl.org/dc/elements/1.1/" xmlns:cc="http://creativecommons.org/ns#" xmlns:rdf="http://www.w3.org/1999/02/22-rdf-syntax-ns#">
   <cc:Work>
    <dc:type rdf:resource="http://purl.org/dc/dcmitype/StillImage"/>
    <dc:date>2024-04-23T12:13:36.983910</dc:date>
    <dc:format>image/svg+xml</dc:format>
    <dc:creator>
     <cc:Agent>
      <dc:title>Matplotlib v3.5.2, https://matplotlib.org/</dc:title>
     </cc:Agent>
    </dc:creator>
   </cc:Work>
  </rdf:RDF>
 </metadata>
 <defs>
  <style type="text/css">*{stroke-linejoin: round; stroke-linecap: butt}</style>
 </defs>
 <g id="figure_1">
  <g id="patch_1">
   <path d="M 0 489.775395 
L 1057.9025 489.775395 
L 1057.9025 0 
L 0 0 
z
" style="fill: #ffffff"/>
  </g>
  <g id="axes_1">
   <g id="patch_2">
    <path d="M 46.9525 436.191645 
L 1057.9025 436.191645 
L 1057.9025 72.266845 
L 46.9525 72.266845 
z
" style="fill: #ffffff"/>
   </g>
   <g id="matplotlib.axis_1">
    <g id="xtick_1">
     <g id="line2d_1">
      <path d="M 92.904773 436.191645 
L 92.904773 72.266845 
" clip-path="url(#p9f8c059280)" style="fill: none; stroke: #b0b0b0; stroke-width: 0.8; stroke-linecap: square"/>
     </g>
     <g id="line2d_2">
      <defs>
       <path id="m2900b63ebc" d="M 0 0 
L 0 3.5 
" style="stroke: #000000; stroke-width: 0.8"/>
      </defs>
      <g>
       <use xlink:href="#m2900b63ebc" x="92.904773" y="436.191645" style="stroke: #000000; stroke-width: 0.8"/>
      </g>
     </g>
     <g id="text_1">
      <!-- 0 -->
      <g transform="translate(86.542273 458.38852)scale(0.2 -0.2)">
       <defs>
        <path id="DejaVuSans-30" d="M 2034 4250 
Q 1547 4250 1301 3770 
Q 1056 3291 1056 2328 
Q 1056 1369 1301 889 
Q 1547 409 2034 409 
Q 2525 409 2770 889 
Q 3016 1369 3016 2328 
Q 3016 3291 2770 3770 
Q 2525 4250 2034 4250 
z
M 2034 4750 
Q 2819 4750 3233 4129 
Q 3647 3509 3647 2328 
Q 3647 1150 3233 529 
Q 2819 -91 2034 -91 
Q 1250 -91 836 529 
Q 422 1150 422 2328 
Q 422 3509 836 4129 
Q 1250 4750 2034 4750 
z
" transform="scale(0.015625)"/>
       </defs>
       <use xlink:href="#DejaVuSans-30"/>
      </g>
     </g>
    </g>
    <g id="xtick_2">
     <g id="line2d_3">
      <path d="M 277.64755 436.191645 
L 277.64755 72.266845 
" clip-path="url(#p9f8c059280)" style="fill: none; stroke: #b0b0b0; stroke-width: 0.8; stroke-linecap: square"/>
     </g>
     <g id="line2d_4">
      <g>
       <use xlink:href="#m2900b63ebc" x="277.64755" y="436.191645" style="stroke: #000000; stroke-width: 0.8"/>
      </g>
     </g>
     <g id="text_2">
      <!-- 20 -->
      <g transform="translate(264.92255 458.38852)scale(0.2 -0.2)">
       <defs>
        <path id="DejaVuSans-32" d="M 1228 531 
L 3431 531 
L 3431 0 
L 469 0 
L 469 531 
Q 828 903 1448 1529 
Q 2069 2156 2228 2338 
Q 2531 2678 2651 2914 
Q 2772 3150 2772 3378 
Q 2772 3750 2511 3984 
Q 2250 4219 1831 4219 
Q 1534 4219 1204 4116 
Q 875 4013 500 3803 
L 500 4441 
Q 881 4594 1212 4672 
Q 1544 4750 1819 4750 
Q 2544 4750 2975 4387 
Q 3406 4025 3406 3419 
Q 3406 3131 3298 2873 
Q 3191 2616 2906 2266 
Q 2828 2175 2409 1742 
Q 1991 1309 1228 531 
z
" transform="scale(0.015625)"/>
       </defs>
       <use xlink:href="#DejaVuSans-32"/>
       <use xlink:href="#DejaVuSans-30" x="63.623047"/>
      </g>
     </g>
    </g>
    <g id="xtick_3">
     <g id="line2d_5">
      <path d="M 462.390327 436.191645 
L 462.390327 72.266845 
" clip-path="url(#p9f8c059280)" style="fill: none; stroke: #b0b0b0; stroke-width: 0.8; stroke-linecap: square"/>
     </g>
     <g id="line2d_6">
      <g>
       <use xlink:href="#m2900b63ebc" x="462.390327" y="436.191645" style="stroke: #000000; stroke-width: 0.8"/>
      </g>
     </g>
     <g id="text_3">
      <!-- 40 -->
      <g transform="translate(449.665327 458.38852)scale(0.2 -0.2)">
       <defs>
        <path id="DejaVuSans-34" d="M 2419 4116 
L 825 1625 
L 2419 1625 
L 2419 4116 
z
M 2253 4666 
L 3047 4666 
L 3047 1625 
L 3713 1625 
L 3713 1100 
L 3047 1100 
L 3047 0 
L 2419 0 
L 2419 1100 
L 313 1100 
L 313 1709 
L 2253 4666 
z
" transform="scale(0.015625)"/>
       </defs>
       <use xlink:href="#DejaVuSans-34"/>
       <use xlink:href="#DejaVuSans-30" x="63.623047"/>
      </g>
     </g>
    </g>
    <g id="xtick_4">
     <g id="line2d_7">
      <path d="M 647.133104 436.191645 
L 647.133104 72.266845 
" clip-path="url(#p9f8c059280)" style="fill: none; stroke: #b0b0b0; stroke-width: 0.8; stroke-linecap: square"/>
     </g>
     <g id="line2d_8">
      <g>
       <use xlink:href="#m2900b63ebc" x="647.133104" y="436.191645" style="stroke: #000000; stroke-width: 0.8"/>
      </g>
     </g>
     <g id="text_4">
      <!-- 60 -->
      <g transform="translate(634.408104 458.38852)scale(0.2 -0.2)">
       <defs>
        <path id="DejaVuSans-36" d="M 2113 2584 
Q 1688 2584 1439 2293 
Q 1191 2003 1191 1497 
Q 1191 994 1439 701 
Q 1688 409 2113 409 
Q 2538 409 2786 701 
Q 3034 994 3034 1497 
Q 3034 2003 2786 2293 
Q 2538 2584 2113 2584 
z
M 3366 4563 
L 3366 3988 
Q 3128 4100 2886 4159 
Q 2644 4219 2406 4219 
Q 1781 4219 1451 3797 
Q 1122 3375 1075 2522 
Q 1259 2794 1537 2939 
Q 1816 3084 2150 3084 
Q 2853 3084 3261 2657 
Q 3669 2231 3669 1497 
Q 3669 778 3244 343 
Q 2819 -91 2113 -91 
Q 1303 -91 875 529 
Q 447 1150 447 2328 
Q 447 3434 972 4092 
Q 1497 4750 2381 4750 
Q 2619 4750 2861 4703 
Q 3103 4656 3366 4563 
z
" transform="scale(0.015625)"/>
       </defs>
       <use xlink:href="#DejaVuSans-36"/>
       <use xlink:href="#DejaVuSans-30" x="63.623047"/>
      </g>
     </g>
    </g>
    <g id="xtick_5">
     <g id="line2d_9">
      <path d="M 831.875881 436.191645 
L 831.875881 72.266845 
" clip-path="url(#p9f8c059280)" style="fill: none; stroke: #b0b0b0; stroke-width: 0.8; stroke-linecap: square"/>
     </g>
     <g id="line2d_10">
      <g>
       <use xlink:href="#m2900b63ebc" x="831.875881" y="436.191645" style="stroke: #000000; stroke-width: 0.8"/>
      </g>
     </g>
     <g id="text_5">
      <!-- 80 -->
      <g transform="translate(819.150881 458.38852)scale(0.2 -0.2)">
       <defs>
        <path id="DejaVuSans-38" d="M 2034 2216 
Q 1584 2216 1326 1975 
Q 1069 1734 1069 1313 
Q 1069 891 1326 650 
Q 1584 409 2034 409 
Q 2484 409 2743 651 
Q 3003 894 3003 1313 
Q 3003 1734 2745 1975 
Q 2488 2216 2034 2216 
z
M 1403 2484 
Q 997 2584 770 2862 
Q 544 3141 544 3541 
Q 544 4100 942 4425 
Q 1341 4750 2034 4750 
Q 2731 4750 3128 4425 
Q 3525 4100 3525 3541 
Q 3525 3141 3298 2862 
Q 3072 2584 2669 2484 
Q 3125 2378 3379 2068 
Q 3634 1759 3634 1313 
Q 3634 634 3220 271 
Q 2806 -91 2034 -91 
Q 1263 -91 848 271 
Q 434 634 434 1313 
Q 434 1759 690 2068 
Q 947 2378 1403 2484 
z
M 1172 3481 
Q 1172 3119 1398 2916 
Q 1625 2713 2034 2713 
Q 2441 2713 2670 2916 
Q 2900 3119 2900 3481 
Q 2900 3844 2670 4047 
Q 2441 4250 2034 4250 
Q 1625 4250 1398 4047 
Q 1172 3844 1172 3481 
z
" transform="scale(0.015625)"/>
       </defs>
       <use xlink:href="#DejaVuSans-38"/>
       <use xlink:href="#DejaVuSans-30" x="63.623047"/>
      </g>
     </g>
    </g>
    <g id="xtick_6">
     <g id="line2d_11">
      <path d="M 1016.618658 436.191645 
L 1016.618658 72.266845 
" clip-path="url(#p9f8c059280)" style="fill: none; stroke: #b0b0b0; stroke-width: 0.8; stroke-linecap: square"/>
     </g>
     <g id="line2d_12">
      <g>
       <use xlink:href="#m2900b63ebc" x="1016.618658" y="436.191645" style="stroke: #000000; stroke-width: 0.8"/>
      </g>
     </g>
     <g id="text_6">
      <!-- 100 -->
      <g transform="translate(997.531158 458.38852)scale(0.2 -0.2)">
       <defs>
        <path id="DejaVuSans-31" d="M 794 531 
L 1825 531 
L 1825 4091 
L 703 3866 
L 703 4441 
L 1819 4666 
L 2450 4666 
L 2450 531 
L 3481 531 
L 3481 0 
L 794 0 
L 794 531 
z
" transform="scale(0.015625)"/>
       </defs>
       <use xlink:href="#DejaVuSans-31"/>
       <use xlink:href="#DejaVuSans-30" x="63.623047"/>
       <use xlink:href="#DejaVuSans-30" x="127.246094"/>
      </g>
     </g>
    </g>
    <g id="text_7">
     <!-- Track progress [%] -->
     <g transform="translate(440.85 484.784145)scale(0.24 -0.24)">
      <defs>
       <path id="DejaVuSans-54" d="M -19 4666 
L 3928 4666 
L 3928 4134 
L 2272 4134 
L 2272 0 
L 1638 0 
L 1638 4134 
L -19 4134 
L -19 4666 
z
" transform="scale(0.015625)"/>
       <path id="DejaVuSans-72" d="M 2631 2963 
Q 2534 3019 2420 3045 
Q 2306 3072 2169 3072 
Q 1681 3072 1420 2755 
Q 1159 2438 1159 1844 
L 1159 0 
L 581 0 
L 581 3500 
L 1159 3500 
L 1159 2956 
Q 1341 3275 1631 3429 
Q 1922 3584 2338 3584 
Q 2397 3584 2469 3576 
Q 2541 3569 2628 3553 
L 2631 2963 
z
" transform="scale(0.015625)"/>
       <path id="DejaVuSans-61" d="M 2194 1759 
Q 1497 1759 1228 1600 
Q 959 1441 959 1056 
Q 959 750 1161 570 
Q 1363 391 1709 391 
Q 2188 391 2477 730 
Q 2766 1069 2766 1631 
L 2766 1759 
L 2194 1759 
z
M 3341 1997 
L 3341 0 
L 2766 0 
L 2766 531 
Q 2569 213 2275 61 
Q 1981 -91 1556 -91 
Q 1019 -91 701 211 
Q 384 513 384 1019 
Q 384 1609 779 1909 
Q 1175 2209 1959 2209 
L 2766 2209 
L 2766 2266 
Q 2766 2663 2505 2880 
Q 2244 3097 1772 3097 
Q 1472 3097 1187 3025 
Q 903 2953 641 2809 
L 641 3341 
Q 956 3463 1253 3523 
Q 1550 3584 1831 3584 
Q 2591 3584 2966 3190 
Q 3341 2797 3341 1997 
z
" transform="scale(0.015625)"/>
       <path id="DejaVuSans-63" d="M 3122 3366 
L 3122 2828 
Q 2878 2963 2633 3030 
Q 2388 3097 2138 3097 
Q 1578 3097 1268 2742 
Q 959 2388 959 1747 
Q 959 1106 1268 751 
Q 1578 397 2138 397 
Q 2388 397 2633 464 
Q 2878 531 3122 666 
L 3122 134 
Q 2881 22 2623 -34 
Q 2366 -91 2075 -91 
Q 1284 -91 818 406 
Q 353 903 353 1747 
Q 353 2603 823 3093 
Q 1294 3584 2113 3584 
Q 2378 3584 2631 3529 
Q 2884 3475 3122 3366 
z
" transform="scale(0.015625)"/>
       <path id="DejaVuSans-6b" d="M 581 4863 
L 1159 4863 
L 1159 1991 
L 2875 3500 
L 3609 3500 
L 1753 1863 
L 3688 0 
L 2938 0 
L 1159 1709 
L 1159 0 
L 581 0 
L 581 4863 
z
" transform="scale(0.015625)"/>
       <path id="DejaVuSans-20" transform="scale(0.015625)"/>
       <path id="DejaVuSans-70" d="M 1159 525 
L 1159 -1331 
L 581 -1331 
L 581 3500 
L 1159 3500 
L 1159 2969 
Q 1341 3281 1617 3432 
Q 1894 3584 2278 3584 
Q 2916 3584 3314 3078 
Q 3713 2572 3713 1747 
Q 3713 922 3314 415 
Q 2916 -91 2278 -91 
Q 1894 -91 1617 61 
Q 1341 213 1159 525 
z
M 3116 1747 
Q 3116 2381 2855 2742 
Q 2594 3103 2138 3103 
Q 1681 3103 1420 2742 
Q 1159 2381 1159 1747 
Q 1159 1113 1420 752 
Q 1681 391 2138 391 
Q 2594 391 2855 752 
Q 3116 1113 3116 1747 
z
" transform="scale(0.015625)"/>
       <path id="DejaVuSans-6f" d="M 1959 3097 
Q 1497 3097 1228 2736 
Q 959 2375 959 1747 
Q 959 1119 1226 758 
Q 1494 397 1959 397 
Q 2419 397 2687 759 
Q 2956 1122 2956 1747 
Q 2956 2369 2687 2733 
Q 2419 3097 1959 3097 
z
M 1959 3584 
Q 2709 3584 3137 3096 
Q 3566 2609 3566 1747 
Q 3566 888 3137 398 
Q 2709 -91 1959 -91 
Q 1206 -91 779 398 
Q 353 888 353 1747 
Q 353 2609 779 3096 
Q 1206 3584 1959 3584 
z
" transform="scale(0.015625)"/>
       <path id="DejaVuSans-67" d="M 2906 1791 
Q 2906 2416 2648 2759 
Q 2391 3103 1925 3103 
Q 1463 3103 1205 2759 
Q 947 2416 947 1791 
Q 947 1169 1205 825 
Q 1463 481 1925 481 
Q 2391 481 2648 825 
Q 2906 1169 2906 1791 
z
M 3481 434 
Q 3481 -459 3084 -895 
Q 2688 -1331 1869 -1331 
Q 1566 -1331 1297 -1286 
Q 1028 -1241 775 -1147 
L 775 -588 
Q 1028 -725 1275 -790 
Q 1522 -856 1778 -856 
Q 2344 -856 2625 -561 
Q 2906 -266 2906 331 
L 2906 616 
Q 2728 306 2450 153 
Q 2172 0 1784 0 
Q 1141 0 747 490 
Q 353 981 353 1791 
Q 353 2603 747 3093 
Q 1141 3584 1784 3584 
Q 2172 3584 2450 3431 
Q 2728 3278 2906 2969 
L 2906 3500 
L 3481 3500 
L 3481 434 
z
" transform="scale(0.015625)"/>
       <path id="DejaVuSans-65" d="M 3597 1894 
L 3597 1613 
L 953 1613 
Q 991 1019 1311 708 
Q 1631 397 2203 397 
Q 2534 397 2845 478 
Q 3156 559 3463 722 
L 3463 178 
Q 3153 47 2828 -22 
Q 2503 -91 2169 -91 
Q 1331 -91 842 396 
Q 353 884 353 1716 
Q 353 2575 817 3079 
Q 1281 3584 2069 3584 
Q 2775 3584 3186 3129 
Q 3597 2675 3597 1894 
z
M 3022 2063 
Q 3016 2534 2758 2815 
Q 2500 3097 2075 3097 
Q 1594 3097 1305 2825 
Q 1016 2553 972 2059 
L 3022 2063 
z
" transform="scale(0.015625)"/>
       <path id="DejaVuSans-73" d="M 2834 3397 
L 2834 2853 
Q 2591 2978 2328 3040 
Q 2066 3103 1784 3103 
Q 1356 3103 1142 2972 
Q 928 2841 928 2578 
Q 928 2378 1081 2264 
Q 1234 2150 1697 2047 
L 1894 2003 
Q 2506 1872 2764 1633 
Q 3022 1394 3022 966 
Q 3022 478 2636 193 
Q 2250 -91 1575 -91 
Q 1294 -91 989 -36 
Q 684 19 347 128 
L 347 722 
Q 666 556 975 473 
Q 1284 391 1588 391 
Q 1994 391 2212 530 
Q 2431 669 2431 922 
Q 2431 1156 2273 1281 
Q 2116 1406 1581 1522 
L 1381 1569 
Q 847 1681 609 1914 
Q 372 2147 372 2553 
Q 372 3047 722 3315 
Q 1072 3584 1716 3584 
Q 2034 3584 2315 3537 
Q 2597 3491 2834 3397 
z
" transform="scale(0.015625)"/>
       <path id="DejaVuSans-5b" d="M 550 4863 
L 1875 4863 
L 1875 4416 
L 1125 4416 
L 1125 -397 
L 1875 -397 
L 1875 -844 
L 550 -844 
L 550 4863 
z
" transform="scale(0.015625)"/>
       <path id="DejaVuSans-25" d="M 4653 2053 
Q 4381 2053 4226 1822 
Q 4072 1591 4072 1178 
Q 4072 772 4226 539 
Q 4381 306 4653 306 
Q 4919 306 5073 539 
Q 5228 772 5228 1178 
Q 5228 1588 5073 1820 
Q 4919 2053 4653 2053 
z
M 4653 2450 
Q 5147 2450 5437 2106 
Q 5728 1763 5728 1178 
Q 5728 594 5436 251 
Q 5144 -91 4653 -91 
Q 4153 -91 3862 251 
Q 3572 594 3572 1178 
Q 3572 1766 3864 2108 
Q 4156 2450 4653 2450 
z
M 1428 4353 
Q 1159 4353 1004 4120 
Q 850 3888 850 3481 
Q 850 3069 1003 2837 
Q 1156 2606 1428 2606 
Q 1700 2606 1854 2837 
Q 2009 3069 2009 3481 
Q 2009 3884 1853 4118 
Q 1697 4353 1428 4353 
z
M 4250 4750 
L 4750 4750 
L 1831 -91 
L 1331 -91 
L 4250 4750 
z
M 1428 4750 
Q 1922 4750 2215 4408 
Q 2509 4066 2509 3481 
Q 2509 2891 2217 2550 
Q 1925 2209 1428 2209 
Q 931 2209 642 2551 
Q 353 2894 353 3481 
Q 353 4063 643 4406 
Q 934 4750 1428 4750 
z
" transform="scale(0.015625)"/>
       <path id="DejaVuSans-5d" d="M 1947 4863 
L 1947 -844 
L 622 -844 
L 622 -397 
L 1369 -397 
L 1369 4416 
L 622 4416 
L 622 4863 
L 1947 4863 
z
" transform="scale(0.015625)"/>
      </defs>
      <use xlink:href="#DejaVuSans-54"/>
      <use xlink:href="#DejaVuSans-72" x="46.333984"/>
      <use xlink:href="#DejaVuSans-61" x="87.447266"/>
      <use xlink:href="#DejaVuSans-63" x="148.726562"/>
      <use xlink:href="#DejaVuSans-6b" x="203.707031"/>
      <use xlink:href="#DejaVuSans-20" x="261.617188"/>
      <use xlink:href="#DejaVuSans-70" x="293.404297"/>
      <use xlink:href="#DejaVuSans-72" x="356.880859"/>
      <use xlink:href="#DejaVuSans-6f" x="395.744141"/>
      <use xlink:href="#DejaVuSans-67" x="456.925781"/>
      <use xlink:href="#DejaVuSans-72" x="520.402344"/>
      <use xlink:href="#DejaVuSans-65" x="559.265625"/>
      <use xlink:href="#DejaVuSans-73" x="620.789062"/>
      <use xlink:href="#DejaVuSans-73" x="672.888672"/>
      <use xlink:href="#DejaVuSans-20" x="724.988281"/>
      <use xlink:href="#DejaVuSans-5b" x="756.775391"/>
      <use xlink:href="#DejaVuSans-25" x="795.789062"/>
      <use xlink:href="#DejaVuSans-5d" x="890.808594"/>
     </g>
    </g>
   </g>
   <g id="matplotlib.axis_2">
    <g id="ytick_1">
     <g id="line2d_13">
      <path d="M 46.9525 387.668338 
L 1057.9025 387.668338 
" clip-path="url(#p9f8c059280)" style="fill: none; stroke: #b0b0b0; stroke-width: 0.8; stroke-linecap: square"/>
     </g>
     <g id="line2d_14">
      <defs>
       <path id="mc76bb0e6c0" d="M 0 0 
L -3.5 0 
" style="stroke: #000000; stroke-width: 0.8"/>
      </defs>
      <g>
       <use xlink:href="#mc76bb0e6c0" x="46.9525" y="387.668338" style="stroke: #000000; stroke-width: 0.8"/>
      </g>
     </g>
     <g id="text_8">
      <!-- 2 -->
      <g transform="translate(27.2275 395.266776)scale(0.2 -0.2)">
       <use xlink:href="#DejaVuSans-32"/>
      </g>
     </g>
    </g>
    <g id="ytick_2">
     <g id="line2d_15">
      <path d="M 46.9525 290.621725 
L 1057.9025 290.621725 
" clip-path="url(#p9f8c059280)" style="fill: none; stroke: #b0b0b0; stroke-width: 0.8; stroke-linecap: square"/>
     </g>
     <g id="line2d_16">
      <g>
       <use xlink:href="#mc76bb0e6c0" x="46.9525" y="290.621725" style="stroke: #000000; stroke-width: 0.8"/>
      </g>
     </g>
     <g id="text_9">
      <!-- 4 -->
      <g transform="translate(27.2275 298.220162)scale(0.2 -0.2)">
       <use xlink:href="#DejaVuSans-34"/>
      </g>
     </g>
    </g>
    <g id="ytick_3">
     <g id="line2d_17">
      <path d="M 46.9525 193.575112 
L 1057.9025 193.575112 
" clip-path="url(#p9f8c059280)" style="fill: none; stroke: #b0b0b0; stroke-width: 0.8; stroke-linecap: square"/>
     </g>
     <g id="line2d_18">
      <g>
       <use xlink:href="#mc76bb0e6c0" x="46.9525" y="193.575112" style="stroke: #000000; stroke-width: 0.8"/>
      </g>
     </g>
     <g id="text_10">
      <!-- 6 -->
      <g transform="translate(27.2275 201.173549)scale(0.2 -0.2)">
       <use xlink:href="#DejaVuSans-36"/>
      </g>
     </g>
    </g>
    <g id="ytick_4">
     <g id="line2d_19">
      <path d="M 46.9525 96.528498 
L 1057.9025 96.528498 
" clip-path="url(#p9f8c059280)" style="fill: none; stroke: #b0b0b0; stroke-width: 0.8; stroke-linecap: square"/>
     </g>
     <g id="line2d_20">
      <g>
       <use xlink:href="#mc76bb0e6c0" x="46.9525" y="96.528498" style="stroke: #000000; stroke-width: 0.8"/>
      </g>
     </g>
     <g id="text_11">
      <!-- 8 -->
      <g transform="translate(27.2275 104.126936)scale(0.2 -0.2)">
       <use xlink:href="#DejaVuSans-38"/>
      </g>
     </g>
    </g>
    <g id="text_12">
     <!-- Speed [m/s] -->
     <g transform="translate(18.23625 327.01112)rotate(-90)scale(0.24 -0.24)">
      <defs>
       <path id="DejaVuSans-53" d="M 3425 4513 
L 3425 3897 
Q 3066 4069 2747 4153 
Q 2428 4238 2131 4238 
Q 1616 4238 1336 4038 
Q 1056 3838 1056 3469 
Q 1056 3159 1242 3001 
Q 1428 2844 1947 2747 
L 2328 2669 
Q 3034 2534 3370 2195 
Q 3706 1856 3706 1288 
Q 3706 609 3251 259 
Q 2797 -91 1919 -91 
Q 1588 -91 1214 -16 
Q 841 59 441 206 
L 441 856 
Q 825 641 1194 531 
Q 1563 422 1919 422 
Q 2459 422 2753 634 
Q 3047 847 3047 1241 
Q 3047 1584 2836 1778 
Q 2625 1972 2144 2069 
L 1759 2144 
Q 1053 2284 737 2584 
Q 422 2884 422 3419 
Q 422 4038 858 4394 
Q 1294 4750 2059 4750 
Q 2388 4750 2728 4690 
Q 3069 4631 3425 4513 
z
" transform="scale(0.015625)"/>
       <path id="DejaVuSans-64" d="M 2906 2969 
L 2906 4863 
L 3481 4863 
L 3481 0 
L 2906 0 
L 2906 525 
Q 2725 213 2448 61 
Q 2172 -91 1784 -91 
Q 1150 -91 751 415 
Q 353 922 353 1747 
Q 353 2572 751 3078 
Q 1150 3584 1784 3584 
Q 2172 3584 2448 3432 
Q 2725 3281 2906 2969 
z
M 947 1747 
Q 947 1113 1208 752 
Q 1469 391 1925 391 
Q 2381 391 2643 752 
Q 2906 1113 2906 1747 
Q 2906 2381 2643 2742 
Q 2381 3103 1925 3103 
Q 1469 3103 1208 2742 
Q 947 2381 947 1747 
z
" transform="scale(0.015625)"/>
       <path id="DejaVuSans-6d" d="M 3328 2828 
Q 3544 3216 3844 3400 
Q 4144 3584 4550 3584 
Q 5097 3584 5394 3201 
Q 5691 2819 5691 2113 
L 5691 0 
L 5113 0 
L 5113 2094 
Q 5113 2597 4934 2840 
Q 4756 3084 4391 3084 
Q 3944 3084 3684 2787 
Q 3425 2491 3425 1978 
L 3425 0 
L 2847 0 
L 2847 2094 
Q 2847 2600 2669 2842 
Q 2491 3084 2119 3084 
Q 1678 3084 1418 2786 
Q 1159 2488 1159 1978 
L 1159 0 
L 581 0 
L 581 3500 
L 1159 3500 
L 1159 2956 
Q 1356 3278 1631 3431 
Q 1906 3584 2284 3584 
Q 2666 3584 2933 3390 
Q 3200 3197 3328 2828 
z
" transform="scale(0.015625)"/>
       <path id="DejaVuSans-2f" d="M 1625 4666 
L 2156 4666 
L 531 -594 
L 0 -594 
L 1625 4666 
z
" transform="scale(0.015625)"/>
      </defs>
      <use xlink:href="#DejaVuSans-53"/>
      <use xlink:href="#DejaVuSans-70" x="63.476562"/>
      <use xlink:href="#DejaVuSans-65" x="126.953125"/>
      <use xlink:href="#DejaVuSans-65" x="188.476562"/>
      <use xlink:href="#DejaVuSans-64" x="250"/>
      <use xlink:href="#DejaVuSans-20" x="313.476562"/>
      <use xlink:href="#DejaVuSans-5b" x="345.263672"/>
      <use xlink:href="#DejaVuSans-6d" x="384.277344"/>
      <use xlink:href="#DejaVuSans-2f" x="481.689453"/>
      <use xlink:href="#DejaVuSans-73" x="515.380859"/>
      <use xlink:href="#DejaVuSans-5d" x="567.480469"/>
     </g>
    </g>
   </g>
   <g id="line2d_21">
    <path d="M 92.904773 484.714952 
L 93.008533 474.38752 
L 93.008533 439.778271 
L 93.491114 428.241855 
L 93.491114 405.169023 
L 94.134556 382.09619 
L 94.617137 370.559774 
L 94.617137 359.047479 
L 95.314198 347.540807 
L 96.1185 326.960576 
L 96.761942 317.680476 
L 97.244523 308.245665 
L 97.244523 300.128338 
L 98.370546 293.090069 
L 98.370546 287.521304 
L 99.389328 282.664072 
L 99.871909 277.992991 
L 100.997932 269.810859 
L 102.177574 265.872963 
L 102.177574 262.592918 
L 103.625318 259.253602 
L 103.625318 256.823034 
L 104.75134 254.562851 
L 104.75134 253.169894 
L 106.252704 250.901914 
L 106.252704 248.595743 
L 108.558369 245.689749 
L 108.558369 243.923289 
L 109.577152 243.052141 
L 110.006113 241.767448 
L 111.185755 240.234049 
L 111.185755 239.754885 
L 112.633499 238.345172 
L 112.633499 237.549715 
L 113.813141 236.648127 
L 113.813141 236.0623 
L 116.440528 236.522338 
L 116.440528 236.310224 
L 117.56655 235.376793 
L 117.56655 234.705923 
L 119.014294 234.251154 
L 120.193936 233.409882 
L 120.193936 234.680941 
L 121.64168 234.931849 
L 122.124261 234.15541 
L 123.303903 233.514935 
L 124.429926 238.114008 
L 124.429926 244.943577 
L 126.360251 256.479993 
L 126.735591 268.016409 
L 127.539893 279.552825 
L 128.022474 291.089241 
L 128.826776 292.888334 
L 129.148497 292.070209 
L 129.631078 290.08099 
L 131.239682 286.632834 
L 131.239682 282.163223 
L 131.722263 276.26992 
L 132.043984 270.585909 
L 132.848286 265.728612 
L 134.135169 261.863877 
L 134.135169 258.783388 
L 134.61775 255.933353 
L 136.226354 253.230936 
L 136.226354 250.498992 
L 137.513236 247.78633 
L 137.513236 245.572841 
L 138.317538 243.647112 
L 139.604421 241.958529 
L 139.604421 240.406698 
L 141.373885 239.127022 
L 141.373885 238.275672 
L 142.660768 237.589916 
L 142.660768 236.984498 
L 143.947651 236.38056 
L 143.947651 236.203536 
L 145.663495 235.360344 
L 145.663495 234.725179 
L 147.43296 234.208613 
L 147.43296 233.635931 
L 147.915541 232.970109 
L 148.719843 232.451495 
L 150.489307 232.292044 
L 150.489307 233.044002 
L 150.489307 232.94423 
L 152.258771 232.699899 
L 152.258771 232.586141 
L 153.974615 232.670256 
L 153.974615 232.451223 
L 154.457196 232.025517 
L 156.22666 231.884004 
L 156.709241 231.748361 
L 157.996124 231.730389 
L 157.996124 231.340222 
L 159.711968 232.582126 
L 159.711968 232.985624 
L 161.964013 232.818004 
L 161.964013 234.115877 
L 164.216059 233.68142 
L 164.216059 233.19961 
L 164.69864 233.02 
L 166.414484 232.81182 
L 166.414484 232.535267 
L 166.897065 232.226511 
L 168.666529 232.39618 
L 168.666529 233.971087 
L 170.864954 234.654177 
L 170.864954 234.370089 
L 173.116999 233.873502 
L 173.59958 233.634271 
L 173.59958 233.393161 
L 175.851626 233.323765 
L 176.280587 233.889562 
L 176.280587 234.176758 
L 178.050051 235.103799 
L 178.532632 236.069329 
L 179.015213 236.106763 
L 179.015213 235.800239 
L 180.784677 235.340477 
L 182.1788 235.986275 
L 182.1788 236.562941 
L 182.661381 236.057071 
L 184.430845 235.740049 
L 184.913427 235.490061 
L 185.824969 235.692007 
L 185.824969 240.034602 
L 188.077014 241.4762 
L 188.559595 242.308121 
L 189.042176 244.216644 
L 189.953718 245.544207 
L 189.953718 245.955677 
L 192.688345 247.528095 
L 193.117306 247.130365 
L 194.082468 246.715034 
L 194.082468 250.168841 
L 195.851932 252.619422 
L 196.334513 255.612951 
L 197.246055 257.83278 
L 197.728636 257.652063 
L 198.211217 258.389315 
L 198.693799 259.982733 
L 198.693799 261.963332 
L 200.463263 263.554934 
L 201.374805 267.878132 
L 202.339967 268.816841 
L 202.822548 270.149032 
L 203.305129 271.95517 
L 203.78771 273.181309 
L 203.78771 274.479981 
L 204.216671 275.822739 
L 205.986136 275.631336 
L 206.468717 277.557391 
L 206.951298 278.754111 
L 207.433879 280.811822 
L 207.91646 281.533421 
L 208.345421 282.716589 
L 208.345421 284.311535 
L 209.632304 284.219296 
L 210.114885 283.965321 
L 211.562628 283.704455 
L 212.04521 285.663036 
L 212.474171 286.574807 
L 212.956752 289.17984 
L 213.439333 289.456815 
L 213.439333 288.98789 
L 214.726216 288.064665 
L 215.208797 287.148473 
L 215.691378 286.908851 
L 216.120339 285.998829 
L 217.085501 285.436849 
L 217.568082 286.656109 
L 218.050664 286.31442 
L 218.533245 285.661181 
L 218.962206 284.470751 
L 219.444787 283.694233 
L 220.249089 282.816409 
L 220.73167 282.042755 
L 221.696832 278.718234 
L 223.090955 277.599582 
L 223.573536 277.173819 
L 224.056117 279.235294 
L 224.538699 280.689952 
L 225.343 280.610328 
L 225.825582 285.066037 
L 226.308163 285.459039 
L 227.219705 285.744492 
L 228.077627 282.041018 
L 228.881929 287.39248 
L 229.203649 288.180252 
L 230.651393 286.14518 
L 230.651393 284.554039 
L 232.474477 282.594322 
L 232.474477 281.918033 
L 232.474477 282.987306 
L 234.297561 281.195479 
L 234.619282 276.720439 
L 234.619282 270.501974 
L 236.924947 263.936064 
L 236.924947 257.958325 
L 239.069752 252.656286 
L 239.069752 243.825931 
L 241.214557 240.50014 
L 241.214557 238.698872 
L 242.715921 238.207968 
L 242.715921 249.642511 
L 244.163664 260.267451 
L 245.933128 258.755292 
L 246.898291 254.356584 
L 247.863453 247.990789 
L 248.292414 245.253956 
L 249.257576 243.085437 
L 249.740157 240.689972 
L 250.705319 238.542574 
L 251.13428 236.759903 
L 251.616861 235.983189 
L 252.582024 235.432782 
L 253.976147 235.01959 
L 254.458728 234.842876 
L 255.906471 238.854447 
L 256.818014 244.183488 
L 257.675936 247.40348 
L 258.587478 249.960725 
L 259.070059 252.592228 
L 259.874361 255.692674 
L 260.356942 259.178039 
L 261.161244 260.278488 
L 262.448127 260.087716 
L 262.769847 261.496175 
L 264.378451 259.248042 
L 264.861032 261.028578 
L 265.343613 260.482787 
L 266.469636 260.191047 
L 266.844977 258.47707 
L 267.649279 257.346272 
L 268.13186 255.816857 
L 268.936162 254.914647 
L 269.579603 254.395286 
L 270.383905 254.388988 
L 270.866486 254.134086 
L 271.992509 256.910346 
L 272.36785 258.28421 
L 272.850431 261.451562 
L 273.815593 266.764585 
L 274.298174 266.691359 
L 275.102476 275.682459 
L 275.799538 276.599431 
L 276.282119 278.518708 
L 276.92556 280.236278 
L 277.408141 287.002289 
L 277.729862 289.525653 
L 278.909505 289.281606 
L 278.909505 288.799226 
L 279.874667 288.580599 
L 280.357248 288.198754 
L 280.678969 287.759867 
L 281.858612 288.746778 
L 281.858612 290.010882 
L 282.502053 289.298359 
L 283.199115 288.332101 
L 283.681696 287.872019 
L 284.807719 286.999324 
L 284.807719 287.061385 
L 285.826501 286.702592 
L 286.255462 286.395194 
L 286.255462 286.25751 
L 286.630803 285.083362 
L 288.078546 283.845704 
L 288.078546 281.9738 
L 289.258189 279.924578 
L 290.062491 278.030665 
L 290.062491 274.799428 
L 291.188513 274.568659 
L 291.188513 288.020795 
L 292.689877 287.336296 
L 293.494179 284.976651 
L 295.263643 285.129283 
L 298.588091 296.6657 
L 298.588091 302.628516 
L 298.588091 297.798221 
L 300.089454 292.737256 
L 300.089454 287.067508 
L 301.912538 285.199267 
L 301.912538 281.792101 
L 301.912538 292.573393 
L 302.234259 304.109809 
L 303.735623 303.871829 
L 304.057343 315.333729 
L 304.700785 313.029475 
L 305.076126 309.134608 
L 305.719567 305.737582 
L 306.89921 298.07546 
L 306.89921 292.150409 
L 307.220931 290.15651 
L 307.864372 297.679866 
L 308.883154 297.100189 
L 309.687456 290.390374 
L 310.009177 296.077424 
L 311.510541 294.122147 
L 312.153982 293.902045 
L 312.636563 292.595999 
L 313.333625 289.516933 
L 313.816206 288.86745 
L 314.459647 287.240635 
L 314.942229 285.432549 
L 315.74653 281.96485 
L 315.74653 279.661579 
L 316.872553 277.805181 
L 317.569615 273.799405 
L 318.052196 269.336097 
L 318.695637 265.431127 
L 319.98252 260.204991 
L 321.483884 257.016914 
L 321.966465 256.060849 
L 322.770767 255.326979 
L 324.37937 254.245004 
L 324.701091 253.752745 
L 325.505393 253.717172 
L 326.309695 253.30216 
L 326.792276 256.085793 
L 327.596578 257.279301 
L 328.40088 258.73101 
L 328.883461 260.411782 
L 329.687763 261.812879 
L 330.492065 261.777711 
L 330.867406 262.641865 
L 331.671707 262.856209 
L 332.154289 264.314688 
L 332.95859 264.70798 
L 333.762892 264.68173 
L 334.084613 265.393136 
L 335.371496 265.02359 
L 336.175798 264.426187 
L 336.658379 264.543791 
L 337.462681 265.037556 
L 338.266983 265.897581 
L 338.588703 265.097819 
L 339.553866 264.542042 
L 340.679888 262.202499 
L 341.162469 260.922401 
L 342.449352 260.758425 
L 343.253654 260.881426 
L 344.057956 260.837561 
L 344.379677 261.617915 
L 345.237599 261.606971 
L 345.237599 263.185332 
L 346.470862 263.503109 
L 347.328784 263.039061 
L 347.757745 264.7508 
L 348.133086 264.183524 
L 349.044628 263.803377 
L 349.84893 266.868439 
L 350.706852 268.826367 
L 351.028572 270.174044 
L 351.028572 269.574897 
L 352.315455 269.535826 
L 352.798036 268.540169 
L 353.602338 267.761725 
L 353.924059 270.3622 
L 353.924059 271.663201 
L 355.693523 271.014678 
L 356.015244 270.671551 
L 356.015244 270.315768 
L 357.302127 273.83613 
L 358.106429 281.854242 
L 358.106429 293.728415 
L 359.875893 296.56648 
L 360.197614 296.405266 
L 360.680195 307.766914 
L 361.001916 319.30333 
L 362.610519 326.806045 
L 362.610519 326.106868 
L 364.111883 336.388047 
L 364.111883 338.912112 
L 364.111883 336.344271 
L 365.559626 332.215325 
L 365.559626 328.497539 
L 367.38271 327.169763 
L 368.991314 318.490625 
L 371.136119 310.631944 
L 371.136119 300.449172 
L 372.959203 295.475335 
L 372.959203 291.937451 
L 374.138846 295.424081 
L 379.608099 292.495036 
L 379.608099 281.319952 
L 379.929819 278.921484 
L 381.860144 284.833659 
L 381.860144 296.370075 
L 381.860144 292.809613 
L 383.683228 284.409918 
L 384.004949 280.752634 
L 384.004949 278.592697 
L 384.38029 279.260965 
L 385.828033 290.797381 
L 386.149754 300.740278 
L 386.846816 298.593178 
L 386.846816 297.966504 
L 387.168536 296.097241 
L 388.348179 292.203882 
L 389.474202 291.207901 
L 390.117643 294.329942 
L 390.492984 297.150183 
L 391.136426 297.802847 
L 391.458146 297.788131 
L 391.833487 298.259155 
L 392.637789 298.09075 
L 393.28123 298.078996 
L 393.602951 298.457705 
L 394.300013 298.438001 
L 394.621734 298.286186 
L 395.801376 299.158556 
L 396.766539 298.947513 
L 397.24912 296.383393 
L 397.946181 294.178539 
L 398.375142 297.185071 
L 398.750483 298.051374 
L 399.715645 297.320617 
L 400.198227 296.350992 
L 400.895288 295.699686 
L 401.377869 293.777106 
L 402.182171 292.421696 
L 402.503892 289.606219 
L 402.986473 287.684834 
L 403.790775 285.437419 
L 404.595077 284.559657 
L 404.916798 292.161589 
L 405.399379 290.629513 
L 406.20368 298.843387 
L 407.007982 300.222446 
L 407.007982 298.111085 
L 407.490563 296.738156 
L 408.294865 301.102247 
L 408.777446 297.852428 
L 410.064329 297.996957 
L 410.546911 294.840454 
L 411.029492 293.506988 
L 411.458453 290.72766 
L 411.941034 289.749554 
L 412.906196 287.155185 
L 413.388777 286.719131 
L 413.871358 284.832232 
L 414.353939 296.368648 
L 414.7829 295.665611 
L 415.265482 291.801339 
L 416.230644 279.73193 
L 418.000108 278.920641 
L 418.000108 290.457057 
L 419.286991 286.268815 
L 420.091293 282.331855 
L 420.091293 281.622595 
L 421.002835 279.850568 
L 422.665059 274.745499 
L 423.791081 272.171825 
L 425.238825 271.135711 
L 425.238825 269.600293 
L 425.238825 272.867222 
L 426.740188 271.892313 
L 426.740188 269.231418 
L 428.241552 266.602461 
L 428.241552 268.619764 
L 430.011016 280.156181 
L 430.708077 291.692597 
L 430.708077 290.29285 
L 430.708077 288.262594 
L 432.852882 282.588219 
L 433.549944 278.201014 
L 433.871665 273.721449 
L 433.871665 266.452363 
L 436.01647 264.120409 
L 436.659911 263.100026 
L 437.356973 258.35048 
L 438.000414 254.736412 
L 438.697476 251.542413 
L 441.164002 247.626711 
L 441.164002 245.918105 
L 441.164002 248.750902 
L 441.861063 252.586058 
L 442.504505 255.401802 
L 443.201566 254.496592 
L 443.845008 252.800564 
L 445.989813 251.406586 
L 445.989813 245.437025 
L 448.509959 243.12672 
L 448.509959 239.458014 
L 448.831679 237.799404 
L 450.654764 238.64131 
L 450.654764 241.103664 
L 450.976484 241.573834 
L 451.619926 242.993972 
L 453.44301 243.382762 
L 453.44301 244.244966 
L 453.818351 245.126026 
L 455.963156 245.222586 
L 455.963156 243.117084 
L 457.78624 241.649852 
L 457.78624 240.384952 
L 459.233984 239.168819 
L 459.233984 238.070615 
L 461.057068 236.952326 
L 461.057068 237.260252 
L 462.558431 238.911219 
L 462.558431 240.443082 
L 463.952555 240.417931 
L 463.952555 239.984278 
L 465.400298 239.287893 
L 465.400298 238.082021 
L 467.169762 237.060422 
L 467.169762 236.026493 
L 468.671126 235.549478 
L 469.368187 236.609115 
L 470.172489 239.116213 
L 471.673853 239.771998 
L 473.121596 240.450534 
L 473.121596 240.329296 
L 474.622959 240.239275 
L 474.622959 240.113402 
L 476.070703 239.984756 
L 476.070703 239.866587 
L 477.572066 239.861878 
L 477.572066 240.891064 
L 478.698089 241.580987 
L 479.07343 242.706935 
L 480.199452 243.788407 
L 480.521173 245.060324 
L 481.700816 245.880175 
L 482.344257 245.648398 
L 482.826838 245.954695 
L 483.47028 246.209413 
L 484.971643 246.003727 
L 485.454225 245.725596 
L 487.75989 245.666526 
L 488.403331 245.989482 
L 489.207633 246.057886 
L 490.011935 245.961794 
L 490.708997 246.390015 
L 491.513299 247.468278 
L 491.835019 247.094567 
L 492.639321 247.29616 
L 494.140685 248.535408 
L 494.944987 250.187113 
L 495.588428 250.062665 
L 496.39273 250.558129 
L 496.768071 250.011236 
L 498.376675 249.222309 
L 499.020116 251.210602 
L 499.824418 252.091242 
L 500.199759 253.99878 
L 501.325781 255.432848 
L 501.647502 258.183727 
L 502.451804 259.867873 
L 503.256106 261.085526 
L 503.631447 262.016697 
L 504.757469 263.81793 
L 505.07919 265.375856 
L 505.883492 269.920926 
L 506.258833 271.164845 
L 508.189157 276.163305 
L 508.993459 276.895911 
L 509.31518 278.122329 
L 510.494823 278.120413 
L 510.494823 277.979176 
L 511.620845 278.577544 
L 511.942566 279.978837 
L 512.746868 284.193102 
L 513.122209 287.26588 
L 514.248231 285.827725 
L 515.374254 285.097989 
L 516.553897 288.467705 
L 517.358199 287.96463 
L 517.679919 288.298067 
L 518.484221 287.832761 
L 518.805942 287.229301 
L 519.610244 286.669985 
L 520.789887 286.066721 
L 521.433328 285.50357 
L 522.23763 285.550442 
L 522.612971 285.124632 
L 523.417273 284.697881 
L 523.738993 285.249995 
L 524.865016 285.029942 
L 525.669318 284.298285 
L 526.044659 283.613191 
L 526.848961 283.166297 
L 528.779285 280.9181 
L 528.779285 280.493995 
L 529.905308 279.883634 
L 529.905308 279.415755 
L 531.084951 279.073871 
L 531.084951 278.444826 
L 532.210973 277.735035 
L 533.015275 276.663479 
L 533.336996 275.732661 
L 533.819577 276.881572 
L 534.99922 278.990808 
L 534.99922 282.108022 
L 535.428181 285.917355 
L 537.090404 288.133011 
L 538.967109 283.625706 
L 539.771411 284.569692 
L 540.093131 281.618884 
L 541.755355 277.752305 
L 541.755355 274.148197 
L 543.524819 270.632359 
L 543.524819 267.247361 
L 545.669624 261.749317 
L 545.669624 250.879152 
L 547.868049 246.900553 
L 547.868049 244.251848 
L 551.138877 250.803167 
L 551.138877 262.339583 
L 551.460598 258.229905 
L 552.157659 254.799343 
L 554.624185 253.91863 
L 554.624185 253.129572 
L 554.624185 256.887083 
L 554.945906 256.695716 
L 555.321247 257.597227 
L 557.466052 265.639122 
L 557.466052 270.145936 
L 558.913795 276.439804 
L 558.913795 271.294292 
L 560.736879 266.818735 
L 560.736879 262.27305 
L 562.238243 258.549001 
L 563.364265 255.283325 
L 563.685986 252.340342 
L 564.168567 249.40393 
L 565.29459 247.536778 
L 565.29459 247.283807 
L 566.474233 246.947647 
L 566.474233 251.951576 
L 567.921976 253.208162 
L 568.404557 258.483018 
L 569.5842 258.433535 
L 569.5842 257.264582 
L 570.710223 256.224738 
L 571.514524 254.173039 
L 571.514524 251.204359 
L 572.640547 248.425149 
L 573.444849 245.973649 
L 575.107073 241.966565 
L 575.428794 240.216063 
L 577.519978 236.206922 
L 578.646001 235.277528 
L 580.254605 233.551981 
L 580.629946 232.748794 
L 583.042851 231.013566 
L 584.329734 230.675934 
L 584.812315 230.276709 
L 585.616617 229.837407 
L 585.938338 229.435618 
L 586.74264 229.15442 
L 588.029523 229.1953 
L 588.512104 229.010662 
L 589.316406 228.835561 
L 590.925009 228.328261 
L 591.407591 228.221196 
L 592.211892 228.301808 
L 593.016194 228.844682 
L 593.498775 228.938313 
L 595.911681 228.571589 
L 595.911681 228.378575 
L 597.198564 228.28033 
L 597.681145 228.128294 
L 598.968028 228.660241 
L 598.968028 228.783463 
L 600.737492 229.037417 
L 600.737492 228.99093 
L 601.220073 229.513811 
L 603.418499 229.801065 
L 603.418499 229.590338 
L 605.187963 230.025129 
L 605.670544 230.004827 
L 606.582086 230.774964 
L 607.064667 230.77887 
L 608.029829 230.904698 
L 608.029829 231.385727 
L 608.51241 232.036763 
L 610.710835 232.908547 
L 611.193417 233.830318 
L 612.64116 234.371534 
L 613.552702 235.285904 
L 614.035283 236.089983 
L 615.000445 237.02712 
L 615.483027 238.923537 
L 615.965608 241.274095 
L 616.87715 243.060088 
L 618.324893 242.991872 
L 618.807474 242.623242 
L 620.523318 242.309701 
L 621.48848 242.952728 
L 622.936224 243.539393 
L 623.365185 247.983508 
L 624.330347 250.864991 
L 624.812928 253.254724 
L 625.77809 256.289643 
L 626.099811 258.15973 
L 627.064973 258.756356 
L 627.493934 257.293278 
L 627.976516 256.153719 
L 628.941678 255.27713 
L 629.424259 254.408174 
L 630.228561 253.552512 
L 631.193723 251.399648 
L 632.105265 250.716014 
L 632.587846 250.809872 
L 633.070427 249.952548 
L 633.874729 250.111996 
L 635.268852 252.194852 
L 635.751434 256.299375 
L 636.555735 255.185591 
L 637.520898 254.143549 
L 639.290362 253.256523 
L 639.772943 253.982792 
L 640.684485 253.436747 
L 640.684485 252.983827 
L 642.453949 255.000656 
L 642.93653 255.000918 
L 643.419111 255.240594 
L 644.705994 255.037169 
L 645.188576 261.337326 
L 645.188576 264.424865 
L 646.475458 268.085552 
L 647.387001 267.85657 
L 647.387001 269.911981 
L 649.156465 269.947562 
L 649.639046 270.549634 
L 649.639046 270.46127 
L 650.121627 270.796633 
L 651.40851 272.239628 
L 651.837471 274.18634 
L 651.837471 275.527817 
L 653.606935 276.869693 
L 653.606935 280.018899 
L 655.376399 282.072176 
L 655.376399 273.194119 
L 657.628444 270.939495 
L 658.539987 268.869999 
L 661.274613 267.755952 
L 661.596334 269.946951 
L 663.204937 269.691191 
L 664.706301 281.227607 
L 664.706301 292.764023 
L 666.851106 298.033102 
L 666.851106 331.463381 
L 666.851106 326.629061 
L 669.317632 321.930091 
L 669.317632 295.741947 
L 672.159498 289.889815 
L 672.481219 283.294264 
L 673.12466 279.76941 
L 673.821722 277.048704 
L 676.288248 274.612324 
L 676.288248 269.389249 
L 676.663589 266.377146 
L 679.451835 262.307547 
L 679.451835 258.346282 
L 679.451835 274.79683 
L 681.918361 286.333247 
L 681.918361 302.07117 
L 683.741445 301.133656 
L 683.741445 302.351667 
L 684.921088 302.176115 
L 684.921088 308.864742 
L 684.921088 306.128434 
L 686.368831 299.992532 
L 686.368831 292.090708 
L 687.548474 285.001878 
L 687.548474 278.661964 
L 688.674497 273.102685 
L 688.674497 264.122058 
L 690.980162 260.493808 
L 690.980162 257.509957 
L 692.106184 254.975095 
L 692.106184 252.956552 
L 693.232207 251.267351 
L 693.232207 249.843297 
L 694.41185 248.39252 
L 695.537872 247.234483 
L 695.537872 246.180539 
L 696.663895 245.352739 
L 696.663895 244.866139 
L 697.843538 244.634025 
L 697.843538 246.104738 
L 699.291281 249.771562 
L 699.291281 251.08017 
L 700.792645 250.761815 
L 700.792645 249.7154 
L 701.811427 248.543944 
L 702.240388 247.37796 
L 703.25917 246.317342 
L 703.741751 245.45007 
L 704.760534 244.969199 
L 705.243115 245.257823 
L 705.564836 246.325738 
L 707.012579 247.862529 
L 707.709641 247.417652 
L 708.835663 246.997155 
L 709.157384 246.393856 
L 709.854446 245.505693 
L 710.658748 244.837775 
L 711.355809 244.046359 
L 711.999251 243.138344 
L 712.803553 242.468467 
L 713.125273 241.905478 
L 714.144056 241.395091 
L 714.626637 240.820501 
L 715.323698 240.350394 
L 716.449721 239.812743 
L 716.771442 239.174465 
L 717.468503 238.551442 
L 719.237967 238.054838 
L 719.613308 238.319015 
L 720.739331 238.566187 
L 721.061052 239.159022 
L 722.240694 239.062571 
L 722.884136 238.882716 
L 723.205857 238.350369 
L 724.385499 237.85096 
L 725.028941 237.408059 
L 725.350662 236.922054 
L 726.530304 236.41293 
L 726.852025 235.852282 
L 728.675109 235.003765 
L 730.122853 235.047313 
L 730.498194 235.976351 
L 731.624216 237.644983 
L 732.321278 239.286181 
L 732.642999 241.609054 
L 733.769021 244.418955 
L 734.466083 245.707585 
L 734.787804 246.97375 
L 735.592105 248.338317 
L 736.235547 248.307674 
L 737.093469 248.717769 
L 738.433972 250.648486 
L 739.238274 250.482742 
L 739.881715 251.13929 
L 740.203436 251.259484 
L 741.7048 250.696741 
L 743.206163 250.424576 
L 743.849605 250.501312 
L 744.653907 250.418887 
L 744.975627 251.305385 
L 745.99441 251.057352 
L 746.476991 251.184564 
L 747.174052 250.938826 
L 748.300075 250.703073 
L 748.621796 250.475555 
L 749.318857 250.564192 
L 750.123159 250.823134 
L 751.463662 250.518978 
L 751.946243 250.286646 
L 753.608467 250.137489 
L 754.412769 250.139695 
L 755.860513 250.002858 
L 755.860513 250.703074 
L 757.201016 250.290023 
L 758.058938 249.725309 
L 760.203743 249.082219 
L 761.329765 249.002462 
L 761.329765 248.564331 
L 761.973207 248.080522 
L 764.815073 247.562112 
L 765.619375 247.521615 
L 767.120739 247.196589 
L 767.442459 246.763986 
L 768.943823 246.274631 
L 768.943823 245.753251 
L 770.713287 245.403837 
L 770.713287 245.166546 
L 771.088628 245.733776 
L 772.536371 245.827517 
L 772.536371 246.080355 
L 776.021679 245.697855 
L 776.50426 245.954036 
L 778.327345 245.650388 
L 778.649065 246.54473 
L 780.150429 247.966799 
L 780.150429 248.63958 
L 781.973513 249.48188 
L 781.973513 250.063091 
L 782.295234 249.562513 
L 784.118318 249.324748 
L 784.118318 249.171239 
L 785.941402 250.736397 
L 785.941402 252.174068 
L 786.263123 253.564312 
L 787.710867 255.003424 
L 787.710867 255.762243 
L 789.05137 256.214393 
L 789.533951 257.561096 
L 789.533951 259.204738 
L 791.357035 258.966425 
L 791.357035 259.673544 
L 791.678756 261.775319 
L 793.019259 263.287038 
L 793.50184 263.235979 
L 793.50184 265.006936 
L 795.324924 266.539269 
L 795.324924 270.838604 
L 797.148008 273.664306 
L 797.148008 277.021907 
L 797.469729 277.015108 
L 798.971093 277.452742 
L 798.971093 277.916759 
L 799.292813 278.506842 
L 800.794177 279.440844 
L 800.794177 280.498825 
L 801.115898 280.150428 
L 802.563641 281.049854 
L 802.563641 280.721948 
L 802.938982 281.247324 
L 803.260703 280.990517 
L 805.083787 282.611262 
L 806.53153 283.387932 
L 806.53153 286.683777 
L 806.906871 289.520415 
L 807.872033 289.882148 
L 808.354614 290.748414 
L 808.676335 289.453161 
L 810.177699 288.005532 
L 810.499419 287.90802 
L 811.196481 287.474141 
L 812.000783 287.181121 
L 812.644224 285.804263 
L 813.663007 285.364901 
L 814.467309 284.788966 
L 815.16437 284.485549 
L 815.968672 282.346882 
L 816.290393 284.291716 
L 816.987454 290.927438 
L 817.630896 300.244866 
L 817.952617 311.781282 
L 818.327958 311.736178 
L 818.971399 310.069887 
L 820.097422 326.019227 
L 820.472763 324.446418 
L 820.794483 320.039617 
L 821.437925 315.955305 
L 821.813266 314.379526 
L 822.134986 314.07826 
L 823.153769 307.341869 
L 824.279791 289.003328 
L 825.298574 286.145681 
L 825.781155 285.467684 
L 826.102876 297.0041 
L 827.228898 292.568706 
L 827.228898 286.758703 
L 828.247681 291.689606 
L 828.730262 291.337347 
L 830.499726 289.178245 
L 831.893849 289.055138 
L 832.21557 288.864137 
L 833.019872 287.868689 
L 833.824174 293.862661 
L 834.199514 292.559538 
L 835.003816 291.877421 
L 835.325537 300.210799 
L 836.129839 311.747215 
L 836.129839 314.727853 
L 837.255862 314.493661 
L 837.631202 305.102671 
L 838.274644 297.377034 
L 838.274644 292.104133 
L 839.454287 291.392363 
L 839.776007 292.007749 
L 840.097728 294.671749 
L 842.242533 280.069316 
L 842.939595 280.439167 
L 843.583036 280.128687 
L 843.904757 285.091422 
L 844.601819 283.508046 
L 845.727841 279.89798 
L 845.727841 276.161371 
L 846.424903 272.96396 
L 847.765406 268.754022 
L 848.087127 266.381227 
L 848.730568 264.540296 
L 850.768133 260.580396 
L 851.089854 259.503188 
L 851.786915 258.716908 
L 852.430357 257.792805 
L 853.77086 256.723173 
L 856.130145 253.682653 
L 857.470649 253.01441 
L 858.811152 252.762908 
L 859.454593 252.37365 
L 860.795096 251.845039 
L 862.832661 250.997189 
L 863.476102 251.102081 
L 864.173164 249.968835 
L 864.494885 249.588763 
L 866.63969 249.688488 
L 867.980193 249.474613 
L 870.017758 249.187621 
L 871.358261 248.079698 
L 872.001702 247.816199 
L 872.698764 247.703008 
L 872.698764 248.328481 
L 873.020485 248.035573 
L 874.843569 248.433368 
L 875.48701 250.198369 
L 875.862351 251.782532 
L 876.505793 252.492526 
L 877.202854 253.453895 
L 877.846296 255.351014 
L 878.543357 255.968318 
L 879.186799 257.126563 
L 879.883861 258.91589 
L 880.527302 262.203428 
L 881.224364 267.746977 
L 883.690889 267.379368 
L 884.01261 271.451817 
L 884.709672 275.474258 
L 885.353113 278.281308 
L 886.050175 280.442805 
L 886.371896 280.085462 
L 887.068957 280.594424 
L 887.712399 281.993092 
L 888.034119 284.650672 
L 888.731181 287.097211 
L 889.052902 285.623608 
L 889.749963 284.431669 
L 889.749963 287.784534 
L 890.071684 287.379171 
L 891.894768 289.539281 
L 892.53821 291.248079 
L 893.235272 292.708754 
L 893.556992 292.273324 
L 894.200434 294.107939 
L 894.575775 296.256891 
L 895.219216 295.370486 
L 895.540937 294.243795 
L 896.237999 293.051281 
L 897.256781 290.097279 
L 898.597284 289.43046 
L 899.723307 288.884993 
L 900.045027 286.978593 
L 900.742089 284.975709 
L 901.06381 282.938665 
L 902.726034 277.416944 
L 903.423095 276.435475 
L 904.066537 276.434703 
L 904.549118 276.32109 
L 905.246179 275.734554 
L 905.5679 273.946248 
L 906.693923 272.434435 
L 906.693923 276.876123 
L 907.390984 279.772955 
L 907.712705 278.287062 
L 909.160449 280.365621 
L 909.160449 291.613803 
L 910.983533 289.570548 
L 910.983533 287.085999 
L 912.484896 285.485797 
L 912.967477 283.215441 
L 914.576081 282.426309 
L 916.452785 280.058884 
L 916.774506 274.122574 
L 917.739668 267.832702 
L 918.919311 262.034325 
L 919.241032 256.573737 
L 920.527915 251.618787 
L 920.527915 248.044607 
L 921.653938 259.581023 
L 922.77996 257.34153 
L 924.281324 264.078273 
L 924.281324 267.862261 
L 924.603044 265.96636 
L 925.407346 263.948987 
L 926.586989 262.462388 
L 926.586989 264.244945 
L 927.713012 273.708582 
L 927.713012 272.595127 
L 928.839034 268.833419 
L 929.214375 264.419808 
L 930.340398 260.922783 
L 930.340398 258.642921 
L 931.46642 256.572029 
L 931.788141 255.09963 
L 932.967784 253.790699 
L 932.967784 252.280025 
L 934.093806 251.113915 
L 934.415527 249.94025 
L 935.59517 247.881369 
L 935.916891 246.065443 
L 936.721193 244.311838 
L 937.847215 242.696777 
L 937.847215 241.429259 
L 939.348579 240.985284 
L 939.348579 240.719961 
L 940.849942 240.800053 
L 941.975965 241.340571 
L 943.101987 241.253469 
L 944.28163 241.229548 
L 944.603351 241.076498 
L 945.729373 240.943617 
L 946.051094 242.156193 
L 946.909016 243.131839 
L 948.035039 243.353634 
L 948.35676 244.045072 
L 949.161061 244.891123 
L 949.858123 246.486712 
L 950.662425 246.886705 
L 951.466727 248.002652 
L 951.788448 247.949606 
L 953.289811 249.221319 
L 954.094113 250.642375 
L 955.541856 250.482145 
L 956.238918 250.946504 
L 956.721499 251.048752 
L 957.364941 250.907911 
L 958.169242 251.436548 
L 958.866304 251.250026 
L 959.348885 251.304857 
L 961.976271 250.981217 
L 963.102294 251.345159 
L 963.424015 251.291887 
L 964.603657 251.260753 
L 965.247099 250.995861 
L 965.72968 251.050383 
L 966.855703 251.025496 
L 966.855703 250.859509 
L 969.483089 250.566656 
L 969.483089 250.824226 
L 970.984452 250.628863 
L 971.627894 251.3865 
L 972.110475 251.017999 
L 972.110475 250.76843 
L 973.611838 250.299477 
L 974.737861 249.631855 
L 975.863883 249.408328 
L 975.863883 249.246785 
L 977.365247 249.116998 
L 977.365247 249.766043 
L 978.49127 249.878973 
L 978.49127 249.478574 
L 979.992633 249.340351 
L 981.118656 248.345673 
L 982.298298 248.164159 
L 982.298298 247.988309 
L 984.872064 247.57587 
L 984.872064 247.373908 
L 986.373428 247.67019 
L 987.070489 247.153588 
L 987.49945 246.454161 
L 988.679093 245.895388 
L 988.679093 245.589334 
L 990.126837 245.101026 
L 990.126837 244.752365 
L 991.306479 244.51483 
L 991.306479 244.930075 
L 992.754223 245.65683 
L 993.451284 245.772096 
L 993.933865 245.391105 
L 993.933865 244.834901 
L 995.381609 244.710066 
L 996.561252 244.243974 
L 996.561252 244.034187 
L 1000.31466 243.357017 
L 1000.31466 243.017625 
L 1001.333443 242.795904 
L 1001.762404 242.552993 
L 1002.942046 242.334765 
L 1002.942046 242.101472 
L 1004.068069 242.303624 
L 1004.068069 242.447979 
L 1005.569432 242.282574 
L 1006.695455 242.273637 
L 1006.695455 242.874175 
L 1008.196819 242.783129 
L 1008.196819 242.337312 
L 1009.966283 241.454199 
L 1010.448864 241.061792 
L 1010.448864 240.773114 
L 1011.950227 240.617081 
L 1011.950227 240.617081 
" clip-path="url(#p9f8c059280)" style="fill: none; stroke: #ff3f34; stroke-opacity: 0.99; stroke-width: 2.4; stroke-linecap: square"/>
   </g>
   <g id="patch_3">
    <path d="M 46.9525 436.191645 
L 46.9525 72.266845 
" style="fill: none; stroke: #000000; stroke-width: 0.8; stroke-linejoin: miter; stroke-linecap: square"/>
   </g>
   <g id="patch_4">
    <path d="M 1057.9025 436.191645 
L 1057.9025 72.266845 
" style="fill: none; stroke: #000000; stroke-width: 0.8; stroke-linejoin: miter; stroke-linecap: square"/>
   </g>
   <g id="patch_5">
    <path d="M 46.9525 436.191645 
L 1057.9025 436.191645 
" style="fill: none; stroke: #000000; stroke-width: 0.8; stroke-linejoin: miter; stroke-linecap: square"/>
   </g>
   <g id="patch_6">
    <path d="M 46.9525 72.266845 
L 1057.9025 72.266845 
" style="fill: none; stroke: #000000; stroke-width: 0.8; stroke-linejoin: miter; stroke-linecap: square"/>
   </g>
   <g id="legend_1">
    <g id="patch_7">
     <path d="M 456.8085 35.35625 
L 607.6085 35.35625 
Q 611.6085 35.35625 611.6085 31.35625 
L 611.6085 4 
Q 611.6085 -0 607.6085 -0 
L 456.8085 -0 
Q 452.8085 -0 452.8085 4 
L 452.8085 31.35625 
Q 452.8085 35.35625 456.8085 35.35625 
z
" style="fill: #ffffff; opacity: 0.8; stroke: #cccccc; stroke-linejoin: miter"/>
    </g>
    <g id="line2d_22">
     <path d="M 460.8085 16.196875 
L 480.8085 16.196875 
L 500.8085 16.196875 
" style="fill: none; stroke: #ff3f34; stroke-opacity: 0.99; stroke-width: 2.4; stroke-linecap: square"/>
    </g>
    <g id="text_13">
     <!-- MLP256$^s$ -->
     <g transform="translate(516.8085 23.196875)scale(0.2 -0.2)">
      <defs>
       <path id="DejaVuSans-4d" d="M 628 4666 
L 1569 4666 
L 2759 1491 
L 3956 4666 
L 4897 4666 
L 4897 0 
L 4281 0 
L 4281 4097 
L 3078 897 
L 2444 897 
L 1241 4097 
L 1241 0 
L 628 0 
L 628 4666 
z
" transform="scale(0.015625)"/>
       <path id="DejaVuSans-4c" d="M 628 4666 
L 1259 4666 
L 1259 531 
L 3531 531 
L 3531 0 
L 628 0 
L 628 4666 
z
" transform="scale(0.015625)"/>
       <path id="DejaVuSans-50" d="M 1259 4147 
L 1259 2394 
L 2053 2394 
Q 2494 2394 2734 2622 
Q 2975 2850 2975 3272 
Q 2975 3691 2734 3919 
Q 2494 4147 2053 4147 
L 1259 4147 
z
M 628 4666 
L 2053 4666 
Q 2838 4666 3239 4311 
Q 3641 3956 3641 3272 
Q 3641 2581 3239 2228 
Q 2838 1875 2053 1875 
L 1259 1875 
L 1259 0 
L 628 0 
L 628 4666 
z
" transform="scale(0.015625)"/>
       <path id="DejaVuSans-35" d="M 691 4666 
L 3169 4666 
L 3169 4134 
L 1269 4134 
L 1269 2991 
Q 1406 3038 1543 3061 
Q 1681 3084 1819 3084 
Q 2600 3084 3056 2656 
Q 3513 2228 3513 1497 
Q 3513 744 3044 326 
Q 2575 -91 1722 -91 
Q 1428 -91 1123 -41 
Q 819 9 494 109 
L 494 744 
Q 775 591 1075 516 
Q 1375 441 1709 441 
Q 2250 441 2565 725 
Q 2881 1009 2881 1497 
Q 2881 1984 2565 2268 
Q 2250 2553 1709 2553 
Q 1456 2553 1204 2497 
Q 953 2441 691 2322 
L 691 4666 
z
" transform="scale(0.015625)"/>
       <path id="DejaVuSans-Oblique-73" d="M 3200 3397 
L 3091 2853 
Q 2863 2978 2609 3040 
Q 2356 3103 2088 3103 
Q 1634 3103 1373 2948 
Q 1113 2794 1113 2528 
Q 1113 2219 1719 2053 
Q 1766 2041 1788 2034 
L 1972 1978 
Q 2547 1819 2739 1644 
Q 2931 1469 2931 1166 
Q 2931 609 2489 259 
Q 2047 -91 1331 -91 
Q 1053 -91 747 -37 
Q 441 16 72 128 
L 184 722 
Q 500 559 806 475 
Q 1113 391 1394 391 
Q 1816 391 2080 572 
Q 2344 753 2344 1031 
Q 2344 1331 1650 1516 
L 1591 1531 
L 1394 1581 
Q 956 1697 753 1886 
Q 550 2075 550 2369 
Q 550 2928 970 3256 
Q 1391 3584 2113 3584 
Q 2397 3584 2667 3537 
Q 2938 3491 3200 3397 
z
" transform="scale(0.015625)"/>
      </defs>
      <use xlink:href="#DejaVuSans-4d" transform="translate(0 0.51875)"/>
      <use xlink:href="#DejaVuSans-4c" transform="translate(86.279297 0.51875)"/>
      <use xlink:href="#DejaVuSans-50" transform="translate(141.992188 0.51875)"/>
      <use xlink:href="#DejaVuSans-32" transform="translate(202.294922 0.51875)"/>
      <use xlink:href="#DejaVuSans-35" transform="translate(265.917969 0.51875)"/>
      <use xlink:href="#DejaVuSans-36" transform="translate(329.541016 0.51875)"/>
      <use xlink:href="#DejaVuSans-Oblique-73" transform="translate(394.121094 38.8)scale(0.7)"/>
     </g>
    </g>
   </g>
  </g>
 </g>
 <defs>
  <clipPath id="p9f8c059280">
   <rect x="46.9525" y="72.266845" width="1010.95" height="363.9248"/>
  </clipPath>
 </defs>
</svg>
