<?xml version="1.0" encoding="utf-8" standalone="no"?>
<!DOCTYPE svg PUBLIC "-//W3C//DTD SVG 1.1//EN"
  "http://www.w3.org/Graphics/SVG/1.1/DTD/svg11.dtd">
<svg xmlns:xlink="http://www.w3.org/1999/xlink" width="1057.9025pt" height="488.17567pt" viewBox="0 0 1057.9025 488.17567" xmlns="http://www.w3.org/2000/svg" version="1.1">
 <metadata>
  <rdf:RDF xmlns:dc="http://purl.org/dc/elements/1.1/" xmlns:cc="http://creativecommons.org/ns#" xmlns:rdf="http://www.w3.org/1999/02/22-rdf-syntax-ns#">
   <cc:Work>
    <dc:type rdf:resource="http://purl.org/dc/dcmitype/StillImage"/>
    <dc:date>2024-08-27T14:24:55.694573</dc:date>
    <dc:format>image/svg+xml</dc:format>
    <dc:creator>
     <cc:Agent>
      <dc:title>Matplotlib v3.5.2, https://matplotlib.org/</dc:title>
     </cc:Agent>
    </dc:creator>
   </cc:Work>
  </rdf:RDF>
 </metadata>
 <defs>
  <style type="text/css">*{stroke-linejoin: round; stroke-linecap: butt}</style>
 </defs>
 <g id="figure_1">
  <g id="patch_1">
   <path d="M 0 488.17567 
L 1057.9025 488.17567 
L 1057.9025 0 
L 0 0 
z
" style="fill: #ffffff"/>
  </g>
  <g id="axes_1">
   <g id="patch_2">
    <path d="M 46.9525 434.59192 
L 1057.9025 434.59192 
L 1057.9025 72.25112 
L 46.9525 72.25112 
z
" style="fill: #ffffff"/>
   </g>
   <g id="matplotlib.axis_1">
    <g id="xtick_1">
     <g id="line2d_1">
      <path d="M 92.904773 434.59192 
L 92.904773 72.25112 
" clip-path="url(#p793b8d7084)" style="fill: none; stroke: #b0b0b0; stroke-width: 0.8; stroke-linecap: square"/>
     </g>
     <g id="line2d_2">
      <defs>
       <path id="m2c08c49552" d="M 0 0 
L 0 3.5 
" style="stroke: #000000; stroke-width: 0.8"/>
      </defs>
      <g>
       <use xlink:href="#m2c08c49552" x="92.904773" y="434.59192" style="stroke: #000000; stroke-width: 0.8"/>
      </g>
     </g>
     <g id="text_1">
      <!-- 0 -->
      <g transform="translate(86.542273 456.788795)scale(0.2 -0.2)">
       <defs>
        <path id="DejaVuSans-30" d="M 2034 4250 
Q 1547 4250 1301 3770 
Q 1056 3291 1056 2328 
Q 1056 1369 1301 889 
Q 1547 409 2034 409 
Q 2525 409 2770 889 
Q 3016 1369 3016 2328 
Q 3016 3291 2770 3770 
Q 2525 4250 2034 4250 
z
M 2034 4750 
Q 2819 4750 3233 4129 
Q 3647 3509 3647 2328 
Q 3647 1150 3233 529 
Q 2819 -91 2034 -91 
Q 1250 -91 836 529 
Q 422 1150 422 2328 
Q 422 3509 836 4129 
Q 1250 4750 2034 4750 
z
" transform="scale(0.015625)"/>
       </defs>
       <use xlink:href="#DejaVuSans-30"/>
      </g>
     </g>
    </g>
    <g id="xtick_2">
     <g id="line2d_3">
      <path d="M 277.670725 434.59192 
L 277.670725 72.25112 
" clip-path="url(#p793b8d7084)" style="fill: none; stroke: #b0b0b0; stroke-width: 0.8; stroke-linecap: square"/>
     </g>
     <g id="line2d_4">
      <g>
       <use xlink:href="#m2c08c49552" x="277.670725" y="434.59192" style="stroke: #000000; stroke-width: 0.8"/>
      </g>
     </g>
     <g id="text_2">
      <!-- 20 -->
      <g transform="translate(264.945725 456.788795)scale(0.2 -0.2)">
       <defs>
        <path id="DejaVuSans-32" d="M 1228 531 
L 3431 531 
L 3431 0 
L 469 0 
L 469 531 
Q 828 903 1448 1529 
Q 2069 2156 2228 2338 
Q 2531 2678 2651 2914 
Q 2772 3150 2772 3378 
Q 2772 3750 2511 3984 
Q 2250 4219 1831 4219 
Q 1534 4219 1204 4116 
Q 875 4013 500 3803 
L 500 4441 
Q 881 4594 1212 4672 
Q 1544 4750 1819 4750 
Q 2544 4750 2975 4387 
Q 3406 4025 3406 3419 
Q 3406 3131 3298 2873 
Q 3191 2616 2906 2266 
Q 2828 2175 2409 1742 
Q 1991 1309 1228 531 
z
" transform="scale(0.015625)"/>
       </defs>
       <use xlink:href="#DejaVuSans-32"/>
       <use xlink:href="#DejaVuSans-30" x="63.623047"/>
      </g>
     </g>
    </g>
    <g id="xtick_3">
     <g id="line2d_5">
      <path d="M 462.436677 434.59192 
L 462.436677 72.25112 
" clip-path="url(#p793b8d7084)" style="fill: none; stroke: #b0b0b0; stroke-width: 0.8; stroke-linecap: square"/>
     </g>
     <g id="line2d_6">
      <g>
       <use xlink:href="#m2c08c49552" x="462.436677" y="434.59192" style="stroke: #000000; stroke-width: 0.8"/>
      </g>
     </g>
     <g id="text_3">
      <!-- 40 -->
      <g transform="translate(449.711677 456.788795)scale(0.2 -0.2)">
       <defs>
        <path id="DejaVuSans-34" d="M 2419 4116 
L 825 1625 
L 2419 1625 
L 2419 4116 
z
M 2253 4666 
L 3047 4666 
L 3047 1625 
L 3713 1625 
L 3713 1100 
L 3047 1100 
L 3047 0 
L 2419 0 
L 2419 1100 
L 313 1100 
L 313 1709 
L 2253 4666 
z
" transform="scale(0.015625)"/>
       </defs>
       <use xlink:href="#DejaVuSans-34"/>
       <use xlink:href="#DejaVuSans-30" x="63.623047"/>
      </g>
     </g>
    </g>
    <g id="xtick_4">
     <g id="line2d_7">
      <path d="M 647.202629 434.59192 
L 647.202629 72.25112 
" clip-path="url(#p793b8d7084)" style="fill: none; stroke: #b0b0b0; stroke-width: 0.8; stroke-linecap: square"/>
     </g>
     <g id="line2d_8">
      <g>
       <use xlink:href="#m2c08c49552" x="647.202629" y="434.59192" style="stroke: #000000; stroke-width: 0.8"/>
      </g>
     </g>
     <g id="text_4">
      <!-- 60 -->
      <g transform="translate(634.477629 456.788795)scale(0.2 -0.2)">
       <defs>
        <path id="DejaVuSans-36" d="M 2113 2584 
Q 1688 2584 1439 2293 
Q 1191 2003 1191 1497 
Q 1191 994 1439 701 
Q 1688 409 2113 409 
Q 2538 409 2786 701 
Q 3034 994 3034 1497 
Q 3034 2003 2786 2293 
Q 2538 2584 2113 2584 
z
M 3366 4563 
L 3366 3988 
Q 3128 4100 2886 4159 
Q 2644 4219 2406 4219 
Q 1781 4219 1451 3797 
Q 1122 3375 1075 2522 
Q 1259 2794 1537 2939 
Q 1816 3084 2150 3084 
Q 2853 3084 3261 2657 
Q 3669 2231 3669 1497 
Q 3669 778 3244 343 
Q 2819 -91 2113 -91 
Q 1303 -91 875 529 
Q 447 1150 447 2328 
Q 447 3434 972 4092 
Q 1497 4750 2381 4750 
Q 2619 4750 2861 4703 
Q 3103 4656 3366 4563 
z
" transform="scale(0.015625)"/>
       </defs>
       <use xlink:href="#DejaVuSans-36"/>
       <use xlink:href="#DejaVuSans-30" x="63.623047"/>
      </g>
     </g>
    </g>
    <g id="xtick_5">
     <g id="line2d_9">
      <path d="M 831.968581 434.59192 
L 831.968581 72.25112 
" clip-path="url(#p793b8d7084)" style="fill: none; stroke: #b0b0b0; stroke-width: 0.8; stroke-linecap: square"/>
     </g>
     <g id="line2d_10">
      <g>
       <use xlink:href="#m2c08c49552" x="831.968581" y="434.59192" style="stroke: #000000; stroke-width: 0.8"/>
      </g>
     </g>
     <g id="text_5">
      <!-- 80 -->
      <g transform="translate(819.243581 456.788795)scale(0.2 -0.2)">
       <defs>
        <path id="DejaVuSans-38" d="M 2034 2216 
Q 1584 2216 1326 1975 
Q 1069 1734 1069 1313 
Q 1069 891 1326 650 
Q 1584 409 2034 409 
Q 2484 409 2743 651 
Q 3003 894 3003 1313 
Q 3003 1734 2745 1975 
Q 2488 2216 2034 2216 
z
M 1403 2484 
Q 997 2584 770 2862 
Q 544 3141 544 3541 
Q 544 4100 942 4425 
Q 1341 4750 2034 4750 
Q 2731 4750 3128 4425 
Q 3525 4100 3525 3541 
Q 3525 3141 3298 2862 
Q 3072 2584 2669 2484 
Q 3125 2378 3379 2068 
Q 3634 1759 3634 1313 
Q 3634 634 3220 271 
Q 2806 -91 2034 -91 
Q 1263 -91 848 271 
Q 434 634 434 1313 
Q 434 1759 690 2068 
Q 947 2378 1403 2484 
z
M 1172 3481 
Q 1172 3119 1398 2916 
Q 1625 2713 2034 2713 
Q 2441 2713 2670 2916 
Q 2900 3119 2900 3481 
Q 2900 3844 2670 4047 
Q 2441 4250 2034 4250 
Q 1625 4250 1398 4047 
Q 1172 3844 1172 3481 
z
" transform="scale(0.015625)"/>
       </defs>
       <use xlink:href="#DejaVuSans-38"/>
       <use xlink:href="#DejaVuSans-30" x="63.623047"/>
      </g>
     </g>
    </g>
    <g id="xtick_6">
     <g id="line2d_11">
      <path d="M 1016.734532 434.59192 
L 1016.734532 72.25112 
" clip-path="url(#p793b8d7084)" style="fill: none; stroke: #b0b0b0; stroke-width: 0.8; stroke-linecap: square"/>
     </g>
     <g id="line2d_12">
      <g>
       <use xlink:href="#m2c08c49552" x="1016.734532" y="434.59192" style="stroke: #000000; stroke-width: 0.8"/>
      </g>
     </g>
     <g id="text_6">
      <!-- 100 -->
      <g transform="translate(997.647032 456.788795)scale(0.2 -0.2)">
       <defs>
        <path id="DejaVuSans-31" d="M 794 531 
L 1825 531 
L 1825 4091 
L 703 3866 
L 703 4441 
L 1819 4666 
L 2450 4666 
L 2450 531 
L 3481 531 
L 3481 0 
L 794 0 
L 794 531 
z
" transform="scale(0.015625)"/>
       </defs>
       <use xlink:href="#DejaVuSans-31"/>
       <use xlink:href="#DejaVuSans-30" x="63.623047"/>
       <use xlink:href="#DejaVuSans-30" x="127.246094"/>
      </g>
     </g>
    </g>
    <g id="text_7">
     <!-- Track progress [%] -->
     <g transform="translate(440.85 483.18442)scale(0.24 -0.24)">
      <defs>
       <path id="DejaVuSans-54" d="M -19 4666 
L 3928 4666 
L 3928 4134 
L 2272 4134 
L 2272 0 
L 1638 0 
L 1638 4134 
L -19 4134 
L -19 4666 
z
" transform="scale(0.015625)"/>
       <path id="DejaVuSans-72" d="M 2631 2963 
Q 2534 3019 2420 3045 
Q 2306 3072 2169 3072 
Q 1681 3072 1420 2755 
Q 1159 2438 1159 1844 
L 1159 0 
L 581 0 
L 581 3500 
L 1159 3500 
L 1159 2956 
Q 1341 3275 1631 3429 
Q 1922 3584 2338 3584 
Q 2397 3584 2469 3576 
Q 2541 3569 2628 3553 
L 2631 2963 
z
" transform="scale(0.015625)"/>
       <path id="DejaVuSans-61" d="M 2194 1759 
Q 1497 1759 1228 1600 
Q 959 1441 959 1056 
Q 959 750 1161 570 
Q 1363 391 1709 391 
Q 2188 391 2477 730 
Q 2766 1069 2766 1631 
L 2766 1759 
L 2194 1759 
z
M 3341 1997 
L 3341 0 
L 2766 0 
L 2766 531 
Q 2569 213 2275 61 
Q 1981 -91 1556 -91 
Q 1019 -91 701 211 
Q 384 513 384 1019 
Q 384 1609 779 1909 
Q 1175 2209 1959 2209 
L 2766 2209 
L 2766 2266 
Q 2766 2663 2505 2880 
Q 2244 3097 1772 3097 
Q 1472 3097 1187 3025 
Q 903 2953 641 2809 
L 641 3341 
Q 956 3463 1253 3523 
Q 1550 3584 1831 3584 
Q 2591 3584 2966 3190 
Q 3341 2797 3341 1997 
z
" transform="scale(0.015625)"/>
       <path id="DejaVuSans-63" d="M 3122 3366 
L 3122 2828 
Q 2878 2963 2633 3030 
Q 2388 3097 2138 3097 
Q 1578 3097 1268 2742 
Q 959 2388 959 1747 
Q 959 1106 1268 751 
Q 1578 397 2138 397 
Q 2388 397 2633 464 
Q 2878 531 3122 666 
L 3122 134 
Q 2881 22 2623 -34 
Q 2366 -91 2075 -91 
Q 1284 -91 818 406 
Q 353 903 353 1747 
Q 353 2603 823 3093 
Q 1294 3584 2113 3584 
Q 2378 3584 2631 3529 
Q 2884 3475 3122 3366 
z
" transform="scale(0.015625)"/>
       <path id="DejaVuSans-6b" d="M 581 4863 
L 1159 4863 
L 1159 1991 
L 2875 3500 
L 3609 3500 
L 1753 1863 
L 3688 0 
L 2938 0 
L 1159 1709 
L 1159 0 
L 581 0 
L 581 4863 
z
" transform="scale(0.015625)"/>
       <path id="DejaVuSans-20" transform="scale(0.015625)"/>
       <path id="DejaVuSans-70" d="M 1159 525 
L 1159 -1331 
L 581 -1331 
L 581 3500 
L 1159 3500 
L 1159 2969 
Q 1341 3281 1617 3432 
Q 1894 3584 2278 3584 
Q 2916 3584 3314 3078 
Q 3713 2572 3713 1747 
Q 3713 922 3314 415 
Q 2916 -91 2278 -91 
Q 1894 -91 1617 61 
Q 1341 213 1159 525 
z
M 3116 1747 
Q 3116 2381 2855 2742 
Q 2594 3103 2138 3103 
Q 1681 3103 1420 2742 
Q 1159 2381 1159 1747 
Q 1159 1113 1420 752 
Q 1681 391 2138 391 
Q 2594 391 2855 752 
Q 3116 1113 3116 1747 
z
" transform="scale(0.015625)"/>
       <path id="DejaVuSans-6f" d="M 1959 3097 
Q 1497 3097 1228 2736 
Q 959 2375 959 1747 
Q 959 1119 1226 758 
Q 1494 397 1959 397 
Q 2419 397 2687 759 
Q 2956 1122 2956 1747 
Q 2956 2369 2687 2733 
Q 2419 3097 1959 3097 
z
M 1959 3584 
Q 2709 3584 3137 3096 
Q 3566 2609 3566 1747 
Q 3566 888 3137 398 
Q 2709 -91 1959 -91 
Q 1206 -91 779 398 
Q 353 888 353 1747 
Q 353 2609 779 3096 
Q 1206 3584 1959 3584 
z
" transform="scale(0.015625)"/>
       <path id="DejaVuSans-67" d="M 2906 1791 
Q 2906 2416 2648 2759 
Q 2391 3103 1925 3103 
Q 1463 3103 1205 2759 
Q 947 2416 947 1791 
Q 947 1169 1205 825 
Q 1463 481 1925 481 
Q 2391 481 2648 825 
Q 2906 1169 2906 1791 
z
M 3481 434 
Q 3481 -459 3084 -895 
Q 2688 -1331 1869 -1331 
Q 1566 -1331 1297 -1286 
Q 1028 -1241 775 -1147 
L 775 -588 
Q 1028 -725 1275 -790 
Q 1522 -856 1778 -856 
Q 2344 -856 2625 -561 
Q 2906 -266 2906 331 
L 2906 616 
Q 2728 306 2450 153 
Q 2172 0 1784 0 
Q 1141 0 747 490 
Q 353 981 353 1791 
Q 353 2603 747 3093 
Q 1141 3584 1784 3584 
Q 2172 3584 2450 3431 
Q 2728 3278 2906 2969 
L 2906 3500 
L 3481 3500 
L 3481 434 
z
" transform="scale(0.015625)"/>
       <path id="DejaVuSans-65" d="M 3597 1894 
L 3597 1613 
L 953 1613 
Q 991 1019 1311 708 
Q 1631 397 2203 397 
Q 2534 397 2845 478 
Q 3156 559 3463 722 
L 3463 178 
Q 3153 47 2828 -22 
Q 2503 -91 2169 -91 
Q 1331 -91 842 396 
Q 353 884 353 1716 
Q 353 2575 817 3079 
Q 1281 3584 2069 3584 
Q 2775 3584 3186 3129 
Q 3597 2675 3597 1894 
z
M 3022 2063 
Q 3016 2534 2758 2815 
Q 2500 3097 2075 3097 
Q 1594 3097 1305 2825 
Q 1016 2553 972 2059 
L 3022 2063 
z
" transform="scale(0.015625)"/>
       <path id="DejaVuSans-73" d="M 2834 3397 
L 2834 2853 
Q 2591 2978 2328 3040 
Q 2066 3103 1784 3103 
Q 1356 3103 1142 2972 
Q 928 2841 928 2578 
Q 928 2378 1081 2264 
Q 1234 2150 1697 2047 
L 1894 2003 
Q 2506 1872 2764 1633 
Q 3022 1394 3022 966 
Q 3022 478 2636 193 
Q 2250 -91 1575 -91 
Q 1294 -91 989 -36 
Q 684 19 347 128 
L 347 722 
Q 666 556 975 473 
Q 1284 391 1588 391 
Q 1994 391 2212 530 
Q 2431 669 2431 922 
Q 2431 1156 2273 1281 
Q 2116 1406 1581 1522 
L 1381 1569 
Q 847 1681 609 1914 
Q 372 2147 372 2553 
Q 372 3047 722 3315 
Q 1072 3584 1716 3584 
Q 2034 3584 2315 3537 
Q 2597 3491 2834 3397 
z
" transform="scale(0.015625)"/>
       <path id="DejaVuSans-5b" d="M 550 4863 
L 1875 4863 
L 1875 4416 
L 1125 4416 
L 1125 -397 
L 1875 -397 
L 1875 -844 
L 550 -844 
L 550 4863 
z
" transform="scale(0.015625)"/>
       <path id="DejaVuSans-25" d="M 4653 2053 
Q 4381 2053 4226 1822 
Q 4072 1591 4072 1178 
Q 4072 772 4226 539 
Q 4381 306 4653 306 
Q 4919 306 5073 539 
Q 5228 772 5228 1178 
Q 5228 1588 5073 1820 
Q 4919 2053 4653 2053 
z
M 4653 2450 
Q 5147 2450 5437 2106 
Q 5728 1763 5728 1178 
Q 5728 594 5436 251 
Q 5144 -91 4653 -91 
Q 4153 -91 3862 251 
Q 3572 594 3572 1178 
Q 3572 1766 3864 2108 
Q 4156 2450 4653 2450 
z
M 1428 4353 
Q 1159 4353 1004 4120 
Q 850 3888 850 3481 
Q 850 3069 1003 2837 
Q 1156 2606 1428 2606 
Q 1700 2606 1854 2837 
Q 2009 3069 2009 3481 
Q 2009 3884 1853 4118 
Q 1697 4353 1428 4353 
z
M 4250 4750 
L 4750 4750 
L 1831 -91 
L 1331 -91 
L 4250 4750 
z
M 1428 4750 
Q 1922 4750 2215 4408 
Q 2509 4066 2509 3481 
Q 2509 2891 2217 2550 
Q 1925 2209 1428 2209 
Q 931 2209 642 2551 
Q 353 2894 353 3481 
Q 353 4063 643 4406 
Q 934 4750 1428 4750 
z
" transform="scale(0.015625)"/>
       <path id="DejaVuSans-5d" d="M 1947 4863 
L 1947 -844 
L 622 -844 
L 622 -397 
L 1369 -397 
L 1369 4416 
L 622 4416 
L 622 4863 
L 1947 4863 
z
" transform="scale(0.015625)"/>
      </defs>
      <use xlink:href="#DejaVuSans-54"/>
      <use xlink:href="#DejaVuSans-72" x="46.333984"/>
      <use xlink:href="#DejaVuSans-61" x="87.447266"/>
      <use xlink:href="#DejaVuSans-63" x="148.726562"/>
      <use xlink:href="#DejaVuSans-6b" x="203.707031"/>
      <use xlink:href="#DejaVuSans-20" x="261.617188"/>
      <use xlink:href="#DejaVuSans-70" x="293.404297"/>
      <use xlink:href="#DejaVuSans-72" x="356.880859"/>
      <use xlink:href="#DejaVuSans-6f" x="395.744141"/>
      <use xlink:href="#DejaVuSans-67" x="456.925781"/>
      <use xlink:href="#DejaVuSans-72" x="520.402344"/>
      <use xlink:href="#DejaVuSans-65" x="559.265625"/>
      <use xlink:href="#DejaVuSans-73" x="620.789062"/>
      <use xlink:href="#DejaVuSans-73" x="672.888672"/>
      <use xlink:href="#DejaVuSans-20" x="724.988281"/>
      <use xlink:href="#DejaVuSans-5b" x="756.775391"/>
      <use xlink:href="#DejaVuSans-25" x="795.789062"/>
      <use xlink:href="#DejaVuSans-5d" x="890.808594"/>
     </g>
    </g>
   </g>
   <g id="matplotlib.axis_2">
    <g id="ytick_1">
     <g id="line2d_13">
      <path d="M 46.9525 386.279813 
L 1057.9025 386.279813 
" clip-path="url(#p793b8d7084)" style="fill: none; stroke: #b0b0b0; stroke-width: 0.8; stroke-linecap: square"/>
     </g>
     <g id="line2d_14">
      <defs>
       <path id="m9ee6ff893b" d="M 0 0 
L -3.5 0 
" style="stroke: #000000; stroke-width: 0.8"/>
      </defs>
      <g>
       <use xlink:href="#m9ee6ff893b" x="46.9525" y="386.279813" style="stroke: #000000; stroke-width: 0.8"/>
      </g>
     </g>
     <g id="text_8">
      <!-- 2 -->
      <g transform="translate(27.2275 393.878251)scale(0.2 -0.2)">
       <use xlink:href="#DejaVuSans-32"/>
      </g>
     </g>
    </g>
    <g id="ytick_2">
     <g id="line2d_15">
      <path d="M 46.9525 289.6556 
L 1057.9025 289.6556 
" clip-path="url(#p793b8d7084)" style="fill: none; stroke: #b0b0b0; stroke-width: 0.8; stroke-linecap: square"/>
     </g>
     <g id="line2d_16">
      <g>
       <use xlink:href="#m9ee6ff893b" x="46.9525" y="289.6556" style="stroke: #000000; stroke-width: 0.8"/>
      </g>
     </g>
     <g id="text_9">
      <!-- 4 -->
      <g transform="translate(27.2275 297.254037)scale(0.2 -0.2)">
       <use xlink:href="#DejaVuSans-34"/>
      </g>
     </g>
    </g>
    <g id="ytick_3">
     <g id="line2d_17">
      <path d="M 46.9525 193.031387 
L 1057.9025 193.031387 
" clip-path="url(#p793b8d7084)" style="fill: none; stroke: #b0b0b0; stroke-width: 0.8; stroke-linecap: square"/>
     </g>
     <g id="line2d_18">
      <g>
       <use xlink:href="#m9ee6ff893b" x="46.9525" y="193.031387" style="stroke: #000000; stroke-width: 0.8"/>
      </g>
     </g>
     <g id="text_10">
      <!-- 6 -->
      <g transform="translate(27.2275 200.629824)scale(0.2 -0.2)">
       <use xlink:href="#DejaVuSans-36"/>
      </g>
     </g>
    </g>
    <g id="ytick_4">
     <g id="line2d_19">
      <path d="M 46.9525 96.407173 
L 1057.9025 96.407173 
" clip-path="url(#p793b8d7084)" style="fill: none; stroke: #b0b0b0; stroke-width: 0.8; stroke-linecap: square"/>
     </g>
     <g id="line2d_20">
      <g>
       <use xlink:href="#m9ee6ff893b" x="46.9525" y="96.407173" style="stroke: #000000; stroke-width: 0.8"/>
      </g>
     </g>
     <g id="text_11">
      <!-- 8 -->
      <g transform="translate(27.2275 104.005611)scale(0.2 -0.2)">
       <use xlink:href="#DejaVuSans-38"/>
      </g>
     </g>
    </g>
    <g id="text_12">
     <!-- Speed [m/s] -->
     <g transform="translate(18.23625 326.203395)rotate(-90)scale(0.24 -0.24)">
      <defs>
       <path id="DejaVuSans-53" d="M 3425 4513 
L 3425 3897 
Q 3066 4069 2747 4153 
Q 2428 4238 2131 4238 
Q 1616 4238 1336 4038 
Q 1056 3838 1056 3469 
Q 1056 3159 1242 3001 
Q 1428 2844 1947 2747 
L 2328 2669 
Q 3034 2534 3370 2195 
Q 3706 1856 3706 1288 
Q 3706 609 3251 259 
Q 2797 -91 1919 -91 
Q 1588 -91 1214 -16 
Q 841 59 441 206 
L 441 856 
Q 825 641 1194 531 
Q 1563 422 1919 422 
Q 2459 422 2753 634 
Q 3047 847 3047 1241 
Q 3047 1584 2836 1778 
Q 2625 1972 2144 2069 
L 1759 2144 
Q 1053 2284 737 2584 
Q 422 2884 422 3419 
Q 422 4038 858 4394 
Q 1294 4750 2059 4750 
Q 2388 4750 2728 4690 
Q 3069 4631 3425 4513 
z
" transform="scale(0.015625)"/>
       <path id="DejaVuSans-64" d="M 2906 2969 
L 2906 4863 
L 3481 4863 
L 3481 0 
L 2906 0 
L 2906 525 
Q 2725 213 2448 61 
Q 2172 -91 1784 -91 
Q 1150 -91 751 415 
Q 353 922 353 1747 
Q 353 2572 751 3078 
Q 1150 3584 1784 3584 
Q 2172 3584 2448 3432 
Q 2725 3281 2906 2969 
z
M 947 1747 
Q 947 1113 1208 752 
Q 1469 391 1925 391 
Q 2381 391 2643 752 
Q 2906 1113 2906 1747 
Q 2906 2381 2643 2742 
Q 2381 3103 1925 3103 
Q 1469 3103 1208 2742 
Q 947 2381 947 1747 
z
" transform="scale(0.015625)"/>
       <path id="DejaVuSans-6d" d="M 3328 2828 
Q 3544 3216 3844 3400 
Q 4144 3584 4550 3584 
Q 5097 3584 5394 3201 
Q 5691 2819 5691 2113 
L 5691 0 
L 5113 0 
L 5113 2094 
Q 5113 2597 4934 2840 
Q 4756 3084 4391 3084 
Q 3944 3084 3684 2787 
Q 3425 2491 3425 1978 
L 3425 0 
L 2847 0 
L 2847 2094 
Q 2847 2600 2669 2842 
Q 2491 3084 2119 3084 
Q 1678 3084 1418 2786 
Q 1159 2488 1159 1978 
L 1159 0 
L 581 0 
L 581 3500 
L 1159 3500 
L 1159 2956 
Q 1356 3278 1631 3431 
Q 1906 3584 2284 3584 
Q 2666 3584 2933 3390 
Q 3200 3197 3328 2828 
z
" transform="scale(0.015625)"/>
       <path id="DejaVuSans-2f" d="M 1625 4666 
L 2156 4666 
L 531 -594 
L 0 -594 
L 1625 4666 
z
" transform="scale(0.015625)"/>
      </defs>
      <use xlink:href="#DejaVuSans-53"/>
      <use xlink:href="#DejaVuSans-70" x="63.476562"/>
      <use xlink:href="#DejaVuSans-65" x="126.953125"/>
      <use xlink:href="#DejaVuSans-65" x="188.476562"/>
      <use xlink:href="#DejaVuSans-64" x="250"/>
      <use xlink:href="#DejaVuSans-20" x="313.476562"/>
      <use xlink:href="#DejaVuSans-5b" x="345.263672"/>
      <use xlink:href="#DejaVuSans-6d" x="384.277344"/>
      <use xlink:href="#DejaVuSans-2f" x="481.689453"/>
      <use xlink:href="#DejaVuSans-73" x="515.380859"/>
      <use xlink:href="#DejaVuSans-5d" x="567.480469"/>
     </g>
    </g>
   </g>
   <g id="line2d_21">
    <path d="M 92.904773 482.904027 
L 93.054138 472.637484 
L 93.054138 438.178874 
L 93.536779 426.692671 
L 93.536779 403.720264 
L 94.55569 370.770498 
L 95.038331 359.284294 
L 95.038331 347.798091 
L 95.360092 336.311888 
L 96.486256 324.825684 
L 96.486256 314.787942 
L 96.808017 303.855081 
L 97.987808 295.329949 
L 97.987808 285.969639 
L 98.309569 278.035325 
L 99.811121 274.812925 
L 99.811121 269.488574 
L 100.937285 272.697456 
L 100.937285 270.348661 
L 102.38521 265.411051 
L 102.38521 281.23718 
L 104.208523 283.182558 
L 104.208523 281.500634 
L 105.388313 277.682515 
L 106.192716 278.004157 
L 106.192716 289.490361 
L 107.31888 300.976564 
L 107.31888 300.16235 
L 107.31888 288.676147 
L 108.820432 279.031154 
L 109.624835 278.264314 
L 111.394521 277.011151 
L 111.823536 275.727031 
L 114.719386 282.712337 
L 114.719386 272.335909 
L 116.220937 263.029957 
L 116.220937 257.290585 
L 118.04425 245.826852 
L 118.04425 241.043831 
L 119.492175 237.497327 
L 120.189324 236.437925 
L 120.832847 225.067155 
L 123.031547 214.895181 
L 123.031547 210.34666 
L 123.353309 205.539945 
L 125.015741 204.509937 
L 125.498383 198.390242 
L 125.820144 192.721138 
L 127.643457 191.181057 
L 128.286979 196.6433 
L 128.76962 208.129503 
L 131.075575 231.10191 
L 131.879978 231.033105 
L 131.879978 225.076724 
L 133.006142 216.982481 
L 134.185932 212.189862 
L 134.185932 208.792847 
L 135.312096 208.262965 
L 136.116499 201.645905 
L 136.920902 196.340898 
L 138.100693 189.542106 
L 138.905095 182.82148 
L 139.709498 180.285042 
L 140.835662 179.003553 
L 141.640065 178.334122 
L 142.444467 183.078072 
L 143.24887 181.48501 
L 144.535915 180.1589 
L 145.018556 181.797364 
L 146.198347 177.396012 
L 147.00275 172.446366 
L 147.807153 169.105802 
L 149.094197 167.009876 
L 149.8986 166.257363 
L 150.703002 165.844665 
L 151.990047 165.629474 
L 152.79445 165.216777 
L 153.598852 163.646374 
L 155.207658 161.045667 
L 155.6903 159.771988 
L 156.494702 160.047389 
L 158.103508 161.025117 
L 158.58615 158.925376 
L 159.390552 159.116521 
L 160.194955 163.14318 
L 161.803761 169.952435 
L 162.286402 170.487693 
L 163.090805 172.410452 
L 164.699611 177.213253 
L 165.986655 187.526269 
L 166.844685 189.481512 
L 167.649087 190.021312 
L 168.45349 187.819802 
L 169.257893 186.310765 
L 170.544937 186.053586 
L 171.027579 192.434006 
L 172.636384 191.509207 
L 173.119026 191.53128 
L 173.923429 190.9365 
L 174.727832 190.811181 
L 175.210473 189.308491 
L 176.014876 189.059691 
L 176.819279 200.545894 
L 177.623682 208.819453 
L 178.428084 212.553115 
L 179.071607 224.039319 
L 180.251397 235.525522 
L 180.573158 234.737661 
L 181.699322 245.256516 
L 181.699322 242.91172 
L 183.200874 239.803546 
L 183.522635 235.691808 
L 185.131441 247.178012 
L 185.506829 244.54156 
L 186.8475 245.401289 
L 187.276515 256.887493 
L 187.276515 253.159278 
L 189.099828 241.673075 
L 189.099828 230.186872 
L 190.279618 218.700668 
L 192.371066 209.58007 
L 195.749557 202.257888 
L 195.749557 198.331079 
L 196.071318 200.990211 
L 198.001885 212.476414 
L 198.001885 223.962618 
L 200.146959 235.448821 
L 200.146959 258.421228 
L 202.292033 269.907431 
L 202.989182 263.931663 
L 202.989182 260.497849 
L 202.989182 283.386522 
L 204.490734 294.872725 
L 204.490734 317.845132 
L 206.957569 329.331335 
L 207.27933 323.72888 
L 207.601091 312.242676 
L 207.601091 288.498216 
L 210.443314 282.586894 
L 210.443314 261.995392 
L 212.588388 257.349256 
L 212.588388 244.020809 
L 213.714552 255.507012 
L 215.537865 253.120509 
L 215.537865 258.901242 
L 215.537865 247.995253 
L 216.717656 255.670907 
L 216.717656 252.400149 
L 217.522059 253.257718 
L 218.326461 245.445052 
L 219.130864 245.162472 
L 220.257028 241.302981 
L 221.061431 241.999703 
L 221.865834 236.925607 
L 222.348475 239.19369 
L 222.670236 232.286693 
L 223.957281 229.58736 
L 223.957281 225.671628 
L 225.244325 223.572331 
L 225.244325 222.205586 
L 225.726967 217.136491 
L 226.69225 216.614771 
L 228.086548 206.456701 
L 229.051832 204.747006 
L 229.534473 207.40645 
L 230.928771 200.755463 
L 231.894055 206.768435 
L 232.376696 205.69914 
L 233.34198 201.884277 
L 233.34198 199.447419 
L 234.575397 195.467532 
L 235.058039 206.953735 
L 235.862442 203.061187 
L 236.720471 211.719331 
L 237.524874 221.456614 
L 238.329277 232.872644 
L 239.13368 239.731356 
L 239.616321 248.395928 
L 240.742485 254.361581 
L 240.742485 261.488407 
L 241.761395 260.402359 
L 242.244037 247.550445 
L 243.691962 236.291348 
L 243.691962 234.352312 
L 245.193514 232.686827 
L 245.193514 229.861495 
L 245.515275 241.030636 
L 247.660349 238.339782 
L 247.660349 261.312188 
L 248.357498 257.510489 
L 248.679259 246.199082 
L 249.698169 229.963963 
L 250.01993 240.606482 
L 250.341691 239.850198 
L 251.467855 228.788757 
L 251.843243 228.645151 
L 252.486765 222.664237 
L 253.183914 227.053077 
L 253.505676 221.439342 
L 254.149198 222.478502 
L 254.846347 217.705928 
L 257.313182 209.370889 
L 257.313182 193.381941 
L 258.010331 189.299321 
L 259.672763 187.603387 
L 262.139599 187.158702 
L 262.139599 193.136982 
L 264.660061 191.244346 
L 264.660061 188.340578 
L 266.805135 181.004871 
L 266.805135 172.780325 
L 267.448657 170.235953 
L 269.593731 168.311696 
L 269.593731 166.295209 
L 272.114193 164.11307 
L 272.114193 161.380691 
L 273.937506 158.67606 
L 273.937506 155.820675 
L 275.385431 152.672682 
L 275.385431 149.491207 
L 277.208744 147.006855 
L 278.710295 145.817897 
L 278.710295 145.53298 
L 280.104594 145.72604 
L 281.552519 147.92483 
L 281.552519 148.238463 
L 283.322205 147.706835 
L 284.823756 146.457656 
L 284.823756 144.713458 
L 286.003547 143.111427 
L 286.003547 141.520677 
L 289.274785 139.349565 
L 289.274785 138.561047 
L 290.776337 138.381881 
L 292.224262 138.386525 
L 292.224262 138.974892 
L 293.725814 138.882593 
L 294.851978 138.372919 
L 296.353529 137.889492 
L 296.353529 137.733782 
L 297.855081 137.941882 
L 298.981245 137.751009 
L 300.107409 137.721319 
L 301.608961 137.845956 
L 302.735125 138.521335 
L 303.432274 140.602761 
L 303.914915 144.519008 
L 305.041079 149.428895 
L 306.167243 152.749642 
L 307.347034 154.154065 
L 308.312317 153.329199 
L 308.794959 151.917662 
L 309.921123 150.805823 
L 311.100913 150.322555 
L 312.227077 149.341281 
L 313.353241 148.144694 
L 314.533032 147.241552 
L 315.176554 147.103217 
L 316.356345 147.001792 
L 316.78536 149.896717 
L 318.286911 152.269089 
L 319.413075 153.507939 
L 320.110224 163.965571 
L 321.236388 167.890601 
L 321.71903 166.88693 
L 322.845194 166.067887 
L 324.024984 165.549985 
L 325.151148 165.191407 
L 325.848297 165.705522 
L 326.974461 168.878451 
L 327.457103 180.34977 
L 328.583267 185.692884 
L 329.709431 192.219617 
L 330.084819 198.293318 
L 331.210982 202.248864 
L 332.337146 202.140325 
L 333.034295 204.670347 
L 333.516937 215.730404 
L 334.643101 215.430685 
L 335.34025 214.92653 
L 335.769265 215.414902 
L 336.949056 214.838445 
L 338.075219 213.991093 
L 338.075219 219.732875 
L 339.201383 221.94014 
L 340.381174 225.085904 
L 340.381174 232.772237 
L 341.507338 243.704556 
L 342.633502 241.098484 
L 342.633502 251.435932 
L 343.813292 262.922135 
L 344.456815 257.68084 
L 344.939456 264.321081 
L 346.06562 275.807284 
L 346.06562 287.293487 
L 347.245411 298.779691 
L 347.245411 303.305233 
L 348.371575 298.706926 
L 348.693336 288.25293 
L 349.175978 299.739133 
L 349.98038 292.443391 
L 349.98038 282.279483 
L 351.160171 293.765687 
L 351.589186 290.87452 
L 351.589186 283.803858 
L 353.73426 275.917818 
L 355.128558 268.581073 
L 355.932961 260.045558 
L 356.737363 248.559355 
L 357.917154 237.073152 
L 357.917154 226.625242 
L 359.68684 218.418675 
L 359.68684 212.384718 
L 361.831914 208.60755 
L 361.831914 207.87 
L 361.831914 219.356203 
L 364.030615 230.842406 
L 364.030615 226.819344 
L 364.030615 238.305548 
L 367.301853 233.864593 
L 367.301853 245.350796 
L 367.623614 256.837 
L 368.320763 245.459961 
L 368.642524 233.973757 
L 370.787598 224.440324 
L 370.787598 212.978304 
L 371.10936 211.453927 
L 373.629821 201.920946 
L 373.629821 193.982606 
L 375.077746 187.164528 
L 375.077746 182.322752 
L 376.901059 180.563748 
L 378.402611 178.366678 
L 380.333178 178.137139 
L 380.333178 189.623343 
L 381.459342 199.543802 
L 381.459342 208.637873 
L 382.639132 205.49405 
L 384.087057 201.315114 
L 384.569699 200.977294 
L 384.569699 212.035594 
L 385.74949 213.965215 
L 387.197415 207.115302 
L 387.680056 201.605331 
L 388.80622 195.955621 
L 389.986011 191.25997 
L 391.594817 179.124217 
L 392.399219 173.383265 
L 393.686264 167.767961 
L 393.686264 163.751551 
L 395.61683 166.527149 
L 396.421233 162.844949 
L 397.225636 162.15148 
L 398.083665 165.335124 
L 399.209829 172.275362 
L 400.496874 183.761566 
L 400.979515 195.247769 
L 402.588321 218.220176 
L 404.197126 229.706379 
L 404.197126 241.192583 
L 404.679768 252.678786 
L 405.484171 264.164989 
L 405.805932 272.489888 
L 407.092976 278.886924 
L 407.092976 278.726528 
L 407.575618 290.212732 
L 407.575618 301.698935 
L 408.380021 313.185138 
L 409.184424 313.837573 
L 409.184424 322.793096 
L 409.667065 312.177902 
L 409.988826 310.0941 
L 410.471468 305.378919 
L 410.793229 294.293342 
L 412.080274 286.214033 
L 412.080274 277.894959 
L 412.562915 268.109819 
L 414.171721 248.464645 
L 415.137004 239.607498 
L 415.619646 232.130944 
L 416.424048 225.923565 
L 416.90669 219.601079 
L 418.193735 214.189227 
L 418.622749 209.26737 
L 419.588033 205.346734 
L 420.070674 201.993226 
L 421.357719 198.832996 
L 421.84036 197.023966 
L 422.752017 196.636796 
L 423.234659 196.683041 
L 425.004345 198.926183 
L 425.969628 201.580108 
L 427.363926 200.79117 
L 428.329209 202.929674 
L 428.811851 204.845772 
L 430.206149 209.435799 
L 431.171432 208.32266 
L 432.136716 206.491037 
L 432.565731 204.85045 
L 434.013656 202.618082 
L 434.978939 205.614642 
L 435.890595 211.53229 
L 435.890595 211.052623 
L 436.373237 207.77217 
L 438.142923 205.842252 
L 438.625565 203.76837 
L 439.537221 202.094232 
L 440.502505 201.201349 
L 441.467788 198.729793 
L 441.467788 196.401229 
L 444.14913 194.550719 
L 445.597055 201.239253 
L 445.597055 201.002281 
L 447.795756 202.737897 
L 448.76104 213.119831 
L 448.76104 214.573965 
L 450.530726 220.967725 
L 451.442382 227.896302 
L 451.442382 232.366452 
L 451.442382 231.08102 
L 453.69471 225.76122 
L 454.177351 222.135185 
L 454.177351 212.183339 
L 456.429679 205.985733 
L 456.858694 202.545323 
L 456.858694 199.092868 
L 459.111022 197.405291 
L 459.111022 195.025728 
L 461.36335 194.676114 
L 461.36335 215.259711 
L 463.56205 226.745914 
L 463.56205 229.208921 
L 463.56205 226.780607 
L 465.814378 226.702507 
L 465.814378 232.105736 
L 465.814378 231.303579 
L 468.013079 233.79621 
L 468.013079 230.526353 
L 469.782765 229.335825 
L 469.782765 225.837962 
L 471.552451 222.496185 
L 471.552451 218.260616 
L 473.322137 213.756308 
L 474.233794 220.680237 
L 474.716435 232.16644 
L 477.451405 232.02026 
L 478.255808 229.947418 
L 479.381971 225.503389 
L 480.883523 215.909125 
L 480.883523 207.58233 
L 483.028597 201.748892 
L 483.028597 198.455487 
L 485.173671 191.991232 
L 485.495432 188.09287 
L 485.495432 191.277993 
L 487.640506 202.764196 
L 488.337655 209.732964 
L 488.981178 210.618426 
L 489.678327 206.156622 
L 490.64361 201.771361 
L 492.466923 198.357583 
L 492.466923 197.229718 
L 493.164072 200.971484 
L 493.807594 208.578119 
L 495.630907 206.364857 
L 495.630907 205.305705 
L 496.328056 204.927683 
L 498.097742 206.247178 
L 498.097742 206.15345 
L 499.921055 204.949317 
L 501.100846 204.547405 
L 501.422607 213.016023 
L 502.548771 211.846152 
L 503.24592 207.207128 
L 503.728562 202.906468 
L 504.854726 198.726328 
L 505.498248 195.249904 
L 506.302651 191.715494 
L 508.286844 186.571818 
L 508.930366 183.674946 
L 510.110157 180.285412 
L 510.91456 176.797501 
L 512.040724 174.258134 
L 513.542275 169.67198 
L 514.668439 168.317268 
L 515.794603 168.522751 
L 516.169991 173.354996 
L 517.617916 177.207986 
L 517.993304 180.516929 
L 519.119468 180.244194 
L 520.567393 178.933603 
L 520.567393 177.849596 
L 522.390706 176.846094 
L 522.390706 175.501913 
L 524.214019 174.375408 
L 524.214019 172.932224 
L 526.037332 170.708502 
L 526.037332 166.974122 
L 527.860645 164.402179 
L 527.860645 163.068374 
L 529.683957 162.568255 
L 530.005719 162.111787 
L 531.50727 161.076809 
L 531.829032 159.236989 
L 533.652344 157.123035 
L 533.652344 154.841944 
L 535.422031 152.942314 
L 535.422031 151.014757 
L 537.245343 149.27488 
L 537.245343 148.1557 
L 539.390418 146.960238 
L 539.390418 146.689558 
L 541.21373 147.303995 
L 541.21373 149.087281 
L 543.037043 153.234366 
L 543.037043 154.47102 
L 544.860356 157.233575 
L 545.182117 161.03448 
L 546.683669 160.858473 
L 547.00543 160.383206 
L 548.828743 161.154039 
L 548.828743 160.906106 
L 550.652056 160.03496 
L 550.652056 157.192583 
L 552.421742 154.702682 
L 552.421742 153.81778 
L 554.245055 154.720942 
L 554.620443 155.983245 
L 556.068368 155.911931 
L 557.56992 155.454734 
L 557.891681 154.137702 
L 559.714994 152.615198 
L 560.036755 150.606442 
L 561.538307 149.332765 
L 561.860068 148.161898 
L 563.36162 147.374286 
L 563.683381 146.589524 
L 565.506694 147.648129 
L 565.506694 149.523168 
L 567.27638 152.492334 
L 567.27638 154.766191 
L 569.099693 158.239034 
L 569.475081 160.43425 
L 571.244767 160.381219 
L 571.244767 160.627363 
L 573.06808 160.172535 
L 573.06808 160.527405 
L 574.891393 160.745597 
L 574.891393 159.983497 
L 576.714706 157.187269 
L 576.714706 154.647428 
L 578.85978 153.169267 
L 578.85978 152.016273 
L 580.683093 150.88378 
L 580.683093 149.941478 
L 582.506406 148.678974 
L 582.506406 147.371203 
L 584.276092 146.012197 
L 584.65148 145.052145 
L 586.099405 144.372025 
L 587.600956 143.805125 
L 587.922718 145.17547 
L 589.74603 147.436476 
L 590.067792 150.639674 
L 591.569343 152.303255 
L 591.891104 157.370252 
L 593.714417 161.327365 
L 593.714417 160.939322 
L 595.53773 162.860203 
L 595.53773 162.749124 
L 597.361043 163.000216 
L 597.361043 166.425759 
L 599.130729 163.442019 
L 599.506117 160.64201 
L 601.32943 157.248939 
L 601.32943 154.241994 
L 603.099116 151.975857 
L 603.099116 150.704403 
L 604.922429 149.203126 
L 604.922429 147.487131 
L 606.745742 146.409111 
L 608.890816 146.68598 
L 608.890816 149.478673 
L 610.714129 151.410925 
L 610.714129 154.021011 
L 612.537442 157.504585 
L 614.360755 157.930101 
L 614.360755 169.371832 
L 616.130441 178.946712 
L 616.130441 189.487631 
L 617.953754 187.876669 
L 617.953754 191.756225 
L 620.098828 191.446169 
L 620.098828 194.11287 
L 621.60038 197.385802 
L 621.922141 197.195715 
L 623.745454 207.639775 
L 623.745454 214.406295 
L 625.568767 217.989691 
L 625.568767 219.473472 
L 627.39208 223.489681 
L 627.39208 228.830691 
L 627.713841 239.436061 
L 629.537154 238.110307 
L 629.858915 248.668914 
L 631.360467 260.155117 
L 631.360467 271.051828 
L 632.808392 278.01858 
L 633.505541 282.868441 
L 634.524451 291.581748 
L 635.167973 293.733665 
L 635.167973 299.018296 
L 635.167973 296.702983 
L 637.313047 308.189186 
L 637.634808 307.697635 
L 639.779882 308.337901 
L 639.779882 286.31458 
L 641.978583 275.103871 
L 641.978583 265.936189 
L 641.978583 277.422392 
L 643.426508 273.84632 
L 643.426508 263.634316 
L 646.697746 258.566828 
L 648.896447 254.596335 
L 650.022611 249.179753 
L 650.022611 246.354426 
L 651.202402 257.215252 
L 651.202402 253.303616 
L 652.328565 247.078515 
L 652.650327 238.086991 
L 654.151878 231.278192 
L 654.473639 230.767507 
L 654.795401 228.309034 
L 656.296952 226.802213 
L 656.994101 226.674553 
L 657.315863 236.175862 
L 658.442026 232.38914 
L 659.139175 226.284399 
L 659.782698 219.439099 
L 661.123369 209.913368 
L 662.249533 204.362414 
L 663.590204 193.126733 
L 664.609114 189.05741 
L 665.306263 185.677208 
L 666.968696 181.077631 
L 667.987606 179.747161 
L 668.631128 178.24544 
L 669.650038 177.495045 
L 670.29356 176.196012 
L 671.312471 174.90741 
L 672.00962 173.836822 
L 672.974903 172.58601 
L 673.672052 170.823108 
L 676.353395 161.447284 
L 677.372305 159.523911 
L 679.034737 155.741368 
L 681.179811 153.421287 
L 681.179811 151.60695 
L 682.198721 150.054704 
L 682.842244 148.581978 
L 683.861154 146.963438 
L 684.880064 145.616456 
L 685.898974 145.041765 
L 686.542496 144.475376 
L 689.223839 143.574967 
L 689.70648 143.0602 
L 690.725391 143.180432 
L 691.368913 143.582783 
L 692.387823 145.238743 
L 693.406733 149.192308 
L 694.372016 151.838025 
L 695.390927 162.068336 
L 696.088076 165.898202 
L 697.053359 165.723357 
L 698.876672 163.829208 
L 699.895582 162.725108 
L 701.558014 161.686051 
L 702.576925 173.116879 
L 703.274074 182.219817 
L 704.239357 184.572698 
L 704.936506 188.225641 
L 706.277177 196.596815 
L 706.759819 195.981017 
L 707.403341 200.264969 
L 708.422251 199.784375 
L 709.065774 202.308204 
L 709.762923 204.00767 
L 710.406445 215.188692 
L 711.425355 216.108672 
L 712.122504 215.818475 
L 712.766026 218.088427 
L 713.463175 223.551024 
L 714.803847 225.596688 
L 715.232861 227.380381 
L 715.930011 224.346458 
L 717.270682 243.280079 
L 717.914204 241.927417 
L 718.289592 240.588067 
L 718.933114 239.589644 
L 720.756427 251.075847 
L 720.756427 244.354718 
L 722.901501 239.476274 
L 722.901501 243.785513 
L 723.223262 255.153152 
L 723.920411 255.078506 
L 725.368336 250.345126 
L 725.368336 248.300374 
L 726.709008 259.786577 
L 727.191649 251.624625 
L 728.37144 244.604804 
L 729.175843 241.704729 
L 729.175843 236.59412 
L 731.26729 229.435431 
L 732.983349 223.045216 
L 733.948632 226.855734 
L 735.128423 238.341937 
L 735.450184 249.828141 
L 736.737229 261.314344 
L 736.737229 253.722082 
L 738.989556 276.694489 
L 738.989556 265.208285 
L 740.491108 273.051614 
L 740.491108 296.024021 
L 740.491108 296.024021 
" clip-path="url(#p793b8d7084)" style="fill: none; stroke: #ff3f34; stroke-opacity: 0.99; stroke-width: 2.4; stroke-linecap: square"/>
   </g>
   <g id="line2d_22">
    <path d="M 92.904773 482.904027 
L 93.054138 472.499485 
L 93.054138 438.040875 
L 93.536779 426.554672 
L 93.536779 403.582265 
L 93.858541 392.096062 
L 93.858541 380.609859 
L 94.55569 369.123655 
L 95.038331 357.637452 
L 95.038331 346.151249 
L 95.360092 334.665045 
L 96.003615 323.178842 
L 96.486256 312.063297 
L 96.486256 301.958099 
L 97.987808 293.307587 
L 97.987808 279.352387 
L 99.811121 273.075649 
L 99.811121 268.249838 
L 100.937285 264.346815 
L 100.937285 261.07268 
L 102.38521 259.873032 
L 102.38521 258.314505 
L 102.38521 259.328586 
L 104.208523 260.705552 
L 104.208523 260.451803 
L 105.710075 261.492832 
L 106.192716 261.11326 
L 106.192716 260.747329 
L 107.31888 262.809874 
L 107.31888 261.674805 
L 111.394521 258.386315 
L 114.719386 254.158093 
L 116.220937 251.660298 
L 116.220937 247.95831 
L 118.04425 244.163689 
L 118.04425 233.401871 
L 120.511085 227.826914 
L 123.031547 221.003915 
L 123.031547 208.253415 
L 125.498383 203.021044 
L 125.498383 197.947863 
L 128.76962 198.272488 
L 129.949411 197.612734 
L 131.075575 196.431702 
L 131.879978 194.207982 
L 131.879978 190.862637 
L 133.006142 186.895858 
L 135.312096 180.41865 
L 136.43826 177.686727 
L 136.920902 175.046862 
L 138.100693 172.620549 
L 139.226856 171.335145 
L 140.835662 169.205514 
L 142.122706 167.958649 
L 142.927109 166.70087 
L 144.535915 165.436549 
L 144.535915 164.24761 
L 145.822959 164.115021 
L 146.627362 163.875891 
L 147.431765 166.194513 
L 148.611555 165.909692 
L 149.415958 166.111052 
L 150.703002 166.981979 
L 151.185644 168.5777 
L 152.311808 169.416724 
L 153.116211 169.482115 
L 154.403255 169.193856 
L 155.207658 170.193473 
L 156.012061 173.094769 
L 156.816463 173.260942 
L 158.103508 175.480112 
L 158.58615 179.552451 
L 159.712313 182.915457 
L 160.516716 184.734216 
L 161.803761 186.318699 
L 162.286402 189.439874 
L 163.090805 190.480987 
L 163.895208 194.972972 
L 165.182252 195.162956 
L 165.986655 194.768155 
L 166.844685 195.862919 
L 167.649087 195.987172 
L 168.45349 198.643929 
L 169.257893 203.758234 
L 170.544937 205.641677 
L 171.027579 205.425368 
L 171.831982 205.855198 
L 172.636384 205.664808 
L 175.210473 216.097152 
L 175.532234 215.960053 
L 176.336637 217.836594 
L 177.14104 221.412952 
L 178.106323 225.103898 
L 178.749845 226.200251 
L 179.554248 229.236379 
L 180.251397 228.737265 
L 180.573158 228.68482 
L 181.699322 225.817815 
L 182.07471 224.103961 
L 183.522635 222.810613 
L 183.522635 221.554132 
L 185.131441 223.256649 
L 186.8475 227.042909 
L 187.276515 226.115573 
L 187.276515 225.584099 
L 189.099828 226.666186 
L 190.279618 229.178042 
L 190.279618 228.173907 
L 192.371066 227.946467 
L 194.248005 226.811578 
L 195.749557 224.340088 
L 195.749557 223.205283 
L 196.071318 227.10954 
L 197.680124 227.201839 
L 198.001885 225.633726 
L 198.806288 224.725961 
L 199.503437 223.164858 
L 200.146959 220.919804 
L 200.951362 219.338096 
L 201.32675 217.6274 
L 201.970272 215.648756 
L 203.310943 214.51829 
L 203.793585 213.488368 
L 204.812495 211.93449 
L 205.295137 211.845196 
L 205.295137 211.347423 
L 205.938659 212.356629 
L 208.405494 211.405342 
L 208.405494 209.007982 
L 208.780882 208.910991 
L 211.247717 207.353404 
L 211.247717 204.110435 
L 213.392791 207.928351 
L 214.518955 218.086177 
L 214.518955 233.223835 
L 216.342268 239.112855 
L 217.84382 241.709773 
L 218.648223 242.694123 
L 219.452625 242.471054 
L 220.257028 247.503663 
L 220.73967 246.452478 
L 221.544072 244.257819 
L 223.152878 241.38522 
L 223.152878 238.099229 
L 224.439922 234.838374 
L 224.439922 232.748359 
L 227.603907 232.106454 
L 228.086548 236.656033 
L 229.051832 241.144417 
L 229.534473 241.215631 
L 230.017115 240.82878 
L 230.928771 241.977861 
L 232.376696 237.038503 
L 234.146382 233.053311 
L 235.433427 228.82741 
L 236.23783 224.859224 
L 236.23783 221.416143 
L 237.953889 218.930259 
L 238.811918 217.155826 
L 239.938082 216.872078 
L 241.386007 219.932504 
L 241.386007 221.382951 
L 242.887559 220.388452 
L 242.887559 218.69294 
L 244.389111 216.015749 
L 246.534185 211.049538 
L 246.855946 205.633488 
L 246.855946 200.518991 
L 249.00102 195.856261 
L 250.01993 189.680656 
L 250.01993 188.774532 
L 253.183914 187.753377 
L 253.827437 187.290874 
L 254.846347 186.961696 
L 257.313182 185.504659 
L 257.313182 181.69584 
L 258.010331 179.251352 
L 259.994525 174.051778 
L 262.139599 171.965837 
L 262.139599 170.375173 
L 262.514987 168.501067 
L 264.660061 166.825826 
L 264.660061 165.729746 
L 266.805135 165.287651 
L 266.805135 164.746327 
L 267.126896 164.341082 
L 269.593731 163.775568 
L 269.593731 163.474046 
L 269.969119 162.82187 
L 272.114193 162.215748 
L 272.114193 161.69257 
L 273.937506 160.864287 
L 275.385431 159.63182 
L 275.385431 158.992169 
L 277.208744 158.524718 
L 277.208744 157.736634 
L 278.710295 157.390142 
L 280.104594 157.214604 
L 280.104594 156.617462 
L 281.552519 156.23739 
L 281.552519 156.567147 
L 284.823756 156.781561 
L 284.823756 156.762856 
L 286.003547 157.079056 
L 286.003547 158.689587 
L 289.274785 159.675454 
L 289.274785 159.642509 
L 292.224262 158.964118 
L 292.224262 158.367836 
L 294.851978 158.205778 
L 294.851978 159.549084 
L 296.353529 160.299747 
L 297.855081 160.043417 
L 300.107409 159.994264 
L 301.608961 159.86018 
L 302.735125 161.844342 
L 303.432274 162.170693 
L 303.914915 164.128523 
L 305.041079 169.373864 
L 306.167243 171.315003 
L 307.347034 178.717061 
L 307.347034 183.273968 
L 308.794959 186.146842 
L 309.921123 188.842846 
L 311.100913 188.81891 
L 311.100913 188.388139 
L 312.227077 188.553073 
L 313.353241 188.350145 
L 314.533032 188.314768 
L 314.533032 187.176391 
L 315.659196 186.308204 
L 316.78536 184.913214 
L 316.78536 184.070878 
L 318.286911 185.596612 
L 319.413075 187.082108 
L 320.592866 186.401592 
L 321.71903 186.641286 
L 321.71903 187.397325 
L 322.845194 187.142698 
L 325.151148 186.988872 
L 325.151148 189.615095 
L 326.277312 188.292531 
L 327.457103 187.909342 
L 328.583267 190.288112 
L 329.709431 192.125749 
L 329.709431 191.867687 
L 331.210982 195.863892 
L 331.210982 202.193051 
L 332.337146 207.290237 
L 333.516937 214.505338 
L 334.643101 222.09656 
L 334.643101 227.19035 
L 336.949056 237.147978 
L 336.949056 239.125789 
L 338.075219 240.842106 
L 338.075219 240.759464 
L 339.201383 240.597928 
L 340.381174 244.544979 
L 340.381174 244.145749 
L 341.507338 246.418156 
L 342.633502 247.490314 
L 342.633502 248.994471 
L 343.813292 249.905408 
L 343.813292 255.094383 
L 344.939456 256.13575 
L 346.06562 257.633892 
L 346.06562 257.530462 
L 347.245411 256.515529 
L 347.245411 255.882331 
L 348.693336 254.801043 
L 349.497739 253.768066 
L 349.98038 252.599838 
L 351.160171 251.805309 
L 351.589186 250.819903 
L 355.932961 249.538209 
L 356.737363 247.855056 
L 357.917154 246.534891 
L 359.68684 244.362708 
L 359.68684 239.586141 
L 361.831914 233.718405 
L 361.831914 220.771375 
L 364.030615 215.472618 
L 364.030615 210.014437 
L 367.301853 205.990428 
L 367.301853 202.973017 
L 367.623614 204.424087 
L 368.320763 210.429045 
L 370.787598 212.649377 
L 370.787598 217.646411 
L 371.484747 218.848924 
L 373.629821 217.221543 
L 375.077746 212.854624 
L 375.077746 201.927995 
L 376.901059 196.741818 
L 378.402611 192.991898 
L 378.402611 188.870408 
L 380.333178 185.585406 
L 380.333178 182.847854 
L 381.459342 180.588821 
L 382.639132 179.836326 
L 383.765296 179.380353 
L 384.569699 179.481195 
L 385.74949 179.211397 
L 385.74949 178.833794 
L 387.680056 178.725654 
L 387.680056 178.508316 
L 389.181608 176.981021 
L 390.415026 175.535832 
L 391.273055 173.235229 
L 392.077458 172.0532 
L 392.881861 170.317766 
L 394.812428 167.444475 
L 396.796621 166.041384 
L 397.601024 166.108688 
L 398.888068 166.095887 
L 399.692471 167.81564 
L 400.496874 168.038909 
L 403.392724 165.356099 
L 404.197126 164.230741 
L 405.484171 163.399689 
L 406.288574 163.02217 
L 407.092976 163.409436 
L 408.380021 163.266212 
L 409.184424 164.09363 
L 409.988826 164.722539 
L 410.793229 166.10055 
L 412.080274 165.731468 
L 413.367318 164.476492 
L 413.84996 163.219082 
L 415.137004 162.431657 
L 416.90669 161.486513 
L 416.90669 160.740163 
L 419.588033 159.639011 
L 419.588033 159.774364 
L 421.357719 160.421831 
L 422.323002 161.743302 
L 423.234659 162.207168 
L 424.199942 162.175628 
L 424.199942 162.251602 
L 425.969628 161.850418 
L 426.881284 160.808893 
L 427.846568 160.276746 
L 428.329209 159.468241 
L 429.294493 158.883942 
L 431.171432 157.348923 
L 434.013656 156.427435 
L 434.978939 155.859468 
L 436.694998 155.833043 
L 436.694998 155.581999 
L 437.660281 155.61452 
L 439.537221 155.336746 
L 440.502505 156.757861 
L 442.272191 156.33817 
L 442.272191 158.735242 
L 443.237474 158.513919 
L 444.14913 158.48939 
L 446.079697 157.970561 
L 446.8841 158.917218 
L 447.795756 158.670977 
L 449.565442 160.405054 
L 449.565442 161.033479 
L 450.530726 162.787708 
L 452.300412 162.48613 
L 452.300412 164.743043 
L 453.212068 166.135726 
L 454.981754 168.530404 
L 454.981754 169.483993 
L 455.947038 170.547522 
L 457.663097 171.179062 
L 457.663097 172.805201 
L 459.593663 175.675472 
L 459.915425 177.967493 
L 460.398066 178.782387 
L 461.792364 180.607329 
L 462.167752 183.776581 
L 463.079409 185.3 
L 464.849095 185.175178 
L 466.618781 184.373974 
L 467.584064 183.932937 
L 468.495721 186.343566 
L 469.300123 187.061593 
L 470.265407 186.457446 
L 471.06981 186.448168 
L 472.035093 186.726858 
L 472.839496 188.568192 
L 473.322137 192.494945 
L 474.233794 193.682766 
L 475.199077 193.433746 
L 475.681719 195.315666 
L 476.968763 194.452583 
L 477.773166 194.818725 
L 478.577569 194.769623 
L 479.381971 194.101526 
L 480.508135 194.933906 
L 481.205284 196.260118 
L 482.009687 196.213884 
L 482.706836 195.630115 
L 483.833 195.433266 
L 484.154761 194.472521 
L 485.173671 193.456861 
L 486.299835 192.556428 
L 486.621596 191.604872 
L 487.640506 190.952154 
L 488.337655 190.11709 
L 488.981178 189.52782 
L 490.000088 189.342288 
L 490.64361 188.800391 
L 491.66252 188.147778 
L 491.66252 185.367343 
L 494.182982 184.370247 
L 494.826504 183.061054 
L 494.826504 181.969303 
L 497.29334 180.14478 
L 497.29334 179.903982 
L 499.116653 181.71254 
L 499.116653 181.608052 
L 499.116653 181.007285 
L 501.744368 180.827594 
L 501.744368 180.338622 
L 502.870532 178.685576 
L 504.050323 177.169601 
L 505.498248 176.683613 
L 505.498248 175.550169 
L 505.873636 174.473252 
L 507.482441 173.423424 
L 508.608605 172.114488 
L 510.91456 167.795039 
L 510.91456 166.111004 
L 512.040724 164.993711 
L 513.220514 165.267196 
L 516.169991 175.710412 
L 516.169991 183.265752 
L 517.617916 192.218941 
L 517.617916 198.76377 
L 519.119468 197.674662 
L 519.119468 195.711914 
L 520.567393 191.712287 
L 522.390706 187.533065 
L 522.390706 183.302973 
L 524.214019 179.65486 
L 524.214019 176.295996 
L 526.037332 173.565888 
L 526.037332 171.347084 
L 527.860645 169.25444 
L 527.860645 167.877413 
L 530.005719 166.659641 
L 530.005719 163.979785 
L 531.829032 163.057646 
L 531.829032 161.951891 
L 533.652344 161.2392 
L 535.422031 160.697256 
L 535.422031 160.056504 
L 537.245343 159.586328 
L 537.245343 158.920841 
L 539.068656 158.1891 
L 539.390418 157.605039 
L 539.765805 156.602065 
L 541.21373 156.040977 
L 543.037043 157.007104 
L 543.037043 156.66576 
L 544.860356 157.788422 
L 544.860356 157.266841 
L 546.683669 156.976039 
L 546.683669 157.398304 
L 548.506982 157.037103 
L 548.828743 156.812507 
L 550.276668 157.862525 
L 550.652056 157.711966 
L 552.421742 158.238575 
L 552.421742 158.557124 
L 554.245055 160.035966 
L 554.245055 159.730042 
L 556.068368 160.333259 
L 556.068368 160.142752 
L 557.891681 164.748564 
L 557.891681 169.570559 
L 560.036755 177.634324 
L 560.036755 179.476952 
L 561.860068 182.704638 
L 561.860068 184.73527 
L 563.683381 184.269068 
L 563.683381 183.766956 
L 565.506694 183.630775 
L 565.506694 184.23663 
L 567.27638 183.89244 
L 567.27638 185.009947 
L 569.475081 184.654499 
L 569.475081 183.528636 
L 571.244767 182.61759 
L 571.244767 180.495657 
L 573.06808 179.048814 
L 573.06808 177.63212 
L 574.891393 176.723809 
L 574.891393 175.225368 
L 576.714706 173.827926 
L 576.714706 172.328366 
L 578.85978 171.509379 
L 578.85978 170.074269 
L 580.683093 169.652938 
L 580.683093 168.803968 
L 582.506406 168.451501 
L 582.506406 167.790005 
L 584.276092 167.575186 
L 584.276092 167.183873 
L 586.099405 166.820304 
L 586.099405 166.14597 
L 587.922718 165.706351 
L 590.067792 164.954825 
L 590.067792 164.895151 
L 591.891104 164.62688 
L 591.891104 164.152535 
L 593.714417 163.741253 
L 593.714417 163.271429 
L 595.53773 163.137296 
L 595.53773 163.329505 
L 599.506117 162.218387 
L 599.506117 162.638862 
L 601.32943 162.082263 
L 601.32943 161.696288 
L 603.099116 161.397877 
L 604.922429 163.100179 
L 604.922429 165.122691 
L 606.745742 167.060795 
L 606.745742 171.063661 
L 608.890816 174.999523 
L 608.890816 177.950265 
L 610.714129 180.558104 
L 610.714129 182.781893 
L 612.537442 183.401309 
L 612.537442 184.504403 
L 614.360755 186.860912 
L 614.360755 187.881251 
L 616.130441 188.321117 
L 616.130441 190.583525 
L 617.953754 190.507613 
L 617.953754 190.14045 
L 619.777067 192.83412 
L 620.098828 195.367061 
L 620.098828 196.534275 
L 621.922141 199.051526 
L 621.922141 200.830823 
L 623.745454 201.937655 
L 623.745454 207.414922 
L 625.568767 212.215167 
L 625.568767 215.0015 
L 627.39208 223.315455 
L 627.39208 231.694418 
L 629.537154 238.436961 
L 629.537154 243.359943 
L 631.360467 249.983102 
L 631.360467 249.714034 
L 631.360467 251.435521 
L 633.505541 255.864715 
L 634.846212 255.013762 
L 635.167973 256.386818 
L 635.167973 258.894687 
L 637.634808 259.490221 
L 639.779882 260.274569 
L 639.779882 257.02474 
L 641.978583 256.678573 
L 641.978583 251.026295 
L 643.426508 245.828917 
L 648.413805 241.638896 
L 650.022611 237.679685 
L 650.022611 233.069783 
L 651.202402 227.798788 
L 652.328565 221.372349 
L 654.473639 214.39984 
L 654.473639 202.896774 
L 656.994101 198.594993 
L 657.315863 196.144238 
L 657.315863 194.359386 
L 659.460937 192.626508 
L 660.104459 190.319416 
L 661.123369 187.692561 
L 661.123369 181.597476 
L 663.590204 178.601104 
L 664.287353 175.75933 
L 665.306263 173.654001 
L 665.949786 171.232594 
L 666.968696 169.533222 
L 670.29356 165.016599 
L 672.331381 163.563853 
L 672.974903 162.378176 
L 676.675156 159.373026 
L 678.337588 158.517231 
L 679.356498 158.104684 
L 681.179811 157.549594 
L 682.198721 158.680471 
L 683.217632 159.367951 
L 683.861154 160.936649 
L 684.880064 160.680324 
L 685.898974 160.245811 
L 686.542496 163.546074 
L 687.561406 164.339986 
L 689.70648 164.911371 
L 689.70648 164.671246 
L 690.350003 169.817742 
L 691.047152 171.6833 
L 692.066062 172.741646 
L 693.031345 172.976216 
L 693.728494 175.185138 
L 694.747404 177.109035 
L 695.390927 177.104348 
L 696.409837 179.995133 
L 698.23315 182.566237 
L 698.23315 185.109751 
L 698.876672 187.204293 
L 699.573821 187.199315 
L 700.592731 189.229279 
L 701.236253 191.279586 
L 702.255164 196.538713 
L 702.898686 196.807747 
L 703.595835 197.840289 
L 704.614745 197.646795 
L 706.759819 197.5228 
L 706.759819 196.135722 
L 707.08158 195.506331 
L 707.725102 197.17165 
L 708.422251 198.121765 
L 709.441162 200.428911 
L 710.084684 202.788267 
L 710.781833 209.206268 
L 711.747116 213.935233 
L 712.444265 216.441475 
L 713.087787 227.353574 
L 715.232861 236.080612 
L 715.232861 244.369081 
L 715.930011 245.198661 
L 716.573533 248.696321 
L 717.270682 253.341279 
L 717.914204 254.291213 
L 718.611353 254.272475 
L 720.756427 255.468923 
L 720.756427 254.124423 
L 722.901501 253.918094 
L 722.901501 256.496682 
L 722.901501 254.592591 
L 725.368336 252.058008 
L 725.368336 244.984568 
L 727.191649 243.084851 
L 728.37144 238.409449 
L 729.175843 232.539581 
L 732.983349 224.632271 
L 735.128423 217.210883 
L 735.450184 209.822428 
L 737.863393 197.36847 
L 738.989556 191.954779 
L 740.491108 188.112623 
L 740.491108 184.474662 
L 741.617272 182.623875 
L 741.617272 181.948784 
L 742.797063 181.510462 
L 743.923227 181.371191 
L 745.049391 179.958083 
L 746.550942 178.487305 
L 746.550942 176.240913 
L 747.677106 173.613463 
L 749.178658 171.248124 
L 749.178658 169.049796 
L 750.304822 167.758281 
L 751.806374 166.526492 
L 751.806374 165.903731 
L 752.932538 164.791767 
L 754.058701 164.331505 
L 755.560253 163.958293 
L 755.560253 163.25322 
L 756.686417 162.742336 
L 758.187969 161.824222 
L 758.50973 161.146601 
L 759.314133 160.969174 
L 760.493924 160.163705 
L 761.941849 159.640813 
L 763.121639 159.810186 
L 764.569564 159.02115 
L 765.695728 158.419103 
L 766.875519 159.371858 
L 767.19728 158.934691 
L 768.323444 159.020729 
L 769.503235 158.738304 
L 770.95116 159.411769 
L 770.95116 160.476424 
L 772.13095 160.399374 
L 773.578875 160.605108 
L 773.954263 161.882938 
L 774.758666 161.437084 
L 775.88483 162.682778 
L 777.386382 163.703426 
L 777.708143 166.076966 
L 778.512545 169.938155 
L 781.140261 177.945657 
L 781.140261 182.315771 
L 782.266425 181.904308 
L 783.767977 183.504777 
L 783.767977 183.235834 
L 784.894141 182.820139 
L 786.395693 182.839559 
L 786.395693 182.418753 
L 787.521856 182.396604 
L 789.023408 181.849913 
L 789.023408 180.820701 
L 790.149572 179.529437 
L 792.777288 176.180819 
L 792.777288 174.749522 
L 793.903452 173.34736 
L 795.405004 172.139686 
L 795.405004 171.333872 
L 796.531167 170.226316 
L 797.657331 169.706401 
L 799.158883 168.478845 
L 800.285047 167.97878 
L 801.786599 166.990762 
L 802.912763 166.595842 
L 802.912763 166.058228 
L 804.092553 166.115095 
L 805.540478 165.564482 
L 808.168194 164.853125 
L 808.168194 164.452333 
L 809.347985 163.473379 
L 810.79591 162.773076 
L 810.79591 162.349227 
L 811.922074 162.305201 
L 813.101864 161.474456 
L 814.549789 160.245704 
L 814.549789 159.650432 
L 815.72958 158.511683 
L 817.177505 157.604041 
L 817.177505 157.065205 
L 818.357296 157.395964 
L 819.48346 157.892298 
L 820.985011 159.591258 
L 822.111175 159.559375 
L 822.111175 160.02687 
L 823.5591 160.024179 
L 824.738891 159.786265 
L 827.366607 157.895618 
L 827.366607 157.380172 
L 828.49277 156.530147 
L 829.994322 156.119897 
L 829.994322 155.830775 
L 833.748202 155.26937 
L 834.069963 155.264071 
L 834.874366 156.530698 
L 836.375918 155.75901 
L 837.502081 155.515314 
L 839.003633 155.840513 
L 839.003633 157.369811 
L 840.129797 159.570146 
L 841.255961 161.081152 
L 842.757513 161.565708 
L 842.757513 164.169461 
L 843.883677 164.124969 
L 845.385229 163.861368 
L 845.385229 165.060056 
L 846.511392 167.130386 
L 847.691183 166.525223 
L 849.139108 166.421871 
L 850.318899 167.315979 
L 851.766824 167.539779 
L 852.946614 168.88696 
L 852.946614 168.632539 
L 854.394539 168.963013 
L 855.520703 170.078144 
L 856.700494 172.561305 
L 856.700494 173.351284 
L 858.148419 174.297318 
L 859.32821 173.919171 
L 859.649971 174.467324 
L 860.454374 176.670972 
L 861.258776 176.566227 
L 862.38494 177.491761 
L 863.564731 177.169613 
L 865.012656 175.781458 
L 867.962133 174.891168 
L 868.766535 175.895823 
L 869.570938 175.33298 
L 870.697102 174.994621 
L 870.697102 174.331362 
L 872.466788 173.996121 
L 873.271191 173.342636 
L 875.362638 173.054722 
L 875.684399 174.514069 
L 876.971444 173.897432 
L 878.74113 174.178177 
L 879.062891 176.44232 
L 880.349935 176.145352 
L 882.119621 175.683597 
L 883.406666 174.876527 
L 883.406666 173.286758 
L 884.69371 172.520422 
L 884.69371 170.756946 
L 886.409769 169.255534 
L 886.409769 167.88787 
L 888.179455 166.94383 
L 889.4665 165.82304 
L 889.4665 164.529376 
L 891.236186 163.4385 
L 891.236186 162.397663 
L 893.005872 161.650803 
L 893.005872 160.781549 
L 894.721931 159.907459 
L 894.721931 159.111834 
L 896.974259 158.055313 
L 896.974259 157.644568 
L 898.743945 156.930632 
L 898.743945 156.657052 
L 900.513631 156.639886 
L 900.513631 156.467296 
L 902.390571 156.766078 
L 903.194974 156.384028 
L 904.96466 156.101575 
L 904.96466 155.820868 
L 907.163361 155.443272 
L 907.163361 155.587416 
L 908.128644 155.089377 
L 909.415688 155.165932 
L 909.89833 155.012409 
L 911.668016 155.213517 
L 911.668016 155.162544 
L 912.579673 154.968009 
L 915.314642 156.327032 
L 917.030701 156.06926 
L 917.513343 156.311105 
L 918.478626 155.801155 
L 919.765671 156.42968 
L 920.248312 158.050541 
L 921.159969 158.834753 
L 922.607894 158.773348 
L 922.929655 159.035354 
L 924.860221 158.927671 
L 926.25452 159.797042 
L 927.541564 161.616828 
L 928.506847 164.537577 
L 929.418504 164.370942 
L 930.705548 168.096453 
L 931.18819 171.380907 
L 932.153473 174.671191 
L 932.636115 178.708058 
L 934.513055 183.474871 
L 934.834816 184.989989 
L 935.317457 188.365201 
L 936.282741 192.293914 
L 936.765382 193.057264 
L 937.677039 194.981183 
L 939.446725 194.927978 
L 939.446725 194.71106 
L 940.412008 194.570691 
L 940.89465 193.373519 
L 941.806306 191.969374 
L 942.77159 192.036839 
L 944.541276 193.963936 
L 944.541276 194.49732 
L 945.023917 196.318467 
L 945.935574 196.258039 
L 946.418216 195.299526 
L 948.777797 195.275185 
L 949.099558 194.250057 
L 949.099558 195.575045 
L 950.064841 196.394815 
L 950.547483 198.064721 
L 951.512766 198.082675 
L 952.424423 202.145339 
L 954.194109 205.972463 
L 954.194109 210.337384 
L 954.676751 220.486261 
L 955.159392 227.495189 
L 956.071049 233.400388 
L 956.55369 239.394547 
L 957.518974 240.65661 
L 958.001615 242.198964 
L 959.771301 244.177833 
L 959.771301 245.824051 
L 960.200316 250.634259 
L 960.682958 249.543479 
L 961.648241 252.403011 
L 962.130883 251.610871 
L 962.613524 253.643453 
L 965.294867 257.175251 
L 965.294867 258.802441 
L 967.171807 258.089615 
L 968.029836 257.231871 
L 970.603925 255.742693 
L 970.603925 250.679537 
L 972.427238 247.774281 
L 972.427238 242.443498 
L 974.572312 238.710913 
L 976.878267 232.806281 
L 976.878267 224.202864 
L 979.023341 215.915673 
L 979.023341 201.825081 
L 981.168415 195.875415 
L 982.669967 190.86851 
L 984.117892 186.766699 
L 986.370219 183.701594 
L 988.729801 176.437626 
L 989.695084 174.948506 
L 990.660367 173.221323 
L 991.089382 172.081616 
L 993.502591 169.327108 
L 994.414247 168.822235 
L 995.37953 170.988576 
L 996.344814 176.244637 
L 996.773828 180.176557 
L 998.060873 184.307129 
L 998.543515 188.292231 
L 999.347917 188.166715 
L 1000.313201 188.999742 
L 1001.117603 191.434063 
L 1001.922006 194.568704 
L 1002.726409 194.566757 
L 1004.817856 198.756962 
L 1005.300498 205.194483 
L 1005.997647 206.257498 
L 1006.80205 208.725979 
L 1007.606452 207.566275 
L 1008.410855 206.64665 
L 1008.893497 206.297541 
L 1010.019661 205.885506 
L 1010.824063 207.101859 
L 1011.950227 206.987365 
L 1011.950227 206.987365 
" clip-path="url(#p793b8d7084)" style="fill: none; stroke: #0fbcf9; stroke-opacity: 0.99; stroke-width: 2.4; stroke-linecap: square"/>
   </g>
   <g id="patch_3">
    <path d="M 46.9525 434.59192 
L 46.9525 72.25112 
" style="fill: none; stroke: #000000; stroke-width: 0.8; stroke-linejoin: miter; stroke-linecap: square"/>
   </g>
   <g id="patch_4">
    <path d="M 1057.9025 434.59192 
L 1057.9025 72.25112 
" style="fill: none; stroke: #000000; stroke-width: 0.8; stroke-linejoin: miter; stroke-linecap: square"/>
   </g>
   <g id="patch_5">
    <path d="M 46.9525 434.59192 
L 1057.9025 434.59192 
" style="fill: none; stroke: #000000; stroke-width: 0.8; stroke-linejoin: miter; stroke-linecap: square"/>
   </g>
   <g id="patch_6">
    <path d="M 46.9525 72.25112 
L 1057.9025 72.25112 
" style="fill: none; stroke: #000000; stroke-width: 0.8; stroke-linejoin: miter; stroke-linecap: square"/>
   </g>
   <g id="legend_1">
    <g id="patch_7">
     <path d="M 341.991313 35.8 
L 722.425688 35.8 
Q 726.425688 35.8 726.425688 31.8 
L 726.425688 4 
Q 726.425688 -0 722.425688 -0 
L 341.991313 -0 
Q 337.991313 -0 337.991313 4 
L 337.991313 31.8 
Q 337.991313 35.8 341.991313 35.8 
z
" style="fill: #ffffff; opacity: 0.8; stroke: #cccccc; stroke-linejoin: miter"/>
    </g>
    <g id="line2d_23">
     <path d="M 345.991313 16.6 
L 365.991313 16.6 
L 385.991313 16.6 
" style="fill: none; stroke: #ff3f34; stroke-opacity: 0.99; stroke-width: 2.4; stroke-linecap: square"/>
    </g>
    <g id="text_13">
     <!-- MLP256 -->
     <g transform="translate(401.991313 23.6)scale(0.2 -0.2)">
      <defs>
       <path id="DejaVuSans-4d" d="M 628 4666 
L 1569 4666 
L 2759 1491 
L 3956 4666 
L 4897 4666 
L 4897 0 
L 4281 0 
L 4281 4097 
L 3078 897 
L 2444 897 
L 1241 4097 
L 1241 0 
L 628 0 
L 628 4666 
z
" transform="scale(0.015625)"/>
       <path id="DejaVuSans-4c" d="M 628 4666 
L 1259 4666 
L 1259 531 
L 3531 531 
L 3531 0 
L 628 0 
L 628 4666 
z
" transform="scale(0.015625)"/>
       <path id="DejaVuSans-50" d="M 1259 4147 
L 1259 2394 
L 2053 2394 
Q 2494 2394 2734 2622 
Q 2975 2850 2975 3272 
Q 2975 3691 2734 3919 
Q 2494 4147 2053 4147 
L 1259 4147 
z
M 628 4666 
L 2053 4666 
Q 2838 4666 3239 4311 
Q 3641 3956 3641 3272 
Q 3641 2581 3239 2228 
Q 2838 1875 2053 1875 
L 1259 1875 
L 1259 0 
L 628 0 
L 628 4666 
z
" transform="scale(0.015625)"/>
       <path id="DejaVuSans-35" d="M 691 4666 
L 3169 4666 
L 3169 4134 
L 1269 4134 
L 1269 2991 
Q 1406 3038 1543 3061 
Q 1681 3084 1819 3084 
Q 2600 3084 3056 2656 
Q 3513 2228 3513 1497 
Q 3513 744 3044 326 
Q 2575 -91 1722 -91 
Q 1428 -91 1123 -41 
Q 819 9 494 109 
L 494 744 
Q 775 591 1075 516 
Q 1375 441 1709 441 
Q 2250 441 2565 725 
Q 2881 1009 2881 1497 
Q 2881 1984 2565 2268 
Q 2250 2553 1709 2553 
Q 1456 2553 1204 2497 
Q 953 2441 691 2322 
L 691 4666 
z
" transform="scale(0.015625)"/>
      </defs>
      <use xlink:href="#DejaVuSans-4d"/>
      <use xlink:href="#DejaVuSans-4c" x="86.279297"/>
      <use xlink:href="#DejaVuSans-50" x="141.992188"/>
      <use xlink:href="#DejaVuSans-32" x="202.294922"/>
      <use xlink:href="#DejaVuSans-35" x="265.917969"/>
      <use xlink:href="#DejaVuSans-36" x="329.541016"/>
     </g>
    </g>
    <g id="line2d_24">
     <path d="M 520.625688 16.6 
L 540.625688 16.6 
L 560.625688 16.6 
" style="fill: none; stroke: #0fbcf9; stroke-opacity: 0.99; stroke-width: 2.4; stroke-linecap: square"/>
    </g>
    <g id="text_14">
     <!-- TinyLidarNet$^m$ -->
     <g transform="translate(576.625688 23.6)scale(0.2 -0.2)">
      <defs>
       <path id="DejaVuSans-69" d="M 603 3500 
L 1178 3500 
L 1178 0 
L 603 0 
L 603 3500 
z
M 603 4863 
L 1178 4863 
L 1178 4134 
L 603 4134 
L 603 4863 
z
" transform="scale(0.015625)"/>
       <path id="DejaVuSans-6e" d="M 3513 2113 
L 3513 0 
L 2938 0 
L 2938 2094 
Q 2938 2591 2744 2837 
Q 2550 3084 2163 3084 
Q 1697 3084 1428 2787 
Q 1159 2491 1159 1978 
L 1159 0 
L 581 0 
L 581 3500 
L 1159 3500 
L 1159 2956 
Q 1366 3272 1645 3428 
Q 1925 3584 2291 3584 
Q 2894 3584 3203 3211 
Q 3513 2838 3513 2113 
z
" transform="scale(0.015625)"/>
       <path id="DejaVuSans-79" d="M 2059 -325 
Q 1816 -950 1584 -1140 
Q 1353 -1331 966 -1331 
L 506 -1331 
L 506 -850 
L 844 -850 
Q 1081 -850 1212 -737 
Q 1344 -625 1503 -206 
L 1606 56 
L 191 3500 
L 800 3500 
L 1894 763 
L 2988 3500 
L 3597 3500 
L 2059 -325 
z
" transform="scale(0.015625)"/>
       <path id="DejaVuSans-4e" d="M 628 4666 
L 1478 4666 
L 3547 763 
L 3547 4666 
L 4159 4666 
L 4159 0 
L 3309 0 
L 1241 3903 
L 1241 0 
L 628 0 
L 628 4666 
z
" transform="scale(0.015625)"/>
       <path id="DejaVuSans-74" d="M 1172 4494 
L 1172 3500 
L 2356 3500 
L 2356 3053 
L 1172 3053 
L 1172 1153 
Q 1172 725 1289 603 
Q 1406 481 1766 481 
L 2356 481 
L 2356 0 
L 1766 0 
Q 1100 0 847 248 
Q 594 497 594 1153 
L 594 3053 
L 172 3053 
L 172 3500 
L 594 3500 
L 594 4494 
L 1172 4494 
z
" transform="scale(0.015625)"/>
       <path id="DejaVuSans-Oblique-6d" d="M 5747 2113 
L 5338 0 
L 4763 0 
L 5166 2094 
Q 5191 2228 5203 2325 
Q 5216 2422 5216 2491 
Q 5216 2772 5059 2928 
Q 4903 3084 4622 3084 
Q 4203 3084 3875 2770 
Q 3547 2456 3450 1953 
L 3066 0 
L 2491 0 
L 2900 2094 
Q 2925 2209 2937 2307 
Q 2950 2406 2950 2484 
Q 2950 2769 2794 2926 
Q 2638 3084 2363 3084 
Q 1938 3084 1609 2770 
Q 1281 2456 1184 1953 
L 800 0 
L 225 0 
L 909 3500 
L 1484 3500 
L 1375 2956 
Q 1609 3263 1923 3423 
Q 2238 3584 2597 3584 
Q 2978 3584 3223 3384 
Q 3469 3184 3519 2828 
Q 3781 3197 4126 3390 
Q 4472 3584 4856 3584 
Q 5306 3584 5551 3325 
Q 5797 3066 5797 2591 
Q 5797 2488 5784 2364 
Q 5772 2241 5747 2113 
z
" transform="scale(0.015625)"/>
      </defs>
      <use xlink:href="#DejaVuSans-54" transform="translate(0 0.51875)"/>
      <use xlink:href="#DejaVuSans-69" transform="translate(61.083984 0.51875)"/>
      <use xlink:href="#DejaVuSans-6e" transform="translate(88.867188 0.51875)"/>
      <use xlink:href="#DejaVuSans-79" transform="translate(152.246094 0.51875)"/>
      <use xlink:href="#DejaVuSans-4c" transform="translate(211.425781 0.51875)"/>
      <use xlink:href="#DejaVuSans-69" transform="translate(267.138672 0.51875)"/>
      <use xlink:href="#DejaVuSans-64" transform="translate(294.921875 0.51875)"/>
      <use xlink:href="#DejaVuSans-61" transform="translate(358.398438 0.51875)"/>
      <use xlink:href="#DejaVuSans-72" transform="translate(419.677734 0.51875)"/>
      <use xlink:href="#DejaVuSans-4e" transform="translate(460.791016 0.51875)"/>
      <use xlink:href="#DejaVuSans-65" transform="translate(535.595703 0.51875)"/>
      <use xlink:href="#DejaVuSans-74" transform="translate(597.119141 0.51875)"/>
      <use xlink:href="#DejaVuSans-Oblique-6d" transform="translate(637.285156 38.8)scale(0.7)"/>
     </g>
    </g>
   </g>
  </g>
 </g>
 <defs>
  <clipPath id="p793b8d7084">
   <rect x="46.9525" y="72.25112" width="1010.95" height="362.3408"/>
  </clipPath>
 </defs>
</svg>
