<?xml version="1.0" encoding="utf-8" standalone="no"?>
<!DOCTYPE svg PUBLIC "-//W3C//DTD SVG 1.1//EN"
  "http://www.w3.org/Graphics/SVG/1.1/DTD/svg11.dtd">
<svg xmlns:xlink="http://www.w3.org/1999/xlink" width="1057.9025pt" height="488.17567pt" viewBox="0 0 1057.9025 488.17567" xmlns="http://www.w3.org/2000/svg" version="1.1">
 <metadata>
  <rdf:RDF xmlns:dc="http://purl.org/dc/elements/1.1/" xmlns:cc="http://creativecommons.org/ns#" xmlns:rdf="http://www.w3.org/1999/02/22-rdf-syntax-ns#">
   <cc:Work>
    <dc:type rdf:resource="http://purl.org/dc/dcmitype/StillImage"/>
    <dc:date>2024-10-03T15:51:41.467639</dc:date>
    <dc:format>image/svg+xml</dc:format>
    <dc:creator>
     <cc:Agent>
      <dc:title>Matplotlib v3.5.2, https://matplotlib.org/</dc:title>
     </cc:Agent>
    </dc:creator>
   </cc:Work>
  </rdf:RDF>
 </metadata>
 <defs>
  <style type="text/css">*{stroke-linejoin: round; stroke-linecap: butt}</style>
 </defs>
 <g id="figure_1">
  <g id="patch_1">
   <path d="M 0 488.17567 
L 1057.9025 488.17567 
L 1057.9025 0 
L 0 0 
z
" style="fill: #ffffff"/>
  </g>
  <g id="axes_1">
   <g id="patch_2">
    <path d="M 46.9525 434.59192 
L 1057.9025 434.59192 
L 1057.9025 72.25112 
L 46.9525 72.25112 
z
" style="fill: #ffffff"/>
   </g>
   <g id="matplotlib.axis_1">
    <g id="xtick_1">
     <g id="line2d_1">
      <path d="M 92.904773 434.59192 
L 92.904773 72.25112 
" clip-path="url(#p8cd18e1157)" style="fill: none; stroke: #b0b0b0; stroke-width: 0.8; stroke-linecap: square"/>
     </g>
     <g id="line2d_2">
      <defs>
       <path id="m5dc6d11496" d="M 0 0 
L 0 3.5 
" style="stroke: #000000; stroke-width: 0.8"/>
      </defs>
      <g>
       <use xlink:href="#m5dc6d11496" x="92.904773" y="434.59192" style="stroke: #000000; stroke-width: 0.8"/>
      </g>
     </g>
     <g id="text_1">
      <!-- 0 -->
      <g transform="translate(86.542273 456.788795)scale(0.2 -0.2)">
       <defs>
        <path id="DejaVuSans-30" d="M 2034 4250 
Q 1547 4250 1301 3770 
Q 1056 3291 1056 2328 
Q 1056 1369 1301 889 
Q 1547 409 2034 409 
Q 2525 409 2770 889 
Q 3016 1369 3016 2328 
Q 3016 3291 2770 3770 
Q 2525 4250 2034 4250 
z
M 2034 4750 
Q 2819 4750 3233 4129 
Q 3647 3509 3647 2328 
Q 3647 1150 3233 529 
Q 2819 -91 2034 -91 
Q 1250 -91 836 529 
Q 422 1150 422 2328 
Q 422 3509 836 4129 
Q 1250 4750 2034 4750 
z
" transform="scale(0.015625)"/>
       </defs>
       <use xlink:href="#DejaVuSans-30"/>
      </g>
     </g>
    </g>
    <g id="xtick_2">
     <g id="line2d_3">
      <path d="M 277.657629 434.59192 
L 277.657629 72.25112 
" clip-path="url(#p8cd18e1157)" style="fill: none; stroke: #b0b0b0; stroke-width: 0.8; stroke-linecap: square"/>
     </g>
     <g id="line2d_4">
      <g>
       <use xlink:href="#m5dc6d11496" x="277.657629" y="434.59192" style="stroke: #000000; stroke-width: 0.8"/>
      </g>
     </g>
     <g id="text_2">
      <!-- 20 -->
      <g transform="translate(264.932629 456.788795)scale(0.2 -0.2)">
       <defs>
        <path id="DejaVuSans-32" d="M 1228 531 
L 3431 531 
L 3431 0 
L 469 0 
L 469 531 
Q 828 903 1448 1529 
Q 2069 2156 2228 2338 
Q 2531 2678 2651 2914 
Q 2772 3150 2772 3378 
Q 2772 3750 2511 3984 
Q 2250 4219 1831 4219 
Q 1534 4219 1204 4116 
Q 875 4013 500 3803 
L 500 4441 
Q 881 4594 1212 4672 
Q 1544 4750 1819 4750 
Q 2544 4750 2975 4387 
Q 3406 4025 3406 3419 
Q 3406 3131 3298 2873 
Q 3191 2616 2906 2266 
Q 2828 2175 2409 1742 
Q 1991 1309 1228 531 
z
" transform="scale(0.015625)"/>
       </defs>
       <use xlink:href="#DejaVuSans-32"/>
       <use xlink:href="#DejaVuSans-30" x="63.623047"/>
      </g>
     </g>
    </g>
    <g id="xtick_3">
     <g id="line2d_5">
      <path d="M 462.410486 434.59192 
L 462.410486 72.25112 
" clip-path="url(#p8cd18e1157)" style="fill: none; stroke: #b0b0b0; stroke-width: 0.8; stroke-linecap: square"/>
     </g>
     <g id="line2d_6">
      <g>
       <use xlink:href="#m5dc6d11496" x="462.410486" y="434.59192" style="stroke: #000000; stroke-width: 0.8"/>
      </g>
     </g>
     <g id="text_3">
      <!-- 40 -->
      <g transform="translate(449.685486 456.788795)scale(0.2 -0.2)">
       <defs>
        <path id="DejaVuSans-34" d="M 2419 4116 
L 825 1625 
L 2419 1625 
L 2419 4116 
z
M 2253 4666 
L 3047 4666 
L 3047 1625 
L 3713 1625 
L 3713 1100 
L 3047 1100 
L 3047 0 
L 2419 0 
L 2419 1100 
L 313 1100 
L 313 1709 
L 2253 4666 
z
" transform="scale(0.015625)"/>
       </defs>
       <use xlink:href="#DejaVuSans-34"/>
       <use xlink:href="#DejaVuSans-30" x="63.623047"/>
      </g>
     </g>
    </g>
    <g id="xtick_4">
     <g id="line2d_7">
      <path d="M 647.163342 434.59192 
L 647.163342 72.25112 
" clip-path="url(#p8cd18e1157)" style="fill: none; stroke: #b0b0b0; stroke-width: 0.8; stroke-linecap: square"/>
     </g>
     <g id="line2d_8">
      <g>
       <use xlink:href="#m5dc6d11496" x="647.163342" y="434.59192" style="stroke: #000000; stroke-width: 0.8"/>
      </g>
     </g>
     <g id="text_4">
      <!-- 60 -->
      <g transform="translate(634.438342 456.788795)scale(0.2 -0.2)">
       <defs>
        <path id="DejaVuSans-36" d="M 2113 2584 
Q 1688 2584 1439 2293 
Q 1191 2003 1191 1497 
Q 1191 994 1439 701 
Q 1688 409 2113 409 
Q 2538 409 2786 701 
Q 3034 994 3034 1497 
Q 3034 2003 2786 2293 
Q 2538 2584 2113 2584 
z
M 3366 4563 
L 3366 3988 
Q 3128 4100 2886 4159 
Q 2644 4219 2406 4219 
Q 1781 4219 1451 3797 
Q 1122 3375 1075 2522 
Q 1259 2794 1537 2939 
Q 1816 3084 2150 3084 
Q 2853 3084 3261 2657 
Q 3669 2231 3669 1497 
Q 3669 778 3244 343 
Q 2819 -91 2113 -91 
Q 1303 -91 875 529 
Q 447 1150 447 2328 
Q 447 3434 972 4092 
Q 1497 4750 2381 4750 
Q 2619 4750 2861 4703 
Q 3103 4656 3366 4563 
z
" transform="scale(0.015625)"/>
       </defs>
       <use xlink:href="#DejaVuSans-36"/>
       <use xlink:href="#DejaVuSans-30" x="63.623047"/>
      </g>
     </g>
    </g>
    <g id="xtick_5">
     <g id="line2d_9">
      <path d="M 831.916199 434.59192 
L 831.916199 72.25112 
" clip-path="url(#p8cd18e1157)" style="fill: none; stroke: #b0b0b0; stroke-width: 0.8; stroke-linecap: square"/>
     </g>
     <g id="line2d_10">
      <g>
       <use xlink:href="#m5dc6d11496" x="831.916199" y="434.59192" style="stroke: #000000; stroke-width: 0.8"/>
      </g>
     </g>
     <g id="text_5">
      <!-- 80 -->
      <g transform="translate(819.191199 456.788795)scale(0.2 -0.2)">
       <defs>
        <path id="DejaVuSans-38" d="M 2034 2216 
Q 1584 2216 1326 1975 
Q 1069 1734 1069 1313 
Q 1069 891 1326 650 
Q 1584 409 2034 409 
Q 2484 409 2743 651 
Q 3003 894 3003 1313 
Q 3003 1734 2745 1975 
Q 2488 2216 2034 2216 
z
M 1403 2484 
Q 997 2584 770 2862 
Q 544 3141 544 3541 
Q 544 4100 942 4425 
Q 1341 4750 2034 4750 
Q 2731 4750 3128 4425 
Q 3525 4100 3525 3541 
Q 3525 3141 3298 2862 
Q 3072 2584 2669 2484 
Q 3125 2378 3379 2068 
Q 3634 1759 3634 1313 
Q 3634 634 3220 271 
Q 2806 -91 2034 -91 
Q 1263 -91 848 271 
Q 434 634 434 1313 
Q 434 1759 690 2068 
Q 947 2378 1403 2484 
z
M 1172 3481 
Q 1172 3119 1398 2916 
Q 1625 2713 2034 2713 
Q 2441 2713 2670 2916 
Q 2900 3119 2900 3481 
Q 2900 3844 2670 4047 
Q 2441 4250 2034 4250 
Q 1625 4250 1398 4047 
Q 1172 3844 1172 3481 
z
" transform="scale(0.015625)"/>
       </defs>
       <use xlink:href="#DejaVuSans-38"/>
       <use xlink:href="#DejaVuSans-30" x="63.623047"/>
      </g>
     </g>
    </g>
    <g id="xtick_6">
     <g id="line2d_11">
      <path d="M 1016.669056 434.59192 
L 1016.669056 72.25112 
" clip-path="url(#p8cd18e1157)" style="fill: none; stroke: #b0b0b0; stroke-width: 0.8; stroke-linecap: square"/>
     </g>
     <g id="line2d_12">
      <g>
       <use xlink:href="#m5dc6d11496" x="1016.669056" y="434.59192" style="stroke: #000000; stroke-width: 0.8"/>
      </g>
     </g>
     <g id="text_6">
      <!-- 100 -->
      <g transform="translate(997.581556 456.788795)scale(0.2 -0.2)">
       <defs>
        <path id="DejaVuSans-31" d="M 794 531 
L 1825 531 
L 1825 4091 
L 703 3866 
L 703 4441 
L 1819 4666 
L 2450 4666 
L 2450 531 
L 3481 531 
L 3481 0 
L 794 0 
L 794 531 
z
" transform="scale(0.015625)"/>
       </defs>
       <use xlink:href="#DejaVuSans-31"/>
       <use xlink:href="#DejaVuSans-30" x="63.623047"/>
       <use xlink:href="#DejaVuSans-30" x="127.246094"/>
      </g>
     </g>
    </g>
    <g id="text_7">
     <!-- Track progress [%] -->
     <g transform="translate(440.85 483.18442)scale(0.24 -0.24)">
      <defs>
       <path id="DejaVuSans-54" d="M -19 4666 
L 3928 4666 
L 3928 4134 
L 2272 4134 
L 2272 0 
L 1638 0 
L 1638 4134 
L -19 4134 
L -19 4666 
z
" transform="scale(0.015625)"/>
       <path id="DejaVuSans-72" d="M 2631 2963 
Q 2534 3019 2420 3045 
Q 2306 3072 2169 3072 
Q 1681 3072 1420 2755 
Q 1159 2438 1159 1844 
L 1159 0 
L 581 0 
L 581 3500 
L 1159 3500 
L 1159 2956 
Q 1341 3275 1631 3429 
Q 1922 3584 2338 3584 
Q 2397 3584 2469 3576 
Q 2541 3569 2628 3553 
L 2631 2963 
z
" transform="scale(0.015625)"/>
       <path id="DejaVuSans-61" d="M 2194 1759 
Q 1497 1759 1228 1600 
Q 959 1441 959 1056 
Q 959 750 1161 570 
Q 1363 391 1709 391 
Q 2188 391 2477 730 
Q 2766 1069 2766 1631 
L 2766 1759 
L 2194 1759 
z
M 3341 1997 
L 3341 0 
L 2766 0 
L 2766 531 
Q 2569 213 2275 61 
Q 1981 -91 1556 -91 
Q 1019 -91 701 211 
Q 384 513 384 1019 
Q 384 1609 779 1909 
Q 1175 2209 1959 2209 
L 2766 2209 
L 2766 2266 
Q 2766 2663 2505 2880 
Q 2244 3097 1772 3097 
Q 1472 3097 1187 3025 
Q 903 2953 641 2809 
L 641 3341 
Q 956 3463 1253 3523 
Q 1550 3584 1831 3584 
Q 2591 3584 2966 3190 
Q 3341 2797 3341 1997 
z
" transform="scale(0.015625)"/>
       <path id="DejaVuSans-63" d="M 3122 3366 
L 3122 2828 
Q 2878 2963 2633 3030 
Q 2388 3097 2138 3097 
Q 1578 3097 1268 2742 
Q 959 2388 959 1747 
Q 959 1106 1268 751 
Q 1578 397 2138 397 
Q 2388 397 2633 464 
Q 2878 531 3122 666 
L 3122 134 
Q 2881 22 2623 -34 
Q 2366 -91 2075 -91 
Q 1284 -91 818 406 
Q 353 903 353 1747 
Q 353 2603 823 3093 
Q 1294 3584 2113 3584 
Q 2378 3584 2631 3529 
Q 2884 3475 3122 3366 
z
" transform="scale(0.015625)"/>
       <path id="DejaVuSans-6b" d="M 581 4863 
L 1159 4863 
L 1159 1991 
L 2875 3500 
L 3609 3500 
L 1753 1863 
L 3688 0 
L 2938 0 
L 1159 1709 
L 1159 0 
L 581 0 
L 581 4863 
z
" transform="scale(0.015625)"/>
       <path id="DejaVuSans-20" transform="scale(0.015625)"/>
       <path id="DejaVuSans-70" d="M 1159 525 
L 1159 -1331 
L 581 -1331 
L 581 3500 
L 1159 3500 
L 1159 2969 
Q 1341 3281 1617 3432 
Q 1894 3584 2278 3584 
Q 2916 3584 3314 3078 
Q 3713 2572 3713 1747 
Q 3713 922 3314 415 
Q 2916 -91 2278 -91 
Q 1894 -91 1617 61 
Q 1341 213 1159 525 
z
M 3116 1747 
Q 3116 2381 2855 2742 
Q 2594 3103 2138 3103 
Q 1681 3103 1420 2742 
Q 1159 2381 1159 1747 
Q 1159 1113 1420 752 
Q 1681 391 2138 391 
Q 2594 391 2855 752 
Q 3116 1113 3116 1747 
z
" transform="scale(0.015625)"/>
       <path id="DejaVuSans-6f" d="M 1959 3097 
Q 1497 3097 1228 2736 
Q 959 2375 959 1747 
Q 959 1119 1226 758 
Q 1494 397 1959 397 
Q 2419 397 2687 759 
Q 2956 1122 2956 1747 
Q 2956 2369 2687 2733 
Q 2419 3097 1959 3097 
z
M 1959 3584 
Q 2709 3584 3137 3096 
Q 3566 2609 3566 1747 
Q 3566 888 3137 398 
Q 2709 -91 1959 -91 
Q 1206 -91 779 398 
Q 353 888 353 1747 
Q 353 2609 779 3096 
Q 1206 3584 1959 3584 
z
" transform="scale(0.015625)"/>
       <path id="DejaVuSans-67" d="M 2906 1791 
Q 2906 2416 2648 2759 
Q 2391 3103 1925 3103 
Q 1463 3103 1205 2759 
Q 947 2416 947 1791 
Q 947 1169 1205 825 
Q 1463 481 1925 481 
Q 2391 481 2648 825 
Q 2906 1169 2906 1791 
z
M 3481 434 
Q 3481 -459 3084 -895 
Q 2688 -1331 1869 -1331 
Q 1566 -1331 1297 -1286 
Q 1028 -1241 775 -1147 
L 775 -588 
Q 1028 -725 1275 -790 
Q 1522 -856 1778 -856 
Q 2344 -856 2625 -561 
Q 2906 -266 2906 331 
L 2906 616 
Q 2728 306 2450 153 
Q 2172 0 1784 0 
Q 1141 0 747 490 
Q 353 981 353 1791 
Q 353 2603 747 3093 
Q 1141 3584 1784 3584 
Q 2172 3584 2450 3431 
Q 2728 3278 2906 2969 
L 2906 3500 
L 3481 3500 
L 3481 434 
z
" transform="scale(0.015625)"/>
       <path id="DejaVuSans-65" d="M 3597 1894 
L 3597 1613 
L 953 1613 
Q 991 1019 1311 708 
Q 1631 397 2203 397 
Q 2534 397 2845 478 
Q 3156 559 3463 722 
L 3463 178 
Q 3153 47 2828 -22 
Q 2503 -91 2169 -91 
Q 1331 -91 842 396 
Q 353 884 353 1716 
Q 353 2575 817 3079 
Q 1281 3584 2069 3584 
Q 2775 3584 3186 3129 
Q 3597 2675 3597 1894 
z
M 3022 2063 
Q 3016 2534 2758 2815 
Q 2500 3097 2075 3097 
Q 1594 3097 1305 2825 
Q 1016 2553 972 2059 
L 3022 2063 
z
" transform="scale(0.015625)"/>
       <path id="DejaVuSans-73" d="M 2834 3397 
L 2834 2853 
Q 2591 2978 2328 3040 
Q 2066 3103 1784 3103 
Q 1356 3103 1142 2972 
Q 928 2841 928 2578 
Q 928 2378 1081 2264 
Q 1234 2150 1697 2047 
L 1894 2003 
Q 2506 1872 2764 1633 
Q 3022 1394 3022 966 
Q 3022 478 2636 193 
Q 2250 -91 1575 -91 
Q 1294 -91 989 -36 
Q 684 19 347 128 
L 347 722 
Q 666 556 975 473 
Q 1284 391 1588 391 
Q 1994 391 2212 530 
Q 2431 669 2431 922 
Q 2431 1156 2273 1281 
Q 2116 1406 1581 1522 
L 1381 1569 
Q 847 1681 609 1914 
Q 372 2147 372 2553 
Q 372 3047 722 3315 
Q 1072 3584 1716 3584 
Q 2034 3584 2315 3537 
Q 2597 3491 2834 3397 
z
" transform="scale(0.015625)"/>
       <path id="DejaVuSans-5b" d="M 550 4863 
L 1875 4863 
L 1875 4416 
L 1125 4416 
L 1125 -397 
L 1875 -397 
L 1875 -844 
L 550 -844 
L 550 4863 
z
" transform="scale(0.015625)"/>
       <path id="DejaVuSans-25" d="M 4653 2053 
Q 4381 2053 4226 1822 
Q 4072 1591 4072 1178 
Q 4072 772 4226 539 
Q 4381 306 4653 306 
Q 4919 306 5073 539 
Q 5228 772 5228 1178 
Q 5228 1588 5073 1820 
Q 4919 2053 4653 2053 
z
M 4653 2450 
Q 5147 2450 5437 2106 
Q 5728 1763 5728 1178 
Q 5728 594 5436 251 
Q 5144 -91 4653 -91 
Q 4153 -91 3862 251 
Q 3572 594 3572 1178 
Q 3572 1766 3864 2108 
Q 4156 2450 4653 2450 
z
M 1428 4353 
Q 1159 4353 1004 4120 
Q 850 3888 850 3481 
Q 850 3069 1003 2837 
Q 1156 2606 1428 2606 
Q 1700 2606 1854 2837 
Q 2009 3069 2009 3481 
Q 2009 3884 1853 4118 
Q 1697 4353 1428 4353 
z
M 4250 4750 
L 4750 4750 
L 1831 -91 
L 1331 -91 
L 4250 4750 
z
M 1428 4750 
Q 1922 4750 2215 4408 
Q 2509 4066 2509 3481 
Q 2509 2891 2217 2550 
Q 1925 2209 1428 2209 
Q 931 2209 642 2551 
Q 353 2894 353 3481 
Q 353 4063 643 4406 
Q 934 4750 1428 4750 
z
" transform="scale(0.015625)"/>
       <path id="DejaVuSans-5d" d="M 1947 4863 
L 1947 -844 
L 622 -844 
L 622 -397 
L 1369 -397 
L 1369 4416 
L 622 4416 
L 622 4863 
L 1947 4863 
z
" transform="scale(0.015625)"/>
      </defs>
      <use xlink:href="#DejaVuSans-54"/>
      <use xlink:href="#DejaVuSans-72" x="46.333984"/>
      <use xlink:href="#DejaVuSans-61" x="87.447266"/>
      <use xlink:href="#DejaVuSans-63" x="148.726562"/>
      <use xlink:href="#DejaVuSans-6b" x="203.707031"/>
      <use xlink:href="#DejaVuSans-20" x="261.617188"/>
      <use xlink:href="#DejaVuSans-70" x="293.404297"/>
      <use xlink:href="#DejaVuSans-72" x="356.880859"/>
      <use xlink:href="#DejaVuSans-6f" x="395.744141"/>
      <use xlink:href="#DejaVuSans-67" x="456.925781"/>
      <use xlink:href="#DejaVuSans-72" x="520.402344"/>
      <use xlink:href="#DejaVuSans-65" x="559.265625"/>
      <use xlink:href="#DejaVuSans-73" x="620.789062"/>
      <use xlink:href="#DejaVuSans-73" x="672.888672"/>
      <use xlink:href="#DejaVuSans-20" x="724.988281"/>
      <use xlink:href="#DejaVuSans-5b" x="756.775391"/>
      <use xlink:href="#DejaVuSans-25" x="795.789062"/>
      <use xlink:href="#DejaVuSans-5d" x="890.808594"/>
     </g>
    </g>
   </g>
   <g id="matplotlib.axis_2">
    <g id="ytick_1">
     <g id="line2d_13">
      <path d="M 46.9525 386.279813 
L 1057.9025 386.279813 
" clip-path="url(#p8cd18e1157)" style="fill: none; stroke: #b0b0b0; stroke-width: 0.8; stroke-linecap: square"/>
     </g>
     <g id="line2d_14">
      <defs>
       <path id="m854e2a2bbb" d="M 0 0 
L -3.5 0 
" style="stroke: #000000; stroke-width: 0.8"/>
      </defs>
      <g>
       <use xlink:href="#m854e2a2bbb" x="46.9525" y="386.279813" style="stroke: #000000; stroke-width: 0.8"/>
      </g>
     </g>
     <g id="text_8">
      <!-- 2 -->
      <g transform="translate(27.2275 393.878251)scale(0.2 -0.2)">
       <use xlink:href="#DejaVuSans-32"/>
      </g>
     </g>
    </g>
    <g id="ytick_2">
     <g id="line2d_15">
      <path d="M 46.9525 289.6556 
L 1057.9025 289.6556 
" clip-path="url(#p8cd18e1157)" style="fill: none; stroke: #b0b0b0; stroke-width: 0.8; stroke-linecap: square"/>
     </g>
     <g id="line2d_16">
      <g>
       <use xlink:href="#m854e2a2bbb" x="46.9525" y="289.6556" style="stroke: #000000; stroke-width: 0.8"/>
      </g>
     </g>
     <g id="text_9">
      <!-- 4 -->
      <g transform="translate(27.2275 297.254037)scale(0.2 -0.2)">
       <use xlink:href="#DejaVuSans-34"/>
      </g>
     </g>
    </g>
    <g id="ytick_3">
     <g id="line2d_17">
      <path d="M 46.9525 193.031387 
L 1057.9025 193.031387 
" clip-path="url(#p8cd18e1157)" style="fill: none; stroke: #b0b0b0; stroke-width: 0.8; stroke-linecap: square"/>
     </g>
     <g id="line2d_18">
      <g>
       <use xlink:href="#m854e2a2bbb" x="46.9525" y="193.031387" style="stroke: #000000; stroke-width: 0.8"/>
      </g>
     </g>
     <g id="text_10">
      <!-- 6 -->
      <g transform="translate(27.2275 200.629824)scale(0.2 -0.2)">
       <use xlink:href="#DejaVuSans-36"/>
      </g>
     </g>
    </g>
    <g id="ytick_4">
     <g id="line2d_19">
      <path d="M 46.9525 96.407173 
L 1057.9025 96.407173 
" clip-path="url(#p8cd18e1157)" style="fill: none; stroke: #b0b0b0; stroke-width: 0.8; stroke-linecap: square"/>
     </g>
     <g id="line2d_20">
      <g>
       <use xlink:href="#m854e2a2bbb" x="46.9525" y="96.407173" style="stroke: #000000; stroke-width: 0.8"/>
      </g>
     </g>
     <g id="text_11">
      <!-- 8 -->
      <g transform="translate(27.2275 104.005611)scale(0.2 -0.2)">
       <use xlink:href="#DejaVuSans-38"/>
      </g>
     </g>
    </g>
    <g id="text_12">
     <!-- Speed [m/s] -->
     <g transform="translate(18.23625 326.203395)rotate(-90)scale(0.24 -0.24)">
      <defs>
       <path id="DejaVuSans-53" d="M 3425 4513 
L 3425 3897 
Q 3066 4069 2747 4153 
Q 2428 4238 2131 4238 
Q 1616 4238 1336 4038 
Q 1056 3838 1056 3469 
Q 1056 3159 1242 3001 
Q 1428 2844 1947 2747 
L 2328 2669 
Q 3034 2534 3370 2195 
Q 3706 1856 3706 1288 
Q 3706 609 3251 259 
Q 2797 -91 1919 -91 
Q 1588 -91 1214 -16 
Q 841 59 441 206 
L 441 856 
Q 825 641 1194 531 
Q 1563 422 1919 422 
Q 2459 422 2753 634 
Q 3047 847 3047 1241 
Q 3047 1584 2836 1778 
Q 2625 1972 2144 2069 
L 1759 2144 
Q 1053 2284 737 2584 
Q 422 2884 422 3419 
Q 422 4038 858 4394 
Q 1294 4750 2059 4750 
Q 2388 4750 2728 4690 
Q 3069 4631 3425 4513 
z
" transform="scale(0.015625)"/>
       <path id="DejaVuSans-64" d="M 2906 2969 
L 2906 4863 
L 3481 4863 
L 3481 0 
L 2906 0 
L 2906 525 
Q 2725 213 2448 61 
Q 2172 -91 1784 -91 
Q 1150 -91 751 415 
Q 353 922 353 1747 
Q 353 2572 751 3078 
Q 1150 3584 1784 3584 
Q 2172 3584 2448 3432 
Q 2725 3281 2906 2969 
z
M 947 1747 
Q 947 1113 1208 752 
Q 1469 391 1925 391 
Q 2381 391 2643 752 
Q 2906 1113 2906 1747 
Q 2906 2381 2643 2742 
Q 2381 3103 1925 3103 
Q 1469 3103 1208 2742 
Q 947 2381 947 1747 
z
" transform="scale(0.015625)"/>
       <path id="DejaVuSans-6d" d="M 3328 2828 
Q 3544 3216 3844 3400 
Q 4144 3584 4550 3584 
Q 5097 3584 5394 3201 
Q 5691 2819 5691 2113 
L 5691 0 
L 5113 0 
L 5113 2094 
Q 5113 2597 4934 2840 
Q 4756 3084 4391 3084 
Q 3944 3084 3684 2787 
Q 3425 2491 3425 1978 
L 3425 0 
L 2847 0 
L 2847 2094 
Q 2847 2600 2669 2842 
Q 2491 3084 2119 3084 
Q 1678 3084 1418 2786 
Q 1159 2488 1159 1978 
L 1159 0 
L 581 0 
L 581 3500 
L 1159 3500 
L 1159 2956 
Q 1356 3278 1631 3431 
Q 1906 3584 2284 3584 
Q 2666 3584 2933 3390 
Q 3200 3197 3328 2828 
z
" transform="scale(0.015625)"/>
       <path id="DejaVuSans-2f" d="M 1625 4666 
L 2156 4666 
L 531 -594 
L 0 -594 
L 1625 4666 
z
" transform="scale(0.015625)"/>
      </defs>
      <use xlink:href="#DejaVuSans-53"/>
      <use xlink:href="#DejaVuSans-70" x="63.476562"/>
      <use xlink:href="#DejaVuSans-65" x="126.953125"/>
      <use xlink:href="#DejaVuSans-65" x="188.476562"/>
      <use xlink:href="#DejaVuSans-64" x="250"/>
      <use xlink:href="#DejaVuSans-20" x="313.476562"/>
      <use xlink:href="#DejaVuSans-5b" x="345.263672"/>
      <use xlink:href="#DejaVuSans-6d" x="384.277344"/>
      <use xlink:href="#DejaVuSans-2f" x="481.689453"/>
      <use xlink:href="#DejaVuSans-73" x="515.380859"/>
      <use xlink:href="#DejaVuSans-5d" x="567.480469"/>
     </g>
    </g>
   </g>
   <g id="line2d_21">
    <path d="M 92.904773 482.904027 
L 92.904773 437.456137 
L 93.226511 425.969934 
L 93.226511 414.483731 
L 93.548249 402.997527 
L 93.548249 391.511324 
L 93.869988 380.025121 
L 94.352595 368.538917 
L 95.049695 345.566511 
L 95.800417 334.080307 
L 96.122156 322.594104 
L 97.24824 299.621697 
L 97.945339 288.135494 
L 98.267078 276.64929 
L 99.446785 253.676884 
L 101.591707 219.218274 
L 102.449676 207.73207 
L 103.093152 196.245867 
L 103.897498 185.341221 
L 106.04242 167.160717 
L 106.846766 159.476223 
L 107.651111 152.935872 
L 108.669949 147.110891 
L 109.796033 141.91927 
L 110.654002 137.359855 
L 111.780086 133.183907 
L 113.925008 126.585436 
L 115.051092 123.808288 
L 116.230799 121.459522 
L 117.035145 119.432526 
L 118.161229 117.9235 
L 119.287313 116.658114 
L 120.46702 115.544359 
L 121.593104 114.760511 
L 122.719189 114.115772 
L 123.898896 113.699987 
L 127.330771 113.465352 
L 127.974247 114.625718 
L 131.406123 121.784244 
L 132.58583 122.195196 
L 134.837998 131.057242 
L 136.017705 138.206737 
L 136.822051 149.188418 
L 137.948135 158.996335 
L 138.645234 162.150813 
L 139.44958 167.347661 
L 140.575664 170.41102 
L 141.701748 172.443966 
L 142.506094 176.615066 
L 143.203194 176.6471 
L 145.133623 191.754452 
L 145.830723 196.211821 
L 146.956807 196.306544 
L 147.761153 197.037762 
L 148.565499 207.417369 
L 150.066944 230.322233 
L 150.87129 234.291022 
L 151.568389 243.128636 
L 152.372735 247.598801 
L 153.177081 246.026 
L 153.820558 243.440756 
L 154.303165 239.506784 
L 155.429249 238.220317 
L 156.126349 239.099778 
L 156.608956 237.661199 
L 157.73504 235.861066 
L 157.73504 233.668533 
L 158.861124 230.945724 
L 160.040831 228.883447 
L 160.040831 226.373087 
L 161.166915 224.900734 
L 161.971261 222.092808 
L 163.955314 212.029019 
L 164.384298 206.191478 
L 164.384298 200.213599 
L 167.92342 194.072777 
L 168.727765 186.583486 
L 170.711818 183.156864 
L 170.711818 178.926174 
L 172.481379 174.728796 
L 172.481379 168.394243 
L 174.626301 163.78268 
L 174.626301 162.670893 
L 176.824846 171.028013 
L 176.824846 165.896843 
L 178.594407 165.222104 
L 180.095852 165.920436 
L 180.41759 164.545056 
L 181.436428 163.628296 
L 182.079905 160.935425 
L 183.58135 157.301018 
L 184.921927 149.956393 
L 186.423372 149.6624 
L 187.388587 155.055883 
L 187.871194 160.192143 
L 189.694378 159.664455 
L 190.016116 163.970142 
L 191.195823 167.376995 
L 192.321907 165.496869 
L 193.126253 161.672498 
L 194.252337 158.227998 
L 194.949437 155.470253 
L 196.075521 152.982554 
L 196.879867 150.919675 
L 199.990004 146.765839 
L 201.116088 144.913534 
L 201.974056 143.111252 
L 204.065355 141.901849 
L 205.19144 141.306181 
L 205.995785 140.680073 
L 208.408823 139.300045 
L 210.392875 136.87103 
L 211.197221 135.025718 
L 212.484174 133.051906 
L 213.28852 130.766099 
L 214.575473 128.456053 
L 215.379819 125.989026 
L 216.988511 123.190322 
L 217.471118 120.629184 
L 218.597202 118.323946 
L 221.171108 114.165638 
L 221.975454 112.336932 
L 223.262407 110.584579 
L 224.066753 109.039919 
L 227.927613 104.898425 
L 228.41022 103.666916 
L 229.697173 102.358287 
L 231.413111 101.198511 
L 232.378326 99.990568 
L 232.860933 98.947083 
L 234.630494 97.866614 
L 235.542086 96.805662 
L 237.472516 95.276897 
L 241.118883 93.412632 
L 242.084098 93.805368 
L 242.99569 94.571328 
L 244.443512 94.674343 
L 245.355104 95.132894 
L 246.320319 95.095667 
L 247.768141 95.478671 
L 249.966686 97.731484 
L 250.931901 100.952029 
L 251.897116 105.383663 
L 252.808708 110.196146 
L 253.773923 112.577055 
L 255.060876 119.717201 
L 256.026091 119.700262 
L 256.937683 125.807898 
L 257.902898 126.479522 
L 260.155066 126.343523 
L 262.031873 133.987215 
L 264.230418 141.349779 
L 265.088386 145.16343 
L 265.999978 148.556293 
L 266.965193 151.033691 
L 268.252146 153.319186 
L 268.734754 152.657157 
L 269.646346 156.27863 
L 270.933299 160.168673 
L 271.898514 163.673896 
L 272.381121 167.240227 
L 273.668074 167.703806 
L 274.150682 171.486063 
L 274.579666 171.050459 
L 276.349227 174.783723 
L 276.349227 186.269926 
L 278.118788 193.872894 
L 278.601395 193.461587 
L 278.601395 202.07253 
L 280.370956 205.21262 
L 280.79994 212.738527 
L 280.79994 212.731391 
L 282.569501 214.0823 
L 282.569501 212.233342 
L 284.339061 211.007734 
L 284.339061 221.767406 
L 284.821669 220.665349 
L 286.591229 219.088036 
L 287.502821 217.329033 
L 289.754989 217.109028 
L 290.559335 213.313174 
L 292.168027 212.665759 
L 293.669472 209.667433 
L 293.669472 208.769087 
L 295.492656 208.047445 
L 295.814394 207.214696 
L 295.814394 204.8156 
L 297.637578 202.859766 
L 298.281054 199.801696 
L 298.281054 195.934761 
L 300.104238 191.942783 
L 301.444814 184.074384 
L 302.463652 180.24804 
L 303.107129 176.620905 
L 304.125967 173.341113 
L 305.949151 167.989151 
L 306.592627 165.424207 
L 307.611465 163.151403 
L 308.737549 161.315964 
L 310.078125 158.043581 
L 311.579571 155.932467 
L 311.901309 153.619572 
L 314.528839 147.829659 
L 314.528839 144.352977 
L 316.83463 136.778866 
L 318.282452 132.729843 
L 318.282452 128.532591 
L 320.266505 124.846679 
L 320.266505 121.146039 
L 324.824464 107.295548 
L 326.004171 104.077365 
L 327.451994 101.299782 
L 330.401261 96.436768 
L 330.401261 94.113279 
L 333.350529 89.959942 
L 335.173713 87.988331 
L 335.173713 86.04593 
L 336.996896 84.382538 
L 338.82008 83.46602 
L 338.82008 83.146114 
L 340.643264 82.827603 
L 342.788186 82.746669 
L 342.788186 82.47946 
L 344.61137 82.31486 
L 348.204114 81.955347 
L 348.204114 82.499841 
L 350.027298 83.04014 
L 352.17222 83.030521 
L 352.17222 83.75806 
L 353.995403 84.045928 
L 353.995403 83.946136 
L 355.818587 85.206564 
L 357.641771 85.115063 
L 357.641771 86.137316 
L 359.464954 86.086408 
L 361.288138 86.919502 
L 361.609876 87.788352 
L 363.43306 88.483957 
L 363.754798 88.942122 
L 365.202621 89.98761 
L 366.704066 89.861602 
L 367.025805 91.258174 
L 370.350434 92.616321 
L 370.672172 93.760354 
L 372.495356 94.741106 
L 373.138832 94.583869 
L 374.640278 94.503831 
L 375.766362 95.595205 
L 376.463461 96.658916 
L 377.911284 96.587673 
L 379.412729 97.517957 
L 380.056206 97.75569 
L 381.557651 98.585341 
L 382.254751 99.138155 
L 383.702573 99.820458 
L 385.847495 101.259594 
L 387.027202 101.207165 
L 387.992417 101.997289 
L 389.172124 103.472172 
L 391.317046 103.709429 
L 392.44313 103.715876 
L 393.783706 104.496597 
L 396.089498 105.21118 
L 397.054713 106.317771 
L 398.23442 106.227637 
L 399.253258 107.311181 
L 400.379342 107.55211 
L 401.505426 107.462196 
L 402.524264 107.880338 
L 403.650348 107.629188 
L 404.669186 108.062628 
L 405.79527 107.938497 
L 407.296715 108.867615 
L 407.993815 110.172156 
L 409.119899 110.243227 
L 410.460475 111.874336 
L 411.264821 111.779481 
L 412.605397 113.985325 
L 413.409743 115.553484 
L 415.554665 116.619047 
L 416.680749 118.326059 
L 418.021325 119.800321 
L 418.879294 122.761746 
L 420.327116 125.246316 
L 421.024216 127.595639 
L 421.989431 133.438117 
L 422.793777 141.45719 
L 424.295222 151.262605 
L 424.992322 159.336032 
L 426.118406 162.540206 
L 426.761882 167.27873 
L 427.941589 170.288215 
L 428.585066 173.522042 
L 429.764773 176.97642 
L 430.40825 179.758714 
L 432.231433 189.92694 
L 433.250271 194.254288 
L 433.732879 200.913018 
L 435.073455 203.564483 
L 435.502439 214.799312 
L 436.199539 223.117548 
L 437.325623 232.473493 
L 437.647361 238.751184 
L 438.666199 238.693569 
L 439.148807 237.628602 
L 439.845906 236.907578 
L 440.971991 235.06202 
L 441.293729 232.695338 
L 443.438651 249.709298 
L 444.13575 250.818239 
L 445.583573 249.777891 
L 446.280672 249.402974 
L 446.924149 248.788242 
L 447.621249 250.314955 
L 447.942987 249.296533 
L 449.069071 250.422246 
L 449.444432 249.210688 
L 450.087909 245.595842 
L 450.785009 241.041161 
L 452.125585 236.931105 
L 452.554569 236.190145 
L 452.929931 247.676348 
L 454.270507 250.940655 
L 454.753114 249.588518 
L 456.200937 246.208259 
L 456.200937 241.648945 
L 458.989335 235.648882 
L 459.471943 229.666072 
L 461.18788 224.716362 
L 461.670488 222.519484 
L 462.796572 220.708656 
L 463.976279 219.591838 
L 463.976279 231.013648 
L 465.102363 229.783474 
L 465.424101 228.140408 
L 466.603808 228.69587 
L 467.247285 231.322346 
L 468.051631 225.877254 
L 468.426992 219.427504 
L 469.070469 215.566523 
L 470.411045 210.740733 
L 470.893652 205.242151 
L 471.537129 195.680503 
L 472.234229 191.933304 
L 473.253067 187.506334 
L 474.700889 184.417138 
L 474.700889 186.074638 
L 475.719727 189.621189 
L 476.363204 189.942753 
L 477.382041 187.381243 
L 478.079141 182.613852 
L 479.044356 177.281414 
L 479.741456 170.830384 
L 480.760294 165.073965 
L 481.40377 159.800902 
L 482.422608 155.360511 
L 484.406661 148.799727 
L 485.103761 145.941836 
L 486.122599 143.616753 
L 489.125489 137.713456 
L 489.768966 135.649392 
L 490.787804 133.931098 
L 492.82548 130.949023 
L 493.147218 130.405292 
L 494.970402 129.629978 
L 495.98924 128.788975 
L 496.954455 127.73971 
L 497.973293 126.990608 
L 498.992131 126.407617 
L 500.010969 126.120081 
L 500.976183 126.96875 
L 501.673283 127.269776 
L 501.673283 128.040894 
L 503.818205 128.571137 
L 504.837043 129.181199 
L 505.802258 133.112228 
L 506.821096 135.683821 
L 507.839934 141.092981 
L 508.858772 147.617658 
L 509.823987 156.656424 
L 510.199348 163.092991 
L 510.521086 162.452022 
L 512.34427 163.358779 
L 513.363108 164.154141 
L 514.328323 167.596986 
L 515.025423 167.196308 
L 516.044261 169.520568 
L 517.009475 174.245059 
L 517.706575 179.755133 
L 518.725413 181.752152 
L 518.725413 185.462713 
L 520.173235 189.743473 
L 521.192073 194.951749 
L 521.83555 199.124709 
L 522.854388 199.657085 
L 523.551488 200.426576 
L 524.892064 222.100698 
L 525.857279 223.460016 
L 526.554378 232.470338 
L 527.197855 243.399348 
L 527.197855 249.754631 
L 528.377562 249.530212 
L 529.021039 246.737894 
L 529.718138 241.953315 
L 530.361615 235.39129 
L 531.058715 230.956248 
L 531.702191 229.384049 
L 532.399291 225.977016 
L 534.544213 212.65334 
L 535.670297 207.680545 
L 535.992035 202.939932 
L 536.689135 196.172782 
L 538.136957 194.52453 
L 538.136957 190.175487 
L 539.960141 187.36528 
L 539.960141 184.772715 
L 541.461586 182.091449 
L 541.944194 179.934359 
L 544.035493 176.676008 
L 545.75143 173.548079 
L 547.038383 170.497618 
L 547.896352 168.119736 
L 548.218091 168.470054 
L 549.505044 170.96401 
L 550.631128 172.589419 
L 551.757212 175.525739 
L 552.561558 173.11415 
L 553.258657 170.19663 
L 554.063003 175.848324 
L 555.189087 167.867646 
L 555.886187 164.089374 
L 557.012271 170.741421 
L 557.816617 169.155953 
L 558.620962 180.642157 
L 559.6398 191.053352 
L 560.444146 192.012838 
L 561.248492 190.718146 
L 562.26733 188.839131 
L 563.071675 188.207258 
L 564.894859 180.087323 
L 565.699205 175.193487 
L 566.825289 169.740371 
L 567.683258 163.818723 
L 568.326734 157.437966 
L 569.452818 151.830417 
L 570.632525 146.545046 
L 571.276002 141.575737 
L 572.080348 137.450525 
L 573.260055 133.820433 
L 574.707877 130.85952 
L 575.887584 128.119679 
L 577.335407 125.466005 
L 577.335407 122.757363 
L 578.461491 120.009493 
L 579.641198 117.589897 
L 582.268727 112.835814 
L 583.71655 110.862243 
L 583.71655 108.580423 
L 584.896257 106.384951 
L 586.344079 104.387618 
L 587.523786 102.544431 
L 588.64987 101.095305 
L 590.151316 99.690971 
L 591.2774 98.089698 
L 592.725222 96.597737 
L 592.725222 94.791387 
L 595.031013 91.600627 
L 599.159988 87.737509 
L 600.286072 86.865234 
L 601.787518 86.038051 
L 605.541131 83.299112 
L 605.862869 82.227087 
L 608.168661 81.213446 
L 608.168661 80.412553 
L 609.294745 80.401444 
L 610.420829 81.628494 
L 611.922274 82.209403 
L 613.048358 82.940291 
L 614.549803 83.242342 
L 615.675888 83.635926 
L 616.855595 83.754238 
L 618.303417 84.055772 
L 619.483124 84.469776 
L 622.110654 84.421463 
L 623.558476 84.559964 
L 623.880214 84.946372 
L 625.059921 85.429108 
L 626.186005 87.254117 
L 627.312089 88.60791 
L 628.491796 89.709104 
L 629.939619 89.999822 
L 631.119326 90.781174 
L 632.24541 91.7976 
L 633.746855 92.85768 
L 634.872939 94.344915 
L 637.500469 97.342422 
L 638.304815 99.677171 
L 639.430899 102.489003 
L 640.449737 104.712468 
L 641.575821 106.081125 
L 642.755528 107.722655 
L 643.881612 108.505988 
L 645.007696 108.420441 
L 646.187403 108.041545 
L 647.313487 109.771009 
L 649.458409 108.967749 
L 650.584493 108.986242 
L 651.442462 108.872572 
L 652.568546 110.868308 
L 653.69463 113.359823 
L 654.874337 113.247236 
L 657.448243 112.4051 
L 658.467081 112.521244 
L 659.646789 114.424659 
L 660.075773 121.11434 
L 661.25548 123.582988 
L 663.883009 122.237916 
L 664.848224 129.094633 
L 666.027931 129.900547 
L 666.510539 132.723669 
L 667.958361 139.284786 
L 669.138068 138.987069 
L 670.264152 143.873857 
L 670.264152 148.981763 
L 671.711975 154.417229 
L 672.891682 158.244868 
L 674.339504 158.176629 
L 674.822112 157.694001 
L 676.001819 157.250958 
L 678.253987 155.963403 
L 679.058333 155.080071 
L 680.23804 154.145952 
L 681.042386 153.33723 
L 683.133684 152.458493 
L 685.224983 152.11611 
L 686.029329 151.592519 
L 687.316282 150.970299 
L 688.924974 149.468488 
L 690.211927 148.642672 
L 691.016273 147.881924 
L 692.303226 147.336879 
L 693.590179 146.915168 
L 694.072787 146.242605 
L 695.35974 145.601423 
L 695.788724 144.995486 
L 697.075677 144.343406 
L 698.362631 143.376946 
L 698.845238 142.366305 
L 700.936537 140.815978 
L 701.901752 139.729408 
L 703.188705 138.577176 
L 704.958266 136.170004 
L 706.191596 134.711806 
L 707.156811 133.395338 
L 707.961157 131.770835 
L 709.408979 130.149886 
L 709.730717 128.407698 
L 711.17854 126.9603 
L 711.982885 125.43165 
L 713.269839 123.979748 
L 714.18143 122.391542 
L 715.468384 120.882716 
L 715.950991 119.153081 
L 717.720552 117.700286 
L 718.203159 115.681407 
L 719.919097 113.988444 
L 720.401704 111.98305 
L 721.849527 110.156711 
L 722.171265 108.455482 
L 724.048072 106.965019 
L 724.423433 105.594559 
L 725.335025 104.250482 
L 727.104585 103.00567 
L 727.587193 101.830172 
L 729.785738 100.606338 
L 729.785738 99.260784 
L 730.750953 97.947842 
L 732.520514 96.502024 
L 733.003121 95.485409 
L 735.362535 94.789867 
L 735.684273 93.538747 
L 736.649488 92.118493 
L 737.614703 91.034833 
L 739.330641 90.271304 
L 739.813248 89.762732 
L 740.778463 89.394208 
L 743.459616 88.543984 
L 745.390046 86.534276 
L 747.588591 86.028018 
L 747.588591 89.98447 
L 749.036413 91.789278 
L 749.948005 91.540689 
L 751.878435 92.428555 
L 752.200173 93.256972 
L 754.07698 93.175344 
L 755.524802 97.434505 
L 757.294363 104.38471 
L 757.77697 113.524411 
L 759.653777 134.950246 
L 761.530584 145.975212 
L 761.852322 154.596309 
L 762.334929 155.877928 
L 764.265359 178.685069 
L 765.176951 185.98672 
L 766.624773 189.214831 
L 766.946512 196.804335 
L 767.429119 200.09417 
L 768.394334 211.43806 
L 769.305926 220.227213 
L 769.788533 227.215689 
L 770.753748 229.754218 
L 771.236356 232.18168 
L 772.523309 233.734118 
L 772.523309 234.470258 
L 773.434901 234.122884 
L 774.882723 229.605322 
L 775.365331 226.468315 
L 776.276922 235.366181 
L 777.724745 231.531266 
L 778.046483 226.620273 
L 778.52909 221.648757 
L 779.92329 214.415421 
L 781.585604 207.35861 
L 783.355165 205.086104 
L 783.355165 204.096196 
L 785.178349 201.802561 
L 785.178349 200.042031 
L 787.001532 195.81365 
L 787.323271 190.392872 
L 789.629062 184.323124 
L 789.629062 179.3109 
L 791.773984 173.115812 
L 791.773984 167.621863 
L 792.471083 162.395726 
L 793.918906 161.383202 
L 795.420351 167.499882 
L 796.546435 160.142596 
L 797.350781 153.321999 
L 800.085557 143.77677 
L 800.568164 141.124175 
L 801.479756 138.558003 
L 804.321778 128.714244 
L 805.286992 126.341624 
L 807.163799 123.711048 
L 808.129014 123.902039 
L 810.381182 136.484576 
L 811.775381 143.55152 
L 812.09712 146.689498 
L 813.86668 151.537486 
L 814.188419 155.280125 
L 815.475372 154.160843 
L 816.762325 158.811171 
L 817.084063 158.190536 
L 818.371017 159.862409 
L 819.550724 166.677094 
L 820.355069 167.070097 
L 821.963761 167.061386 
L 822.285499 166.453897 
L 823.894191 166.776517 
L 824.269552 166.548089 
L 825.073898 165.31445 
L 826.199982 168.195744 
L 829.310119 198.020217 
L 829.631857 204.489066 
L 830.757941 213.600714 
L 831.61591 223.034816 
L 832.259387 233.334375 
L 833.063732 231.184007 
L 833.760832 237.274598 
L 835.208654 241.183372 
L 835.905754 240.688324 
L 836.7101 240.608735 
L 837.514446 242.328253 
L 837.836184 242.296518 
L 838.962268 243.925812 
L 839.337629 242.76277 
L 840.302844 241.454573 
L 840.785452 244.600748 
L 841.965159 243.939707 
L 842.286897 242.342086 
L 842.769504 238.487393 
L 843.895588 237.323739 
L 843.895588 233.99324 
L 845.397034 232.999502 
L 846.20138 232.048451 
L 847.488333 232.157951 
L 848.399925 235.433319 
L 851.295569 234.118205 
L 851.295569 228.807366 
L 852.797015 223.892916 
L 853.118753 220.22555 
L 854.620198 216.98571 
L 854.620198 215.985241 
L 856.443382 217.303868 
L 857.086859 217.020655 
L 857.783958 217.438284 
L 859.124535 216.500454 
L 859.607142 215.518696 
L 859.92888 209.974352 
L 860.947718 203.869903 
L 862.073802 198.349459 
L 862.395541 194.93014 
L 863.414379 191.319028 
L 865.344808 186.760091 
L 866.041908 183.795273 
L 866.846254 181.329564 
L 867.6506 185.112976 
L 868.776684 189.391258 
L 869.956391 189.325058 
L 871.082475 183.754886 
L 871.886821 178.459296 
L 873.012905 173.794421 
L 873.870873 168.39646 
L 875.801303 159.094744 
L 877.088256 155.308684 
L 877.892602 151.670936 
L 878.696948 148.969166 
L 879.823032 146.792235 
L 880.627378 144.720139 
L 881.592593 142.954308 
L 882.7723 141.910394 
L 884.00563 141.211288 
L 884.863599 140.414051 
L 885.989683 141.345707 
L 887.759243 143.580451 
L 888.885327 145.782583 
L 890.172281 147.400129 
L 890.976626 148.079775 
L 891.298365 147.775464 
L 893.067925 151.711724 
L 893.872271 156.527138 
L 894.194009 161.91009 
L 895.96357 166.540906 
L 896.767916 170.997619 
L 897.947623 180.904528 
L 899.66356 185.525766 
L 902.130221 203.691613 
L 902.934567 207.411586 
L 903.738912 212.163343 
L 905.508473 227.044106 
L 906.312819 227.888386 
L 906.634557 227.169525 
L 907.599772 228.095064 
L 908.404118 229.948707 
L 908.725856 235.561276 
L 909.691071 240.111666 
L 910.495417 246.634345 
L 910.817155 245.480689 
L 911.78237 246.430203 
L 912.586716 252.175432 
L 913.391061 263.2342 
L 913.7128 264.003334 
L 915.321491 268.398299 
L 915.321491 266.897532 
L 916.822937 267.501844 
L 916.822937 263.446483 
L 918.270759 258.004491 
L 918.270759 253.914072 
L 920.093943 254.988672 
L 921.702634 250.040917 
L 923.847556 244.654911 
L 923.847556 234.906042 
L 925.67074 231.551701 
L 926.850447 226.321404 
L 928.459138 221.051823 
L 928.941746 216.4517 
L 930.818553 209.754421 
L 932.319998 198.306246 
L 932.641736 197.045928 
L 933.928689 207.44215 
L 935.376512 205.903718 
L 935.751873 203.73622 
L 937.521434 201.856804 
L 937.896795 195.256733 
L 938.540272 186.710137 
L 940.363455 179.293532 
L 940.363455 171.552156 
L 941.864901 162.902206 
L 942.186639 155.573646 
L 942.830116 150.618811 
L 944.975038 149.598781 
L 944.975038 152.42524 
L 945.672137 155.336409 
L 947.817059 160.556065 
L 947.817059 172.042268 
L 949.961981 180.746207 
L 951.088065 188.965944 
L 951.088065 187.132706 
L 951.088065 188.794817 
L 952.911249 189.693203 
L 954.895302 187.804724 
L 955.699648 186.138827 
L 956.503994 191.500374 
L 957.308339 194.420277 
L 958.112685 200.89676 
L 959.721377 200.208221 
L 959.721377 202.000779 
L 961.490937 200.71224 
L 963.260498 204.000164 
L 964.17209 204.182722 
L 965.137305 202.776597 
L 965.619912 199.695064 
L 966.585127 198.019686 
L 967.496719 193.768463 
L 967.979326 189.480946 
L 968.944541 184.615561 
L 970.714102 182.306103 
L 972.001055 179.14833 
L 972.805401 179.971714 
L 973.716993 179.554745 
L 974.521338 175.348206 
L 976.505391 168.979722 
L 977.953214 166.577484 
L 977.953214 162.257974 
L 979.454659 160.870012 
L 979.454659 160.345686 
L 980.956104 163.881529 
L 983.101026 166.295325 
L 983.422765 167.416698 
L 983.422765 166.329361 
L 985.567687 165.256356 
L 986.586525 162.706685 
L 986.586525 160.508568 
L 988.409708 156.73965 
L 989.374923 153.056112 
L 991.090861 147.611529 
L 992.056076 145.915478 
L 993.879259 144.230282 
L 994.200998 142.69274 
L 994.898097 141.795231 
L 995.916935 141.116628 
L 996.88215 140.028088 
L 998.705334 139.022992 
L 999.080695 138.151056 
L 1000.04591 137.655915 
L 1001.225617 136.246354 
L 1001.869094 133.484981 
L 1003.370539 130.361041 
L 1004.014016 127.228981 
L 1005.032854 123.989894 
L 1007.177776 117.935683 
L 1008.679221 115.657503 
L 1009.322698 113.522077 
L 1010.502405 111.540758 
L 1011.950227 109.831654 
L 1011.950227 109.831654 
" clip-path="url(#p8cd18e1157)" style="fill: none; stroke: #0be881; stroke-opacity: 0.99; stroke-width: 2.4; stroke-linecap: square"/>
   </g>
   <g id="line2d_22">
    <path d="M 92.904773 482.904027 
L 92.904773 437.386394 
L 93.226511 425.900191 
L 93.226511 414.413987 
L 93.548249 402.927784 
L 93.548249 391.441581 
L 93.869988 379.955377 
L 94.352595 368.469174 
L 95.049695 345.496767 
L 95.800417 334.010564 
L 96.443894 311.038157 
L 97.623601 299.551954 
L 97.623601 288.06575 
L 98.320701 276.579547 
L 98.803308 265.093344 
L 99.125047 253.60714 
L 100.143884 242.120937 
L 100.626492 230.634734 
L 101.591707 219.14853 
L 102.074314 208.109561 
L 103.57576 197.227829 
L 103.57576 188.725486 
L 106.04242 169.820422 
L 106.525027 163.732584 
L 107.651111 159.589358 
L 109.152557 155.734314 
L 109.152557 152.203672 
L 111.780086 146.005139 
L 112.90617 142.713307 
L 112.90617 142.031411 
L 114.407616 139.140057 
L 115.5337 136.523244 
L 116.713407 134.202518 
L 117.839491 133.794195 
L 118.965575 131.386184 
L 120.145282 130.485135 
L 120.145282 127.945048 
L 121.593104 125.818564 
L 122.719189 123.737306 
L 123.898896 121.031472 
L 125.02498 119.23717 
L 126.151064 117.739593 
L 127.330771 116.904568 
L 128.456855 117.796039 
L 129.582939 117.025544 
L 131.084384 118.642251 
L 132.210468 118.557523 
L 133.390176 124.558512 
L 134.51626 125.045686 
L 135.642344 124.876279 
L 135.642344 124.404519 
L 136.822051 123.47614 
L 139.074219 122.714403 
L 140.253926 125.493646 
L 141.38001 134.920065 
L 142.506094 146.406268 
L 142.506094 157.892472 
L 144.007539 169.378675 
L 146.313331 182.356777 
L 147.439415 191.826073 
L 148.565499 193.764292 
L 148.565499 192.938758 
L 149.745206 189.655018 
L 151.997374 185.534928 
L 151.997374 185.010677 
L 153.177081 190.534491 
L 154.303165 198.187236 
L 155.429249 204.402826 
L 155.429249 211.985632 
L 156.608956 214.629808 
L 157.73504 219.501759 
L 157.73504 227.719167 
L 158.861124 226.65295 
L 160.040831 225.754093 
L 160.040831 225.249737 
L 161.971261 223.930773 
L 162.292999 221.586631 
L 163.955314 216.453675 
L 168.245158 212.639418 
L 169.049504 211.281196 
L 170.711818 209.05612 
L 172.481379 206.884769 
L 172.481379 199.764942 
L 174.626301 191.892143 
L 174.626301 180.298782 
L 176.824846 176.982553 
L 176.824846 172.602224 
L 180.095852 169.337829 
L 180.41759 165.037389 
L 181.11469 161.754244 
L 183.58135 159.48123 
L 183.58135 158.376746 
L 183.903089 156.962433 
L 186.423372 155.477752 
L 186.423372 153.525451 
L 187.871194 150.427468 
L 189.694378 146.900029 
L 189.694378 139.638607 
L 191.195823 133.330049 
L 192.643646 127.752526 
L 193.126253 122.508986 
L 194.252337 119.642506 
L 195.432044 120.52337 
L 196.879867 123.55291 
L 197.362474 131.787361 
L 198.542181 131.769886 
L 199.990004 132.293032 
L 200.472611 131.526988 
L 202.403041 129.532454 
L 203.207387 126.525256 
L 204.387094 121.447559 
L 205.674047 116.818412 
L 206.478393 112.003842 
L 207.604477 110.583365 
L 208.784184 107.06444 
L 210.017514 105.682504 
L 211.197221 106.091121 
L 212.001567 111.445118 
L 213.28852 111.333727 
L 214.575473 110.705665 
L 215.379819 107.149039 
L 216.988511 102.679218 
L 217.792856 97.705354 
L 219.079809 93.046905 
L 220.366763 89.618465 
L 221.171108 88.701237 
L 222.458062 87.551614 
L 223.584146 89.665365 
L 224.871099 93.548908 
L 226.158052 92.458627 
L 227.927613 90.147244 
L 228.41022 87.001483 
L 229.697173 83.245435 
L 231.413111 81.954552 
L 232.378326 79.866644 
L 232.860933 78.404247 
L 235.113101 76.599187 
L 236.024693 74.477767 
L 236.989908 73.352915 
L 237.472516 73.224076 
L 240.636276 73.351175 
L 241.60149 73.326704 
L 242.99569 72.90964 
L 243.960905 72.158978 
L 245.355104 72.921273 
L 246.320319 73.639505 
L 247.285534 76.752612 
L 249.484079 80.533202 
L 249.966686 80.515115 
L 250.931901 84.77504 
L 251.897116 94.332953 
L 252.808708 101.320934 
L 255.060876 105.145762 
L 255.060876 107.065511 
L 256.455075 113.992203 
L 257.42029 115.541825 
L 259.189851 114.865791 
L 259.189851 114.40341 
L 260.155066 113.748928 
L 262.353611 114.907429 
L 262.353611 116.928092 
L 264.713025 119.487445 
L 265.088386 121.070364 
L 265.517371 120.901277 
L 267.769539 120.610149 
L 268.734754 121.370476 
L 270.450691 119.957151 
L 270.450691 119.267959 
L 272.702859 118.671325 
L 272.702859 121.729317 
L 274.955028 123.387487 
L 274.955028 123.315824 
L 277.153573 129.288828 
L 277.153573 129.173981 
L 279.405741 128.810775 
L 279.405741 128.11659 
L 281.282547 126.756892 
L 281.604286 125.791004 
L 283.373846 123.354688 
L 283.373846 122.475339 
L 285.143407 120.49001 
L 285.143407 118.368107 
L 286.108622 116.469249 
L 287.502821 115.029869 
L 288.468036 113.504943 
L 288.950644 110.47583 
L 289.754989 108.666238 
L 291.041943 106.075882 
L 291.846288 105.314832 
L 292.972372 106.201192 
L 294.473818 109.449649 
L 294.473818 114.002187 
L 296.61874 113.441055 
L 296.61874 112.942985 
L 297.262216 111.832691 
L 299.0854 115.166459 
L 299.407138 118.586521 
L 300.425976 121.493581 
L 302.463652 119.446826 
L 303.428867 119.221305 
L 304.447705 118.445525 
L 304.447705 117.452869 
L 307.611465 120.40209 
L 307.611465 116.34711 
L 310.078125 115.634552 
L 310.078125 112.978779 
L 311.901309 110.820661 
L 311.901309 108.877456 
L 313.081016 105.280529 
L 314.528839 102.112599 
L 315.654923 99.176202 
L 318.282452 91.713071 
L 318.282452 87.926722 
L 320.266505 84.47619 
L 321.392589 83.049786 
L 326.004171 128.9946 
L 327.451994 140.480803 
L 327.451994 151.967006 
L 328.953439 163.45321 
L 330.401261 173.494322 
L 330.401261 184.980525 
L 331.902707 196.466729 
L 331.902707 191.698391 
L 333.350529 185.75021 
L 333.350529 176.05416 
L 335.173713 164.567957 
L 335.173713 153.468276 
L 338.82008 136.996382 
L 338.82008 130.432944 
L 340.643264 125.17151 
L 340.643264 120.327847 
L 342.788186 114.882315 
L 342.788186 109.938709 
L 344.61137 105.150467 
L 344.933108 101.064092 
L 346.434553 97.129762 
L 348.204114 93.92722 
L 348.204114 92.849272 
L 350.027298 91.687364 
L 351.850481 89.781528 
L 352.17222 88.836389 
L 353.995403 88.105367 
L 353.995403 86.921306 
L 355.818587 88.036318 
L 357.641771 95.991217 
L 357.641771 100.872235 
L 359.464954 111.86732 
L 361.609876 110.512482 
L 361.609876 109.222149 
L 363.43306 107.936784 
L 365.202621 107.27729 
L 365.202621 106.83895 
L 367.025805 106.571139 
L 367.025805 109.880294 
L 368.848988 107.527594 
L 370.672172 105.50307 
L 370.672172 102.818213 
L 372.817094 99.871564 
L 372.817094 97.754156 
L 376.463461 96.493487 
L 376.463461 95.719218 
L 378.286645 96.488623 
L 378.286645 96.087218 
L 380.056206 95.907706 
L 382.254751 100.753392 
L 382.254751 100.082048 
L 384.024311 99.796911 
L 384.024311 98.61066 
L 385.847495 97.794415 
L 387.670679 95.764878 
L 387.670679 94.103643 
L 389.493862 91.888551 
L 391.638784 90.722709 
L 391.638784 89.878352 
L 393.461968 90.440126 
L 393.461968 89.518294 
L 395.285152 89.513016 
L 397.054713 88.959159 
L 397.054713 89.751414 
L 398.877896 89.608333 
L 398.877896 90.182314 
L 400.70108 91.374421 
L 402.846002 91.008493 
L 402.846002 92.291234 
L 404.669186 94.827809 
L 404.669186 94.614382 
L 406.492369 95.388582 
L 408.315553 97.145282 
L 408.315553 97.039005 
L 410.138737 97.346364 
L 412.283659 100.67619 
L 412.283659 99.561795 
L 414.106842 99.236484 
L 414.106842 98.484705 
L 415.876403 98.003247 
L 415.876403 96.895699 
L 417.699587 96.406527 
L 419.52277 96.658475 
L 419.52277 100.417916 
L 421.667692 105.481508 
L 421.667692 116.126363 
L 423.490876 126.579102 
L 425.31406 138.065306 
L 425.31406 149.515315 
L 427.137244 160.351724 
L 427.137244 170.438735 
L 428.906804 176.45858 
L 428.906804 180.960337 
L 430.729988 180.797292 
L 430.729988 179.31078 
L 432.553172 177.173319 
L 432.87491 174.865871 
L 432.87491 172.412478 
L 434.698094 169.971013 
L 434.698094 168.259964 
L 436.521277 166.458663 
L 436.521277 165.867154 
L 438.344461 165.6935 
L 438.344461 175.625774 
L 440.167645 185.102903 
L 440.167645 196.471226 
L 442.312567 201.996779 
L 442.312567 213.442905 
L 444.13575 213.926641 
L 444.13575 226.714843 
L 446.280672 226.458786 
L 446.924149 229.074409 
L 447.621249 228.341899 
L 447.942987 230.296965 
L 447.942987 232.854218 
L 450.087909 231.979445 
L 450.785009 236.974575 
L 452.554569 234.696825 
L 452.554569 237.85664 
L 452.554569 235.881229 
L 454.753114 233.60583 
L 454.753114 230.518244 
L 456.200937 227.130144 
L 461.18788 218.781184 
L 462.796572 210.274717 
L 463.976279 201.324013 
L 463.976279 193.426782 
L 465.102363 188.397906 
L 467.247285 181.720567 
L 467.247285 175.518086 
L 469.070469 165.232214 
L 470.089307 155.359645 
L 470.089307 146.23568 
L 471.91249 139.196563 
L 472.877705 132.807966 
L 473.896543 128.386684 
L 473.896543 125.29446 
L 476.041465 120.621885 
L 477.060303 116.671694 
L 478.079141 112.184178 
L 479.044356 106.899294 
L 481.082032 97.654777 
L 483.066085 91.474681 
L 485.425499 87.107377 
L 486.444337 85.051498 
L 487.463175 82.720691 
L 488.803751 81.56735 
L 489.768966 81.207792 
L 490.787804 80.562454 
L 492.12838 80.230171 
L 493.951564 80.077276 
L 494.273302 84.189561 
L 495.613878 85.840949 
L 496.632716 86.723496 
L 497.651554 89.836193 
L 498.670392 92.051569 
L 500.010969 92.080352 
L 500.976183 96.724628 
L 502.477629 100.543066 
L 503.121105 100.401709 
L 504.139943 107.230649 
L 505.158781 117.846578 
L 506.177619 123.041256 
L 507.142834 123.130369 
L 508.161672 128.923861 
L 509.18051 128.744635 
L 511.003694 130.806032 
L 512.022532 137.399424 
L 512.987747 141.353758 
L 514.006585 142.523159 
L 515.025423 145.130731 
L 515.668899 146.233398 
L 516.687737 148.66709 
L 519.529759 146.805674 
L 519.529759 144.650193 
L 521.513812 144.183374 
L 522.53265 154.473161 
L 523.176126 164.647381 
L 524.194964 176.133584 
L 524.892064 187.619787 
L 525.857279 197.305108 
L 528.002201 199.188031 
L 528.002201 205.735637 
L 528.377562 215.608822 
L 529.021039 215.945984 
L 529.718138 218.752845 
L 530.361615 219.20971 
L 531.058715 223.6926 
L 533.525375 223.371444 
L 533.525375 225.585258 
L 533.525375 225.420556 
L 535.670297 224.328585 
L 535.670297 221.498338 
L 538.136957 215.614777 
L 538.136957 218.263932 
L 538.136957 215.817935 
L 539.960141 209.928021 
L 541.461586 201.388002 
L 545.75143 193.806809 
L 545.75143 187.835007 
L 547.896352 181.613993 
L 548.218091 170.692524 
L 549.505044 159.206321 
L 550.631128 147.720118 
L 551.757212 137.616322 
L 553.258657 129.168957 
L 553.258657 124.481182 
L 554.384741 121.465394 
L 555.564448 118.69075 
L 556.690532 116.556049 
L 557.816617 113.52568 
L 559.318062 107.499262 
L 560.444146 102.413158 
L 563.071675 96.656303 
L 564.573121 99.625758 
L 564.573121 104.816524 
L 566.825289 104.315986 
L 568.326734 107.952111 
L 569.452818 109.331014 
L 573.260055 106.691215 
L 574.707877 110.265974 
L 574.707877 109.694542 
L 575.887584 109.861745 
L 577.335407 109.214686 
L 578.461491 111.364157 
L 579.641198 110.95784 
L 581.08902 109.838072 
L 581.08902 108.298144 
L 582.268727 107.232352 
L 583.71655 106.286063 
L 584.896257 104.977724 
L 586.344079 103.849527 
L 587.523786 103.419896 
L 588.64987 102.83492 
L 590.151316 101.886433 
L 590.151316 100.245225 
L 591.2774 98.896332 
L 592.725222 96.833194 
L 593.904929 94.745878 
L 595.031013 94.030397 
L 596.532459 92.750773 
L 597.658543 92.484413 
L 599.159988 92.473329 
L 600.286072 92.047638 
L 601.787518 91.309151 
L 601.787518 90.999722 
L 602.913602 90.906225 
L 604.039686 90.320876 
L 605.541131 89.224393 
L 606.667215 90.354945 
L 608.168661 89.647539 
L 609.294745 88.760356 
L 610.420829 88.510382 
L 611.922274 90.928987 
L 613.048358 90.13193 
L 614.549803 89.78163 
L 614.549803 89.054734 
L 615.675888 88.997026 
L 618.303417 88.471459 
L 618.303417 87.817933 
L 619.483124 88.198547 
L 620.930946 87.470127 
L 622.110654 88.891478 
L 623.558476 87.584761 
L 624.68456 88.285859 
L 625.864267 88.696454 
L 627.312089 90.283998 
L 627.312089 91.486012 
L 629.939619 91.035925 
L 629.939619 90.601945 
L 631.119326 89.098249 
L 633.746855 87.842606 
L 633.746855 86.140792 
L 634.872939 84.787372 
L 636.320762 84.731862 
L 637.500469 82.748044 
L 641.254082 75.410874 
L 642.755528 73.61277 
L 643.881612 73.126204 
L 646.509141 72.721679 
L 649.136671 73.719021 
L 651.7642 76.77565 
L 651.7642 76.386098 
L 654.016368 75.316942 
L 655.517814 75.007905 
L 656.643898 74.597589 
L 658.145343 73.854373 
L 659.271427 73.024242 
L 661.898957 73.129189 
L 663.078664 74.736803 
L 664.526486 73.819475 
L 665.706193 75.235159 
L 667.154016 74.520831 
L 668.2801 74.819206 
L 669.459807 77.042508 
L 670.907629 77.350875 
L 670.907629 80.714311 
L 672.087336 83.310993 
L 673.535159 83.575399 
L 675.14385 83.504737 
L 676.323557 84.874936 
L 678.253987 88.525234 
L 679.433694 88.466873 
L 680.720647 89.10246 
L 683.455423 89.125594 
L 685.224983 91.653884 
L 686.351067 92.747131 
L 687.638021 95.711997 
L 688.442366 96.915521 
L 689.72932 96.02537 
L 691.016273 95.484427 
L 691.820619 95.384238 
L 693.107572 97.147538 
L 693.107572 96.060937 
L 694.877132 95.322215 
L 696.164086 94.270124 
L 697.451039 93.895885 
L 699.166976 93.611597 
L 699.166976 92.57981 
L 700.936537 94.14357 
L 702.22349 93.746735 
L 702.22349 92.160157 
L 703.993051 90.504622 
L 705.762612 89.358072 
L 705.762612 88.989103 
L 707.478549 88.528771 
L 707.961157 88.161868 
L 709.730717 88.078387 
L 711.500278 88.388294 
L 711.500278 88.319962 
L 713.269839 87.923032 
L 713.698823 87.143465 
L 715.468384 85.932633 
L 715.950991 83.942038 
L 717.720552 82.303736 
L 719.597358 80.73911 
L 719.919097 82.189194 
L 722.171265 83.413914 
L 722.171265 85.682161 
L 724.423433 87.095621 
L 724.423433 86.921373 
L 724.852417 88.681034 
L 727.104585 89.803688 
L 729.785738 89.161413 
L 729.785738 88.44669 
L 730.750953 88.20338 
L 732.520514 87.935048 
L 733.003121 89.947395 
L 735.684273 91.964801 
L 735.684273 93.485305 
L 736.166881 92.966879 
L 737.132096 94.454283 
L 739.330641 96.908817 
L 739.330641 96.265312 
L 740.778463 97.047944 
L 743.459616 100.801802 
L 743.459616 101.844901 
L 743.942223 101.747808 
L 744.907438 106.363194 
L 747.588591 106.001039 
L 747.588591 109.815769 
L 748.071198 109.411196 
L 749.036413 108.806837 
L 750.430612 108.353043 
L 752.200173 107.797584 
L 753.647995 107.749979 
L 754.559587 109.437204 
L 756.919001 117.504726 
L 757.77697 140.477133 
L 758.688562 151.963336 
L 759.171169 163.449539 
L 761.530584 173.44498 
L 761.852322 180.542856 
L 762.817537 180.098694 
L 763.782752 178.99481 
L 764.747967 176.397884 
L 765.176951 174.158434 
L 766.946512 172.156098 
L 767.429119 171.041786 
L 767.911727 171.230831 
L 768.823318 174.387426 
L 769.788533 178.728301 
L 770.753748 184.59919 
L 772.523309 193.350568 
L 772.523309 200.710111 
L 772.952293 209.46275 
L 773.917508 210.207273 
L 774.400116 210.068193 
L 775.365331 212.756448 
L 776.276922 214.114387 
L 778.046483 218.030422 
L 778.046483 217.147577 
L 778.52909 216.935769 
L 781.102997 216.636352 
L 783.355165 215.822821 
L 783.355165 211.977432 
L 785.178349 207.474559 
L 785.178349 200.509203 
L 787.001532 193.022096 
L 787.323271 183.45667 
L 789.629062 172.769255 
L 791.773984 163.432545 
L 791.773984 149.705286 
L 793.918906 145.590022 
L 795.420351 141.169922 
L 796.868174 137.805625 
L 799.120342 133.515531 
L 800.997148 122.775336 
L 801.962363 118.258796 
L 803.83917 111.03656 
L 804.804385 108.70017 
L 805.7696 107.170797 
L 806.681192 106.82523 
L 807.646407 108.403407 
L 809.094229 108.354248 
L 810.005821 115.32888 
L 810.810167 124.476572 
L 812.09712 132.393942 
L 813.062335 135.07539 
L 813.86668 135.065193 
L 815.153634 141.652124 
L 815.957979 144.451647 
L 817.084063 147.421044 
L 818.049278 147.322334 
L 819.175362 151.275827 
L 820.033331 151.059621 
L 820.837677 152.632274 
L 821.642023 156.092805 
L 822.768107 158.015348 
L 823.572453 160.874377 
L 824.698537 161.383539 
L 825.556505 162.130122 
L 827.004328 161.577562 
L 827.808673 160.704824 
L 828.988381 159.791799 
L 830.114465 167.434049 
L 831.61591 166.470716 
L 833.063732 173.991161 
L 833.063732 185.07863 
L 834.565178 196.564833 
L 834.565178 207.668729 
L 836.388361 215.099605 
L 837.514446 222.066668 
L 837.514446 227.203317 
L 838.962268 237.000398 
L 838.962268 239.06636 
L 838.962268 238.501402 
L 840.785452 237.982186 
L 842.286897 238.380456 
L 842.769504 245.343682 
L 843.895588 247.753408 
L 843.895588 246.215537 
L 845.718772 240.535187 
L 851.295569 234.654878 
L 851.295569 227.082782 
L 852.797015 219.967401 
L 852.797015 212.904992 
L 854.620198 206.381152 
L 854.620198 197.555708 
L 857.086859 191.536703 
L 859.607142 185.943831 
L 859.607142 167.65712 
L 862.073802 156.434318 
L 862.073802 146.317642 
L 864.218724 136.986358 
L 865.344808 129.690122 
L 866.524516 123.761291 
L 867.6506 119.293956 
L 868.454945 117.04153 
L 869.581029 115.012254 
L 871.886821 111.446197 
L 873.012905 109.097118 
L 873.495512 105.29524 
L 875.479565 101.828107 
L 876.605649 99.380308 
L 877.892602 97.746178 
L 878.696948 96.273754 
L 879.823032 94.790851 
L 883.576645 92.481841 
L 884.863599 93.518168 
L 885.667944 93.243996 
L 887.276636 92.980374 
L 888.080982 93.996789 
L 889.367935 97.630332 
L 890.494019 100.052413 
L 891.780972 103.862956 
L 892.585318 108.565062 
L 893.872271 111.96697 
L 895.159224 112.795995 
L 895.96357 114.566504 
L 897.089654 119.470408 
L 898.376607 121.139897 
L 899.180953 125.211135 
L 900.467906 127.491897 
L 902.559205 136.0904 
L 903.417174 146.034647 
L 904.650504 148.139002 
L 905.508473 153.823609 
L 906.312819 154.92779 
L 907.599772 154.922382 
L 908.404118 160.225292 
L 909.208463 162.331406 
L 910.495417 166.656577 
L 911.299762 169.87687 
L 912.104108 174.560658 
L 912.908454 174.300581 
L 913.7128 176.005428 
L 915.643229 187.772918 
L 916.501198 188.305618 
L 917.144675 185.79729 
L 918.64612 180.776037 
L 921.702634 200.353093 
L 922.077995 204.526211 
L 923.418572 204.473393 
L 923.847556 204.060898 
L 925.188132 203.585511 
L 925.67074 201.321441 
L 926.850447 198.779896 
L 928.459138 197.723493 
L 928.941746 194.440662 
L 929.853338 191.594828 
L 931.140291 188.956899 
L 932.319998 184.92018 
L 932.641736 181.822731 
L 933.928689 180.904906 
L 934.250428 178.916506 
L 935.376512 179.486308 
L 935.751873 176.88444 
L 937.521434 175.290969 
L 937.521434 172.95853 
L 938.218533 171.320819 
L 940.363455 168.13952 
L 940.363455 165.058058 
L 941.864901 163.340601 
L 941.864901 162.018327 
L 942.508377 158.788102 
L 944.975038 157.0904 
L 944.975038 152.087004 
L 947.817059 151.256979 
L 947.817059 163.191133 
L 949.961981 174.677337 
L 951.088065 186.16354 
L 951.088065 195.110527 
L 952.911249 205.822528 
L 954.412695 217.308732 
L 955.21704 224.744016 
L 956.021386 223.448466 
L 958.434423 217.600044 
L 959.721377 214.860709 
L 960.203984 208.217929 
L 961.00833 203.024889 
L 963.260498 197.267262 
L 963.743105 193.374179 
L 964.654697 191.439002 
L 965.619912 194.086749 
L 966.102519 196.486631 
L 967.067734 194.934511 
L 967.979326 194.233402 
L 968.461934 193.00834 
L 970.714102 196.31673 
L 971.625694 191.56548 
L 972.805401 187.967626 
L 972.805401 176.983003 
L 974.521338 166.147514 
L 976.505391 156.595084 
L 977.953214 147.623866 
L 977.953214 143.566655 
L 979.454659 144.839021 
L 980.956104 144.297071 
L 980.956104 143.989583 
L 983.422765 147.393611 
L 983.422765 147.348657 
L 985.567687 147.059679 
L 986.586525 146.283616 
L 986.586525 143.440441 
L 988.731447 136.880068 
L 989.374923 127.443409 
L 990.393761 119.971426 
L 991.412599 113.33822 
L 993.879259 107.070704 
L 993.879259 100.537245 
L 994.898097 97.789323 
L 995.916935 100.264365 
L 998.705334 108.539732 
L 998.705334 118.866293 
L 999.080695 125.589411 
L 1001.225617 131.21841 
L 1001.225617 129.22239 
L 1003.370539 128.239411 
L 1003.370539 121.899866 
L 1004.335754 115.888391 
L 1006.158938 110.428656 
L 1006.534299 108.778196 
L 1008.679221 109.369631 
L 1008.679221 108.196736 
L 1010.502405 105.575213 
L 1011.950227 104.550979 
L 1011.950227 107.806406 
L 1011.950227 107.806406 
" clip-path="url(#p8cd18e1157)" style="fill: none; stroke: #3c40c6; stroke-opacity: 0.99; stroke-width: 2.4; stroke-linecap: square"/>
   </g>
   <g id="patch_3">
    <path d="M 46.9525 434.59192 
L 46.9525 72.25112 
" style="fill: none; stroke: #000000; stroke-width: 0.8; stroke-linejoin: miter; stroke-linecap: square"/>
   </g>
   <g id="patch_4">
    <path d="M 1057.9025 434.59192 
L 1057.9025 72.25112 
" style="fill: none; stroke: #000000; stroke-width: 0.8; stroke-linejoin: miter; stroke-linecap: square"/>
   </g>
   <g id="patch_5">
    <path d="M 46.9525 434.59192 
L 1057.9025 434.59192 
" style="fill: none; stroke: #000000; stroke-width: 0.8; stroke-linejoin: miter; stroke-linecap: square"/>
   </g>
   <g id="patch_6">
    <path d="M 46.9525 72.25112 
L 1057.9025 72.25112 
" style="fill: none; stroke: #000000; stroke-width: 0.8; stroke-linejoin: miter; stroke-linecap: square"/>
   </g>
   <g id="legend_1">
    <g id="patch_7">
     <path d="M 334.7085 35.8 
L 729.7085 35.8 
Q 733.7085 35.8 733.7085 31.8 
L 733.7085 4 
Q 733.7085 -0 729.7085 -0 
L 334.7085 -0 
Q 330.7085 -0 330.7085 4 
L 330.7085 31.8 
Q 330.7085 35.8 334.7085 35.8 
z
" style="fill: #ffffff; opacity: 0.8; stroke: #cccccc; stroke-linejoin: miter"/>
    </g>
    <g id="line2d_23">
     <path d="M 338.7085 16.6 
L 358.7085 16.6 
L 378.7085 16.6 
" style="fill: none; stroke: #0be881; stroke-opacity: 0.99; stroke-width: 2.4; stroke-linecap: square"/>
    </g>
    <g id="text_13">
     <!-- MLP256$^m$ -->
     <g transform="translate(394.7085 23.6)scale(0.2 -0.2)">
      <defs>
       <path id="DejaVuSans-4d" d="M 628 4666 
L 1569 4666 
L 2759 1491 
L 3956 4666 
L 4897 4666 
L 4897 0 
L 4281 0 
L 4281 4097 
L 3078 897 
L 2444 897 
L 1241 4097 
L 1241 0 
L 628 0 
L 628 4666 
z
" transform="scale(0.015625)"/>
       <path id="DejaVuSans-4c" d="M 628 4666 
L 1259 4666 
L 1259 531 
L 3531 531 
L 3531 0 
L 628 0 
L 628 4666 
z
" transform="scale(0.015625)"/>
       <path id="DejaVuSans-50" d="M 1259 4147 
L 1259 2394 
L 2053 2394 
Q 2494 2394 2734 2622 
Q 2975 2850 2975 3272 
Q 2975 3691 2734 3919 
Q 2494 4147 2053 4147 
L 1259 4147 
z
M 628 4666 
L 2053 4666 
Q 2838 4666 3239 4311 
Q 3641 3956 3641 3272 
Q 3641 2581 3239 2228 
Q 2838 1875 2053 1875 
L 1259 1875 
L 1259 0 
L 628 0 
L 628 4666 
z
" transform="scale(0.015625)"/>
       <path id="DejaVuSans-35" d="M 691 4666 
L 3169 4666 
L 3169 4134 
L 1269 4134 
L 1269 2991 
Q 1406 3038 1543 3061 
Q 1681 3084 1819 3084 
Q 2600 3084 3056 2656 
Q 3513 2228 3513 1497 
Q 3513 744 3044 326 
Q 2575 -91 1722 -91 
Q 1428 -91 1123 -41 
Q 819 9 494 109 
L 494 744 
Q 775 591 1075 516 
Q 1375 441 1709 441 
Q 2250 441 2565 725 
Q 2881 1009 2881 1497 
Q 2881 1984 2565 2268 
Q 2250 2553 1709 2553 
Q 1456 2553 1204 2497 
Q 953 2441 691 2322 
L 691 4666 
z
" transform="scale(0.015625)"/>
       <path id="DejaVuSans-Oblique-6d" d="M 5747 2113 
L 5338 0 
L 4763 0 
L 5166 2094 
Q 5191 2228 5203 2325 
Q 5216 2422 5216 2491 
Q 5216 2772 5059 2928 
Q 4903 3084 4622 3084 
Q 4203 3084 3875 2770 
Q 3547 2456 3450 1953 
L 3066 0 
L 2491 0 
L 2900 2094 
Q 2925 2209 2937 2307 
Q 2950 2406 2950 2484 
Q 2950 2769 2794 2926 
Q 2638 3084 2363 3084 
Q 1938 3084 1609 2770 
Q 1281 2456 1184 1953 
L 800 0 
L 225 0 
L 909 3500 
L 1484 3500 
L 1375 2956 
Q 1609 3263 1923 3423 
Q 2238 3584 2597 3584 
Q 2978 3584 3223 3384 
Q 3469 3184 3519 2828 
Q 3781 3197 4126 3390 
Q 4472 3584 4856 3584 
Q 5306 3584 5551 3325 
Q 5797 3066 5797 2591 
Q 5797 2488 5784 2364 
Q 5772 2241 5747 2113 
z
" transform="scale(0.015625)"/>
      </defs>
      <use xlink:href="#DejaVuSans-4d" transform="translate(0 0.51875)"/>
      <use xlink:href="#DejaVuSans-4c" transform="translate(86.279297 0.51875)"/>
      <use xlink:href="#DejaVuSans-50" transform="translate(141.992188 0.51875)"/>
      <use xlink:href="#DejaVuSans-32" transform="translate(202.294922 0.51875)"/>
      <use xlink:href="#DejaVuSans-35" transform="translate(265.917969 0.51875)"/>
      <use xlink:href="#DejaVuSans-36" transform="translate(329.541016 0.51875)"/>
      <use xlink:href="#DejaVuSans-Oblique-6d" transform="translate(394.121094 38.8)scale(0.7)"/>
     </g>
    </g>
    <g id="line2d_24">
     <path d="M 527.9085 16.6 
L 547.9085 16.6 
L 567.9085 16.6 
" style="fill: none; stroke: #3c40c6; stroke-opacity: 0.99; stroke-width: 2.4; stroke-linecap: square"/>
    </g>
    <g id="text_14">
     <!-- TinyLidarNet$^m$ -->
     <g transform="translate(583.9085 23.6)scale(0.2 -0.2)">
      <defs>
       <path id="DejaVuSans-69" d="M 603 3500 
L 1178 3500 
L 1178 0 
L 603 0 
L 603 3500 
z
M 603 4863 
L 1178 4863 
L 1178 4134 
L 603 4134 
L 603 4863 
z
" transform="scale(0.015625)"/>
       <path id="DejaVuSans-6e" d="M 3513 2113 
L 3513 0 
L 2938 0 
L 2938 2094 
Q 2938 2591 2744 2837 
Q 2550 3084 2163 3084 
Q 1697 3084 1428 2787 
Q 1159 2491 1159 1978 
L 1159 0 
L 581 0 
L 581 3500 
L 1159 3500 
L 1159 2956 
Q 1366 3272 1645 3428 
Q 1925 3584 2291 3584 
Q 2894 3584 3203 3211 
Q 3513 2838 3513 2113 
z
" transform="scale(0.015625)"/>
       <path id="DejaVuSans-79" d="M 2059 -325 
Q 1816 -950 1584 -1140 
Q 1353 -1331 966 -1331 
L 506 -1331 
L 506 -850 
L 844 -850 
Q 1081 -850 1212 -737 
Q 1344 -625 1503 -206 
L 1606 56 
L 191 3500 
L 800 3500 
L 1894 763 
L 2988 3500 
L 3597 3500 
L 2059 -325 
z
" transform="scale(0.015625)"/>
       <path id="DejaVuSans-4e" d="M 628 4666 
L 1478 4666 
L 3547 763 
L 3547 4666 
L 4159 4666 
L 4159 0 
L 3309 0 
L 1241 3903 
L 1241 0 
L 628 0 
L 628 4666 
z
" transform="scale(0.015625)"/>
       <path id="DejaVuSans-74" d="M 1172 4494 
L 1172 3500 
L 2356 3500 
L 2356 3053 
L 1172 3053 
L 1172 1153 
Q 1172 725 1289 603 
Q 1406 481 1766 481 
L 2356 481 
L 2356 0 
L 1766 0 
Q 1100 0 847 248 
Q 594 497 594 1153 
L 594 3053 
L 172 3053 
L 172 3500 
L 594 3500 
L 594 4494 
L 1172 4494 
z
" transform="scale(0.015625)"/>
      </defs>
      <use xlink:href="#DejaVuSans-54" transform="translate(0 0.51875)"/>
      <use xlink:href="#DejaVuSans-69" transform="translate(61.083984 0.51875)"/>
      <use xlink:href="#DejaVuSans-6e" transform="translate(88.867188 0.51875)"/>
      <use xlink:href="#DejaVuSans-79" transform="translate(152.246094 0.51875)"/>
      <use xlink:href="#DejaVuSans-4c" transform="translate(211.425781 0.51875)"/>
      <use xlink:href="#DejaVuSans-69" transform="translate(267.138672 0.51875)"/>
      <use xlink:href="#DejaVuSans-64" transform="translate(294.921875 0.51875)"/>
      <use xlink:href="#DejaVuSans-61" transform="translate(358.398438 0.51875)"/>
      <use xlink:href="#DejaVuSans-72" transform="translate(419.677734 0.51875)"/>
      <use xlink:href="#DejaVuSans-4e" transform="translate(460.791016 0.51875)"/>
      <use xlink:href="#DejaVuSans-65" transform="translate(535.595703 0.51875)"/>
      <use xlink:href="#DejaVuSans-74" transform="translate(597.119141 0.51875)"/>
      <use xlink:href="#DejaVuSans-Oblique-6d" transform="translate(637.285156 38.8)scale(0.7)"/>
     </g>
    </g>
   </g>
  </g>
 </g>
 <defs>
  <clipPath id="p8cd18e1157">
   <rect x="46.9525" y="72.25112" width="1010.95" height="362.3408"/>
  </clipPath>
 </defs>
</svg>
