<?xml version="1.0" encoding="utf-8" standalone="no"?>
<!DOCTYPE svg PUBLIC "-//W3C//DTD SVG 1.1//EN"
  "http://www.w3.org/Graphics/SVG/1.1/DTD/svg11.dtd">
<svg xmlns:xlink="http://www.w3.org/1999/xlink" width="1057.9025pt" height="488.17567pt" viewBox="0 0 1057.9025 488.17567" xmlns="http://www.w3.org/2000/svg" version="1.1">
 <metadata>
  <rdf:RDF xmlns:dc="http://purl.org/dc/elements/1.1/" xmlns:cc="http://creativecommons.org/ns#" xmlns:rdf="http://www.w3.org/1999/02/22-rdf-syntax-ns#">
   <cc:Work>
    <dc:type rdf:resource="http://purl.org/dc/dcmitype/StillImage"/>
    <dc:date>2024-08-29T13:56:12.082554</dc:date>
    <dc:format>image/svg+xml</dc:format>
    <dc:creator>
     <cc:Agent>
      <dc:title>Matplotlib v3.5.2, https://matplotlib.org/</dc:title>
     </cc:Agent>
    </dc:creator>
   </cc:Work>
  </rdf:RDF>
 </metadata>
 <defs>
  <style type="text/css">*{stroke-linejoin: round; stroke-linecap: butt}</style>
 </defs>
 <g id="figure_1">
  <g id="patch_1">
   <path d="M 0 488.17567 
L 1057.9025 488.17567 
L 1057.9025 0 
L 0 0 
z
" style="fill: #ffffff"/>
  </g>
  <g id="axes_1">
   <g id="patch_2">
    <path d="M 46.9525 434.59192 
L 1057.9025 434.59192 
L 1057.9025 72.25112 
L 46.9525 72.25112 
z
" style="fill: #ffffff"/>
   </g>
   <g id="matplotlib.axis_1">
    <g id="xtick_1">
     <g id="line2d_1">
      <path d="M 92.904773 434.59192 
L 92.904773 72.25112 
" clip-path="url(#p4bc7b73f9e)" style="fill: none; stroke: #b0b0b0; stroke-width: 0.8; stroke-linecap: square"/>
     </g>
     <g id="line2d_2">
      <defs>
       <path id="m5d600d1fce" d="M 0 0 
L 0 3.5 
" style="stroke: #000000; stroke-width: 0.8"/>
      </defs>
      <g>
       <use xlink:href="#m5d600d1fce" x="92.904773" y="434.59192" style="stroke: #000000; stroke-width: 0.8"/>
      </g>
     </g>
     <g id="text_1">
      <!-- 0 -->
      <g transform="translate(86.542273 456.788795)scale(0.2 -0.2)">
       <defs>
        <path id="DejaVuSans-30" d="M 2034 4250 
Q 1547 4250 1301 3770 
Q 1056 3291 1056 2328 
Q 1056 1369 1301 889 
Q 1547 409 2034 409 
Q 2525 409 2770 889 
Q 3016 1369 3016 2328 
Q 3016 3291 2770 3770 
Q 2525 4250 2034 4250 
z
M 2034 4750 
Q 2819 4750 3233 4129 
Q 3647 3509 3647 2328 
Q 3647 1150 3233 529 
Q 2819 -91 2034 -91 
Q 1250 -91 836 529 
Q 422 1150 422 2328 
Q 422 3509 836 4129 
Q 1250 4750 2034 4750 
z
" transform="scale(0.015625)"/>
       </defs>
       <use xlink:href="#DejaVuSans-30"/>
      </g>
     </g>
    </g>
    <g id="xtick_2">
     <g id="line2d_3">
      <path d="M 277.657629 434.59192 
L 277.657629 72.25112 
" clip-path="url(#p4bc7b73f9e)" style="fill: none; stroke: #b0b0b0; stroke-width: 0.8; stroke-linecap: square"/>
     </g>
     <g id="line2d_4">
      <g>
       <use xlink:href="#m5d600d1fce" x="277.657629" y="434.59192" style="stroke: #000000; stroke-width: 0.8"/>
      </g>
     </g>
     <g id="text_2">
      <!-- 20 -->
      <g transform="translate(264.932629 456.788795)scale(0.2 -0.2)">
       <defs>
        <path id="DejaVuSans-32" d="M 1228 531 
L 3431 531 
L 3431 0 
L 469 0 
L 469 531 
Q 828 903 1448 1529 
Q 2069 2156 2228 2338 
Q 2531 2678 2651 2914 
Q 2772 3150 2772 3378 
Q 2772 3750 2511 3984 
Q 2250 4219 1831 4219 
Q 1534 4219 1204 4116 
Q 875 4013 500 3803 
L 500 4441 
Q 881 4594 1212 4672 
Q 1544 4750 1819 4750 
Q 2544 4750 2975 4387 
Q 3406 4025 3406 3419 
Q 3406 3131 3298 2873 
Q 3191 2616 2906 2266 
Q 2828 2175 2409 1742 
Q 1991 1309 1228 531 
z
" transform="scale(0.015625)"/>
       </defs>
       <use xlink:href="#DejaVuSans-32"/>
       <use xlink:href="#DejaVuSans-30" x="63.623047"/>
      </g>
     </g>
    </g>
    <g id="xtick_3">
     <g id="line2d_5">
      <path d="M 462.410486 434.59192 
L 462.410486 72.25112 
" clip-path="url(#p4bc7b73f9e)" style="fill: none; stroke: #b0b0b0; stroke-width: 0.8; stroke-linecap: square"/>
     </g>
     <g id="line2d_6">
      <g>
       <use xlink:href="#m5d600d1fce" x="462.410486" y="434.59192" style="stroke: #000000; stroke-width: 0.8"/>
      </g>
     </g>
     <g id="text_3">
      <!-- 40 -->
      <g transform="translate(449.685486 456.788795)scale(0.2 -0.2)">
       <defs>
        <path id="DejaVuSans-34" d="M 2419 4116 
L 825 1625 
L 2419 1625 
L 2419 4116 
z
M 2253 4666 
L 3047 4666 
L 3047 1625 
L 3713 1625 
L 3713 1100 
L 3047 1100 
L 3047 0 
L 2419 0 
L 2419 1100 
L 313 1100 
L 313 1709 
L 2253 4666 
z
" transform="scale(0.015625)"/>
       </defs>
       <use xlink:href="#DejaVuSans-34"/>
       <use xlink:href="#DejaVuSans-30" x="63.623047"/>
      </g>
     </g>
    </g>
    <g id="xtick_4">
     <g id="line2d_7">
      <path d="M 647.163342 434.59192 
L 647.163342 72.25112 
" clip-path="url(#p4bc7b73f9e)" style="fill: none; stroke: #b0b0b0; stroke-width: 0.8; stroke-linecap: square"/>
     </g>
     <g id="line2d_8">
      <g>
       <use xlink:href="#m5d600d1fce" x="647.163342" y="434.59192" style="stroke: #000000; stroke-width: 0.8"/>
      </g>
     </g>
     <g id="text_4">
      <!-- 60 -->
      <g transform="translate(634.438342 456.788795)scale(0.2 -0.2)">
       <defs>
        <path id="DejaVuSans-36" d="M 2113 2584 
Q 1688 2584 1439 2293 
Q 1191 2003 1191 1497 
Q 1191 994 1439 701 
Q 1688 409 2113 409 
Q 2538 409 2786 701 
Q 3034 994 3034 1497 
Q 3034 2003 2786 2293 
Q 2538 2584 2113 2584 
z
M 3366 4563 
L 3366 3988 
Q 3128 4100 2886 4159 
Q 2644 4219 2406 4219 
Q 1781 4219 1451 3797 
Q 1122 3375 1075 2522 
Q 1259 2794 1537 2939 
Q 1816 3084 2150 3084 
Q 2853 3084 3261 2657 
Q 3669 2231 3669 1497 
Q 3669 778 3244 343 
Q 2819 -91 2113 -91 
Q 1303 -91 875 529 
Q 447 1150 447 2328 
Q 447 3434 972 4092 
Q 1497 4750 2381 4750 
Q 2619 4750 2861 4703 
Q 3103 4656 3366 4563 
z
" transform="scale(0.015625)"/>
       </defs>
       <use xlink:href="#DejaVuSans-36"/>
       <use xlink:href="#DejaVuSans-30" x="63.623047"/>
      </g>
     </g>
    </g>
    <g id="xtick_5">
     <g id="line2d_9">
      <path d="M 831.916199 434.59192 
L 831.916199 72.25112 
" clip-path="url(#p4bc7b73f9e)" style="fill: none; stroke: #b0b0b0; stroke-width: 0.8; stroke-linecap: square"/>
     </g>
     <g id="line2d_10">
      <g>
       <use xlink:href="#m5d600d1fce" x="831.916199" y="434.59192" style="stroke: #000000; stroke-width: 0.8"/>
      </g>
     </g>
     <g id="text_5">
      <!-- 80 -->
      <g transform="translate(819.191199 456.788795)scale(0.2 -0.2)">
       <defs>
        <path id="DejaVuSans-38" d="M 2034 2216 
Q 1584 2216 1326 1975 
Q 1069 1734 1069 1313 
Q 1069 891 1326 650 
Q 1584 409 2034 409 
Q 2484 409 2743 651 
Q 3003 894 3003 1313 
Q 3003 1734 2745 1975 
Q 2488 2216 2034 2216 
z
M 1403 2484 
Q 997 2584 770 2862 
Q 544 3141 544 3541 
Q 544 4100 942 4425 
Q 1341 4750 2034 4750 
Q 2731 4750 3128 4425 
Q 3525 4100 3525 3541 
Q 3525 3141 3298 2862 
Q 3072 2584 2669 2484 
Q 3125 2378 3379 2068 
Q 3634 1759 3634 1313 
Q 3634 634 3220 271 
Q 2806 -91 2034 -91 
Q 1263 -91 848 271 
Q 434 634 434 1313 
Q 434 1759 690 2068 
Q 947 2378 1403 2484 
z
M 1172 3481 
Q 1172 3119 1398 2916 
Q 1625 2713 2034 2713 
Q 2441 2713 2670 2916 
Q 2900 3119 2900 3481 
Q 2900 3844 2670 4047 
Q 2441 4250 2034 4250 
Q 1625 4250 1398 4047 
Q 1172 3844 1172 3481 
z
" transform="scale(0.015625)"/>
       </defs>
       <use xlink:href="#DejaVuSans-38"/>
       <use xlink:href="#DejaVuSans-30" x="63.623047"/>
      </g>
     </g>
    </g>
    <g id="xtick_6">
     <g id="line2d_11">
      <path d="M 1016.669056 434.59192 
L 1016.669056 72.25112 
" clip-path="url(#p4bc7b73f9e)" style="fill: none; stroke: #b0b0b0; stroke-width: 0.8; stroke-linecap: square"/>
     </g>
     <g id="line2d_12">
      <g>
       <use xlink:href="#m5d600d1fce" x="1016.669056" y="434.59192" style="stroke: #000000; stroke-width: 0.8"/>
      </g>
     </g>
     <g id="text_6">
      <!-- 100 -->
      <g transform="translate(997.581556 456.788795)scale(0.2 -0.2)">
       <defs>
        <path id="DejaVuSans-31" d="M 794 531 
L 1825 531 
L 1825 4091 
L 703 3866 
L 703 4441 
L 1819 4666 
L 2450 4666 
L 2450 531 
L 3481 531 
L 3481 0 
L 794 0 
L 794 531 
z
" transform="scale(0.015625)"/>
       </defs>
       <use xlink:href="#DejaVuSans-31"/>
       <use xlink:href="#DejaVuSans-30" x="63.623047"/>
       <use xlink:href="#DejaVuSans-30" x="127.246094"/>
      </g>
     </g>
    </g>
    <g id="text_7">
     <!-- Track progress [%] -->
     <g transform="translate(440.85 483.18442)scale(0.24 -0.24)">
      <defs>
       <path id="DejaVuSans-54" d="M -19 4666 
L 3928 4666 
L 3928 4134 
L 2272 4134 
L 2272 0 
L 1638 0 
L 1638 4134 
L -19 4134 
L -19 4666 
z
" transform="scale(0.015625)"/>
       <path id="DejaVuSans-72" d="M 2631 2963 
Q 2534 3019 2420 3045 
Q 2306 3072 2169 3072 
Q 1681 3072 1420 2755 
Q 1159 2438 1159 1844 
L 1159 0 
L 581 0 
L 581 3500 
L 1159 3500 
L 1159 2956 
Q 1341 3275 1631 3429 
Q 1922 3584 2338 3584 
Q 2397 3584 2469 3576 
Q 2541 3569 2628 3553 
L 2631 2963 
z
" transform="scale(0.015625)"/>
       <path id="DejaVuSans-61" d="M 2194 1759 
Q 1497 1759 1228 1600 
Q 959 1441 959 1056 
Q 959 750 1161 570 
Q 1363 391 1709 391 
Q 2188 391 2477 730 
Q 2766 1069 2766 1631 
L 2766 1759 
L 2194 1759 
z
M 3341 1997 
L 3341 0 
L 2766 0 
L 2766 531 
Q 2569 213 2275 61 
Q 1981 -91 1556 -91 
Q 1019 -91 701 211 
Q 384 513 384 1019 
Q 384 1609 779 1909 
Q 1175 2209 1959 2209 
L 2766 2209 
L 2766 2266 
Q 2766 2663 2505 2880 
Q 2244 3097 1772 3097 
Q 1472 3097 1187 3025 
Q 903 2953 641 2809 
L 641 3341 
Q 956 3463 1253 3523 
Q 1550 3584 1831 3584 
Q 2591 3584 2966 3190 
Q 3341 2797 3341 1997 
z
" transform="scale(0.015625)"/>
       <path id="DejaVuSans-63" d="M 3122 3366 
L 3122 2828 
Q 2878 2963 2633 3030 
Q 2388 3097 2138 3097 
Q 1578 3097 1268 2742 
Q 959 2388 959 1747 
Q 959 1106 1268 751 
Q 1578 397 2138 397 
Q 2388 397 2633 464 
Q 2878 531 3122 666 
L 3122 134 
Q 2881 22 2623 -34 
Q 2366 -91 2075 -91 
Q 1284 -91 818 406 
Q 353 903 353 1747 
Q 353 2603 823 3093 
Q 1294 3584 2113 3584 
Q 2378 3584 2631 3529 
Q 2884 3475 3122 3366 
z
" transform="scale(0.015625)"/>
       <path id="DejaVuSans-6b" d="M 581 4863 
L 1159 4863 
L 1159 1991 
L 2875 3500 
L 3609 3500 
L 1753 1863 
L 3688 0 
L 2938 0 
L 1159 1709 
L 1159 0 
L 581 0 
L 581 4863 
z
" transform="scale(0.015625)"/>
       <path id="DejaVuSans-20" transform="scale(0.015625)"/>
       <path id="DejaVuSans-70" d="M 1159 525 
L 1159 -1331 
L 581 -1331 
L 581 3500 
L 1159 3500 
L 1159 2969 
Q 1341 3281 1617 3432 
Q 1894 3584 2278 3584 
Q 2916 3584 3314 3078 
Q 3713 2572 3713 1747 
Q 3713 922 3314 415 
Q 2916 -91 2278 -91 
Q 1894 -91 1617 61 
Q 1341 213 1159 525 
z
M 3116 1747 
Q 3116 2381 2855 2742 
Q 2594 3103 2138 3103 
Q 1681 3103 1420 2742 
Q 1159 2381 1159 1747 
Q 1159 1113 1420 752 
Q 1681 391 2138 391 
Q 2594 391 2855 752 
Q 3116 1113 3116 1747 
z
" transform="scale(0.015625)"/>
       <path id="DejaVuSans-6f" d="M 1959 3097 
Q 1497 3097 1228 2736 
Q 959 2375 959 1747 
Q 959 1119 1226 758 
Q 1494 397 1959 397 
Q 2419 397 2687 759 
Q 2956 1122 2956 1747 
Q 2956 2369 2687 2733 
Q 2419 3097 1959 3097 
z
M 1959 3584 
Q 2709 3584 3137 3096 
Q 3566 2609 3566 1747 
Q 3566 888 3137 398 
Q 2709 -91 1959 -91 
Q 1206 -91 779 398 
Q 353 888 353 1747 
Q 353 2609 779 3096 
Q 1206 3584 1959 3584 
z
" transform="scale(0.015625)"/>
       <path id="DejaVuSans-67" d="M 2906 1791 
Q 2906 2416 2648 2759 
Q 2391 3103 1925 3103 
Q 1463 3103 1205 2759 
Q 947 2416 947 1791 
Q 947 1169 1205 825 
Q 1463 481 1925 481 
Q 2391 481 2648 825 
Q 2906 1169 2906 1791 
z
M 3481 434 
Q 3481 -459 3084 -895 
Q 2688 -1331 1869 -1331 
Q 1566 -1331 1297 -1286 
Q 1028 -1241 775 -1147 
L 775 -588 
Q 1028 -725 1275 -790 
Q 1522 -856 1778 -856 
Q 2344 -856 2625 -561 
Q 2906 -266 2906 331 
L 2906 616 
Q 2728 306 2450 153 
Q 2172 0 1784 0 
Q 1141 0 747 490 
Q 353 981 353 1791 
Q 353 2603 747 3093 
Q 1141 3584 1784 3584 
Q 2172 3584 2450 3431 
Q 2728 3278 2906 2969 
L 2906 3500 
L 3481 3500 
L 3481 434 
z
" transform="scale(0.015625)"/>
       <path id="DejaVuSans-65" d="M 3597 1894 
L 3597 1613 
L 953 1613 
Q 991 1019 1311 708 
Q 1631 397 2203 397 
Q 2534 397 2845 478 
Q 3156 559 3463 722 
L 3463 178 
Q 3153 47 2828 -22 
Q 2503 -91 2169 -91 
Q 1331 -91 842 396 
Q 353 884 353 1716 
Q 353 2575 817 3079 
Q 1281 3584 2069 3584 
Q 2775 3584 3186 3129 
Q 3597 2675 3597 1894 
z
M 3022 2063 
Q 3016 2534 2758 2815 
Q 2500 3097 2075 3097 
Q 1594 3097 1305 2825 
Q 1016 2553 972 2059 
L 3022 2063 
z
" transform="scale(0.015625)"/>
       <path id="DejaVuSans-73" d="M 2834 3397 
L 2834 2853 
Q 2591 2978 2328 3040 
Q 2066 3103 1784 3103 
Q 1356 3103 1142 2972 
Q 928 2841 928 2578 
Q 928 2378 1081 2264 
Q 1234 2150 1697 2047 
L 1894 2003 
Q 2506 1872 2764 1633 
Q 3022 1394 3022 966 
Q 3022 478 2636 193 
Q 2250 -91 1575 -91 
Q 1294 -91 989 -36 
Q 684 19 347 128 
L 347 722 
Q 666 556 975 473 
Q 1284 391 1588 391 
Q 1994 391 2212 530 
Q 2431 669 2431 922 
Q 2431 1156 2273 1281 
Q 2116 1406 1581 1522 
L 1381 1569 
Q 847 1681 609 1914 
Q 372 2147 372 2553 
Q 372 3047 722 3315 
Q 1072 3584 1716 3584 
Q 2034 3584 2315 3537 
Q 2597 3491 2834 3397 
z
" transform="scale(0.015625)"/>
       <path id="DejaVuSans-5b" d="M 550 4863 
L 1875 4863 
L 1875 4416 
L 1125 4416 
L 1125 -397 
L 1875 -397 
L 1875 -844 
L 550 -844 
L 550 4863 
z
" transform="scale(0.015625)"/>
       <path id="DejaVuSans-25" d="M 4653 2053 
Q 4381 2053 4226 1822 
Q 4072 1591 4072 1178 
Q 4072 772 4226 539 
Q 4381 306 4653 306 
Q 4919 306 5073 539 
Q 5228 772 5228 1178 
Q 5228 1588 5073 1820 
Q 4919 2053 4653 2053 
z
M 4653 2450 
Q 5147 2450 5437 2106 
Q 5728 1763 5728 1178 
Q 5728 594 5436 251 
Q 5144 -91 4653 -91 
Q 4153 -91 3862 251 
Q 3572 594 3572 1178 
Q 3572 1766 3864 2108 
Q 4156 2450 4653 2450 
z
M 1428 4353 
Q 1159 4353 1004 4120 
Q 850 3888 850 3481 
Q 850 3069 1003 2837 
Q 1156 2606 1428 2606 
Q 1700 2606 1854 2837 
Q 2009 3069 2009 3481 
Q 2009 3884 1853 4118 
Q 1697 4353 1428 4353 
z
M 4250 4750 
L 4750 4750 
L 1831 -91 
L 1331 -91 
L 4250 4750 
z
M 1428 4750 
Q 1922 4750 2215 4408 
Q 2509 4066 2509 3481 
Q 2509 2891 2217 2550 
Q 1925 2209 1428 2209 
Q 931 2209 642 2551 
Q 353 2894 353 3481 
Q 353 4063 643 4406 
Q 934 4750 1428 4750 
z
" transform="scale(0.015625)"/>
       <path id="DejaVuSans-5d" d="M 1947 4863 
L 1947 -844 
L 622 -844 
L 622 -397 
L 1369 -397 
L 1369 4416 
L 622 4416 
L 622 4863 
L 1947 4863 
z
" transform="scale(0.015625)"/>
      </defs>
      <use xlink:href="#DejaVuSans-54"/>
      <use xlink:href="#DejaVuSans-72" x="46.333984"/>
      <use xlink:href="#DejaVuSans-61" x="87.447266"/>
      <use xlink:href="#DejaVuSans-63" x="148.726562"/>
      <use xlink:href="#DejaVuSans-6b" x="203.707031"/>
      <use xlink:href="#DejaVuSans-20" x="261.617188"/>
      <use xlink:href="#DejaVuSans-70" x="293.404297"/>
      <use xlink:href="#DejaVuSans-72" x="356.880859"/>
      <use xlink:href="#DejaVuSans-6f" x="395.744141"/>
      <use xlink:href="#DejaVuSans-67" x="456.925781"/>
      <use xlink:href="#DejaVuSans-72" x="520.402344"/>
      <use xlink:href="#DejaVuSans-65" x="559.265625"/>
      <use xlink:href="#DejaVuSans-73" x="620.789062"/>
      <use xlink:href="#DejaVuSans-73" x="672.888672"/>
      <use xlink:href="#DejaVuSans-20" x="724.988281"/>
      <use xlink:href="#DejaVuSans-5b" x="756.775391"/>
      <use xlink:href="#DejaVuSans-25" x="795.789062"/>
      <use xlink:href="#DejaVuSans-5d" x="890.808594"/>
     </g>
    </g>
   </g>
   <g id="matplotlib.axis_2">
    <g id="ytick_1">
     <g id="line2d_13">
      <path d="M 46.9525 386.279813 
L 1057.9025 386.279813 
" clip-path="url(#p4bc7b73f9e)" style="fill: none; stroke: #b0b0b0; stroke-width: 0.8; stroke-linecap: square"/>
     </g>
     <g id="line2d_14">
      <defs>
       <path id="m08c4eec40c" d="M 0 0 
L -3.5 0 
" style="stroke: #000000; stroke-width: 0.8"/>
      </defs>
      <g>
       <use xlink:href="#m08c4eec40c" x="46.9525" y="386.279813" style="stroke: #000000; stroke-width: 0.8"/>
      </g>
     </g>
     <g id="text_8">
      <!-- 2 -->
      <g transform="translate(27.2275 393.878251)scale(0.2 -0.2)">
       <use xlink:href="#DejaVuSans-32"/>
      </g>
     </g>
    </g>
    <g id="ytick_2">
     <g id="line2d_15">
      <path d="M 46.9525 289.6556 
L 1057.9025 289.6556 
" clip-path="url(#p4bc7b73f9e)" style="fill: none; stroke: #b0b0b0; stroke-width: 0.8; stroke-linecap: square"/>
     </g>
     <g id="line2d_16">
      <g>
       <use xlink:href="#m08c4eec40c" x="46.9525" y="289.6556" style="stroke: #000000; stroke-width: 0.8"/>
      </g>
     </g>
     <g id="text_9">
      <!-- 4 -->
      <g transform="translate(27.2275 297.254037)scale(0.2 -0.2)">
       <use xlink:href="#DejaVuSans-34"/>
      </g>
     </g>
    </g>
    <g id="ytick_3">
     <g id="line2d_17">
      <path d="M 46.9525 193.031387 
L 1057.9025 193.031387 
" clip-path="url(#p4bc7b73f9e)" style="fill: none; stroke: #b0b0b0; stroke-width: 0.8; stroke-linecap: square"/>
     </g>
     <g id="line2d_18">
      <g>
       <use xlink:href="#m08c4eec40c" x="46.9525" y="193.031387" style="stroke: #000000; stroke-width: 0.8"/>
      </g>
     </g>
     <g id="text_10">
      <!-- 6 -->
      <g transform="translate(27.2275 200.629824)scale(0.2 -0.2)">
       <use xlink:href="#DejaVuSans-36"/>
      </g>
     </g>
    </g>
    <g id="ytick_4">
     <g id="line2d_19">
      <path d="M 46.9525 96.407173 
L 1057.9025 96.407173 
" clip-path="url(#p4bc7b73f9e)" style="fill: none; stroke: #b0b0b0; stroke-width: 0.8; stroke-linecap: square"/>
     </g>
     <g id="line2d_20">
      <g>
       <use xlink:href="#m08c4eec40c" x="46.9525" y="96.407173" style="stroke: #000000; stroke-width: 0.8"/>
      </g>
     </g>
     <g id="text_11">
      <!-- 8 -->
      <g transform="translate(27.2275 104.005611)scale(0.2 -0.2)">
       <use xlink:href="#DejaVuSans-38"/>
      </g>
     </g>
    </g>
    <g id="text_12">
     <!-- Speed [m/s] -->
     <g transform="translate(18.23625 326.203395)rotate(-90)scale(0.24 -0.24)">
      <defs>
       <path id="DejaVuSans-53" d="M 3425 4513 
L 3425 3897 
Q 3066 4069 2747 4153 
Q 2428 4238 2131 4238 
Q 1616 4238 1336 4038 
Q 1056 3838 1056 3469 
Q 1056 3159 1242 3001 
Q 1428 2844 1947 2747 
L 2328 2669 
Q 3034 2534 3370 2195 
Q 3706 1856 3706 1288 
Q 3706 609 3251 259 
Q 2797 -91 1919 -91 
Q 1588 -91 1214 -16 
Q 841 59 441 206 
L 441 856 
Q 825 641 1194 531 
Q 1563 422 1919 422 
Q 2459 422 2753 634 
Q 3047 847 3047 1241 
Q 3047 1584 2836 1778 
Q 2625 1972 2144 2069 
L 1759 2144 
Q 1053 2284 737 2584 
Q 422 2884 422 3419 
Q 422 4038 858 4394 
Q 1294 4750 2059 4750 
Q 2388 4750 2728 4690 
Q 3069 4631 3425 4513 
z
" transform="scale(0.015625)"/>
       <path id="DejaVuSans-64" d="M 2906 2969 
L 2906 4863 
L 3481 4863 
L 3481 0 
L 2906 0 
L 2906 525 
Q 2725 213 2448 61 
Q 2172 -91 1784 -91 
Q 1150 -91 751 415 
Q 353 922 353 1747 
Q 353 2572 751 3078 
Q 1150 3584 1784 3584 
Q 2172 3584 2448 3432 
Q 2725 3281 2906 2969 
z
M 947 1747 
Q 947 1113 1208 752 
Q 1469 391 1925 391 
Q 2381 391 2643 752 
Q 2906 1113 2906 1747 
Q 2906 2381 2643 2742 
Q 2381 3103 1925 3103 
Q 1469 3103 1208 2742 
Q 947 2381 947 1747 
z
" transform="scale(0.015625)"/>
       <path id="DejaVuSans-6d" d="M 3328 2828 
Q 3544 3216 3844 3400 
Q 4144 3584 4550 3584 
Q 5097 3584 5394 3201 
Q 5691 2819 5691 2113 
L 5691 0 
L 5113 0 
L 5113 2094 
Q 5113 2597 4934 2840 
Q 4756 3084 4391 3084 
Q 3944 3084 3684 2787 
Q 3425 2491 3425 1978 
L 3425 0 
L 2847 0 
L 2847 2094 
Q 2847 2600 2669 2842 
Q 2491 3084 2119 3084 
Q 1678 3084 1418 2786 
Q 1159 2488 1159 1978 
L 1159 0 
L 581 0 
L 581 3500 
L 1159 3500 
L 1159 2956 
Q 1356 3278 1631 3431 
Q 1906 3584 2284 3584 
Q 2666 3584 2933 3390 
Q 3200 3197 3328 2828 
z
" transform="scale(0.015625)"/>
       <path id="DejaVuSans-2f" d="M 1625 4666 
L 2156 4666 
L 531 -594 
L 0 -594 
L 1625 4666 
z
" transform="scale(0.015625)"/>
      </defs>
      <use xlink:href="#DejaVuSans-53"/>
      <use xlink:href="#DejaVuSans-70" x="63.476562"/>
      <use xlink:href="#DejaVuSans-65" x="126.953125"/>
      <use xlink:href="#DejaVuSans-65" x="188.476562"/>
      <use xlink:href="#DejaVuSans-64" x="250"/>
      <use xlink:href="#DejaVuSans-20" x="313.476562"/>
      <use xlink:href="#DejaVuSans-5b" x="345.263672"/>
      <use xlink:href="#DejaVuSans-6d" x="384.277344"/>
      <use xlink:href="#DejaVuSans-2f" x="481.689453"/>
      <use xlink:href="#DejaVuSans-73" x="515.380859"/>
      <use xlink:href="#DejaVuSans-5d" x="567.480469"/>
     </g>
    </g>
   </g>
   <g id="line2d_21">
    <path d="M 92.904773 482.904027 
L 92.904773 437.892982 
L 93.226511 426.406779 
L 93.226511 414.920576 
L 93.548249 403.434372 
L 93.548249 391.948169 
L 93.869988 380.461965 
L 94.352595 368.975762 
L 95.049695 346.003355 
L 95.800417 334.517152 
L 96.443894 311.544745 
L 97.24824 300.058542 
L 97.623601 288.572339 
L 98.803308 265.743826 
L 99.125047 255.733326 
L 100.143884 247.425547 
L 100.626492 239.413718 
L 101.591707 232.713631 
L 102.074314 227.265848 
L 103.093152 222.734947 
L 103.57576 218.465042 
L 105.023582 214.426683 
L 105.023582 210.02583 
L 106.525027 206.197803 
L 107.222127 202.514538 
L 107.651111 198.926628 
L 109.152557 195.710978 
L 109.152557 193.486325 
L 111.780086 190.813615 
L 112.423563 189.671892 
L 112.90617 188.190854 
L 114.407616 186.215401 
L 115.051092 184.305388 
L 115.5337 181.985496 
L 117.839491 176.999486 
L 118.965575 176.370402 
L 119.662675 176.955308 
L 120.145282 188.441511 
L 121.593104 199.927715 
L 121.593104 211.413918 
L 122.719189 222.900122 
L 123.898896 227.233899 
L 125.02498 223.816235 
L 125.02498 217.266799 
L 126.151064 210.146302 
L 127.330771 204.772538 
L 127.330771 199.712858 
L 128.456855 196.509804 
L 129.582939 191.844346 
L 129.582939 188.314708 
L 131.084384 187.199059 
L 132.210468 187.109079 
L 133.390176 197.627467 
L 133.390176 209.113671 
L 134.51626 218.847379 
L 135.642344 229.636478 
L 135.642344 234.770035 
L 136.822051 239.015038 
L 137.948135 241.783931 
L 137.948135 238.407824 
L 139.074219 231.997292 
L 140.253926 224.305991 
L 140.253926 218.096117 
L 141.38001 211.711215 
L 142.506094 206.873191 
L 142.506094 203.82125 
L 144.007539 200.472083 
L 145.133623 196.999577 
L 145.133623 195.818551 
L 146.313331 194.331658 
L 147.439415 191.109971 
L 148.565499 188.757508 
L 148.565499 186.852508 
L 149.745206 191.8573 
L 150.87129 195.07494 
L 151.997374 194.322023 
L 151.997374 205.808226 
L 154.303165 228.780633 
L 154.303165 238.468477 
L 155.429249 239.236445 
L 156.608956 250.722648 
L 156.608956 262.208852 
L 157.73504 273.695055 
L 157.73504 285.181258 
L 158.861124 277.501685 
L 158.861124 276.191568 
L 160.040831 275.984991 
L 160.040831 270.864474 
L 161.488654 268.259046 
L 162.292999 267.178694 
L 162.775607 265.096944 
L 163.955314 258.486626 
L 164.384298 249.894549 
L 164.384298 244.717236 
L 167.92342 242.421454 
L 168.727765 253.907657 
L 169.049504 265.393861 
L 170.711818 276.880064 
L 170.711818 272.299382 
L 172.481379 260.813179 
L 172.481379 237.841235 
L 174.626301 228.195223 
L 174.626301 209.66415 
L 176.824846 200.178647 
L 176.824846 211.654229 
L 180.095852 223.140432 
L 180.095852 218.962453 
L 180.095852 230.290968 
L 181.436428 253.263375 
L 182.079905 260.870143 
L 183.098743 269.765269 
L 183.58135 281.251473 
L 183.58135 292.737676 
L 184.27845 292.217293 
L 184.600188 295.407621 
L 185.243665 306.893825 
L 185.940765 295.104092 
L 186.74511 287.292915 
L 187.066849 275.829392 
L 188.246556 266.278438 
L 188.890032 249.501082 
L 190.016116 241.472495 
L 190.391478 235.617805 
L 191.517562 233.22681 
L 191.8393 230.830283 
L 192.643646 226.529213 
L 193.447992 222.901314 
L 194.627699 219.999382 
L 194.949437 217.112819 
L 195.753783 212.937668 
L 196.558128 211.188104 
L 197.684212 211.178441 
L 198.542181 210.160181 
L 199.185658 213.354413 
L 199.990004 214.05298 
L 200.794349 215.646819 
L 201.598695 216.051931 
L 202.403041 214.629361 
L 203.207387 219.04035 
L 204.065355 218.582525 
L 204.869701 221.021423 
L 205.674047 219.183709 
L 206.478393 218.86271 
L 207.926215 215.43696 
L 210.392875 205.882744 
L 211.197221 202.947173 
L 212.001567 201.75177 
L 213.28852 200.694777 
L 213.771128 199.471556 
L 214.575473 198.448968 
L 216.184165 195.605681 
L 217.792856 191.490187 
L 218.597202 190.482695 
L 219.884155 188.500352 
L 220.366763 186.439657 
L 221.975454 184.243074 
L 221.975454 182.727953 
L 222.7798 181.139278 
L 224.066753 180.291131 
L 224.871099 178.562516 
L 226.158052 176.171167 
L 226.64066 173.515989 
L 227.927613 170.323499 
L 228.41022 167.591477 
L 229.697173 163.989063 
L 232.378326 158.04053 
L 232.378326 156.534862 
L 235.113101 153.303807 
L 236.024693 152.68064 
L 236.989908 154.889274 
L 236.989908 157.91602 
L 238.759469 169.402223 
L 240.636276 192.355318 
L 241.60149 199.948023 
L 242.084098 210.674617 
L 242.99569 208.417542 
L 243.478297 204.295745 
L 244.443512 201.129578 
L 245.355104 195.034153 
L 245.837711 188.857908 
L 246.802926 184.327819 
L 247.768141 181.838373 
L 249.484079 179.286692 
L 249.484079 177.12285 
L 250.449294 175.446248 
L 251.414509 173.494214 
L 251.897116 171.401126 
L 252.808708 169.393721 
L 255.060876 168.546552 
L 255.060876 167.504087 
L 255.543483 166.741677 
L 256.455075 166.617134 
L 257.42029 166.21732 
L 259.189851 169.559722 
L 259.189851 172.88243 
L 260.155066 178.062539 
L 262.031873 181.257388 
L 262.353611 179.09991 
L 262.836218 177.09556 
L 264.713025 177.887658 
L 265.088386 179.970359 
L 265.088386 179.582339 
L 265.999978 178.868318 
L 267.769539 177.785455 
L 267.769539 173.980245 
L 268.734754 177.058946 
L 270.450691 174.994846 
L 270.450691 181.617286 
L 272.702859 180.250429 
L 272.702859 179.487196 
L 273.185467 176.536364 
L 274.955028 181.352554 
L 274.955028 180.681173 
L 276.831834 180.046749 
L 277.153573 179.528397 
L 277.63618 178.200994 
L 279.405741 177.52422 
L 279.405741 175.307542 
L 281.282547 173.399934 
L 281.604286 171.740921 
L 283.052108 169.691214 
L 283.373846 166.93869 
L 283.856454 166.763177 
L 285.143407 165.591122 
L 285.626015 165.334552 
L 286.591229 164.02143 
L 287.502821 164.345708 
L 287.985429 167.391668 
L 288.950644 169.116786 
L 289.754989 173.511996 
L 291.041943 177.559551 
L 291.846288 177.21594 
L 292.489765 175.073819 
L 293.669472 175.827825 
L 294.795556 181.918899 
L 295.492656 186.745851 
L 296.136132 185.678134 
L 297.262216 184.483783 
L 297.959316 183.182749 
L 299.0854 182.262386 
L 299.7825 191.251149 
L 300.425976 202.737352 
L 301.123076 203.692831 
L 302.088291 199.97294 
L 302.785391 196.768365 
L 303.428867 196.659983 
L 304.447705 204.755242 
L 304.447705 203.356393 
L 305.949151 202.932321 
L 306.967988 202.221052 
L 307.611465 201.533167 
L 307.933203 199.135261 
L 310.453487 195.494815 
L 311.901309 194.247447 
L 311.901309 193.093964 
L 313.081016 192.253301 
L 314.528839 190.419653 
L 314.528839 189.053298 
L 315.654923 188.407013 
L 316.83463 188.0483 
L 316.83463 196.292591 
L 318.282452 202.491884 
L 318.657813 210.574782 
L 319.462159 212.356304 
L 320.266505 210.706241 
L 321.392589 208.063087 
L 322.572296 204.78527 
L 322.572296 200.564275 
L 323.69838 195.957854 
L 326.004171 188.237152 
L 326.004171 185.0607 
L 327.451994 182.48553 
L 328.953439 182.139052 
L 328.953439 185.210323 
L 330.401261 189.591818 
L 330.401261 189.199884 
L 331.902707 187.998064 
L 333.350529 184.535505 
L 333.350529 180.499249 
L 335.173713 176.476399 
L 335.173713 172.840279 
L 336.996896 169.99372 
L 336.996896 167.762111 
L 338.82008 166.495028 
L 338.82008 167.503815 
L 340.643264 171.260529 
L 340.643264 171.821629 
L 342.788186 170.279263 
L 342.788186 167.653722 
L 344.61137 164.830429 
L 344.61137 162.166385 
L 346.434553 159.592212 
L 346.434553 157.780532 
L 348.204114 156.39707 
L 348.204114 155.478712 
L 350.027298 155.391824 
L 350.027298 157.659112 
L 352.17222 162.942051 
L 352.17222 164.315554 
L 353.995403 163.107812 
L 353.995403 160.931764 
L 355.818587 158.752302 
L 355.818587 156.345886 
L 357.641771 154.286257 
L 357.641771 152.469464 
L 359.464954 150.925161 
L 359.464954 149.472567 
L 361.609876 148.350099 
L 361.609876 147.353423 
L 363.43306 146.646301 
L 363.43306 146.002956 
L 365.202621 145.769613 
L 367.025805 145.08764 
L 367.025805 144.943968 
L 368.848988 144.396861 
L 368.848988 143.988557 
L 370.672172 143.700164 
L 370.672172 144.335907 
L 372.817094 147.077686 
L 372.817094 152.793004 
L 374.640278 163.940744 
L 374.640278 175.028827 
L 376.463461 178.521831 
L 376.463461 179.35401 
L 378.286645 176.610871 
L 378.286645 172.841157 
L 380.056206 169.113136 
L 380.056206 165.816994 
L 382.254751 162.435455 
L 382.254751 159.543077 
L 384.024311 156.931578 
L 384.024311 154.928054 
L 385.847495 152.692537 
L 385.847495 150.78439 
L 387.670679 148.968216 
L 387.670679 147.392133 
L 389.493862 146.266989 
L 389.493862 144.78491 
L 391.638784 143.810276 
L 391.638784 142.698602 
L 393.461968 142.178431 
L 393.461968 141.552202 
L 395.285152 141.351518 
L 395.285152 141.202654 
L 397.054713 141.170545 
L 398.877896 141.315234 
L 400.70108 141.54176 
L 400.70108 141.44774 
L 402.846002 141.997473 
L 402.846002 142.659374 
L 404.669186 144.198282 
L 404.669186 146.000801 
L 406.492369 149.501298 
L 406.492369 151.411541 
L 408.315553 151.312393 
L 410.138737 154.578367 
L 410.138737 158.035854 
L 412.283659 169.522058 
L 412.283659 181.008261 
L 414.106842 192.494464 
L 414.106842 196.215209 
L 415.876403 195.86785 
L 415.876403 206.271353 
L 417.699587 217.757556 
L 417.699587 204.862016 
L 419.52277 197.840105 
L 419.52277 192.735974 
L 421.667692 187.838974 
L 421.667692 184.173773 
L 423.490876 180.993134 
L 423.490876 178.246053 
L 425.31406 175.490722 
L 425.31406 173.530861 
L 427.137244 171.841658 
L 428.906804 171.010015 
L 428.906804 170.689864 
L 430.729988 170.531997 
L 430.729988 174.798265 
L 432.87491 174.462729 
L 432.87491 179.869965 
L 432.87491 179.230435 
L 434.698094 182.65471 
L 434.698094 185.646381 
L 436.521277 195.58837 
L 436.521277 204.221159 
L 438.344461 215.707363 
L 438.344461 227.193566 
L 440.167645 236.14012 
L 440.167645 249.491937 
L 442.312567 249.042807 
L 442.312567 248.707394 
L 442.312567 256.207962 
L 444.13575 255.966807 
L 444.13575 260.510738 
L 444.13575 256.691684 
L 446.602411 253.658744 
L 447.29951 250.209602 
L 447.942987 248.303023 
L 447.942987 264.821117 
L 449.766171 276.30732 
L 450.409647 287.793523 
L 452.554569 299.279727 
L 452.554569 311.267151 
L 454.753114 321.549719 
L 454.753114 344.522126 
L 454.753114 344.456856 
L 456.200937 332.970653 
L 456.200937 313.90265 
L 459.471943 308.282123 
L 461.670488 305.208442 
L 462.796572 304.005034 
L 462.796572 299.777757 
L 463.976279 288.291554 
L 463.976279 295.703652 
L 465.102363 307.189855 
L 465.102363 306.524771 
L 466.925547 307.599163 
L 467.247285 319.085366 
L 467.247285 339.842963 
L 467.247285 337.205301 
L 467.569023 333.518713 
L 469.070469 328.982429 
L 469.392207 321.750018 
L 470.089307 298.921128 
L 470.089307 288.38785 
L 471.215391 278.896351 
L 473.896543 248.310039 
L 473.896543 239.651049 
L 475.397989 232.445829 
L 476.738565 218.665804 
L 477.382041 212.443407 
L 478.079141 206.783025 
L 479.044356 201.995958 
L 480.384932 194.134532 
L 481.40377 190.845131 
L 482.10087 188.013775 
L 483.763184 184.88556 
L 484.782022 184.757681 
L 485.425499 186.191929 
L 487.087814 185.899767 
L 488.803751 182.325103 
L 489.447228 180.254081 
L 490.466066 178.403968 
L 491.109542 176.551227 
L 492.12838 174.986106 
L 493.951564 174.148363 
L 493.951564 180.782153 
L 494.648664 192.268356 
L 495.613878 203.754559 
L 496.310978 215.240763 
L 496.954455 219.223116 
L 497.651554 216.944076 
L 498.295031 210.920226 
L 499.313869 205.454456 
L 500.010969 199.405928 
L 502.477629 194.128427 
L 502.477629 187.012338 
L 503.496467 189.807121 
L 506.177619 235.751935 
L 506.821096 235.216203 
L 507.518196 245.593882 
L 508.161672 242.119817 
L 508.858772 234.151618 
L 511.003694 225.155884 
L 511.003694 218.729386 
L 511.325432 211.782544 
L 512.666008 199.761513 
L 513.684846 195.237594 
L 514.328323 191.519698 
L 516.044261 185.14319 
L 516.687737 183.684438 
L 519.529759 181.37381 
L 519.529759 178.421826 
L 520.173235 181.37818 
L 521.192073 179.265292 
L 521.83555 178.236233 
L 522.854388 177.882043 
L 523.551488 176.545281 
L 524.516702 185.102845 
L 525.213802 187.151407 
L 528.002201 198.63761 
L 528.002201 221.610017 
L 528.6993 231.20318 
L 529.342777 242.056537 
L 529.718138 250.554233 
L 530.361615 257.887794 
L 531.058715 269.373998 
L 533.525375 280.860201 
L 533.525375 303.832608 
L 533.525375 295.648015 
L 533.847113 284.848188 
L 535.670297 273.386037 
L 535.670297 265.449091 
L 536.367397 259.292597 
L 538.136957 255.921868 
L 538.136957 278.894275 
L 539.960141 275.402505 
L 541.139848 265.429379 
L 541.461586 259.963781 
L 541.944194 255.200663 
L 544.035493 249.01677 
L 545.75143 243.182053 
L 545.75143 239.907731 
L 547.896352 243.615554 
L 547.896352 255.101758 
L 548.218091 249.02935 
L 549.505044 243.949921 
L 549.826782 252.557526 
L 550.631128 261.18894 
L 550.952866 269.758208 
L 551.757212 275.60998 
L 552.132573 274.278353 
L 553.258657 271.446384 
L 553.258657 266.321149 
L 554.760103 252.540334 
L 556.368794 242.365252 
L 557.012271 234.887025 
L 557.494878 246.373229 
L 558.996324 269.345635 
L 559.6398 265.715261 
L 560.122408 259.37482 
L 560.765884 254.454512 
L 561.623853 248.883935 
L 563.071675 245.241816 
L 563.393414 239.806091 
L 564.573121 239.85246 
L 564.894859 237.248292 
L 565.699205 232.494332 
L 566.825289 227.563362 
L 566.825289 222.667423 
L 568.326734 217.760646 
L 568.326734 213.002319 
L 569.452818 208.285218 
L 570.954264 203.69178 
L 570.954264 199.743146 
L 572.080348 195.765222 
L 573.260055 193.145883 
L 573.581793 191.931966 
L 574.707877 191.662241 
L 575.887584 191.239301 
L 577.335407 190.400884 
L 578.461491 189.151211 
L 578.461491 187.179882 
L 579.641198 184.702155 
L 581.08902 182.414912 
L 581.08902 180.331334 
L 582.268727 178.862128 
L 583.71655 177.894655 
L 583.71655 178.999407 
L 584.896257 178.994985 
L 586.344079 178.837194 
L 586.71944 178.039118 
L 588.64987 174.754091 
L 590.151316 172.957967 
L 590.151316 170.66924 
L 591.2774 168.8651 
L 592.725222 167.962517 
L 593.904929 171.215298 
L 593.904929 179.756734 
L 595.031013 189.626734 
L 596.532459 190.805699 
L 596.532459 190.605399 
L 597.658543 189.094047 
L 599.159988 186.210577 
L 599.159988 182.996589 
L 600.286072 179.360194 
L 601.787518 175.730293 
L 601.787518 172.840758 
L 602.913602 170.283838 
L 604.039686 168.600429 
L 605.541131 168.28218 
L 605.541131 174.7814 
L 606.667215 179.956688 
L 608.168661 182.222688 
L 608.168661 179.800721 
L 610.420829 172.895044 
L 611.922274 169.403432 
L 611.922274 166.108925 
L 613.048358 162.863648 
L 615.675888 158.268321 
L 615.675888 156.543055 
L 616.855595 154.846521 
L 619.483124 152.224489 
L 620.930946 151.209078 
L 620.930946 150.314768 
L 622.110654 149.515996 
L 624.68456 148.285053 
L 624.68456 149.362583 
L 625.864267 151.847639 
L 627.312089 156.814034 
L 628.491796 167.02169 
L 629.939619 178.507894 
L 629.939619 186.453801 
L 631.119326 189.530098 
L 631.119326 187.089618 
L 632.24541 184.372952 
L 633.746855 180.062231 
L 634.872939 175.723757 
L 636.320762 171.735872 
L 636.320762 168.469085 
L 637.500469 165.520968 
L 638.626553 163.397027 
L 640.127998 162.469352 
L 640.127998 161.220377 
L 641.254082 160.410523 
L 642.755528 159.922818 
L 642.755528 159.602617 
L 645.383057 159.525474 
L 645.383057 158.777955 
L 646.509141 159.098989 
L 647.635225 166.605001 
L 649.136671 177.733169 
L 649.136671 185.11725 
L 650.262755 188.488338 
L 651.7642 188.131469 
L 651.7642 195.137503 
L 652.890284 194.837551 
L 654.016368 190.351699 
L 655.517814 185.356631 
L 655.517814 179.889019 
L 656.643898 174.816358 
L 658.145343 170.45108 
L 658.145343 167.232882 
L 659.271427 164.691187 
L 660.451134 162.978264 
L 661.898957 162.091913 
L 661.898957 161.711184 
L 663.078664 165.886933 
L 664.526486 173.15976 
L 664.526486 181.350557 
L 665.706193 185.224421 
L 667.154016 186.720454 
L 668.2801 190.648892 
L 668.2801 192.239012 
L 669.459807 190.67722 
L 670.907629 187.478561 
L 670.907629 183.860926 
L 673.21342 178.196422 
L 673.535159 175.742611 
L 675.14385 173.999906 
L 676.323557 172.495862 
L 676.323557 171.339417 
L 677.449641 170.28727 
L 678.253987 169.364672 
L 679.433694 169.022628 
L 680.23804 168.981789 
L 681.042386 168.574071 
L 682.329339 167.4053 
L 683.133684 166.014986 
L 683.455423 165.098293 
L 685.224983 164.215038 
L 686.029329 163.524074 
L 686.351067 163.810679 
L 687.638021 167.003113 
L 688.442366 168.438061 
L 689.72932 169.493918 
L 691.49888 172.746056 
L 691.820619 174.873465 
L 693.107572 175.416298 
L 694.555394 178.648895 
L 694.877132 183.71624 
L 696.164086 190.726925 
L 697.075677 201.75721 
L 697.451039 211.465535 
L 697.880023 219.296238 
L 699.166976 227.052718 
L 699.166976 228.292946 
L 700.614799 225.418528 
L 700.936537 220.010813 
L 702.22349 213.972651 
L 702.22349 208.675208 
L 703.993051 203.969805 
L 703.993051 199.69303 
L 705.38725 196.120495 
L 705.762612 193.173146 
L 707.156811 189.848634 
L 707.478549 187.385289 
L 707.961157 185.09189 
L 709.730717 182.804677 
L 709.730717 180.60825 
L 711.500278 178.380306 
L 711.500278 176.257247 
L 713.269839 174.60307 
L 713.269839 173.620074 
L 715.146645 172.728923 
L 715.468384 172.247458 
L 715.950991 171.805617 
L 717.720552 171.234442 
L 717.720552 170.33524 
L 719.597358 169.433712 
L 720.401704 166.23713 
L 722.171265 164.792244 
L 722.171265 163.402247 
L 724.423433 162.481446 
L 724.852417 164.532045 
L 727.104585 172.464274 
L 727.104585 179.487244 
L 727.587193 184.513724 
L 729.785738 186.107588 
L 729.785738 185.397799 
L 730.268345 183.652573 
L 732.198775 180.788138 
L 732.520514 177.75852 
L 733.003121 174.85609 
L 733.914713 172.521774 
L 735.684273 170.437736 
L 735.684273 169.434206 
L 736.166881 176.696927 
L 737.132096 182.132361 
L 739.330641 183.634918 
L 739.330641 182.550023 
L 739.813248 179.602073 
L 740.778463 175.070746 
L 741.743678 171.760189 
L 743.459616 169.021201 
L 743.459616 166.842955 
L 744.424831 164.653343 
L 744.907438 162.121737 
L 747.588591 159.613587 
L 748.553806 182.585994 
L 750.430612 205.558401 
L 752.200173 212.142179 
L 752.200173 217.157451 
L 752.68278 228.463247 
L 753.165388 227.521572 
L 754.07698 219.034115 
L 754.559587 210.694676 
L 756.919001 204.117689 
L 757.294363 198.984413 
L 757.294363 195.080835 
L 758.205955 192.069855 
L 758.688562 188.927938 
L 759.653777 187.168366 
L 761.852322 186.841013 
L 761.852322 186.063491 
L 762.817537 196.521687 
L 764.747967 218.299679 
L 765.176951 229.23041 
L 766.946512 240.716613 
L 766.946512 239.853424 
L 767.429119 238.437641 
L 767.911727 235.306627 
L 768.823318 232.251561 
L 769.305926 228.310257 
L 770.271141 226.643258 
L 772.147948 225.668293 
L 772.523309 234.404004 
L 772.523309 245.73277 
L 772.952293 246.204655 
L 773.434901 250.116046 
L 774.400116 247.341077 
L 774.882723 244.658767 
L 775.794315 250.62297 
L 776.276922 262.109174 
L 778.046483 265.429199 
L 778.046483 272.783661 
L 778.046483 270.735449 
L 779.92329 266.306289 
L 780.781259 259.850023 
L 781.585604 271.336226 
L 783.355165 265.261809 
L 783.355165 259.741885 
L 785.178349 259.071533 
L 785.178349 255.897568 
L 787.323271 249.089221 
L 787.323271 241.840098 
L 789.629062 231.282215 
L 791.773984 227.618846 
L 791.773984 219.762043 
L 791.773984 229.051135 
L 793.918906 240.537338 
L 793.918906 252.023541 
L 795.420351 263.509745 
L 795.420351 274.995948 
L 796.546435 263.509745 
L 798.637734 252.535459 
L 799.120342 245.972848 
L 800.085557 243.837107 
L 801.479756 235.475813 
L 802.444971 228.389403 
L 802.927578 220.055815 
L 803.83917 212.288975 
L 804.321778 206.172911 
L 805.286992 201.006093 
L 805.7696 196.468029 
L 806.681192 194.184564 
L 807.163799 192.461962 
L 808.129014 189.924001 
L 809.094229 187.916313 
L 810.005821 185.271731 
L 810.810167 182.324556 
L 811.775381 180.564447 
L 812.579727 181.29893 
L 813.384073 180.259349 
L 814.188419 180.605759 
L 815.153634 182.53026 
L 817.084063 190.75926 
L 818.049278 191.516321 
L 819.550724 203.733219 
L 820.355069 212.51951 
L 821.159415 212.061985 
L 821.963761 211.959681 
L 822.768107 217.273048 
L 823.894191 228.759252 
L 824.269552 239.009231 
L 825.073898 246.702168 
L 825.878244 245.023819 
L 827.004328 253.03438 
L 828.184035 251.60634 
L 828.505773 258.056141 
L 829.310119 259.604891 
L 830.114465 259.356375 
L 830.757941 259.295205 
L 831.133303 265.535584 
L 831.937648 262.847869 
L 832.581125 262.438241 
L 833.063732 260.037191 
L 834.08257 267.65916 
L 834.565178 266.66137 
L 834.886916 265.002864 
L 835.905754 266.330006 
L 837.514446 264.848396 
L 837.514446 261.045013 
L 838.533283 258.403149 
L 838.962268 255.986096 
L 838.962268 267.472299 
L 840.785452 278.958502 
L 840.785452 285.273299 
L 841.965159 292.233577 
L 842.286897 302.622288 
L 842.769504 313.718942 
L 842.769504 322.932612 
L 843.895588 329.451287 
L 843.895588 361.076686 
L 845.397034 360.819368 
L 845.718772 372.305571 
L 846.20138 366.806608 
L 847.488333 356.517602 
L 848.399925 334.799762 
L 851.295569 323.313559 
L 851.295569 307.265365 
L 852.797015 305.937627 
L 852.797015 303.045752 
L 854.620198 297.926868 
L 854.620198 280.621393 
L 854.620198 292.107596 
L 857.086859 303.593799 
L 857.408597 299.041992 
L 859.607142 298.880328 
L 859.607142 333.338938 
L 859.92888 344.451908 
L 862.073802 335.786316 
L 862.073802 316.511594 
L 862.395541 305.025391 
L 864.218724 293.539187 
L 864.218724 283.725196 
L 865.344808 274.804739 
L 865.344808 267.472071 
L 866.524516 259.258547 
L 866.524516 250.149788 
L 868.454945 244.106925 
L 869.152045 236.923558 
L 869.581029 229.773642 
L 870.760737 222.873534 
L 871.404213 216.505285 
L 872.208559 210.597017 
L 873.012905 205.680258 
L 873.495512 200.92511 
L 874.996957 197.444306 
L 876.605649 191.251379 
L 877.409995 189.471188 
L 878.21434 187.03517 
L 879.501294 184.526063 
L 880.305639 182.668358 
L 881.914331 179.750907 
L 882.7723 178.877155 
L 884.863599 177.430342 
L 885.667944 177.413955 
L 886.47229 175.32242 
L 887.276636 174.24432 
L 889.367935 182.289708 
L 890.172281 184.196982 
L 890.976626 187.377623 
L 892.585318 186.218995 
L 893.872271 185.708696 
L 894.676617 185.040604 
L 895.480963 185.253077 
L 896.285308 184.600105 
L 897.089654 184.259713 
L 898.859215 185.045094 
L 899.66356 189.246651 
L 901.272252 187.106687 
L 901.754859 188.153283 
L 903.417174 202.659527 
L 904.22152 207.163199 
L 905.025866 214.835909 
L 907.117164 221.947753 
L 907.599772 222.992066 
L 907.92151 222.816001 
L 909.208463 219.405985 
L 909.691071 218.83973 
L 910.495417 222.367351 
L 911.299762 224.294653 
L 911.78237 229.005695 
L 912.586716 230.510818 
L 913.391061 231.003101 
L 914.195407 232.800579 
L 914.678015 232.792077 
L 914.999753 235.667524 
L 916.125837 239.862277 
L 916.501198 246.140171 
L 917.627282 245.068614 
L 917.949021 244.386806 
L 920.093943 224.576169 
L 921.702634 220.940265 
L 921.702634 230.079129 
L 922.399734 239.995317 
L 923.847556 236.605029 
L 923.847556 246.842322 
L 925.188132 250.025607 
L 925.67074 245.709889 
L 926.850447 236.4883 
L 926.850447 227.416807 
L 928.941746 220.134511 
L 929.37073 214.280651 
L 932.319998 203.606885 
L 932.319998 199.419091 
L 932.641736 194.317543 
L 934.572166 197.109121 
L 934.947527 205.007729 
L 936.717088 206.455293 
L 936.717088 217.941497 
L 938.86201 234.738501 
L 939.55911 235.421972 
L 939.55911 246.908175 
L 940.685194 242.082828 
L 941.060555 241.573307 
L 942.186639 238.061911 
L 942.830116 233.561346 
L 943.527215 237.26193 
L 944.975038 231.200295 
L 945.672137 228.874875 
L 946.315614 227.723852 
L 946.690975 224.587724 
L 947.817059 225.815462 
L 948.138798 233.234096 
L 949.961981 232.367447 
L 951.088065 236.654269 
L 951.088065 238.18335 
L 952.428642 238.129267 
L 952.911249 237.559658 
L 954.090956 237.572937 
L 954.895302 237.768494 
L 955.699648 249.146849 
L 956.021386 246.992472 
L 956.825732 253.563912 
L 957.630078 250.583479 
L 958.112685 250.42169 
L 958.917031 251.680794 
L 959.721377 249.474626 
L 960.203984 252.514632 
L 961.00833 264.000836 
L 961.490937 259.32345 
L 963.260498 254.650049 
L 963.743105 266.136253 
L 964.17209 264.790041 
L 965.137305 262.918269 
L 965.619912 272.173937 
L 966.102519 272.03777 
L 966.585127 269.806432 
L 967.496719 281.292635 
L 968.461934 270.136613 
L 970.33874 265.265892 
L 970.714102 261.852645 
L 972.001055 260.467146 
L 972.430039 271.95335 
L 972.805401 269.75252 
L 972.805401 266.820991 
L 974.521338 264.619758 
L 974.8967 275.555563 
L 977.953214 268.852204 
L 977.953214 264.153665 
L 977.953214 273.249749 
L 979.454659 277.341855 
L 979.454659 273.033628 
L 980.956104 265.693616 
L 980.956104 258.487736 
L 983.101026 251.545132 
L 983.422765 245.308085 
L 983.422765 240.269606 
L 985.889425 234.795567 
L 986.586525 232.609438 
L 986.586525 220.157281 
L 988.731447 213.683532 
L 989.750285 207.521176 
L 991.090861 196.725608 
L 993.879259 193.608 
L 993.879259 203.900264 
L 994.576359 204.768873 
L 995.219836 202.360359 
L 995.916935 197.673283 
L 996.88215 194.42701 
L 998.705334 189.617762 
L 998.705334 184.822525 
L 1001.225617 180.383077 
L 1001.225617 172.605365 
L 1003.370539 169.576144 
L 1003.370539 166.711234 
L 1004.014016 164.368011 
L 1006.158938 162.476311 
L 1006.158938 161.144821 
L 1006.856038 159.807749 
L 1008.679221 158.764565 
L 1010.502405 158.047384 
L 1010.502405 157.503979 
L 1011.950227 157.0417 
L 1011.950227 156.175121 
L 1011.950227 156.175121 
" clip-path="url(#p4bc7b73f9e)" style="fill: none; stroke: #0be881; stroke-opacity: 0.99; stroke-width: 2.4; stroke-linecap: square"/>
   </g>
   <g id="line2d_22">
    <path d="M 92.904773 482.904027 
L 92.904773 437.767428 
L 93.226511 426.281225 
L 93.226511 414.795022 
L 93.548249 403.308818 
L 93.548249 391.822615 
L 93.869988 380.336412 
L 94.352595 368.850208 
L 95.049695 345.877802 
L 95.800417 334.391598 
L 96.122156 322.905395 
L 98.803308 265.474378 
L 99.125047 253.990167 
L 100.143884 243.149234 
L 100.626492 233.691776 
L 101.591707 225.505684 
L 102.074314 218.106193 
L 103.093152 211.815445 
L 103.57576 206.176804 
L 105.023582 201.18981 
L 105.023582 197.099333 
L 106.525027 193.563131 
L 107.651111 190.304696 
L 107.651111 188.082882 
L 110.171395 185.133745 
L 110.654002 184.901753 
L 112.90617 184.684905 
L 112.90617 183.926007 
L 114.407616 185.862896 
L 115.5337 185.108036 
L 116.713407 185.965842 
L 116.713407 185.639254 
L 117.839491 185.326266 
L 118.965575 184.423191 
L 120.145282 184.027537 
L 120.145282 183.305782 
L 121.593104 184.250621 
L 122.719189 183.767904 
L 123.898896 182.738992 
L 123.898896 182.055213 
L 125.02498 181.676773 
L 126.151064 181.125289 
L 127.330771 179.912955 
L 127.330771 179.443673 
L 128.456855 179.152562 
L 129.582939 179.97873 
L 129.582939 181.287951 
L 131.084384 181.195349 
L 132.210468 184.770274 
L 133.390176 185.92358 
L 134.51626 187.370885 
L 134.51626 188.651419 
L 135.642344 187.962579 
L 136.822051 187.825444 
L 137.948135 190.16351 
L 139.074219 189.756307 
L 139.074219 188.789005 
L 140.253926 190.862561 
L 141.38001 190.311958 
L 142.506094 191.084457 
L 142.506094 192.572142 
L 144.007539 196.338233 
L 145.133623 202.196675 
L 145.133623 208.857654 
L 147.439415 225.496717 
L 147.439415 230.708584 
L 148.565499 230.664134 
L 149.745206 231.927184 
L 149.745206 234.856963 
L 150.87129 239.094368 
L 151.997374 240.437016 
L 151.997374 239.237492 
L 153.177081 238.292078 
L 153.177081 240.175871 
L 154.303165 245.747801 
L 155.429249 249.819433 
L 155.429249 250.291764 
L 156.608956 251.388048 
L 157.73504 254.184216 
L 158.861124 256.38656 
L 158.861124 255.92227 
L 160.040831 255.085162 
L 160.040831 254.593854 
L 161.488654 253.309866 
L 162.292999 252.778185 
L 162.775607 251.224511 
L 163.955314 250.239135 
L 164.384298 247.641645 
L 168.727765 245.331466 
L 170.711818 244.763389 
L 170.711818 243.109168 
L 172.481379 239.519856 
L 172.481379 235.172334 
L 174.626301 229.702042 
L 174.626301 222.778954 
L 176.824846 221.008867 
L 176.824846 219.564961 
L 180.095852 219.11006 
L 180.095852 218.937738 
L 180.41759 219.498908 
L 181.11469 218.091345 
L 183.58135 214.983981 
L 183.58135 206.529719 
L 184.27845 202.124657 
L 186.423372 198.247068 
L 187.871194 195.291465 
L 187.871194 190.348714 
L 189.694378 188.735259 
L 191.195823 186.96484 
L 192.321907 185.310086 
L 193.126253 183.625296 
L 193.126253 181.886702 
L 195.432044 177.420851 
L 196.879867 175.692172 
L 197.362474 173.922295 
L 198.542181 172.368873 
L 199.668265 171.279656 
L 200.472611 170.042556 
L 202.403041 169.001907 
L 203.207387 171.190924 
L 204.065355 170.93088 
L 205.19144 175.875417 
L 205.995785 174.841552 
L 206.478393 173.585413 
L 207.926215 171.348305 
L 208.784184 169.338969 
L 211.679829 165.73899 
L 213.28852 164.955389 
L 213.771128 163.957983 
L 214.575473 163.950898 
L 215.379819 164.422699 
L 216.988511 167.210177 
L 217.471118 169.613304 
L 218.275464 171.542034 
L 219.884155 170.636115 
L 220.366763 169.436622 
L 221.975454 166.421819 
L 222.7798 165.370134 
L 224.066753 164.524496 
L 224.871099 163.348219 
L 226.158052 162.480288 
L 227.927613 162.494549 
L 227.927613 165.250515 
L 229.697173 166.116518 
L 229.697173 166.423281 
L 231.413111 165.891235 
L 232.378326 164.760267 
L 232.378326 163.181071 
L 234.147887 162.122571 
L 236.024693 160.083921 
L 236.989908 159.614284 
L 236.989908 159.157575 
L 239.671061 158.932005 
L 240.636276 159.045759 
L 241.60149 158.839933 
L 242.513082 158.296375 
L 243.478297 157.554054 
L 244.92612 156.999721 
L 247.768141 155.924484 
L 249.484079 156.525365 
L 249.484079 156.505599 
L 250.449294 157.157816 
L 251.414509 156.989465 
L 252.3261 156.966208 
L 253.291315 156.686546 
L 255.060876 157.391219 
L 255.060876 157.194327 
L 256.026091 158.749879 
L 256.937683 160.817034 
L 258.868113 161.085678 
L 259.189851 162.785983 
L 259.672458 162.4234 
L 260.58405 161.88206 
L 262.353611 163.741579 
L 262.353611 164.818464 
L 263.318826 164.548685 
L 265.088386 167.922496 
L 265.088386 170.578871 
L 265.999978 170.296661 
L 267.769539 170.085483 
L 267.769539 170.819676 
L 268.734754 170.890831 
L 270.128953 170.874354 
L 270.450691 173.63652 
L 271.415906 175.935403 
L 272.702859 177.46349 
L 273.185467 178.332418 
L 274.579666 179.431191 
L 274.955028 181.656174 
L 275.866619 181.300645 
L 277.153573 183.834444 
L 277.63618 190.687388 
L 278.601395 190.366857 
L 279.405741 189.703064 
L 280.370956 191.575105 
L 281.282547 192.217367 
L 282.569501 191.561753 
L 283.373846 192.320658 
L 284.339061 191.612173 
L 285.143407 191.167233 
L 286.108622 189.946333 
L 287.020214 189.47372 
L 287.502821 190.888611 
L 288.468036 190.767109 
L 290.559335 191.354568 
L 291.363681 193.166485 
L 292.489765 197.848478 
L 293.669472 198.143783 
L 293.99121 197.963925 
L 295.814394 197.865237 
L 296.61874 197.048221 
L 297.262216 195.918969 
L 298.602793 195.285086 
L 299.0854 193.911444 
L 299.7825 192.343931 
L 300.747715 190.928032 
L 301.444814 189.635291 
L 303.107129 188.039862 
L 303.804229 187.197778 
L 304.447705 187.161813 
L 304.447705 186.322564 
L 306.270889 185.154563 
L 307.289727 183.845223 
L 307.611465 182.924867 
L 307.611465 182.390535 
L 309.756387 181.573444 
L 310.078125 180.992822 
L 311.901309 182.399414 
L 311.901309 185.209302 
L 313.081016 184.632096 
L 314.528839 183.557687 
L 314.528839 182.117416 
L 316.83463 178.741913 
L 318.282452 177.448623 
L 318.282452 176.171505 
L 320.266505 175.129259 
L 321.392589 174.336466 
L 321.392589 173.836969 
L 322.572296 173.288894 
L 327.451994 167.996204 
L 327.451994 165.955769 
L 328.953439 164.23379 
L 330.401261 163.068448 
L 330.401261 162.325714 
L 331.902707 162.885504 
L 331.902707 167.436763 
L 333.350529 171.113607 
L 335.173713 177.502189 
L 335.173713 180.637543 
L 336.996896 181.71923 
L 336.996896 179.779618 
L 338.82008 177.007035 
L 338.82008 174.235488 
L 340.643264 171.941499 
L 340.643264 169.901268 
L 342.788186 168.259075 
L 342.788186 164.643604 
L 344.61137 163.452338 
L 346.434553 161.978184 
L 346.434553 161.082682 
L 348.204114 160.302137 
L 348.204114 159.825348 
L 350.027298 159.189947 
L 350.027298 158.985359 
L 351.850481 158.914836 
L 352.17222 159.447019 
L 353.995403 158.616581 
L 353.995403 158.477284 
L 355.818587 159.760651 
L 355.818587 159.461509 
L 357.641771 158.550034 
L 357.641771 157.937914 
L 359.464954 157.697166 
L 359.464954 157.268903 
L 361.288138 157.295521 
L 361.609876 157.140152 
L 363.43306 156.990007 
L 363.43306 157.874374 
L 365.202621 157.74951 
L 365.202621 157.573428 
L 367.025805 158.311943 
L 367.025805 158.231657 
L 368.848988 158.885831 
L 368.848988 158.67063 
L 370.672172 159.248964 
L 370.672172 162.422855 
L 372.817094 164.182004 
L 372.817094 166.240711 
L 374.640278 167.877463 
L 374.640278 173.08605 
L 376.463461 176.498376 
L 376.463461 177.915176 
L 378.286645 179.815568 
L 378.286645 179.490472 
L 380.056206 179.354399 
L 380.056206 180.782629 
L 382.254751 180.333371 
L 382.254751 181.784649 
L 382.254751 181.20547 
L 384.024311 181.097079 
L 384.024311 180.480651 
L 385.847495 179.543768 
L 385.847495 178.774154 
L 387.670679 177.935367 
L 387.670679 177.087523 
L 389.493862 175.337176 
L 389.493862 174.166091 
L 391.638784 172.775785 
L 391.638784 171.399474 
L 393.461968 170.675911 
L 393.461968 169.562181 
L 395.285152 168.823604 
L 395.285152 168.564479 
L 397.054713 167.947127 
L 397.054713 167.479671 
L 398.877896 167.120074 
L 398.877896 166.62842 
L 400.70108 166.453119 
L 400.70108 166.599924 
L 402.846002 166.367596 
L 402.846002 165.509028 
L 404.669186 164.879568 
L 404.669186 164.476329 
L 406.492369 163.691146 
L 406.492369 162.778916 
L 408.315553 161.801211 
L 408.315553 160.446905 
L 410.138737 159.62945 
L 410.138737 159.101788 
L 412.283659 158.891637 
L 412.283659 160.313769 
L 414.106842 163.534425 
L 414.106842 167.38758 
L 415.876403 171.963419 
L 415.876403 175.467978 
L 417.699587 175.550758 
L 417.699587 176.110284 
L 419.52277 176.631356 
L 419.52277 176.336337 
L 421.345954 175.251609 
L 421.667692 174.690231 
L 421.667692 174.030879 
L 423.490876 173.979588 
L 423.490876 173.78274 
L 425.31406 173.368655 
L 425.31406 175.889351 
L 427.137244 180.382807 
L 427.137244 181.977688 
L 428.906804 181.787058 
L 428.906804 185.659078 
L 430.729988 188.588739 
L 430.729988 191.638936 
L 432.87491 191.9391 
L 432.87491 196.400862 
L 434.698094 195.951505 
L 434.698094 201.970712 
L 436.521277 203.219142 
L 436.521277 207.33425 
L 438.344461 209.884084 
L 438.344461 215.498281 
L 440.167645 216.606627 
L 440.167645 216.473749 
L 440.167645 223.679302 
L 442.312567 232.18619 
L 442.312567 244.051305 
L 444.13575 246.898738 
L 444.13575 251.076025 
L 446.280672 252.123347 
L 446.924149 252.74105 
L 447.29951 254.311034 
L 447.942987 258.710095 
L 450.087909 261.779926 
L 452.554569 261.570776 
L 452.554569 258.106585 
L 454.753114 255.76753 
L 454.753114 252.702256 
L 456.200937 247.515896 
L 456.200937 242.174253 
L 462.796572 237.898675 
L 462.796572 234.347206 
L 463.976279 229.953931 
L 465.102363 223.517141 
L 467.247285 216.596428 
L 467.247285 204.665356 
L 469.392207 199.224025 
L 470.089307 194.758798 
L 470.089307 190.208474 
L 473.574805 189.666905 
L 473.896543 188.898563 
L 473.896543 186.890535 
L 476.041465 184.126729 
L 476.738565 181.509253 
L 477.70378 178.949845 
L 478.400879 176.019707 
L 479.419717 173.512294 
L 481.082032 168.852699 
L 482.10087 167.640239 
L 482.744346 166.565094 
L 483.763184 166.131889 
L 484.782022 165.060479 
L 485.425499 164.74326 
L 486.444337 164.593376 
L 489.125489 161.774295 
L 489.768966 160.961254 
L 490.787804 160.49663 
L 491.806642 159.904214 
L 493.468956 159.744491 
L 493.951564 159.40504 
L 494.648664 159.492697 
L 495.29214 159.034787 
L 496.310978 162.548911 
L 497.973293 162.279209 
L 498.992131 162.889012 
L 500.010969 163.119352 
L 500.654445 162.760996 
L 502.477629 164.377917 
L 502.799367 165.759618 
L 503.496467 169.613201 
L 504.461682 170.342936 
L 505.158781 173.511083 
L 506.177619 179.315543 
L 506.821096 182.334156 
L 507.839934 183.954589 
L 508.48341 188.830158 
L 511.003694 189.812435 
L 511.003694 192.980598 
L 512.022532 193.607023 
L 512.666008 192.860909 
L 513.363108 193.612492 
L 514.328323 193.781888 
L 515.025423 198.477009 
L 515.668899 199.520804 
L 516.687737 204.500861 
L 517.384837 203.023649 
L 519.529759 201.215433 
L 519.529759 199.922405 
L 520.494974 199.417242 
L 521.192073 200.476125 
L 522.210911 202.969938 
L 522.854388 203.675203 
L 523.551488 209.092643 
L 524.516702 215.052699 
L 525.213802 218.394843 
L 525.857279 223.897605 
L 528.002201 234.686272 
L 528.002201 242.469671 
L 528.6993 245.968006 
L 529.342777 251.566978 
L 530.039877 256.113473 
L 530.683353 255.937257 
L 531.380453 258.768482 
L 533.525375 260.160997 
L 533.525375 258.808851 
L 535.670297 258.577381 
L 535.670297 253.014721 
L 538.136957 249.375505 
L 538.136957 242.069193 
L 539.960141 239.721916 
L 541.461586 236.53258 
L 541.944194 230.614842 
L 545.75143 222.590932 
L 547.896352 214.518963 
L 547.896352 207.783567 
L 549.505044 201.6391 
L 551.757212 191.267268 
L 551.757212 186.786489 
L 553.258657 182.937911 
L 554.384741 180.391387 
L 554.384741 178.899211 
L 555.564448 178.141761 
L 557.816617 179.23346 
L 559.318062 178.774258 
L 559.318062 177.077986 
L 561.945591 172.6803 
L 561.945591 170.681378 
L 563.071675 169.051933 
L 564.573121 167.630658 
L 564.573121 166.245846 
L 565.699205 164.718813 
L 566.825289 163.544176 
L 568.326734 162.581691 
L 568.326734 161.730522 
L 569.452818 161.188569 
L 570.954264 160.752596 
L 571.276002 160.53233 
L 572.080348 160.245095 
L 573.260055 160.222189 
L 576.209323 158.691721 
L 577.335407 158.324346 
L 578.461491 159.07962 
L 579.962936 158.716478 
L 581.08902 158.440684 
L 582.268727 159.112213 
L 583.71655 159.190897 
L 583.71655 159.653699 
L 584.896257 159.391584 
L 586.344079 162.104188 
L 587.523786 162.113988 
L 587.523786 163.060331 
L 588.64987 165.883002 
L 590.151316 170.126335 
L 590.473054 176.085699 
L 591.2774 179.407121 
L 592.725222 181.950251 
L 593.904929 181.869313 
L 593.904929 183.007736 
L 595.031013 182.22964 
L 596.532459 185.000133 
L 596.532459 184.9568 
L 597.658543 184.812935 
L 599.159988 184.480843 
L 599.159988 183.812334 
L 600.286072 183.442557 
L 601.787518 182.332226 
L 601.787518 181.880074 
L 602.913602 180.643012 
L 604.039686 179.078019 
L 605.541131 177.613455 
L 605.541131 175.784345 
L 606.667215 174.050048 
L 608.168661 173.312577 
L 608.168661 172.284009 
L 610.420829 170.268569 
L 611.922274 169.470781 
L 611.922274 168.949787 
L 613.048358 168.061299 
L 614.549803 167.368111 
L 614.549803 167.064558 
L 615.675888 166.873496 
L 616.855595 166.290706 
L 618.303417 166.18068 
L 618.303417 165.713626 
L 623.558476 164.224004 
L 623.558476 163.498661 
L 624.68456 163.053302 
L 625.864267 164.013922 
L 627.312089 163.41231 
L 627.312089 162.911726 
L 628.491796 162.325647 
L 629.939619 162.442847 
L 629.939619 161.523089 
L 632.24541 160.264388 
L 633.746855 160.045392 
L 633.746855 159.911573 
L 642.755528 157.511311 
L 642.755528 157.418342 
L 643.881612 156.763778 
L 645.383057 156.422469 
L 646.509141 156.15958 
L 647.635225 156.098217 
L 649.136671 155.450022 
L 649.136671 155.158901 
L 652.890284 153.839398 
L 654.016368 153.460134 
L 655.517814 153.434242 
L 655.517814 153.078023 
L 656.643898 152.895085 
L 658.145343 153.22223 
L 658.145343 153.026716 
L 659.271427 152.966501 
L 660.451134 153.166338 
L 661.898957 153.788784 
L 663.078664 155.76546 
L 664.526486 156.499929 
L 665.706193 158.035836 
L 667.154016 157.835612 
L 667.154016 157.89905 
L 668.2801 157.391692 
L 669.459807 157.203443 
L 670.907629 157.28339 
L 670.907629 158.687302 
L 672.087336 158.303478 
L 674.017766 159.472905 
L 676.323557 161.60119 
L 677.449641 165.565276 
L 677.771379 167.5278 
L 678.629348 169.746891 
L 679.862678 171.502349 
L 681.524993 174.926136 
L 682.329339 175.95482 
L 683.455423 175.940511 
L 685.224983 175.195291 
L 686.029329 176.386007 
L 686.351067 176.107005 
L 688.120628 175.819687 
L 688.442366 175.369919 
L 689.72932 175.481226 
L 690.694535 176.007168 
L 691.49888 175.956903 
L 691.820619 176.721615 
L 693.107572 178.407351 
L 693.107572 178.076897 
L 694.877132 177.756315 
L 696.164086 178.592188 
L 696.164086 178.316513 
L 697.451039 178.051271 
L 699.166976 176.91984 
L 699.166976 176.077959 
L 700.936537 174.543355 
L 702.22349 173.201294 
L 702.22349 171.751727 
L 703.993051 170.823098 
L 703.993051 169.731864 
L 705.762612 168.5162 
L 705.762612 167.207179 
L 707.478549 166.286153 
L 707.478549 165.358229 
L 709.730717 164.732667 
L 709.730717 164.603543 
L 711.500278 164.19152 
L 711.500278 164.022023 
L 713.269839 163.768964 
L 713.269839 163.239179 
L 713.698823 162.959675 
L 715.468384 162.682095 
L 715.468384 162.427841 
L 717.720552 162.239097 
L 717.720552 162.013668 
L 719.919097 162.566843 
L 719.919097 162.442025 
L 720.401704 161.965877 
L 722.171265 161.680549 
L 722.171265 162.513684 
L 724.423433 162.248132 
L 724.423433 162.072644 
L 727.104585 162.027119 
L 727.104585 161.656783 
L 727.587193 161.637971 
L 729.785738 162.191908 
L 729.785738 162.070222 
L 730.268345 161.520519 
L 733.003121 163.004282 
L 735.362535 163.851702 
L 735.684273 165.868136 
L 735.684273 165.206523 
L 736.649488 164.583852 
L 737.614703 164.619445 
L 739.330641 164.251903 
L 739.330641 166.039237 
L 740.295856 165.738675 
L 741.261071 165.165459 
L 743.459616 164.950722 
L 743.459616 164.222086 
L 743.942223 166.726268 
L 744.907438 166.146472 
L 745.81903 165.735613 
L 747.588591 166.042475 
L 747.588591 165.321372 
L 749.51902 164.466511 
L 750.430612 167.094365 
L 752.200173 170.260794 
L 752.200173 174.037678 
L 752.68278 176.076146 
L 753.647995 181.239552 
L 754.559587 184.84093 
L 755.524802 185.553845 
L 757.294363 187.574171 
L 757.294363 186.916481 
L 757.77697 186.116156 
L 758.688562 187.055227 
L 759.653777 187.876273 
L 761.530584 188.21116 
L 761.852322 191.161298 
L 762.334929 192.617948 
L 762.817537 192.563023 
L 763.782752 194.046783 
L 765.176951 200.995129 
L 766.946512 202.752718 
L 766.946512 203.82473 
L 767.911727 208.894069 
L 769.788533 212.362091 
L 770.753748 214.759256 
L 772.523309 217.270163 
L 772.523309 224.606459 
L 772.952293 230.019178 
L 773.917508 237.180057 
L 774.400116 238.610484 
L 774.882723 241.296014 
L 776.276922 247.325588 
L 778.046483 246.81836 
L 778.046483 252.605212 
L 780.298651 251.565393 
L 780.781259 250.85721 
L 783.355165 249.687009 
L 783.355165 245.771991 
L 785.178349 242.741573 
L 785.178349 238.982034 
L 787.323271 234.867896 
L 787.323271 230.66208 
L 789.629062 226.992947 
L 789.629062 222.447071 
L 791.773984 218.729839 
L 791.773984 214.021379 
L 793.918906 209.203914 
L 793.918906 204.123476 
L 796.868174 193.984356 
L 799.120342 190.049145 
L 800.085557 185.903736 
L 800.568164 182.68031 
L 801.479756 179.731027 
L 802.444971 177.478302 
L 802.927578 175.040777 
L 806.252207 169.809495 
L 807.163799 168.810836 
L 808.129014 168.405262 
L 809.094229 170.285117 
L 809.523213 171.531766 
L 810.810167 171.83178 
L 811.292774 175.726348 
L 812.579727 176.898083 
L 813.062335 181.469772 
L 813.86668 181.283702 
L 814.671026 188.855793 
L 816.762325 194.03456 
L 817.566671 198.231028 
L 818.049278 203.48871 
L 819.175362 205.242877 
L 820.033331 208.651145 
L 820.837677 208.684038 
L 821.642023 208.467336 
L 822.285499 211.949974 
L 823.089845 211.711055 
L 823.572453 211.262092 
L 824.698537 210.569731 
L 825.556505 211.520848 
L 825.556505 212.884921 
L 827.326066 213.24047 
L 827.808673 212.898329 
L 828.988381 213.215859 
L 828.988381 212.046576 
L 830.114465 211.760534 
L 831.61591 213.054368 
L 831.61591 214.597662 
L 833.063732 217.868844 
L 833.063732 221.213391 
L 834.565178 228.83744 
L 834.565178 244.767732 
L 836.388361 246.389252 
L 837.514446 252.007306 
L 837.514446 255.735262 
L 837.514446 255.705197 
L 838.962268 258.189806 
L 838.962268 257.809604 
L 840.785452 258.689012 
L 840.785452 260.792574 
L 842.286897 261.143452 
L 842.769504 261.43513 
L 842.769504 264.983666 
L 843.895588 265.504037 
L 843.895588 268.162065 
L 843.895588 267.228668 
L 847.97094 265.820172 
L 851.295569 261.289771 
L 851.295569 256.54837 
L 852.797015 252.480489 
L 852.797015 247.800964 
L 854.620198 244.405916 
L 854.620198 239.896458 
L 856.76512 234.091986 
L 859.607142 227.844677 
L 859.607142 214.340355 
L 859.92888 209.05082 
L 862.073802 205.474447 
L 862.073802 202.35921 
L 864.218724 200.115888 
L 865.344808 197.851382 
L 865.344808 195.760461 
L 866.524516 193.00623 
L 867.972338 191.124028 
L 868.454945 188.628867 
L 870.760737 183.065277 
L 870.760737 180.44345 
L 873.495512 175.574352 
L 873.495512 173.16294 
L 877.088256 168.178586 
L 877.892602 166.704361 
L 879.018686 166.224482 
L 879.823032 165.537613 
L 881.109985 164.748547 
L 881.592593 164.047751 
L 882.7723 163.729147 
L 883.576645 163.728209 
L 884.863599 163.485084 
L 885.667944 163.910638 
L 886.47229 166.603856 
L 887.276636 168.621999 
L 888.563589 168.544851 
L 889.367935 170.092228 
L 890.172281 171.314803 
L 891.780972 171.100003 
L 892.26358 173.248688 
L 893.067925 174.219025 
L 894.676617 179.454109 
L 895.96357 180.091758 
L 896.767916 182.936849 
L 897.572262 183.697531 
L 898.376607 185.18748 
L 899.180953 190.888027 
L 900.467906 191.246402 
L 901.272252 193.847667 
L 901.754859 194.9855 
L 902.934567 196.713072 
L 904.22152 201.21138 
L 904.650504 201.474697 
L 905.508473 201.297132 
L 906.312819 202.786831 
L 907.117164 203.850113 
L 907.92151 208.305426 
L 909.208463 207.68251 
L 909.691071 210.588048 
L 910.495417 211.998097 
L 911.299762 213.180449 
L 912.586716 218.333139 
L 913.391061 224.767342 
L 915.321491 229.773186 
L 916.501198 229.776286 
L 916.822937 228.826158 
L 918.270759 227.639574 
L 918.270759 225.976256 
L 919.772204 224.229324 
L 920.093943 227.148005 
L 921.702634 230.581782 
L 922.077995 235.276771 
L 923.847556 234.583318 
L 923.847556 235.511645 
L 924.222917 235.212942 
L 925.67074 234.574838 
L 926.850447 233.06228 
L 928.459138 232.271634 
L 928.941746 231.606283 
L 929.853338 231.972101 
L 932.319998 230.495763 
L 932.319998 229.22221 
L 932.641736 227.52548 
L 933.928689 226.880985 
L 934.250428 226.252385 
L 934.947527 225.543661 
L 935.751873 224.288081 
L 936.073611 223.066753 
L 937.092449 221.135552 
L 937.521434 219.962152 
L 938.218533 217.653001 
L 938.540272 215.072189 
L 940.363455 213.232636 
L 940.363455 212.05273 
L 941.864901 211.755545 
L 941.864901 211.146245 
L 942.186639 210.025551 
L 942.830116 209.067498 
L 944.975038 207.566659 
L 944.975038 204.532454 
L 945.672137 203.733036 
L 947.817059 205.503082 
L 947.817059 211.930699 
L 949.961981 222.448581 
L 951.088065 229.647862 
L 951.088065 235.62467 
L 952.911249 238.833753 
L 954.090956 243.254749 
L 954.895302 242.35778 
L 955.699648 244.182493 
L 956.503994 242.237938 
L 956.825732 238.896754 
L 958.434423 233.4156 
L 959.721377 231.434804 
L 960.203984 229.561987 
L 961.00833 231.503509 
L 963.260498 235.184778 
L 963.743105 237.184172 
L 964.654697 236.502241 
L 965.137305 236.937337 
L 965.619912 236.758255 
L 966.585127 236.191448 
L 967.067734 237.749703 
L 967.979326 236.165776 
L 968.461934 233.029167 
L 970.714102 227.842718 
L 970.714102 222.04373 
L 972.430039 216.772912 
L 972.805401 212.206134 
L 974.8967 208.484161 
L 976.505391 209.350975 
L 977.953214 216.535466 
L 977.953214 221.51313 
L 979.454659 220.989135 
L 979.454659 220.628858 
L 980.956104 219.765449 
L 980.956104 216.832982 
L 983.422765 212.345123 
L 983.422765 201.37517 
L 985.889425 196.404596 
L 986.586525 191.541384 
L 986.586525 184.194408 
L 989.374923 182.365701 
L 990.393761 182.008898 
L 991.090861 185.013335 
L 991.734337 186.248424 
L 993.879259 186.026708 
L 993.879259 184.873577 
L 994.576359 182.935571 
L 995.219836 180.085068 
L 996.238674 177.371351 
L 998.705334 174.353728 
L 998.705334 172.421505 
L 999.080695 170.591049 
L 1001.225617 168.653678 
L 1001.225617 167.230377 
L 1003.370539 166.17956 
L 1003.370539 165.902119 
L 1004.335754 165.417431 
L 1006.158938 164.48129 
L 1006.158938 164.041097 
L 1008.679221 163.129477 
L 1008.679221 162.366753 
L 1010.502405 161.368475 
L 1010.502405 160.289109 
L 1011.950227 159.212062 
L 1011.950227 158.162512 
L 1011.950227 158.162512 
" clip-path="url(#p4bc7b73f9e)" style="fill: none; stroke: #3c40c6; stroke-opacity: 0.99; stroke-width: 2.4; stroke-linecap: square"/>
   </g>
   <g id="patch_3">
    <path d="M 46.9525 434.59192 
L 46.9525 72.25112 
" style="fill: none; stroke: #000000; stroke-width: 0.8; stroke-linejoin: miter; stroke-linecap: square"/>
   </g>
   <g id="patch_4">
    <path d="M 1057.9025 434.59192 
L 1057.9025 72.25112 
" style="fill: none; stroke: #000000; stroke-width: 0.8; stroke-linejoin: miter; stroke-linecap: square"/>
   </g>
   <g id="patch_5">
    <path d="M 46.9525 434.59192 
L 1057.9025 434.59192 
" style="fill: none; stroke: #000000; stroke-width: 0.8; stroke-linejoin: miter; stroke-linecap: square"/>
   </g>
   <g id="patch_6">
    <path d="M 46.9525 72.25112 
L 1057.9025 72.25112 
" style="fill: none; stroke: #000000; stroke-width: 0.8; stroke-linejoin: miter; stroke-linecap: square"/>
   </g>
   <g id="legend_1">
    <g id="patch_7">
     <path d="M 334.7085 35.8 
L 729.7085 35.8 
Q 733.7085 35.8 733.7085 31.8 
L 733.7085 4 
Q 733.7085 -0 729.7085 -0 
L 334.7085 -0 
Q 330.7085 -0 330.7085 4 
L 330.7085 31.8 
Q 330.7085 35.8 334.7085 35.8 
z
" style="fill: #ffffff; opacity: 0.8; stroke: #cccccc; stroke-linejoin: miter"/>
    </g>
    <g id="line2d_23">
     <path d="M 338.7085 16.6 
L 358.7085 16.6 
L 378.7085 16.6 
" style="fill: none; stroke: #0be881; stroke-opacity: 0.99; stroke-width: 2.4; stroke-linecap: square"/>
    </g>
    <g id="text_13">
     <!-- MLP256$^m$ -->
     <g transform="translate(394.7085 23.6)scale(0.2 -0.2)">
      <defs>
       <path id="DejaVuSans-4d" d="M 628 4666 
L 1569 4666 
L 2759 1491 
L 3956 4666 
L 4897 4666 
L 4897 0 
L 4281 0 
L 4281 4097 
L 3078 897 
L 2444 897 
L 1241 4097 
L 1241 0 
L 628 0 
L 628 4666 
z
" transform="scale(0.015625)"/>
       <path id="DejaVuSans-4c" d="M 628 4666 
L 1259 4666 
L 1259 531 
L 3531 531 
L 3531 0 
L 628 0 
L 628 4666 
z
" transform="scale(0.015625)"/>
       <path id="DejaVuSans-50" d="M 1259 4147 
L 1259 2394 
L 2053 2394 
Q 2494 2394 2734 2622 
Q 2975 2850 2975 3272 
Q 2975 3691 2734 3919 
Q 2494 4147 2053 4147 
L 1259 4147 
z
M 628 4666 
L 2053 4666 
Q 2838 4666 3239 4311 
Q 3641 3956 3641 3272 
Q 3641 2581 3239 2228 
Q 2838 1875 2053 1875 
L 1259 1875 
L 1259 0 
L 628 0 
L 628 4666 
z
" transform="scale(0.015625)"/>
       <path id="DejaVuSans-35" d="M 691 4666 
L 3169 4666 
L 3169 4134 
L 1269 4134 
L 1269 2991 
Q 1406 3038 1543 3061 
Q 1681 3084 1819 3084 
Q 2600 3084 3056 2656 
Q 3513 2228 3513 1497 
Q 3513 744 3044 326 
Q 2575 -91 1722 -91 
Q 1428 -91 1123 -41 
Q 819 9 494 109 
L 494 744 
Q 775 591 1075 516 
Q 1375 441 1709 441 
Q 2250 441 2565 725 
Q 2881 1009 2881 1497 
Q 2881 1984 2565 2268 
Q 2250 2553 1709 2553 
Q 1456 2553 1204 2497 
Q 953 2441 691 2322 
L 691 4666 
z
" transform="scale(0.015625)"/>
       <path id="DejaVuSans-Oblique-6d" d="M 5747 2113 
L 5338 0 
L 4763 0 
L 5166 2094 
Q 5191 2228 5203 2325 
Q 5216 2422 5216 2491 
Q 5216 2772 5059 2928 
Q 4903 3084 4622 3084 
Q 4203 3084 3875 2770 
Q 3547 2456 3450 1953 
L 3066 0 
L 2491 0 
L 2900 2094 
Q 2925 2209 2937 2307 
Q 2950 2406 2950 2484 
Q 2950 2769 2794 2926 
Q 2638 3084 2363 3084 
Q 1938 3084 1609 2770 
Q 1281 2456 1184 1953 
L 800 0 
L 225 0 
L 909 3500 
L 1484 3500 
L 1375 2956 
Q 1609 3263 1923 3423 
Q 2238 3584 2597 3584 
Q 2978 3584 3223 3384 
Q 3469 3184 3519 2828 
Q 3781 3197 4126 3390 
Q 4472 3584 4856 3584 
Q 5306 3584 5551 3325 
Q 5797 3066 5797 2591 
Q 5797 2488 5784 2364 
Q 5772 2241 5747 2113 
z
" transform="scale(0.015625)"/>
      </defs>
      <use xlink:href="#DejaVuSans-4d" transform="translate(0 0.51875)"/>
      <use xlink:href="#DejaVuSans-4c" transform="translate(86.279297 0.51875)"/>
      <use xlink:href="#DejaVuSans-50" transform="translate(141.992188 0.51875)"/>
      <use xlink:href="#DejaVuSans-32" transform="translate(202.294922 0.51875)"/>
      <use xlink:href="#DejaVuSans-35" transform="translate(265.917969 0.51875)"/>
      <use xlink:href="#DejaVuSans-36" transform="translate(329.541016 0.51875)"/>
      <use xlink:href="#DejaVuSans-Oblique-6d" transform="translate(394.121094 38.8)scale(0.7)"/>
     </g>
    </g>
    <g id="line2d_24">
     <path d="M 527.9085 16.6 
L 547.9085 16.6 
L 567.9085 16.6 
" style="fill: none; stroke: #3c40c6; stroke-opacity: 0.99; stroke-width: 2.4; stroke-linecap: square"/>
    </g>
    <g id="text_14">
     <!-- TinyLidarNet$^m$ -->
     <g transform="translate(583.9085 23.6)scale(0.2 -0.2)">
      <defs>
       <path id="DejaVuSans-69" d="M 603 3500 
L 1178 3500 
L 1178 0 
L 603 0 
L 603 3500 
z
M 603 4863 
L 1178 4863 
L 1178 4134 
L 603 4134 
L 603 4863 
z
" transform="scale(0.015625)"/>
       <path id="DejaVuSans-6e" d="M 3513 2113 
L 3513 0 
L 2938 0 
L 2938 2094 
Q 2938 2591 2744 2837 
Q 2550 3084 2163 3084 
Q 1697 3084 1428 2787 
Q 1159 2491 1159 1978 
L 1159 0 
L 581 0 
L 581 3500 
L 1159 3500 
L 1159 2956 
Q 1366 3272 1645 3428 
Q 1925 3584 2291 3584 
Q 2894 3584 3203 3211 
Q 3513 2838 3513 2113 
z
" transform="scale(0.015625)"/>
       <path id="DejaVuSans-79" d="M 2059 -325 
Q 1816 -950 1584 -1140 
Q 1353 -1331 966 -1331 
L 506 -1331 
L 506 -850 
L 844 -850 
Q 1081 -850 1212 -737 
Q 1344 -625 1503 -206 
L 1606 56 
L 191 3500 
L 800 3500 
L 1894 763 
L 2988 3500 
L 3597 3500 
L 2059 -325 
z
" transform="scale(0.015625)"/>
       <path id="DejaVuSans-4e" d="M 628 4666 
L 1478 4666 
L 3547 763 
L 3547 4666 
L 4159 4666 
L 4159 0 
L 3309 0 
L 1241 3903 
L 1241 0 
L 628 0 
L 628 4666 
z
" transform="scale(0.015625)"/>
       <path id="DejaVuSans-74" d="M 1172 4494 
L 1172 3500 
L 2356 3500 
L 2356 3053 
L 1172 3053 
L 1172 1153 
Q 1172 725 1289 603 
Q 1406 481 1766 481 
L 2356 481 
L 2356 0 
L 1766 0 
Q 1100 0 847 248 
Q 594 497 594 1153 
L 594 3053 
L 172 3053 
L 172 3500 
L 594 3500 
L 594 4494 
L 1172 4494 
z
" transform="scale(0.015625)"/>
      </defs>
      <use xlink:href="#DejaVuSans-54" transform="translate(0 0.51875)"/>
      <use xlink:href="#DejaVuSans-69" transform="translate(61.083984 0.51875)"/>
      <use xlink:href="#DejaVuSans-6e" transform="translate(88.867188 0.51875)"/>
      <use xlink:href="#DejaVuSans-79" transform="translate(152.246094 0.51875)"/>
      <use xlink:href="#DejaVuSans-4c" transform="translate(211.425781 0.51875)"/>
      <use xlink:href="#DejaVuSans-69" transform="translate(267.138672 0.51875)"/>
      <use xlink:href="#DejaVuSans-64" transform="translate(294.921875 0.51875)"/>
      <use xlink:href="#DejaVuSans-61" transform="translate(358.398438 0.51875)"/>
      <use xlink:href="#DejaVuSans-72" transform="translate(419.677734 0.51875)"/>
      <use xlink:href="#DejaVuSans-4e" transform="translate(460.791016 0.51875)"/>
      <use xlink:href="#DejaVuSans-65" transform="translate(535.595703 0.51875)"/>
      <use xlink:href="#DejaVuSans-74" transform="translate(597.119141 0.51875)"/>
      <use xlink:href="#DejaVuSans-Oblique-6d" transform="translate(637.285156 38.8)scale(0.7)"/>
     </g>
    </g>
   </g>
  </g>
 </g>
 <defs>
  <clipPath id="p4bc7b73f9e">
   <rect x="46.9525" y="72.25112" width="1010.95" height="362.3408"/>
  </clipPath>
 </defs>
</svg>
