<?xml version="1.0" encoding="utf-8" standalone="no"?>
<!DOCTYPE svg PUBLIC "-//W3C//DTD SVG 1.1//EN"
  "http://www.w3.org/Graphics/SVG/1.1/DTD/svg11.dtd">
<svg xmlns:xlink="http://www.w3.org/1999/xlink" width="409.970625pt" height="130.231301pt" viewBox="0 0 409.970625 130.231301" xmlns="http://www.w3.org/2000/svg" version="1.1">
 <metadata>
  <rdf:RDF xmlns:dc="http://purl.org/dc/elements/1.1/" xmlns:cc="http://creativecommons.org/ns#" xmlns:rdf="http://www.w3.org/1999/02/22-rdf-syntax-ns#">
   <cc:Work>
    <dc:type rdf:resource="http://purl.org/dc/dcmitype/StillImage"/>
    <dc:date>2024-03-08T12:09:43.393602</dc:date>
    <dc:format>image/svg+xml</dc:format>
    <dc:creator>
     <cc:Agent>
      <dc:title>Matplotlib v3.5.2, https://matplotlib.org/</dc:title>
     </cc:Agent>
    </dc:creator>
   </cc:Work>
  </rdf:RDF>
 </metadata>
 <defs>
  <style type="text/css">*{stroke-linejoin: round; stroke-linecap: butt}</style>
 </defs>
 <g id="figure_1">
  <g id="patch_1">
   <path d="M 0 130.231301 
L 409.970625 130.231301 
L 409.970625 0 
L 0 0 
z
" style="fill: #ffffff"/>
  </g>
  <g id="axes_1">
   <g id="patch_2">
    <path d="M 27.040625 99.875051 
L 409.970625 99.875051 
L 409.970625 16.870251 
L 27.040625 16.870251 
z
" style="fill: #ffffff"/>
   </g>
   <g id="matplotlib.axis_1">
    <g id="xtick_1">
     <g id="line2d_1">
      <path d="M 44.446534 99.875051 
L 44.446534 16.870251 
" clip-path="url(#pe3b897c8d8)" style="fill: none; stroke: #b0b0b0; stroke-width: 0.8; stroke-linecap: square"/>
     </g>
     <g id="line2d_2">
      <defs>
       <path id="m6a6747a5ee" d="M 0 0 
L 0 3.5 
" style="stroke: #000000; stroke-width: 0.8"/>
      </defs>
      <g>
       <use xlink:href="#m6a6747a5ee" x="44.446534" y="99.875051" style="stroke: #000000; stroke-width: 0.8"/>
      </g>
     </g>
     <g id="text_1">
      <!-- 0 -->
      <g transform="translate(41.265284 114.473489)scale(0.1 -0.1)">
       <defs>
        <path id="DejaVuSans-30" d="M 2034 4250 
Q 1547 4250 1301 3770 
Q 1056 3291 1056 2328 
Q 1056 1369 1301 889 
Q 1547 409 2034 409 
Q 2525 409 2770 889 
Q 3016 1369 3016 2328 
Q 3016 3291 2770 3770 
Q 2525 4250 2034 4250 
z
M 2034 4750 
Q 2819 4750 3233 4129 
Q 3647 3509 3647 2328 
Q 3647 1150 3233 529 
Q 2819 -91 2034 -91 
Q 1250 -91 836 529 
Q 422 1150 422 2328 
Q 422 3509 836 4129 
Q 1250 4750 2034 4750 
z
" transform="scale(0.015625)"/>
       </defs>
       <use xlink:href="#DejaVuSans-30"/>
      </g>
     </g>
    </g>
    <g id="xtick_2">
     <g id="line2d_3">
      <path d="M 114.483892 99.875051 
L 114.483892 16.870251 
" clip-path="url(#pe3b897c8d8)" style="fill: none; stroke: #b0b0b0; stroke-width: 0.8; stroke-linecap: square"/>
     </g>
     <g id="line2d_4">
      <g>
       <use xlink:href="#m6a6747a5ee" x="114.483892" y="99.875051" style="stroke: #000000; stroke-width: 0.8"/>
      </g>
     </g>
     <g id="text_2">
      <!-- 20 -->
      <g transform="translate(108.121392 114.473489)scale(0.1 -0.1)">
       <defs>
        <path id="DejaVuSans-32" d="M 1228 531 
L 3431 531 
L 3431 0 
L 469 0 
L 469 531 
Q 828 903 1448 1529 
Q 2069 2156 2228 2338 
Q 2531 2678 2651 2914 
Q 2772 3150 2772 3378 
Q 2772 3750 2511 3984 
Q 2250 4219 1831 4219 
Q 1534 4219 1204 4116 
Q 875 4013 500 3803 
L 500 4441 
Q 881 4594 1212 4672 
Q 1544 4750 1819 4750 
Q 2544 4750 2975 4387 
Q 3406 4025 3406 3419 
Q 3406 3131 3298 2873 
Q 3191 2616 2906 2266 
Q 2828 2175 2409 1742 
Q 1991 1309 1228 531 
z
" transform="scale(0.015625)"/>
       </defs>
       <use xlink:href="#DejaVuSans-32"/>
       <use xlink:href="#DejaVuSans-30" x="63.623047"/>
      </g>
     </g>
    </g>
    <g id="xtick_3">
     <g id="line2d_5">
      <path d="M 184.52125 99.875051 
L 184.52125 16.870251 
" clip-path="url(#pe3b897c8d8)" style="fill: none; stroke: #b0b0b0; stroke-width: 0.8; stroke-linecap: square"/>
     </g>
     <g id="line2d_6">
      <g>
       <use xlink:href="#m6a6747a5ee" x="184.52125" y="99.875051" style="stroke: #000000; stroke-width: 0.8"/>
      </g>
     </g>
     <g id="text_3">
      <!-- 40 -->
      <g transform="translate(178.15875 114.473489)scale(0.1 -0.1)">
       <defs>
        <path id="DejaVuSans-34" d="M 2419 4116 
L 825 1625 
L 2419 1625 
L 2419 4116 
z
M 2253 4666 
L 3047 4666 
L 3047 1625 
L 3713 1625 
L 3713 1100 
L 3047 1100 
L 3047 0 
L 2419 0 
L 2419 1100 
L 313 1100 
L 313 1709 
L 2253 4666 
z
" transform="scale(0.015625)"/>
       </defs>
       <use xlink:href="#DejaVuSans-34"/>
       <use xlink:href="#DejaVuSans-30" x="63.623047"/>
      </g>
     </g>
    </g>
    <g id="xtick_4">
     <g id="line2d_7">
      <path d="M 254.558608 99.875051 
L 254.558608 16.870251 
" clip-path="url(#pe3b897c8d8)" style="fill: none; stroke: #b0b0b0; stroke-width: 0.8; stroke-linecap: square"/>
     </g>
     <g id="line2d_8">
      <g>
       <use xlink:href="#m6a6747a5ee" x="254.558608" y="99.875051" style="stroke: #000000; stroke-width: 0.8"/>
      </g>
     </g>
     <g id="text_4">
      <!-- 60 -->
      <g transform="translate(248.196108 114.473489)scale(0.1 -0.1)">
       <defs>
        <path id="DejaVuSans-36" d="M 2113 2584 
Q 1688 2584 1439 2293 
Q 1191 2003 1191 1497 
Q 1191 994 1439 701 
Q 1688 409 2113 409 
Q 2538 409 2786 701 
Q 3034 994 3034 1497 
Q 3034 2003 2786 2293 
Q 2538 2584 2113 2584 
z
M 3366 4563 
L 3366 3988 
Q 3128 4100 2886 4159 
Q 2644 4219 2406 4219 
Q 1781 4219 1451 3797 
Q 1122 3375 1075 2522 
Q 1259 2794 1537 2939 
Q 1816 3084 2150 3084 
Q 2853 3084 3261 2657 
Q 3669 2231 3669 1497 
Q 3669 778 3244 343 
Q 2819 -91 2113 -91 
Q 1303 -91 875 529 
Q 447 1150 447 2328 
Q 447 3434 972 4092 
Q 1497 4750 2381 4750 
Q 2619 4750 2861 4703 
Q 3103 4656 3366 4563 
z
" transform="scale(0.015625)"/>
       </defs>
       <use xlink:href="#DejaVuSans-36"/>
       <use xlink:href="#DejaVuSans-30" x="63.623047"/>
      </g>
     </g>
    </g>
    <g id="xtick_5">
     <g id="line2d_9">
      <path d="M 324.595966 99.875051 
L 324.595966 16.870251 
" clip-path="url(#pe3b897c8d8)" style="fill: none; stroke: #b0b0b0; stroke-width: 0.8; stroke-linecap: square"/>
     </g>
     <g id="line2d_10">
      <g>
       <use xlink:href="#m6a6747a5ee" x="324.595966" y="99.875051" style="stroke: #000000; stroke-width: 0.8"/>
      </g>
     </g>
     <g id="text_5">
      <!-- 80 -->
      <g transform="translate(318.233466 114.473489)scale(0.1 -0.1)">
       <defs>
        <path id="DejaVuSans-38" d="M 2034 2216 
Q 1584 2216 1326 1975 
Q 1069 1734 1069 1313 
Q 1069 891 1326 650 
Q 1584 409 2034 409 
Q 2484 409 2743 651 
Q 3003 894 3003 1313 
Q 3003 1734 2745 1975 
Q 2488 2216 2034 2216 
z
M 1403 2484 
Q 997 2584 770 2862 
Q 544 3141 544 3541 
Q 544 4100 942 4425 
Q 1341 4750 2034 4750 
Q 2731 4750 3128 4425 
Q 3525 4100 3525 3541 
Q 3525 3141 3298 2862 
Q 3072 2584 2669 2484 
Q 3125 2378 3379 2068 
Q 3634 1759 3634 1313 
Q 3634 634 3220 271 
Q 2806 -91 2034 -91 
Q 1263 -91 848 271 
Q 434 634 434 1313 
Q 434 1759 690 2068 
Q 947 2378 1403 2484 
z
M 1172 3481 
Q 1172 3119 1398 2916 
Q 1625 2713 2034 2713 
Q 2441 2713 2670 2916 
Q 2900 3119 2900 3481 
Q 2900 3844 2670 4047 
Q 2441 4250 2034 4250 
Q 1625 4250 1398 4047 
Q 1172 3844 1172 3481 
z
" transform="scale(0.015625)"/>
       </defs>
       <use xlink:href="#DejaVuSans-38"/>
       <use xlink:href="#DejaVuSans-30" x="63.623047"/>
      </g>
     </g>
    </g>
    <g id="xtick_6">
     <g id="line2d_11">
      <path d="M 394.633324 99.875051 
L 394.633324 16.870251 
" clip-path="url(#pe3b897c8d8)" style="fill: none; stroke: #b0b0b0; stroke-width: 0.8; stroke-linecap: square"/>
     </g>
     <g id="line2d_12">
      <g>
       <use xlink:href="#m6a6747a5ee" x="394.633324" y="99.875051" style="stroke: #000000; stroke-width: 0.8"/>
      </g>
     </g>
     <g id="text_6">
      <!-- 100 -->
      <g transform="translate(385.089574 114.473489)scale(0.1 -0.1)">
       <defs>
        <path id="DejaVuSans-31" d="M 794 531 
L 1825 531 
L 1825 4091 
L 703 3866 
L 703 4441 
L 1819 4666 
L 2450 4666 
L 2450 531 
L 3481 531 
L 3481 0 
L 794 0 
L 794 531 
z
" transform="scale(0.015625)"/>
       </defs>
       <use xlink:href="#DejaVuSans-31"/>
       <use xlink:href="#DejaVuSans-30" x="63.623047"/>
       <use xlink:href="#DejaVuSans-30" x="127.246094"/>
      </g>
     </g>
    </g>
    <g id="text_7">
     <!-- Track progress [%] -->
     <g transform="translate(172.015 128.151614)scale(0.1 -0.1)">
      <defs>
       <path id="DejaVuSans-54" d="M -19 4666 
L 3928 4666 
L 3928 4134 
L 2272 4134 
L 2272 0 
L 1638 0 
L 1638 4134 
L -19 4134 
L -19 4666 
z
" transform="scale(0.015625)"/>
       <path id="DejaVuSans-72" d="M 2631 2963 
Q 2534 3019 2420 3045 
Q 2306 3072 2169 3072 
Q 1681 3072 1420 2755 
Q 1159 2438 1159 1844 
L 1159 0 
L 581 0 
L 581 3500 
L 1159 3500 
L 1159 2956 
Q 1341 3275 1631 3429 
Q 1922 3584 2338 3584 
Q 2397 3584 2469 3576 
Q 2541 3569 2628 3553 
L 2631 2963 
z
" transform="scale(0.015625)"/>
       <path id="DejaVuSans-61" d="M 2194 1759 
Q 1497 1759 1228 1600 
Q 959 1441 959 1056 
Q 959 750 1161 570 
Q 1363 391 1709 391 
Q 2188 391 2477 730 
Q 2766 1069 2766 1631 
L 2766 1759 
L 2194 1759 
z
M 3341 1997 
L 3341 0 
L 2766 0 
L 2766 531 
Q 2569 213 2275 61 
Q 1981 -91 1556 -91 
Q 1019 -91 701 211 
Q 384 513 384 1019 
Q 384 1609 779 1909 
Q 1175 2209 1959 2209 
L 2766 2209 
L 2766 2266 
Q 2766 2663 2505 2880 
Q 2244 3097 1772 3097 
Q 1472 3097 1187 3025 
Q 903 2953 641 2809 
L 641 3341 
Q 956 3463 1253 3523 
Q 1550 3584 1831 3584 
Q 2591 3584 2966 3190 
Q 3341 2797 3341 1997 
z
" transform="scale(0.015625)"/>
       <path id="DejaVuSans-63" d="M 3122 3366 
L 3122 2828 
Q 2878 2963 2633 3030 
Q 2388 3097 2138 3097 
Q 1578 3097 1268 2742 
Q 959 2388 959 1747 
Q 959 1106 1268 751 
Q 1578 397 2138 397 
Q 2388 397 2633 464 
Q 2878 531 3122 666 
L 3122 134 
Q 2881 22 2623 -34 
Q 2366 -91 2075 -91 
Q 1284 -91 818 406 
Q 353 903 353 1747 
Q 353 2603 823 3093 
Q 1294 3584 2113 3584 
Q 2378 3584 2631 3529 
Q 2884 3475 3122 3366 
z
" transform="scale(0.015625)"/>
       <path id="DejaVuSans-6b" d="M 581 4863 
L 1159 4863 
L 1159 1991 
L 2875 3500 
L 3609 3500 
L 1753 1863 
L 3688 0 
L 2938 0 
L 1159 1709 
L 1159 0 
L 581 0 
L 581 4863 
z
" transform="scale(0.015625)"/>
       <path id="DejaVuSans-20" transform="scale(0.015625)"/>
       <path id="DejaVuSans-70" d="M 1159 525 
L 1159 -1331 
L 581 -1331 
L 581 3500 
L 1159 3500 
L 1159 2969 
Q 1341 3281 1617 3432 
Q 1894 3584 2278 3584 
Q 2916 3584 3314 3078 
Q 3713 2572 3713 1747 
Q 3713 922 3314 415 
Q 2916 -91 2278 -91 
Q 1894 -91 1617 61 
Q 1341 213 1159 525 
z
M 3116 1747 
Q 3116 2381 2855 2742 
Q 2594 3103 2138 3103 
Q 1681 3103 1420 2742 
Q 1159 2381 1159 1747 
Q 1159 1113 1420 752 
Q 1681 391 2138 391 
Q 2594 391 2855 752 
Q 3116 1113 3116 1747 
z
" transform="scale(0.015625)"/>
       <path id="DejaVuSans-6f" d="M 1959 3097 
Q 1497 3097 1228 2736 
Q 959 2375 959 1747 
Q 959 1119 1226 758 
Q 1494 397 1959 397 
Q 2419 397 2687 759 
Q 2956 1122 2956 1747 
Q 2956 2369 2687 2733 
Q 2419 3097 1959 3097 
z
M 1959 3584 
Q 2709 3584 3137 3096 
Q 3566 2609 3566 1747 
Q 3566 888 3137 398 
Q 2709 -91 1959 -91 
Q 1206 -91 779 398 
Q 353 888 353 1747 
Q 353 2609 779 3096 
Q 1206 3584 1959 3584 
z
" transform="scale(0.015625)"/>
       <path id="DejaVuSans-67" d="M 2906 1791 
Q 2906 2416 2648 2759 
Q 2391 3103 1925 3103 
Q 1463 3103 1205 2759 
Q 947 2416 947 1791 
Q 947 1169 1205 825 
Q 1463 481 1925 481 
Q 2391 481 2648 825 
Q 2906 1169 2906 1791 
z
M 3481 434 
Q 3481 -459 3084 -895 
Q 2688 -1331 1869 -1331 
Q 1566 -1331 1297 -1286 
Q 1028 -1241 775 -1147 
L 775 -588 
Q 1028 -725 1275 -790 
Q 1522 -856 1778 -856 
Q 2344 -856 2625 -561 
Q 2906 -266 2906 331 
L 2906 616 
Q 2728 306 2450 153 
Q 2172 0 1784 0 
Q 1141 0 747 490 
Q 353 981 353 1791 
Q 353 2603 747 3093 
Q 1141 3584 1784 3584 
Q 2172 3584 2450 3431 
Q 2728 3278 2906 2969 
L 2906 3500 
L 3481 3500 
L 3481 434 
z
" transform="scale(0.015625)"/>
       <path id="DejaVuSans-65" d="M 3597 1894 
L 3597 1613 
L 953 1613 
Q 991 1019 1311 708 
Q 1631 397 2203 397 
Q 2534 397 2845 478 
Q 3156 559 3463 722 
L 3463 178 
Q 3153 47 2828 -22 
Q 2503 -91 2169 -91 
Q 1331 -91 842 396 
Q 353 884 353 1716 
Q 353 2575 817 3079 
Q 1281 3584 2069 3584 
Q 2775 3584 3186 3129 
Q 3597 2675 3597 1894 
z
M 3022 2063 
Q 3016 2534 2758 2815 
Q 2500 3097 2075 3097 
Q 1594 3097 1305 2825 
Q 1016 2553 972 2059 
L 3022 2063 
z
" transform="scale(0.015625)"/>
       <path id="DejaVuSans-73" d="M 2834 3397 
L 2834 2853 
Q 2591 2978 2328 3040 
Q 2066 3103 1784 3103 
Q 1356 3103 1142 2972 
Q 928 2841 928 2578 
Q 928 2378 1081 2264 
Q 1234 2150 1697 2047 
L 1894 2003 
Q 2506 1872 2764 1633 
Q 3022 1394 3022 966 
Q 3022 478 2636 193 
Q 2250 -91 1575 -91 
Q 1294 -91 989 -36 
Q 684 19 347 128 
L 347 722 
Q 666 556 975 473 
Q 1284 391 1588 391 
Q 1994 391 2212 530 
Q 2431 669 2431 922 
Q 2431 1156 2273 1281 
Q 2116 1406 1581 1522 
L 1381 1569 
Q 847 1681 609 1914 
Q 372 2147 372 2553 
Q 372 3047 722 3315 
Q 1072 3584 1716 3584 
Q 2034 3584 2315 3537 
Q 2597 3491 2834 3397 
z
" transform="scale(0.015625)"/>
       <path id="DejaVuSans-5b" d="M 550 4863 
L 1875 4863 
L 1875 4416 
L 1125 4416 
L 1125 -397 
L 1875 -397 
L 1875 -844 
L 550 -844 
L 550 4863 
z
" transform="scale(0.015625)"/>
       <path id="DejaVuSans-25" d="M 4653 2053 
Q 4381 2053 4226 1822 
Q 4072 1591 4072 1178 
Q 4072 772 4226 539 
Q 4381 306 4653 306 
Q 4919 306 5073 539 
Q 5228 772 5228 1178 
Q 5228 1588 5073 1820 
Q 4919 2053 4653 2053 
z
M 4653 2450 
Q 5147 2450 5437 2106 
Q 5728 1763 5728 1178 
Q 5728 594 5436 251 
Q 5144 -91 4653 -91 
Q 4153 -91 3862 251 
Q 3572 594 3572 1178 
Q 3572 1766 3864 2108 
Q 4156 2450 4653 2450 
z
M 1428 4353 
Q 1159 4353 1004 4120 
Q 850 3888 850 3481 
Q 850 3069 1003 2837 
Q 1156 2606 1428 2606 
Q 1700 2606 1854 2837 
Q 2009 3069 2009 3481 
Q 2009 3884 1853 4118 
Q 1697 4353 1428 4353 
z
M 4250 4750 
L 4750 4750 
L 1831 -91 
L 1331 -91 
L 4250 4750 
z
M 1428 4750 
Q 1922 4750 2215 4408 
Q 2509 4066 2509 3481 
Q 2509 2891 2217 2550 
Q 1925 2209 1428 2209 
Q 931 2209 642 2551 
Q 353 2894 353 3481 
Q 353 4063 643 4406 
Q 934 4750 1428 4750 
z
" transform="scale(0.015625)"/>
       <path id="DejaVuSans-5d" d="M 1947 4863 
L 1947 -844 
L 622 -844 
L 622 -397 
L 1369 -397 
L 1369 4416 
L 622 4416 
L 622 4863 
L 1947 4863 
z
" transform="scale(0.015625)"/>
      </defs>
      <use xlink:href="#DejaVuSans-54"/>
      <use xlink:href="#DejaVuSans-72" x="46.333984"/>
      <use xlink:href="#DejaVuSans-61" x="87.447266"/>
      <use xlink:href="#DejaVuSans-63" x="148.726562"/>
      <use xlink:href="#DejaVuSans-6b" x="203.707031"/>
      <use xlink:href="#DejaVuSans-20" x="261.617188"/>
      <use xlink:href="#DejaVuSans-70" x="293.404297"/>
      <use xlink:href="#DejaVuSans-72" x="356.880859"/>
      <use xlink:href="#DejaVuSans-6f" x="395.744141"/>
      <use xlink:href="#DejaVuSans-67" x="456.925781"/>
      <use xlink:href="#DejaVuSans-72" x="520.402344"/>
      <use xlink:href="#DejaVuSans-65" x="559.265625"/>
      <use xlink:href="#DejaVuSans-73" x="620.789062"/>
      <use xlink:href="#DejaVuSans-73" x="672.888672"/>
      <use xlink:href="#DejaVuSans-20" x="724.988281"/>
      <use xlink:href="#DejaVuSans-5b" x="756.775391"/>
      <use xlink:href="#DejaVuSans-25" x="795.789062"/>
      <use xlink:href="#DejaVuSans-5d" x="890.808594"/>
     </g>
    </g>
   </g>
   <g id="matplotlib.axis_2">
    <g id="ytick_1">
     <g id="line2d_13">
      <path d="M 27.040625 88.807745 
L 409.970625 88.807745 
" clip-path="url(#pe3b897c8d8)" style="fill: none; stroke: #b0b0b0; stroke-width: 0.8; stroke-linecap: square"/>
     </g>
     <g id="line2d_14">
      <defs>
       <path id="m9564465a0e" d="M 0 0 
L -3.5 0 
" style="stroke: #000000; stroke-width: 0.8"/>
      </defs>
      <g>
       <use xlink:href="#m9564465a0e" x="27.040625" y="88.807745" style="stroke: #000000; stroke-width: 0.8"/>
      </g>
     </g>
     <g id="text_8">
      <!-- 2 -->
      <g transform="translate(13.678125 92.606963)scale(0.1 -0.1)">
       <use xlink:href="#DejaVuSans-32"/>
      </g>
     </g>
    </g>
    <g id="ytick_2">
     <g id="line2d_15">
      <path d="M 27.040625 66.673131 
L 409.970625 66.673131 
" clip-path="url(#pe3b897c8d8)" style="fill: none; stroke: #b0b0b0; stroke-width: 0.8; stroke-linecap: square"/>
     </g>
     <g id="line2d_16">
      <g>
       <use xlink:href="#m9564465a0e" x="27.040625" y="66.673131" style="stroke: #000000; stroke-width: 0.8"/>
      </g>
     </g>
     <g id="text_9">
      <!-- 4 -->
      <g transform="translate(13.678125 70.47235)scale(0.1 -0.1)">
       <use xlink:href="#DejaVuSans-34"/>
      </g>
     </g>
    </g>
    <g id="ytick_3">
     <g id="line2d_17">
      <path d="M 27.040625 44.538518 
L 409.970625 44.538518 
" clip-path="url(#pe3b897c8d8)" style="fill: none; stroke: #b0b0b0; stroke-width: 0.8; stroke-linecap: square"/>
     </g>
     <g id="line2d_18">
      <g>
       <use xlink:href="#m9564465a0e" x="27.040625" y="44.538518" style="stroke: #000000; stroke-width: 0.8"/>
      </g>
     </g>
     <g id="text_10">
      <!-- 6 -->
      <g transform="translate(13.678125 48.337737)scale(0.1 -0.1)">
       <use xlink:href="#DejaVuSans-36"/>
      </g>
     </g>
    </g>
    <g id="ytick_4">
     <g id="line2d_19">
      <path d="M 27.040625 22.403905 
L 409.970625 22.403905 
" clip-path="url(#pe3b897c8d8)" style="fill: none; stroke: #b0b0b0; stroke-width: 0.8; stroke-linecap: square"/>
     </g>
     <g id="line2d_20">
      <g>
       <use xlink:href="#m9564465a0e" x="27.040625" y="22.403905" style="stroke: #000000; stroke-width: 0.8"/>
      </g>
     </g>
     <g id="text_11">
      <!-- 8 -->
      <g transform="translate(13.678125 26.203123)scale(0.1 -0.1)">
       <use xlink:href="#DejaVuSans-38"/>
      </g>
     </g>
    </g>
    <g id="text_12">
     <!-- Speed [m/s] -->
     <g transform="translate(7.598438 88.698432)rotate(-90)scale(0.1 -0.1)">
      <defs>
       <path id="DejaVuSans-53" d="M 3425 4513 
L 3425 3897 
Q 3066 4069 2747 4153 
Q 2428 4238 2131 4238 
Q 1616 4238 1336 4038 
Q 1056 3838 1056 3469 
Q 1056 3159 1242 3001 
Q 1428 2844 1947 2747 
L 2328 2669 
Q 3034 2534 3370 2195 
Q 3706 1856 3706 1288 
Q 3706 609 3251 259 
Q 2797 -91 1919 -91 
Q 1588 -91 1214 -16 
Q 841 59 441 206 
L 441 856 
Q 825 641 1194 531 
Q 1563 422 1919 422 
Q 2459 422 2753 634 
Q 3047 847 3047 1241 
Q 3047 1584 2836 1778 
Q 2625 1972 2144 2069 
L 1759 2144 
Q 1053 2284 737 2584 
Q 422 2884 422 3419 
Q 422 4038 858 4394 
Q 1294 4750 2059 4750 
Q 2388 4750 2728 4690 
Q 3069 4631 3425 4513 
z
" transform="scale(0.015625)"/>
       <path id="DejaVuSans-64" d="M 2906 2969 
L 2906 4863 
L 3481 4863 
L 3481 0 
L 2906 0 
L 2906 525 
Q 2725 213 2448 61 
Q 2172 -91 1784 -91 
Q 1150 -91 751 415 
Q 353 922 353 1747 
Q 353 2572 751 3078 
Q 1150 3584 1784 3584 
Q 2172 3584 2448 3432 
Q 2725 3281 2906 2969 
z
M 947 1747 
Q 947 1113 1208 752 
Q 1469 391 1925 391 
Q 2381 391 2643 752 
Q 2906 1113 2906 1747 
Q 2906 2381 2643 2742 
Q 2381 3103 1925 3103 
Q 1469 3103 1208 2742 
Q 947 2381 947 1747 
z
" transform="scale(0.015625)"/>
       <path id="DejaVuSans-6d" d="M 3328 2828 
Q 3544 3216 3844 3400 
Q 4144 3584 4550 3584 
Q 5097 3584 5394 3201 
Q 5691 2819 5691 2113 
L 5691 0 
L 5113 0 
L 5113 2094 
Q 5113 2597 4934 2840 
Q 4756 3084 4391 3084 
Q 3944 3084 3684 2787 
Q 3425 2491 3425 1978 
L 3425 0 
L 2847 0 
L 2847 2094 
Q 2847 2600 2669 2842 
Q 2491 3084 2119 3084 
Q 1678 3084 1418 2786 
Q 1159 2488 1159 1978 
L 1159 0 
L 581 0 
L 581 3500 
L 1159 3500 
L 1159 2956 
Q 1356 3278 1631 3431 
Q 1906 3584 2284 3584 
Q 2666 3584 2933 3390 
Q 3200 3197 3328 2828 
z
" transform="scale(0.015625)"/>
       <path id="DejaVuSans-2f" d="M 1625 4666 
L 2156 4666 
L 531 -594 
L 0 -594 
L 1625 4666 
z
" transform="scale(0.015625)"/>
      </defs>
      <use xlink:href="#DejaVuSans-53"/>
      <use xlink:href="#DejaVuSans-70" x="63.476562"/>
      <use xlink:href="#DejaVuSans-65" x="126.953125"/>
      <use xlink:href="#DejaVuSans-65" x="188.476562"/>
      <use xlink:href="#DejaVuSans-64" x="250"/>
      <use xlink:href="#DejaVuSans-20" x="313.476562"/>
      <use xlink:href="#DejaVuSans-5b" x="345.263672"/>
      <use xlink:href="#DejaVuSans-6d" x="384.277344"/>
      <use xlink:href="#DejaVuSans-2f" x="481.689453"/>
      <use xlink:href="#DejaVuSans-73" x="515.380859"/>
      <use xlink:href="#DejaVuSans-5d" x="567.480469"/>
     </g>
    </g>
   </g>
   <g id="line2d_21">
    <path d="M 44.446534 110.942358 
L 44.966665 107.750737 
L 44.966665 90.945085 
L 45.401747 86.735082 
L 45.401747 74.105072 
L 45.83683 69.895068 
L 45.83683 65.685065 
L 46.271912 61.475061 
L 46.271912 57.265058 
L 46.696117 53.055054 
L 46.696117 49.661621 
L 47.131199 46.863325 
L 47.131199 44.247377 
L 47.566281 41.799126 
L 47.566281 39.375144 
L 48.001363 37.899207 
L 48.425569 42.10921 
L 48.425569 46.319213 
L 48.860651 45.252004 
L 49.295733 45.730011 
L 49.295733 44.452456 
L 49.730815 42.859611 
L 49.730815 41.491209 
L 50.15502 40.43016 
L 50.590103 44.640164 
L 50.590103 48.850167 
L 51.025185 53.060171 
L 51.025185 60.972537 
L 51.460267 57.949475 
L 51.460267 54.83724 
L 51.884472 54.210671 
L 51.884472 55.158985 
L 52.319554 55.892375 
L 52.319554 55.18964 
L 52.754637 55.69548 
L 52.754637 55.475186 
L 53.189719 56.082163 
L 53.189719 54.908479 
L 53.613924 50.703169 
L 53.613924 49.143947 
L 54.484088 54.426506 
L 54.919171 53.965738 
L 54.919171 52.373956 
L 55.343376 49.051467 
L 55.343376 46.563031 
L 55.778458 45.678454 
L 55.778458 47.257082 
L 56.21354 49.011298 
L 56.21354 50.398717 
L 56.648622 49.386502 
L 56.648622 47.046477 
L 57.50791 41.348427 
L 57.50791 38.896736 
L 57.942992 38.297064 
L 58.378074 42.507067 
L 58.378074 46.717071 
L 58.802279 45.827504 
L 58.802279 45.156439 
L 59.672444 41.163931 
L 60.107526 45.373935 
L 60.107526 49.507727 
L 60.531731 48.593844 
L 60.531731 46.589217 
L 60.966813 45.043354 
L 61.401895 44.311351 
L 61.836978 46.184978 
L 61.836978 49.895316 
L 62.261183 52.210923 
L 62.696265 56.512515 
L 63.131347 55.714867 
L 63.131347 53.349956 
L 63.566429 49.303924 
L 63.566429 46.884824 
L 63.990635 46.237511 
L 64.425717 49.444684 
L 64.425717 52.019804 
L 64.860799 53.340504 
L 64.860799 54.923721 
L 65.295881 55.886278 
L 65.295881 54.468607 
L 65.720086 50.266321 
L 65.720086 46.260777 
L 66.155168 42.957222 
L 66.155168 41.139554 
L 67.025333 39.106541 
L 67.025333 37.3437 
L 67.449538 36.479129 
L 67.88462 40.689132 
L 67.88462 44.899136 
L 68.319702 46.317868 
L 68.319702 44.887087 
L 68.754785 44.596332 
L 69.17899 43.525404 
L 69.17899 42.27744 
L 69.614072 41.027471 
L 70.484236 49.447478 
L 70.484236 53.657482 
L 70.908442 57.867485 
L 70.908442 57.346848 
L 71.343524 54.660889 
L 71.343524 53.334034 
L 71.778606 57.544037 
L 71.778606 56.505616 
L 72.213688 55.892158 
L 72.213688 55.247719 
L 72.637893 51.047488 
L 73.072976 49.054865 
L 73.072976 52.957147 
L 73.508058 54.081162 
L 73.508058 56.951777 
L 73.94314 59.454404 
L 73.94314 58.950636 
L 73.94314 54.740632 
L 74.802427 46.409417 
L 74.802427 43.213469 
L 75.23751 41.007244 
L 75.23751 40.052394 
L 75.672592 39.36909 
L 76.096797 38.162424 
L 76.096797 36.465415 
L 76.966961 44.885422 
L 76.966961 46.708741 
L 77.402043 45.257898 
L 77.402043 43.75555 
L 78.261331 41.381176 
L 78.696413 40.869626 
L 79.131495 39.886263 
L 79.131495 39.469598 
L 79.5557 42.549549 
L 79.5557 46.759553 
L 79.990783 50.969556 
L 79.990783 55.17956 
L 80.425865 57.255213 
L 80.425865 54.463981 
L 80.860947 52.670577 
L 80.860947 56.88058 
L 81.285152 56.437284 
L 81.285152 55.923341 
L 81.720234 55.322799 
L 81.720234 54.476529 
L 82.155317 50.322556 
L 82.155317 48.527005 
L 83.014604 56.59829 
L 83.014604 58.404451 
L 83.449686 57.945394 
L 83.449686 53.735391 
L 83.884768 51.328295 
L 83.884768 49.525337 
L 84.744056 41.279754 
L 85.179138 40.298987 
L 85.179138 38.816415 
L 85.61422 37.034859 
L 86.049302 36.087813 
L 86.049302 40.297817 
L 86.473507 44.50782 
L 86.90859 45.372 
L 86.90859 43.625245 
L 87.343672 43.503475 
L 87.767877 42.79724 
L 87.767877 41.921808 
L 88.202959 40.886321 
L 88.202959 39.991165 
L 89.073124 48.411171 
L 89.073124 56.831178 
L 89.497329 58.720002 
L 89.497329 55.680283 
L 89.932411 53.382009 
L 89.932411 57.45722 
L 90.367493 56.672485 
L 90.367493 56.218572 
L 91.226781 55.373286 
L 91.226781 51.184369 
L 91.661863 49.167247 
L 91.661863 50.663357 
L 92.096945 52.958424 
L 92.532027 53.729028 
L 92.532027 54.460337 
L 92.956232 54.403549 
L 92.956232 52.29764 
L 93.391315 48.503437 
L 93.391315 45.082807 
L 93.826397 43.205047 
L 93.826397 42.478229 
L 94.261479 42.302828 
L 94.685684 41.751687 
L 94.685684 39.669578 
L 95.120766 37.627797 
L 95.555849 36.544985 
L 95.555849 35.275511 
L 95.990931 34.655412 
L 96.415136 38.865416 
L 96.415136 43.075419 
L 96.850218 44.267317 
L 96.850218 44.18803 
L 97.2853 44.124135 
L 97.720382 43.906377 
L 97.720382 43.490088 
L 98.155465 43.301769 
L 98.155465 44.950398 
L 98.57967 46.447775 
L 99.014752 49.956516 
L 99.014752 52.579257 
L 99.449834 55.472798 
L 99.449834 58.744092 
L 99.449834 58.471198 
L 99.874039 55.560621 
L 99.874039 52.987537 
L 100.309122 51.785747 
L 100.744204 51.387027 
L 100.744204 50.989695 
L 101.179286 50.6421 
L 101.179286 50.330546 
L 101.603491 50.673918 
L 101.603491 54.883921 
L 102.038573 59.093925 
L 102.038573 63.303928 
L 102.473656 67.513931 
L 102.473656 73.335052 
L 102.908738 75.013447 
L 102.908738 78.563555 
L 103.332943 82.469645 
L 103.332943 82.150115 
L 103.332943 81.117271 
L 103.778902 79.213086 
L 104.203107 78.558561 
L 104.616435 78.854479 
L 104.616435 83.064482 
L 105.029764 87.274485 
L 105.029764 94.756159 
L 105.029764 94.529615 
L 105.464846 93.905236 
L 105.464846 83.068957 
L 105.899928 80.606772 
L 105.899928 74.628252 
L 106.33501 70.442109 
L 106.33501 62.022102 
L 106.770092 58.090609 
L 106.770092 55.204998 
L 107.205175 52.740713 
L 107.205175 50.954148 
L 107.62938 48.435932 
L 107.62938 45.730322 
L 108.499544 40.337409 
L 108.499544 38.273595 
L 109.358831 46.536651 
L 109.358831 45.414354 
L 109.793914 46.031992 
L 109.793914 44.420804 
L 110.653201 41.147839 
L 110.653201 44.973676 
L 111.088283 49.183679 
L 111.088283 53.393683 
L 111.523365 57.603686 
L 111.523365 57.318441 
L 111.958448 54.194655 
L 111.958448 51.874593 
L 112.382653 50.9425 
L 112.382653 53.408684 
L 112.817735 52.665251 
L 112.817735 53.78913 
L 113.252817 55.176217 
L 113.252817 59.243983 
L 113.687899 58.513945 
L 113.687899 57.286846 
L 114.112105 54.357288 
L 114.112105 50.153235 
L 114.547187 47.943031 
L 114.982269 50.874985 
L 114.982269 53.978963 
L 115.406474 53.836928 
L 115.406474 46.983784 
L 116.254884 45.605207 
L 116.254884 45.138379 
L 116.49418 44.630393 
L 116.49418 43.806829 
L 116.700844 41.506671 
L 117.135926 38.913197 
L 117.135926 37.878933 
L 117.560131 42.088937 
L 117.560131 46.29894 
L 117.995213 45.320269 
L 118.430295 45.296987 
L 118.430295 44.237117 
L 118.865378 42.819763 
L 118.865378 41.391562 
L 119.289583 40.441961 
L 119.724665 44.560162 
L 119.724665 48.770166 
L 120.159747 52.980169 
L 120.159747 57.190173 
L 120.583952 60.414341 
L 120.583952 57.35515 
L 121.019035 53.883093 
L 121.454117 57.174829 
L 121.454117 56.615442 
L 121.889199 56.053219 
L 121.889199 55.695675 
L 122.313404 55.889684 
L 122.313404 55.722118 
L 122.748486 51.51362 
L 122.748486 49.351379 
L 123.183569 50.713843 
L 123.183569 53.041515 
L 123.618651 54.112535 
L 123.618651 53.972769 
L 124.042856 53.758011 
L 124.042856 52.128659 
L 124.477938 48.796044 
L 124.477938 45.907126 
L 124.91302 44.660712 
L 125.348103 44.873203 
L 125.772308 43.98867 
L 125.772308 41.972539 
L 126.642472 37.669023 
L 126.642472 36.324692 
L 127.077554 40.534695 
L 127.077554 44.744699 
L 127.501759 44.099375 
L 127.936842 44.679946 
L 127.936842 43.682552 
L 128.807006 40.62268 
L 129.231211 44.832683 
L 129.231211 49.042687 
L 129.666293 53.25269 
L 129.666293 57.462694 
L 130.101376 57.285398 
L 130.101376 54.57579 
L 130.536458 52.934626 
L 130.536458 54.001784 
L 130.960663 54.876468 
L 130.960663 54.500451 
L 131.395745 54.373884 
L 131.395745 54.82066 
L 131.830827 55.587045 
L 131.830827 51.544947 
L 132.26591 48.188615 
L 132.690115 50.095764 
L 132.690115 51.793255 
L 133.125197 51.784724 
L 133.125197 51.967553 
L 133.560279 52.511656 
L 133.995361 52.17543 
L 133.995361 51.980744 
L 134.419566 50.944926 
L 134.419566 49.370307 
L 134.854649 47.783158 
L 134.854649 46.497269 
L 135.289731 44.278102 
L 135.289731 41.900824 
L 136.149018 37.624421 
L 136.149018 36.577845 
L 137.019183 44.997851 
L 137.019183 43.780698 
L 137.454265 44.098163 
L 137.454265 42.672153 
L 137.87847 41.293467 
L 138.313552 40.696775 
L 138.313552 41.024183 
L 138.748634 45.234187 
L 138.748634 49.44419 
L 139.183717 48.449211 
L 139.183717 48.076765 
L 139.607922 48.653198 
L 140.043004 53.197176 
L 140.478086 53.16393 
L 140.478086 48.953927 
L 140.913168 44.812513 
L 140.913168 41.562655 
L 141.337374 39.424991 
L 141.772456 38.390734 
L 141.772456 39.172487 
L 142.207538 39.631538 
L 142.64262 43.668814 
L 142.64262 47.756974 
L 143.066825 51.803457 
L 143.066825 55.77935 
L 143.501908 55.837694 
L 143.501908 55.415622 
L 143.93699 54.820332 
L 143.93699 54.156305 
L 144.372072 54.852744 
L 144.372072 54.602627 
L 144.796277 53.808382 
L 144.796277 52.988191 
L 145.231359 52.385494 
L 145.231359 52.191991 
L 145.655564 53.220775 
L 145.655564 56.733488 
L 146.07977 60.056429 
L 146.07977 59.811969 
L 146.514852 55.862518 
L 146.514852 52.257195 
L 146.960811 49.681358 
L 146.960811 48.153457 
L 147.395893 47.30223 
L 147.809221 50.623237 
L 147.809221 54.742769 
L 148.233427 53.085931 
L 148.233427 48.911572 
L 148.668509 45.509826 
L 148.668509 43.208475 
L 149.103591 46.449099 
L 149.538673 48.774523 
L 149.538673 47.266914 
L 149.973755 43.957239 
L 149.973755 41.819484 
L 150.833043 49.918908 
L 150.833043 48.073046 
L 151.268125 47.875478 
L 151.268125 46.251537 
L 151.703207 44.349106 
L 151.703207 42.714204 
L 152.127412 41.85114 
L 152.562494 46.061144 
L 152.562494 50.271147 
L 152.997577 54.481151 
L 152.997577 58.691154 
L 153.432659 58.356891 
L 153.432659 53.205591 
L 153.856864 56.49403 
L 153.856864 55.739963 
L 154.291946 55.073145 
L 154.291946 54.747968 
L 154.727028 54.544334 
L 155.162111 55.298547 
L 155.162111 51.088544 
L 155.586316 47.971394 
L 155.586316 46.34829 
L 156.021398 45.585763 
L 156.021398 45.130158 
L 156.45648 45.237181 
L 156.45648 45.457512 
L 156.880685 44.834089 
L 157.315768 47.435211 
L 157.75085 46.856053 
L 157.75085 45.403444 
L 158.185932 44.710319 
L 158.185932 44.719388 
L 159.045219 46.354313 
L 159.045219 45.980106 
L 159.480302 46.853497 
L 159.480302 48.649496 
L 159.915384 50.426626 
L 160.350466 50.871905 
L 160.350466 50.621807 
L 160.774671 50.795949 
L 160.774671 53.134817 
L 161.209753 51.327239 
L 161.633958 52.924694 
L 161.633958 53.522671 
L 162.069041 53.416412 
L 162.069041 55.066188 
L 162.515 55.010406 
L 162.515 55.959762 
L 162.950082 57.667079 
L 163.36341 58.369478 
L 163.36341 56.263158 
L 164.200943 53.403161 
L 164.200943 52.378415 
L 164.646903 51.504987 
L 165.081985 53.723364 
L 165.081985 56.306612 
L 165.50619 57.46343 
L 165.50619 56.022893 
L 165.941272 53.781102 
L 165.941272 51.837124 
L 166.365477 50.427709 
L 166.365477 49.628498 
L 166.80056 49.018299 
L 166.80056 48.416458 
L 167.235642 47.946946 
L 167.235642 47.991838 
L 167.681601 47.291333 
L 168.116683 46.030609 
L 168.116683 44.562934 
L 168.540888 44.020661 
L 168.540888 43.097745 
L 169.389299 38.009677 
L 169.813504 39.563442 
L 170.237709 38.581339 
L 170.237709 36.706331 
L 170.672791 35.890257 
L 171.107873 40.10026 
L 171.107873 44.310264 
L 171.542956 46.518199 
L 171.542956 44.529337 
L 171.978038 44.322359 
L 171.978038 43.239827 
L 172.848202 40.516446 
L 173.283284 44.72645 
L 173.283284 48.936453 
L 173.718367 53.146457 
L 173.718367 57.257981 
L 174.153449 58.491295 
L 174.153449 55.661077 
L 174.577654 53.712063 
L 175.012736 57.21227 
L 175.012736 56.910754 
L 175.436941 56.440079 
L 175.436941 55.806961 
L 175.872024 54.391278 
L 175.872024 50.460981 
L 176.307106 50.719506 
L 176.307106 54.328534 
L 176.731311 56.926521 
L 176.731311 59.561483 
L 177.166393 58.439459 
L 177.166393 55.345116 
L 177.601475 53.530268 
L 177.601475 52.085562 
L 178.025681 51.618656 
L 178.025681 52.220749 
L 178.460763 54.076534 
L 178.895845 53.653051 
L 178.895845 52.9305 
L 179.766009 48.76454 
L 179.766009 46.376266 
L 180.201092 44.78341 
L 180.201092 43.739989 
L 180.636174 43.302396 
L 181.060379 41.389322 
L 181.060379 45.077507 
L 181.495461 49.28751 
L 181.495461 53.497513 
L 181.930543 57.766863 
L 182.354748 56.535286 
L 182.354748 57.591535 
L 182.789831 56.698003 
L 182.789831 53.264269 
L 183.224913 50.902453 
L 183.224913 49.194722 
L 183.649118 47.443459 
L 183.649118 45.350505 
L 184.0842 43.945079 
L 184.0842 45.556773 
L 184.943488 51.024138 
L 184.943488 53.936748 
L 185.37857 53.433327 
L 185.37857 52.491194 
L 185.813652 51.658231 
L 185.813652 50.957298 
L 186.248734 49.971426 
L 186.248734 51.512119 
L 186.683816 51.288437 
L 186.683816 50.761805 
L 187.108022 50.219575 
L 187.108022 49.337389 
L 187.543104 48.815328 
L 187.543104 49.807054 
L 187.978186 49.67698 
L 187.978186 48.939791 
L 188.413268 51.513947 
L 188.837473 51.491274 
L 188.837473 50.892472 
L 189.272556 49.492891 
L 189.272556 48.646138 
L 189.707638 49.918831 
L 189.707638 52.276714 
L 190.131843 52.145063 
L 190.131843 50.712057 
L 191.002007 49.376396 
L 191.002007 47.168862 
L 191.437089 47.106352 
L 191.437089 49.417529 
L 191.872172 52.446292 
L 191.872172 55.598786 
L 192.296377 57.115606 
L 192.296377 56.841869 
L 192.731459 55.954974 
L 192.731459 53.847285 
L 193.166541 53.622273 
L 193.166541 54.852807 
L 193.590746 54.71263 
L 193.590746 55.272974 
L 194.025829 55.735924 
L 194.025829 55.60618 
L 194.450034 55.255585 
L 194.450034 52.849227 
L 194.874239 51.790958 
L 195.298444 51.157362 
L 195.298444 51.849279 
L 195.75528 54.779903 
L 195.75528 56.773722 
L 196.190363 57.060024 
L 196.190363 53.253184 
L 196.614568 56.073967 
L 196.614568 55.927147 
L 197.038773 55.434577 
L 197.038773 54.696551 
L 197.473855 53.916657 
L 197.908937 56.6882 
L 197.908937 56.455979 
L 198.344019 56.319396 
L 198.344019 59.554322 
L 198.768225 58.839112 
L 198.768225 57.457948 
L 199.203307 55.341959 
L 199.638389 54.936061 
L 200.073471 53.868322 
L 200.073471 52.342139 
L 200.497676 51.150068 
L 200.497676 50.21681 
L 200.921882 49.766437 
L 200.921882 49.505798 
L 201.346087 49.738661 
L 201.770292 50.346255 
L 202.205374 50.332155 
L 202.205374 50.530445 
L 202.651333 50.360173 
L 202.651333 48.584881 
L 203.097293 49.58406 
L 203.097293 48.057606 
L 203.95658 43.487243 
L 203.95658 41.841935 
L 204.380785 41.362672 
L 204.80499 40.658048 
L 204.80499 40.399993 
L 205.229195 41.015087 
L 205.229195 43.538176 
L 205.664278 47.74818 
L 206.09936 46.161991 
L 206.09936 45.497903 
L 206.534442 49.099474 
L 206.534442 52.088267 
L 206.969524 47.888733 
L 206.969524 45.920492 
L 207.393729 45.873252 
L 207.393729 45.724489 
L 207.828812 45.010145 
L 208.263894 42.34139 
L 208.263894 39.490643 
L 208.688099 37.245667 
L 209.123181 36.786039 
L 209.123181 37.551205 
L 209.982468 45.820728 
L 209.982468 50.030731 
L 210.417551 54.240735 
L 210.417551 58.450738 
L 210.852633 59.686364 
L 210.852633 58.421579 
L 211.276838 55.548505 
L 211.276838 52.211454 
L 211.71192 49.859368 
L 211.71192 48.056481 
L 212.147002 46.923701 
L 212.147002 46.151232 
L 212.582085 45.876487 
L 213.017167 46.410083 
L 213.017167 47.751191 
L 213.452249 48.520037 
L 213.452249 50.11018 
L 213.876454 51.576941 
L 213.876454 52.60481 
L 214.311536 53.706273 
L 214.311536 55.072772 
L 214.735742 55.725381 
L 214.735742 56.652392 
L 215.170824 56.731048 
L 215.170824 56.951952 
L 215.605906 56.49529 
L 215.605906 56.116567 
L 216.040988 55.917344 
L 216.040988 56.898346 
L 216.454316 57.297778 
L 216.889398 57.538685 
L 216.889398 59.241181 
L 217.324481 59.093109 
L 217.324481 57.045868 
L 217.737809 55.498742 
L 218.162014 54.41159 
L 218.162014 53.885538 
L 218.586219 53.632536 
L 218.586219 55.449814 
L 219.021301 55.449893 
L 219.021301 56.19548 
L 219.456384 56.74572 
L 219.456384 57.798826 
L 220.326548 51.505255 
L 220.326548 49.340863 
L 220.750753 48.102476 
L 220.750753 47.299737 
L 221.185835 47.106233 
L 221.185835 47.197432 
L 221.620917 47.977693 
L 222.034246 46.594692 
L 222.034246 44.520495 
L 222.469328 43.042343 
L 222.469328 42.224684 
L 222.90441 42.125887 
L 223.339492 42.511635 
L 223.339492 46.598726 
L 223.763697 50.808729 
L 223.763697 55.018733 
L 224.19878 53.738761 
L 224.19878 52.036025 
L 224.633862 49.324394 
L 224.633862 46.983857 
L 225.068944 45.622514 
L 225.493149 44.80617 
L 225.493149 43.889254 
L 225.928231 42.765391 
L 225.928231 41.497744 
L 226.363314 40.536233 
L 226.798396 40.086882 
L 226.798396 40.087489 
L 227.222601 40.850167 
L 227.657683 40.454636 
L 227.657683 39.795636 
L 228.081888 38.798077 
L 228.081888 37.818139 
L 228.952053 36.113704 
L 229.387135 37.883785 
L 229.81134 40.687196 
L 229.81134 44.241077 
L 230.246422 48.451081 
L 230.246422 46.131832 
L 230.670627 43.483322 
L 231.10571 42.032636 
L 231.10571 46.202659 
L 231.540792 49.798064 
L 231.540792 45.588061 
L 231.975874 44.177218 
L 232.410956 44.409706 
L 232.410956 45.275764 
L 232.835161 48.226447 
L 232.835161 44.414834 
L 233.270244 42.737439 
L 233.270244 44.398004 
L 233.705326 45.110157 
L 234.129531 41.192523 
L 234.129531 38.212945 
L 234.564613 37.065406 
L 234.999695 37.773393 
L 234.999695 37.262611 
L 235.434777 37.488682 
L 235.858983 41.698685 
L 235.858983 39.228726 
L 236.729147 34.332993 
L 236.729147 32.660592 
L 237.164229 32.666401 
L 237.588434 36.317915 
L 238.023517 35.104191 
L 238.458599 39.314194 
L 238.458599 43.524198 
L 238.882804 45.352641 
L 239.317886 43.990766 
L 239.317886 43.203456 
L 239.752968 42.094633 
L 239.752968 41.101883 
L 240.177174 40.503918 
L 240.612256 40.111203 
L 240.612256 39.532399 
L 241.047338 43.71513 
L 241.047338 47.925133 
L 241.906625 56.34514 
L 241.906625 60.185503 
L 241.906625 57.429615 
L 242.341707 54.667612 
L 242.341707 53.445933 
L 242.77679 55.740418 
L 242.77679 57.678463 
L 243.211872 58.256671 
L 243.211872 54.618006 
L 243.636077 52.33739 
L 243.636077 51.54287 
L 244.071159 51.245962 
L 244.506241 50.652738 
L 244.506241 50.160713 
L 244.941324 49.341852 
L 244.941324 48.343758 
L 245.376406 50.591449 
L 245.376406 48.677182 
L 245.800611 46.502779 
L 245.800611 44.426012 
L 246.670775 41.204192 
L 246.670775 39.571805 
L 247.094981 38.852556 
L 247.094981 40.960283 
L 247.519186 43.858266 
L 247.943391 43.685298 
L 247.943391 41.995697 
L 248.367596 40.510424 
L 248.802678 39.422475 
L 248.802678 43.563281 
L 249.23776 47.773285 
L 249.23776 51.185613 
L 249.672843 53.66045 
L 249.672843 49.450447 
L 250.107925 49.383736 
L 250.107925 51.634139 
L 250.543007 53.356247 
L 250.543007 50.763472 
L 250.978089 47.930442 
L 251.413171 46.163784 
L 251.837377 46.065366 
L 251.837377 47.765155 
L 252.272459 47.29472 
L 252.707541 44.620997 
L 252.707541 47.525249 
L 253.142623 49.663049 
L 253.142623 50.338475 
L 253.566828 51.2923 
L 254.001911 49.442908 
L 254.001911 46.267794 
L 254.861198 40.359272 
L 254.861198 38.225906 
L 255.29628 40.83235 
L 255.731362 45.042354 
L 255.731362 44.928926 
L 256.155568 45.012558 
L 256.155568 43.962832 
L 257.025732 41.064596 
L 257.025732 40.064581 
L 257.460814 44.188466 
L 257.460814 48.398469 
L 257.885019 52.608473 
L 257.885019 56.818476 
L 258.320101 60.580473 
L 258.320101 62.093963 
L 258.755184 59.441771 
L 258.755184 56.016775 
L 259.190266 60.042619 
L 259.190266 59.013523 
L 259.614471 58.443864 
L 259.614471 57.894166 
L 260.049553 57.113319 
L 260.049553 52.903315 
L 260.484635 50.213456 
L 260.484635 51.592352 
L 260.919718 55.76852 
L 261.3548 56.345984 
L 261.3548 55.4404 
L 261.779005 52.363345 
L 261.779005 48.256619 
L 262.214087 44.887107 
L 262.649169 42.419643 
L 262.649169 41.725931 
L 263.084252 43.95687 
L 263.084252 47.515366 
L 263.508457 46.154302 
L 263.943539 43.725558 
L 263.943539 41.037989 
L 264.378621 38.548767 
L 264.378621 36.638764 
L 265.672991 32.468657 
L 265.672991 36.67866 
L 266.108073 40.888664 
L 266.543155 43.938362 
L 266.543155 43.683784 
L 266.96736 43.180051 
L 266.96736 42.557674 
L 267.837525 40.896682 
L 267.837525 40.46847 
L 268.272607 41.890018 
L 268.272607 44.038648 
L 269.131894 48.608639 
L 269.131894 44.398635 
L 269.566976 41.887334 
L 269.566976 40.862954 
L 269.991182 41.602789 
L 270.426264 40.978881 
L 270.426264 40.42111 
L 270.861346 40.342019 
L 271.296428 40.944583 
L 271.296428 45.154587 
L 271.73151 49.36459 
L 271.73151 53.175385 
L 272.166593 51.54813 
L 272.166593 49.943963 
L 272.601675 49.76166 
L 273.015003 51.775287 
L 273.015003 53.449121 
L 273.428331 54.983908 
L 273.863413 54.957984 
L 273.863413 54.622589 
L 274.298495 56.302091 
L 274.298495 58.162464 
L 274.733578 57.435787 
L 274.733578 56.886767 
L 275.16866 57.401016 
L 275.16866 55.686035 
L 275.603742 58.24255 
L 275.603742 61.771808 
L 276.027947 64.633706 
L 276.027947 63.319545 
L 276.463029 62.085278 
L 276.463029 64.196819 
L 276.887235 64.088724 
L 276.887235 61.983318 
L 277.322317 60.486449 
L 277.322317 59.419521 
L 277.768276 58.499192 
L 277.768276 58.019832 
L 278.203358 57.307167 
L 278.203358 56.753144 
L 278.616686 56.565701 
L 278.616686 56.377767 
L 279.019137 59.510385 
L 279.019137 58.631699 
L 279.443343 56.60775 
L 279.443343 55.432698 
L 280.335261 51.784754 
L 280.335261 52.492053 
L 280.759466 49.366605 
L 280.759466 47.096877 
L 281.183671 45.72866 
L 281.607877 46.370874 
L 282.042959 50.418286 
L 282.042959 51.493551 
L 282.478041 50.312977 
L 282.478041 49.224079 
L 282.924 48.759956 
L 282.924 49.576697 
L 283.359082 54.143425 
L 283.783288 54.989747 
L 283.783288 55.482347 
L 284.207493 56.154273 
L 284.207493 57.885521 
L 284.631698 57.481439 
L 285.055903 56.914349 
L 285.055903 56.499269 
L 285.055903 57.867861 
L 285.490985 56.882285 
L 285.490985 56.228599 
L 285.936944 55.851112 
L 286.393781 55.808488 
L 286.393781 58.212527 
L 286.817986 60.722982 
L 286.817986 62.925754 
L 287.231314 62.726171 
L 287.231314 65.419347 
L 287.644642 69.629351 
L 287.644642 65.419347 
L 288.079724 61.209344 
L 288.079724 58.216729 
L 288.503929 55.651043 
L 288.503929 54.204688 
L 288.939012 53.922863 
L 288.939012 55.711327 
L 289.374094 56.264148 
L 289.374094 57.881565 
L 289.809176 54.034845 
L 289.809176 49.824842 
L 290.233381 45.756855 
L 290.233381 42.834087 
L 291.103546 38.86292 
L 291.103546 37.132846 
L 291.538628 36.12239 
L 291.97371 40.332393 
L 291.97371 44.542397 
L 292.408792 43.720188 
L 292.408792 44.665897 
L 293.26808 42.116423 
L 293.26808 41.406025 
L 293.703162 41.321056 
L 293.703162 43.398396 
L 294.127367 45.688005 
L 294.562449 47.013605 
L 294.562449 47.647046 
L 294.997531 51.857049 
L 294.997531 53.385688 
L 295.421737 49.223776 
L 295.421737 45.214387 
L 295.856819 42.300635 
L 296.291901 40.377828 
L 296.291901 39.51435 
L 296.726983 41.245919 
L 296.726983 44.890265 
L 297.151188 43.645264 
L 297.586271 47.07379 
L 297.586271 51.283793 
L 298.03223 52.704369 
L 298.03223 53.178075 
L 298.467312 53.777729 
L 298.467312 54.340745 
L 299.326599 56.808779 
L 299.326599 55.782995 
L 299.750804 54.694455 
L 299.750804 54.147655 
L 300.164133 53.77719 
L 300.588338 54.321012 
L 300.588338 57.752472 
L 301.02342 59.621786 
L 301.02342 62.489238 
L 301.480256 62.116223 
L 301.480256 60.535643 
L 301.915338 64.745647 
L 301.915338 68.95565 
L 301.915338 68.654157 
L 302.339544 66.199785 
L 302.339544 61.989781 
L 302.763749 58.110174 
L 302.763749 56.845215 
L 303.187954 58.5908 
L 303.187954 60.285021 
L 303.612159 59.711184 
L 303.612159 58.609159 
L 304.047241 54.50079 
L 304.047241 50.290787 
L 304.482323 46.980111 
L 304.482323 44.6806 
L 304.917406 43.384581 
L 305.352488 42.745339 
L 305.352488 46.93086 
L 305.78757 51.140864 
L 305.78757 54.457963 
L 306.211775 53.384993 
L 306.211775 51.713222 
L 306.646857 49.483558 
L 306.646857 47.48739 
L 307.08194 46.13295 
L 307.517022 45.804466 
L 307.941227 44.904442 
L 307.941227 44.109643 
L 308.376309 43.317994 
L 308.811391 44.764745 
L 309.246474 47.075885 
L 309.246474 49.873917 
L 309.681556 52.059025 
L 309.681556 53.253941 
L 310.116638 54.348893 
L 310.116638 55.157475 
L 310.540843 56.062708 
L 310.540843 58.303464 
L 310.965048 58.023813 
L 310.965048 55.796811 
L 311.400131 55.121215 
L 311.400131 54.751532 
L 311.824336 54.591276 
L 311.824336 56.155191 
L 312.259418 55.727548 
L 312.259418 53.978012 
L 312.6945 52.243162 
L 312.6945 49.712647 
L 313.129582 48.004419 
L 313.129582 46.98959 
L 313.564664 45.253557 
L 313.564664 46.1544 
L 313.999747 45.470338 
L 314.434829 43.856462 
L 314.434829 42.929385 
L 314.859034 43.362869 
L 314.859034 46.231914 
L 315.283239 48.091757 
L 315.707444 47.600946 
L 315.707444 46.309302 
L 316.142527 44.319768 
L 316.142527 47.077471 
L 316.577609 46.212595 
L 317.001814 50.075042 
L 317.436896 49.176944 
L 317.871978 49.150007 
L 317.871978 50.919223 
L 318.307061 55.129226 
L 318.307061 54.859334 
L 318.742143 54.761447 
L 318.742143 54.926987 
L 319.166348 54.974785 
L 319.166348 55.428493 
L 319.60143 51.218489 
L 319.60143 47.064639 
L 320.036512 44.498988 
L 320.036512 43.280711 
L 320.460717 42.566597 
L 320.8958 42.213194 
L 320.8958 45.020366 
L 321.330882 48.306289 
L 321.330882 50.922027 
L 321.765964 52.766797 
L 321.765964 54.287135 
L 322.190169 54.557582 
L 322.190169 54.472401 
L 322.625251 53.810992 
L 322.625251 53.403095 
L 323.495416 52.977028 
L 323.495416 54.731073 
L 323.930498 56.280886 
L 323.930498 59.291444 
L 324.354703 61.778717 
L 324.354703 63.472806 
L 324.789785 64.249436 
L 324.789785 64.727552 
L 325.213991 66.025104 
L 325.213991 67.14124 
L 325.638196 67.057525 
L 326.073278 66.696647 
L 326.073278 66.410998 
L 326.50836 69.815923 
L 326.50836 69.807935 
L 326.943442 71.35468 
L 326.943442 76.908804 
L 327.389402 74.896136 
L 327.824484 75.45246 
L 327.824484 75.986806 
L 328.237812 74.167079 
L 328.237812 72.43966 
L 328.640263 71.41694 
L 328.640263 70.816396 
L 328.640263 72.754336 
L 329.064468 72.044672 
L 329.064468 72.156688 
L 329.510427 71.037975 
L 329.510427 66.607415 
L 329.94551 62.397411 
L 329.94551 58.187408 
L 330.380592 53.977404 
L 330.380592 49.767401 
L 330.815674 46.398965 
L 330.815674 43.523114 
L 331.674961 38.739382 
L 331.674961 42.949385 
L 332.099166 47.159389 
L 332.099166 45.481146 
L 332.534249 45.347283 
L 332.969331 43.607038 
L 332.969331 42.159368 
L 333.393536 40.825728 
L 333.393536 45.035731 
L 334.2637 53.455738 
L 334.2637 57.665742 
L 334.2637 55.342436 
L 334.698783 52.461313 
L 334.698783 51.129798 
L 335.133865 50.6887 
L 335.993152 53.386335 
L 335.993152 55.812233 
L 336.428234 60.022237 
L 336.428234 59.046132 
L 336.863317 58.427659 
L 336.863317 55.983478 
L 337.298399 51.773475 
L 337.722604 49.234497 
L 337.722604 48.08583 
L 338.157686 47.807504 
L 338.157686 47.563958 
L 338.592768 47.308318 
L 338.592768 46.854682 
L 339.016973 45.730982 
L 339.016973 46.464752 
L 339.452056 46.23012 
L 339.887138 46.135015 
L 339.887138 44.083609 
L 340.32222 42.511751 
L 340.32222 41.416206 
L 340.746425 41.431575 
L 341.181507 41.245148 
L 341.181507 42.909513 
L 341.61659 42.505106 
L 342.040795 42.419435 
L 342.040795 43.904734 
L 342.475877 45.327589 
L 342.475877 46.68069 
L 342.910959 45.513145 
L 343.346041 45.143616 
L 343.781124 45.50054 
L 343.781124 46.474744 
L 344.216206 47.303742 
L 344.216206 48.37469 
L 344.640411 48.925461 
L 344.640411 49.117075 
L 345.064616 49.598792 
L 345.488821 50.259509 
L 345.488821 52.020524 
L 345.923904 52.016323 
L 345.923904 51.886688 
L 346.358986 54.288212 
L 346.794068 58.087138 
L 346.794068 57.578038 
L 347.22915 57.747476 
L 347.22915 55.260287 
L 347.653355 52.961334 
L 347.653355 55.54044 
L 348.07756 60.360851 
L 348.501766 62.841926 
L 348.501766 62.24255 
L 348.936848 58.618604 
L 348.936848 55.713612 
L 349.361053 53.264966 
L 349.361053 51.530382 
L 349.796135 50.929692 
L 350.6663 50.915549 
L 350.6663 50.595533 
L 351.090505 48.224963 
L 351.090505 45.980921 
L 351.525587 44.734916 
L 351.525587 48.398498 
L 351.960669 52.608502 
L 351.960669 55.59253 
L 352.395751 54.03951 
L 352.395751 52.190633 
L 352.819956 51.224796 
L 353.255039 49.061302 
L 353.255039 47.758265 
L 353.690121 48.544351 
L 353.690121 50.321016 
L 354.114326 50.517534 
L 354.114326 50.237356 
L 354.549408 50.080061 
L 354.549408 50.649765 
L 354.98449 51.822889 
L 354.98449 53.842218 
L 355.419573 57.635495 
L 355.419573 59.574958 
L 355.854655 61.402273 
L 355.854655 62.447099 
L 356.289737 62.173004 
L 356.289737 59.421727 
L 356.713942 59.151294 
L 356.713942 59.188304 
L 357.149024 63.235532 
L 357.149024 62.679237 
L 357.149024 62.105445 
L 357.57323 61.311001 
L 357.57323 58.905185 
L 357.997435 58.001789 
L 357.997435 59.927338 
L 358.432517 59.078336 
L 358.432517 57.620097 
L 358.867599 57.042207 
L 358.867599 58.779605 
L 359.302681 60.287068 
L 359.302681 58.664927 
L 359.737764 56.565481 
L 359.737764 54.701755 
L 360.172846 52.817192 
L 360.172846 51.193391 
L 360.597051 50.520198 
L 361.021256 49.215421 
L 361.021256 48.228857 
L 361.445461 48.65858 
L 361.869666 50.855122 
L 361.869666 50.122401 
L 362.315626 48.774145 
L 362.315626 47.99566 
L 362.761585 47.793153 
L 363.18579 50.993331 
L 363.18579 53.513652 
L 363.599118 53.000802 
L 363.599118 51.031019 
L 364.0342 48.52374 
L 364.0342 47.305889 
L 364.458405 46.844274 
L 364.458405 47.842352 
L 364.882611 48.700042 
L 364.882611 52.910046 
L 365.317693 53.035449 
L 365.317693 54.057299 
L 365.752775 51.19943 
L 366.187857 47.145213 
L 366.187857 44.136348 
L 366.622939 43.485413 
L 366.622939 42.64193 
L 367.493104 40.758961 
L 367.493104 40.292802 
L 367.917309 43.028661 
L 367.917309 47.17215 
L 368.352391 49.841054 
L 368.352391 51.188485 
L 369.211679 56.945188 
L 369.211679 52.735184 
L 369.646761 49.961727 
L 370.081843 50.469975 
L 370.081843 50.85789 
L 370.516925 50.755453 
L 370.516925 51.149731 
L 370.94113 50.725067 
L 370.94113 49.56768 
L 371.376213 48.389604 
L 371.811295 47.754395 
L 371.811295 47.1836 
L 372.246377 47.095135 
L 372.246377 47.546105 
L 372.670582 47.476924 
L 372.670582 47.040739 
L 373.540746 46.002895 
L 373.540746 45.704243 
L 373.975829 45.714452 
L 373.975829 45.559769 
L 374.835116 44.581202 
L 374.835116 43.967411 
L 375.270198 43.692059 
L 375.270198 44.133425 
L 376.129486 43.892393 
L 376.129486 43.307668 
L 376.564568 42.687836 
L 376.564568 42.157398 
L 376.99965 41.984194 
L 377.434732 42.254225 
L 377.434732 42.168601 
L 378.29402 41.10975 
L 378.29402 40.86581 
L 378.729102 40.629853 
L 378.729102 41.053228 
L 379.164184 42.036426 
L 379.588389 41.972771 
L 379.588389 41.749515 
L 380.023471 41.240893 
L 380.458554 41.051217 
L 380.458554 41.7197 
L 380.893636 41.847751 
L 381.317841 43.00532 
L 381.317841 42.793845 
L 381.752923 42.493776 
L 382.188005 42.457843 
L 382.623088 42.90277 
L 382.623088 42.771742 
L 383.047293 42.30052 
L 383.917457 42.153981 
L 383.917457 41.881583 
L 384.776744 40.995061 
L 385.646909 42.455687 
L 386.081991 42.262884 
L 386.081991 41.892609 
L 386.506196 41.698808 
L 386.941278 42.136916 
L 386.941278 42.135121 
L 387.811443 41.977276 
L 387.811443 41.507623 
L 388.235648 41.200461 
L 388.235648 41.615542 
L 388.67073 41.561107 
L 389.105812 41.806494 
L 389.105812 41.596237 
L 389.9651 41.02887 
L 389.9651 41.208494 
L 390.400182 41.61829 
L 390.400182 42.902043 
L 390.835264 42.890202 
L 391.270346 42.589402 
L 391.270346 42.23335 
L 391.694551 41.938843 
L 392.129634 42.335767 
L 392.129634 42.888275 
L 392.564716 42.89442 
L 392.564716 42.626568 
L 392.564716 42.626568 
" clip-path="url(#pe3b897c8d8)" style="fill: none; stroke: #ffa801; stroke-opacity: 0.99; stroke-width: 2.4; stroke-linecap: square"/>
   </g>
   <g id="line2d_22">
    <path d="M 44.446534 110.942358 
L 44.966665 107.059311 
L 44.966665 90.219297 
L 45.401747 86.009294 
L 45.401747 73.379283 
L 45.83683 69.16928 
L 45.83683 64.959276 
L 46.271912 60.749273 
L 46.271912 56.676332 
L 46.696117 53.382169 
L 46.696117 51.420855 
L 47.131199 49.480157 
L 47.131199 48.115214 
L 47.566281 47.270276 
L 47.566281 46.582509 
L 48.001363 46.007141 
L 48.001363 45.631681 
L 48.425569 45.336143 
L 48.860651 46.354713 
L 48.860651 47.673057 
L 49.295733 47.390019 
L 49.295733 47.069736 
L 49.730815 46.88698 
L 50.15502 46.159919 
L 50.15502 44.745475 
L 50.590103 44.411943 
L 50.590103 43.950503 
L 51.025185 43.800914 
L 51.460267 43.867761 
L 51.460267 46.08665 
L 51.884472 45.250849 
L 51.884472 46.262224 
L 52.319554 45.653039 
L 52.319554 44.257391 
L 52.754637 42.295766 
L 53.189719 42.614335 
L 53.189719 41.581146 
L 54.049006 40.662248 
L 54.049006 43.836943 
L 54.919171 42.374751 
L 55.343376 42.013826 
L 55.343376 39.72933 
L 55.778458 38.624669 
L 56.21354 38.12014 
L 56.21354 40.202872 
L 56.648622 41.518881 
L 57.072827 40.318747 
L 57.072827 39.771157 
L 57.50791 39.26276 
L 57.942992 38.214577 
L 57.942992 36.803334 
L 58.378074 35.716047 
L 58.802279 33.989456 
L 58.802279 33.476901 
L 59.237361 34.28877 
L 59.672444 38.155577 
L 59.672444 40.174743 
L 60.107526 40.078901 
L 60.531731 39.655565 
L 60.531731 40.604555 
L 60.966813 39.756399 
L 61.401895 37.742281 
L 61.401895 36.470864 
L 61.836978 34.352992 
L 62.261183 33.772825 
L 62.261183 33.297291 
L 62.696265 34.823427 
L 63.131347 34.799816 
L 63.131347 35.129438 
L 63.566429 37.99087 
L 63.990635 39.325373 
L 63.990635 41.046106 
L 64.425717 42.084094 
L 64.860799 44.938325 
L 64.860799 42.737954 
L 65.295881 40.449955 
L 65.295881 38.194877 
L 66.155168 34.75209 
L 66.590251 34.74389 
L 66.590251 34.338664 
L 67.449538 40.933205 
L 67.449538 45.143208 
L 67.88462 45.176166 
L 67.88462 47.580849 
L 68.319702 48.88575 
L 68.319702 47.101371 
L 68.754785 45.126077 
L 69.17899 42.650818 
L 69.17899 40.397521 
L 70.049154 37.112723 
L 70.049154 35.978201 
L 70.484236 35.512601 
L 70.908442 36.926697 
L 70.908442 37.461257 
L 71.343524 40.134845 
L 71.778606 41.321644 
L 71.778606 40.658605 
L 72.213688 39.665429 
L 72.637893 39.25097 
L 72.637893 37.655452 
L 73.072976 37.373294 
L 73.508058 39.464509 
L 73.508058 38.933736 
L 73.94314 39.555102 
L 73.94314 42.367865 
L 74.367345 45.828603 
L 74.802427 45.366614 
L 74.802427 43.518317 
L 75.672592 39.396138 
L 75.672592 37.405439 
L 76.531879 34.209708 
L 76.966961 34.101084 
L 77.402043 35.506908 
L 77.402043 37.221042 
L 78.261331 45.428559 
L 78.696413 45.197324 
L 78.696413 45.478366 
L 79.5557 40.939888 
L 79.5557 38.81064 
L 80.425865 37.31811 
L 80.425865 36.081903 
L 80.860947 36.631626 
L 81.285152 37.352557 
L 81.285152 40.011347 
L 81.720234 41.979051 
L 82.155317 41.323191 
L 82.155317 40.912613 
L 82.590399 39.458277 
L 82.590399 38.736281 
L 83.014604 38.106652 
L 83.449686 36.24434 
L 83.449686 35.576129 
L 83.884768 35.198007 
L 84.319851 35.684814 
L 84.744056 37.712768 
L 84.744056 41.061869 
L 85.179138 44.447249 
L 85.61422 44.209514 
L 86.049302 42.181434 
L 86.049302 41.300131 
L 86.90859 37.767817 
L 86.90859 37.815917 
L 87.343672 36.7536 
L 87.767877 37.276038 
L 87.767877 36.956288 
L 88.202959 36.738769 
L 88.638041 40.072865 
L 88.638041 39.603939 
L 89.073124 38.734789 
L 89.497329 38.208636 
L 89.497329 37.907239 
L 90.367493 34.809848 
L 90.367493 33.174083 
L 90.802575 31.960001 
L 91.226781 31.376731 
L 91.226781 31.156648 
L 91.661863 30.985282 
L 92.532027 39.405288 
L 92.532027 43.48667 
L 92.956232 47.691733 
L 92.956232 47.264237 
L 93.391315 46.077651 
L 93.826397 44.118154 
L 93.826397 41.571904 
L 94.261479 39.497797 
L 94.261479 37.931268 
L 94.685684 37.806322 
L 95.120766 37.969269 
L 95.120766 39.287579 
L 95.555849 40.814078 
L 95.990931 40.597087 
L 95.990931 43.387144 
L 96.415136 43.080909 
L 96.850218 43.984261 
L 96.850218 42.942992 
L 97.2853 41.683607 
L 97.2853 41.181395 
L 98.155465 39.032008 
L 98.155465 40.531806 
L 98.57967 44.74181 
L 99.014752 44.449709 
L 99.014752 48.635124 
L 99.449834 48.575689 
L 99.449834 52.654887 
L 99.874039 55.117679 
L 99.874039 58.154276 
L 100.309122 62.364279 
L 100.309122 61.415812 
L 100.744204 61.020269 
L 100.744204 62.976687 
L 100.744204 62.818042 
L 101.179286 63.754551 
L 101.179286 65.824212 
L 101.603491 67.941594 
L 101.603491 68.711178 
L 102.038573 70.642114 
L 102.038573 70.473668 
L 102.038573 74.417637 
L 102.473656 78.627641 
L 102.473656 80.325712 
L 102.473656 79.964477 
L 102.908738 80.666955 
L 102.908738 80.634628 
L 102.908738 82.099424 
L 102.908738 80.939675 
L 103.332943 78.424007 
L 103.778902 77.022444 
L 104.616435 75.334847 
L 105.029764 72.738511 
L 105.029764 69.180056 
L 105.464846 65.645446 
L 105.464846 60.198929 
L 105.899928 58.207455 
L 105.899928 56.980201 
L 106.33501 52.939775 
L 106.33501 48.810854 
L 106.770092 45.890407 
L 107.205175 44.582666 
L 107.205175 43.460956 
L 107.62938 42.113435 
L 107.62938 39.91083 
L 108.499544 37.821783 
L 108.923749 37.193519 
L 109.358831 37.319503 
L 109.358831 38.521631 
L 109.793914 41.780894 
L 110.228996 42.489026 
L 110.228996 42.219995 
L 110.653201 45.054101 
L 110.653201 46.286264 
L 111.088283 49.955873 
L 111.523365 49.638486 
L 111.523365 48.994555 
L 111.958448 48.705841 
L 111.958448 48.369281 
L 112.382653 47.905229 
L 112.382653 46.952805 
L 112.817735 47.061065 
L 113.252817 45.975993 
L 113.687899 45.633144 
L 113.687899 45.078617 
L 114.112105 44.312656 
L 114.547187 42.738159 
L 114.547187 41.157154 
L 114.982269 40.34644 
L 114.982269 39.929278 
L 115.406474 41.463982 
L 115.406474 42.368861 
L 115.406474 40.963559 
L 116.254884 39.781809 
L 116.254884 38.63821 
L 116.700844 37.310428 
L 116.700844 39.116672 
L 117.135926 40.146076 
L 117.560131 39.611891 
L 117.560131 39.384336 
L 117.995213 41.94541 
L 117.995213 40.741658 
L 118.430295 41.105845 
L 118.865378 39.446681 
L 118.865378 40.014603 
L 119.724665 38.827846 
L 119.724665 38.018536 
L 120.159747 38.297389 
L 120.583952 37.215041 
L 120.583952 36.311786 
L 121.019035 35.592325 
L 121.454117 36.038797 
L 121.454117 35.782217 
L 122.313404 35.168308 
L 122.313404 39.378312 
L 122.748486 41.334471 
L 123.183569 40.865657 
L 123.183569 39.708938 
L 124.042856 35.583057 
L 124.042856 33.994592 
L 124.477938 34.973789 
L 124.91302 36.60704 
L 124.91302 38.094006 
L 125.348103 41.065 
L 125.772308 42.146893 
L 125.772308 41.323082 
L 126.20739 40.823796 
L 126.642472 39.871854 
L 126.642472 38.143982 
L 127.501759 35.328685 
L 127.936842 34.698502 
L 128.371924 34.324863 
L 128.371924 37.058985 
L 129.231211 45.257399 
L 129.231211 49.223092 
L 129.666293 49.147544 
L 129.666293 48.338798 
L 130.101376 45.950441 
L 130.536458 42.330475 
L 130.536458 39.698117 
L 131.395745 35.648326 
L 131.395745 34.576642 
L 131.830827 38.083652 
L 132.26591 37.279207 
L 132.26591 39.310207 
L 132.690115 39.411096 
L 133.125197 38.546093 
L 133.125197 37.759173 
L 133.560279 37.322024 
L 133.995361 36.070632 
L 133.995361 34.765584 
L 134.419566 34.413052 
L 134.854649 34.328265 
L 134.854649 35.43873 
L 135.289731 38.327228 
L 135.724813 40.425037 
L 135.724813 41.472623 
L 136.149018 40.989566 
L 136.5841 40.113334 
L 136.5841 38.864111 
L 137.019183 37.268296 
L 137.454265 36.645433 
L 137.454265 37.356387 
L 137.87847 39.973511 
L 137.87847 44.125782 
L 138.313552 42.620582 
L 138.748634 41.800737 
L 138.748634 40.434565 
L 139.183717 40.03579 
L 139.607922 39.363368 
L 139.607922 38.399571 
L 140.478086 36.900225 
L 140.478086 39.597556 
L 140.913168 39.677581 
L 141.337374 39.558384 
L 141.337374 40.166318 
L 141.772456 44.319013 
L 141.772456 48.529016 
L 142.207538 50.269349 
L 142.207538 53.429321 
L 142.64262 57.513446 
L 142.64262 61.506582 
L 143.066825 61.492009 
L 143.066825 61.322826 
L 143.501908 63.355343 
L 143.501908 62.503446 
L 143.93699 63.478973 
L 143.93699 63.821414 
L 144.372072 63.178492 
L 144.372072 65.558997 
L 144.796277 65.461252 
L 144.796277 69.466787 
L 145.231359 68.633979 
L 145.231359 69.205388 
L 145.655564 68.909861 
L 145.655564 69.272676 
L 146.07977 70.307772 
L 146.07977 70.036379 
L 146.07977 68.172668 
L 146.514852 66.042807 
L 146.514852 62.726356 
L 146.960811 60.633593 
L 146.960811 59.888524 
L 147.395893 57.044424 
L 148.233427 49.853106 
L 148.233427 47.315637 
L 148.668509 44.783589 
L 149.103591 44.240256 
L 149.103591 42.951966 
L 149.538673 42.12253 
L 149.538673 40.785434 
L 150.39796 38.603925 
L 150.39796 37.90663 
L 151.268125 36.976242 
L 151.268125 36.75993 
L 151.703207 37.518117 
L 152.127412 39.872773 
L 152.127412 42.233266 
L 152.562494 43.156444 
L 152.562494 46.50289 
L 152.997577 46.219144 
L 153.432659 47.743602 
L 153.432659 47.415344 
L 153.856864 47.889205 
L 153.856864 47.340084 
L 154.291946 50.130318 
L 154.291946 49.286154 
L 154.727028 48.784418 
L 154.727028 49.071228 
L 155.162111 48.609804 
L 155.586316 47.119358 
L 155.586316 45.872494 
L 156.021398 45.960093 
L 156.021398 44.826456 
L 156.45648 43.837408 
L 156.880685 43.992857 
L 156.880685 43.019599 
L 157.315768 42.310255 
L 157.315768 41.556663 
L 157.75085 41.552766 
L 158.185932 41.933722 
L 158.185932 41.748096 
L 158.621014 41.716082 
L 159.045219 42.674621 
L 159.045219 45.004812 
L 159.480302 45.718145 
L 159.480302 47.548524 
L 159.915384 51.758527 
L 159.915384 52.936485 
L 160.350466 57.146489 
L 160.350466 60.668059 
L 160.774671 64.645708 
L 160.774671 65.878824 
L 161.209753 65.997117 
L 161.209753 67.480175 
L 161.633958 69.051343 
L 161.633958 71.280585 
L 162.069041 73.610288 
L 162.069041 74.703096 
L 162.069041 72.915056 
L 162.515 72.062562 
L 162.515 69.873006 
L 162.950082 67.228198 
L 163.765861 63.567626 
L 163.765861 62.852526 
L 164.200943 61.463654 
L 164.200943 59.731683 
L 164.646903 57.798016 
L 164.646903 56.373444 
L 165.081985 58.816389 
L 165.081985 58.391198 
L 165.50619 59.861059 
L 165.50619 62.168605 
L 165.941272 61.141589 
L 166.365477 60.878026 
L 166.365477 64.983798 
L 166.80056 64.006878 
L 167.235642 65.489676 
L 167.235642 63.768451 
L 167.681601 63.338723 
L 167.681601 62.501235 
L 168.116683 62.119321 
L 168.116683 61.441367 
L 168.965094 57.118015 
L 168.965094 55.945037 
L 169.389299 54.433387 
L 169.389299 53.713043 
L 169.813504 52.885266 
L 169.813504 51.19608 
L 170.672791 48.704646 
L 170.672791 46.958699 
L 171.107873 45.162741 
L 171.107873 43.868879 
L 171.542956 42.587199 
L 171.542956 40.75211 
L 171.978038 40.075616 
L 172.41312 39.137337 
L 172.41312 40.21579 
L 172.848202 39.85379 
L 173.283284 39.941785 
L 173.283284 42.571478 
L 173.718367 46.781481 
L 174.153449 45.452451 
L 174.153449 44.560977 
L 174.577654 44.038139 
L 174.577654 43.752192 
L 175.012736 42.554459 
L 175.436941 42.111966 
L 175.436941 41.779215 
L 175.872024 41.010471 
L 175.872024 39.993285 
L 176.307106 39.811327 
L 176.731311 38.389952 
L 176.731311 38.503635 
L 177.166393 37.975446 
L 177.601475 39.585396 
L 177.601475 41.537239 
L 178.025681 41.373813 
L 178.460763 44.484272 
L 178.460763 44.075669 
L 178.895845 44.154515 
L 178.895845 43.308869 
L 179.330927 43.73455 
L 179.766009 43.411561 
L 179.766009 42.511494 
L 180.201092 41.572474 
L 180.201092 45.782477 
L 181.060379 45.064567 
L 181.060379 45.578719 
L 181.495461 49.180869 
L 181.495461 48.263847 
L 181.930543 47.483089 
L 182.789831 45.902628 
L 183.224913 45.645721 
L 183.224913 44.353504 
L 183.649118 43.909651 
L 183.649118 42.55085 
L 184.519282 41.383321 
L 184.519282 42.408696 
L 184.943488 42.418278 
L 184.943488 45.171225 
L 185.37857 45.865283 
L 185.37857 45.578207 
L 185.813652 45.327128 
L 186.248734 44.295292 
L 186.248734 43.56497 
L 186.683816 43.924809 
L 186.683816 46.836602 
L 187.108022 48.531122 
L 187.108022 48.488808 
L 187.543104 47.311032 
L 187.543104 45.531096 
L 188.413268 41.823878 
L 188.413268 41.842954 
L 188.837473 41.504062 
L 188.837473 40.728456 
L 189.272556 39.628607 
L 189.707638 38.162328 
L 189.707638 42.24605 
L 190.131843 42.054546 
L 190.566925 44.411066 
L 190.566925 42.999697 
L 191.002007 42.968599 
L 191.002007 42.808191 
L 191.872172 46.378708 
L 191.872172 48.567871 
L 192.296377 48.671653 
L 192.296377 52.249275 
L 192.731459 52.189893 
L 192.731459 53.456992 
L 193.166541 52.903825 
L 193.166541 54.415685 
L 193.590746 54.05191 
L 193.590746 52.851559 
L 194.025829 52.050942 
L 194.025829 52.17453 
L 194.450034 52.030967 
L 194.450034 56.240971 
L 194.874239 58.976738 
L 194.874239 57.765989 
L 195.298444 57.597392 
L 195.298444 57.648696 
L 195.75528 58.57328 
L 195.75528 58.090242 
L 196.190363 58.163506 
L 196.190363 60.440012 
L 196.614568 59.843621 
L 196.614568 59.000755 
L 197.038773 60.54997 
L 197.038773 59.308403 
L 197.473855 58.984812 
L 197.473855 58.320563 
L 197.908937 59.446399 
L 197.908937 59.011852 
L 198.344019 58.48352 
L 198.344019 58.061785 
L 198.768225 58.094459 
L 198.768225 56.836065 
L 199.203307 57.39374 
L 199.203307 58.374691 
L 199.203307 58.25407 
L 199.638389 57.508648 
L 199.638389 57.267392 
L 200.073471 59.71814 
L 200.073471 59.46072 
L 200.497676 59.30495 
L 200.497676 58.79167 
L 200.921882 58.956949 
L 200.921882 58.085782 
L 201.346087 57.701889 
L 201.346087 57.506606 
L 201.770292 59.246803 
L 201.770292 58.770923 
L 202.205374 58.14747 
L 202.205374 56.331226 
L 202.651333 55.660656 
L 202.651333 54.251561 
L 203.097293 52.659016 
L 203.097293 51.664204 
L 203.532375 51.219941 
L 203.532375 50.860939 
L 203.95658 50.091864 
L 203.95658 50.120661 
L 204.380785 50.329356 
L 204.380785 48.709263 
L 204.80499 50.652542 
L 204.80499 53.98417 
L 205.229195 55.781461 
L 205.229195 55.745015 
L 205.229195 51.833456 
L 205.664278 49.182846 
L 205.664278 48.457089 
L 206.09936 47.522336 
L 206.09936 46.590278 
L 206.534442 46.189641 
L 206.969524 44.40966 
L 206.969524 43.217643 
L 207.393729 41.799147 
L 207.393729 40.721309 
L 207.828812 40.29145 
L 208.263894 39.384744 
L 208.688099 41.497663 
L 208.688099 45.707666 
L 209.123181 49.91767 
L 209.123181 53.617928 
L 209.558263 56.753382 
L 209.558263 56.318312 
L 209.982468 56.386949 
L 209.982468 56.336659 
L 210.417551 55.146646 
L 210.417551 54.051757 
L 211.276838 53.254653 
L 211.276838 56.611978 
L 211.71192 56.054064 
L 211.71192 59.161646 
L 212.147002 58.849549 
L 212.147002 60.904503 
L 212.582085 61.885973 
L 212.582085 61.633119 
L 213.017167 62.352124 
L 213.017167 62.311641 
L 213.452249 62.409441 
L 213.876454 63.790342 
L 213.876454 69.703648 
L 214.311536 69.158113 
L 214.311536 67.967145 
L 214.735742 68.744007 
L 214.735742 72.16612 
L 215.170824 71.338094 
L 215.170824 69.38649 
L 215.605906 71.495516 
L 215.605906 71.265367 
L 216.040988 69.86202 
L 216.454316 69.80323 
L 216.454316 68.505293 
L 216.889398 66.247263 
L 216.889398 65.512534 
L 217.324481 65.644676 
L 217.737809 63.749893 
L 217.737809 62.691032 
L 218.162014 63.321677 
L 218.162014 62.70581 
L 218.586219 61.467128 
L 218.586219 61.649797 
L 219.456384 67.102326 
L 219.456384 68.026572 
L 219.456384 67.99431 
L 219.891466 66.806854 
L 220.326548 68.695604 
L 220.326548 65.686037 
L 220.750753 63.552375 
L 220.750753 60.309782 
L 221.185835 59.290816 
L 222.034246 55.926673 
L 222.034246 53.959801 
L 222.469328 52.279894 
L 222.469328 50.570189 
L 222.90441 49.805166 
L 222.90441 48.822258 
L 224.19878 43.044095 
L 224.19878 44.700207 
L 224.633862 43.944076 
L 225.068944 44.189633 
L 225.068944 45.260991 
L 225.493149 43.220907 
L 225.928231 44.164127 
L 226.363314 46.112357 
L 226.363314 48.908813 
L 226.798396 50.214318 
L 226.798396 53.329536 
L 227.222601 58.097503 
L 227.657683 57.598913 
L 227.657683 56.794137 
L 228.081888 56.413277 
L 228.081888 56.177683 
L 228.51697 56.319199 
L 228.51697 58.063224 
L 228.952053 57.664118 
L 228.952053 56.592056 
L 229.387135 54.347224 
L 229.387135 53.033439 
L 229.81134 51.400218 
L 229.81134 49.334051 
L 230.246422 48.723305 
L 230.246422 51.023172 
L 230.670627 50.68814 
L 230.670627 54.69492 
L 231.10571 54.331594 
L 231.10571 51.032616 
L 231.540792 47.662812 
L 231.975874 45.275866 
L 231.975874 44.504217 
L 232.410956 45.470599 
L 232.410956 44.31815 
L 233.270244 40.646536 
L 233.270244 38.738635 
L 234.129531 37.43307 
L 234.129531 36.168583 
L 234.999695 37.279456 
L 234.999695 36.362858 
L 235.434777 36.69905 
L 235.858983 40.842632 
L 235.858983 45.027258 
L 236.294065 49.237262 
L 236.294065 52.58799 
L 236.729147 54.177768 
L 236.729147 53.580737 
L 237.164229 52.643999 
L 237.164229 51.888172 
L 237.588434 48.337598 
L 238.023517 46.079041 
L 238.023517 43.519607 
L 238.458599 42.133977 
L 238.882804 41.33806 
L 238.882804 40.545716 
L 239.752968 39.628518 
L 239.752968 39.072164 
L 240.177174 39.552851 
L 240.177174 39.280664 
L 240.612256 38.984756 
L 241.047338 39.886129 
L 241.047338 41.524124 
L 241.48242 41.220896 
L 241.906625 41.646102 
L 241.906625 40.75608 
L 242.341707 41.10755 
L 242.77679 42.786306 
L 242.77679 46.673561 
L 243.211872 50.160278 
L 243.636077 50.249064 
L 243.636077 49.725041 
L 244.506241 56.846217 
L 244.506241 55.463876 
L 244.941324 53.723957 
L 245.376406 52.457302 
L 245.376406 51.97447 
L 245.800611 50.590039 
L 245.800611 49.744587 
L 246.235693 51.416686 
L 246.235693 55.259006 
L 246.670775 55.239005 
L 246.670775 53.617716 
L 247.094981 52.373596 
L 247.094981 50.215581 
L 247.519186 48.767603 
L 247.519186 47.169428 
L 247.943391 45.847591 
L 247.943391 45.420722 
L 248.367596 46.979471 
L 248.367596 51.189475 
L 248.802678 48.542642 
L 249.23776 45.182763 
L 249.23776 42.576725 
L 249.672843 40.609019 
L 249.672843 39.872842 
L 250.107925 39.342316 
L 250.543007 38.49032 
L 250.543007 38.913022 
L 250.978089 37.479091 
L 251.413171 35.579751 
L 251.413171 34.439852 
L 251.837377 33.306492 
L 252.272459 33.439637 
L 252.707541 32.798262 
L 252.707541 33.362352 
L 254.001911 41.138679 
L 254.436993 43.246829 
L 254.436993 42.754433 
L 254.861198 41.591663 
L 254.861198 39.223357 
L 255.731362 36.289235 
L 255.731362 35.020616 
L 256.155568 34.863196 
L 256.59065 36.652502 
L 257.460814 43.097672 
L 257.460814 45.130943 
L 257.885019 44.663137 
L 258.320101 43.169665 
L 258.320101 42.320268 
L 258.755184 39.30952 
L 259.190266 38.816571 
L 259.614471 40.262663 
L 259.614471 43.630064 
L 260.049553 47.733868 
L 260.484635 46.316644 
L 260.484635 44.818138 
L 260.919718 42.034715 
L 260.919718 39.253255 
L 261.3548 37.356187 
L 261.779005 36.15619 
L 261.779005 35.351242 
L 262.649169 32.967229 
L 263.084252 36.151055 
L 263.084252 38.53766 
L 263.508457 42.747664 
L 263.508457 46.218383 
L 263.943539 50.339822 
L 264.378621 51.867389 
L 264.378621 49.955593 
L 264.813703 48.849731 
L 264.813703 46.488497 
L 265.237909 43.209548 
L 265.237909 41.358612 
L 265.672991 39.589268 
L 266.108073 38.467552 
L 266.108073 37.142285 
L 266.543155 36.536913 
L 266.96736 36.228299 
L 266.96736 36.042337 
L 267.837525 36.645053 
L 267.837525 36.860011 
L 268.272607 37.927405 
L 268.696812 42.137408 
L 268.696812 45.216754 
L 269.131894 44.629697 
L 269.566976 44.50078 
L 269.566976 48.580206 
L 269.991182 52.400556 
L 269.991182 54.550799 
L 270.426264 58.760803 
L 270.426264 62.970806 
L 270.861346 64.269674 
L 270.861346 63.501215 
L 271.296428 64.880866 
L 271.296428 64.721044 
L 271.296428 62.913231 
L 271.73151 61.384564 
L 271.73151 59.372169 
L 272.166593 58.610536 
L 272.166593 56.908157 
L 273.428331 54.552112 
L 273.428331 53.973266 
L 273.863413 53.052407 
L 273.863413 52.225062 
L 274.298495 51.421439 
L 274.298495 50.318506 
L 274.733578 51.666657 
L 274.733578 50.85189 
L 275.16866 50.069893 
L 276.027947 57.553366 
L 276.027947 57.286259 
L 276.463029 57.223055 
L 276.463029 61.951582 
L 276.887235 62.670433 
L 276.887235 63.712364 
L 277.322317 66.753154 
L 277.322317 65.380834 
L 277.768276 65.205511 
L 277.768276 65.610221 
L 278.203358 65.111207 
L 278.203358 67.797699 
L 278.616686 66.764402 
L 278.616686 64.953208 
L 279.019137 63.578196 
L 279.019137 62.262144 
L 279.443343 60.937981 
L 279.443343 58.803026 
L 279.889302 57.27745 
L 279.889302 59.994009 
L 280.335261 63.311869 
L 280.335261 63.070401 
L 280.759466 61.332452 
L 280.759466 58.462573 
L 281.183671 57.116031 
L 281.183671 56.182604 
L 281.607877 54.635595 
L 281.607877 53.482891 
L 282.042959 52.006395 
L 282.042959 54.740919 
L 282.478041 57.741448 
L 282.478041 60.96229 
L 282.924 65.586495 
L 283.359082 65.156096 
L 283.359082 66.667595 
L 283.783288 67.200523 
L 283.783288 66.737188 
L 284.207493 66.562684 
L 284.207493 66.184456 
L 284.631698 66.266498 
L 284.631698 65.861182 
L 285.055903 66.882121 
L 285.055903 69.071984 
L 285.490985 72.840929 
L 285.490985 75.760846 
L 285.490985 75.257989 
L 285.936944 74.616638 
L 285.936944 70.476171 
L 286.393781 67.812858 
L 286.393781 64.44851 
L 286.817986 61.469129 
L 287.231314 59.448423 
L 287.644642 59.452511 
L 288.079724 55.692005 
L 288.079724 51.543925 
L 288.503929 48.003842 
L 288.503929 45.864093 
L 288.939012 44.679632 
L 289.374094 45.994152 
L 289.374094 45.244472 
L 289.809176 43.965798 
L 289.809176 42.723757 
L 290.668463 40.579953 
L 290.668463 39.631431 
L 291.103546 38.70027 
L 291.538628 37.250999 
L 291.538628 35.919632 
L 291.97371 35.89821 
L 292.408792 37.562843 
L 292.408792 37.435588 
L 293.703162 46.142417 
L 293.703162 50.238837 
L 294.127367 51.654342 
L 294.127367 50.65132 
L 294.562449 52.219266 
L 294.562449 52.123826 
L 294.997531 51.879744 
L 294.997531 54.869436 
L 295.421737 55.084753 
L 295.421737 57.960912 
L 295.856819 60.974844 
L 295.856819 60.308455 
L 296.291901 58.006806 
L 296.291901 56.550493 
L 296.726983 54.334391 
L 296.726983 52.687655 
L 297.151188 53.419879 
L 297.151188 55.170565 
L 297.586271 58.690624 
L 297.586271 62.900628 
L 298.03223 64.756443 
L 298.03223 65.986748 
L 298.03223 65.660825 
L 298.467312 65.608788 
L 298.467312 68.987156 
L 298.902394 68.741041 
L 298.902394 67.540862 
L 299.326599 67.359873 
L 299.750804 69.831079 
L 299.750804 69.65022 
L 299.750804 70.652254 
L 300.164133 69.474278 
L 300.164133 69.03758 
L 300.588338 66.685742 
L 300.588338 64.248584 
L 301.02342 62.969036 
L 301.480256 61.128 
L 301.480256 59.281205 
L 301.915338 59.026212 
L 302.339544 57.674354 
L 302.339544 55.675415 
L 302.763749 52.710505 
L 302.763749 50.104276 
L 303.187954 49.28127 
L 303.612159 47.882815 
L 303.612159 46.653695 
L 304.047241 44.987275 
L 304.482323 42.996955 
L 304.917406 42.178123 
L 304.917406 41.526659 
L 305.352488 40.805624 
L 305.352488 40.454222 
L 305.78757 42.493436 
L 306.211775 42.472336 
L 306.211775 46.239001 
L 306.646857 45.486707 
L 306.646857 46.645774 
L 307.517022 46.319886 
L 307.517022 46.048054 
L 307.941227 47.397252 
L 307.941227 51.607255 
L 308.376309 50.95815 
L 308.376309 53.095394 
L 308.811391 52.209317 
L 309.246474 54.480831 
L 309.681556 57.417574 
L 309.681556 57.241461 
L 309.681556 58.608344 
L 310.116638 57.757569 
L 310.116638 56.822302 
L 310.540843 56.05262 
L 310.965048 55.89403 
L 310.965048 57.213954 
L 311.400131 57.082359 
L 311.824336 56.602984 
L 311.824336 55.947365 
L 312.259418 55.902956 
L 312.259418 57.040612 
L 312.6945 56.48968 
L 312.6945 56.303155 
L 313.129582 58.102977 
L 313.129582 55.915408 
L 313.564664 55.144832 
L 313.564664 54.236236 
L 313.999747 54.144773 
L 313.999747 53.732442 
L 314.434829 52.099284 
L 314.434829 49.836398 
L 314.859034 49.181778 
L 314.859034 48.006514 
L 315.283239 46.775638 
L 315.283239 45.286048 
L 315.707444 44.80138 
L 315.707444 44.838309 
L 316.142527 48.528825 
L 316.142527 52.738828 
L 316.577609 51.773594 
L 316.577609 48.846482 
L 317.001814 45.539178 
L 317.001814 43.741889 
L 317.436896 43.779091 
L 317.871978 47.717584 
L 317.871978 51.513837 
L 318.307061 51.25709 
L 318.307061 47.846369 
L 318.742143 44.733647 
L 318.742143 43.030652 
L 319.166348 40.843923 
L 319.60143 40.111927 
L 319.60143 39.033364 
L 320.460717 38.488179 
L 320.460717 38.379387 
L 320.8958 40.574637 
L 320.8958 43.233663 
L 321.330882 43.09554 
L 321.765964 45.203915 
L 321.765964 44.745771 
L 322.190169 48.955774 
L 322.190169 52.915665 
L 322.625251 54.087013 
L 322.625251 57.78716 
L 323.060334 60.699526 
L 323.060334 63.805101 
L 323.495416 63.705859 
L 323.495416 64.779034 
L 323.930498 65.307895 
L 323.930498 68.30149 
L 323.930498 67.746414 
L 324.354703 67.496266 
L 324.354703 69.673065 
L 324.789785 69.619623 
L 324.789785 72.376558 
L 325.213991 73.754227 
L 325.213991 73.587021 
L 325.213991 75.655016 
L 325.638196 77.654299 
L 325.638196 80.484239 
L 326.073278 81.083963 
L 326.073278 82.293726 
L 326.50836 86.261388 
L 326.50836 87.771317 
L 326.50836 87.734296 
L 326.943442 86.498934 
L 326.943442 83.0023 
L 327.389402 80.533754 
L 327.389402 78.185323 
L 327.824484 77.107913 
L 328.640263 71.348858 
L 328.640263 67.253402 
L 329.064468 64.037528 
L 329.064468 57.941611 
L 329.510427 56.282698 
L 329.510427 53.028634 
L 330.380592 47.050382 
L 330.380592 44.502913 
L 330.815674 42.695271 
L 330.815674 41.199231 
L 331.239879 40.036674 
L 331.674961 39.845256 
L 331.674961 39.181255 
L 332.099166 38.440727 
L 332.534249 39.779137 
L 332.534249 40.644646 
L 332.969331 40.81355 
L 333.393536 40.708147 
L 333.393536 44.91815 
L 333.828618 44.573448 
L 334.2637 44.706739 
L 334.698783 44.603008 
L 334.698783 45.72896 
L 335.133865 45.626112 
L 335.133865 44.924434 
L 335.55807 49.015471 
L 335.55807 48.242716 
L 335.993152 51.295497 
L 335.993152 49.952605 
L 336.863317 47.423736 
L 336.863317 46.176428 
L 337.298399 44.686496 
L 337.298399 43.3882 
L 337.722604 44.957731 
L 338.157686 47.503683 
L 338.157686 46.905783 
L 338.592768 46.765116 
L 338.592768 44.575241 
L 339.016973 43.162948 
L 339.452056 43.492716 
L 339.452056 41.552134 
L 339.887138 41.522164 
L 339.887138 40.960733 
L 340.32222 41.6481 
L 340.746425 41.458507 
L 340.746425 42.12859 
L 341.181507 42.165427 
L 341.61659 45.058744 
L 341.61659 46.51251 
L 342.040795 50.722514 
L 342.040795 54.932517 
L 342.475877 58.916575 
L 342.475877 62.300223 
L 342.910959 62.62635 
L 342.910959 64.607967 
L 343.346041 65.509528 
L 343.346041 64.496231 
L 343.781124 66.719105 
L 343.781124 69.397056 
L 344.216206 68.10909 
L 344.216206 68.907621 
L 344.216206 67.996041 
L 344.640411 67.439949 
L 344.640411 66.876608 
L 345.064616 68.500968 
L 345.064616 67.909593 
L 345.488821 67.509402 
L 345.488821 65.916288 
L 345.923904 65.373589 
L 345.923904 66.978799 
L 346.358986 67.749061 
L 346.358986 69.05937 
L 346.794068 68.034841 
L 346.794068 66.403911 
L 347.22915 65.223445 
L 347.22915 64.465448 
L 347.653355 62.522412 
L 347.653355 61.378806 
L 348.501766 57.23473 
L 348.501766 55.833263 
L 348.936848 54.863785 
L 348.936848 53.701111 
L 349.796135 50.81175 
L 349.796135 48.882451 
L 350.231217 47.666248 
L 350.231217 47.031331 
L 350.6663 46.816959 
L 351.090505 46.240295 
L 351.090505 44.745305 
L 351.525587 44.199464 
L 351.525587 43.33233 
L 351.960669 42.747599 
L 352.395751 41.636885 
L 352.395751 41.073279 
L 352.819956 42.151573 
L 353.255039 41.776012 
L 353.690121 43.902005 
L 353.690121 43.736097 
L 354.114326 43.637105 
L 354.549408 44.566118 
L 354.549408 48.776122 
L 354.98449 52.690137 
L 354.98449 51.795831 
L 355.419573 52.608045 
L 355.419573 52.18232 
L 356.289737 57.525404 
L 356.289737 60.81473 
L 356.713942 62.884562 
L 356.713942 65.41185 
L 357.149024 64.8976 
L 357.149024 65.898216 
L 357.57323 66.117803 
L 357.57323 65.997964 
L 357.57323 64.806534 
L 357.997435 67.839322 
L 357.997435 69.045444 
L 358.432517 68.598758 
L 358.432517 66.018172 
L 358.867599 64.752603 
L 358.867599 64.358443 
L 359.302681 64.710324 
L 359.302681 65.107743 
L 359.737764 64.202491 
L 360.172846 64.984361 
L 360.172846 63.218998 
L 360.597051 63.283576 
L 360.597051 64.676042 
L 361.021256 63.701355 
L 361.021256 62.504193 
L 361.021256 62.649611 
L 361.445461 61.305039 
L 361.445461 59.817952 
L 361.869666 60.031863 
L 361.869666 59.228261 
L 362.315626 57.094131 
L 362.315626 55.692022 
L 362.761585 55.21958 
L 362.761585 52.572114 
L 363.18579 51.327861 
L 363.18579 49.180079 
L 363.599118 47.980936 
L 363.599118 46.78778 
L 364.0342 50.111492 
L 364.0342 49.796493 
L 364.458405 52.398085 
L 364.458405 51.446908 
L 364.882611 49.270315 
L 364.882611 46.427242 
L 365.317693 45.277934 
L 365.752775 44.504446 
L 365.752775 44.103871 
L 366.187857 43.312643 
L 366.187857 42.477292 
L 366.622939 41.187831 
L 367.058022 39.341755 
L 367.058022 37.579653 
L 367.493104 36.363422 
L 367.917309 36.913434 
L 367.917309 38.595331 
L 368.352391 41.527514 
L 368.787473 45.734918 
L 369.211679 47.757014 
L 369.211679 45.577563 
L 370.081843 40.170817 
L 370.081843 38.649921 
L 370.516925 38.476613 
L 370.94113 38.090642 
L 370.94113 37.526897 
L 371.376213 39.773187 
L 371.811295 39.420443 
L 371.811295 39.140746 
L 372.670582 36.136018 
L 373.540746 35.990681 
L 373.540746 37.476809 
L 373.975829 37.441311 
L 374.400034 38.830219 
L 374.400034 40.154687 
L 375.270198 38.744028 
L 375.270198 39.25122 
L 375.70528 38.541275 
L 376.129486 37.358974 
L 376.129486 36.386471 
L 376.564568 36.94124 
L 376.99965 35.703655 
L 376.99965 35.342283 
L 377.858937 37.765711 
L 377.858937 37.651391 
L 378.29402 37.601193 
L 378.729102 37.092027 
L 378.729102 36.057828 
L 379.164184 35.095481 
L 379.588389 33.41073 
L 380.023471 33.3623 
L 380.458554 36.65353 
L 380.458554 38.901961 
L 380.893636 43.111965 
L 381.317841 43.911171 
L 381.317841 43.545556 
L 381.752923 41.827344 
L 382.188005 40.647818 
L 382.188005 39.242196 
L 382.623088 39.271527 
L 383.047293 39.422195 
L 383.047293 38.654096 
L 383.482375 38.57544 
L 383.917457 38.365803 
L 383.917457 38.765312 
L 384.352539 39.714855 
L 384.352539 38.784626 
L 384.776744 38.346173 
L 385.211827 37.339 
L 385.646909 37.808658 
L 386.081991 38.759414 
L 386.081991 41.835655 
L 386.506196 41.891041 
L 386.941278 41.323039 
L 386.941278 43.877277 
L 387.376361 42.519812 
L 387.811443 40.170644 
L 387.811443 38.816328 
L 388.67073 35.213453 
L 388.67073 34.005474 
L 389.105812 34.626855 
L 389.540895 34.514416 
L 389.540895 37.353054 
L 390.400182 41.621848 
L 390.400182 41.185186 
L 390.835264 40.200979 
L 391.270346 39.829292 
L 391.270346 38.372831 
L 391.694551 37.242468 
L 391.694551 36.32197 
L 392.129634 35.368084 
L 392.564716 36.179018 
L 392.564716 36.179018 
" clip-path="url(#pe3b897c8d8)" style="fill: none; stroke: #a55eea; stroke-opacity: 0.99; stroke-width: 2.4; stroke-linecap: square"/>
   </g>
   <g id="patch_3">
    <path d="M 27.040625 99.875051 
L 27.040625 16.870251 
" style="fill: none; stroke: #000000; stroke-width: 0.8; stroke-linejoin: miter; stroke-linecap: square"/>
   </g>
   <g id="patch_4">
    <path d="M 409.970625 99.875051 
L 409.970625 16.870251 
" style="fill: none; stroke: #000000; stroke-width: 0.8; stroke-linejoin: miter; stroke-linecap: square"/>
   </g>
   <g id="patch_5">
    <path d="M 27.040625 99.875051 
L 409.970625 99.875051 
" style="fill: none; stroke: #000000; stroke-width: 0.8; stroke-linejoin: miter; stroke-linecap: square"/>
   </g>
   <g id="patch_6">
    <path d="M 27.040625 16.870251 
L 409.970625 16.870251 
" style="fill: none; stroke: #000000; stroke-width: 0.8; stroke-linejoin: miter; stroke-linecap: square"/>
   </g>
   <g id="legend_1">
    <g id="patch_7">
     <path d="M 150.4439 8.839062 
L 271.25015 8.839062 
Q 272.25015 8.839062 272.25015 7.839062 
L 272.25015 1 
Q 272.25015 -0 271.25015 -0 
L 150.4439 -0 
Q 149.4439 -0 149.4439 1 
L 149.4439 7.839062 
Q 149.4439 8.839062 150.4439 8.839062 
z
" style="fill: #ffffff; opacity: 0.8; stroke: #cccccc; stroke-linejoin: miter"/>
    </g>
    <g id="line2d_23">
     <path d="M 151.4439 4.049219 
L 156.4439 4.049219 
L 161.4439 4.049219 
" style="fill: none; stroke: #ffa801; stroke-opacity: 0.99; stroke-width: 2.4; stroke-linecap: square"/>
    </g>
    <g id="text_13">
     <!-- End-to-end (RL) -->
     <g transform="translate(165.4439 5.799219)scale(0.05 -0.05)">
      <defs>
       <path id="DejaVuSans-45" d="M 628 4666 
L 3578 4666 
L 3578 4134 
L 1259 4134 
L 1259 2753 
L 3481 2753 
L 3481 2222 
L 1259 2222 
L 1259 531 
L 3634 531 
L 3634 0 
L 628 0 
L 628 4666 
z
" transform="scale(0.015625)"/>
       <path id="DejaVuSans-6e" d="M 3513 2113 
L 3513 0 
L 2938 0 
L 2938 2094 
Q 2938 2591 2744 2837 
Q 2550 3084 2163 3084 
Q 1697 3084 1428 2787 
Q 1159 2491 1159 1978 
L 1159 0 
L 581 0 
L 581 3500 
L 1159 3500 
L 1159 2956 
Q 1366 3272 1645 3428 
Q 1925 3584 2291 3584 
Q 2894 3584 3203 3211 
Q 3513 2838 3513 2113 
z
" transform="scale(0.015625)"/>
       <path id="DejaVuSans-2d" d="M 313 2009 
L 1997 2009 
L 1997 1497 
L 313 1497 
L 313 2009 
z
" transform="scale(0.015625)"/>
       <path id="DejaVuSans-74" d="M 1172 4494 
L 1172 3500 
L 2356 3500 
L 2356 3053 
L 1172 3053 
L 1172 1153 
Q 1172 725 1289 603 
Q 1406 481 1766 481 
L 2356 481 
L 2356 0 
L 1766 0 
Q 1100 0 847 248 
Q 594 497 594 1153 
L 594 3053 
L 172 3053 
L 172 3500 
L 594 3500 
L 594 4494 
L 1172 4494 
z
" transform="scale(0.015625)"/>
       <path id="DejaVuSans-28" d="M 1984 4856 
Q 1566 4138 1362 3434 
Q 1159 2731 1159 2009 
Q 1159 1288 1364 580 
Q 1569 -128 1984 -844 
L 1484 -844 
Q 1016 -109 783 600 
Q 550 1309 550 2009 
Q 550 2706 781 3412 
Q 1013 4119 1484 4856 
L 1984 4856 
z
" transform="scale(0.015625)"/>
       <path id="DejaVuSans-52" d="M 2841 2188 
Q 3044 2119 3236 1894 
Q 3428 1669 3622 1275 
L 4263 0 
L 3584 0 
L 2988 1197 
Q 2756 1666 2539 1819 
Q 2322 1972 1947 1972 
L 1259 1972 
L 1259 0 
L 628 0 
L 628 4666 
L 2053 4666 
Q 2853 4666 3247 4331 
Q 3641 3997 3641 3322 
Q 3641 2881 3436 2590 
Q 3231 2300 2841 2188 
z
M 1259 4147 
L 1259 2491 
L 2053 2491 
Q 2509 2491 2742 2702 
Q 2975 2913 2975 3322 
Q 2975 3731 2742 3939 
Q 2509 4147 2053 4147 
L 1259 4147 
z
" transform="scale(0.015625)"/>
       <path id="DejaVuSans-4c" d="M 628 4666 
L 1259 4666 
L 1259 531 
L 3531 531 
L 3531 0 
L 628 0 
L 628 4666 
z
" transform="scale(0.015625)"/>
       <path id="DejaVuSans-29" d="M 513 4856 
L 1013 4856 
Q 1481 4119 1714 3412 
Q 1947 2706 1947 2009 
Q 1947 1309 1714 600 
Q 1481 -109 1013 -844 
L 513 -844 
Q 928 -128 1133 580 
Q 1338 1288 1338 2009 
Q 1338 2731 1133 3434 
Q 928 4138 513 4856 
z
" transform="scale(0.015625)"/>
      </defs>
      <use xlink:href="#DejaVuSans-45"/>
      <use xlink:href="#DejaVuSans-6e" x="63.183594"/>
      <use xlink:href="#DejaVuSans-64" x="126.5625"/>
      <use xlink:href="#DejaVuSans-2d" x="190.039062"/>
      <use xlink:href="#DejaVuSans-74" x="226.123047"/>
      <use xlink:href="#DejaVuSans-6f" x="265.332031"/>
      <use xlink:href="#DejaVuSans-2d" x="328.388672"/>
      <use xlink:href="#DejaVuSans-65" x="364.472656"/>
      <use xlink:href="#DejaVuSans-6e" x="425.996094"/>
      <use xlink:href="#DejaVuSans-64" x="489.375"/>
      <use xlink:href="#DejaVuSans-20" x="552.851562"/>
      <use xlink:href="#DejaVuSans-28" x="584.638672"/>
      <use xlink:href="#DejaVuSans-52" x="623.652344"/>
      <use xlink:href="#DejaVuSans-4c" x="693.134766"/>
      <use xlink:href="#DejaVuSans-29" x="748.847656"/>
     </g>
    </g>
    <g id="line2d_24">
     <path d="M 214.83765 4.049219 
L 219.83765 4.049219 
L 224.83765 4.049219 
" style="fill: none; stroke: #a55eea; stroke-opacity: 0.99; stroke-width: 2.4; stroke-linecap: square"/>
    </g>
    <g id="text_14">
     <!-- TinyLidarNet (IL) -->
     <g transform="translate(228.83765 5.799219)scale(0.05 -0.05)">
      <defs>
       <path id="DejaVuSans-69" d="M 603 3500 
L 1178 3500 
L 1178 0 
L 603 0 
L 603 3500 
z
M 603 4863 
L 1178 4863 
L 1178 4134 
L 603 4134 
L 603 4863 
z
" transform="scale(0.015625)"/>
       <path id="DejaVuSans-79" d="M 2059 -325 
Q 1816 -950 1584 -1140 
Q 1353 -1331 966 -1331 
L 506 -1331 
L 506 -850 
L 844 -850 
Q 1081 -850 1212 -737 
Q 1344 -625 1503 -206 
L 1606 56 
L 191 3500 
L 800 3500 
L 1894 763 
L 2988 3500 
L 3597 3500 
L 2059 -325 
z
" transform="scale(0.015625)"/>
       <path id="DejaVuSans-4e" d="M 628 4666 
L 1478 4666 
L 3547 763 
L 3547 4666 
L 4159 4666 
L 4159 0 
L 3309 0 
L 1241 3903 
L 1241 0 
L 628 0 
L 628 4666 
z
" transform="scale(0.015625)"/>
       <path id="DejaVuSans-49" d="M 628 4666 
L 1259 4666 
L 1259 0 
L 628 0 
L 628 4666 
z
" transform="scale(0.015625)"/>
      </defs>
      <use xlink:href="#DejaVuSans-54"/>
      <use xlink:href="#DejaVuSans-69" x="57.958984"/>
      <use xlink:href="#DejaVuSans-6e" x="85.742188"/>
      <use xlink:href="#DejaVuSans-79" x="149.121094"/>
      <use xlink:href="#DejaVuSans-4c" x="208.300781"/>
      <use xlink:href="#DejaVuSans-69" x="264.013672"/>
      <use xlink:href="#DejaVuSans-64" x="291.796875"/>
      <use xlink:href="#DejaVuSans-61" x="355.273438"/>
      <use xlink:href="#DejaVuSans-72" x="416.552734"/>
      <use xlink:href="#DejaVuSans-4e" x="457.666016"/>
      <use xlink:href="#DejaVuSans-65" x="532.470703"/>
      <use xlink:href="#DejaVuSans-74" x="593.994141"/>
      <use xlink:href="#DejaVuSans-20" x="633.203125"/>
      <use xlink:href="#DejaVuSans-28" x="664.990234"/>
      <use xlink:href="#DejaVuSans-49" x="704.003906"/>
      <use xlink:href="#DejaVuSans-4c" x="733.496094"/>
      <use xlink:href="#DejaVuSans-29" x="789.208984"/>
     </g>
    </g>
   </g>
  </g>
 </g>
 <defs>
  <clipPath id="pe3b897c8d8">
   <rect x="27.040625" y="16.870251" width="382.93" height="83.0048"/>
  </clipPath>
 </defs>
</svg>
