<?xml version="1.0" encoding="utf-8" standalone="no"?>
<!DOCTYPE svg PUBLIC "-//W3C//DTD SVG 1.1//EN"
  "http://www.w3.org/Graphics/SVG/1.1/DTD/svg11.dtd">
<svg xmlns:xlink="http://www.w3.org/1999/xlink" width="1057.9025pt" height="488.17567pt" viewBox="0 0 1057.9025 488.17567" xmlns="http://www.w3.org/2000/svg" version="1.1">
 <metadata>
  <rdf:RDF xmlns:dc="http://purl.org/dc/elements/1.1/" xmlns:cc="http://creativecommons.org/ns#" xmlns:rdf="http://www.w3.org/1999/02/22-rdf-syntax-ns#">
   <cc:Work>
    <dc:type rdf:resource="http://purl.org/dc/dcmitype/StillImage"/>
    <dc:date>2024-09-03T01:39:08.653906</dc:date>
    <dc:format>image/svg+xml</dc:format>
    <dc:creator>
     <cc:Agent>
      <dc:title>Matplotlib v3.5.2, https://matplotlib.org/</dc:title>
     </cc:Agent>
    </dc:creator>
   </cc:Work>
  </rdf:RDF>
 </metadata>
 <defs>
  <style type="text/css">*{stroke-linejoin: round; stroke-linecap: butt}</style>
 </defs>
 <g id="figure_1">
  <g id="patch_1">
   <path d="M 0 488.17567 
L 1057.9025 488.17567 
L 1057.9025 0 
L 0 0 
z
" style="fill: #ffffff"/>
  </g>
  <g id="axes_1">
   <g id="patch_2">
    <path d="M 46.9525 434.59192 
L 1057.9025 434.59192 
L 1057.9025 72.25112 
L 46.9525 72.25112 
z
" style="fill: #ffffff"/>
   </g>
   <g id="matplotlib.axis_1">
    <g id="xtick_1">
     <g id="line2d_1">
      <path d="M 92.904773 434.59192 
L 92.904773 72.25112 
" clip-path="url(#pa128cdf2e9)" style="fill: none; stroke: #b0b0b0; stroke-width: 0.8; stroke-linecap: square"/>
     </g>
     <g id="line2d_2">
      <defs>
       <path id="ma690095b02" d="M 0 0 
L 0 3.5 
" style="stroke: #000000; stroke-width: 0.8"/>
      </defs>
      <g>
       <use xlink:href="#ma690095b02" x="92.904773" y="434.59192" style="stroke: #000000; stroke-width: 0.8"/>
      </g>
     </g>
     <g id="text_1">
      <!-- 0 -->
      <g transform="translate(86.542273 456.788795)scale(0.2 -0.2)">
       <defs>
        <path id="DejaVuSans-30" d="M 2034 4250 
Q 1547 4250 1301 3770 
Q 1056 3291 1056 2328 
Q 1056 1369 1301 889 
Q 1547 409 2034 409 
Q 2525 409 2770 889 
Q 3016 1369 3016 2328 
Q 3016 3291 2770 3770 
Q 2525 4250 2034 4250 
z
M 2034 4750 
Q 2819 4750 3233 4129 
Q 3647 3509 3647 2328 
Q 3647 1150 3233 529 
Q 2819 -91 2034 -91 
Q 1250 -91 836 529 
Q 422 1150 422 2328 
Q 422 3509 836 4129 
Q 1250 4750 2034 4750 
z
" transform="scale(0.015625)"/>
       </defs>
       <use xlink:href="#DejaVuSans-30"/>
      </g>
     </g>
    </g>
    <g id="xtick_2">
     <g id="line2d_3">
      <path d="M 277.657629 434.59192 
L 277.657629 72.25112 
" clip-path="url(#pa128cdf2e9)" style="fill: none; stroke: #b0b0b0; stroke-width: 0.8; stroke-linecap: square"/>
     </g>
     <g id="line2d_4">
      <g>
       <use xlink:href="#ma690095b02" x="277.657629" y="434.59192" style="stroke: #000000; stroke-width: 0.8"/>
      </g>
     </g>
     <g id="text_2">
      <!-- 20 -->
      <g transform="translate(264.932629 456.788795)scale(0.2 -0.2)">
       <defs>
        <path id="DejaVuSans-32" d="M 1228 531 
L 3431 531 
L 3431 0 
L 469 0 
L 469 531 
Q 828 903 1448 1529 
Q 2069 2156 2228 2338 
Q 2531 2678 2651 2914 
Q 2772 3150 2772 3378 
Q 2772 3750 2511 3984 
Q 2250 4219 1831 4219 
Q 1534 4219 1204 4116 
Q 875 4013 500 3803 
L 500 4441 
Q 881 4594 1212 4672 
Q 1544 4750 1819 4750 
Q 2544 4750 2975 4387 
Q 3406 4025 3406 3419 
Q 3406 3131 3298 2873 
Q 3191 2616 2906 2266 
Q 2828 2175 2409 1742 
Q 1991 1309 1228 531 
z
" transform="scale(0.015625)"/>
       </defs>
       <use xlink:href="#DejaVuSans-32"/>
       <use xlink:href="#DejaVuSans-30" x="63.623047"/>
      </g>
     </g>
    </g>
    <g id="xtick_3">
     <g id="line2d_5">
      <path d="M 462.410486 434.59192 
L 462.410486 72.25112 
" clip-path="url(#pa128cdf2e9)" style="fill: none; stroke: #b0b0b0; stroke-width: 0.8; stroke-linecap: square"/>
     </g>
     <g id="line2d_6">
      <g>
       <use xlink:href="#ma690095b02" x="462.410486" y="434.59192" style="stroke: #000000; stroke-width: 0.8"/>
      </g>
     </g>
     <g id="text_3">
      <!-- 40 -->
      <g transform="translate(449.685486 456.788795)scale(0.2 -0.2)">
       <defs>
        <path id="DejaVuSans-34" d="M 2419 4116 
L 825 1625 
L 2419 1625 
L 2419 4116 
z
M 2253 4666 
L 3047 4666 
L 3047 1625 
L 3713 1625 
L 3713 1100 
L 3047 1100 
L 3047 0 
L 2419 0 
L 2419 1100 
L 313 1100 
L 313 1709 
L 2253 4666 
z
" transform="scale(0.015625)"/>
       </defs>
       <use xlink:href="#DejaVuSans-34"/>
       <use xlink:href="#DejaVuSans-30" x="63.623047"/>
      </g>
     </g>
    </g>
    <g id="xtick_4">
     <g id="line2d_7">
      <path d="M 647.163342 434.59192 
L 647.163342 72.25112 
" clip-path="url(#pa128cdf2e9)" style="fill: none; stroke: #b0b0b0; stroke-width: 0.8; stroke-linecap: square"/>
     </g>
     <g id="line2d_8">
      <g>
       <use xlink:href="#ma690095b02" x="647.163342" y="434.59192" style="stroke: #000000; stroke-width: 0.8"/>
      </g>
     </g>
     <g id="text_4">
      <!-- 60 -->
      <g transform="translate(634.438342 456.788795)scale(0.2 -0.2)">
       <defs>
        <path id="DejaVuSans-36" d="M 2113 2584 
Q 1688 2584 1439 2293 
Q 1191 2003 1191 1497 
Q 1191 994 1439 701 
Q 1688 409 2113 409 
Q 2538 409 2786 701 
Q 3034 994 3034 1497 
Q 3034 2003 2786 2293 
Q 2538 2584 2113 2584 
z
M 3366 4563 
L 3366 3988 
Q 3128 4100 2886 4159 
Q 2644 4219 2406 4219 
Q 1781 4219 1451 3797 
Q 1122 3375 1075 2522 
Q 1259 2794 1537 2939 
Q 1816 3084 2150 3084 
Q 2853 3084 3261 2657 
Q 3669 2231 3669 1497 
Q 3669 778 3244 343 
Q 2819 -91 2113 -91 
Q 1303 -91 875 529 
Q 447 1150 447 2328 
Q 447 3434 972 4092 
Q 1497 4750 2381 4750 
Q 2619 4750 2861 4703 
Q 3103 4656 3366 4563 
z
" transform="scale(0.015625)"/>
       </defs>
       <use xlink:href="#DejaVuSans-36"/>
       <use xlink:href="#DejaVuSans-30" x="63.623047"/>
      </g>
     </g>
    </g>
    <g id="xtick_5">
     <g id="line2d_9">
      <path d="M 831.916199 434.59192 
L 831.916199 72.25112 
" clip-path="url(#pa128cdf2e9)" style="fill: none; stroke: #b0b0b0; stroke-width: 0.8; stroke-linecap: square"/>
     </g>
     <g id="line2d_10">
      <g>
       <use xlink:href="#ma690095b02" x="831.916199" y="434.59192" style="stroke: #000000; stroke-width: 0.8"/>
      </g>
     </g>
     <g id="text_5">
      <!-- 80 -->
      <g transform="translate(819.191199 456.788795)scale(0.2 -0.2)">
       <defs>
        <path id="DejaVuSans-38" d="M 2034 2216 
Q 1584 2216 1326 1975 
Q 1069 1734 1069 1313 
Q 1069 891 1326 650 
Q 1584 409 2034 409 
Q 2484 409 2743 651 
Q 3003 894 3003 1313 
Q 3003 1734 2745 1975 
Q 2488 2216 2034 2216 
z
M 1403 2484 
Q 997 2584 770 2862 
Q 544 3141 544 3541 
Q 544 4100 942 4425 
Q 1341 4750 2034 4750 
Q 2731 4750 3128 4425 
Q 3525 4100 3525 3541 
Q 3525 3141 3298 2862 
Q 3072 2584 2669 2484 
Q 3125 2378 3379 2068 
Q 3634 1759 3634 1313 
Q 3634 634 3220 271 
Q 2806 -91 2034 -91 
Q 1263 -91 848 271 
Q 434 634 434 1313 
Q 434 1759 690 2068 
Q 947 2378 1403 2484 
z
M 1172 3481 
Q 1172 3119 1398 2916 
Q 1625 2713 2034 2713 
Q 2441 2713 2670 2916 
Q 2900 3119 2900 3481 
Q 2900 3844 2670 4047 
Q 2441 4250 2034 4250 
Q 1625 4250 1398 4047 
Q 1172 3844 1172 3481 
z
" transform="scale(0.015625)"/>
       </defs>
       <use xlink:href="#DejaVuSans-38"/>
       <use xlink:href="#DejaVuSans-30" x="63.623047"/>
      </g>
     </g>
    </g>
    <g id="xtick_6">
     <g id="line2d_11">
      <path d="M 1016.669056 434.59192 
L 1016.669056 72.25112 
" clip-path="url(#pa128cdf2e9)" style="fill: none; stroke: #b0b0b0; stroke-width: 0.8; stroke-linecap: square"/>
     </g>
     <g id="line2d_12">
      <g>
       <use xlink:href="#ma690095b02" x="1016.669056" y="434.59192" style="stroke: #000000; stroke-width: 0.8"/>
      </g>
     </g>
     <g id="text_6">
      <!-- 100 -->
      <g transform="translate(997.581556 456.788795)scale(0.2 -0.2)">
       <defs>
        <path id="DejaVuSans-31" d="M 794 531 
L 1825 531 
L 1825 4091 
L 703 3866 
L 703 4441 
L 1819 4666 
L 2450 4666 
L 2450 531 
L 3481 531 
L 3481 0 
L 794 0 
L 794 531 
z
" transform="scale(0.015625)"/>
       </defs>
       <use xlink:href="#DejaVuSans-31"/>
       <use xlink:href="#DejaVuSans-30" x="63.623047"/>
       <use xlink:href="#DejaVuSans-30" x="127.246094"/>
      </g>
     </g>
    </g>
    <g id="text_7">
     <!-- Track progress [%] -->
     <g transform="translate(440.85 483.18442)scale(0.24 -0.24)">
      <defs>
       <path id="DejaVuSans-54" d="M -19 4666 
L 3928 4666 
L 3928 4134 
L 2272 4134 
L 2272 0 
L 1638 0 
L 1638 4134 
L -19 4134 
L -19 4666 
z
" transform="scale(0.015625)"/>
       <path id="DejaVuSans-72" d="M 2631 2963 
Q 2534 3019 2420 3045 
Q 2306 3072 2169 3072 
Q 1681 3072 1420 2755 
Q 1159 2438 1159 1844 
L 1159 0 
L 581 0 
L 581 3500 
L 1159 3500 
L 1159 2956 
Q 1341 3275 1631 3429 
Q 1922 3584 2338 3584 
Q 2397 3584 2469 3576 
Q 2541 3569 2628 3553 
L 2631 2963 
z
" transform="scale(0.015625)"/>
       <path id="DejaVuSans-61" d="M 2194 1759 
Q 1497 1759 1228 1600 
Q 959 1441 959 1056 
Q 959 750 1161 570 
Q 1363 391 1709 391 
Q 2188 391 2477 730 
Q 2766 1069 2766 1631 
L 2766 1759 
L 2194 1759 
z
M 3341 1997 
L 3341 0 
L 2766 0 
L 2766 531 
Q 2569 213 2275 61 
Q 1981 -91 1556 -91 
Q 1019 -91 701 211 
Q 384 513 384 1019 
Q 384 1609 779 1909 
Q 1175 2209 1959 2209 
L 2766 2209 
L 2766 2266 
Q 2766 2663 2505 2880 
Q 2244 3097 1772 3097 
Q 1472 3097 1187 3025 
Q 903 2953 641 2809 
L 641 3341 
Q 956 3463 1253 3523 
Q 1550 3584 1831 3584 
Q 2591 3584 2966 3190 
Q 3341 2797 3341 1997 
z
" transform="scale(0.015625)"/>
       <path id="DejaVuSans-63" d="M 3122 3366 
L 3122 2828 
Q 2878 2963 2633 3030 
Q 2388 3097 2138 3097 
Q 1578 3097 1268 2742 
Q 959 2388 959 1747 
Q 959 1106 1268 751 
Q 1578 397 2138 397 
Q 2388 397 2633 464 
Q 2878 531 3122 666 
L 3122 134 
Q 2881 22 2623 -34 
Q 2366 -91 2075 -91 
Q 1284 -91 818 406 
Q 353 903 353 1747 
Q 353 2603 823 3093 
Q 1294 3584 2113 3584 
Q 2378 3584 2631 3529 
Q 2884 3475 3122 3366 
z
" transform="scale(0.015625)"/>
       <path id="DejaVuSans-6b" d="M 581 4863 
L 1159 4863 
L 1159 1991 
L 2875 3500 
L 3609 3500 
L 1753 1863 
L 3688 0 
L 2938 0 
L 1159 1709 
L 1159 0 
L 581 0 
L 581 4863 
z
" transform="scale(0.015625)"/>
       <path id="DejaVuSans-20" transform="scale(0.015625)"/>
       <path id="DejaVuSans-70" d="M 1159 525 
L 1159 -1331 
L 581 -1331 
L 581 3500 
L 1159 3500 
L 1159 2969 
Q 1341 3281 1617 3432 
Q 1894 3584 2278 3584 
Q 2916 3584 3314 3078 
Q 3713 2572 3713 1747 
Q 3713 922 3314 415 
Q 2916 -91 2278 -91 
Q 1894 -91 1617 61 
Q 1341 213 1159 525 
z
M 3116 1747 
Q 3116 2381 2855 2742 
Q 2594 3103 2138 3103 
Q 1681 3103 1420 2742 
Q 1159 2381 1159 1747 
Q 1159 1113 1420 752 
Q 1681 391 2138 391 
Q 2594 391 2855 752 
Q 3116 1113 3116 1747 
z
" transform="scale(0.015625)"/>
       <path id="DejaVuSans-6f" d="M 1959 3097 
Q 1497 3097 1228 2736 
Q 959 2375 959 1747 
Q 959 1119 1226 758 
Q 1494 397 1959 397 
Q 2419 397 2687 759 
Q 2956 1122 2956 1747 
Q 2956 2369 2687 2733 
Q 2419 3097 1959 3097 
z
M 1959 3584 
Q 2709 3584 3137 3096 
Q 3566 2609 3566 1747 
Q 3566 888 3137 398 
Q 2709 -91 1959 -91 
Q 1206 -91 779 398 
Q 353 888 353 1747 
Q 353 2609 779 3096 
Q 1206 3584 1959 3584 
z
" transform="scale(0.015625)"/>
       <path id="DejaVuSans-67" d="M 2906 1791 
Q 2906 2416 2648 2759 
Q 2391 3103 1925 3103 
Q 1463 3103 1205 2759 
Q 947 2416 947 1791 
Q 947 1169 1205 825 
Q 1463 481 1925 481 
Q 2391 481 2648 825 
Q 2906 1169 2906 1791 
z
M 3481 434 
Q 3481 -459 3084 -895 
Q 2688 -1331 1869 -1331 
Q 1566 -1331 1297 -1286 
Q 1028 -1241 775 -1147 
L 775 -588 
Q 1028 -725 1275 -790 
Q 1522 -856 1778 -856 
Q 2344 -856 2625 -561 
Q 2906 -266 2906 331 
L 2906 616 
Q 2728 306 2450 153 
Q 2172 0 1784 0 
Q 1141 0 747 490 
Q 353 981 353 1791 
Q 353 2603 747 3093 
Q 1141 3584 1784 3584 
Q 2172 3584 2450 3431 
Q 2728 3278 2906 2969 
L 2906 3500 
L 3481 3500 
L 3481 434 
z
" transform="scale(0.015625)"/>
       <path id="DejaVuSans-65" d="M 3597 1894 
L 3597 1613 
L 953 1613 
Q 991 1019 1311 708 
Q 1631 397 2203 397 
Q 2534 397 2845 478 
Q 3156 559 3463 722 
L 3463 178 
Q 3153 47 2828 -22 
Q 2503 -91 2169 -91 
Q 1331 -91 842 396 
Q 353 884 353 1716 
Q 353 2575 817 3079 
Q 1281 3584 2069 3584 
Q 2775 3584 3186 3129 
Q 3597 2675 3597 1894 
z
M 3022 2063 
Q 3016 2534 2758 2815 
Q 2500 3097 2075 3097 
Q 1594 3097 1305 2825 
Q 1016 2553 972 2059 
L 3022 2063 
z
" transform="scale(0.015625)"/>
       <path id="DejaVuSans-73" d="M 2834 3397 
L 2834 2853 
Q 2591 2978 2328 3040 
Q 2066 3103 1784 3103 
Q 1356 3103 1142 2972 
Q 928 2841 928 2578 
Q 928 2378 1081 2264 
Q 1234 2150 1697 2047 
L 1894 2003 
Q 2506 1872 2764 1633 
Q 3022 1394 3022 966 
Q 3022 478 2636 193 
Q 2250 -91 1575 -91 
Q 1294 -91 989 -36 
Q 684 19 347 128 
L 347 722 
Q 666 556 975 473 
Q 1284 391 1588 391 
Q 1994 391 2212 530 
Q 2431 669 2431 922 
Q 2431 1156 2273 1281 
Q 2116 1406 1581 1522 
L 1381 1569 
Q 847 1681 609 1914 
Q 372 2147 372 2553 
Q 372 3047 722 3315 
Q 1072 3584 1716 3584 
Q 2034 3584 2315 3537 
Q 2597 3491 2834 3397 
z
" transform="scale(0.015625)"/>
       <path id="DejaVuSans-5b" d="M 550 4863 
L 1875 4863 
L 1875 4416 
L 1125 4416 
L 1125 -397 
L 1875 -397 
L 1875 -844 
L 550 -844 
L 550 4863 
z
" transform="scale(0.015625)"/>
       <path id="DejaVuSans-25" d="M 4653 2053 
Q 4381 2053 4226 1822 
Q 4072 1591 4072 1178 
Q 4072 772 4226 539 
Q 4381 306 4653 306 
Q 4919 306 5073 539 
Q 5228 772 5228 1178 
Q 5228 1588 5073 1820 
Q 4919 2053 4653 2053 
z
M 4653 2450 
Q 5147 2450 5437 2106 
Q 5728 1763 5728 1178 
Q 5728 594 5436 251 
Q 5144 -91 4653 -91 
Q 4153 -91 3862 251 
Q 3572 594 3572 1178 
Q 3572 1766 3864 2108 
Q 4156 2450 4653 2450 
z
M 1428 4353 
Q 1159 4353 1004 4120 
Q 850 3888 850 3481 
Q 850 3069 1003 2837 
Q 1156 2606 1428 2606 
Q 1700 2606 1854 2837 
Q 2009 3069 2009 3481 
Q 2009 3884 1853 4118 
Q 1697 4353 1428 4353 
z
M 4250 4750 
L 4750 4750 
L 1831 -91 
L 1331 -91 
L 4250 4750 
z
M 1428 4750 
Q 1922 4750 2215 4408 
Q 2509 4066 2509 3481 
Q 2509 2891 2217 2550 
Q 1925 2209 1428 2209 
Q 931 2209 642 2551 
Q 353 2894 353 3481 
Q 353 4063 643 4406 
Q 934 4750 1428 4750 
z
" transform="scale(0.015625)"/>
       <path id="DejaVuSans-5d" d="M 1947 4863 
L 1947 -844 
L 622 -844 
L 622 -397 
L 1369 -397 
L 1369 4416 
L 622 4416 
L 622 4863 
L 1947 4863 
z
" transform="scale(0.015625)"/>
      </defs>
      <use xlink:href="#DejaVuSans-54"/>
      <use xlink:href="#DejaVuSans-72" x="46.333984"/>
      <use xlink:href="#DejaVuSans-61" x="87.447266"/>
      <use xlink:href="#DejaVuSans-63" x="148.726562"/>
      <use xlink:href="#DejaVuSans-6b" x="203.707031"/>
      <use xlink:href="#DejaVuSans-20" x="261.617188"/>
      <use xlink:href="#DejaVuSans-70" x="293.404297"/>
      <use xlink:href="#DejaVuSans-72" x="356.880859"/>
      <use xlink:href="#DejaVuSans-6f" x="395.744141"/>
      <use xlink:href="#DejaVuSans-67" x="456.925781"/>
      <use xlink:href="#DejaVuSans-72" x="520.402344"/>
      <use xlink:href="#DejaVuSans-65" x="559.265625"/>
      <use xlink:href="#DejaVuSans-73" x="620.789062"/>
      <use xlink:href="#DejaVuSans-73" x="672.888672"/>
      <use xlink:href="#DejaVuSans-20" x="724.988281"/>
      <use xlink:href="#DejaVuSans-5b" x="756.775391"/>
      <use xlink:href="#DejaVuSans-25" x="795.789062"/>
      <use xlink:href="#DejaVuSans-5d" x="890.808594"/>
     </g>
    </g>
   </g>
   <g id="matplotlib.axis_2">
    <g id="ytick_1">
     <g id="line2d_13">
      <path d="M 46.9525 386.279813 
L 1057.9025 386.279813 
" clip-path="url(#pa128cdf2e9)" style="fill: none; stroke: #b0b0b0; stroke-width: 0.8; stroke-linecap: square"/>
     </g>
     <g id="line2d_14">
      <defs>
       <path id="m05a082f089" d="M 0 0 
L -3.5 0 
" style="stroke: #000000; stroke-width: 0.8"/>
      </defs>
      <g>
       <use xlink:href="#m05a082f089" x="46.9525" y="386.279813" style="stroke: #000000; stroke-width: 0.8"/>
      </g>
     </g>
     <g id="text_8">
      <!-- 2 -->
      <g transform="translate(27.2275 393.878251)scale(0.2 -0.2)">
       <use xlink:href="#DejaVuSans-32"/>
      </g>
     </g>
    </g>
    <g id="ytick_2">
     <g id="line2d_15">
      <path d="M 46.9525 289.6556 
L 1057.9025 289.6556 
" clip-path="url(#pa128cdf2e9)" style="fill: none; stroke: #b0b0b0; stroke-width: 0.8; stroke-linecap: square"/>
     </g>
     <g id="line2d_16">
      <g>
       <use xlink:href="#m05a082f089" x="46.9525" y="289.6556" style="stroke: #000000; stroke-width: 0.8"/>
      </g>
     </g>
     <g id="text_9">
      <!-- 4 -->
      <g transform="translate(27.2275 297.254037)scale(0.2 -0.2)">
       <use xlink:href="#DejaVuSans-34"/>
      </g>
     </g>
    </g>
    <g id="ytick_3">
     <g id="line2d_17">
      <path d="M 46.9525 193.031387 
L 1057.9025 193.031387 
" clip-path="url(#pa128cdf2e9)" style="fill: none; stroke: #b0b0b0; stroke-width: 0.8; stroke-linecap: square"/>
     </g>
     <g id="line2d_18">
      <g>
       <use xlink:href="#m05a082f089" x="46.9525" y="193.031387" style="stroke: #000000; stroke-width: 0.8"/>
      </g>
     </g>
     <g id="text_10">
      <!-- 6 -->
      <g transform="translate(27.2275 200.629824)scale(0.2 -0.2)">
       <use xlink:href="#DejaVuSans-36"/>
      </g>
     </g>
    </g>
    <g id="ytick_4">
     <g id="line2d_19">
      <path d="M 46.9525 96.407173 
L 1057.9025 96.407173 
" clip-path="url(#pa128cdf2e9)" style="fill: none; stroke: #b0b0b0; stroke-width: 0.8; stroke-linecap: square"/>
     </g>
     <g id="line2d_20">
      <g>
       <use xlink:href="#m05a082f089" x="46.9525" y="96.407173" style="stroke: #000000; stroke-width: 0.8"/>
      </g>
     </g>
     <g id="text_11">
      <!-- 8 -->
      <g transform="translate(27.2275 104.005611)scale(0.2 -0.2)">
       <use xlink:href="#DejaVuSans-38"/>
      </g>
     </g>
    </g>
    <g id="text_12">
     <!-- Speed [m/s] -->
     <g transform="translate(18.23625 326.203395)rotate(-90)scale(0.24 -0.24)">
      <defs>
       <path id="DejaVuSans-53" d="M 3425 4513 
L 3425 3897 
Q 3066 4069 2747 4153 
Q 2428 4238 2131 4238 
Q 1616 4238 1336 4038 
Q 1056 3838 1056 3469 
Q 1056 3159 1242 3001 
Q 1428 2844 1947 2747 
L 2328 2669 
Q 3034 2534 3370 2195 
Q 3706 1856 3706 1288 
Q 3706 609 3251 259 
Q 2797 -91 1919 -91 
Q 1588 -91 1214 -16 
Q 841 59 441 206 
L 441 856 
Q 825 641 1194 531 
Q 1563 422 1919 422 
Q 2459 422 2753 634 
Q 3047 847 3047 1241 
Q 3047 1584 2836 1778 
Q 2625 1972 2144 2069 
L 1759 2144 
Q 1053 2284 737 2584 
Q 422 2884 422 3419 
Q 422 4038 858 4394 
Q 1294 4750 2059 4750 
Q 2388 4750 2728 4690 
Q 3069 4631 3425 4513 
z
" transform="scale(0.015625)"/>
       <path id="DejaVuSans-64" d="M 2906 2969 
L 2906 4863 
L 3481 4863 
L 3481 0 
L 2906 0 
L 2906 525 
Q 2725 213 2448 61 
Q 2172 -91 1784 -91 
Q 1150 -91 751 415 
Q 353 922 353 1747 
Q 353 2572 751 3078 
Q 1150 3584 1784 3584 
Q 2172 3584 2448 3432 
Q 2725 3281 2906 2969 
z
M 947 1747 
Q 947 1113 1208 752 
Q 1469 391 1925 391 
Q 2381 391 2643 752 
Q 2906 1113 2906 1747 
Q 2906 2381 2643 2742 
Q 2381 3103 1925 3103 
Q 1469 3103 1208 2742 
Q 947 2381 947 1747 
z
" transform="scale(0.015625)"/>
       <path id="DejaVuSans-6d" d="M 3328 2828 
Q 3544 3216 3844 3400 
Q 4144 3584 4550 3584 
Q 5097 3584 5394 3201 
Q 5691 2819 5691 2113 
L 5691 0 
L 5113 0 
L 5113 2094 
Q 5113 2597 4934 2840 
Q 4756 3084 4391 3084 
Q 3944 3084 3684 2787 
Q 3425 2491 3425 1978 
L 3425 0 
L 2847 0 
L 2847 2094 
Q 2847 2600 2669 2842 
Q 2491 3084 2119 3084 
Q 1678 3084 1418 2786 
Q 1159 2488 1159 1978 
L 1159 0 
L 581 0 
L 581 3500 
L 1159 3500 
L 1159 2956 
Q 1356 3278 1631 3431 
Q 1906 3584 2284 3584 
Q 2666 3584 2933 3390 
Q 3200 3197 3328 2828 
z
" transform="scale(0.015625)"/>
       <path id="DejaVuSans-2f" d="M 1625 4666 
L 2156 4666 
L 531 -594 
L 0 -594 
L 1625 4666 
z
" transform="scale(0.015625)"/>
      </defs>
      <use xlink:href="#DejaVuSans-53"/>
      <use xlink:href="#DejaVuSans-70" x="63.476562"/>
      <use xlink:href="#DejaVuSans-65" x="126.953125"/>
      <use xlink:href="#DejaVuSans-65" x="188.476562"/>
      <use xlink:href="#DejaVuSans-64" x="250"/>
      <use xlink:href="#DejaVuSans-20" x="313.476562"/>
      <use xlink:href="#DejaVuSans-5b" x="345.263672"/>
      <use xlink:href="#DejaVuSans-6d" x="384.277344"/>
      <use xlink:href="#DejaVuSans-2f" x="481.689453"/>
      <use xlink:href="#DejaVuSans-73" x="515.380859"/>
      <use xlink:href="#DejaVuSans-5d" x="567.480469"/>
     </g>
    </g>
   </g>
   <g id="line2d_21">
    <path d="M 92.904773 482.904027 
L 92.904773 437.766508 
L 93.226511 426.280305 
L 93.226511 414.794102 
L 93.548249 403.307898 
L 93.548249 391.821695 
L 93.869988 380.335492 
L 94.352595 368.849288 
L 95.049695 345.876881 
L 95.800417 334.390678 
L 96.122156 322.904475 
L 97.24824 299.932068 
L 97.945339 288.445865 
L 98.267078 276.959661 
L 98.803308 265.473458 
L 99.446785 254.378018 
L 100.143884 244.495779 
L 100.626492 235.798946 
L 102.449676 221.083153 
L 103.093152 214.952009 
L 104.594598 204.901054 
L 105.398943 200.534118 
L 106.525027 196.856388 
L 107.222127 193.729995 
L 108.026473 190.739245 
L 109.152557 188.104472 
L 109.796033 185.806266 
L 110.654002 183.718797 
L 111.780086 181.965868 
L 112.423563 180.335312 
L 113.227909 179.094535 
L 114.407616 177.907904 
L 115.051092 176.722328 
L 117.035145 175.151288 
L 118.965575 174.359833 
L 119.662675 173.877632 
L 120.788759 173.794317 
L 121.914843 174.153068 
L 122.719189 174.080226 
L 123.416288 173.889667 
L 124.542372 173.979371 
L 125.346718 174.554258 
L 126.526425 174.798214 
L 127.330771 175.887375 
L 127.974247 177.273612 
L 129.153955 178.500581 
L 129.9583 179.592374 
L 131.084384 180.898091 
L 132.58583 181.480714 
L 133.711914 185.010899 
L 134.51626 190.05472 
L 136.017705 202.182611 
L 137.143789 207.027271 
L 137.948135 211.731577 
L 139.44958 215.27695 
L 140.253926 220.018787 
L 140.897403 219.648477 
L 142.881455 220.43458 
L 143.203194 225.570369 
L 144.329278 228.097676 
L 145.133623 231.426214 
L 145.508985 233.749848 
L 146.635069 235.912455 
L 146.956807 235.682195 
L 147.761153 241.247629 
L 149.262598 257.909958 
L 150.066944 260.22781 
L 151.193028 266.701965 
L 151.997374 265.841572 
L 152.694474 264.675387 
L 153.177081 263.349458 
L 153.820558 261.115227 
L 154.303165 259.018671 
L 155.429249 261.441487 
L 155.80461 262.865491 
L 156.608956 263.085162 
L 157.252433 262.922976 
L 158.43214 261.757222 
L 158.861124 260.868838 
L 160.040831 259.549308 
L 160.040831 257.983298 
L 161.166915 256.242711 
L 161.971261 253.345108 
L 162.292999 250.366091 
L 162.775607 247.482156 
L 163.955314 244.201581 
L 164.384298 240.492033 
L 166.046613 236.545626 
L 168.245158 232.347346 
L 168.727765 227.130428 
L 169.532111 225.84743 
L 170.711818 222.49387 
L 172.481379 218.342638 
L 172.481379 213.85851 
L 174.626301 209.863995 
L 174.626301 206.47512 
L 174.626301 209.725258 
L 176.824846 211.388932 
L 176.824846 215.570642 
L 180.095852 215.62395 
L 180.095852 211.226783 
L 180.739329 209.528513 
L 181.758167 209.018615 
L 183.58135 209.927062 
L 183.58135 208.983584 
L 183.903089 208.509157 
L 184.921927 208.96209 
L 186.423372 208.827134 
L 187.388587 207.869213 
L 187.871194 206.552366 
L 188.246556 204.261087 
L 189.694378 201.908496 
L 190.713216 199.573228 
L 191.195823 197.164044 
L 193.126253 193.527826 
L 194.252337 192.069285 
L 194.949437 190.67035 
L 195.432044 190.283954 
L 196.879867 189.890756 
L 197.362474 189.092133 
L 199.668265 187.563716 
L 201.116088 186.005469 
L 202.403041 184.351657 
L 204.065355 181.121027 
L 208.408823 172.285619 
L 209.58853 170.546362 
L 211.197221 167.323632 
L 212.484174 166.227337 
L 214.092866 164.242391 
L 215.379819 163.377228 
L 216.184165 162.528156 
L 217.792856 161.421069 
L 219.079809 160.841186 
L 219.884155 160.346027 
L 220.688501 160.067871 
L 222.7798 159.684605 
L 223.584146 159.438921 
L 226.158052 158.902805 
L 226.64066 158.496514 
L 229.697173 157.442038 
L 231.413111 157.178826 
L 232.378326 156.894598 
L 232.378326 156.771097 
L 236.989908 156.147586 
L 236.989908 155.966428 
L 240.636276 155.340891 
L 242.513082 156.194556 
L 242.99569 156.907849 
L 243.960905 157.820317 
L 244.92612 157.820206 
L 245.837711 158.36222 
L 246.802926 159.186746 
L 247.768141 159.772212 
L 249.484079 160.549999 
L 249.484079 162.10809 
L 250.449294 163.512473 
L 251.414509 165.456342 
L 253.291315 168.68735 
L 254.739138 170.19268 
L 255.060876 172.15102 
L 256.026091 174.098139 
L 257.42029 179.007794 
L 258.868113 181.34361 
L 259.189851 184.70386 
L 260.155066 184.173808 
L 261.066658 183.912983 
L 262.031873 184.079794 
L 263.318826 191.636965 
L 264.713025 191.633824 
L 265.088386 192.701905 
L 265.999978 193.264967 
L 266.965193 197.108159 
L 267.447801 196.925289 
L 268.734754 197.713342 
L 269.217361 198.53078 
L 270.128953 198.933396 
L 270.933299 202.797328 
L 271.898514 206.213101 
L 272.381121 209.693803 
L 273.185467 210.433024 
L 274.150682 212.177047 
L 274.150682 215.351248 
L 275.437635 215.1213 
L 276.349227 215.174019 
L 276.349227 219.419981 
L 278.118788 223.808474 
L 278.601395 233.853272 
L 278.601395 232.578282 
L 279.888348 240.589015 
L 280.79994 244.881673 
L 280.79994 248.80702 
L 281.282547 250.9686 
L 282.569501 250.11046 
L 282.569501 250.401318 
L 283.052108 248.447882 
L 284.339061 246.869827 
L 284.339061 253.309657 
L 286.108622 252.081054 
L 287.502821 249.319408 
L 289.754989 247.338146 
L 290.237597 246.607144 
L 292.168027 244.357144 
L 292.168027 243.289557 
L 293.669472 243.155447 
L 293.669472 242.698291 
L 295.814394 242.299266 
L 295.814394 239.462609 
L 297.959316 237.754821 
L 298.281054 235.250585 
L 298.281054 232.889556 
L 298.602793 231.01902 
L 300.425976 229.127008 
L 302.463652 224.316764 
L 303.428867 223.020572 
L 304.769443 221.89654 
L 305.627412 219.563484 
L 306.270889 218.64554 
L 306.967988 217.353009 
L 307.933203 216.544232 
L 308.737549 215.621353 
L 309.434649 214.426333 
L 310.882471 210.919921 
L 311.901309 208.51952 
L 313.402754 203.506679 
L 314.528839 201.280306 
L 314.850577 199.180285 
L 315.654923 196.986388 
L 316.83463 194.752268 
L 317.156368 192.767343 
L 318.282452 190.952435 
L 319.086798 189.093106 
L 321.392589 185.331788 
L 321.392589 183.720928 
L 324.824464 177.525422 
L 324.824464 175.633541 
L 326.004171 173.524586 
L 328.953439 169.888901 
L 328.953439 168.319305 
L 330.401261 166.767163 
L 330.401261 165.299656 
L 333.350529 162.865646 
L 333.350529 161.779391 
L 335.173713 160.733627 
L 335.173713 159.785761 
L 336.996896 159.097719 
L 336.996896 158.268933 
L 340.643264 156.868919 
L 340.643264 156.39415 
L 342.466448 155.896656 
L 342.788186 155.347239 
L 342.788186 154.84352 
L 344.61137 154.124985 
L 346.434553 153.643619 
L 346.434553 153.069108 
L 348.204114 152.620815 
L 348.204114 152.359355 
L 350.027298 152.326223 
L 350.027298 153.281161 
L 352.17222 154.010407 
L 352.17222 154.774281 
L 353.995403 155.419317 
L 353.995403 156.006302 
L 355.818587 156.246932 
L 357.641771 156.161727 
L 359.464954 156.620106 
L 359.464954 157.104399 
L 361.609876 157.057776 
L 361.609876 157.436792 
L 363.43306 158.131117 
L 363.43306 158.373604 
L 365.202621 158.865124 
L 365.202621 158.852086 
L 367.025805 158.861477 
L 367.401166 159.947685 
L 368.848988 160.539129 
L 369.170727 161.411133 
L 370.672172 161.525572 
L 370.99391 161.744662 
L 372.817094 162.281097 
L 373.138832 162.134739 
L 374.640278 162.135616 
L 374.962016 162.735863 
L 376.7852 163.201823 
L 378.286645 163.323512 
L 380.056206 164.079478 
L 381.235913 164.051871 
L 381.879389 164.448418 
L 382.576489 164.403994 
L 384.024311 164.920251 
L 384.399673 165.627834 
L 387.670679 166.490795 
L 388.475025 166.488223 
L 389.493862 167.538727 
L 391.317046 167.88812 
L 391.960523 168.00822 
L 393.14023 168.679243 
L 393.783706 169.305881 
L 394.909791 170.015608 
L 395.60689 169.966877 
L 396.732974 170.225626 
L 399.682242 169.988566 
L 400.379342 170.134688 
L 402.202525 169.9978 
L 403.221363 170.154694 
L 404.025709 170.595223 
L 404.990924 170.485352 
L 405.79527 170.66811 
L 406.814108 171.158506 
L 407.618453 172.02358 
L 408.637291 172.007234 
L 409.441637 172.905237 
L 411.264821 174.19316 
L 412.283659 175.016902 
L 413.088004 175.841021 
L 414.106842 176.154895 
L 414.911188 176.816284 
L 415.876403 178.00968 
L 416.680749 179.564362 
L 417.699587 180.983395 
L 418.503933 181.702761 
L 419.52277 182.250384 
L 421.024216 189.887044 
L 422.472038 194.998255 
L 422.793777 201.252431 
L 423.812614 206.23063 
L 424.61696 210.92884 
L 426.118406 214.770328 
L 426.761882 214.654144 
L 427.941589 215.188231 
L 428.263328 217.898549 
L 430.086511 219.174114 
L 431.105349 224.313908 
L 431.534334 227.536012 
L 432.231433 230.606111 
L 433.732879 233.509042 
L 434.376355 237.120532 
L 435.502439 241.574737 
L 435.877801 243.964789 
L 436.843016 251.603034 
L 437.325623 259.729833 
L 438.022723 262.533502 
L 438.666199 267.048522 
L 439.148807 266.667664 
L 439.845906 265.65056 
L 440.489383 264.512338 
L 441.293729 262.322487 
L 441.615467 262.106504 
L 442.634305 262.156695 
L 443.116913 265.858976 
L 443.760389 267.929053 
L 444.457489 268.873027 
L 444.940096 269.231798 
L 445.583573 268.543039 
L 446.280672 268.497113 
L 446.924149 268.954128 
L 447.29951 269.478263 
L 447.942987 267.20183 
L 448.264725 269.320084 
L 449.444432 270.465215 
L 449.766171 269.480475 
L 451.106747 263.801154 
L 452.554569 259.91844 
L 452.929931 260.730487 
L 454.753114 268.522518 
L 454.753114 268.381519 
L 454.753114 265.075765 
L 456.200937 264.458166 
L 456.200937 263.566113 
L 457.702382 261.870462 
L 459.471943 258.851791 
L 460.866142 254.761579 
L 461.670488 251.058067 
L 462.796572 248.984481 
L 462.796572 247.548354 
L 463.976279 244.739353 
L 464.298017 256.225557 
L 465.102363 255.212352 
L 465.424101 252.235141 
L 466.603808 252.021124 
L 467.247285 250.915474 
L 467.569023 247.848017 
L 468.74873 245.551332 
L 469.070469 242.825198 
L 469.767568 239.402762 
L 470.893652 236.06773 
L 471.215391 233.894998 
L 471.91249 230.340501 
L 472.555967 224.662325 
L 473.253067 220.812884 
L 474.700889 216.925147 
L 475.022627 214.325848 
L 476.363204 209.520513 
L 477.382041 206.638998 
L 478.722618 199.20336 
L 479.741456 195.914727 
L 480.384932 192.984038 
L 481.082032 190.500948 
L 482.10087 188.234918 
L 482.744346 186.17564 
L 483.763184 184.694256 
L 484.406661 183.508713 
L 485.425499 182.275875 
L 486.122599 181.082895 
L 487.087814 180.364151 
L 491.109542 176.22901 
L 492.82548 175.22025 
L 493.147218 174.810869 
L 494.648664 174.455404 
L 495.613878 174.005859 
L 497.329816 173.944573 
L 498.295031 174.986257 
L 498.992131 175.314666 
L 500.010969 175.971294 
L 500.654445 177.877356 
L 501.673283 178.83958 
L 501.673283 178.800891 
L 503.496467 178.702876 
L 504.139943 179.009984 
L 505.158781 179.623193 
L 505.802258 181.467889 
L 506.821096 182.323732 
L 507.518196 183.294906 
L 508.48341 186.844295 
L 510.199348 195.63309 
L 510.199348 202.104405 
L 511.64717 207.874931 
L 512.34427 214.17342 
L 513.363108 214.05754 
L 514.006585 213.826606 
L 514.703684 216.296541 
L 515.347161 215.671456 
L 516.365999 215.200747 
L 517.009475 217.262868 
L 518.350052 219.775228 
L 518.725413 224.668521 
L 519.851497 228.155166 
L 520.870335 232.239068 
L 522.210911 236.804987 
L 522.854388 240.478311 
L 523.551488 239.854651 
L 524.194964 245.322352 
L 524.892064 252.597519 
L 525.213802 258.713673 
L 525.857279 265.570954 
L 526.554378 271.25772 
L 527.197855 275.585917 
L 527.197855 274.864964 
L 528.377562 278.536624 
L 529.021039 277.374973 
L 529.342777 276.550968 
L 530.039877 272.119435 
L 531.702191 257.732797 
L 532.399291 254.706647 
L 533.042767 250.867416 
L 533.847113 248.20296 
L 535.187689 242.034735 
L 535.670297 236.405666 
L 536.689135 230.225492 
L 538.136957 227.909083 
L 538.136957 225.657661 
L 539.960141 223.583357 
L 539.960141 222.091221 
L 541.461586 220.367955 
L 541.944194 218.911585 
L 544.035493 216.908956 
L 545.75143 214.973619 
L 546.716645 214.227095 
L 547.896352 215.495292 
L 548.218091 216.016164 
L 549.505044 216.779524 
L 549.826782 215.019912 
L 550.631128 212.353959 
L 551.757212 211.956413 
L 552.132573 214.179162 
L 553.258657 210.534088 
L 553.580396 215.062992 
L 554.384741 216.040451 
L 555.564448 227.526654 
L 556.690532 230.745951 
L 556.690532 230.715453 
L 557.816617 231.758582 
L 558.191978 230.27651 
L 559.318062 228.138542 
L 559.6398 224.026837 
L 560.444146 219.077464 
L 561.945591 214.128881 
L 561.945591 209.153962 
L 563.071675 204.450981 
L 564.573121 199.784747 
L 564.573121 195.465272 
L 565.699205 191.790498 
L 566.825289 188.567928 
L 567.20065 185.512492 
L 568.326734 182.714227 
L 569.452818 180.247319 
L 569.82818 178.264357 
L 572.080348 174.419596 
L 573.260055 172.694406 
L 573.260055 171.07168 
L 575.887584 168.216049 
L 577.335407 167.091975 
L 577.335407 165.765066 
L 579.641198 163.166492 
L 581.08902 162.207125 
L 581.08902 161.301237 
L 583.71655 159.602407 
L 583.71655 158.8787 
L 587.523786 157.217756 
L 587.523786 156.726354 
L 588.64987 156.347767 
L 590.151316 155.664623 
L 592.725222 154.912935 
L 592.725222 154.185562 
L 593.904929 153.496352 
L 595.031013 153.100407 
L 596.532459 152.710396 
L 599.159988 154.573448 
L 600.286072 155.130606 
L 600.60781 155.550091 
L 601.787518 155.694375 
L 602.913602 156.09905 
L 605.541131 156.707084 
L 605.541131 156.842554 
L 606.667215 157.105518 
L 608.490399 157.140644 
L 609.294745 157.184019 
L 610.420829 157.409393 
L 613.423719 158.604214 
L 614.549803 158.568737 
L 615.675888 158.648131 
L 616.855595 159.255995 
L 617.177333 159.696186 
L 618.303417 160.420914 
L 619.483124 160.784535 
L 620.609208 161.002964 
L 620.930946 161.421375 
L 623.236738 161.57658 
L 625.059921 163.516736 
L 625.864267 164.372149 
L 626.990351 164.340671 
L 627.687451 164.877867 
L 628.813535 165.035791 
L 629.939619 164.962975 
L 630.743965 165.555532 
L 631.923672 166.746222 
L 632.567148 168.846556 
L 633.746855 170.477703 
L 635.677285 170.377576 
L 636.320762 171.729315 
L 637.178731 171.528702 
L 638.304815 171.403955 
L 639.430899 171.644196 
L 639.752637 172.236793 
L 640.932344 173.239161 
L 642.058428 174.820483 
L 643.559874 177.285799 
L 644.685958 177.700879 
L 645.704796 178.248786 
L 646.187403 177.869231 
L 647.313487 178.698336 
L 648.439571 178.482155 
L 649.941016 178.333769 
L 651.067101 178.778835 
L 652.085938 181.060395 
L 652.568546 183.238591 
L 653.69463 184.251336 
L 654.874337 185.658589 
L 654.874337 185.220666 
L 657.448243 184.529901 
L 658.467081 184.874485 
L 658.949689 189.220758 
L 660.075773 191.522399 
L 661.25548 191.131054 
L 661.25548 190.829627 
L 662.703302 190.198681 
L 663.883009 190.02274 
L 663.883009 190.690213 
L 665.330832 192.442355 
L 666.510539 192.364245 
L 666.510539 192.227165 
L 667.958361 195.074192 
L 669.138068 196.983818 
L 669.781545 198.295981 
L 670.264152 198.806209 
L 671.711975 199.847677 
L 671.711975 199.508868 
L 674.822112 198.864017 
L 676.001819 198.876298 
L 676.001819 199.392382 
L 677.127903 200.165797 
L 679.058333 200.561891 
L 679.862678 200.339164 
L 681.042386 200.162128 
L 681.846731 199.882555 
L 686.029329 199.141627 
L 687.638021 198.323705 
L 688.924974 198.078159 
L 689.407581 197.720022 
L 690.211927 197.277235 
L 691.016273 197.029169 
L 692.303226 196.905856 
L 692.785833 196.456361 
L 694.072787 196.098586 
L 694.555394 195.724134 
L 695.35974 195.506826 
L 696.646693 195.307627 
L 697.075677 195.089186 
L 697.880023 194.51554 
L 698.845238 194.03766 
L 699.649584 193.332795 
L 700.614799 192.726549 
L 701.419145 191.938241 
L 703.993051 189.991892 
L 704.475658 189.249115 
L 705.762612 188.570255 
L 706.191596 187.612119 
L 707.478549 186.750248 
L 707.961157 185.803194 
L 709.408979 184.851417 
L 709.730717 183.853035 
L 711.17854 182.945041 
L 711.500278 181.919406 
L 712.894477 180.955914 
L 713.269839 180.120025 
L 714.18143 179.384022 
L 715.950991 177.450268 
L 717.398813 176.738226 
L 718.203159 175.062976 
L 719.919097 174.095492 
L 719.919097 173.241942 
L 721.849527 172.195264 
L 722.171265 171.280292 
L 722.653872 170.408686 
L 724.423433 169.504117 
L 724.423433 168.827066 
L 725.335025 168.16501 
L 727.104585 167.305774 
L 727.104585 166.474391 
L 728.0698 165.837408 
L 729.785738 164.962337 
L 729.785738 164.189437 
L 730.750953 163.32065 
L 732.520514 162.994528 
L 732.520514 162.558988 
L 733.485728 161.875807 
L 735.362535 161.19503 
L 735.684273 160.555931 
L 736.166881 159.849763 
L 737.132096 159.238034 
L 739.008903 158.81013 
L 739.330641 158.470603 
L 739.813248 159.351556 
L 740.778463 159.756005 
L 741.743678 159.959372 
L 743.459616 159.835992 
L 744.424831 159.626261 
L 745.390046 159.060771 
L 747.266852 159.036574 
L 747.588591 158.543316 
L 748.071198 158.394847 
L 749.036413 160.094796 
L 749.948005 162.903119 
L 751.878435 163.028157 
L 752.200173 163.520298 
L 752.68278 163.490675 
L 753.647995 164.552461 
L 754.559587 164.50369 
L 755.524802 165.024165 
L 757.294363 167.193952 
L 757.294363 171.049661 
L 758.205955 173.927816 
L 759.171169 180.56187 
L 759.653777 189.080144 
L 761.530584 195.91854 
L 761.852322 201.770235 
L 762.334929 207.187752 
L 763.300144 207.138066 
L 764.747967 218.630499 
L 765.176951 224.952519 
L 766.624773 230.911074 
L 766.946512 236.547499 
L 767.429119 238.34353 
L 768.394334 238.199909 
L 768.823318 241.788956 
L 769.305926 242.990118 
L 770.753748 254.90854 
L 772.147948 258.184096 
L 772.523309 258.074283 
L 772.952293 256.853435 
L 773.434901 254.964565 
L 773.917508 252.506524 
L 774.882723 252.637336 
L 775.365331 254.482661 
L 775.794315 254.978813 
L 776.75953 254.105846 
L 778.046483 255.752627 
L 778.046483 253.035319 
L 778.52909 249.055335 
L 779.92329 246.374121 
L 781.585604 239.22069 
L 783.355165 235.01981 
L 783.355165 230.917087 
L 785.178349 227.981552 
L 785.178349 220.037278 
L 787.323271 217.61624 
L 787.323271 214.817584 
L 789.629062 210.604674 
L 789.9508 208.805573 
L 791.773984 207.027895 
L 791.773984 207.052043 
L 793.918906 205.397665 
L 793.918906 202.918598 
L 795.420351 199.127818 
L 797.350781 197.102601 
L 799.120342 197.0721 
L 799.602949 196.487708 
L 800.568164 195.088432 
L 800.997148 191.465348 
L 801.962363 187.776454 
L 802.927578 185.181384 
L 803.410186 183.28432 
L 804.804385 179.93976 
L 805.7696 179.61316 
L 806.681192 178.92943 
L 807.646407 178.923353 
L 808.129014 180.583228 
L 809.094229 181.387741 
L 810.381182 186.584527 
L 810.810167 190.200204 
L 812.09712 192.039133 
L 813.062335 191.289276 
L 813.86668 193.078658 
L 814.188419 192.94305 
L 815.475372 193.090391 
L 816.279718 196.717218 
L 817.084063 199.03738 
L 818.371017 199.875151 
L 819.175362 201.04951 
L 820.033331 200.920175 
L 820.837677 200.913987 
L 821.963761 202.00767 
L 822.285499 204.641933 
L 824.698537 206.89727 
L 826.199982 208.851499 
L 827.326066 217.546091 
L 828.988381 234.450469 
L 829.631857 238.269435 
L 830.436203 245.58635 
L 831.133303 246.987819 
L 831.937648 251.942537 
L 832.259387 261.668068 
L 833.063732 261.300595 
L 834.565178 259.033565 
L 834.886916 262.952084 
L 835.905754 267.584962 
L 836.388361 267.008032 
L 837.031838 266.840653 
L 838.962268 265.750222 
L 839.337629 265.759347 
L 840.302844 263.678438 
L 840.785452 265.505306 
L 841.965159 265.47674 
L 842.769504 263.554364 
L 843.895588 262.583122 
L 843.895588 260.280384 
L 845.397034 259.477376 
L 846.20138 259.90622 
L 848.399925 262.952116 
L 851.295569 260.80161 
L 851.295569 261.296457 
L 851.295569 257.696748 
L 852.797015 254.008388 
L 852.797015 251.928941 
L 854.620198 249.620735 
L 854.620198 248.645102 
L 856.068021 250.933441 
L 856.76512 249.771811 
L 857.408597 249.508062 
L 858.105697 254.005559 
L 859.607142 249.61999 
L 859.607142 246.47946 
L 859.92888 243.755434 
L 860.572357 239.926533 
L 862.073802 235.693626 
L 862.395541 233.214675 
L 863.09264 232.882645 
L 864.218724 230.051332 
L 865.344808 225.069217 
L 866.524516 224.730984 
L 867.167992 224.736222 
L 867.6506 221.659874 
L 869.581029 212.422578 
L 870.278129 207.72015 
L 872.691166 197.856785 
L 873.495512 195.240608 
L 874.675219 193.154027 
L 875.479565 191.241451 
L 876.283911 189.66245 
L 877.892602 187.63683 
L 878.696948 187.00168 
L 879.823032 186.727802 
L 882.396938 189.498207 
L 883.201284 191.35983 
L 884.00563 192.801085 
L 884.863599 192.391606 
L 885.989683 192.435625 
L 887.759243 193.7481 
L 888.563589 195.135766 
L 889.367935 198.921561 
L 890.172281 201.885921 
L 890.976626 202.840188 
L 891.298365 206.088983 
L 892.585318 206.194297 
L 894.194009 208.887747 
L 895.159224 208.840892 
L 895.96357 209.840269 
L 896.767916 211.497683 
L 897.572262 215.590839 
L 897.947623 220.125661 
L 899.180953 222.179799 
L 899.66356 225.333067 
L 900.467906 229.369424 
L 900.843268 232.427808 
L 902.130221 237.260929 
L 902.934567 242.806098 
L 903.417174 243.920458 
L 903.738912 248.366239 
L 905.025866 253.154013 
L 905.508473 254.316942 
L 906.634557 255.138875 
L 907.599772 259.154656 
L 908.404118 261.690118 
L 908.725856 263.176805 
L 909.691071 266.778327 
L 910.495417 266.87425 
L 910.817155 266.661948 
L 910.817155 267.655574 
L 912.104108 273.545138 
L 912.908454 279.384257 
L 913.391061 280.346148 
L 913.7128 282.136803 
L 915.321491 281.095065 
L 915.321491 280.432749 
L 916.822937 280.148519 
L 916.822937 279.246163 
L 918.270759 276.13836 
L 918.270759 272.777822 
L 920.093943 271.733959 
L 921.702634 269.662019 
L 923.847556 265.434442 
L 923.847556 260.697584 
L 925.67074 257.060221 
L 925.67074 252.723158 
L 926.850447 250.031246 
L 928.941746 246.174979 
L 929.37073 244.12053 
L 932.319998 239.577682 
L 932.319998 252.241159 
L 932.641736 260.080192 
L 934.572166 254.157695 
L 934.947527 249.736089 
L 936.073611 252.398084 
L 936.717088 247.925409 
L 937.092449 241.289195 
L 937.896795 236.321833 
L 939.237371 225.0736 
L 940.363455 220.124114 
L 940.685194 214.317813 
L 941.864901 210.346267 
L 942.186639 207.456971 
L 942.830116 206.863365 
L 943.527215 208.630538 
L 944.975038 210.877928 
L 944.975038 209.595709 
L 945.993876 209.320012 
L 947.817059 218.039076 
L 947.817059 223.024615 
L 948.138798 229.286607 
L 949.961981 231.003979 
L 951.088065 235.639388 
L 951.088065 238.633633 
L 952.911249 238.032184 
L 954.090956 236.726688 
L 954.412695 237.194913 
L 955.21704 236.486518 
L 956.021386 237.44045 
L 956.825732 236.76209 
L 957.308339 238.692638 
L 958.112685 238.416197 
L 959.721377 237.514927 
L 959.721377 237.728398 
L 961.00833 237.630753 
L 961.00833 236.539301 
L 962.77789 236.334727 
L 963.743105 237.884183 
L 964.17209 238.356293 
L 965.137305 236.811241 
L 965.619912 235.725654 
L 966.585127 237.265668 
L 967.067734 236.152188 
L 967.496719 235.733466 
L 968.461934 235.264695 
L 970.33874 234.803898 
L 970.714102 232.367562 
L 972.001055 231.361077 
L 972.805401 230.345463 
L 972.805401 228.456934 
L 974.092354 227.983833 
L 974.8967 227.243866 
L 976.505391 226.177867 
L 977.953214 223.925428 
L 977.953214 221.682155 
L 979.454659 219.77529 
L 979.454659 217.931679 
L 980.956104 216.279601 
L 980.956104 214.828184 
L 983.101026 213.607002 
L 983.422765 212.146408 
L 983.422765 209.762827 
L 985.567687 207.643072 
L 986.264786 205.915949 
L 986.586525 203.312652 
L 986.586525 200.716051 
L 988.731447 198.397632 
L 989.374923 196.505679 
L 990.072023 194.991588 
L 991.734337 193.251118 
L 993.879259 192.687111 
L 993.879259 192.221389 
L 994.200998 191.458828 
L 995.219836 190.797936 
L 996.88215 189.368222 
L 998.705334 188.868764 
L 998.705334 188.70619 
L 1001.225617 186.798605 
L 1001.225617 184.995862 
L 1001.869094 183.032202 
L 1003.370539 180.789638 
L 1003.692278 178.489276 
L 1004.711116 176.424412 
L 1006.158938 174.551752 
L 1006.534299 172.779322 
L 1007.177776 171.292286 
L 1008.679221 170.085159 
L 1009.00096 169.12936 
L 1010.502405 168.372261 
L 1011.950227 167.791489 
L 1011.950227 167.21394 
L 1011.950227 167.21394 
" clip-path="url(#pa128cdf2e9)" style="fill: none; stroke: #0be881; stroke-opacity: 0.99; stroke-width: 2.4; stroke-linecap: square"/>
   </g>
   <g id="line2d_22">
    <path d="M 92.904773 482.904027 
L 92.904773 437.738877 
L 93.226511 426.252673 
L 93.226511 414.76647 
L 93.548249 403.280267 
L 93.548249 391.794063 
L 93.869988 380.30786 
L 94.352595 368.821656 
L 95.049695 345.84925 
L 95.800417 334.363046 
L 96.122156 322.876843 
L 98.803308 265.445826 
L 99.125047 254.100676 
L 100.143884 243.148212 
L 100.626492 233.432794 
L 101.591707 225.38554 
L 102.074314 218.469282 
L 103.093152 212.114988 
L 103.57576 207.030877 
L 105.023582 201.571715 
L 105.023582 197.423481 
L 106.525027 193.419327 
L 107.651111 190.771089 
L 107.651111 187.813453 
L 110.171395 183.659686 
L 110.654002 182.799731 
L 111.780086 182.134435 
L 112.90617 183.733679 
L 112.90617 182.764603 
L 115.5337 181.501273 
L 116.713407 182.487063 
L 117.356884 181.885103 
L 117.839491 186.39167 
L 118.965575 185.53581 
L 120.145282 185.886317 
L 120.145282 186.100506 
L 122.719189 185.16904 
L 123.898896 183.851347 
L 123.898896 182.476041 
L 125.02498 181.815194 
L 126.151064 180.592178 
L 128.456855 178.791076 
L 128.456855 179.542223 
L 129.582939 181.523922 
L 129.582939 182.025188 
L 131.084384 184.585446 
L 132.210468 184.446399 
L 133.390176 185.420381 
L 134.51626 185.223007 
L 134.51626 186.426754 
L 135.642344 188.397934 
L 136.822051 188.633642 
L 139.074219 187.557585 
L 139.074219 186.865749 
L 140.253926 188.544409 
L 141.38001 189.508477 
L 142.506094 189.971109 
L 142.506094 191.892126 
L 144.007539 196.854377 
L 145.133623 208.090462 
L 145.133623 217.091663 
L 146.313331 226.560085 
L 147.439415 234.298629 
L 147.439415 238.93612 
L 148.565499 238.481076 
L 149.745206 238.185697 
L 149.745206 237.820671 
L 150.87129 237.733584 
L 150.87129 240.332833 
L 151.997374 240.219907 
L 153.177081 243.069015 
L 154.303165 244.112957 
L 155.429249 245.558616 
L 155.429249 251.416532 
L 156.608956 250.794441 
L 156.608956 251.467828 
L 157.73504 254.286653 
L 158.861124 254.022039 
L 158.861124 254.028157 
L 160.040831 253.351551 
L 160.040831 253.383873 
L 161.488654 252.141223 
L 162.292999 253.166309 
L 162.775607 251.861541 
L 163.955314 251.152694 
L 164.384298 249.20605 
L 168.727765 247.041615 
L 169.532111 245.374886 
L 170.711818 243.897337 
L 172.481379 241.437963 
L 172.481379 237.772343 
L 174.626301 233.289848 
L 174.626301 226.778574 
L 176.824846 223.630628 
L 176.824846 220.76949 
L 180.095852 219.110777 
L 180.095852 217.829866 
L 180.095852 218.547526 
L 180.739329 218.309041 
L 183.58135 217.939807 
L 183.58135 214.317836 
L 183.903089 209.5411 
L 186.423372 203.943499 
L 186.423372 198.819261 
L 187.871194 194.35884 
L 187.871194 190.514097 
L 189.694378 187.332889 
L 189.694378 186.106424 
L 191.195823 185.574064 
L 193.126253 185.386122 
L 193.126253 184.464289 
L 194.252337 183.148951 
L 195.432044 182.023571 
L 196.558128 180.157017 
L 197.362474 178.105114 
L 197.362474 176.164905 
L 198.542181 174.105715 
L 199.990004 171.894628 
L 200.472611 170.116552 
L 202.778402 168.520983 
L 204.065355 169.157976 
L 204.869701 169.716625 
L 205.674047 169.50577 
L 206.478393 168.993407 
L 207.604477 167.700088 
L 208.408823 166.352262 
L 209.58853 164.780415 
L 211.197221 163.437112 
L 212.484174 162.728464 
L 214.092866 162.428188 
L 215.379819 163.428306 
L 216.184165 165.907733 
L 216.988511 167.503612 
L 218.275464 167.092337 
L 219.079809 165.685487 
L 219.884155 164.513139 
L 220.688501 163.132436 
L 222.7798 160.868487 
L 223.584146 159.945802 
L 224.871099 159.29398 
L 226.158052 159.101178 
L 226.64066 159.231954 
L 227.927613 161.474761 
L 229.697173 164.149429 
L 229.697173 166.828867 
L 231.413111 167.499979 
L 232.378326 167.272625 
L 232.378326 166.544548 
L 234.147887 165.642571 
L 235.113101 164.259335 
L 236.024693 163.313363 
L 236.507301 162.208008 
L 236.989908 161.463081 
L 240.153668 160.414452 
L 241.118883 160.607004 
L 242.084098 161.16438 
L 242.99569 161.092075 
L 243.960905 161.502712 
L 244.92612 160.578678 
L 245.837711 159.462944 
L 247.768141 158.335918 
L 249.484079 157.673345 
L 250.449294 157.162402 
L 252.3261 156.779385 
L 253.291315 157.124733 
L 254.739138 156.984474 
L 255.060876 157.919056 
L 256.026091 157.820785 
L 256.937683 159.125117 
L 257.902898 159.286836 
L 259.189851 158.947053 
L 259.672458 158.702658 
L 262.031873 160.492546 
L 262.353611 160.478638 
L 263.318826 161.848748 
L 265.088386 162.019097 
L 265.088386 161.881924 
L 265.999978 163.91001 
L 267.769539 168.338935 
L 267.769539 170.459753 
L 268.734754 173.920249 
L 270.450691 173.977346 
L 271.415906 173.725925 
L 272.702859 176.843031 
L 273.185467 178.704769 
L 274.579666 180.112965 
L 274.955028 181.658078 
L 275.866619 182.918272 
L 277.153573 186.745654 
L 277.63618 187.039792 
L 278.118788 186.598737 
L 279.405741 187.786579 
L 279.888348 187.626817 
L 281.282547 187.307227 
L 281.604286 188.982149 
L 283.052108 188.156694 
L 283.373846 187.42333 
L 284.339061 186.926622 
L 285.143407 189.876597 
L 286.108622 190.363848 
L 287.020214 189.887549 
L 287.502821 190.482685 
L 288.468036 191.326118 
L 289.433251 193.840156 
L 291.363681 193.157901 
L 292.168027 192.607449 
L 293.294111 192.786982 
L 293.99121 192.430918 
L 294.795556 192.318517 
L 295.492656 192.966777 
L 296.61874 192.601953 
L 297.262216 193.324172 
L 297.959316 192.692601 
L 299.0854 191.984537 
L 299.407138 190.639415 
L 300.425976 190.201984 
L 301.123076 189.589734 
L 303.428867 186.367962 
L 304.447705 185.981174 
L 304.447705 184.578693 
L 306.270889 183.635313 
L 306.967988 182.751282 
L 307.611465 181.692737 
L 307.611465 180.509509 
L 309.756387 180.170337 
L 310.078125 179.656573 
L 310.078125 179.804858 
L 311.901309 180.014702 
L 311.901309 180.551115 
L 313.081016 182.72527 
L 313.081016 182.386621 
L 315.654923 179.087299 
L 315.654923 178.15975 
L 316.83463 176.677935 
L 318.282452 175.923161 
L 318.282452 174.677667 
L 319.086798 173.074288 
L 320.266505 172.195122 
L 321.392589 171.069329 
L 322.572296 169.547555 
L 323.69838 167.380717 
L 324.824464 165.784597 
L 324.824464 164.816659 
L 326.004171 164.123275 
L 327.451994 165.610935 
L 328.953439 172.974758 
L 328.953439 180.038973 
L 330.401261 187.560526 
L 331.902707 191.97622 
L 331.902707 191.136076 
L 333.350529 188.844961 
L 333.350529 186.209541 
L 335.173713 182.725903 
L 335.173713 179.497271 
L 336.996896 176.5126 
L 336.996896 173.566003 
L 338.82008 170.978925 
L 338.82008 169.233037 
L 340.643264 167.435182 
L 340.643264 165.997931 
L 342.788186 165.129607 
L 342.788186 163.968935 
L 344.61137 163.053053 
L 344.61137 162.351774 
L 346.434553 162.033827 
L 346.434553 161.66134 
L 348.204114 161.586137 
L 348.204114 162.410954 
L 350.027298 161.767693 
L 350.027298 160.937999 
L 352.17222 159.9605 
L 352.17222 159.443354 
L 353.995403 159.126097 
L 353.995403 158.636394 
L 355.818587 159.198624 
L 355.818587 158.370809 
L 357.641771 158.151131 
L 357.641771 158.529331 
L 359.464954 158.27962 
L 359.464954 159.311081 
L 361.609876 159.129615 
L 361.609876 160.041607 
L 363.43306 159.86313 
L 363.43306 161.483682 
L 365.202621 161.291633 
L 365.202621 164.299634 
L 367.025805 166.549078 
L 367.025805 170.322337 
L 368.848988 174.768059 
L 368.848988 177.181574 
L 370.672172 179.459618 
L 370.672172 179.085682 
L 372.817094 179.129914 
L 372.817094 179.842951 
L 374.640278 182.01819 
L 374.640278 182.335996 
L 376.463461 181.906131 
L 376.463461 180.743337 
L 378.286645 179.317303 
L 378.286645 178.50299 
L 380.056206 176.973012 
L 380.056206 175.426836 
L 382.254751 174.423534 
L 382.254751 173.426985 
L 384.024311 172.551871 
L 384.024311 171.670715 
L 385.847495 171.004531 
L 385.847495 169.95353 
L 387.670679 169.318369 
L 387.670679 168.429928 
L 389.493862 168.124642 
L 389.493862 167.508783 
L 391.638784 167.875017 
L 391.638784 167.151867 
L 393.461968 166.705089 
L 393.461968 166.230762 
L 395.285152 166.110651 
L 397.054713 165.762025 
L 397.054713 165.393375 
L 400.70108 164.99442 
L 402.846002 167.025655 
L 402.846002 166.94125 
L 404.669186 167.980708 
L 404.669186 167.788867 
L 406.492369 167.812969 
L 406.492369 167.807983 
L 410.138737 167.24107 
L 410.138737 168.668591 
L 412.283659 168.121094 
L 412.283659 170.019074 
L 414.106842 171.438258 
L 414.106842 170.92153 
L 415.876403 170.024088 
L 415.876403 169.583046 
L 417.699587 168.516172 
L 417.699587 168.02923 
L 419.52277 167.814512 
L 419.52277 168.111018 
L 421.667692 167.986049 
L 421.667692 174.751612 
L 423.490876 181.064886 
L 423.490876 185.374677 
L 425.31406 193.336973 
L 425.31406 200.759764 
L 427.137244 207.726258 
L 427.137244 207.47835 
L 428.906804 207.023181 
L 428.906804 206.608591 
L 430.729988 205.552388 
L 430.729988 203.832799 
L 432.87491 204.180273 
L 432.87491 203.662332 
L 434.698094 202.573625 
L 434.698094 202.243754 
L 436.521277 204.512071 
L 436.521277 208.825009 
L 438.344461 211.201272 
L 438.344461 213.893029 
L 440.167645 214.411164 
L 440.167645 218.397505 
L 441.990828 222.311037 
L 442.312567 223.721617 
L 442.312567 232.564057 
L 444.13575 239.88261 
L 444.13575 245.395025 
L 446.280672 251.092494 
L 446.924149 253.262346 
L 447.621249 254.469037 
L 447.942987 254.704316 
L 447.942987 261.76833 
L 450.409647 260.962254 
L 452.554569 261.841418 
L 452.554569 261.238997 
L 452.554569 262.642085 
L 454.753114 263.143224 
L 454.753114 259.413069 
L 456.200937 254.099237 
L 461.18788 246.881959 
L 462.796572 242.463727 
L 463.976279 238.214791 
L 463.976279 234.365247 
L 465.102363 228.212241 
L 467.247285 220.737219 
L 467.247285 206.347579 
L 469.767568 200.336479 
L 470.089307 195.290752 
L 470.089307 191.142194 
L 472.234229 188.173939 
L 472.877705 186.155934 
L 473.896543 184.425549 
L 473.896543 181.568581 
L 476.363204 179.304047 
L 477.060303 177.133274 
L 478.079141 174.525466 
L 479.044356 172.629606 
L 479.741456 170.688191 
L 480.760294 168.776822 
L 481.40377 167.272625 
L 483.066085 164.289345 
L 485.103761 162.530739 
L 486.766075 162.036397 
L 489.447228 159.845827 
L 490.466066 159.763179 
L 491.109542 159.518719 
L 492.12838 158.687729 
L 493.951564 158.223678 
L 493.951564 157.986518 
L 494.970402 157.12293 
L 495.98924 156.820951 
L 496.954455 157.027646 
L 497.651554 156.821022 
L 498.670392 157.695007 
L 499.635607 159.607448 
L 500.332707 159.438758 
L 502.477629 161.462623 
L 502.477629 163.541596 
L 503.121105 163.913376 
L 504.139943 165.413775 
L 504.837043 168.38433 
L 505.802258 171.551879 
L 506.821096 176.464783 
L 507.518196 175.965414 
L 508.48341 177.406218 
L 509.18051 177.955132 
L 511.003694 181.235105 
L 511.003694 183.089168 
L 512.022532 184.382245 
L 512.666008 185.4432 
L 513.363108 188.469243 
L 514.328323 189.763347 
L 515.025423 189.95014 
L 516.044261 192.095678 
L 516.687737 196.384847 
L 517.384837 199.445968 
L 519.529759 202.291908 
L 519.529759 203.541326 
L 519.851497 204.410797 
L 520.494974 203.637463 
L 521.513812 202.865579 
L 522.210911 205.529152 
L 522.854388 205.497611 
L 523.551488 210.115463 
L 524.516702 211.025343 
L 525.213802 213.839604 
L 525.857279 219.965971 
L 528.002201 231.13019 
L 528.002201 242.503208 
L 528.6993 245.554363 
L 529.342777 247.854667 
L 530.039877 252.925438 
L 530.683353 252.699013 
L 531.380453 253.288507 
L 533.525375 252.864554 
L 533.525375 256.417098 
L 535.670297 256.318699 
L 535.670297 253.04399 
L 535.992035 250.731008 
L 538.136957 248.126759 
L 538.136957 242.455712 
L 539.960141 238.343752 
L 541.461586 232.906695 
L 545.75143 226.097764 
L 545.75143 218.608761 
L 547.896352 211.690578 
L 548.218091 205.04509 
L 550.631128 194.240287 
L 551.757212 190.423768 
L 553.258657 187.100044 
L 553.258657 184.949728 
L 554.384741 184.428522 
L 554.384741 183.552594 
L 555.564448 182.927705 
L 557.816617 179.374044 
L 559.318062 176.915347 
L 559.318062 174.09238 
L 560.444146 171.665917 
L 561.945591 169.460913 
L 561.945591 167.62779 
L 563.071675 166.15895 
L 564.573121 164.672611 
L 564.573121 164.267634 
L 565.699205 163.127716 
L 566.825289 162.484576 
L 568.326734 161.330526 
L 568.648473 160.736662 
L 569.452818 159.958911 
L 570.954264 159.659649 
L 572.080348 158.831511 
L 573.260055 158.767435 
L 573.581793 158.404349 
L 574.707877 158.186406 
L 575.887584 157.315923 
L 577.335407 157.264826 
L 577.335407 156.558524 
L 578.461491 156.246763 
L 579.641198 156.296543 
L 581.08902 156.613494 
L 581.464382 157.499531 
L 582.268727 157.960733 
L 583.71655 159.132526 
L 584.896257 158.787136 
L 585.217995 158.866874 
L 586.344079 160.692823 
L 587.523786 161.90487 
L 588.64987 163.530693 
L 588.971609 169.619199 
L 590.151316 172.793722 
L 591.2774 177.166257 
L 592.725222 179.150689 
L 592.725222 179.620082 
L 593.904929 179.862083 
L 595.031013 180.993721 
L 595.031013 180.803811 
L 596.532459 180.192981 
L 597.658543 180.305777 
L 597.658543 181.311814 
L 599.159988 181.630381 
L 600.286072 181.279723 
L 600.286072 181.013527 
L 602.913602 179.615713 
L 602.913602 178.487816 
L 604.039686 176.555882 
L 605.541131 175.518725 
L 606.667215 174.228494 
L 606.667215 172.982442 
L 609.294745 170.590986 
L 609.294745 169.75681 
L 610.420829 168.906812 
L 611.922274 168.011423 
L 613.048358 167.958763 
L 614.549803 167.649441 
L 614.549803 167.12001 
L 616.855595 165.922339 
L 618.303417 165.752619 
L 618.303417 164.824224 
L 619.483124 164.457407 
L 620.930946 163.313972 
L 620.930946 162.95601 
L 622.110654 162.042733 
L 623.558476 161.234262 
L 623.558476 160.880892 
L 625.864267 159.465921 
L 627.312089 158.933428 
L 627.312089 157.962683 
L 628.491796 156.897299 
L 631.119326 155.763883 
L 632.24541 155.445004 
L 633.746855 157.115674 
L 633.746855 156.874499 
L 634.872939 158.205798 
L 636.320762 157.570069 
L 636.320762 157.238418 
L 638.626553 156.20337 
L 640.127998 155.342346 
L 640.127998 155.058905 
L 643.881612 153.674574 
L 647.635225 153.460476 
L 649.136671 153.950485 
L 649.136671 154.900675 
L 650.262755 155.17774 
L 651.7642 154.573081 
L 652.085938 154.242933 
L 652.890284 154.129156 
L 654.016368 155.293799 
L 655.517814 155.649733 
L 656.643898 156.225321 
L 657.019259 159.432179 
L 658.145343 160.24073 
L 659.271427 161.64654 
L 660.451134 161.567495 
L 661.898957 162.470979 
L 661.898957 165.444046 
L 663.078664 167.495949 
L 664.526486 167.308935 
L 664.526486 167.172032 
L 667.154016 167.332189 
L 667.475754 168.635117 
L 668.2801 169.069389 
L 669.459807 169.039091 
L 670.907629 169.132134 
L 671.28299 169.753439 
L 672.087336 172.807378 
L 673.21342 172.505996 
L 674.017766 172.439469 
L 675.14385 175.112964 
L 676.323557 177.00044 
L 677.449641 179.014893 
L 677.771379 178.576071 
L 678.629348 178.242051 
L 679.433694 177.334469 
L 680.720647 177.237321 
L 681.524993 176.272216 
L 682.329339 176.243036 
L 683.133684 175.689482 
L 683.455423 176.28777 
L 685.224983 176.245104 
L 686.351067 175.438684 
L 688.442366 175.003993 
L 689.72932 175.272783 
L 689.72932 176.815451 
L 691.49888 176.097601 
L 691.820619 175.818939 
L 693.107572 176.88826 
L 693.107572 176.805769 
L 694.877132 176.702673 
L 695.788724 176.381334 
L 696.164086 177.209068 
L 697.451039 177.865858 
L 697.451039 177.446897 
L 699.166976 177.280165 
L 699.166976 176.417373 
L 700.936537 175.837387 
L 702.22349 173.960988 
L 702.22349 172.375494 
L 703.993051 171.235645 
L 703.993051 170.302097 
L 705.762612 168.736594 
L 705.762612 167.539472 
L 707.478549 166.784587 
L 707.478549 166.132972 
L 709.730717 165.209999 
L 709.730717 164.24565 
L 711.500278 163.678126 
L 711.500278 162.728541 
L 713.269839 162.282913 
L 713.269839 162.107616 
L 713.698823 161.706915 
L 715.468384 161.598048 
L 715.468384 161.271044 
L 717.720552 160.439416 
L 717.720552 159.838182 
L 719.597358 159.538137 
L 719.919097 159.09788 
L 719.919097 158.281231 
L 722.171265 158.068733 
L 722.171265 157.405814 
L 724.423433 156.805602 
L 724.423433 157.378168 
L 724.852417 157.064111 
L 727.104585 156.946591 
L 727.104585 156.717623 
L 727.587193 156.17231 
L 729.785738 156.216618 
L 729.785738 155.633178 
L 730.268345 156.136529 
L 732.520514 155.718887 
L 732.520514 155.137123 
L 733.485728 154.657067 
L 735.362535 154.234162 
L 735.684273 154.812532 
L 736.166881 154.665279 
L 737.132096 154.762708 
L 739.330641 154.480144 
L 739.813248 154.777918 
L 740.778463 156.34028 
L 741.743678 156.327559 
L 743.459616 157.859615 
L 743.459616 159.203556 
L 744.424831 162.781583 
L 745.390046 163.604667 
L 747.588591 164.016765 
L 748.071198 164.454031 
L 750.91322 164.12135 
L 752.200173 164.964107 
L 752.68278 167.720819 
L 753.647995 168.705246 
L 754.07698 172.821204 
L 755.042195 172.856425 
L 756.919001 174.786185 
L 757.294363 175.674377 
L 757.77697 178.859838 
L 758.688562 178.754493 
L 759.653777 179.634153 
L 760.618992 183.633758 
L 761.852322 187.906919 
L 761.852322 188.522874 
L 762.817537 188.603756 
L 763.782752 191.41075 
L 764.747967 192.764949 
L 765.176951 194.260065 
L 766.946512 197.629332 
L 766.946512 198.219459 
L 767.911727 201.565722 
L 768.394334 202.369097 
L 769.305926 207.046904 
L 770.271141 209.934021 
L 770.753748 214.011185 
L 772.523309 219.306992 
L 772.523309 229.160652 
L 772.952293 234.010875 
L 773.917508 236.871196 
L 774.400116 239.651529 
L 774.882723 240.675663 
L 775.794315 244.725732 
L 778.046483 246.63879 
L 778.046483 247.822588 
L 778.52909 250.418955 
L 780.298651 249.595694 
L 781.102997 249.380498 
L 783.355165 248.491846 
L 783.355165 244.989326 
L 785.178349 241.285274 
L 785.178349 237.481312 
L 787.323271 232.854209 
L 787.323271 227.53076 
L 789.629062 221.876095 
L 791.773984 217.070389 
L 791.773984 208.637282 
L 793.918906 204.257503 
L 793.918906 199.635227 
L 795.420351 195.171128 
L 797.350781 190.811677 
L 799.602949 187.72707 
L 800.085557 184.440614 
L 801.962363 178.276112 
L 802.444971 175.962829 
L 803.410186 173.828846 
L 804.321778 172.405081 
L 804.804385 170.719291 
L 805.7696 170.308885 
L 806.681192 169.525319 
L 807.646407 168.95274 
L 808.129014 170.030579 
L 809.094229 171.091334 
L 809.523213 177.745116 
L 810.810167 184.517475 
L 813.062335 192.592787 
L 813.86668 192.70893 
L 814.671026 195.005546 
L 815.957979 195.284226 
L 816.762325 196.697365 
L 817.566671 199.730607 
L 818.049278 202.162216 
L 819.175362 205.134704 
L 820.033331 205.079874 
L 820.837677 205.871598 
L 821.642023 205.611799 
L 822.285499 204.347091 
L 823.089845 205.414155 
L 823.572453 205.244085 
L 824.698537 207.618955 
L 825.556505 210.236819 
L 825.556505 215.024094 
L 827.808673 214.314169 
L 828.988381 215.332867 
L 830.114465 214.093352 
L 830.114465 214.988024 
L 831.61591 214.980633 
L 833.063732 217.573851 
L 833.063732 220.701588 
L 834.565178 225.242908 
L 834.565178 241.704981 
L 836.388361 248.735672 
L 837.514446 248.601892 
L 837.514446 254.296553 
L 838.962268 255.527353 
L 838.962268 261.377681 
L 840.785452 263.246992 
L 840.785452 266.463512 
L 842.286897 264.926929 
L 842.769504 266.910145 
L 842.769504 266.765775 
L 843.895588 266.36 
L 843.895588 263.129406 
L 847.97094 260.002066 
L 851.295569 256.32764 
L 851.295569 251.955496 
L 852.797015 248.8488 
L 852.797015 245.277309 
L 854.620198 241.235727 
L 854.620198 236.303641 
L 857.086859 230.257772 
L 859.607142 222.038415 
L 859.607142 207.920767 
L 862.073802 202.252521 
L 862.073802 193.4457 
L 864.218724 191.104018 
L 865.344808 190.573465 
L 866.524516 192.09075 
L 868.454945 191.134056 
L 868.454945 188.796514 
L 869.581029 186.088314 
L 870.760737 182.387654 
L 873.012905 176.387023 
L 873.495512 174.169993 
L 874.675219 171.947516 
L 876.605649 169.604177 
L 877.409995 169.084312 
L 878.696948 167.485595 
L 879.501294 166.767305 
L 881.109985 165.709807 
L 881.109985 165.026148 
L 882.396938 164.422623 
L 883.201284 163.742839 
L 884.00563 163.316412 
L 885.989683 164.773302 
L 887.276636 166.938168 
L 888.080982 167.818434 
L 888.885327 169.025821 
L 889.689673 168.942239 
L 890.976626 170.403519 
L 891.780972 173.143876 
L 892.585318 173.459711 
L 893.389664 174.260941 
L 894.676617 177.306545 
L 895.480963 178.838193 
L 897.089654 181.437818 
L 898.376607 185.17184 
L 898.859215 184.979765 
L 899.66356 187.041168 
L 901.272252 188.243098 
L 901.754859 189.845707 
L 902.559205 190.670045 
L 903.417174 195.867556 
L 904.22152 197.289052 
L 905.025866 199.181513 
L 905.830211 200.342405 
L 907.117164 202.593577 
L 907.599772 204.733438 
L 908.404118 205.386094 
L 909.208463 209.262251 
L 910.012809 214.406418 
L 911.299762 214.10419 
L 912.586716 221.358014 
L 912.908454 223.960702 
L 913.7128 227.611434 
L 914.678015 229.374424 
L 915.321491 229.115559 
L 916.125837 230.628599 
L 916.822937 229.679801 
L 917.144675 228.822398 
L 918.270759 228.220656 
L 918.64612 227.800848 
L 920.093943 228.961445 
L 920.093943 235.482686 
L 921.702634 238.085242 
L 922.399734 240.213681 
L 923.847556 238.280823 
L 923.847556 237.423992 
L 925.67074 236.023324 
L 925.67074 233.613581 
L 926.850447 232.442411 
L 928.459138 231.299494 
L 929.37073 233.93194 
L 930.818553 232.54485 
L 932.319998 229.467834 
L 932.319998 227.88073 
L 932.641736 231.436472 
L 934.250428 233.477879 
L 934.572166 231.953611 
L 934.947527 228.036232 
L 936.073611 226.642307 
L 936.39535 224.83065 
L 937.521434 222.490028 
L 938.540272 219.40911 
L 939.880848 217.755853 
L 940.363455 216.711595 
L 941.382293 216.257831 
L 941.864901 215.077809 
L 941.864901 213.47141 
L 942.508377 210.560284 
L 944.975038 208.306854 
L 944.975038 204.354605 
L 945.672137 202.863011 
L 947.817059 202.098476 
L 947.817059 215.22663 
L 949.961981 221.920902 
L 951.088065 229.825654 
L 951.088065 234.636142 
L 951.088065 234.611745 
L 952.911249 235.97403 
L 956.503994 234.569891 
L 957.308339 235.396395 
L 958.112685 234.571054 
L 959.721377 236.904222 
L 959.721377 236.798752 
L 961.00833 236.370451 
L 961.00833 236.555479 
L 963.260498 236.10123 
L 964.17209 236.103745 
L 964.654697 236.254657 
L 965.137305 236.170897 
L 966.102519 235.42962 
L 966.585127 234.262336 
L 967.496719 233.038706 
L 967.979326 231.889655 
L 970.714102 227.299573 
L 972.805401 222.223789 
L 972.805401 220.989849 
L 974.521338 220.470845 
L 975.379307 219.808212 
L 976.505391 220.979356 
L 977.953214 219.827798 
L 977.953214 218.819789 
L 979.454659 214.89061 
L 979.454659 210.714752 
L 980.956104 205.796033 
L 983.101026 201.164931 
L 983.422765 196.701234 
L 983.422765 193.164218 
L 985.567687 190.417733 
L 986.586525 188.060747 
L 986.586525 188.684183 
L 989.053185 187.826094 
L 989.750285 186.720012 
L 990.715499 184.376024 
L 991.412599 181.585682 
L 993.879259 179.040469 
L 993.879259 176.516099 
L 994.200998 174.06057 
L 994.898097 172.203155 
L 996.560412 169.502251 
L 998.705334 168.528825 
L 998.705334 167.807403 
L 1001.225617 167.278188 
L 1001.225617 165.714717 
L 1003.370539 165.0229 
L 1003.370539 164.274441 
L 1004.014016 163.498955 
L 1006.158938 162.633942 
L 1006.158938 161.773567 
L 1006.856038 160.9815 
L 1008.679221 160.365203 
L 1010.502405 160.234073 
L 1010.502405 159.836952 
L 1011.950227 159.551073 
L 1011.950227 159.256098 
L 1011.950227 159.256098 
" clip-path="url(#pa128cdf2e9)" style="fill: none; stroke: #3c40c6; stroke-opacity: 0.99; stroke-width: 2.4; stroke-linecap: square"/>
   </g>
   <g id="patch_3">
    <path d="M 46.9525 434.59192 
L 46.9525 72.25112 
" style="fill: none; stroke: #000000; stroke-width: 0.8; stroke-linejoin: miter; stroke-linecap: square"/>
   </g>
   <g id="patch_4">
    <path d="M 1057.9025 434.59192 
L 1057.9025 72.25112 
" style="fill: none; stroke: #000000; stroke-width: 0.8; stroke-linejoin: miter; stroke-linecap: square"/>
   </g>
   <g id="patch_5">
    <path d="M 46.9525 434.59192 
L 1057.9025 434.59192 
" style="fill: none; stroke: #000000; stroke-width: 0.8; stroke-linejoin: miter; stroke-linecap: square"/>
   </g>
   <g id="patch_6">
    <path d="M 46.9525 72.25112 
L 1057.9025 72.25112 
" style="fill: none; stroke: #000000; stroke-width: 0.8; stroke-linejoin: miter; stroke-linecap: square"/>
   </g>
   <g id="legend_1">
    <g id="patch_7">
     <path d="M 334.7085 35.8 
L 729.7085 35.8 
Q 733.7085 35.8 733.7085 31.8 
L 733.7085 4 
Q 733.7085 -0 729.7085 -0 
L 334.7085 -0 
Q 330.7085 -0 330.7085 4 
L 330.7085 31.8 
Q 330.7085 35.8 334.7085 35.8 
z
" style="fill: #ffffff; opacity: 0.8; stroke: #cccccc; stroke-linejoin: miter"/>
    </g>
    <g id="line2d_23">
     <path d="M 338.7085 16.6 
L 358.7085 16.6 
L 378.7085 16.6 
" style="fill: none; stroke: #0be881; stroke-opacity: 0.99; stroke-width: 2.4; stroke-linecap: square"/>
    </g>
    <g id="text_13">
     <!-- MLP256$^m$ -->
     <g transform="translate(394.7085 23.6)scale(0.2 -0.2)">
      <defs>
       <path id="DejaVuSans-4d" d="M 628 4666 
L 1569 4666 
L 2759 1491 
L 3956 4666 
L 4897 4666 
L 4897 0 
L 4281 0 
L 4281 4097 
L 3078 897 
L 2444 897 
L 1241 4097 
L 1241 0 
L 628 0 
L 628 4666 
z
" transform="scale(0.015625)"/>
       <path id="DejaVuSans-4c" d="M 628 4666 
L 1259 4666 
L 1259 531 
L 3531 531 
L 3531 0 
L 628 0 
L 628 4666 
z
" transform="scale(0.015625)"/>
       <path id="DejaVuSans-50" d="M 1259 4147 
L 1259 2394 
L 2053 2394 
Q 2494 2394 2734 2622 
Q 2975 2850 2975 3272 
Q 2975 3691 2734 3919 
Q 2494 4147 2053 4147 
L 1259 4147 
z
M 628 4666 
L 2053 4666 
Q 2838 4666 3239 4311 
Q 3641 3956 3641 3272 
Q 3641 2581 3239 2228 
Q 2838 1875 2053 1875 
L 1259 1875 
L 1259 0 
L 628 0 
L 628 4666 
z
" transform="scale(0.015625)"/>
       <path id="DejaVuSans-35" d="M 691 4666 
L 3169 4666 
L 3169 4134 
L 1269 4134 
L 1269 2991 
Q 1406 3038 1543 3061 
Q 1681 3084 1819 3084 
Q 2600 3084 3056 2656 
Q 3513 2228 3513 1497 
Q 3513 744 3044 326 
Q 2575 -91 1722 -91 
Q 1428 -91 1123 -41 
Q 819 9 494 109 
L 494 744 
Q 775 591 1075 516 
Q 1375 441 1709 441 
Q 2250 441 2565 725 
Q 2881 1009 2881 1497 
Q 2881 1984 2565 2268 
Q 2250 2553 1709 2553 
Q 1456 2553 1204 2497 
Q 953 2441 691 2322 
L 691 4666 
z
" transform="scale(0.015625)"/>
       <path id="DejaVuSans-Oblique-6d" d="M 5747 2113 
L 5338 0 
L 4763 0 
L 5166 2094 
Q 5191 2228 5203 2325 
Q 5216 2422 5216 2491 
Q 5216 2772 5059 2928 
Q 4903 3084 4622 3084 
Q 4203 3084 3875 2770 
Q 3547 2456 3450 1953 
L 3066 0 
L 2491 0 
L 2900 2094 
Q 2925 2209 2937 2307 
Q 2950 2406 2950 2484 
Q 2950 2769 2794 2926 
Q 2638 3084 2363 3084 
Q 1938 3084 1609 2770 
Q 1281 2456 1184 1953 
L 800 0 
L 225 0 
L 909 3500 
L 1484 3500 
L 1375 2956 
Q 1609 3263 1923 3423 
Q 2238 3584 2597 3584 
Q 2978 3584 3223 3384 
Q 3469 3184 3519 2828 
Q 3781 3197 4126 3390 
Q 4472 3584 4856 3584 
Q 5306 3584 5551 3325 
Q 5797 3066 5797 2591 
Q 5797 2488 5784 2364 
Q 5772 2241 5747 2113 
z
" transform="scale(0.015625)"/>
      </defs>
      <use xlink:href="#DejaVuSans-4d" transform="translate(0 0.51875)"/>
      <use xlink:href="#DejaVuSans-4c" transform="translate(86.279297 0.51875)"/>
      <use xlink:href="#DejaVuSans-50" transform="translate(141.992188 0.51875)"/>
      <use xlink:href="#DejaVuSans-32" transform="translate(202.294922 0.51875)"/>
      <use xlink:href="#DejaVuSans-35" transform="translate(265.917969 0.51875)"/>
      <use xlink:href="#DejaVuSans-36" transform="translate(329.541016 0.51875)"/>
      <use xlink:href="#DejaVuSans-Oblique-6d" transform="translate(394.121094 38.8)scale(0.7)"/>
     </g>
    </g>
    <g id="line2d_24">
     <path d="M 527.9085 16.6 
L 547.9085 16.6 
L 567.9085 16.6 
" style="fill: none; stroke: #3c40c6; stroke-opacity: 0.99; stroke-width: 2.4; stroke-linecap: square"/>
    </g>
    <g id="text_14">
     <!-- TinyLidarNet$^m$ -->
     <g transform="translate(583.9085 23.6)scale(0.2 -0.2)">
      <defs>
       <path id="DejaVuSans-69" d="M 603 3500 
L 1178 3500 
L 1178 0 
L 603 0 
L 603 3500 
z
M 603 4863 
L 1178 4863 
L 1178 4134 
L 603 4134 
L 603 4863 
z
" transform="scale(0.015625)"/>
       <path id="DejaVuSans-6e" d="M 3513 2113 
L 3513 0 
L 2938 0 
L 2938 2094 
Q 2938 2591 2744 2837 
Q 2550 3084 2163 3084 
Q 1697 3084 1428 2787 
Q 1159 2491 1159 1978 
L 1159 0 
L 581 0 
L 581 3500 
L 1159 3500 
L 1159 2956 
Q 1366 3272 1645 3428 
Q 1925 3584 2291 3584 
Q 2894 3584 3203 3211 
Q 3513 2838 3513 2113 
z
" transform="scale(0.015625)"/>
       <path id="DejaVuSans-79" d="M 2059 -325 
Q 1816 -950 1584 -1140 
Q 1353 -1331 966 -1331 
L 506 -1331 
L 506 -850 
L 844 -850 
Q 1081 -850 1212 -737 
Q 1344 -625 1503 -206 
L 1606 56 
L 191 3500 
L 800 3500 
L 1894 763 
L 2988 3500 
L 3597 3500 
L 2059 -325 
z
" transform="scale(0.015625)"/>
       <path id="DejaVuSans-4e" d="M 628 4666 
L 1478 4666 
L 3547 763 
L 3547 4666 
L 4159 4666 
L 4159 0 
L 3309 0 
L 1241 3903 
L 1241 0 
L 628 0 
L 628 4666 
z
" transform="scale(0.015625)"/>
       <path id="DejaVuSans-74" d="M 1172 4494 
L 1172 3500 
L 2356 3500 
L 2356 3053 
L 1172 3053 
L 1172 1153 
Q 1172 725 1289 603 
Q 1406 481 1766 481 
L 2356 481 
L 2356 0 
L 1766 0 
Q 1100 0 847 248 
Q 594 497 594 1153 
L 594 3053 
L 172 3053 
L 172 3500 
L 594 3500 
L 594 4494 
L 1172 4494 
z
" transform="scale(0.015625)"/>
      </defs>
      <use xlink:href="#DejaVuSans-54" transform="translate(0 0.51875)"/>
      <use xlink:href="#DejaVuSans-69" transform="translate(61.083984 0.51875)"/>
      <use xlink:href="#DejaVuSans-6e" transform="translate(88.867188 0.51875)"/>
      <use xlink:href="#DejaVuSans-79" transform="translate(152.246094 0.51875)"/>
      <use xlink:href="#DejaVuSans-4c" transform="translate(211.425781 0.51875)"/>
      <use xlink:href="#DejaVuSans-69" transform="translate(267.138672 0.51875)"/>
      <use xlink:href="#DejaVuSans-64" transform="translate(294.921875 0.51875)"/>
      <use xlink:href="#DejaVuSans-61" transform="translate(358.398438 0.51875)"/>
      <use xlink:href="#DejaVuSans-72" transform="translate(419.677734 0.51875)"/>
      <use xlink:href="#DejaVuSans-4e" transform="translate(460.791016 0.51875)"/>
      <use xlink:href="#DejaVuSans-65" transform="translate(535.595703 0.51875)"/>
      <use xlink:href="#DejaVuSans-74" transform="translate(597.119141 0.51875)"/>
      <use xlink:href="#DejaVuSans-Oblique-6d" transform="translate(637.285156 38.8)scale(0.7)"/>
     </g>
    </g>
   </g>
  </g>
 </g>
 <defs>
  <clipPath id="pa128cdf2e9">
   <rect x="46.9525" y="72.25112" width="1010.95" height="362.3408"/>
  </clipPath>
 </defs>
</svg>
