<?xml version="1.0" encoding="utf-8" standalone="no"?>
<!DOCTYPE svg PUBLIC "-//W3C//DTD SVG 1.1//EN"
  "http://www.w3.org/Graphics/SVG/1.1/DTD/svg11.dtd">
<svg xmlns:xlink="http://www.w3.org/1999/xlink" width="1057.9025pt" height="488.17567pt" viewBox="0 0 1057.9025 488.17567" xmlns="http://www.w3.org/2000/svg" version="1.1">
 <metadata>
  <rdf:RDF xmlns:dc="http://purl.org/dc/elements/1.1/" xmlns:cc="http://creativecommons.org/ns#" xmlns:rdf="http://www.w3.org/1999/02/22-rdf-syntax-ns#">
   <cc:Work>
    <dc:type rdf:resource="http://purl.org/dc/dcmitype/StillImage"/>
    <dc:date>2024-09-03T13:22:30.344285</dc:date>
    <dc:format>image/svg+xml</dc:format>
    <dc:creator>
     <cc:Agent>
      <dc:title>Matplotlib v3.5.2, https://matplotlib.org/</dc:title>
     </cc:Agent>
    </dc:creator>
   </cc:Work>
  </rdf:RDF>
 </metadata>
 <defs>
  <style type="text/css">*{stroke-linejoin: round; stroke-linecap: butt}</style>
 </defs>
 <g id="figure_1">
  <g id="patch_1">
   <path d="M 0 488.17567 
L 1057.9025 488.17567 
L 1057.9025 0 
L 0 0 
z
" style="fill: #ffffff"/>
  </g>
  <g id="axes_1">
   <g id="patch_2">
    <path d="M 46.9525 434.59192 
L 1057.9025 434.59192 
L 1057.9025 72.25112 
L 46.9525 72.25112 
z
" style="fill: #ffffff"/>
   </g>
   <g id="matplotlib.axis_1">
    <g id="xtick_1">
     <g id="line2d_1">
      <path d="M 92.904773 434.59192 
L 92.904773 72.25112 
" clip-path="url(#p16f7f8f878)" style="fill: none; stroke: #b0b0b0; stroke-width: 0.8; stroke-linecap: square"/>
     </g>
     <g id="line2d_2">
      <defs>
       <path id="m33e9bb5220" d="M 0 0 
L 0 3.5 
" style="stroke: #000000; stroke-width: 0.8"/>
      </defs>
      <g>
       <use xlink:href="#m33e9bb5220" x="92.904773" y="434.59192" style="stroke: #000000; stroke-width: 0.8"/>
      </g>
     </g>
     <g id="text_1">
      <!-- 0 -->
      <g transform="translate(86.542273 456.788795)scale(0.2 -0.2)">
       <defs>
        <path id="DejaVuSans-30" d="M 2034 4250 
Q 1547 4250 1301 3770 
Q 1056 3291 1056 2328 
Q 1056 1369 1301 889 
Q 1547 409 2034 409 
Q 2525 409 2770 889 
Q 3016 1369 3016 2328 
Q 3016 3291 2770 3770 
Q 2525 4250 2034 4250 
z
M 2034 4750 
Q 2819 4750 3233 4129 
Q 3647 3509 3647 2328 
Q 3647 1150 3233 529 
Q 2819 -91 2034 -91 
Q 1250 -91 836 529 
Q 422 1150 422 2328 
Q 422 3509 836 4129 
Q 1250 4750 2034 4750 
z
" transform="scale(0.015625)"/>
       </defs>
       <use xlink:href="#DejaVuSans-30"/>
      </g>
     </g>
    </g>
    <g id="xtick_2">
     <g id="line2d_3">
      <path d="M 277.657629 434.59192 
L 277.657629 72.25112 
" clip-path="url(#p16f7f8f878)" style="fill: none; stroke: #b0b0b0; stroke-width: 0.8; stroke-linecap: square"/>
     </g>
     <g id="line2d_4">
      <g>
       <use xlink:href="#m33e9bb5220" x="277.657629" y="434.59192" style="stroke: #000000; stroke-width: 0.8"/>
      </g>
     </g>
     <g id="text_2">
      <!-- 20 -->
      <g transform="translate(264.932629 456.788795)scale(0.2 -0.2)">
       <defs>
        <path id="DejaVuSans-32" d="M 1228 531 
L 3431 531 
L 3431 0 
L 469 0 
L 469 531 
Q 828 903 1448 1529 
Q 2069 2156 2228 2338 
Q 2531 2678 2651 2914 
Q 2772 3150 2772 3378 
Q 2772 3750 2511 3984 
Q 2250 4219 1831 4219 
Q 1534 4219 1204 4116 
Q 875 4013 500 3803 
L 500 4441 
Q 881 4594 1212 4672 
Q 1544 4750 1819 4750 
Q 2544 4750 2975 4387 
Q 3406 4025 3406 3419 
Q 3406 3131 3298 2873 
Q 3191 2616 2906 2266 
Q 2828 2175 2409 1742 
Q 1991 1309 1228 531 
z
" transform="scale(0.015625)"/>
       </defs>
       <use xlink:href="#DejaVuSans-32"/>
       <use xlink:href="#DejaVuSans-30" x="63.623047"/>
      </g>
     </g>
    </g>
    <g id="xtick_3">
     <g id="line2d_5">
      <path d="M 462.410486 434.59192 
L 462.410486 72.25112 
" clip-path="url(#p16f7f8f878)" style="fill: none; stroke: #b0b0b0; stroke-width: 0.8; stroke-linecap: square"/>
     </g>
     <g id="line2d_6">
      <g>
       <use xlink:href="#m33e9bb5220" x="462.410486" y="434.59192" style="stroke: #000000; stroke-width: 0.8"/>
      </g>
     </g>
     <g id="text_3">
      <!-- 40 -->
      <g transform="translate(449.685486 456.788795)scale(0.2 -0.2)">
       <defs>
        <path id="DejaVuSans-34" d="M 2419 4116 
L 825 1625 
L 2419 1625 
L 2419 4116 
z
M 2253 4666 
L 3047 4666 
L 3047 1625 
L 3713 1625 
L 3713 1100 
L 3047 1100 
L 3047 0 
L 2419 0 
L 2419 1100 
L 313 1100 
L 313 1709 
L 2253 4666 
z
" transform="scale(0.015625)"/>
       </defs>
       <use xlink:href="#DejaVuSans-34"/>
       <use xlink:href="#DejaVuSans-30" x="63.623047"/>
      </g>
     </g>
    </g>
    <g id="xtick_4">
     <g id="line2d_7">
      <path d="M 647.163342 434.59192 
L 647.163342 72.25112 
" clip-path="url(#p16f7f8f878)" style="fill: none; stroke: #b0b0b0; stroke-width: 0.8; stroke-linecap: square"/>
     </g>
     <g id="line2d_8">
      <g>
       <use xlink:href="#m33e9bb5220" x="647.163342" y="434.59192" style="stroke: #000000; stroke-width: 0.8"/>
      </g>
     </g>
     <g id="text_4">
      <!-- 60 -->
      <g transform="translate(634.438342 456.788795)scale(0.2 -0.2)">
       <defs>
        <path id="DejaVuSans-36" d="M 2113 2584 
Q 1688 2584 1439 2293 
Q 1191 2003 1191 1497 
Q 1191 994 1439 701 
Q 1688 409 2113 409 
Q 2538 409 2786 701 
Q 3034 994 3034 1497 
Q 3034 2003 2786 2293 
Q 2538 2584 2113 2584 
z
M 3366 4563 
L 3366 3988 
Q 3128 4100 2886 4159 
Q 2644 4219 2406 4219 
Q 1781 4219 1451 3797 
Q 1122 3375 1075 2522 
Q 1259 2794 1537 2939 
Q 1816 3084 2150 3084 
Q 2853 3084 3261 2657 
Q 3669 2231 3669 1497 
Q 3669 778 3244 343 
Q 2819 -91 2113 -91 
Q 1303 -91 875 529 
Q 447 1150 447 2328 
Q 447 3434 972 4092 
Q 1497 4750 2381 4750 
Q 2619 4750 2861 4703 
Q 3103 4656 3366 4563 
z
" transform="scale(0.015625)"/>
       </defs>
       <use xlink:href="#DejaVuSans-36"/>
       <use xlink:href="#DejaVuSans-30" x="63.623047"/>
      </g>
     </g>
    </g>
    <g id="xtick_5">
     <g id="line2d_9">
      <path d="M 831.916199 434.59192 
L 831.916199 72.25112 
" clip-path="url(#p16f7f8f878)" style="fill: none; stroke: #b0b0b0; stroke-width: 0.8; stroke-linecap: square"/>
     </g>
     <g id="line2d_10">
      <g>
       <use xlink:href="#m33e9bb5220" x="831.916199" y="434.59192" style="stroke: #000000; stroke-width: 0.8"/>
      </g>
     </g>
     <g id="text_5">
      <!-- 80 -->
      <g transform="translate(819.191199 456.788795)scale(0.2 -0.2)">
       <defs>
        <path id="DejaVuSans-38" d="M 2034 2216 
Q 1584 2216 1326 1975 
Q 1069 1734 1069 1313 
Q 1069 891 1326 650 
Q 1584 409 2034 409 
Q 2484 409 2743 651 
Q 3003 894 3003 1313 
Q 3003 1734 2745 1975 
Q 2488 2216 2034 2216 
z
M 1403 2484 
Q 997 2584 770 2862 
Q 544 3141 544 3541 
Q 544 4100 942 4425 
Q 1341 4750 2034 4750 
Q 2731 4750 3128 4425 
Q 3525 4100 3525 3541 
Q 3525 3141 3298 2862 
Q 3072 2584 2669 2484 
Q 3125 2378 3379 2068 
Q 3634 1759 3634 1313 
Q 3634 634 3220 271 
Q 2806 -91 2034 -91 
Q 1263 -91 848 271 
Q 434 634 434 1313 
Q 434 1759 690 2068 
Q 947 2378 1403 2484 
z
M 1172 3481 
Q 1172 3119 1398 2916 
Q 1625 2713 2034 2713 
Q 2441 2713 2670 2916 
Q 2900 3119 2900 3481 
Q 2900 3844 2670 4047 
Q 2441 4250 2034 4250 
Q 1625 4250 1398 4047 
Q 1172 3844 1172 3481 
z
" transform="scale(0.015625)"/>
       </defs>
       <use xlink:href="#DejaVuSans-38"/>
       <use xlink:href="#DejaVuSans-30" x="63.623047"/>
      </g>
     </g>
    </g>
    <g id="xtick_6">
     <g id="line2d_11">
      <path d="M 1016.669056 434.59192 
L 1016.669056 72.25112 
" clip-path="url(#p16f7f8f878)" style="fill: none; stroke: #b0b0b0; stroke-width: 0.8; stroke-linecap: square"/>
     </g>
     <g id="line2d_12">
      <g>
       <use xlink:href="#m33e9bb5220" x="1016.669056" y="434.59192" style="stroke: #000000; stroke-width: 0.8"/>
      </g>
     </g>
     <g id="text_6">
      <!-- 100 -->
      <g transform="translate(997.581556 456.788795)scale(0.2 -0.2)">
       <defs>
        <path id="DejaVuSans-31" d="M 794 531 
L 1825 531 
L 1825 4091 
L 703 3866 
L 703 4441 
L 1819 4666 
L 2450 4666 
L 2450 531 
L 3481 531 
L 3481 0 
L 794 0 
L 794 531 
z
" transform="scale(0.015625)"/>
       </defs>
       <use xlink:href="#DejaVuSans-31"/>
       <use xlink:href="#DejaVuSans-30" x="63.623047"/>
       <use xlink:href="#DejaVuSans-30" x="127.246094"/>
      </g>
     </g>
    </g>
    <g id="text_7">
     <!-- Track progress [%] -->
     <g transform="translate(440.85 483.18442)scale(0.24 -0.24)">
      <defs>
       <path id="DejaVuSans-54" d="M -19 4666 
L 3928 4666 
L 3928 4134 
L 2272 4134 
L 2272 0 
L 1638 0 
L 1638 4134 
L -19 4134 
L -19 4666 
z
" transform="scale(0.015625)"/>
       <path id="DejaVuSans-72" d="M 2631 2963 
Q 2534 3019 2420 3045 
Q 2306 3072 2169 3072 
Q 1681 3072 1420 2755 
Q 1159 2438 1159 1844 
L 1159 0 
L 581 0 
L 581 3500 
L 1159 3500 
L 1159 2956 
Q 1341 3275 1631 3429 
Q 1922 3584 2338 3584 
Q 2397 3584 2469 3576 
Q 2541 3569 2628 3553 
L 2631 2963 
z
" transform="scale(0.015625)"/>
       <path id="DejaVuSans-61" d="M 2194 1759 
Q 1497 1759 1228 1600 
Q 959 1441 959 1056 
Q 959 750 1161 570 
Q 1363 391 1709 391 
Q 2188 391 2477 730 
Q 2766 1069 2766 1631 
L 2766 1759 
L 2194 1759 
z
M 3341 1997 
L 3341 0 
L 2766 0 
L 2766 531 
Q 2569 213 2275 61 
Q 1981 -91 1556 -91 
Q 1019 -91 701 211 
Q 384 513 384 1019 
Q 384 1609 779 1909 
Q 1175 2209 1959 2209 
L 2766 2209 
L 2766 2266 
Q 2766 2663 2505 2880 
Q 2244 3097 1772 3097 
Q 1472 3097 1187 3025 
Q 903 2953 641 2809 
L 641 3341 
Q 956 3463 1253 3523 
Q 1550 3584 1831 3584 
Q 2591 3584 2966 3190 
Q 3341 2797 3341 1997 
z
" transform="scale(0.015625)"/>
       <path id="DejaVuSans-63" d="M 3122 3366 
L 3122 2828 
Q 2878 2963 2633 3030 
Q 2388 3097 2138 3097 
Q 1578 3097 1268 2742 
Q 959 2388 959 1747 
Q 959 1106 1268 751 
Q 1578 397 2138 397 
Q 2388 397 2633 464 
Q 2878 531 3122 666 
L 3122 134 
Q 2881 22 2623 -34 
Q 2366 -91 2075 -91 
Q 1284 -91 818 406 
Q 353 903 353 1747 
Q 353 2603 823 3093 
Q 1294 3584 2113 3584 
Q 2378 3584 2631 3529 
Q 2884 3475 3122 3366 
z
" transform="scale(0.015625)"/>
       <path id="DejaVuSans-6b" d="M 581 4863 
L 1159 4863 
L 1159 1991 
L 2875 3500 
L 3609 3500 
L 1753 1863 
L 3688 0 
L 2938 0 
L 1159 1709 
L 1159 0 
L 581 0 
L 581 4863 
z
" transform="scale(0.015625)"/>
       <path id="DejaVuSans-20" transform="scale(0.015625)"/>
       <path id="DejaVuSans-70" d="M 1159 525 
L 1159 -1331 
L 581 -1331 
L 581 3500 
L 1159 3500 
L 1159 2969 
Q 1341 3281 1617 3432 
Q 1894 3584 2278 3584 
Q 2916 3584 3314 3078 
Q 3713 2572 3713 1747 
Q 3713 922 3314 415 
Q 2916 -91 2278 -91 
Q 1894 -91 1617 61 
Q 1341 213 1159 525 
z
M 3116 1747 
Q 3116 2381 2855 2742 
Q 2594 3103 2138 3103 
Q 1681 3103 1420 2742 
Q 1159 2381 1159 1747 
Q 1159 1113 1420 752 
Q 1681 391 2138 391 
Q 2594 391 2855 752 
Q 3116 1113 3116 1747 
z
" transform="scale(0.015625)"/>
       <path id="DejaVuSans-6f" d="M 1959 3097 
Q 1497 3097 1228 2736 
Q 959 2375 959 1747 
Q 959 1119 1226 758 
Q 1494 397 1959 397 
Q 2419 397 2687 759 
Q 2956 1122 2956 1747 
Q 2956 2369 2687 2733 
Q 2419 3097 1959 3097 
z
M 1959 3584 
Q 2709 3584 3137 3096 
Q 3566 2609 3566 1747 
Q 3566 888 3137 398 
Q 2709 -91 1959 -91 
Q 1206 -91 779 398 
Q 353 888 353 1747 
Q 353 2609 779 3096 
Q 1206 3584 1959 3584 
z
" transform="scale(0.015625)"/>
       <path id="DejaVuSans-67" d="M 2906 1791 
Q 2906 2416 2648 2759 
Q 2391 3103 1925 3103 
Q 1463 3103 1205 2759 
Q 947 2416 947 1791 
Q 947 1169 1205 825 
Q 1463 481 1925 481 
Q 2391 481 2648 825 
Q 2906 1169 2906 1791 
z
M 3481 434 
Q 3481 -459 3084 -895 
Q 2688 -1331 1869 -1331 
Q 1566 -1331 1297 -1286 
Q 1028 -1241 775 -1147 
L 775 -588 
Q 1028 -725 1275 -790 
Q 1522 -856 1778 -856 
Q 2344 -856 2625 -561 
Q 2906 -266 2906 331 
L 2906 616 
Q 2728 306 2450 153 
Q 2172 0 1784 0 
Q 1141 0 747 490 
Q 353 981 353 1791 
Q 353 2603 747 3093 
Q 1141 3584 1784 3584 
Q 2172 3584 2450 3431 
Q 2728 3278 2906 2969 
L 2906 3500 
L 3481 3500 
L 3481 434 
z
" transform="scale(0.015625)"/>
       <path id="DejaVuSans-65" d="M 3597 1894 
L 3597 1613 
L 953 1613 
Q 991 1019 1311 708 
Q 1631 397 2203 397 
Q 2534 397 2845 478 
Q 3156 559 3463 722 
L 3463 178 
Q 3153 47 2828 -22 
Q 2503 -91 2169 -91 
Q 1331 -91 842 396 
Q 353 884 353 1716 
Q 353 2575 817 3079 
Q 1281 3584 2069 3584 
Q 2775 3584 3186 3129 
Q 3597 2675 3597 1894 
z
M 3022 2063 
Q 3016 2534 2758 2815 
Q 2500 3097 2075 3097 
Q 1594 3097 1305 2825 
Q 1016 2553 972 2059 
L 3022 2063 
z
" transform="scale(0.015625)"/>
       <path id="DejaVuSans-73" d="M 2834 3397 
L 2834 2853 
Q 2591 2978 2328 3040 
Q 2066 3103 1784 3103 
Q 1356 3103 1142 2972 
Q 928 2841 928 2578 
Q 928 2378 1081 2264 
Q 1234 2150 1697 2047 
L 1894 2003 
Q 2506 1872 2764 1633 
Q 3022 1394 3022 966 
Q 3022 478 2636 193 
Q 2250 -91 1575 -91 
Q 1294 -91 989 -36 
Q 684 19 347 128 
L 347 722 
Q 666 556 975 473 
Q 1284 391 1588 391 
Q 1994 391 2212 530 
Q 2431 669 2431 922 
Q 2431 1156 2273 1281 
Q 2116 1406 1581 1522 
L 1381 1569 
Q 847 1681 609 1914 
Q 372 2147 372 2553 
Q 372 3047 722 3315 
Q 1072 3584 1716 3584 
Q 2034 3584 2315 3537 
Q 2597 3491 2834 3397 
z
" transform="scale(0.015625)"/>
       <path id="DejaVuSans-5b" d="M 550 4863 
L 1875 4863 
L 1875 4416 
L 1125 4416 
L 1125 -397 
L 1875 -397 
L 1875 -844 
L 550 -844 
L 550 4863 
z
" transform="scale(0.015625)"/>
       <path id="DejaVuSans-25" d="M 4653 2053 
Q 4381 2053 4226 1822 
Q 4072 1591 4072 1178 
Q 4072 772 4226 539 
Q 4381 306 4653 306 
Q 4919 306 5073 539 
Q 5228 772 5228 1178 
Q 5228 1588 5073 1820 
Q 4919 2053 4653 2053 
z
M 4653 2450 
Q 5147 2450 5437 2106 
Q 5728 1763 5728 1178 
Q 5728 594 5436 251 
Q 5144 -91 4653 -91 
Q 4153 -91 3862 251 
Q 3572 594 3572 1178 
Q 3572 1766 3864 2108 
Q 4156 2450 4653 2450 
z
M 1428 4353 
Q 1159 4353 1004 4120 
Q 850 3888 850 3481 
Q 850 3069 1003 2837 
Q 1156 2606 1428 2606 
Q 1700 2606 1854 2837 
Q 2009 3069 2009 3481 
Q 2009 3884 1853 4118 
Q 1697 4353 1428 4353 
z
M 4250 4750 
L 4750 4750 
L 1831 -91 
L 1331 -91 
L 4250 4750 
z
M 1428 4750 
Q 1922 4750 2215 4408 
Q 2509 4066 2509 3481 
Q 2509 2891 2217 2550 
Q 1925 2209 1428 2209 
Q 931 2209 642 2551 
Q 353 2894 353 3481 
Q 353 4063 643 4406 
Q 934 4750 1428 4750 
z
" transform="scale(0.015625)"/>
       <path id="DejaVuSans-5d" d="M 1947 4863 
L 1947 -844 
L 622 -844 
L 622 -397 
L 1369 -397 
L 1369 4416 
L 622 4416 
L 622 4863 
L 1947 4863 
z
" transform="scale(0.015625)"/>
      </defs>
      <use xlink:href="#DejaVuSans-54"/>
      <use xlink:href="#DejaVuSans-72" x="46.333984"/>
      <use xlink:href="#DejaVuSans-61" x="87.447266"/>
      <use xlink:href="#DejaVuSans-63" x="148.726562"/>
      <use xlink:href="#DejaVuSans-6b" x="203.707031"/>
      <use xlink:href="#DejaVuSans-20" x="261.617188"/>
      <use xlink:href="#DejaVuSans-70" x="293.404297"/>
      <use xlink:href="#DejaVuSans-72" x="356.880859"/>
      <use xlink:href="#DejaVuSans-6f" x="395.744141"/>
      <use xlink:href="#DejaVuSans-67" x="456.925781"/>
      <use xlink:href="#DejaVuSans-72" x="520.402344"/>
      <use xlink:href="#DejaVuSans-65" x="559.265625"/>
      <use xlink:href="#DejaVuSans-73" x="620.789062"/>
      <use xlink:href="#DejaVuSans-73" x="672.888672"/>
      <use xlink:href="#DejaVuSans-20" x="724.988281"/>
      <use xlink:href="#DejaVuSans-5b" x="756.775391"/>
      <use xlink:href="#DejaVuSans-25" x="795.789062"/>
      <use xlink:href="#DejaVuSans-5d" x="890.808594"/>
     </g>
    </g>
   </g>
   <g id="matplotlib.axis_2">
    <g id="ytick_1">
     <g id="line2d_13">
      <path d="M 46.9525 386.279813 
L 1057.9025 386.279813 
" clip-path="url(#p16f7f8f878)" style="fill: none; stroke: #b0b0b0; stroke-width: 0.8; stroke-linecap: square"/>
     </g>
     <g id="line2d_14">
      <defs>
       <path id="m7452c311a1" d="M 0 0 
L -3.5 0 
" style="stroke: #000000; stroke-width: 0.8"/>
      </defs>
      <g>
       <use xlink:href="#m7452c311a1" x="46.9525" y="386.279813" style="stroke: #000000; stroke-width: 0.8"/>
      </g>
     </g>
     <g id="text_8">
      <!-- 2 -->
      <g transform="translate(27.2275 393.878251)scale(0.2 -0.2)">
       <use xlink:href="#DejaVuSans-32"/>
      </g>
     </g>
    </g>
    <g id="ytick_2">
     <g id="line2d_15">
      <path d="M 46.9525 289.6556 
L 1057.9025 289.6556 
" clip-path="url(#p16f7f8f878)" style="fill: none; stroke: #b0b0b0; stroke-width: 0.8; stroke-linecap: square"/>
     </g>
     <g id="line2d_16">
      <g>
       <use xlink:href="#m7452c311a1" x="46.9525" y="289.6556" style="stroke: #000000; stroke-width: 0.8"/>
      </g>
     </g>
     <g id="text_9">
      <!-- 4 -->
      <g transform="translate(27.2275 297.254037)scale(0.2 -0.2)">
       <use xlink:href="#DejaVuSans-34"/>
      </g>
     </g>
    </g>
    <g id="ytick_3">
     <g id="line2d_17">
      <path d="M 46.9525 193.031387 
L 1057.9025 193.031387 
" clip-path="url(#p16f7f8f878)" style="fill: none; stroke: #b0b0b0; stroke-width: 0.8; stroke-linecap: square"/>
     </g>
     <g id="line2d_18">
      <g>
       <use xlink:href="#m7452c311a1" x="46.9525" y="193.031387" style="stroke: #000000; stroke-width: 0.8"/>
      </g>
     </g>
     <g id="text_10">
      <!-- 6 -->
      <g transform="translate(27.2275 200.629824)scale(0.2 -0.2)">
       <use xlink:href="#DejaVuSans-36"/>
      </g>
     </g>
    </g>
    <g id="ytick_4">
     <g id="line2d_19">
      <path d="M 46.9525 96.407173 
L 1057.9025 96.407173 
" clip-path="url(#p16f7f8f878)" style="fill: none; stroke: #b0b0b0; stroke-width: 0.8; stroke-linecap: square"/>
     </g>
     <g id="line2d_20">
      <g>
       <use xlink:href="#m7452c311a1" x="46.9525" y="96.407173" style="stroke: #000000; stroke-width: 0.8"/>
      </g>
     </g>
     <g id="text_11">
      <!-- 8 -->
      <g transform="translate(27.2275 104.005611)scale(0.2 -0.2)">
       <use xlink:href="#DejaVuSans-38"/>
      </g>
     </g>
    </g>
    <g id="text_12">
     <!-- Speed [m/s] -->
     <g transform="translate(18.23625 326.203395)rotate(-90)scale(0.24 -0.24)">
      <defs>
       <path id="DejaVuSans-53" d="M 3425 4513 
L 3425 3897 
Q 3066 4069 2747 4153 
Q 2428 4238 2131 4238 
Q 1616 4238 1336 4038 
Q 1056 3838 1056 3469 
Q 1056 3159 1242 3001 
Q 1428 2844 1947 2747 
L 2328 2669 
Q 3034 2534 3370 2195 
Q 3706 1856 3706 1288 
Q 3706 609 3251 259 
Q 2797 -91 1919 -91 
Q 1588 -91 1214 -16 
Q 841 59 441 206 
L 441 856 
Q 825 641 1194 531 
Q 1563 422 1919 422 
Q 2459 422 2753 634 
Q 3047 847 3047 1241 
Q 3047 1584 2836 1778 
Q 2625 1972 2144 2069 
L 1759 2144 
Q 1053 2284 737 2584 
Q 422 2884 422 3419 
Q 422 4038 858 4394 
Q 1294 4750 2059 4750 
Q 2388 4750 2728 4690 
Q 3069 4631 3425 4513 
z
" transform="scale(0.015625)"/>
       <path id="DejaVuSans-64" d="M 2906 2969 
L 2906 4863 
L 3481 4863 
L 3481 0 
L 2906 0 
L 2906 525 
Q 2725 213 2448 61 
Q 2172 -91 1784 -91 
Q 1150 -91 751 415 
Q 353 922 353 1747 
Q 353 2572 751 3078 
Q 1150 3584 1784 3584 
Q 2172 3584 2448 3432 
Q 2725 3281 2906 2969 
z
M 947 1747 
Q 947 1113 1208 752 
Q 1469 391 1925 391 
Q 2381 391 2643 752 
Q 2906 1113 2906 1747 
Q 2906 2381 2643 2742 
Q 2381 3103 1925 3103 
Q 1469 3103 1208 2742 
Q 947 2381 947 1747 
z
" transform="scale(0.015625)"/>
       <path id="DejaVuSans-6d" d="M 3328 2828 
Q 3544 3216 3844 3400 
Q 4144 3584 4550 3584 
Q 5097 3584 5394 3201 
Q 5691 2819 5691 2113 
L 5691 0 
L 5113 0 
L 5113 2094 
Q 5113 2597 4934 2840 
Q 4756 3084 4391 3084 
Q 3944 3084 3684 2787 
Q 3425 2491 3425 1978 
L 3425 0 
L 2847 0 
L 2847 2094 
Q 2847 2600 2669 2842 
Q 2491 3084 2119 3084 
Q 1678 3084 1418 2786 
Q 1159 2488 1159 1978 
L 1159 0 
L 581 0 
L 581 3500 
L 1159 3500 
L 1159 2956 
Q 1356 3278 1631 3431 
Q 1906 3584 2284 3584 
Q 2666 3584 2933 3390 
Q 3200 3197 3328 2828 
z
" transform="scale(0.015625)"/>
       <path id="DejaVuSans-2f" d="M 1625 4666 
L 2156 4666 
L 531 -594 
L 0 -594 
L 1625 4666 
z
" transform="scale(0.015625)"/>
      </defs>
      <use xlink:href="#DejaVuSans-53"/>
      <use xlink:href="#DejaVuSans-70" x="63.476562"/>
      <use xlink:href="#DejaVuSans-65" x="126.953125"/>
      <use xlink:href="#DejaVuSans-65" x="188.476562"/>
      <use xlink:href="#DejaVuSans-64" x="250"/>
      <use xlink:href="#DejaVuSans-20" x="313.476562"/>
      <use xlink:href="#DejaVuSans-5b" x="345.263672"/>
      <use xlink:href="#DejaVuSans-6d" x="384.277344"/>
      <use xlink:href="#DejaVuSans-2f" x="481.689453"/>
      <use xlink:href="#DejaVuSans-73" x="515.380859"/>
      <use xlink:href="#DejaVuSans-5d" x="567.480469"/>
     </g>
    </g>
   </g>
   <g id="line2d_21">
    <path d="M 92.904773 482.904027 
L 92.904773 437.766508 
L 93.226511 426.280305 
L 93.226511 414.794102 
L 93.548249 403.307898 
L 93.548249 391.821695 
L 93.869988 380.335492 
L 94.352595 368.849288 
L 95.049695 345.876881 
L 95.800417 334.390678 
L 96.122156 322.904475 
L 97.24824 299.932068 
L 97.945339 288.445865 
L 98.267078 276.959661 
L 98.803308 265.473458 
L 99.446785 254.378018 
L 100.143884 244.495779 
L 100.626492 235.798946 
L 102.449676 221.083153 
L 103.093152 214.952009 
L 104.594598 204.901054 
L 105.398943 200.534118 
L 106.525027 196.856388 
L 107.222127 193.729995 
L 108.026473 190.739245 
L 109.152557 188.104472 
L 109.796033 185.806266 
L 110.654002 183.718797 
L 111.780086 181.965868 
L 112.423563 180.335312 
L 113.227909 179.094535 
L 114.407616 177.907904 
L 115.051092 176.722328 
L 117.035145 175.151288 
L 118.965575 174.359833 
L 119.662675 173.877632 
L 120.788759 173.794317 
L 121.914843 174.153068 
L 122.719189 174.080226 
L 123.416288 173.889667 
L 124.542372 173.979371 
L 125.346718 174.554258 
L 126.526425 174.798214 
L 127.330771 175.887375 
L 127.974247 177.273612 
L 129.153955 178.500581 
L 129.9583 179.592374 
L 131.084384 180.898091 
L 132.58583 181.480714 
L 133.711914 185.010899 
L 134.51626 190.05472 
L 136.017705 202.182611 
L 137.143789 207.027271 
L 137.948135 211.731577 
L 139.44958 215.27695 
L 140.253926 220.018787 
L 140.897403 219.648477 
L 142.881455 220.43458 
L 143.203194 225.570369 
L 144.329278 228.097676 
L 145.133623 231.426214 
L 145.508985 233.749848 
L 146.635069 235.912455 
L 146.956807 235.682195 
L 147.761153 241.247629 
L 149.262598 257.909958 
L 150.066944 260.22781 
L 151.193028 266.701965 
L 151.997374 265.841572 
L 152.694474 264.675387 
L 153.177081 263.349458 
L 153.820558 261.115227 
L 154.303165 259.018671 
L 155.429249 261.441487 
L 155.80461 262.865491 
L 156.608956 263.085162 
L 157.252433 262.922976 
L 158.43214 261.757222 
L 158.861124 260.868838 
L 160.040831 259.549308 
L 160.040831 257.983298 
L 161.166915 256.242711 
L 161.971261 253.345108 
L 162.292999 250.366091 
L 162.775607 247.482156 
L 163.955314 244.201581 
L 164.384298 240.492033 
L 166.046613 236.545626 
L 168.245158 232.347346 
L 168.727765 227.130428 
L 169.532111 225.84743 
L 170.711818 222.49387 
L 172.481379 218.342638 
L 172.481379 213.85851 
L 174.626301 209.863995 
L 174.626301 206.47512 
L 174.626301 209.725258 
L 176.824846 211.388932 
L 176.824846 215.570642 
L 180.095852 215.62395 
L 180.095852 211.226783 
L 180.739329 209.528513 
L 181.758167 209.018615 
L 183.58135 209.927062 
L 183.58135 208.983584 
L 183.903089 208.509157 
L 184.921927 208.96209 
L 186.423372 208.827134 
L 187.388587 207.869213 
L 187.871194 206.552366 
L 188.246556 204.261087 
L 189.694378 201.908496 
L 190.713216 199.573228 
L 191.195823 197.164044 
L 193.126253 193.527826 
L 194.252337 192.069285 
L 194.949437 190.67035 
L 195.432044 190.283954 
L 196.879867 189.890756 
L 197.362474 189.092133 
L 199.668265 187.563716 
L 201.116088 186.005469 
L 202.403041 184.351657 
L 204.065355 181.121027 
L 208.408823 172.285619 
L 209.58853 170.546362 
L 211.197221 167.323632 
L 212.484174 166.227337 
L 214.092866 164.242391 
L 215.379819 163.377228 
L 216.184165 162.528156 
L 217.792856 161.421069 
L 219.079809 160.841186 
L 219.884155 160.346027 
L 220.688501 160.067871 
L 222.7798 159.684605 
L 223.584146 159.438921 
L 226.158052 158.902805 
L 226.64066 158.496514 
L 229.697173 157.442038 
L 231.413111 157.178826 
L 232.378326 156.894598 
L 232.378326 156.771097 
L 236.989908 156.147586 
L 236.989908 155.966428 
L 240.636276 155.340891 
L 242.513082 156.194556 
L 242.99569 156.907849 
L 243.960905 157.820317 
L 244.92612 157.820206 
L 245.837711 158.36222 
L 246.802926 159.186746 
L 247.768141 159.772212 
L 249.484079 160.549999 
L 249.484079 162.10809 
L 250.449294 163.512473 
L 251.414509 165.456342 
L 253.291315 168.68735 
L 254.739138 170.19268 
L 255.060876 172.15102 
L 256.026091 174.098139 
L 257.42029 179.007794 
L 258.868113 181.34361 
L 259.189851 184.70386 
L 260.155066 184.173808 
L 261.066658 183.912983 
L 262.031873 184.079794 
L 263.318826 191.636965 
L 264.713025 191.633824 
L 265.088386 192.701905 
L 265.999978 193.264967 
L 266.965193 197.108159 
L 267.447801 196.925289 
L 268.734754 197.713342 
L 269.217361 198.53078 
L 270.128953 198.933396 
L 270.933299 202.797328 
L 271.898514 206.213101 
L 272.381121 209.693803 
L 273.185467 210.433024 
L 274.150682 212.177047 
L 274.150682 215.351248 
L 275.437635 215.1213 
L 276.349227 215.174019 
L 276.349227 219.419981 
L 278.118788 223.808474 
L 278.601395 233.853272 
L 278.601395 232.578282 
L 279.888348 240.589015 
L 280.79994 244.881673 
L 280.79994 248.80702 
L 281.282547 250.9686 
L 282.569501 250.11046 
L 282.569501 250.401318 
L 283.052108 248.447882 
L 284.339061 246.869827 
L 284.339061 253.309657 
L 286.108622 252.081054 
L 287.502821 249.319408 
L 289.754989 247.338146 
L 290.237597 246.607144 
L 292.168027 244.357144 
L 292.168027 243.289557 
L 293.669472 243.155447 
L 293.669472 242.698291 
L 295.814394 242.299266 
L 295.814394 239.462609 
L 297.959316 237.754821 
L 298.281054 235.250585 
L 298.281054 232.889556 
L 298.602793 231.01902 
L 300.425976 229.127008 
L 302.463652 224.316764 
L 303.428867 223.020572 
L 304.769443 221.89654 
L 305.627412 219.563484 
L 306.270889 218.64554 
L 306.967988 217.353009 
L 307.933203 216.544232 
L 308.737549 215.621353 
L 309.434649 214.426333 
L 310.882471 210.919921 
L 311.901309 208.51952 
L 313.402754 203.506679 
L 314.528839 201.280306 
L 314.850577 199.180285 
L 315.654923 196.986388 
L 316.83463 194.752268 
L 317.156368 192.767343 
L 318.282452 190.952435 
L 319.086798 189.093106 
L 321.392589 185.331788 
L 321.392589 183.720928 
L 324.824464 177.525422 
L 324.824464 175.633541 
L 326.004171 173.524586 
L 328.953439 169.888901 
L 328.953439 168.319305 
L 330.401261 166.767163 
L 330.401261 165.299656 
L 333.350529 162.865646 
L 333.350529 161.779391 
L 335.173713 160.733627 
L 335.173713 159.785761 
L 336.996896 159.097719 
L 336.996896 158.268933 
L 340.643264 156.868919 
L 340.643264 156.39415 
L 342.466448 155.896656 
L 342.788186 155.347239 
L 342.788186 154.84352 
L 344.61137 154.124985 
L 346.434553 153.643619 
L 346.434553 153.069108 
L 348.204114 152.620815 
L 348.204114 152.359355 
L 350.027298 152.326223 
L 350.027298 153.281161 
L 352.17222 154.010407 
L 352.17222 154.774281 
L 353.995403 155.419317 
L 353.995403 156.006302 
L 355.818587 156.246932 
L 357.641771 156.161727 
L 359.464954 156.620106 
L 359.464954 157.104399 
L 361.609876 157.057776 
L 361.609876 157.436792 
L 363.43306 158.131117 
L 363.43306 158.373604 
L 365.202621 158.865124 
L 365.202621 158.852086 
L 367.025805 158.861477 
L 367.401166 159.947685 
L 368.848988 160.539129 
L 369.170727 161.411133 
L 370.672172 161.525572 
L 370.99391 161.744662 
L 372.817094 162.281097 
L 373.138832 162.134739 
L 374.640278 162.135616 
L 374.962016 162.735863 
L 376.7852 163.201823 
L 378.286645 163.323512 
L 380.056206 164.079478 
L 381.235913 164.051871 
L 381.879389 164.448418 
L 382.576489 164.403994 
L 384.024311 164.920251 
L 384.399673 165.627834 
L 387.670679 166.490795 
L 388.475025 166.488223 
L 389.493862 167.538727 
L 391.317046 167.88812 
L 391.960523 168.00822 
L 393.14023 168.679243 
L 393.783706 169.305881 
L 394.909791 170.015608 
L 395.60689 169.966877 
L 396.732974 170.225626 
L 399.682242 169.988566 
L 400.379342 170.134688 
L 402.202525 169.9978 
L 403.221363 170.154694 
L 404.025709 170.595223 
L 404.990924 170.485352 
L 405.79527 170.66811 
L 406.814108 171.158506 
L 407.618453 172.02358 
L 408.637291 172.007234 
L 409.441637 172.905237 
L 411.264821 174.19316 
L 412.283659 175.016902 
L 413.088004 175.841021 
L 414.106842 176.154895 
L 414.911188 176.816284 
L 415.876403 178.00968 
L 416.680749 179.564362 
L 417.699587 180.983395 
L 418.503933 181.702761 
L 419.52277 182.250384 
L 421.024216 189.887044 
L 422.472038 194.998255 
L 422.793777 201.252431 
L 423.812614 206.23063 
L 424.61696 210.92884 
L 426.118406 214.770328 
L 426.761882 214.654144 
L 427.941589 215.188231 
L 428.263328 217.898549 
L 430.086511 219.174114 
L 431.105349 224.313908 
L 431.534334 227.536012 
L 432.231433 230.606111 
L 433.732879 233.509042 
L 434.376355 237.120532 
L 435.502439 241.574737 
L 435.877801 243.964789 
L 436.843016 251.603034 
L 437.325623 259.729833 
L 438.022723 262.533502 
L 438.666199 267.048522 
L 439.148807 266.667664 
L 439.845906 265.65056 
L 440.489383 264.512338 
L 441.293729 262.322487 
L 441.615467 262.106504 
L 442.634305 262.156695 
L 443.116913 265.858976 
L 443.760389 267.929053 
L 444.457489 268.873027 
L 444.940096 269.231798 
L 445.583573 268.543039 
L 446.280672 268.497113 
L 446.924149 268.954128 
L 447.29951 269.478263 
L 447.942987 267.20183 
L 448.264725 269.320084 
L 449.444432 270.465215 
L 449.766171 269.480475 
L 451.106747 263.801154 
L 452.554569 259.91844 
L 452.929931 260.730487 
L 454.753114 268.522518 
L 454.753114 268.381519 
L 454.753114 265.075765 
L 456.200937 264.458166 
L 456.200937 263.566113 
L 457.702382 261.870462 
L 459.471943 258.851791 
L 460.866142 254.761579 
L 461.670488 251.058067 
L 462.796572 248.984481 
L 462.796572 247.548354 
L 463.976279 244.739353 
L 464.298017 256.225557 
L 465.102363 255.212352 
L 465.424101 252.235141 
L 466.603808 252.021124 
L 467.247285 250.915474 
L 467.569023 247.848017 
L 468.74873 245.551332 
L 469.070469 242.825198 
L 469.767568 239.402762 
L 470.893652 236.06773 
L 471.215391 233.894998 
L 471.91249 230.340501 
L 472.555967 224.662325 
L 473.253067 220.812884 
L 474.700889 216.925147 
L 475.022627 214.325848 
L 476.363204 209.520513 
L 477.382041 206.638998 
L 478.722618 199.20336 
L 479.741456 195.914727 
L 480.384932 192.984038 
L 481.082032 190.500948 
L 482.10087 188.234918 
L 482.744346 186.17564 
L 483.763184 184.694256 
L 484.406661 183.508713 
L 485.425499 182.275875 
L 486.122599 181.082895 
L 487.087814 180.364151 
L 491.109542 176.22901 
L 492.82548 175.22025 
L 493.147218 174.810869 
L 494.648664 174.455404 
L 495.613878 174.005859 
L 497.329816 173.944573 
L 498.295031 174.986257 
L 498.992131 175.314666 
L 500.010969 175.971294 
L 500.654445 177.877356 
L 501.673283 178.83958 
L 501.673283 178.800891 
L 503.496467 178.702876 
L 504.139943 179.009984 
L 505.158781 179.623193 
L 505.802258 181.467889 
L 506.821096 182.323732 
L 507.518196 183.294906 
L 508.48341 186.844295 
L 510.199348 195.63309 
L 510.199348 202.104405 
L 511.64717 207.874931 
L 512.34427 214.17342 
L 513.363108 214.05754 
L 514.006585 213.826606 
L 514.703684 216.296541 
L 515.347161 215.671456 
L 516.365999 215.200747 
L 517.009475 217.262868 
L 518.350052 219.775228 
L 518.725413 224.668521 
L 519.851497 228.155166 
L 520.870335 232.239068 
L 522.210911 236.804987 
L 522.854388 240.478311 
L 523.551488 239.854651 
L 524.194964 245.322352 
L 524.892064 252.597519 
L 525.213802 258.713673 
L 525.857279 265.570954 
L 526.554378 271.25772 
L 527.197855 275.585917 
L 527.197855 274.864964 
L 528.377562 278.536624 
L 529.021039 277.374973 
L 529.342777 276.550968 
L 530.039877 272.119435 
L 531.702191 257.732797 
L 532.399291 254.706647 
L 533.042767 250.867416 
L 533.847113 248.20296 
L 535.187689 242.034735 
L 535.670297 236.405666 
L 536.689135 230.225492 
L 538.136957 227.909083 
L 538.136957 225.657661 
L 539.960141 223.583357 
L 539.960141 222.091221 
L 541.461586 220.367955 
L 541.944194 218.911585 
L 544.035493 216.908956 
L 545.75143 214.973619 
L 546.716645 214.227095 
L 547.896352 215.495292 
L 548.218091 216.016164 
L 549.505044 216.779524 
L 549.826782 215.019912 
L 550.631128 212.353959 
L 551.757212 211.956413 
L 552.132573 214.179162 
L 553.258657 210.534088 
L 553.580396 215.062992 
L 554.384741 216.040451 
L 555.564448 227.526654 
L 556.690532 230.745951 
L 556.690532 230.715453 
L 557.816617 231.758582 
L 558.191978 230.27651 
L 559.318062 228.138542 
L 559.6398 224.026837 
L 560.444146 219.077464 
L 561.945591 214.128881 
L 561.945591 209.153962 
L 563.071675 204.450981 
L 564.573121 199.784747 
L 564.573121 195.465272 
L 565.699205 191.790498 
L 566.825289 188.567928 
L 567.20065 185.512492 
L 568.326734 182.714227 
L 569.452818 180.247319 
L 569.82818 178.264357 
L 572.080348 174.419596 
L 573.260055 172.694406 
L 573.260055 171.07168 
L 575.887584 168.216049 
L 577.335407 167.091975 
L 577.335407 165.765066 
L 579.641198 163.166492 
L 581.08902 162.207125 
L 581.08902 161.301237 
L 583.71655 159.602407 
L 583.71655 158.8787 
L 587.523786 157.217756 
L 587.523786 156.726354 
L 588.64987 156.347767 
L 590.151316 155.664623 
L 592.725222 154.912935 
L 592.725222 154.185562 
L 593.904929 153.496352 
L 595.031013 153.100407 
L 596.532459 152.710396 
L 599.159988 154.573448 
L 600.286072 155.130606 
L 600.60781 155.550091 
L 601.787518 155.694375 
L 602.913602 156.09905 
L 605.541131 156.707084 
L 605.541131 156.842554 
L 606.667215 157.105518 
L 608.490399 157.140644 
L 609.294745 157.184019 
L 610.420829 157.409393 
L 613.423719 158.604214 
L 614.549803 158.568737 
L 615.675888 158.648131 
L 616.855595 159.255995 
L 617.177333 159.696186 
L 618.303417 160.420914 
L 619.483124 160.784535 
L 620.609208 161.002964 
L 620.930946 161.421375 
L 623.236738 161.57658 
L 625.059921 163.516736 
L 625.864267 164.372149 
L 626.990351 164.340671 
L 627.687451 164.877867 
L 628.813535 165.035791 
L 629.939619 164.962975 
L 630.743965 165.555532 
L 631.923672 166.746222 
L 632.567148 168.846556 
L 633.746855 170.477703 
L 635.677285 170.377576 
L 636.320762 171.729315 
L 637.178731 171.528702 
L 638.304815 171.403955 
L 639.430899 171.644196 
L 639.752637 172.236793 
L 640.932344 173.239161 
L 642.058428 174.820483 
L 643.559874 177.285799 
L 644.685958 177.700879 
L 645.704796 178.248786 
L 646.187403 177.869231 
L 647.313487 178.698336 
L 648.439571 178.482155 
L 649.941016 178.333769 
L 651.067101 178.778835 
L 652.085938 181.060395 
L 652.568546 183.238591 
L 653.69463 184.251336 
L 654.874337 185.658589 
L 654.874337 185.220666 
L 657.448243 184.529901 
L 658.467081 184.874485 
L 658.949689 189.220758 
L 660.075773 191.522399 
L 661.25548 191.131054 
L 661.25548 190.829627 
L 662.703302 190.198681 
L 663.883009 190.02274 
L 663.883009 190.690213 
L 665.330832 192.442355 
L 666.510539 192.364245 
L 666.510539 192.227165 
L 667.958361 195.074192 
L 669.138068 196.983818 
L 669.781545 198.295981 
L 670.264152 198.806209 
L 671.711975 199.847677 
L 671.711975 199.508868 
L 674.822112 198.864017 
L 676.001819 198.876298 
L 676.001819 199.392382 
L 677.127903 200.165797 
L 679.058333 200.561891 
L 679.862678 200.339164 
L 681.042386 200.162128 
L 681.846731 199.882555 
L 686.029329 199.141627 
L 687.638021 198.323705 
L 688.924974 198.078159 
L 689.407581 197.720022 
L 690.211927 197.277235 
L 691.016273 197.029169 
L 692.303226 196.905856 
L 692.785833 196.456361 
L 694.072787 196.098586 
L 694.555394 195.724134 
L 695.35974 195.506826 
L 696.646693 195.307627 
L 697.075677 195.089186 
L 697.880023 194.51554 
L 698.845238 194.03766 
L 699.649584 193.332795 
L 700.614799 192.726549 
L 701.419145 191.938241 
L 703.993051 189.991892 
L 704.475658 189.249115 
L 705.762612 188.570255 
L 706.191596 187.612119 
L 707.478549 186.750248 
L 707.961157 185.803194 
L 709.408979 184.851417 
L 709.730717 183.853035 
L 711.17854 182.945041 
L 711.500278 181.919406 
L 712.894477 180.955914 
L 713.269839 180.120025 
L 714.18143 179.384022 
L 715.950991 177.450268 
L 717.398813 176.738226 
L 718.203159 175.062976 
L 719.919097 174.095492 
L 719.919097 173.241942 
L 721.849527 172.195264 
L 722.171265 171.280292 
L 722.653872 170.408686 
L 724.423433 169.504117 
L 724.423433 168.827066 
L 725.335025 168.16501 
L 727.104585 167.305774 
L 727.104585 166.474391 
L 728.0698 165.837408 
L 729.785738 164.962337 
L 729.785738 164.189437 
L 730.750953 163.32065 
L 732.520514 162.994528 
L 732.520514 162.558988 
L 733.485728 161.875807 
L 735.362535 161.19503 
L 735.684273 160.555931 
L 736.166881 159.849763 
L 737.132096 159.238034 
L 739.008903 158.81013 
L 739.330641 158.470603 
L 739.813248 159.351556 
L 740.778463 159.756005 
L 741.743678 159.959372 
L 743.459616 159.835992 
L 744.424831 159.626261 
L 745.390046 159.060771 
L 747.266852 159.036574 
L 747.588591 158.543316 
L 748.071198 158.394847 
L 749.036413 160.094796 
L 749.948005 162.903119 
L 751.878435 163.028157 
L 752.200173 163.520298 
L 752.68278 163.490675 
L 753.647995 164.552461 
L 754.559587 164.50369 
L 755.524802 165.024165 
L 757.294363 167.193952 
L 757.294363 171.049661 
L 758.205955 173.927816 
L 759.171169 180.56187 
L 759.653777 189.080144 
L 761.530584 195.91854 
L 761.852322 201.770235 
L 762.334929 207.187752 
L 763.300144 207.138066 
L 764.747967 218.630499 
L 765.176951 224.952519 
L 766.624773 230.911074 
L 766.946512 236.547499 
L 767.429119 238.34353 
L 768.394334 238.199909 
L 768.823318 241.788956 
L 769.305926 242.990118 
L 770.753748 254.90854 
L 772.147948 258.184096 
L 772.523309 258.074283 
L 772.952293 256.853435 
L 773.434901 254.964565 
L 773.917508 252.506524 
L 774.882723 252.637336 
L 775.365331 254.482661 
L 775.794315 254.978813 
L 776.75953 254.105846 
L 778.046483 255.752627 
L 778.046483 253.035319 
L 778.52909 249.055335 
L 779.92329 246.374121 
L 781.585604 239.22069 
L 783.355165 235.01981 
L 783.355165 230.917087 
L 785.178349 227.981552 
L 785.178349 220.037278 
L 787.323271 217.61624 
L 787.323271 214.817584 
L 789.629062 210.604674 
L 789.9508 208.805573 
L 791.773984 207.027895 
L 791.773984 207.052043 
L 793.918906 205.397665 
L 793.918906 202.918598 
L 795.420351 199.127818 
L 797.350781 197.102601 
L 799.120342 197.0721 
L 799.602949 196.487708 
L 800.568164 195.088432 
L 800.997148 191.465348 
L 801.962363 187.776454 
L 802.927578 185.181384 
L 803.410186 183.28432 
L 804.804385 179.93976 
L 805.7696 179.61316 
L 806.681192 178.92943 
L 807.646407 178.923353 
L 808.129014 180.583228 
L 809.094229 181.387741 
L 810.381182 186.584527 
L 810.810167 190.200204 
L 812.09712 192.039133 
L 813.062335 191.289276 
L 813.86668 193.078658 
L 814.188419 192.94305 
L 815.475372 193.090391 
L 816.279718 196.717218 
L 817.084063 199.03738 
L 818.371017 199.875151 
L 819.175362 201.04951 
L 820.033331 200.920175 
L 820.837677 200.913987 
L 821.963761 202.00767 
L 822.285499 204.641933 
L 824.698537 206.89727 
L 826.199982 208.851499 
L 827.326066 217.546091 
L 828.988381 234.450469 
L 829.631857 238.269435 
L 830.436203 245.58635 
L 831.133303 246.987819 
L 831.937648 251.942537 
L 832.259387 261.668068 
L 833.063732 261.300595 
L 834.565178 259.033565 
L 834.886916 262.952084 
L 835.905754 267.584962 
L 836.388361 267.008032 
L 837.031838 266.840653 
L 838.962268 265.750222 
L 839.337629 265.759347 
L 840.302844 263.678438 
L 840.785452 265.505306 
L 841.965159 265.47674 
L 842.769504 263.554364 
L 843.895588 262.583122 
L 843.895588 260.280384 
L 845.397034 259.477376 
L 846.20138 259.90622 
L 848.399925 262.952116 
L 851.295569 260.80161 
L 851.295569 261.296457 
L 851.295569 257.696748 
L 852.797015 254.008388 
L 852.797015 251.928941 
L 854.620198 249.620735 
L 854.620198 248.645102 
L 856.068021 250.933441 
L 856.76512 249.771811 
L 857.408597 249.508062 
L 858.105697 254.005559 
L 859.607142 249.61999 
L 859.607142 246.47946 
L 859.92888 243.755434 
L 860.572357 239.926533 
L 862.073802 235.693626 
L 862.395541 233.214675 
L 863.09264 232.882645 
L 864.218724 230.051332 
L 865.344808 225.069217 
L 866.524516 224.730984 
L 867.167992 224.736222 
L 867.6506 221.659874 
L 869.581029 212.422578 
L 870.278129 207.72015 
L 872.691166 197.856785 
L 873.495512 195.240608 
L 874.675219 193.154027 
L 875.479565 191.241451 
L 876.283911 189.66245 
L 877.892602 187.63683 
L 878.696948 187.00168 
L 879.823032 186.727802 
L 882.396938 189.498207 
L 883.201284 191.35983 
L 884.00563 192.801085 
L 884.863599 192.391606 
L 885.989683 192.435625 
L 887.759243 193.7481 
L 888.563589 195.135766 
L 889.367935 198.921561 
L 890.172281 201.885921 
L 890.976626 202.840188 
L 891.298365 206.088983 
L 892.585318 206.194297 
L 894.194009 208.887747 
L 895.159224 208.840892 
L 895.96357 209.840269 
L 896.767916 211.497683 
L 897.572262 215.590839 
L 897.947623 220.125661 
L 899.180953 222.179799 
L 899.66356 225.333067 
L 900.467906 229.369424 
L 900.843268 232.427808 
L 902.130221 237.260929 
L 902.934567 242.806098 
L 903.417174 243.920458 
L 903.738912 248.366239 
L 905.025866 253.154013 
L 905.508473 254.316942 
L 906.634557 255.138875 
L 907.599772 259.154656 
L 908.404118 261.690118 
L 908.725856 263.176805 
L 909.691071 266.778327 
L 910.495417 266.87425 
L 910.817155 266.661948 
L 910.817155 267.655574 
L 912.104108 273.545138 
L 912.908454 279.384257 
L 913.391061 280.346148 
L 913.7128 282.136803 
L 915.321491 281.095065 
L 915.321491 280.432749 
L 916.822937 280.148519 
L 916.822937 279.246163 
L 918.270759 276.13836 
L 918.270759 272.777822 
L 920.093943 271.733959 
L 921.702634 269.662019 
L 923.847556 265.434442 
L 923.847556 260.697584 
L 925.67074 257.060221 
L 925.67074 252.723158 
L 926.850447 250.031246 
L 928.941746 246.174979 
L 929.37073 244.12053 
L 932.319998 239.577682 
L 932.319998 252.241159 
L 932.641736 260.080192 
L 934.572166 254.157695 
L 934.947527 249.736089 
L 936.073611 252.398084 
L 936.717088 247.925409 
L 937.092449 241.289195 
L 937.896795 236.321833 
L 939.237371 225.0736 
L 940.363455 220.124114 
L 940.685194 214.317813 
L 941.864901 210.346267 
L 942.186639 207.456971 
L 942.830116 206.863365 
L 943.527215 208.630538 
L 944.975038 210.877928 
L 944.975038 209.595709 
L 945.993876 209.320012 
L 947.817059 218.039076 
L 947.817059 223.024615 
L 948.138798 229.286607 
L 949.961981 231.003979 
L 951.088065 235.639388 
L 951.088065 238.633633 
L 952.911249 238.032184 
L 954.090956 236.726688 
L 954.412695 237.194913 
L 955.21704 236.486518 
L 956.021386 237.44045 
L 956.825732 236.76209 
L 957.308339 238.692638 
L 958.112685 238.416197 
L 959.721377 237.514927 
L 959.721377 237.728398 
L 961.00833 237.630753 
L 961.00833 236.539301 
L 962.77789 236.334727 
L 963.743105 237.884183 
L 964.17209 238.356293 
L 965.137305 236.811241 
L 965.619912 235.725654 
L 966.585127 237.265668 
L 967.067734 236.152188 
L 967.496719 235.733466 
L 968.461934 235.264695 
L 970.33874 234.803898 
L 970.714102 232.367562 
L 972.001055 231.361077 
L 972.805401 230.345463 
L 972.805401 228.456934 
L 974.092354 227.983833 
L 974.8967 227.243866 
L 976.505391 226.177867 
L 977.953214 223.925428 
L 977.953214 221.682155 
L 979.454659 219.77529 
L 979.454659 217.931679 
L 980.956104 216.279601 
L 980.956104 214.828184 
L 983.101026 213.607002 
L 983.422765 212.146408 
L 983.422765 209.762827 
L 985.567687 207.643072 
L 986.264786 205.915949 
L 986.586525 203.312652 
L 986.586525 200.716051 
L 988.731447 198.397632 
L 989.374923 196.505679 
L 990.072023 194.991588 
L 991.734337 193.251118 
L 993.879259 192.687111 
L 993.879259 192.221389 
L 994.200998 191.458828 
L 995.219836 190.797936 
L 996.88215 189.368222 
L 998.705334 188.868764 
L 998.705334 188.70619 
L 1001.225617 186.798605 
L 1001.225617 184.995862 
L 1001.869094 183.032202 
L 1003.370539 180.789638 
L 1003.692278 178.489276 
L 1004.711116 176.424412 
L 1006.158938 174.551752 
L 1006.534299 172.779322 
L 1007.177776 171.292286 
L 1008.679221 170.085159 
L 1009.00096 169.12936 
L 1010.502405 168.372261 
L 1011.950227 167.791489 
L 1011.950227 167.21394 
L 1011.950227 167.21394 
" clip-path="url(#p16f7f8f878)" style="fill: none; stroke: #0be881; stroke-opacity: 0.99; stroke-width: 2.4; stroke-linecap: square"/>
   </g>
   <g id="line2d_22">
    <path d="M 92.904773 482.904027 
L 92.904773 437.898995 
L 93.226511 426.412792 
L 93.226511 414.926588 
L 93.548249 403.440385 
L 93.548249 391.954182 
L 93.869988 380.467978 
L 94.352595 368.981775 
L 95.049695 346.009368 
L 95.800417 334.523165 
L 96.122156 323.036961 
L 97.24824 300.064555 
L 97.945339 288.578351 
L 98.267078 277.092148 
L 98.803308 265.632584 
L 100.626492 238.286783 
L 101.591707 231.483734 
L 102.074314 225.508126 
L 103.897498 213.680421 
L 104.594598 209.133675 
L 108.026473 193.405322 
L 109.152557 190.620382 
L 109.474295 188.044612 
L 110.654002 187.078575 
L 111.780086 185.382458 
L 112.423563 184.113411 
L 114.407616 179.679137 
L 115.051092 178.535782 
L 116.713407 176.882946 
L 118.965575 175.278999 
L 119.662675 174.138948 
L 120.46702 175.001338 
L 121.593104 173.791707 
L 122.719189 173.525186 
L 123.416288 173.07611 
L 124.220634 172.725193 
L 125.02498 177.685179 
L 126.151064 178.562106 
L 127.330771 181.0908 
L 127.974247 180.352912 
L 128.778593 185.855219 
L 129.582939 185.188421 
L 131.406123 191.357991 
L 132.210468 194.183689 
L 133.390176 193.886878 
L 134.033652 194.302012 
L 134.837998 198.073571 
L 135.642344 197.933744 
L 136.822051 199.131389 
L 137.465527 203.13363 
L 138.269873 205.597259 
L 139.074219 212.261261 
L 140.253926 214.643016 
L 140.897403 214.000234 
L 141.38001 213.867612 
L 142.506094 215.171217 
L 142.881455 214.406711 
L 144.007539 215.128052 
L 145.133623 221.509089 
L 145.133623 223.046609 
L 146.313331 228.138174 
L 147.439415 237.27273 
L 147.439415 244.094957 
L 149.745206 262.304485 
L 150.87129 261.827671 
L 150.87129 266.349793 
L 151.997374 268.482429 
L 152.694474 270.593846 
L 153.820558 283.072779 
L 154.303165 282.755637 
L 155.000265 281.417907 
L 155.429249 281.417332 
L 156.126349 284.743229 
L 156.608956 283.949856 
L 157.73504 285.927859 
L 157.73504 287.816005 
L 158.861124 288.975349 
L 158.861124 291.660806 
L 160.040831 296.36457 
L 160.040831 301.835993 
L 161.166915 299.420056 
L 161.971261 298.514829 
L 162.292999 296.83619 
L 162.775607 296.36773 
L 162.775607 296.033365 
L 164.384298 294.544448 
L 168.727765 294.10622 
L 169.049504 293.317273 
L 172.481379 289.662031 
L 172.481379 284.55036 
L 174.626301 283.644788 
L 174.626301 274.737104 
L 176.824846 272.347259 
L 176.824846 270.523727 
L 180.095852 267.15623 
L 180.095852 262.358954 
L 180.41759 259.356399 
L 181.11469 255.092154 
L 183.58135 253.344723 
L 183.58135 249.659298 
L 183.903089 248.233779 
L 186.423372 246.433939 
L 186.423372 245.34512 
L 187.871194 244.485241 
L 187.871194 241.504712 
L 189.694378 239.680248 
L 189.694378 238.292798 
L 192.321907 235.130461 
L 193.126253 234.648179 
L 193.126253 233.711165 
L 194.252337 232.663283 
L 194.252337 231.266102 
L 196.558128 228.447837 
L 197.362474 226.538507 
L 197.362474 225.479623 
L 198.542181 224.41439 
L 200.472611 221.382348 
L 200.472611 220.908995 
L 201.974056 221.820302 
L 202.778402 221.556993 
L 203.582748 220.888078 
L 204.065355 223.637103 
L 204.869701 222.860378 
L 205.674047 221.850526 
L 206.478393 220.569471 
L 207.604477 219.018287 
L 207.926215 216.655113 
L 208.784184 214.886948 
L 209.58853 214.548213 
L 210.392875 217.365746 
L 211.197221 218.933267 
L 212.001567 218.862043 
L 213.28852 217.354296 
L 213.771128 217.187958 
L 214.575473 216.331506 
L 215.379819 215.253539 
L 216.184165 215.728048 
L 216.988511 215.857069 
L 217.471118 218.987976 
L 218.275464 219.365228 
L 219.079809 218.772266 
L 219.884155 217.731522 
L 220.688501 216.051713 
L 221.975454 215.443093 
L 223.262407 214.096139 
L 224.066753 213.000234 
L 224.871099 212.521211 
L 225.675445 211.266355 
L 226.64066 212.014306 
L 227.445005 211.851808 
L 227.927613 210.944547 
L 229.214566 209.635371 
L 229.697173 208.914803 
L 230.501519 208.323988 
L 231.413111 207.974836 
L 231.895718 207.357594 
L 232.860933 207.061522 
L 233.665279 205.396142 
L 234.630494 204.278195 
L 235.113101 204.465226 
L 236.024693 204.582961 
L 236.989908 203.360919 
L 237.472516 202.532947 
L 238.276861 201.724572 
L 240.153668 199.096877 
L 240.636276 198.024351 
L 241.60149 196.266628 
L 242.513082 195.308205 
L 245.355104 188.26307 
L 246.320319 187.085604 
L 247.285534 186.425185 
L 248.197126 184.744116 
L 248.679733 183.284577 
L 249.966686 182.558753 
L 250.449294 180.613698 
L 251.414509 180.227342 
L 252.3261 179.144276 
L 253.291315 179.213868 
L 253.773923 178.860178 
L 254.739138 179.208462 
L 255.543483 178.952835 
L 256.455075 180.940974 
L 257.42029 181.028048 
L 258.385505 180.249432 
L 259.189851 180.777301 
L 260.155066 179.907357 
L 261.066658 183.03187 
L 262.031873 184.653568 
L 262.836218 184.304296 
L 263.318826 183.824801 
L 264.230418 184.792547 
L 265.088386 189.090266 
L 265.999978 191.546038 
L 266.965193 191.980984 
L 267.769539 191.262292 
L 268.734754 191.070116 
L 269.217361 195.190016 
L 270.128953 194.8343 
L 270.933299 193.932999 
L 271.898514 193.742802 
L 272.702859 195.551855 
L 273.668074 195.358684 
L 274.150682 195.40919 
L 275.437635 198.250715 
L 275.866619 197.896653 
L 276.831834 208.577219 
L 277.63618 211.46469 
L 278.118788 214.473562 
L 279.084002 214.360017 
L 279.888348 224.559091 
L 280.79994 229.280592 
L 281.282547 237.396121 
L 282.086893 238.976442 
L 282.569501 237.613406 
L 283.052108 237.467596 
L 284.339061 246.402151 
L 284.339061 248.603094 
L 285.626015 248.067133 
L 286.108622 250.505467 
L 287.020214 253.333823 
L 287.502821 258.324167 
L 287.985429 254.670136 
L 289.433251 253.14626 
L 290.237597 251.224266 
L 291.041943 249.823448 
L 292.168027 252.458595 
L 292.168027 251.394828 
L 293.669472 252.637872 
L 293.669472 253.297269 
L 295.117294 252.482263 
L 295.814394 251.459479 
L 295.814394 250.782467 
L 297.637578 247.565902 
L 298.602793 242.9407 
L 300.425976 237.240854 
L 301.123076 236.185569 
L 301.766553 232.114932 
L 302.463652 230.728237 
L 303.107129 230.15176 
L 303.804229 228.286337 
L 304.447705 227.537645 
L 304.447705 226.072413 
L 305.949151 224.510602 
L 306.592627 225.826561 
L 307.289727 225.302868 
L 307.611465 225.535123 
L 307.933203 223.378668 
L 309.756387 221.528012 
L 310.078125 219.469842 
L 310.078125 221.026991 
L 311.901309 219.440644 
L 311.901309 218.980953 
L 313.081016 218.593773 
L 314.528839 217.648869 
L 314.528839 213.051144 
L 315.654923 209.107949 
L 316.83463 204.511643 
L 316.83463 200.921619 
L 318.282452 197.149092 
L 318.282452 194.374249 
L 320.266505 192.319929 
L 320.266505 190.24286 
L 321.392589 186.671445 
L 322.572296 184.142412 
L 323.69838 182.337089 
L 323.69838 180.219567 
L 324.824464 179.25254 
L 326.004171 177.694654 
L 327.451994 176.107205 
L 328.953439 176.046076 
L 330.401261 175.401448 
L 330.401261 178.263024 
L 331.902707 177.873106 
L 333.350529 181.809919 
L 333.350529 182.63204 
L 335.173713 186.507189 
L 335.173713 188.381308 
L 336.996896 190.203675 
L 336.996896 190.964544 
L 338.82008 193.133457 
L 338.82008 191.368807 
L 340.643264 190.77661 
L 340.643264 190.441582 
L 342.788186 189.620487 
L 342.788186 189.364441 
L 344.61137 189.03348 
L 346.434553 190.162617 
L 346.434553 188.719539 
L 347.882376 187.377686 
L 348.204114 186.581583 
L 349.705559 185.652016 
L 350.027298 183.826389 
L 351.528743 182.711939 
L 352.17222 181.992219 
L 352.17222 181.02381 
L 353.995403 179.423256 
L 353.995403 179.21544 
L 355.818587 178.672529 
L 355.818587 178.025841 
L 357.320032 176.406384 
L 357.641771 175.037225 
L 359.089593 173.960027 
L 359.786693 172.882594 
L 360.912777 173.231335 
L 361.609876 172.90344 
L 363.43306 172.68635 
L 364.559144 171.581006 
L 365.202621 170.467229 
L 366.382328 169.661039 
L 367.025805 175.40573 
L 368.205512 174.478378 
L 368.848988 173.780819 
L 369.975072 174.549421 
L 370.672172 172.712411 
L 371.798256 172.359143 
L 373.943178 171.090656 
L 374.640278 171.338187 
L 375.766362 170.987603 
L 376.463461 171.474535 
L 378.286645 170.351614 
L 379.412729 169.944511 
L 380.056206 169.863231 
L 381.235913 171.466444 
L 381.879389 170.470414 
L 382.576489 170.459729 
L 384.399673 170.050763 
L 385.847495 171.108186 
L 387.670679 169.987776 
L 387.992417 170.287035 
L 389.493862 169.264828 
L 389.815601 168.777229 
L 391.317046 169.646285 
L 391.638784 168.896481 
L 393.14023 168.816908 
L 393.461968 168.048732 
L 394.909791 166.957772 
L 395.60689 169.051408 
L 397.430074 166.783123 
L 398.556158 166.341914 
L 399.253258 166.307759 
L 400.70108 167.780918 
L 401.022818 167.725752 
L 402.524264 169.851911 
L 402.846002 170.723412 
L 404.347447 170.462477 
L 404.669186 169.6202 
L 406.492369 169.13301 
L 407.993815 168.949595 
L 408.315553 168.556683 
L 409.763375 168.838891 
L 410.138737 168.428864 
L 411.586559 171.550601 
L 413.409743 170.896436 
L 414.106842 171.488567 
L 415.232926 171.297748 
L 415.876403 175.359714 
L 417.05611 177.409243 
L 417.699587 180.232642 
L 418.879294 181.368074 
L 419.52277 180.822697 
L 420.648855 185.160771 
L 421.667692 191.185908 
L 421.989431 199.284384 
L 423.169138 201.259702 
L 423.490876 206.432997 
L 425.31406 206.41963 
L 426.440144 207.120726 
L 427.137244 206.944572 
L 427.458982 211.19069 
L 428.906804 211.027299 
L 429.282166 212.113661 
L 430.40825 213.798479 
L 430.729988 222.703218 
L 432.231433 225.02696 
L 432.87491 223.919975 
L 432.87491 227.794255 
L 434.376355 227.341322 
L 434.698094 229.683442 
L 435.073455 237.22642 
L 436.521277 241.919095 
L 436.521277 243.92843 
L 438.022723 254.222005 
L 438.344461 259.990544 
L 438.666199 271.253876 
L 439.845906 274.380876 
L 440.167645 271.989288 
L 441.990828 273.788684 
L 442.634305 281.453716 
L 444.13575 286.709025 
L 444.13575 298.882054 
L 445.958934 300.61149 
L 446.280672 305.11309 
L 446.924149 303.260167 
L 447.29951 308.918044 
L 447.942987 308.507212 
L 447.942987 312.782152 
L 449.766171 312.382166 
L 450.087909 310.875938 
L 452.554569 310.761947 
L 452.554569 301.675463 
L 454.753114 295.747698 
L 454.753114 286.027935 
L 456.200937 283.312424 
L 462.796572 281.372395 
L 462.796572 279.859518 
L 463.976279 276.352298 
L 463.976279 270.990526 
L 465.102363 262.630873 
L 467.247285 253.617343 
L 467.247285 241.549091 
L 469.767568 237.860304 
L 470.089307 235.395725 
L 470.089307 232.260806 
L 472.555967 231.038116 
L 473.253067 229.005827 
L 473.896543 227.585019 
L 473.896543 225.66098 
L 476.041465 224.929386 
L 476.738565 224.002466 
L 478.722618 219.750275 
L 480.384932 216.835216 
L 481.082032 214.877101 
L 481.725509 213.484224 
L 482.422608 213.175206 
L 483.066085 212.143586 
L 483.763184 211.735339 
L 484.782022 210.177421 
L 485.425499 208.391445 
L 486.766075 206.003605 
L 487.784913 204.903145 
L 489.125489 202.737244 
L 489.768966 201.214426 
L 490.787804 200.656084 
L 491.484904 199.362376 
L 492.12838 198.819671 
L 493.468956 197.313195 
L 493.951564 195.60026 
L 494.970402 193.365964 
L 495.613878 191.188647 
L 496.310978 190.348315 
L 497.973293 187.403588 
L 498.992131 186.452588 
L 499.635607 185.611183 
L 500.654445 184.684763 
L 501.351545 184.232946 
L 501.995021 188.050288 
L 503.121105 190.445275 
L 503.818205 192.906474 
L 504.837043 192.892011 
L 506.499358 191.391092 
L 507.142834 190.268727 
L 507.839934 189.482389 
L 508.858772 188.885486 
L 509.502248 190.314424 
L 510.199348 194.500639 
L 511.325432 194.108612 
L 512.987747 203.059021 
L 513.684846 209.857823 
L 514.328323 208.645796 
L 515.347161 211.604158 
L 516.044261 211.378825 
L 516.687737 211.468871 
L 517.384837 214.063494 
L 519.047151 215.479767 
L 519.851497 224.438077 
L 520.494974 227.608489 
L 521.83555 239.854837 
L 522.53265 238.901089 
L 523.176126 248.412575 
L 523.873226 252.374191 
L 524.516702 252.19778 
L 525.213802 255.282125 
L 525.857279 259.914497 
L 526.23264 263.433834 
L 526.876117 266.185096 
L 528.002201 269.065697 
L 528.377562 272.906639 
L 528.6993 271.912142 
L 529.342777 273.217016 
L 530.039877 277.000044 
L 530.361615 276.388688 
L 531.058715 281.260379 
L 531.702191 280.06228 
L 532.023929 279.962014 
L 533.525375 280.4737 
L 533.525375 280.364923 
L 533.847113 280.171104 
L 535.670297 278.762169 
L 535.670297 273.87301 
L 536.367397 272.257685 
L 538.136957 270.9513 
L 538.136957 266.636169 
L 539.960141 263.409244 
L 539.960141 260.452273 
L 541.944194 257.288133 
L 545.75143 252.654005 
L 545.75143 248.426575 
L 547.896352 244.583259 
L 548.218091 243.042835 
L 549.505044 241.41381 
L 550.631128 239.576858 
L 550.631128 237.024812 
L 553.258657 232.247019 
L 553.258657 226.890546 
L 554.384741 223.82046 
L 555.564448 221.023397 
L 555.564448 219.863348 
L 556.690532 217.227303 
L 557.816617 215.716399 
L 557.816617 213.393695 
L 559.318062 211.809977 
L 559.6398 210.606292 
L 560.444146 208.961815 
L 561.945591 206.716596 
L 562.26733 204.713171 
L 563.071675 202.70718 
L 564.573121 200.34462 
L 564.573121 198.487969 
L 565.699205 197.309578 
L 566.825289 196.929732 
L 567.20065 195.511316 
L 568.326734 192.819614 
L 569.82818 190.954768 
L 570.954264 190.775697 
L 572.080348 189.274491 
L 572.455709 186.858049 
L 573.581793 185.135791 
L 574.707877 183.984103 
L 575.512223 182.182124 
L 576.209323 181.519283 
L 577.335407 180.682839 
L 578.139752 178.794689 
L 578.836852 177.741783 
L 579.962936 176.547188 
L 580.767282 175.441573 
L 581.946989 174.215746 
L 582.590466 172.860642 
L 584.520895 171.624906 
L 585.700603 171.52568 
L 586.344079 170.86453 
L 587.148425 172.631707 
L 588.328132 172.211656 
L 588.971609 171.422197 
L 590.151316 171.128886 
L 590.955661 171.722247 
L 594.709275 169.687781 
L 595.835359 169.367162 
L 596.532459 168.840381 
L 597.658543 168.51426 
L 598.462888 168.777503 
L 599.481726 169.241623 
L 600.286072 169.078146 
L 601.412156 168.483735 
L 602.109256 167.563981 
L 603.23534 168.78055 
L 604.039686 168.503003 
L 605.219393 168.89386 
L 605.862869 168.629133 
L 607.846922 168.086914 
L 608.973006 169.786445 
L 609.616483 172.328941 
L 610.420829 172.076557 
L 611.600536 171.135778 
L 613.423719 170.17585 
L 615.354149 168.734174 
L 616.051249 167.478295 
L 617.177333 167.175928 
L 618.303417 169.920055 
L 619.107763 169.87198 
L 619.804862 171.306814 
L 620.930946 170.537088 
L 622.914999 169.705068 
L 623.558476 169.28125 
L 625.864267 168.334114 
L 626.668613 167.347682 
L 627.312089 167.724556 
L 628.491796 167.593829 
L 629.617881 166.897892 
L 630.31498 168.499816 
L 631.119326 167.904861 
L 632.24541 169.306496 
L 633.371494 168.895278 
L 634.068594 168.31988 
L 634.872939 169.303045 
L 635.999023 168.98001 
L 636.696123 169.402185 
L 637.822207 170.367105 
L 638.626553 170.259747 
L 639.752637 170.984433 
L 640.449737 170.094261 
L 641.254082 169.410346 
L 642.755528 171.588261 
L 643.559874 170.895751 
L 644.20335 173.362827 
L 645.383057 172.557441 
L 647.313487 170.947023 
L 648.010587 171.857564 
L 649.136671 171.405085 
L 650.262755 170.780788 
L 650.584493 170.457275 
L 651.7642 170.385383 
L 652.890284 169.622048 
L 653.69463 171.490042 
L 654.39173 172.683405 
L 655.517814 179.598527 
L 656.643898 178.951688 
L 657.448243 178.862107 
L 658.145343 178.53287 
L 659.271427 180.139948 
L 660.075773 179.424436 
L 660.772873 179.294871 
L 661.898957 180.231194 
L 663.078664 180.780821 
L 663.883009 181.837657 
L 664.526486 183.643901 
L 665.706193 187.73626 
L 666.510539 187.620171 
L 667.154016 191.798006 
L 668.2801 191.643441 
L 669.138068 193.860592 
L 669.781545 193.57066 
L 670.585891 199.222366 
L 671.711975 199.07901 
L 672.409074 198.668294 
L 673.21342 197.252528 
L 674.017766 196.965999 
L 675.14385 196.834183 
L 676.001819 199.97871 
L 676.645295 199.488679 
L 677.449641 200.480777 
L 678.253987 206.326607 
L 679.058333 205.245989 
L 679.862678 205.271007 
L 680.720647 204.482401 
L 681.524993 205.737577 
L 682.329339 205.194081 
L 683.133684 203.132352 
L 683.93803 201.524533 
L 686.029329 200.132142 
L 686.351067 201.431097 
L 688.120628 197.740224 
L 689.407581 195.777248 
L 689.72932 195.597824 
L 690.694535 194.640909 
L 692.785833 193.426922 
L 693.107572 192.093188 
L 694.555394 191.078568 
L 694.877132 189.161442 
L 696.164086 187.840483 
L 697.075677 187.535531 
L 697.451039 185.578925 
L 698.845238 184.761583 
L 699.166976 182.743837 
L 700.936537 180.945926 
L 702.22349 178.739856 
L 702.22349 178.501219 
L 703.993051 177.439224 
L 703.993051 175.788051 
L 705.762612 175.676308 
L 705.762612 175.204737 
L 707.478549 173.519617 
L 707.478549 173.25742 
L 709.408979 172.331938 
L 709.730717 171.972399 
L 711.17854 171.04947 
L 711.500278 170.402703 
L 713.269839 168.644695 
L 714.18143 167.595713 
L 715.468384 167.575735 
L 715.950991 167.086258 
L 717.720552 166.706342 
L 718.632144 165.726564 
L 720.401704 165.662749 
L 721.849527 165.971631 
L 722.171265 166.432463 
L 724.048072 165.357366 
L 724.423433 166.616047 
L 724.852417 168.7516 
L 725.817632 169.472756 
L 727.104585 168.021727 
L 727.587193 167.771538 
L 728.552408 166.886827 
L 729.785738 167.907973 
L 730.268345 167.963373 
L 731.23356 167.797468 
L 732.520514 168.566805 
L 733.003121 167.835861 
L 735.362535 167.47408 
L 735.684273 170.584675 
L 736.649488 169.954903 
L 737.614703 169.685639 
L 739.008903 170.098389 
L 739.330641 169.819596 
L 740.295856 169.398242 
L 741.261071 171.797754 
L 742.172663 171.593958 
L 743.137877 174.118229 
L 743.942223 179.340649 
L 745.390046 183.540543 
L 746.301637 183.235948 
L 747.266852 186.688801 
L 748.071198 188.423127 
L 749.036413 189.199361 
L 749.948005 190.184444 
L 750.430612 191.585345 
L 751.395827 196.602486 
L 752.200173 196.685029 
L 753.165388 196.647983 
L 753.647995 199.234977 
L 755.524802 198.819539 
L 756.007409 206.436655 
L 756.919001 206.728661 
L 757.77697 206.367886 
L 758.688562 205.535552 
L 759.171169 207.137559 
L 760.136384 207.724083 
L 761.047976 209.678653 
L 761.852322 212.323914 
L 762.334929 217.392418 
L 763.300144 224.98693 
L 763.782752 226.165096 
L 764.747967 234.136603 
L 765.176951 245.410631 
L 765.659558 250.033242 
L 766.624773 251.387263 
L 767.429119 253.03868 
L 767.911727 258.8721 
L 768.394334 259.950153 
L 769.305926 264.174997 
L 769.788533 264.094463 
L 770.271141 265.668291 
L 770.753748 265.556376 
L 772.147948 268.369058 
L 772.523309 267.165356 
L 773.917508 277.006234 
L 774.400116 278.921355 
L 775.365331 277.970927 
L 775.794315 284.05859 
L 776.276922 288.431466 
L 778.046483 291.978933 
L 778.046483 288.680448 
L 778.52909 288.192954 
L 780.298651 286.177053 
L 780.781259 284.20596 
L 781.585604 282.890359 
L 783.355165 280.640152 
L 783.355165 276.340298 
L 785.178349 273.287125 
L 785.178349 267.609332 
L 787.323271 264.81744 
L 787.323271 262.076597 
L 789.629062 257.006287 
L 791.773984 251.475882 
L 791.773984 238.868962 
L 793.918906 235.245735 
L 795.420351 230.428066 
L 795.420351 224.272353 
L 798.637734 217.806761 
L 799.602949 212.085409 
L 800.085557 206.826113 
L 800.997148 202.084349 
L 801.479756 197.071172 
L 802.444971 193.723316 
L 802.927578 189.877326 
L 804.804385 184.940038 
L 805.286992 182.433988 
L 806.681192 180.081337 
L 807.646407 183.396052 
L 808.611622 183.18538 
L 809.094229 185.933964 
L 810.005821 185.702225 
L 810.810167 189.330797 
L 811.775381 192.43821 
L 812.579727 191.561855 
L 813.384073 199.412233 
L 814.188419 202.76104 
L 815.957979 214.05562 
L 816.762325 212.593114 
L 817.566671 216.925431 
L 818.371017 225.090519 
L 819.175362 223.188369 
L 820.837677 231.346854 
L 821.963761 231.036811 
L 822.768107 231.193943 
L 823.572453 230.260047 
L 824.269552 229.171791 
L 825.073898 230.807403 
L 825.878244 230.787869 
L 826.52172 232.608926 
L 827.326066 235.243723 
L 827.808673 239.010196 
L 828.988381 242.713948 
L 829.631857 242.392839 
L 830.114465 242.914179 
L 831.133303 246.009178 
L 831.61591 250.560859 
L 832.581125 261.841012 
L 833.063732 269.240944 
L 833.063732 278.208827 
L 834.565178 277.042819 
L 834.565178 284.786899 
L 834.886916 291.512948 
L 836.388361 291.428697 
L 836.388361 294.26474 
L 837.514446 294.427786 
L 837.514446 301.944311 
L 838.962268 301.643064 
L 838.962268 303.20192 
L 838.962268 303.027479 
L 840.785452 306.525329 
L 840.785452 306.855331 
L 841.965159 308.186782 
L 842.286897 306.619046 
L 842.769504 306.813734 
L 842.769504 309.239972 
L 842.769504 309.047779 
L 843.895588 306.803824 
L 843.895588 296.448229 
L 851.295569 295.232015 
L 851.295569 293.820232 
L 852.797015 291.087932 
L 852.797015 288.367257 
L 854.620198 285.472172 
L 854.620198 275.468757 
L 857.086859 270.26943 
L 859.607142 266.593557 
L 859.607142 257.886072 
L 862.073802 255.567372 
L 862.073802 250.241444 
L 864.218724 247.998392 
L 865.344808 246.252194 
L 865.344808 243.574228 
L 866.524516 240.542097 
L 866.524516 237.508792 
L 868.454945 235.654957 
L 868.454945 233.855879 
L 869.581029 231.581321 
L 869.581029 229.723254 
L 870.760737 228.795948 
L 871.886821 226.698876 
L 873.495512 222.096218 
L 873.495512 219.547429 
L 874.996957 217.439111 
L 875.801303 215.226474 
L 876.605649 212.280468 
L 877.409995 211.330125 
L 878.21434 208.878484 
L 878.696948 206.736428 
L 879.823032 205.689715 
L 881.109985 205.197073 
L 881.592593 203.456986 
L 882.396938 202.060942 
L 883.201284 200.096499 
L 884.863599 196.890419 
L 885.667944 195.829908 
L 886.47229 195.074489 
L 887.276636 193.478181 
L 888.080982 192.297456 
L 888.885327 191.544507 
L 889.689673 191.654299 
L 890.976626 192.738268 
L 891.780972 196.266218 
L 892.26358 194.903817 
L 893.389664 193.559289 
L 894.194009 192.357868 
L 895.159224 194.647865 
L 895.96357 202.928741 
L 896.767916 204.700188 
L 898.376607 203.320502 
L 899.180953 208.154482 
L 900.038922 208.441139 
L 900.843268 211.778265 
L 901.754859 213.121583 
L 902.559205 219.86259 
L 903.417174 219.798189 
L 904.22152 226.156771 
L 904.650504 232.403804 
L 905.508473 232.13701 
L 906.312819 237.457507 
L 907.117164 236.970672 
L 907.599772 239.510133 
L 908.404118 242.107156 
L 909.691071 254.26535 
L 910.495417 264.794265 
L 910.817155 264.028001 
L 911.78237 266.038756 
L 912.586716 266.291555 
L 912.908454 267.564092 
L 913.7128 272.30267 
L 913.7128 272.152739 
L 915.321491 271.638213 
L 915.643229 271.412872 
L 916.822937 270.760837 
L 916.822937 270.43707 
L 917.949021 271.248794 
L 918.64612 268.336806 
L 920.093943 267.730396 
L 920.093943 267.029629 
L 921.702634 267.332136 
L 922.077995 266.666812 
L 923.418572 273.350484 
L 923.847556 272.353432 
L 923.847556 274.414393 
L 925.188132 275.249709 
L 925.67074 274.812754 
L 926.850447 274.775742 
L 926.850447 274.044951 
L 928.459138 273.538778 
L 929.37073 273.085503 
L 930.818553 276.541823 
L 932.319998 276.415859 
L 932.319998 284.669494 
L 934.250428 278.787667 
L 934.947527 268.358541 
L 936.073611 262.451811 
L 936.717088 254.289078 
L 938.218533 246.405896 
L 940.363455 240.53904 
L 941.382293 237.434155 
L 941.864901 235.427377 
L 941.864901 233.396453 
L 942.508377 231.585643 
L 943.205477 231.127442 
L 944.975038 229.655996 
L 944.975038 228.733305 
L 945.350399 227.505401 
L 945.993876 232.157172 
L 947.817059 236.426774 
L 947.817059 250.615375 
L 949.961981 256.362035 
L 951.088065 260.082635 
L 951.088065 268.021913 
L 952.911249 270.709479 
L 952.911249 269.304551 
L 954.412695 270.281573 
L 954.895302 270.129074 
L 955.699648 269.993604 
L 956.021386 273.134699 
L 956.825732 273.990947 
L 957.308339 273.404428 
L 958.112685 273.041095 
L 958.917031 271.642826 
L 959.721377 271.55659 
L 960.203984 273.796664 
L 961.00833 275.3118 
L 961.00833 274.599192 
L 963.260498 274.168978 
L 963.743105 272.879374 
L 964.654697 272.59434 
L 965.137305 274.152805 
L 965.619912 274.086573 
L 966.102519 273.690572 
L 966.585127 273.081306 
L 968.461934 269.938775 
L 970.714102 268.386485 
L 970.714102 267.910821 
L 972.001055 266.023637 
L 972.805401 264.292256 
L 972.805401 263.238677 
L 974.092354 260.864026 
L 974.8967 260.222426 
L 976.505391 259.75026 
L 976.505391 257.676991 
L 977.953214 256.16342 
L 977.953214 254.273639 
L 979.454659 252.066052 
L 979.454659 251.596723 
L 980.956104 248.369026 
L 980.956104 247.052129 
L 983.422765 244.215986 
L 983.422765 239.066229 
L 985.889425 236.550163 
L 986.586525 234.562155 
L 986.586525 231.840352 
L 989.053185 229.54139 
L 989.750285 227.607442 
L 990.393761 226.164537 
L 991.090861 226.06096 
L 991.734337 225.004578 
L 993.879259 224.801094 
L 993.879259 222.609671 
L 994.576359 220.72535 
L 995.541574 220.053987 
L 996.238674 218.318831 
L 996.88215 217.313663 
L 998.705334 215.331354 
L 998.705334 213.253657 
L 999.402434 212.935473 
L 1001.225617 212.257983 
L 1001.225617 211.171454 
L 1001.547356 209.716924 
L 1003.370539 208.060709 
L 1003.370539 206.72846 
L 1004.014016 205.81253 
L 1005.67633 205.39827 
L 1006.534299 202.709827 
L 1007.177776 202.544922 
L 1008.679221 201.616279 
L 1009.00096 200.39751 
L 1010.502405 199.110972 
L 1010.824143 197.686502 
L 1011.950227 196.454142 
L 1011.950227 196.454142 
" clip-path="url(#p16f7f8f878)" style="fill: none; stroke: #3c40c6; stroke-opacity: 0.99; stroke-width: 2.4; stroke-linecap: square"/>
   </g>
   <g id="patch_3">
    <path d="M 46.9525 434.59192 
L 46.9525 72.25112 
" style="fill: none; stroke: #000000; stroke-width: 0.8; stroke-linejoin: miter; stroke-linecap: square"/>
   </g>
   <g id="patch_4">
    <path d="M 1057.9025 434.59192 
L 1057.9025 72.25112 
" style="fill: none; stroke: #000000; stroke-width: 0.8; stroke-linejoin: miter; stroke-linecap: square"/>
   </g>
   <g id="patch_5">
    <path d="M 46.9525 434.59192 
L 1057.9025 434.59192 
" style="fill: none; stroke: #000000; stroke-width: 0.8; stroke-linejoin: miter; stroke-linecap: square"/>
   </g>
   <g id="patch_6">
    <path d="M 46.9525 72.25112 
L 1057.9025 72.25112 
" style="fill: none; stroke: #000000; stroke-width: 0.8; stroke-linejoin: miter; stroke-linecap: square"/>
   </g>
   <g id="legend_1">
    <g id="patch_7">
     <path d="M 334.7085 35.8 
L 729.7085 35.8 
Q 733.7085 35.8 733.7085 31.8 
L 733.7085 4 
Q 733.7085 -0 729.7085 -0 
L 334.7085 -0 
Q 330.7085 -0 330.7085 4 
L 330.7085 31.8 
Q 330.7085 35.8 334.7085 35.8 
z
" style="fill: #ffffff; opacity: 0.8; stroke: #cccccc; stroke-linejoin: miter"/>
    </g>
    <g id="line2d_23">
     <path d="M 338.7085 16.6 
L 358.7085 16.6 
L 378.7085 16.6 
" style="fill: none; stroke: #0be881; stroke-opacity: 0.99; stroke-width: 2.4; stroke-linecap: square"/>
    </g>
    <g id="text_13">
     <!-- MLP256$^m$ -->
     <g transform="translate(394.7085 23.6)scale(0.2 -0.2)">
      <defs>
       <path id="DejaVuSans-4d" d="M 628 4666 
L 1569 4666 
L 2759 1491 
L 3956 4666 
L 4897 4666 
L 4897 0 
L 4281 0 
L 4281 4097 
L 3078 897 
L 2444 897 
L 1241 4097 
L 1241 0 
L 628 0 
L 628 4666 
z
" transform="scale(0.015625)"/>
       <path id="DejaVuSans-4c" d="M 628 4666 
L 1259 4666 
L 1259 531 
L 3531 531 
L 3531 0 
L 628 0 
L 628 4666 
z
" transform="scale(0.015625)"/>
       <path id="DejaVuSans-50" d="M 1259 4147 
L 1259 2394 
L 2053 2394 
Q 2494 2394 2734 2622 
Q 2975 2850 2975 3272 
Q 2975 3691 2734 3919 
Q 2494 4147 2053 4147 
L 1259 4147 
z
M 628 4666 
L 2053 4666 
Q 2838 4666 3239 4311 
Q 3641 3956 3641 3272 
Q 3641 2581 3239 2228 
Q 2838 1875 2053 1875 
L 1259 1875 
L 1259 0 
L 628 0 
L 628 4666 
z
" transform="scale(0.015625)"/>
       <path id="DejaVuSans-35" d="M 691 4666 
L 3169 4666 
L 3169 4134 
L 1269 4134 
L 1269 2991 
Q 1406 3038 1543 3061 
Q 1681 3084 1819 3084 
Q 2600 3084 3056 2656 
Q 3513 2228 3513 1497 
Q 3513 744 3044 326 
Q 2575 -91 1722 -91 
Q 1428 -91 1123 -41 
Q 819 9 494 109 
L 494 744 
Q 775 591 1075 516 
Q 1375 441 1709 441 
Q 2250 441 2565 725 
Q 2881 1009 2881 1497 
Q 2881 1984 2565 2268 
Q 2250 2553 1709 2553 
Q 1456 2553 1204 2497 
Q 953 2441 691 2322 
L 691 4666 
z
" transform="scale(0.015625)"/>
       <path id="DejaVuSans-Oblique-6d" d="M 5747 2113 
L 5338 0 
L 4763 0 
L 5166 2094 
Q 5191 2228 5203 2325 
Q 5216 2422 5216 2491 
Q 5216 2772 5059 2928 
Q 4903 3084 4622 3084 
Q 4203 3084 3875 2770 
Q 3547 2456 3450 1953 
L 3066 0 
L 2491 0 
L 2900 2094 
Q 2925 2209 2937 2307 
Q 2950 2406 2950 2484 
Q 2950 2769 2794 2926 
Q 2638 3084 2363 3084 
Q 1938 3084 1609 2770 
Q 1281 2456 1184 1953 
L 800 0 
L 225 0 
L 909 3500 
L 1484 3500 
L 1375 2956 
Q 1609 3263 1923 3423 
Q 2238 3584 2597 3584 
Q 2978 3584 3223 3384 
Q 3469 3184 3519 2828 
Q 3781 3197 4126 3390 
Q 4472 3584 4856 3584 
Q 5306 3584 5551 3325 
Q 5797 3066 5797 2591 
Q 5797 2488 5784 2364 
Q 5772 2241 5747 2113 
z
" transform="scale(0.015625)"/>
      </defs>
      <use xlink:href="#DejaVuSans-4d" transform="translate(0 0.51875)"/>
      <use xlink:href="#DejaVuSans-4c" transform="translate(86.279297 0.51875)"/>
      <use xlink:href="#DejaVuSans-50" transform="translate(141.992188 0.51875)"/>
      <use xlink:href="#DejaVuSans-32" transform="translate(202.294922 0.51875)"/>
      <use xlink:href="#DejaVuSans-35" transform="translate(265.917969 0.51875)"/>
      <use xlink:href="#DejaVuSans-36" transform="translate(329.541016 0.51875)"/>
      <use xlink:href="#DejaVuSans-Oblique-6d" transform="translate(394.121094 38.8)scale(0.7)"/>
     </g>
    </g>
    <g id="line2d_24">
     <path d="M 527.9085 16.6 
L 547.9085 16.6 
L 567.9085 16.6 
" style="fill: none; stroke: #3c40c6; stroke-opacity: 0.99; stroke-width: 2.4; stroke-linecap: square"/>
    </g>
    <g id="text_14">
     <!-- TinyLidarNet$^m$ -->
     <g transform="translate(583.9085 23.6)scale(0.2 -0.2)">
      <defs>
       <path id="DejaVuSans-69" d="M 603 3500 
L 1178 3500 
L 1178 0 
L 603 0 
L 603 3500 
z
M 603 4863 
L 1178 4863 
L 1178 4134 
L 603 4134 
L 603 4863 
z
" transform="scale(0.015625)"/>
       <path id="DejaVuSans-6e" d="M 3513 2113 
L 3513 0 
L 2938 0 
L 2938 2094 
Q 2938 2591 2744 2837 
Q 2550 3084 2163 3084 
Q 1697 3084 1428 2787 
Q 1159 2491 1159 1978 
L 1159 0 
L 581 0 
L 581 3500 
L 1159 3500 
L 1159 2956 
Q 1366 3272 1645 3428 
Q 1925 3584 2291 3584 
Q 2894 3584 3203 3211 
Q 3513 2838 3513 2113 
z
" transform="scale(0.015625)"/>
       <path id="DejaVuSans-79" d="M 2059 -325 
Q 1816 -950 1584 -1140 
Q 1353 -1331 966 -1331 
L 506 -1331 
L 506 -850 
L 844 -850 
Q 1081 -850 1212 -737 
Q 1344 -625 1503 -206 
L 1606 56 
L 191 3500 
L 800 3500 
L 1894 763 
L 2988 3500 
L 3597 3500 
L 2059 -325 
z
" transform="scale(0.015625)"/>
       <path id="DejaVuSans-4e" d="M 628 4666 
L 1478 4666 
L 3547 763 
L 3547 4666 
L 4159 4666 
L 4159 0 
L 3309 0 
L 1241 3903 
L 1241 0 
L 628 0 
L 628 4666 
z
" transform="scale(0.015625)"/>
       <path id="DejaVuSans-74" d="M 1172 4494 
L 1172 3500 
L 2356 3500 
L 2356 3053 
L 1172 3053 
L 1172 1153 
Q 1172 725 1289 603 
Q 1406 481 1766 481 
L 2356 481 
L 2356 0 
L 1766 0 
Q 1100 0 847 248 
Q 594 497 594 1153 
L 594 3053 
L 172 3053 
L 172 3500 
L 594 3500 
L 594 4494 
L 1172 4494 
z
" transform="scale(0.015625)"/>
      </defs>
      <use xlink:href="#DejaVuSans-54" transform="translate(0 0.51875)"/>
      <use xlink:href="#DejaVuSans-69" transform="translate(61.083984 0.51875)"/>
      <use xlink:href="#DejaVuSans-6e" transform="translate(88.867188 0.51875)"/>
      <use xlink:href="#DejaVuSans-79" transform="translate(152.246094 0.51875)"/>
      <use xlink:href="#DejaVuSans-4c" transform="translate(211.425781 0.51875)"/>
      <use xlink:href="#DejaVuSans-69" transform="translate(267.138672 0.51875)"/>
      <use xlink:href="#DejaVuSans-64" transform="translate(294.921875 0.51875)"/>
      <use xlink:href="#DejaVuSans-61" transform="translate(358.398438 0.51875)"/>
      <use xlink:href="#DejaVuSans-72" transform="translate(419.677734 0.51875)"/>
      <use xlink:href="#DejaVuSans-4e" transform="translate(460.791016 0.51875)"/>
      <use xlink:href="#DejaVuSans-65" transform="translate(535.595703 0.51875)"/>
      <use xlink:href="#DejaVuSans-74" transform="translate(597.119141 0.51875)"/>
      <use xlink:href="#DejaVuSans-Oblique-6d" transform="translate(637.285156 38.8)scale(0.7)"/>
     </g>
    </g>
   </g>
  </g>
 </g>
 <defs>
  <clipPath id="p16f7f8f878">
   <rect x="46.9525" y="72.25112" width="1010.95" height="362.3408"/>
  </clipPath>
 </defs>
</svg>
